<svg xmlns="http://www.w3.org/2000/svg" viewBox="0 0 1000 1000">
  <path d="M421.13,780.80 L419.21,777.17 L419.85,775.36 L418.78,772.95 L415.37,768.72 L413.23,766.91 L401.49,764.49 L380.58,764.49 L371.40,767.51 L353.68,778.38 L335.11,786.23 L324.44,792.87 L321.88,796.50 L320.60,794.08 L307.36,787.44 L304.38,785.02 L302.88,778.99 L302.88,775.97 L304.16,767.51 L302.88,765.70 L298.40,762.08 L288.79,765.10 L280.47,756.04 L262.75,738.53 L259.34,731.28 L254.64,724.03 L232.23,693.24 L214.94,673.31 L203.42,658.82 L192.32,648.55 L181.00,635.87 L177.59,631.04 L166.70,620.17 L164.78,614.73 L164.57,612.32 L163.93,608.70 L162.22,606.28 L157.74,603.86 L150.48,604.47 L145.14,602.05 L134.47,588.77 L125.93,581.52 L124.65,582.73 L123.37,585.14 L117.40,589.98 L111.42,589.98 L101.17,572.46 L85.17,552.54 L73.21,543.48 L67.24,538.04 L63.18,532.00 L56.56,520.53 L51.23,513.29 L35.65,497.58 L29.03,486.71 L23.91,471.01 L17.72,461.96 L8.32,452.90 L0.00,449.88 L0.00,447.46 L1.92,436.59 L4.91,429.35 L23.69,410.63 L32.23,399.15 L36.07,394.93 L47.81,384.66 L53.15,379.23 L56.99,373.19 L69.16,358.70 L72.15,352.66 L77.69,338.16 L82.60,321.86 L85.59,313.41 L90.07,309.18 L93.49,307.37 L109.07,305.56 L115.90,301.93 L119.74,296.50 L122.52,290.46 L128.07,275.97 L131.48,269.93 L142.16,257.85 L146.00,250.60 L146.64,245.77 L146.42,243.96 L144.72,234.30 L145.36,229.47 L149.84,222.22 L152.83,216.18 L156.88,199.28 L159.66,190.82 L159.87,183.57 L158.59,172.10 L159.87,164.86 L163.71,158.21 L169.26,153.38 L176.73,149.15 L184.42,148.55 L201.49,137.68 L215.58,132.85 L226.25,121.98 L232.87,113.53 L236.71,109.90 L242.69,109.90 L253.36,113.53 L257.20,121.98 L266.38,128.62 L273.85,132.25 L296.05,132.85 L302.67,134.06 L309.07,136.47 L330.63,141.30 L358.38,148.55 L371.40,155.19 L379.51,150.97 L386.55,150.36 L400.21,144.32 L412.81,135.87 L422.41,127.42 L427.32,120.17 L440.34,105.68 L446.53,97.83 L452.51,93.60 L459.55,93.60 L465.10,91.18 L473.21,83.33 L477.69,82.13 L493.28,85.75 L506.51,78.50 L521.24,79.71 L529.14,74.88 L535.33,69.44 L548.99,60.39 L557.10,55.56 L564.14,53.74 L579.51,52.54 L586.77,50.72 L639.27,24.76 L660.41,16.91 L692.00,3.02 L701.81,0.60 L708.43,0.00 L725.72,3.62 L734.47,3.62 L735.11,5.43 L735.33,9.66 L737.89,15.10 L758.59,22.34 L775.03,30.19 L790.39,35.02 L797.01,39.25 L809.18,44.08 L826.04,42.87 L847.81,42.87 L860.41,44.08 L883.46,44.69 L884.53,46.50 L885.81,46.50 L891.14,45.29 L899.68,45.89 L913.77,44.08 L927.00,39.25 L952.40,24.76 L962.43,21.14 L968.20,25.97 L972.68,48.31 L975.03,55.56 L977.80,59.18 L978.87,64.61 L983.78,80.92 L985.49,82.73 L987.83,83.33 L997.87,83.33 L1000.00,88.16 L1000.00,89.37 L996.16,93.60 L990.82,97.22 L959.66,115.34 L937.89,125.00 L929.35,126.81 L907.58,130.43 L907.15,131.64 L906.51,150.36 L906.94,155.80 L907.58,161.23 L907.36,169.69 L906.30,180.56 L905.66,191.43 L904.16,203.50 L903.74,222.83 L902.67,240.34 L902.67,249.40 L903.31,258.45 L903.52,270.53 L902.45,300.12 L902.45,317.63 L903.95,330.31 L902.88,336.96 L905.23,344.81 L913.77,355.68 L917.61,362.92 L919.96,369.57 L922.31,379.23 L924.23,397.95 L923.37,406.40 L917.40,431.16 L916.33,440.22 L916.12,452.90 L916.76,453.50 L916.33,459.54 L917.61,467.39 L916.97,478.26 L918.68,491.55 L918.04,496.38 L915.26,507.25 L913.34,518.72 L912.06,530.19 L911.63,544.08 L909.93,557.37 L910.35,560.39 L912.91,564.61 L914.62,570.05 L915.69,584.54 L915.47,587.56 L916.33,593.60 L916.76,602.66 L918.25,611.11 L922.52,622.58 L925.72,628.62 L934.04,643.12 L936.82,651.57 L937.89,657.00 L938.53,664.86 L938.31,670.89 L936.61,680.56 L935.54,689.61 L932.76,697.46 L929.35,705.92 L924.87,711.96 L912.06,725.24 L911.85,726.45 L911.85,731.28 L917.40,747.58 L919.96,756.64 L921.88,765.70 L925.08,773.55 L925.93,776.57 L926.36,783.21 L926.36,794.08 L929.78,797.10 L929.78,799.52 L928.50,802.54 L922.73,809.78 L920.60,814.61 L917.40,824.88 L910.99,836.96 L901.60,849.64 L895.20,865.34 L877.91,897.34 L872.57,906.40 L862.75,919.69 L858.48,926.93 L850.37,936.59 L842.05,942.03 L833.08,946.26 L822.20,956.52 L815.58,961.96 L808.54,965.58 L802.99,966.18 L781.43,964.98 L767.56,969.20 L759.45,968.60 L754.54,969.81 L740.02,978.26 L722.31,978.86 L710.14,974.03 L706.08,974.03 L703.95,974.03 L697.12,978.26 L689.86,980.07 L682.60,978.86 L674.92,980.07 L655.07,990.34 L646.32,990.34 L638.21,986.71 L632.44,984.90 L627.32,985.51 L624.97,986.11 L617.29,992.15 L603.84,992.15 L595.52,993.36 L582.50,1000.00 L575.67,998.79 L569.05,996.38 L559.87,995.77 L552.83,998.19 L545.14,998.19 L531.27,992.15 L524.01,990.94 L516.54,991.55 L510.35,989.73 L505.02,984.30 L491.14,980.07 L475.56,972.83 L468.94,968.60 L462.11,960.75 L450.37,952.90 L445.04,948.07 L440.34,942.63 L431.16,929.95 L416.01,915.46 L411.10,913.65 L406.19,913.65 L400.64,922.71 L398.51,922.71 L386.34,914.86 L377.80,900.36 L367.98,891.30 L356.24,875.00 L345.78,865.94 L340.66,858.09 L336.18,849.64 L331.70,845.41 L320.38,836.35 L315.05,829.11 L311.85,821.26 L308.22,813.41 L302.67,808.57 L292.42,801.93 L275.35,786.23 L273.85,781.40 L273.43,776.57 L286.02,763.29 L296.48,763.29 L300.96,761.47 L302.03,762.08 L305.44,768.72 L304.80,776.57 L306.72,784.42 L310.99,787.44 L323.16,792.27 L324.23,792.27 L327.43,787.44 L332.76,782.00 L336.39,779.59 L360.94,769.93 L375.45,760.87 L383.78,757.25 L400.00,760.27 L414.09,760.87 L416.22,761.47 L417.50,763.89 L417.72,769.93" fill="none" stroke="#fc4c02" stroke-width="2" />
</svg>