<svg xmlns="http://www.w3.org/2000/svg" viewBox="0 0 1000 1000">
  <path d="M77.58,519.75 L68.72,528.66 L58.80,535.03 L49.95,543.95 L46.40,542.68 L16.29,556.69 L13.46,555.41 L5.67,559.24 L1.77,565.61 L0.00,571.97 L0.00,573.25 L5.31,585.99 L8.86,602.55 L14.52,621.66 L20.55,622.93 L21.96,619.11 L24.44,622.93 L38.97,653.50 L48.88,668.79 L54.20,671.34 L59.87,680.25 L64.47,692.99 L72.97,707.01 L85.72,721.02 L88.56,728.66 L94.93,752.87 L102.02,765.61 L121.15,785.99 L129.30,802.55 L138.51,816.56 L153.74,824.20 L161.88,830.57 L172.87,844.59 L183.49,854.78 L191.99,867.52 L199.79,881.53 L209.71,895.54 L230.25,914.65 L246.55,933.76 L263.55,947.77 L302.87,968.15 L313.50,979.62 L323.77,983.44 L347.86,985.99 L368.05,997.45 L379.38,1000.00 L398.16,993.63 L408.43,993.63 L426.85,998.73 L437.83,994.90 L448.10,985.99 L458.73,980.89 L481.05,979.62 L487.42,977.07 L497.34,966.88 L506.55,963.06 L516.12,965.61 L532.77,973.25 L540.56,974.52 L559.33,970.70 L580.23,957.96 L591.92,954.14 L610.34,956.69 L634.08,945.22 L641.16,945.22 L658.52,952.87 L668.79,954.14 L679.06,952.87 L695.01,947.77 L715.20,933.76 L745.31,928.66 L755.93,922.29 L764.08,921.02 L788.52,923.57 L796.67,922.29 L810.49,918.47 L818.99,913.38 L844.14,885.35 L864.33,875.16 L873.89,864.97 L882.39,850.96 L922.78,765.61 L935.53,733.76 L946.51,709.55 L955.37,681.53 L958.91,673.89 L975.20,649.68 L981.23,633.12 L989.02,603.82 L994.33,589.81 L1000.00,578.34 L998.94,569.43 L997.52,566.88 L975.91,563.06 L962.10,550.32 L947.57,542.68 L938.01,541.40 L908.61,551.59 L899.04,549.04 L878.50,535.03 L859.72,531.21 L847.68,532.48 L838.12,538.85 L823.24,545.22 L809.78,546.50 L799.15,541.40 L796.67,536.31 L796.67,533.76 L797.73,507.01 L797.02,438.22 L797.38,425.48 L797.02,414.01 L798.09,377.07 L797.38,356.69 L796.67,349.04 L795.96,347.77 L783.92,349.04 L734.68,346.50 L725.12,345.22 L715.91,333.76 L707.05,326.11 L662.06,323.57 L660.29,322.29 L658.87,309.55 L657.46,284.08 L656.39,275.16 L642.22,238.22 L640.81,221.66 L639.39,217.83 L627.70,212.74 L619.20,206.37 L613.18,198.73 L607.16,182.17 L607.86,154.14 L603.97,132.48 L592.99,129.94 L565.71,129.94 L558.98,135.03 L555.79,131.21 L554.02,126.11 L552.60,117.20 L551.54,91.72 L554.37,52.23 L554.73,31.85 L552.96,29.30 L547.64,26.75 L536.31,30.57 L524.62,21.66 L520.37,24.20 L512.22,36.94 L501.24,40.76 L436.06,36.94 L428.27,31.85 L419.77,22.93 L408.78,7.64 L399.22,0.00 L391.78,6.37 L363.44,54.78 L356.00,64.97 L326.25,123.57 L309.25,152.87 L298.26,177.07 L288.35,191.08 L281.26,192.36 L271.70,182.17 L240.52,136.31 L237.69,135.03 L230.25,142.68 L221.75,157.96 L203.68,184.71 L204.39,192.36 L209.00,201.27 L227.77,233.12 L236.27,249.68 L256.11,281.53 L256.11,285.35 L252.57,291.72 L243.71,301.91 L215.02,351.59 L198.37,388.54 L197.66,400.00 L203.33,410.19 L202.27,422.93 L205.10,428.03 L219.62,442.04 L226.00,450.96 L239.82,485.35 L244.42,505.73 L257.17,529.94 L260.01,537.58 L267.09,551.59 L268.86,557.96 L268.51,561.78 L226.71,642.04 L217.50,643.31 L207.23,636.94 L199.43,622.93 L211.83,642.04 L216.08,652.23 L212.54,663.69 L204.04,681.53 L138.15,807.64 L131.42,814.01 L131.07,816.56 L160.82,764.33 L167.20,750.32 L174.64,732.48 L188.10,708.28 L202.62,678.98 L209.71,667.52 L216.79,652.23 L218.92,643.31 L217.85,640.76 L213.25,636.94 L209.35,635.67 L205.81,631.85 L176.41,582.17 L161.18,546.50 L145.59,491.72 L143.46,491.72 L142.40,494.27 L145.24,499.36 L148.78,499.36 L151.97,492.99 L169.68,495.54 L205.81,498.09 L205.81,496.82 L192.35,492.99 L177.12,494.27 L154.80,499.36 L155.15,509.55 L156.57,518.47 L160.47,529.94" fill="none" stroke="#fc4c02" stroke-width="2" />
</svg>