<svg xmlns="http://www.w3.org/2000/svg" viewBox="0 0 1000 1000">
  <path d="M525.77,769.86 L525.50,767.98 L523.65,766.73 L521.79,762.98 L520.99,757.97 L519.66,754.85 L517.80,751.09 L516.74,751.09 L502.39,751.72 L477.15,749.84 L467.06,751.72 L445.27,764.23 L423.49,768.61 L415.25,771.73 L407.01,776.74 L400.37,783.61 L386.29,776.74 L378.59,771.73 L377.79,769.86 L376.73,763.60 L377.52,760.48 L376.73,753.60 L371.41,750.47 L364.77,752.97 L360.79,752.35 L358.66,750.47 L352.55,741.71 L334.75,726.70 L316.42,704.19 L298.09,689.81 L294.90,686.68 L287.73,682.30 L274.97,669.17 L262.49,657.91 L256.38,650.41 L234.33,632.90 L223.43,621.01 L218.12,614.13 L206.16,604.13 L205.63,596.00 L204.30,590.37 L197.40,585.99 L188.63,585.99 L177.74,592.25 L172.95,591.62 L161.00,596.00 L141.07,579.74 L123.54,552.22 L114.77,542.21 L102.28,532.83 L85.81,521.58 L81.30,517.20 L60.31,494.06 L53.40,489.68 L44.10,480.93 L38.26,469.67 L33.21,453.41 L27.90,444.03 L24.97,440.28 L19.39,435.90 L11.16,430.89 L1.86,427.77 L0.00,425.89 L0.53,422.76 L4.25,410.88 L9.83,402.13 L22.05,392.75 L30.55,383.99 L41.45,370.86 L48.09,364.60 L61.11,355.85 L67.75,349.59 L85.55,330.21 L91.92,318.95 L95.91,310.19 L103.61,287.68 L108.66,279.55 L114.51,277.67 L121.41,278.30 L128.06,279.55 L139.74,277.05 L146.65,271.42 L149.31,266.42 L155.42,250.78 L157.55,246.40 L164.45,237.65 L171.89,230.77 L178.00,223.26 L180.13,218.89 L180.66,213.26 L179.06,200.75 L189.69,178.86 L191.02,172.61 L195.54,160.10 L197.13,150.72 L196.87,140.09 L197.13,136.34 L199.52,130.08 L204.30,123.83 L210.95,119.45 L222.10,115.70 L231.40,113.82 L242.30,107.57 L251.59,103.19 L268.33,99.44 L273.38,96.31 L283.74,86.30 L290.91,76.30 L298.09,74.42 L310.04,78.17 L317.22,83.80 L320.94,89.43 L333.42,97.56 L341.13,98.81 L365.83,98.81 L375.66,100.06 L411.53,111.32 L440.49,116.32 L459.62,123.20 L462.54,121.95 L464.93,116.95 L468.92,114.45 L477.42,115.07 L488.04,113.82 L512.75,105.07 L522.85,95.68 L531.08,84.43 L554.46,61.29 L559.78,58.16 L562.96,58.79 L572.79,55.66 L584.48,45.03 L592.19,43.15 L610.26,49.41 L614.77,48.78 L626.99,40.03 L641.60,43.15 L651.17,42.53 L661.26,35.02 L669.23,31.89 L686.50,19.39 L696.33,15.01 L719.45,14.38 L725.29,13.76 L735.65,11.26 L747.34,5.00 L759.30,0.63 L764.08,0.00 L766.47,3.75 L767.00,11.26 L770.46,20.64 L770.46,25.02 L766.47,28.77 L765.14,31.89 L766.21,36.27 L765.14,43.15 L765.41,43.78 L764.61,49.41 L762.49,60.66 L765.67,71.29 L765.41,75.05 L764.35,76.92 L765.14,78.17 L764.61,83.80 L759.03,93.18 L757.97,99.44 L758.50,107.57 L760.36,118.20 L761.16,131.96 L758.77,145.72 L758.24,156.35 L756.11,171.98 L756.91,181.36 L755.05,192.62 L754.25,208.88 L751.59,235.77 L751.33,248.91 L750.27,260.16 L749.73,261.41 L749.20,270.79 L746.55,289.56 L744.69,295.18 L745.75,302.06 L746.01,314.57 L746.81,318.95 L746.28,334.58 L747.08,348.97 L746.01,362.73 L746.81,387.12 L744.95,406.50 L744.42,416.51 L750.00,419.64 L766.21,420.89 L773.38,423.39 L778.16,425.89 L781.62,434.65 L786.93,444.65 L794.63,450.91 L806.06,451.53 L814.56,455.28 L824.12,464.04 L831.30,473.42 L842.19,477.80 L868.23,510.94 L878.32,516.57 L885.23,522.83 L888.95,527.20 L893.46,530.33 L895.06,532.21 L895.86,534.71 L895.59,539.09 L895.86,542.21 L896.92,545.34 L896.65,547.84 L897.45,554.72 L895.06,575.36 L899.31,579.74 L904.09,582.86 L909.67,589.74 L916.84,594.75 L922.95,602.25 L942.61,619.76 L954.30,623.51 L972.37,622.89 L996.28,624.77 L997.34,625.39 L997.61,629.14 L996.55,639.77 L996.28,654.78 L995.75,660.41 L996.01,689.81 L993.89,726.70 L997.34,731.71 L998.94,736.71 L999.20,742.34 L1000.00,744.22 L999.47,751.72 L999.47,763.60 L995.75,779.86 L991.76,791.74 L984.33,804.88 L975.03,818.64 L968.12,830.52 L964.67,841.15 L963.07,863.04 L958.02,866.17 L950.85,868.67 L933.05,870.54 L905.15,867.42 L893.20,869.29 L888.15,872.42 L886.56,876.17 L886.03,888.06 L886.56,914.32 L886.29,925.58 L883.63,949.34 L882.84,961.85 L883.10,963.73 L881.77,970.61 L880.18,971.86 L859.72,976.86 L839.00,977.49 L824.12,983.74 L820.67,986.24 L816.15,986.87 L806.59,987.49 L792.51,984.37 L787.46,984.99 L785.07,983.74 L779.76,984.37 L774.71,986.87 L767.27,991.87 L762.75,993.75 L753.72,993.12 L721.57,998.75 L711.74,996.25 L700.32,995.62 L684.91,1000.00 L676.41,999.37 L666.05,993.75 L647.98,990.62 L640.54,990.62 L634.43,986.24 L626.46,979.36 L618.76,978.11 L604.14,972.48 L595.11,970.61 L588.74,966.23 L576.78,955.60 L556.06,943.09 L548.09,934.96 L537.19,923.08 L530.55,919.95 L517.80,911.19 L508.24,909.32 L502.13,911.19 L497.61,917.45 L494.16,924.33 L494.16,929.96 L493.89,931.21 L488.84,934.33 L450.58,942.46 L351.49,955.60 L328.11,957.47 L325.98,954.97 L325.72,953.10 L326.78,941.21 L328.11,936.21 L329.44,931.83 L336.08,919.32 L336.88,914.95 L335.55,903.69 L339.27,896.81 L345.11,889.31 L398.25,827.39 L398.78,825.52 L391.34,816.14 L387.35,808.63 L384.43,801.13 L387.89,794.87 L397.98,781.74 L408.87,769.86 L416.58,765.48 L434.91,760.48 L443.68,756.72 L465.46,743.59 L476.89,740.46 L485.39,744.22 L503.19,747.34 L513.02,747.34 L518.33,749.84 L521.52,764.23 L529.22,778.61 L530.29,779.86" fill="none" stroke="#fc4c02" stroke-width="2" />
</svg>