<svg xmlns="http://www.w3.org/2000/svg" viewBox="0 0 1000 1000">
  <path d="M312.02,733.98 L305.60,719.82 L305.60,716.84 L304.11,712.37 L304.32,709.39 L303.68,706.41 L303.04,705.66 L293.41,707.15 L282.08,704.17 L271.17,703.43 L265.40,705.66 L258.98,709.39 L252.14,716.10 L241.87,722.80 L224.12,730.25 L214.50,738.45 L210.22,744.41 L210.01,745.16 L212.79,752.61 L213.64,757.08 L214.50,759.31 L215.78,766.77 L217.28,770.49 L225.83,782.41 L230.97,792.85 L242.30,808.49 L246.79,818.93 L248.72,821.91 L254.28,827.87 L260.27,836.81 L263.26,847.99 L265.40,853.95 L267.75,858.42 L279.30,870.34 L281.86,874.07 L285.07,881.52 L287.43,885.99 L295.12,892.70 L304.53,897.17 L308.38,902.38 L320.57,915.80 L323.57,921.01 L327.84,929.96 L329.77,932.94 L337.68,941.88 L346.02,947.84 L358.21,963.49 L364.63,968.70 L390.08,979.14 L393.28,982.12 L397.13,988.08 L399.70,989.57 L417.02,991.06 L423.44,993.29 L430.28,998.51 L434.56,1000.00 L451.45,995.53 L457.66,996.27 L465.36,999.25 L471.56,999.25 L478.83,994.04 L485.89,991.80 L503.64,991.06 L508.55,985.84 L513.47,982.86 L524.38,982.12 L532.51,986.59 L541.92,986.59 L547.48,985.10 L561.16,976.15 L567.15,974.66 L575.49,976.15 L579.77,975.41 L593.46,968.70 L598.80,967.96 L608.43,973.17 L616.98,974.66 L630.45,970.19 L643.71,962.00 L657.83,961.25 L665.74,956.78 L670.44,956.04 L683.49,956.78 L685.20,955.29 L687.55,951.56 L689.48,956.04 L702.10,951.56 L710.01,945.60 L718.99,935.17 L722.84,933.68 L724.76,931.45 L732.89,927.72 L735.89,924.74 L744.01,912.82 L767.75,867.36 L776.52,845.75 L783.15,831.59 L788.92,814.46 L790.63,811.48 L796.62,803.28 L800.04,795.83 L806.67,780.92 L810.52,767.51 L816.08,757.82 L825.06,734.72 L828.27,730.25 L829.13,726.53 L837.68,710.88 L851.37,688.52 L856.93,674.37 L858.85,668.41 L865.06,651.27 L870.83,638.60 L876.82,629.66 L892.00,608.79 L908.47,575.26 L924.94,547.69 L928.14,540.98 L932.21,529.06 L937.55,517.14 L955.73,491.80 L962.36,481.37 L969.63,466.47 L981.82,435.17 L986.53,427.72 L996.58,417.29 L999.57,409.84 L1000.00,407.60 L999.36,405.37 L997.65,403.87 L982.25,399.40 L961.08,391.21 L959.58,389.72 L959.37,387.48 L961.72,373.32 L963.00,357.68 L963.00,331.59 L963.43,322.65 L963.22,315.20 L966.64,271.98 L966.42,251.12 L966.85,246.65 L966.64,242.18 L966.00,236.21 L966.00,234.72 L967.07,231.74 L967.07,227.27 L966.21,216.84 L966.00,204.17 L965.36,198.21 L965.57,193.74 L964.93,186.29 L965.14,172.13 L965.57,166.17 L960.22,165.42 L957.44,171.39 L953.81,172.13 L938.41,171.39 L934.13,172.13 L929.43,170.64 L926.01,172.88 L921.73,171.39 L906.54,170.64 L903.98,172.13 L886.01,170.64 L871.47,171.39 L841.53,168.41 L825.49,172.13 L819.72,168.41 L813.30,167.66 L794.91,169.15 L769.03,166.92 L725.62,166.92 L663.39,163.19 L662.10,160.95 L661.89,154.25 L661.89,131.15 L662.53,120.72 L662.53,107.30 L663.17,92.40 L664.03,87.93 L662.96,84.95 L658.47,80.48 L650.13,81.22 L602.65,79.73 L576.56,80.48 L574.64,79.73 L572.93,75.26 L573.35,64.08 L572.93,60.36 L569.50,55.14 L566.51,53.65 L565.87,52.16 L565.87,43.96 L566.51,25.34 L566.08,21.61 L566.30,18.63 L565.87,15.65 L566.51,6.71 L566.30,0.00 L561.16,0.75 L546.83,0.75 L543.20,5.96 L536.36,5.96 L534.86,7.45 L534.43,8.20 L534.64,10.43 L533.58,20.12 L533.58,33.53 L534.00,44.71 L532.93,52.16 L533.36,61.10 L532.51,72.28 L532.72,87.93 L532.08,93.14 L532.08,100.60 L530.80,117.73 L530.37,133.38 L530.58,150.52 L529.94,154.99 L528.87,157.97 L515.61,160.21 L510.69,165.42 L507.49,166.17 L491.23,167.66 L488.02,166.17 L485.67,159.46 L484.39,157.97 L468.56,156.48 L461.72,157.97 L436.27,152.01 L406.76,150.52 L396.92,145.31 L392.00,148.29 L386.01,149.03 L382.16,147.54 L370.40,139.34 L358.64,127.42 L352.01,116.24 L347.31,105.81 L336.83,90.91 L326.99,73.77 L321.64,67.06 L321.43,65.57 L321.64,64.08 L323.14,60.36 L321.64,56.63 L318.43,54.40 L313.94,54.40 L311.80,55.89 L307.53,54.40 L300.04,45.45 L291.70,29.81 L288.71,29.06 L285.07,34.28 L275.88,49.93 L264.11,67.81 L257.06,80.48 L243.37,100.60 L238.67,105.07 L229.26,123.70 L215.14,146.80 L208.51,156.48 L199.32,166.92 L175.58,205.66 L171.73,209.39 L155.26,221.31 L149.70,227.27 L124.68,267.51 L118.91,275.71 L106.72,281.67 L100.73,286.89 L94.31,289.87 L93.24,289.12 L91.96,284.65 L89.18,271.24 L84.05,269.75 L74.42,276.45 L12.83,301.79 L1.28,305.51 L0.00,307.75 L0.00,308.49 L3.85,324.14 L9.20,354.69 L19.89,411.33 L25.02,442.62 L26.09,445.60 L28.23,448.58 L32.72,451.56 L32.93,453.80 L31.44,457.53 L25.88,466.47 L19.67,471.68 L14.33,478.39 L13.90,479.88 L13.90,481.37 L14.54,482.86 L23.10,497.02 L32.29,511.18 L35.07,512.67 L44.05,510.43 L45.98,511.18 L50.26,516.39 L50.90,518.63 L50.90,526.08 L51.11,529.06 L53.25,534.28 L67.79,550.67 L76.99,566.32 L95.59,589.42 L128.31,639.34 L142.43,658.72 L147.13,666.17 L150.98,675.11 L167.88,695.98 L175.36,707.90 L179.85,710.13 L182.63,709.39 L186.48,706.41 L190.55,710.88 L191.62,713.11 L191.83,716.10 L190.55,722.06 L190.55,727.27 L191.40,730.25 L192.69,732.49 L198.67,737.70 L209.58,744.41 L216.64,734.72 L222.20,730.25" fill="none" stroke="#fc4c02" stroke-width="2" />
</svg>