<svg version="1.1" viewBox="0.0 0.0 600.0 371.0" fill="none" stroke="none" stroke-linecap="square" stroke-miterlimit="10" width="600" height="371" xmlns:xlink="http://www.w3.org/1999/xlink" xmlns="http://www.w3.org/2000/svg"><path fill="#ffffff" d="M0 0L600.0 0L600.0 371.0L0 371.0L0 0Z" fill-rule="nonzero"/><path fill="#fbbc04" d="M295.6703 54.979687C297.11316 54.937675 298.55655 54.916668 300.0 54.916668L300.0 203.68333Z" fill-rule="nonzero"/><path fill="#ea4335" d="M290.72678 55.205967C292.37326 55.103134 294.02133 55.0277 295.6703 54.979687L300.0 203.68333Z" fill-rule="nonzero"/><path fill="#4285f4" d="M300.0 54.916668C381.25708 54.916668 447.48154 120.116425 448.74857 201.36362C450.01562 282.6108 385.8564 349.84387 304.63885 352.37766C223.42131 354.91144 155.19597 291.8084 151.39609 210.64023C147.5962 129.47205 209.62772 60.271046 290.72678 55.205967L300.0 203.68333Z" fill-rule="nonzero"/><path fill="#1a1a1a" d="M19.346874 65.916664L19.346874 59.697914L20.284374 59.697914L20.284374 60.572914Q20.971874 59.55729 22.26875 59.55729Q22.83125 59.55729 23.3 59.760414Q23.784374 59.96354 24.01875 60.291664Q24.253124 60.61979 24.346874 61.05729Q24.39375 61.354164 24.39375 62.08854L24.39375 65.916664L23.346874 65.916664L23.346874 62.135414Q23.346874 61.479164 23.221874 61.166664Q23.096874 60.854164 22.784374 60.666664Q22.471874 60.46354 22.05 60.46354Q21.378124 60.46354 20.878124 60.90104Q20.39375 61.322914 20.39375 62.510414L20.39375 65.916664L19.346874 65.916664ZM30.596874 63.916664L31.690624 64.041664Q31.440624 64.99479 30.7375 65.52604Q30.034374 66.05729 28.95625 66.05729Q27.596874 66.05729 26.784374 65.21354Q25.9875 64.36979 25.9875 62.854164Q25.9875 61.291664 26.8 60.43229Q27.6125 59.55729 28.89375 59.55729Q30.14375 59.55729 30.925 60.40104Q31.721874 61.24479 31.721874 62.791664Q31.721874 62.885414 31.721874 63.072914L27.08125 63.072914Q27.14375 64.104164 27.659374 64.65104Q28.175 65.18229 28.95625 65.18229Q29.534374 65.18229 29.940624 64.885414Q30.3625 64.572914 30.596874 63.916664ZM27.14375 62.21354L30.6125 62.21354Q30.55 61.416664 30.221874 61.02604Q29.70625 60.416664 28.909374 60.416664Q28.175 60.416664 27.675 60.90104Q27.190624 61.385414 27.14375 62.21354ZM37.596874 63.916664L38.690624 64.041664Q38.440624 64.99479 37.7375 65.52604Q37.034374 66.05729 35.95625 66.05729Q34.596874 66.05729 33.784374 65.21354Q32.9875 64.36979 32.9875 62.854164Q32.9875 61.291664 33.8 60.43229Q34.6125 59.55729 35.89375 59.55729Q37.14375 59.55729 37.925 60.40104Q38.721874 61.24479 38.721874 62.791664Q38.721874 62.885414 38.721874 63.072914L34.08125 63.072914Q34.14375 64.104164 34.659374 64.65104Q35.175 65.18229 35.95625 65.18229Q36.534374 65.18229 36.940624 64.885414Q37.3625 64.572914 37.596874 63.916664ZM34.14375 62.21354L37.6125 62.21354Q37.55 61.416664 37.221874 61.02604Q36.70625 60.416664 35.909374 60.416664Q35.175 60.416664 34.675 60.90104Q34.190624 61.385414 34.14375 62.21354ZM44.378124 65.916664L44.378124 65.135414Q43.784374 66.05729 42.64375 66.05729Q41.89375 66.05729 41.26875 65.65104Q40.64375 65.229164 40.3 64.49479Q39.95625 63.760414 39.95625 62.80729Q39.95625 61.885414 40.26875 61.11979Q40.58125 60.354164 41.20625 59.96354Q41.83125 59.55729 42.596874 59.55729Q43.159374 59.55729 43.596874 59.791664Q44.034374 60.02604 44.315624 60.40104L44.315624 57.322914L45.3625 57.322914L45.3625 65.916664L44.378124 65.916664ZM41.05 62.80729Q41.05 64.010414 41.55 64.604164Q42.05 65.18229 42.7375 65.18229Q43.425 65.18229 43.909374 64.61979Q44.39375 64.05729 44.39375 62.90104Q44.39375 61.61979 43.89375 61.02604Q43.409374 60.43229 42.690624 60.43229Q41.9875 60.43229 41.51875 61.010414Q41.05 61.572914 41.05 62.80729ZM46.925 64.05729L47.95625 63.90104Q48.05 64.52604 48.440624 64.854164Q48.846874 65.18229 49.58125 65.18229Q50.3 65.18229 50.64375 64.90104Q51.003124 64.604164 51.003124 64.197914Q51.003124 63.83854 50.690624 63.635414Q50.471874 63.49479 49.6125 63.27604Q48.45625 62.979164 48.003124 62.77604Q47.565624 62.55729 47.33125 62.18229Q47.096874 61.80729 47.096874 61.33854Q47.096874 60.93229 47.284374 60.572914Q47.471874 60.21354 47.8 59.979164Q48.05 59.80729 48.471874 59.68229Q48.89375 59.55729 49.39375 59.55729Q50.1125 59.55729 50.659374 59.77604Q51.221874 59.979164 51.4875 60.33854Q51.753124 60.697914 51.846874 61.291664L50.815624 61.43229Q50.753124 60.96354 50.409374 60.697914Q50.08125 60.416664 49.45625 60.416664Q48.7375 60.416664 48.425 60.666664Q48.1125 60.90104 48.1125 61.229164Q48.1125 61.43229 48.2375 61.58854Q48.378124 61.760414 48.64375 61.86979Q48.8 61.93229 49.58125 62.135414Q50.70625 62.447914 51.14375 62.635414Q51.58125 62.822914 51.83125 63.18229Q52.08125 63.541664 52.08125 64.08854Q52.08125 64.61979 51.76875 65.08854Q51.471874 65.541664 50.89375 65.80729Q50.315624 66.05729 49.58125 66.05729Q48.3625 66.05729 47.721874 65.55729Q47.096874 65.041664 46.925 64.05729ZM53.925 63.33854L53.925 62.27604L57.175 62.27604L57.175 63.33854L53.925 63.33854ZM58.346874 58.541664L58.346874 57.322914L59.409374 57.322914L59.409374 58.541664L58.346874 58.541664ZM58.346874 65.916664L58.346874 59.697914L59.409374 59.697914L59.409374 65.916664L58.346874 65.916664ZM61.346874 65.916664L61.346874 59.697914L62.284374 59.697914L62.284374 60.572914Q62.58125 60.104164 63.065624 59.83854Q63.55 59.55729 64.175 59.55729Q64.8625 59.55729 65.3 59.83854Q65.75313 60.11979 65.925 60.635414Q66.675 59.55729 67.84688 59.55729Q68.78438 59.55729 69.26875 60.072914Q69.76875 60.572914 69.76875 61.65104L69.76875 65.916664L68.72188 65.916664L68.72188 61.99479Q68.72188 61.36979 68.6125 61.08854Q68.51875 60.80729 68.25313 60.635414Q67.9875 60.46354 67.6125 60.46354Q66.95625 60.46354 66.51875 60.90104Q66.09688 61.33854 66.09688 62.30729L66.09688 65.916664L65.03438 65.916664L65.03438 61.86979Q65.03438 61.166664 64.76875 60.822914Q64.51875 60.46354 63.940624 60.46354Q63.4875 60.46354 63.1125 60.697914Q62.7375 60.93229 62.565624 61.385414Q62.39375 61.83854 62.39375 62.68229L62.39375 65.916664L61.346874 65.916664ZM72.34688 68.30729L72.34688 59.697914L73.3 59.697914L73.3 60.49479Q73.64375 60.02604 74.06563 59.791664Q74.50313 59.55729 75.1125 59.55729Q75.90938 59.55729 76.51875 59.96354Q77.12813 60.36979 77.425 61.11979Q77.7375 61.86979 77.7375 62.760414Q77.7375 63.71354 77.39375 64.479164Q77.06563 65.24479 76.40938 65.65104Q75.75313 66.05729 75.03438 66.05729Q74.50313 66.05729 74.08125 65.83854Q73.65938 65.604164 73.39375 65.27604L73.39375 68.30729L72.34688 68.30729ZM73.3 62.83854Q73.3 64.041664 73.78438 64.61979Q74.26875 65.18229 74.95625 65.18229Q75.65938 65.18229 76.15938 64.58854Q76.65938 63.99479 76.65938 62.74479Q76.65938 61.55729 76.175 60.979164Q75.69063 60.385414 75.00313 60.385414Q74.33125 60.385414 73.81563 61.010414Q73.3 61.635414 73.3 62.83854ZM79.33125 65.916664L79.33125 59.697914L80.28438 59.697914L80.28438 60.635414Q80.64375 59.979164 80.94063 59.77604Q81.25313 59.55729 81.62813 59.55729Q82.15938 59.55729 82.70625 59.885414L82.34688 60.86979Q81.95625 60.635414 81.58125 60.635414Q81.22188 60.635414 80.94063 60.854164Q80.675 61.05729 80.56563 61.43229Q80.37813 61.99479 80.37813 62.65104L80.37813 65.916664L79.33125 65.916664ZM82.95625 62.80729Q82.95625 61.072914 83.90938 60.24479Q84.70625 59.55729 85.8625 59.55729Q87.14375 59.55729 87.95625 60.40104Q88.78438 61.229164 88.78438 62.71354Q88.78438 63.916664 88.425 64.604164Q88.06563 65.291664 87.3625 65.68229Q86.675 66.05729 85.8625 66.05729Q84.56563 66.05729 83.75313 65.229164Q82.95625 64.385414 82.95625 62.80729ZM84.03438 62.80729Q84.03438 63.99479 84.55 64.58854Q85.08125 65.18229 85.8625 65.18229Q86.65938 65.18229 87.175 64.58854Q87.69063 63.99479 87.69063 62.77604Q87.69063 61.61979 87.15938 61.02604Q86.64375 60.43229 85.8625 60.43229Q85.08125 60.43229 84.55 61.02604Q84.03438 61.604164 84.03438 62.80729ZM92.06563 65.916664L89.70625 59.697914L90.81563 59.697914L92.15938 63.416664Q92.3625 64.02604 92.55 64.666664Q92.69063 64.18229 92.94063 63.49479L94.33125 59.697914L95.40938 59.697914L93.05 65.916664L92.06563 65.916664ZM99.59688 63.916664L100.69063 64.041664Q100.44063 64.99479 99.7375 65.52604Q99.03438 66.05729 97.95625 66.05729Q96.59688 66.05729 95.78438 65.21354Q94.9875 64.36979 94.9875 62.854164Q94.9875 61.291664 95.8 60.43229Q96.6125 59.55729 97.89375 59.55729Q99.14375 59.55729 99.925 60.40104Q100.72188 61.24479 100.72188 62.791664Q100.72188 62.885414 100.72188 63.072914L96.08125 63.072914Q96.14375 64.104164 96.65938 64.65104Q97.175 65.18229 97.95625 65.18229Q98.53438 65.18229 98.94063 64.885414Q99.3625 64.572914 99.59688 63.916664ZM96.14375 62.21354L99.6125 62.21354Q99.55 61.416664 99.22188 61.02604Q98.70625 60.416664 97.90938 60.416664Q97.175 60.416664 96.675 60.90104Q96.19063 61.385414 96.14375 62.21354ZM102.34688 65.916664L102.34688 59.697914L103.28438 59.697914L103.28438 60.572914Q103.58125 60.104164 104.06563 59.83854Q104.55 59.55729 105.175 59.55729Q105.8625 59.55729 106.3 59.83854Q106.75313 60.11979 106.925 60.635414Q107.675 59.55729 108.84688 59.55729Q109.78438 59.55729 110.26875 60.072914Q110.76875 60.572914 110.76875 61.65104L110.76875 65.916664L109.72188 65.916664L109.72188 61.99479Q109.72188 61.36979 109.6125 61.08854Q109.51875 60.80729 109.25313 60.635414Q108.9875 60.46354 108.6125 60.46354Q107.95625 60.46354 107.51875 60.90104Q107.09688 61.33854 107.09688 62.30729L107.09688 65.916664L106.03438 65.916664L106.03438 61.86979Q106.03438 61.166664 105.76875 60.822914Q105.51875 60.46354 104.94063 60.46354Q104.4875 60.46354 104.1125 60.697914Q103.7375 60.93229 103.56563 61.385414Q103.39375 61.83854 103.39375 62.68229L103.39375 65.916664L102.34688 65.916664ZM117.59688 63.916664L118.69063 64.041664Q118.44063 64.99479 117.7375 65.52604Q117.03438 66.05729 115.95625 66.05729Q114.59688 66.05729 113.78438 65.21354Q112.9875 64.36979 112.9875 62.854164Q112.9875 61.291664 113.8 60.43229Q114.6125 59.55729 115.89375 59.55729Q117.14375 59.55729 117.925 60.40104Q118.72188 61.24479 118.72188 62.791664Q118.72188 62.885414 118.72188 63.072914L114.08125 63.072914Q114.14375 64.104164 114.65938 64.65104Q115.175 65.18229 115.95625 65.18229Q116.53438 65.18229 116.94063 64.885414Q117.3625 64.572914 117.59688 63.916664ZM114.14375 62.21354L117.6125 62.21354Q117.55 61.416664 117.22188 61.02604Q116.70625 60.416664 115.90938 60.416664Q115.175 60.416664 114.675 60.90104Q114.19063 61.385414 114.14375 62.21354ZM120.34688 65.916664L120.34688 59.697914L121.28438 59.697914L121.28438 60.572914Q121.97188 59.55729 123.26875 59.55729Q123.83125 59.55729 124.3 59.760414Q124.78438 59.96354 125.01875 60.291664Q125.25313 60.61979 125.34688 61.05729Q125.39375 61.354164 125.39375 62.08854L125.39375 65.916664L124.34688 65.916664L124.34688 62.135414Q124.34688 61.479164 124.22188 61.166664Q124.09688 60.854164 123.78438 60.666664Q123.47188 60.46354 123.05 60.46354Q122.37813 60.46354 121.87813 60.90104Q121.39375 61.322914 121.39375 62.510414L121.39375 65.916664L120.34688 65.916664ZM129.64375 64.979164L129.8 65.90104Q129.34688 65.99479 129.00313 65.99479Q128.425 65.99479 128.1125 65.822914Q127.8 65.635414 127.65938 65.33854Q127.53438 65.041664 127.53438 64.08854L127.53438 60.510414L126.76875 60.510414L126.76875 59.697914L127.53438 59.697914L127.53438 58.15104L128.58125 57.52604L128.58125 59.697914L129.64375 59.697914L129.64375 60.510414L128.58125 60.510414L128.58125 64.15104Q128.58125 64.604164 128.62813 64.729164Q128.69063 64.854164 128.81563 64.93229Q128.94063 65.010414 129.175 65.010414Q129.3625 65.010414 129.64375 64.979164Z" fill-rule="nonzero"/><path fill="#9e9e9e" d="M19.05 78.68229Q19.05 77.15104 19.3625 76.229164Q19.675 75.291664 20.284374 74.791664Q20.909374 74.291664 21.846874 74.291664Q22.534374 74.291664 23.05 74.572914Q23.58125 74.854164 23.925 75.385414Q24.26875 75.90104 24.45625 76.65104Q24.64375 77.40104 24.64375 78.68229Q24.64375 80.197914 24.33125 81.11979Q24.034374 82.041664 23.409374 82.55729Q22.8 83.05729 21.846874 83.05729Q20.6125 83.05729 19.89375 82.166664Q19.05 81.104164 19.05 78.68229ZM20.128124 78.68229Q20.128124 80.791664 20.628124 81.49479Q21.128124 82.197914 21.846874 82.197914Q22.58125 82.197914 23.065624 81.49479Q23.565624 80.791664 23.565624 78.68229Q23.565624 76.55729 23.065624 75.86979Q22.58125 75.166664 21.83125 75.166664Q21.1125 75.166664 20.675 75.77604Q20.128124 76.55729 20.128124 78.68229ZM26.64375 82.916664L26.64375 81.71354L27.846874 81.71354L27.846874 82.916664L26.64375 82.916664ZM29.05 80.666664L30.159374 80.572914Q30.284374 81.385414 30.721874 81.791664Q31.175 82.197914 31.815624 82.197914Q32.565624 82.197914 33.096874 81.61979Q33.628124 81.041664 33.628124 80.104164Q33.628124 79.197914 33.1125 78.68229Q32.6125 78.15104 31.784374 78.15104Q31.284374 78.15104 30.8625 78.385414Q30.45625 78.61979 30.221874 78.979164L29.2375 78.854164L30.065624 74.447914L34.346874 74.447914L34.346874 75.447914L30.909374 75.447914L30.45625 77.760414Q31.221874 77.21354 32.065624 77.21354Q33.190624 77.21354 33.95625 77.99479Q34.7375 78.77604 34.7375 80.010414Q34.7375 81.166664 34.065624 82.02604Q33.2375 83.05729 31.815624 83.05729Q30.64375 83.05729 29.89375 82.40104Q29.159374 81.74479 29.05 80.666664ZM36.253124 76.385414Q36.253124 75.46354 36.70625 74.822914Q37.175 74.18229 38.05 74.18229Q38.8625 74.18229 39.39375 74.760414Q39.925 75.33854 39.925 76.447914Q39.925 77.541664 39.378124 78.135414Q38.846874 78.71354 38.065624 78.71354Q37.284374 78.71354 36.76875 78.135414Q36.253124 77.55729 36.253124 76.385414ZM38.08125 74.90104Q37.690624 74.90104 37.425 75.24479Q37.175 75.58854 37.175 76.49479Q37.175 77.322914 37.425 77.666664Q37.690624 77.99479 38.08125 77.99479Q38.4875 77.99479 38.7375 77.65104Q39.003124 77.30729 39.003124 76.416664Q39.003124 75.572914 38.7375 75.24479Q38.471874 74.90104 38.08125 74.90104ZM38.08125 83.229164L42.784374 74.18229L43.64375 74.18229L38.95625 83.229164L38.08125 83.229164ZM41.8 80.90104Q41.8 79.979164 42.253124 79.33854Q42.721874 78.697914 43.6125 78.697914Q44.425 78.697914 44.95625 79.27604Q45.4875 79.83854 45.4875 80.96354Q45.4875 82.05729 44.940624 82.65104Q44.409374 83.229164 43.6125 83.229164Q42.846874 83.229164 42.315624 82.65104Q41.8 82.072914 41.8 80.90104ZM43.64375 79.416664Q43.2375 79.416664 42.971874 79.760414Q42.721874 80.104164 42.721874 81.010414Q42.721874 81.822914 42.9875 82.166664Q43.253124 82.510414 43.64375 82.510414Q44.034374 82.510414 44.3 82.166664Q44.565624 81.822914 44.565624 80.916664Q44.565624 80.08854 44.3 79.760414Q44.034374 79.416664 43.64375 79.416664Z" fill-rule="nonzero"/><path stroke="#757575" stroke-width="1.0" stroke-linecap="butt" d="M18.55 70.416664L145.23334 70.416664L293.53772 62.502823" fill-rule="nonzero"/><path fill="#9e9e9e" d="M295.53772 62.502823C295.53772 61.398254 294.64227 60.502823 293.53772 60.502823C292.43314 60.502823 291.53772 61.398254 291.53772 62.502823C291.53772 63.60739 292.43314 64.50282 293.53772 64.50282C294.64227 64.50282 295.53772 63.60739 295.53772 62.502823" fill-rule="nonzero"/><path fill="#1a1a1a" d="M554.04376 332.96564L555.075 333.1219Q555.1375 333.59064 555.4344 333.8094Q555.825 334.10626 556.4969 334.10626Q557.23126 334.10626 557.6219 333.8094Q558.02814 333.5125 558.16876 332.9969Q558.2625 332.66876 558.2469 331.6375Q557.5594 332.45 556.52814 332.45Q555.2469 332.45 554.54376 331.52814Q553.84064 330.59064 553.84064 329.3094Q553.84064 328.41876 554.15314 327.66876Q554.48126 326.90314 555.09064 326.4969Q555.7 326.09064 556.52814 326.09064Q557.6375 326.09064 558.35626 326.98126L558.35626 326.23126L559.325 326.23126L559.325 331.60626Q559.325 333.0594 559.02814 333.66876Q558.73126 334.27814 558.09064 334.6219Q557.45 334.98126 556.5125 334.98126Q555.40314 334.98126 554.71564 334.48126Q554.02814 333.98126 554.04376 332.96564ZM554.91876 329.23126Q554.91876 330.45 555.40314 331.0125Q555.8875 331.575 556.6219 331.575Q557.35626 331.575 557.84064 331.0125Q558.34064 330.45 558.34064 329.2625Q558.34064 328.1219 557.825 327.54376Q557.325 326.96564 556.60626 326.96564Q555.90314 326.96564 555.40314 327.54376Q554.91876 328.10626 554.91876 329.23126ZM560.85626 329.34064Q560.85626 327.60626 561.8094 326.77814Q562.60626 326.09064 563.7625 326.09064Q565.04376 326.09064 565.85626 326.9344Q566.6844 327.7625 566.6844 329.2469Q566.6844 330.45 566.325 331.1375Q565.96564 331.825 565.2625 332.21564Q564.575 332.59064 563.7625 332.59064Q562.46564 332.59064 561.65314 331.7625Q560.85626 330.91876 560.85626 329.34064ZM561.9344 329.34064Q561.9344 330.52814 562.45 331.1219Q562.98126 331.71564 563.7625 331.71564Q564.5594 331.71564 565.075 331.1219Q565.59064 330.52814 565.59064 329.3094Q565.59064 328.15314 565.0594 327.5594Q564.54376 326.96564 563.7625 326.96564Q562.98126 326.96564 562.45 327.5594Q561.9344 328.1375 561.9344 329.34064ZM567.85626 329.34064Q567.85626 327.60626 568.8094 326.77814Q569.60626 326.09064 570.7625 326.09064Q572.04376 326.09064 572.85626 326.9344Q573.6844 327.7625 573.6844 329.2469Q573.6844 330.45 573.325 331.1375Q572.96564 331.825 572.2625 332.21564Q571.575 332.59064 570.7625 332.59064Q569.46564 332.59064 568.65314 331.7625Q567.85626 330.91876 567.85626 329.34064ZM568.9344 329.34064Q568.9344 330.52814 569.45 331.1219Q569.98126 331.71564 570.7625 331.71564Q571.5594 331.71564 572.075 331.1219Q572.59064 330.52814 572.59064 329.3094Q572.59064 328.15314 572.0594 327.5594Q571.54376 326.96564 570.7625 326.96564Q569.98126 326.96564 569.45 327.5594Q568.9344 328.1375 568.9344 329.34064ZM579.27814 332.45L579.27814 331.66876Q578.6844 332.59064 577.54376 332.59064Q576.79376 332.59064 576.16876 332.1844Q575.54376 331.7625 575.2 331.02814Q574.85626 330.29376 574.85626 329.34064Q574.85626 328.41876 575.16876 327.65314Q575.48126 326.8875 576.10626 326.4969Q576.73126 326.09064 577.4969 326.09064Q578.0594 326.09064 578.4969 326.325Q578.9344 326.5594 579.21564 326.9344L579.21564 323.85626L580.2625 323.85626L580.2625 332.45L579.27814 332.45ZM575.95 329.34064Q575.95 330.54376 576.45 331.1375Q576.95 331.71564 577.6375 331.71564Q578.325 331.71564 578.8094 331.15314Q579.29376 330.59064 579.29376 329.4344Q579.29376 328.15314 578.79376 327.5594Q578.3094 326.96564 577.59064 326.96564Q576.8875 326.96564 576.41876 327.54376Q575.95 328.10626 575.95 329.34064Z" fill-rule="nonzero"/><path fill="#9e9e9e" d="M547.10626 347.46564L548.1219 347.3719Q548.2469 348.09064 548.60626 348.41876Q548.98126 348.73126 549.54376 348.73126Q550.02814 348.73126 550.3875 348.5125Q550.7625 348.27814 550.9969 347.91876Q551.23126 347.54376 551.3875 346.91876Q551.54376 346.27814 551.54376 345.6219Q551.54376 345.54376 551.54376 345.40314Q551.23126 345.90314 550.6844 346.23126Q550.1375 346.54376 549.4969 346.54376Q548.41876 346.54376 547.6844 345.77814Q546.95 344.9969 546.95 343.73126Q546.95 342.41876 547.71564 341.6219Q548.4969 340.825 549.65314 340.825Q550.48126 340.825 551.16876 341.27814Q551.8719 341.73126 552.23126 342.575Q552.59064 343.40314 552.59064 344.98126Q552.59064 346.6219 552.23126 347.60626Q551.8875 348.575 551.16876 349.09064Q550.46564 349.59064 549.52814 349.59064Q548.5125 349.59064 547.8719 349.04376Q547.23126 348.48126 547.10626 347.46564ZM551.41876 343.66876Q551.41876 342.7625 550.9344 342.23126Q550.46564 341.7 549.77814 341.7Q549.075 341.7 548.54376 342.27814Q548.02814 342.84064 548.02814 343.7625Q548.02814 344.575 548.52814 345.09064Q549.02814 345.60626 549.7469 345.60626Q550.48126 345.60626 550.95 345.09064Q551.41876 344.575 551.41876 343.66876ZM554.10626 347.46564L555.1219 347.3719Q555.2469 348.09064 555.60626 348.41876Q555.98126 348.73126 556.54376 348.73126Q557.02814 348.73126 557.3875 348.5125Q557.7625 348.27814 557.9969 347.91876Q558.23126 347.54376 558.3875 346.91876Q558.54376 346.27814 558.54376 345.6219Q558.54376 345.54376 558.54376 345.40314Q558.23126 345.90314 557.6844 346.23126Q557.1375 346.54376 556.4969 346.54376Q555.41876 346.54376 554.6844 345.77814Q553.95 344.9969 553.95 343.73126Q553.95 342.41876 554.71564 341.6219Q555.4969 340.825 556.65314 340.825Q557.48126 340.825 558.16876 341.27814Q558.8719 341.73126 559.23126 342.575Q559.59064 343.40314 559.59064 344.98126Q559.59064 346.6219 559.23126 347.60626Q558.8875 348.575 558.16876 349.09064Q557.46564 349.59064 556.52814 349.59064Q555.5125 349.59064 554.8719 349.04376Q554.23126 348.48126 554.10626 347.46564ZM558.41876 343.66876Q558.41876 342.7625 557.9344 342.23126Q557.46564 341.7 556.77814 341.7Q556.075 341.7 555.54376 342.27814Q555.02814 342.84064 555.02814 343.7625Q555.02814 344.575 555.52814 345.09064Q556.02814 345.60626 556.7469 345.60626Q557.48126 345.60626 557.95 345.09064Q558.41876 344.575 558.41876 343.66876ZM561.54376 349.45L561.54376 348.2469L562.7469 348.2469L562.7469 349.45L561.54376 349.45ZM563.95 345.21564Q563.95 343.6844 564.2625 342.7625Q564.575 341.825 565.1844 341.325Q565.8094 340.825 566.7469 340.825Q567.4344 340.825 567.95 341.10626Q568.48126 341.3875 568.825 341.91876Q569.16876 342.4344 569.35626 343.1844Q569.54376 343.9344 569.54376 345.21564Q569.54376 346.73126 569.23126 347.65314Q568.9344 348.575 568.3094 349.09064Q567.7 349.59064 566.7469 349.59064Q565.5125 349.59064 564.79376 348.7Q563.95 347.6375 563.95 345.21564ZM565.02814 345.21564Q565.02814 347.325 565.52814 348.02814Q566.02814 348.73126 566.7469 348.73126Q567.48126 348.73126 567.96564 348.02814Q568.46564 347.325 568.46564 345.21564Q568.46564 343.09064 567.96564 342.40314Q567.48126 341.7 566.73126 341.7Q566.0125 341.7 565.575 342.3094Q565.02814 343.09064 565.02814 345.21564ZM571.15314 342.91876Q571.15314 341.9969 571.60626 341.35626Q572.075 340.71564 572.95 340.71564Q573.7625 340.71564 574.29376 341.29376Q574.825 341.8719 574.825 342.98126Q574.825 344.075 574.27814 344.66876Q573.7469 345.2469 572.96564 345.2469Q572.1844 345.2469 571.66876 344.66876Q571.15314 344.09064 571.15314 342.91876ZM572.98126 341.4344Q572.59064 341.4344 572.325 341.77814Q572.075 342.1219 572.075 343.02814Q572.075 343.85626 572.325 344.2Q572.59064 344.52814 572.98126 344.52814Q573.3875 344.52814 573.6375 344.1844Q573.90314 343.84064 573.90314 342.95Q573.90314 342.10626 573.6375 341.77814Q573.3719 341.4344 572.98126 341.4344ZM572.98126 349.7625L577.6844 340.71564L578.54376 340.71564L573.85626 349.7625L572.98126 349.7625ZM576.7 347.4344Q576.7 346.5125 577.15314 345.8719Q577.6219 345.23126 578.5125 345.23126Q579.325 345.23126 579.85626 345.8094Q580.3875 346.3719 580.3875 347.4969Q580.3875 348.59064 579.84064 349.1844Q579.3094 349.7625 578.5125 349.7625Q577.7469 349.7625 577.21564 349.1844Q576.7 348.60626 576.7 347.4344ZM578.54376 345.95Q578.1375 345.95 577.8719 346.29376Q577.6219 346.6375 577.6219 347.54376Q577.6219 348.35626 577.8875 348.7Q578.15314 349.04376 578.54376 349.04376Q578.9344 349.04376 579.2 348.7Q579.46564 348.35626 579.46564 347.45Q579.46564 346.6219 579.2 346.29376Q578.9344 345.95 578.54376 345.95Z" fill-rule="nonzero"/><path stroke="#757575" stroke-width="1.0" stroke-linecap="butt" d="M581.45 336.95L454.76666 336.95L304.40692 344.94293" fill-rule="nonzero"/><path fill="#9e9e9e" d="M306.40692 344.94293C306.40692 343.83838 305.5115 342.94293 304.40692 342.94293C303.30237 342.94293 302.40692 343.83838 302.40692 344.94293C302.40692 346.04752 303.30237 346.94293 304.40692 346.94293C305.5115 346.94293 306.40692 346.04752 306.40692 344.94293" fill-rule="nonzero"/><path fill="#757575" d="M30.315624 32.534374L32.20625 33.003124Q31.6125 35.346874 30.065624 36.58125Q28.51875 37.8 26.26875 37.8Q23.95625 37.8 22.503124 36.8625Q21.065624 35.909374 20.3 34.128124Q19.55 32.33125 19.55 30.284374Q19.55 28.05 20.39375 26.39375Q21.253124 24.721874 22.83125 23.8625Q24.409374 22.9875 26.3 22.9875Q28.45625 22.9875 29.909374 24.08125Q31.378124 25.175 31.95625 27.159374L30.096874 27.596874Q29.596874 26.034374 28.64375 25.33125Q27.70625 24.6125 26.26875 24.6125Q24.6125 24.6125 23.503124 25.409374Q22.39375 26.190624 21.940624 27.534374Q21.503124 28.8625 21.503124 30.26875Q21.503124 32.096874 22.034374 33.471874Q22.565624 34.83125 23.690624 35.503124Q24.815624 36.175 26.1125 36.175Q27.70625 36.175 28.815624 35.253124Q29.925 34.33125 30.315624 32.534374ZM33.221874 32.3625Q33.221874 29.4875 34.815624 28.096874Q36.159374 26.940624 38.08125 26.940624Q40.221874 26.940624 41.565624 28.346874Q42.925 29.753124 42.925 32.221874Q42.925 34.221874 42.33125 35.378124Q41.7375 36.51875 40.58125 37.159374Q39.440624 37.784374 38.08125 37.784374Q35.89375 37.784374 34.55 36.39375Q33.221874 34.9875 33.221874 32.3625ZM35.01875 32.3625Q35.01875 34.3625 35.878124 35.346874Q36.753124 36.33125 38.08125 36.33125Q39.39375 36.33125 40.253124 35.346874Q41.128124 34.346874 41.128124 32.3Q41.128124 30.378124 40.253124 29.39375Q39.378124 28.39375 38.08125 28.39375Q36.753124 28.39375 35.878124 29.39375Q35.01875 30.378124 35.01875 32.3625ZM51.659374 37.55L51.659374 36.01875Q50.45625 37.784374 48.378124 37.784374Q47.45625 37.784374 46.659374 37.440624Q45.8625 37.08125 45.471874 36.55Q45.096874 36.01875 44.940624 35.2375Q44.83125 34.721874 44.83125 33.596874L44.83125 27.175L46.58125 27.175L46.58125 32.925Q46.58125 34.3 46.690624 34.784374Q46.8625 35.471874 47.39375 35.878124Q47.940624 36.26875 48.721874 36.26875Q49.51875 36.26875 50.20625 35.8625Q50.909374 35.45625 51.190624 34.76875Q51.4875 34.065624 51.4875 32.7375L51.4875 27.175L53.2375 27.175L53.2375 37.55L51.659374 37.55ZM54.8625 37.55L54.8625 27.175L56.45625 27.175L56.45625 28.659374Q57.596874 26.940624 59.753124 26.940624Q60.690624 26.940624 61.471874 27.284374Q62.26875 27.6125 62.659374 28.159374Q63.05 28.70625 63.20625 29.45625Q63.3 29.95625 63.3 31.175L63.3 37.55L61.534374 37.55L61.534374 31.2375Q61.534374 30.159374 61.33125 29.628124Q61.128124 29.096874 60.596874 28.784374Q60.08125 28.471874 59.378124 28.471874Q58.253124 28.471874 57.440624 29.190624Q56.628124 29.89375 56.628124 31.878124L56.628124 37.55L54.8625 37.55ZM68.70625 35.971874L68.95625 37.534374Q68.22188 37.690624 67.62813 37.690624Q66.675 37.690624 66.14375 37.39375Q65.62813 37.08125 65.40938 36.596874Q65.19063 36.096874 65.19063 34.51875L65.19063 28.55L63.909374 28.55L63.909374 27.175L65.19063 27.175L65.19063 24.6125L66.94063 23.55L66.94063 27.175L68.70625 27.175L68.70625 28.55L66.94063 28.55L66.94063 34.6125Q66.94063 35.3625 67.03438 35.58125Q67.12813 35.784374 67.33125 35.925Q67.55 36.05 67.94063 36.05Q68.22188 36.05 68.70625 35.971874ZM76.22188 32.3625Q76.22188 29.4875 77.81563 28.096874Q79.15938 26.940624 81.08125 26.940624Q83.22188 26.940624 84.56563 28.346874Q85.925 29.753124 85.925 32.221874Q85.925 34.221874 85.33125 35.378124Q84.7375 36.51875 83.58125 37.159374Q82.44063 37.784374 81.08125 37.784374Q78.89375 37.784374 77.55 36.39375Q76.22188 34.9875 76.22188 32.3625ZM78.01875 32.3625Q78.01875 34.3625 78.87813 35.346874Q79.75313 36.33125 81.08125 36.33125Q82.39375 36.33125 83.25313 35.346874Q84.12813 34.346874 84.12813 32.3Q84.12813 30.378124 83.25313 29.39375Q82.37813 28.39375 81.08125 28.39375Q79.75313 28.39375 78.87813 29.39375Q78.01875 30.378124 78.01875 32.3625ZM88.28438 37.55L88.28438 28.55L86.7375 28.55L86.7375 27.175L88.28438 27.175L88.28438 26.08125Q88.28438 25.034374 88.47188 24.51875Q88.72188 23.83125 89.3625 23.409374Q90.00313 22.9875 91.15938 22.9875Q91.90938 22.9875 92.8 23.159374L92.53438 24.690624Q91.9875 24.596874 91.50313 24.596874Q90.70625 24.596874 90.3625 24.940624Q90.03438 25.284374 90.03438 26.221874L90.03438 27.175L92.06563 27.175L92.06563 28.55L90.03438 28.55L90.03438 37.55L88.28438 37.55ZM99.84688 37.55L99.84688 27.175L101.425 27.175L101.425 28.753124Q102.03438 27.64375 102.55 27.3Q103.06563 26.940624 103.675 26.940624Q104.56563 26.940624 105.4875 27.503124L104.87813 29.14375Q104.2375 28.753124 103.59688 28.753124Q103.01875 28.753124 102.55 29.1125Q102.09688 29.45625 101.89375 30.065624Q101.6125 31.003124 101.6125 32.1125L101.6125 37.55L99.84688 37.55ZM113.64375 36.26875Q112.65938 37.096874 111.75313 37.440624Q110.84688 37.784374 109.81563 37.784374Q108.1125 37.784374 107.19063 36.95625Q106.26875 36.1125 106.26875 34.815624Q106.26875 34.05 106.6125 33.425Q106.97188 32.8 107.53438 32.425Q108.09688 32.034374 108.8 31.83125Q109.31563 31.70625 110.3625 31.565624Q112.4875 31.315624 113.4875 30.971874Q113.50313 30.6125 113.50313 30.503124Q113.50313 29.440624 113.00313 28.9875Q112.33125 28.39375 111.00313 28.39375Q109.75313 28.39375 109.15938 28.83125Q108.58125 29.26875 108.3 30.378124L106.58125 30.14375Q106.81563 29.034374 107.34688 28.3625Q107.87813 27.675 108.89375 27.315624Q109.90938 26.940624 111.25313 26.940624Q112.58125 26.940624 113.40938 27.253124Q114.2375 27.565624 114.62813 28.05Q115.01875 28.51875 115.175 29.2375Q115.26875 29.690624 115.26875 30.8625L115.26875 33.20625Q115.26875 35.659374 115.37813 36.315624Q115.4875 36.95625 115.83125 37.55L113.9875 37.55Q113.72188 37.003124 113.64375 36.26875ZM113.4875 32.346874Q112.53438 32.7375 110.6125 33.003124Q109.53438 33.159374 109.08125 33.3625Q108.64375 33.55 108.39375 33.925Q108.14375 34.3 108.14375 34.76875Q108.14375 35.471874 108.675 35.940624Q109.20625 36.409374 110.2375 36.409374Q111.25313 36.409374 112.03438 35.971874Q112.83125 35.51875 113.20625 34.753124Q113.4875 34.14375 113.4875 32.9875L113.4875 32.346874ZM121.70625 35.971874L121.95625 37.534374Q121.22188 37.690624 120.62813 37.690624Q119.675 37.690624 119.14375 37.39375Q118.62813 37.08125 118.40938 36.596874Q118.19063 36.096874 118.19063 34.51875L118.19063 28.55L116.90938 28.55L116.90938 27.175L118.19063 27.175L118.19063 24.6125L119.94063 23.55L119.94063 27.175L121.70625 27.175L121.70625 28.55L119.94063 28.55L119.94063 34.6125Q119.94063 35.3625 120.03438 35.58125Q120.12813 35.784374 120.33125 35.925Q120.55 36.05 120.94063 36.05Q121.22188 36.05 121.70625 35.971874ZM123.87813 25.253124L123.87813 23.2375L125.64375 23.2375L125.64375 25.253124L123.87813 25.253124ZM123.87813 37.55L123.87813 27.175L125.64375 27.175L125.64375 37.55L123.87813 37.55ZM127.8625 37.55L127.8625 27.175L129.45625 27.175L129.45625 28.659374Q130.59688 26.940624 132.75313 26.940624Q133.69063 26.940624 134.47188 27.284374Q135.26875 27.6125 135.65938 28.159374Q136.05 28.70625 136.20625 29.45625Q136.3 29.95625 136.3 31.175L136.3 37.55L134.53438 37.55L134.53438 31.2375Q134.53438 30.159374 134.33125 29.628124Q134.12813 29.096874 133.59688 28.784374Q133.08125 28.471874 132.37813 28.471874Q131.25313 28.471874 130.44063 29.190624Q129.62813 29.89375 129.62813 31.878124L129.62813 37.55L127.8625 37.55ZM137.55 38.409374L139.25313 38.659374Q139.3625 39.45625 139.84688 39.815624Q140.50313 40.3 141.64375 40.3Q142.8625 40.3 143.51875 39.815624Q144.19063 39.33125 144.425 38.45625Q144.56563 37.909374 144.55 36.190624Q143.39375 37.55 141.675 37.55Q139.53438 37.55 138.3625 36.003124Q137.19063 34.45625 137.19063 32.3Q137.19063 30.815624 137.72188 29.565624Q138.26875 28.315624 139.28438 27.628124Q140.31563 26.940624 141.69063 26.940624Q143.51875 26.940624 144.72188 28.425L144.72188 27.175L146.33125 27.175L146.33125 36.14375Q146.33125 38.565624 145.83125 39.565624Q145.34688 40.58125 144.26875 41.159374Q143.20625 41.753124 141.64375 41.753124Q139.8 41.753124 138.64375 40.925Q137.50313 40.096874 137.55 38.409374ZM139.00313 32.175Q139.00313 34.221874 139.81563 35.159374Q140.62813 36.096874 141.84688 36.096874Q143.05 36.096874 143.8625 35.159374Q144.69063 34.221874 144.69063 32.2375Q144.69063 30.33125 143.84688 29.3625Q143.00313 28.39375 141.81563 28.39375Q140.64375 28.39375 139.81563 29.346874Q139.00313 30.3 139.00313 32.175Z" fill-rule="nonzero"/></svg>