<svg xmlns="http://www.w3.org/2000/svg" viewBox="0 0 1000 1000">
  <path d="M288.66,774.70 L287.79,772.29 L287.49,769.88 L286.61,766.87 L286.76,763.25 L285.15,757.83 L284.12,756.63 L280.90,757.23 L279.00,756.02 L262.74,754.82 L257.91,756.63 L248.97,765.06 L241.80,770.48 L229.35,777.11 L224.81,782.53 L221.29,788.55 L211.04,781.33 L208.99,778.31 L208.26,774.70 L208.26,770.48 L209.14,764.46 L208.70,762.65 L206.21,759.04 L204.75,759.04 L201.52,760.84 L198.30,760.24 L190.98,746.99 L181.17,733.73 L180.43,731.93 L179.99,729.52 L178.38,725.30 L162.86,698.19 L161.69,695.18 L139.28,657.23 L130.93,645.78 L121.85,629.52 L113.80,619.28 L113.06,617.47 L112.04,611.45 L112.33,607.83 L112.04,606.02 L107.94,601.20 L101.93,601.20 L100.62,601.81 L97.83,606.63 L97.25,606.63 L94.90,604.22 L93.59,604.22 L89.92,610.84 L89.19,610.24 L86.56,605.42 L80.26,597.59 L77.62,592.17 L69.13,569.88 L62.83,556.63 L58.29,549.40 L50.82,540.96 L44.96,533.13 L39.10,519.88 L35.44,513.25 L26.65,501.81 L24.02,496.99 L20.50,486.14 L18.01,473.49 L16.84,469.28 L12.74,459.04 L9.23,453.61 L5.71,451.20 L0.88,448.80 L0.15,448.19 L0.00,446.99 L0.73,443.37 L1.61,434.34 L3.08,428.31 L3.95,426.51 L10.98,418.07 L14.79,411.45 L17.43,406.63 L22.55,394.58 L25.92,389.16 L35.30,376.51 L37.93,371.08 L46.43,354.82 L51.41,339.76 L57.70,310.84 L59.31,307.23 L60.78,304.82 L63.12,303.61 L72.79,303.61 L75.72,301.81 L79.23,298.19 L81.58,292.77 L87.73,270.48 L97.98,251.20 L99.30,247.59 L99.74,243.37 L99.88,238.55 L99.15,233.13 L99.15,228.92 L101.93,222.29 L104.13,215.66 L104.86,212.65 L106.03,202.41 L108.67,190.96 L109.55,185.54 L108.96,174.10 L109.26,166.87 L110.28,162.05 L111.45,159.64 L118.34,150.60 L125.51,148.19 L130.93,141.57 L138.40,134.94 L146.02,131.93 L147.92,130.12 L152.90,123.49 L155.98,117.47 L158.61,111.45 L160.22,109.04 L164.47,108.43 L169.60,110.24 L172.96,112.65 L175.31,119.28 L183.07,127.11 L188.64,128.92 L196.54,128.31 L205.77,129.52 L240.77,143.98 L247.66,148.19 L251.03,151.81 L252.93,153.01 L254.54,151.20 L256.74,146.39 L258.64,144.58 L267.72,143.37 L273.58,140.96 L282.22,134.94 L287.64,127.71 L291.30,120.48 L293.50,114.46 L298.18,108.43 L303.90,96.99 L304.34,96.39 L305.51,96.99 L305.80,95.18 L307.12,92.77 L310.63,89.76 L316.05,89.16 L324.40,79.52 L337.14,83.13 L338.61,82.53 L344.46,76.51 L346.22,75.30 L353.84,77.11 L356.62,76.51 L358.52,75.90 L375.07,56.63 L379.03,53.61 L385.33,52.41 L390.30,49.40 L404.36,44.58 L425.60,31.93 L443.76,19.88 L475.54,1.20 L482.57,0.00 L496.19,1.81 L504.69,1.20 L508.49,2.41 L512.45,4.82 L516.26,6.63 L518.89,6.02 L522.85,3.01 L526.36,3.61 L528.41,6.63 L529.88,12.05 L532.22,17.47 L533.25,21.69 L533.39,24.10 L535.59,30.72 L549.94,39.16 L556.82,42.17 L593.59,43.98 L620.39,42.77 L627.12,39.76 L640.45,31.33 L657.00,16.87 L661.54,15.06 L663.01,16.27 L664.03,18.67 L668.13,35.54 L668.86,40.36 L672.67,56.63 L673.40,59.04 L678.97,83.73 L680.29,84.34 L686.73,80.12 L687.46,81.93 L688.34,86.14 L689.81,89.16 L689.66,89.76 L694.35,85.54 L699.47,83.13 L702.84,80.12 L727.30,63.25 L730.08,65.06 L733.45,64.46 L734.77,65.06 L736.67,70.48 L740.04,87.35 L741.21,88.55 L773.87,77.11 L780.61,75.90 L796.72,77.71 L797.89,78.31 L820.30,78.31 L829.23,76.51 L838.31,70.48 L840.22,71.08 L842.85,75.90 L845.05,78.92 L846.51,82.53 L847.83,87.35 L853.69,103.61 L859.26,121.08 L864.97,135.54 L889.57,204.82 L893.67,214.46 L898.36,230.12 L900.85,236.14 L902.46,240.96 L903.49,245.18 L904.22,245.78 L908.90,257.83 L963.97,413.25 L976.13,445.78 L977.45,448.80 L982.72,463.86 L988.28,478.31 L989.75,483.73 L992.53,491.57 L998.39,506.02 L999.41,509.64 L1000.00,513.25 L999.85,514.46 L998.24,518.67 L988.87,532.53 L933.80,597.59 L885.18,656.02 L882.69,657.83 L878.15,655.42 L874.78,659.04 L871.56,661.45 L871.70,662.05 L862.92,672.89 L846.07,690.96 L823.67,721.08 L800.67,744.58 L786.17,766.27 L777.24,774.10 L765.82,786.14 L745.46,813.86 L735.94,824.70 L727.45,832.53 L717.49,843.98 L703.57,862.65 L678.38,893.37 L649.53,919.88 L631.81,932.53 L623.02,937.35 L610.43,942.77 L595.78,947.59 L584.80,950.00 L580.84,950.00 L578.65,949.40 L576.89,946.99 L574.40,942.77 L572.20,940.96 L570.74,940.96 L569.27,942.17 L561.07,953.01 L557.12,956.63 L553.02,958.43 L546.43,960.24 L537.79,958.43 L535.15,958.43 L527.39,962.65 L520.21,962.65 L514.06,965.66 L506.74,971.69 L500.59,973.49 L497.95,973.49 L487.70,968.67 L483.16,968.67 L473.64,974.10 L465.00,973.49 L460.90,974.70 L453.57,981.93 L447.42,983.73 L442.00,983.13 L437.90,980.12 L434.68,978.92 L429.41,979.52 L427.50,980.72 L423.70,985.54 L421.65,987.35 L413.88,986.14 L409.64,987.35 L405.54,989.16 L399.82,993.98 L397.77,993.98 L391.62,990.96 L387.38,989.76 L382.98,990.36 L377.71,993.37 L374.93,993.98 L363.65,986.75 L359.55,986.14 L353.40,987.35 L350.62,986.14 L348.13,981.33 L345.05,978.31 L338.46,975.90 L336.70,977.71 L334.94,983.13 L334.36,989.16 L334.50,993.98 L334.07,995.18 L327.77,1000.00 L325.72,1000.00 L325.13,999.40 L324.11,997.59 L322.64,992.77 L320.45,989.16 L314.44,985.54 L310.49,989.16 L308.29,991.57 L305.51,992.17 L290.42,996.99 L289.25,995.78 L288.96,994.58 L288.08,980.72 L288.22,978.31 L287.79,973.49 L286.32,971.08 L283.83,968.67 L276.22,969.88 L240.63,978.31 L235.06,980.12 L230.52,980.12 L225.10,982.53 L209.43,986.14 L197.42,990.36 L187.90,991.57 L185.85,989.76 L183.80,989.16 L180.73,985.54 L179.70,980.72 L178.82,972.89 L179.12,944.58 L179.70,939.16 L180.73,933.73 L184.68,924.70 L185.56,919.88 L185.71,917.47 L185.56,913.86 L184.39,906.63 L184.39,905.42 L185.12,903.01 L211.04,851.81 L220.56,834.34 L220.71,833.13 L220.56,832.53 L216.61,823.49 L214.56,815.06 L212.80,811.45 L212.21,808.43 L212.51,807.23 L213.39,804.82 L219.54,792.77 L220.42,790.96 L220.27,789.76 L217.49,786.14 L211.63,782.53 L209.14,778.92 L208.26,777.11 L208.11,773.49 L208.41,769.88 L209.14,765.66 L208.99,764.46 L207.82,761.45 L205.48,758.43 L205.33,757.23 L206.65,752.41 L209.87,746.99 L219.10,741.57 L223.05,740.36 L230.23,740.36 L238.14,742.17 L241.94,741.57 L260.98,721.08 L270.50,712.65 L272.99,713.86 L274.31,713.86 L287.05,709.04 L293.20,705.42 L294.67,705.42 L297.45,709.04 L301.41,710.24 L305.07,713.25 L306.82,715.66 L307.26,716.87 L305.80,722.89 L306.68,724.70 L307.41,728.92 L307.56,746.39 L307.26,752.41 L307.56,754.82 L310.49,758.43 L312.39,763.25 L312.24,766.27 L312.54,767.47 L318.25,780.72 L318.69,783.13 L323.96,793.37 L324.84,796.39 L324.84,801.81 L324.25,804.22 L314.88,826.51 L314.15,827.11 L311.22,824.10 L309.90,824.70 L308.14,822.89" fill="none" stroke="#fc4c02" stroke-width="2" />
</svg>