<svg xmlns="http://www.w3.org/2000/svg" viewBox="0 0 1000 1000">
  <path d="M902.79,988.97 L902.18,987.87 L899.44,985.03 L899.24,983.93 L898.63,983.14 L898.53,982.35 L898.94,982.04 L900.66,981.88 L908.67,981.72 L912.62,982.20 L913.94,981.72 L913.53,978.89 L913.53,977.15 L913.33,976.68 L913.43,974.63 L913.23,973.85 L912.62,973.53 L912.62,973.06 L913.13,971.64 L909.88,970.22 L909.38,969.59 L909.48,969.28 L911.91,968.02 L912.92,967.39 L914.04,965.97 L916.07,964.39 L921.64,960.93 L931.37,954.15 L934.41,952.26 L935.02,951.32 L935.33,950.06 L937.35,948.64 L938.17,947.69 L938.37,946.75 L938.17,945.17 L938.37,944.38 L938.77,943.75 L952.56,932.09 L957.73,928.00 L962.09,925.32 L967.97,921.07 L973.24,918.54 L979.12,916.18 L983.78,912.87 L985.40,912.71 L987.73,911.93 L992.50,908.78 L996.15,906.89 L999.70,904.68 L1000.00,903.73 L998.58,901.37 L998.28,900.27 L999.49,898.53 L999.59,897.75 L998.99,897.27 L994.63,896.96 L990.67,895.54 L989.66,895.54 L986.92,896.01 L985.71,895.07 L985.61,894.75 L985.40,893.18 L985.50,890.34 L985.61,888.45 L985.91,887.82 L986.01,886.72 L985.91,884.04 L986.32,880.57 L986.32,873.48 L986.52,868.76 L986.32,867.65 L986.52,867.02 L986.21,864.50 L986.32,858.83 L986.62,857.89 L986.82,855.68 L987.53,853.79 L987.43,853.16 L987.94,849.38 L987.94,845.91 L988.34,843.08 L988.34,841.66 L988.65,840.24 L988.44,838.51 L988.55,837.40 L989.66,832.05 L989.86,828.90 L989.25,827.48 L989.66,823.07 L989.36,821.33 L990.27,817.55 L990.07,816.45 L989.76,816.13 L988.04,816.29 L982.97,815.82 L982.46,815.50 L982.36,815.35 L982.77,813.46 L982.26,812.67 L977.39,811.72 L970.40,811.25 L968.98,810.78 L966.95,810.93 L966.45,810.78 L964.93,809.20 L964.12,808.73 L959.96,807.63 L957.63,803.53 L951.65,791.87 L949.92,788.09 L947.39,783.36 L947.80,781.47 L947.80,780.05 L948.40,774.85 L948.91,772.65 L949.82,770.29 L950.94,768.55 L952.05,767.45 L956.31,764.30 L957.53,762.72 L958.34,761.30 L958.24,760.20 L957.73,759.41 L956.92,757.21 L956.41,754.21 L955.80,752.17 L955.09,750.59 L953.78,745.23 L952.26,740.98 L951.65,739.56 L950.33,737.51 L948.30,735.47 L941.21,730.11 L938.77,728.69 L932.39,726.01 L923.67,723.33 L920.93,721.44 L919.41,718.45 L916.57,716.72 L914.14,714.83 L913.03,713.72 L911.30,711.20 L909.98,706.79 L907.55,706.00 L905.93,704.27 L904.31,701.91 L899.65,695.60 L898.43,694.34 L897.82,693.24 L896.50,691.35 L894.98,689.77 L893.77,687.88 L892.95,687.10 L891.43,684.58 L890.72,683.95 L889.81,682.05 L887.68,679.38 L887.28,678.43 L885.35,676.07 L884.95,675.28 L883.73,674.02 L880.08,668.03 L874.81,661.57 L869.54,654.48 L865.69,650.07 L865.28,649.13 L865.48,648.34 L866.19,647.08 L866.29,646.29 L865.59,645.03 L865.48,643.61 L865.08,642.67 L865.28,642.82 L865.59,643.30 L865.18,643.93 L863.66,644.71 L862.14,644.56 L858.59,643.61 L856.06,642.19 L851.19,638.57 L847.14,637.62 L841.97,634.32 L833.45,629.75 L828.38,627.38 L812.67,621.55 L800.00,617.14 L795.95,615.41 L793.51,614.15 L789.96,611.79 L788.65,610.68 L785.61,607.53 L783.68,606.43 L781.55,606.27 L775.06,606.90 L772.02,606.59 L768.58,605.96 L761.89,603.59 L759.96,603.28 L737.46,595.24 L726.10,591.46 L703.70,583.43 L684.44,576.97 L677.24,574.13 L672.68,572.71 L670.15,572.24 L662.75,569.72 L658.49,568.77 L651.19,565.94 L649.37,565.62 L647.24,564.68 L644.50,564.05 L642.98,563.26 L641.26,562.94 L638.52,562.00 L636.80,561.68 L631.02,559.48 L624.33,557.43 L620.38,556.48 L612.37,553.80 L603.65,551.44 L570.70,542.46 L552.76,538.05 L529.55,533.01 L512.32,529.86 L497.72,527.65 L479.78,525.45 L468.12,524.34 L451.70,523.24 L438.42,522.14 L406.39,518.51 L400.81,517.57 L398.48,517.41 L396.05,516.62 L393.01,516.31 L391.18,515.68 L384.79,514.57 L383.17,514.42 L355.09,508.43 L334.52,505.12 L288.19,500.71 L235.58,496.93 L198.99,495.04 L191.99,494.88 L182.36,494.41 L160.36,493.78 L158.54,492.83 L156.82,492.52 L156.41,492.04 L156.41,491.73 L156.11,491.26 L153.78,490.47 L147.39,490.63 L145.36,490.31 L141.81,490.94 L141.31,490.63 L141.21,490.31 L141.92,488.89 L141.92,488.73 L141.61,488.26 L141.71,487.47 L141.61,487.16 L142.12,484.64 L141.81,484.64 L141.51,484.32 L141.10,484.32 L140.09,483.69 L138.47,483.06 L132.89,483.54 L126.31,485.43 L55.14,483.85 L35.48,483.38 L12.87,481.96 L4.05,481.64 L2.43,481.33 L1.12,480.54 L0.61,479.91 L0.30,479.60 L0.00,478.18 L1.82,472.82 L3.45,466.68 L3.95,465.73 L4.05,464.94 L6.59,457.70 L6.18,456.44 L6.18,455.33 L7.20,452.65 L7.50,451.24 L8.41,448.87 L8.72,447.61 L9.02,446.98 L9.12,446.20 L9.63,444.93 L11.66,438.32 L13.68,432.80 L14.80,428.86 L15.71,426.97 L16.52,424.61 L17.13,422.40 L18.65,418.31 L19.67,414.68 L21.08,411.22 L23.92,401.92 L24.63,400.50 L24.94,399.09 L27.57,391.21 L28.69,387.11 L32.54,375.93 L32.34,375.93 L32.94,374.51 L33.15,373.72 L33.05,373.25 L33.55,372.77 L33.65,371.67 L35.07,367.89 L35.28,366.95 L35.88,365.53 L36.49,362.85 L36.70,362.69 L37.91,358.75 L38.52,357.33 L38.42,357.18 L38.72,356.70 L39.03,355.44 L44.10,340.95 L45.62,335.59 L46.73,333.07 L48.35,326.77 L49.97,322.67 L50.58,320.31 L52.00,316.53 L55.45,305.66 L55.75,303.61 L55.75,299.67 L55.55,296.36 L55.04,292.26 L54.74,290.85 L54.64,288.48 L53.93,285.17 L53.73,280.92 L53.02,276.19 L52.31,268.79 L52.20,265.32 L51.50,261.07 L51.39,258.70 L50.99,257.29 L50.38,250.35 L49.77,247.83 L49.87,246.57 L49.67,243.11 L49.16,240.90 L48.96,238.85 L48.56,237.91 L48.56,237.12 L48.35,236.49 L48.45,234.28 L47.95,232.08 L48.05,230.35 L47.44,226.88 L47.34,223.89 L46.73,218.06 L46.22,216.64 L46.33,216.01 L45.51,210.81 L45.62,209.39 L44.91,207.03 L44.60,203.56 L44.20,201.83 L44.30,199.94 L43.39,192.37 L43.99,191.27 L44.10,190.33 L43.59,184.81 L42.88,180.24 L42.88,179.30 L42.27,174.73 L42.07,171.42 L41.56,169.21 L41.16,163.07 L39.53,151.25 L39.43,148.89 L38.11,146.53 L37.81,144.48 L37.91,143.85 L37.10,138.02 L36.59,132.66 L37.20,130.14 L36.70,123.52 L36.39,122.89 L36.09,121.16 L36.19,120.53 L35.28,114.07 L35.07,110.92 L33.96,101.47 L33.86,99.10 L32.94,94.06 L32.84,91.70 L31.83,84.45 L31.63,80.51 L30.92,76.10 L30.92,75.00 L29.50,66.49 L28.99,60.50 L28.79,59.87 L29.09,54.83 L29.50,52.31 L30.11,46.16 L30.31,45.22 L30.61,40.81 L32.03,30.57 L32.13,28.20 L32.84,22.85 L33.25,21.43 L33.35,19.54 L33.76,18.43 L33.76,17.02 L34.57,10.40 L34.47,10.08 L35.28,3.94 L35.17,3.62 L35.88,0.00 L35.28,0.00 L34.87,0.47 L34.67,1.10 L34.77,1.58 L33.76,5.51 L33.86,5.99 L34.16,6.46 L34.77,6.77 L34.97,7.41 L34.57,8.35 L34.67,9.30 L34.36,10.08 L34.57,11.19 L34.36,12.76 L33.76,15.13 L33.76,16.70 L33.55,18.12 L33.65,18.91 L33.45,19.38 L33.45,21.11 L33.15,21.74 L33.15,22.69 L32.84,23.32 L32.84,24.74 L32.54,25.68 L32.64,26.63 L31.93,29.31 L32.13,29.94 L31.83,30.88 L32.13,31.04 L31.73,32.77 L31.63,34.35 L31.22,35.61 L31.22,36.87 L31.02,37.03 L31.12,37.03 L30.11,44.27 L29.80,48.37 L29.19,52.47 L29.09,54.67 L28.89,56.09 L28.79,57.98 L29.40,64.91 L29.30,65.70 L30.41,72.79 L31.12,80.35 L31.22,82.24 L31.73,85.24 L32.44,91.22 L33.25,96.74 L34.16,104.62 L34.57,109.34 L35.28,114.23 L35.68,119.27 L36.09,120.84 L36.09,122.58 L36.70,126.36 L37.10,130.46 L37.91,134.71 L38.52,141.01 L38.42,141.80 L39.03,146.05 L39.84,154.09 L39.74,154.88 L42.68,177.41 L43.39,187.02 L43.89,190.96 L44.10,191.59 L44.40,195.21 L44.70,196.31 L44.80,198.99 L45.21,200.88 L45.51,204.03 L45.92,206.71 L46.73,213.64 L46.83,215.22 L47.95,223.10 L48.45,229.87 L49.37,236.02 L49.57,239.96 L50.89,247.99 L52.71,266.11 L53.02,266.90 L53.42,271.47 L53.83,273.36 L54.23,279.03 L54.54,280.29 L54.64,282.34 L55.55,288.48 L55.65,290.69 L56.46,297.15 L56.46,298.88 L56.77,300.77 L56.66,303.29 L56.06,307.07 L54.13,313.06 L53.62,314.16 L52.00,319.52 L50.89,320.47 L50.38,321.25 L49.06,324.41 L48.96,325.19 L49.37,326.77 L49.06,328.66 L47.44,333.23 L47.03,334.80 L45.62,338.27 L43.49,345.36 L41.56,350.56 L39.13,358.75 L36.80,365.53 L32.44,379.23 L30.61,384.12 L30.61,384.43 L30.21,385.22 L28.89,389.63 L26.25,397.04 L23.82,405.07 L21.59,411.22 L18.85,420.36 L13.89,435.17 L12.77,439.26 L11.05,444.62 L10.14,446.98 L8.82,451.87 L7.60,454.86 L4.76,463.84 L1.01,474.55 L0.00,477.71 L0.20,477.86 L0.10,478.49 L0.51,479.60 L0.71,479.91 L2.23,481.01 L4.36,481.49 L6.28,481.64 L6.79,481.33 L9.83,481.80 L16.22,481.96 L19.67,482.43 L23.11,482.28 L28.08,482.91 L30.61,482.75 L34.36,483.22 L35.88,483.06 L42.78,483.38 L44.50,482.59 L45.92,482.59 L48.86,482.91 L50.79,482.75 L53.93,483.22 L56.46,483.06 L61.43,483.38 L62.54,482.91 L63.66,482.59 L65.28,482.91 L67.00,483.69 L67.92,485.27 L68.32,486.69 L69.54,487.32 L70.76,489.37 L70.55,489.84 L71.26,490.15 L73.80,490.00 L84.44,490.63 L165.33,492.67 L207.50,494.41 L264.67,497.72 L313.63,501.97 L335.63,504.18 L352.26,506.70 L365.03,509.22 L369.79,510.48 L380.94,512.84 L390.27,514.57 L413.18,518.20 L440.85,521.19 L471.77,523.40 L473.09,523.87 L474.61,523.71 L485.66,524.97 L487.89,525.13 L492.04,525.92 L493.56,525.92 L498.53,526.55 L499.04,526.39 L500.56,526.86 L502.48,526.86 L508.87,528.12 L511.30,528.12 L513.94,528.91 L518.80,529.54 L535.33,532.85 L549.52,536.00 L574.35,542.46 L595.54,548.13 L599.19,548.92 L610.64,552.23 L654.43,565.62 L682.72,574.92 L691.54,577.91 L696.10,580.90 L711.30,585.95 L722.76,590.04 L724.48,590.83 L729.04,592.09 L729.95,592.72 L731.68,593.04 L736.14,594.77 L741.92,596.50 L743.13,597.13 L748.50,598.87 L754.38,600.76 L756.01,601.54 L765.43,605.01 L769.49,605.96 L775.27,606.74 L776.79,606.43 L779.83,606.43 L782.16,606.11 L782.46,606.43 L783.17,608.32 L785.61,611.63 L786.92,612.89 L788.14,613.68 L790.37,614.62 L795.44,616.20 L799.70,618.09 L825.04,627.07 L829.90,628.96 L836.19,632.27 L844.20,636.84 L849.47,640.62 L853.42,643.93 L854.13,645.03 L854.94,647.55 L856.16,648.34 L859.30,649.13 L862.85,651.33 L864.17,652.59 L868.42,658.11 L870.15,659.05 L873.29,659.05 L873.69,659.37 L875.52,662.20 L879.27,666.93 L880.59,669.29 L883.63,673.39 L888.09,679.85 L889.71,681.90 L891.23,684.26 L895.79,690.40 L897.42,692.77 L902.58,699.70 L906.03,704.90 L907.35,705.69 L910.49,706.48 L912.52,707.58 L913.13,708.37 L913.84,711.99 L914.24,712.78 L915.76,714.51 L919.41,717.82 L920.22,719.24 L920.63,720.50 L920.93,720.81 L924.58,723.18 L930.26,724.75 L938.17,727.75 L941.71,729.95 L945.06,732.31 L948.30,734.68 L949.92,736.25 L951.24,738.14 L952.97,741.45 L953.47,743.03 L953.98,745.23 L955.90,751.69 L956.21,753.90 L958.44,760.04 L958.24,761.30 L956.51,763.67 L952.26,766.66 L950.73,768.24 L949.32,770.76 L948.40,774.54 L947.90,777.85 L947.90,780.68 L947.59,782.89 L952.15,792.19 L954.99,797.54 L956.92,801.64 L959.66,806.52 L960.36,807.15 L963.71,807.94 L965.13,808.89 L966.04,809.99 L966.75,810.46 L968.58,810.62 L977.70,811.09 L981.75,811.72 L982.67,812.35 L982.26,814.09 L982.87,814.87 L989.46,815.66 L990.78,816.76 L990.98,817.55 L990.98,820.86 L991.38,822.44 L991.28,825.11 L991.08,827.00 L991.18,828.90 L990.67,831.10 L990.47,833.46 L989.46,837.40 L988.14,852.69 L988.24,853.95 L987.02,860.41 L986.62,865.13 L985.40,866.39 L985.50,867.18 L986.72,867.97 L987.13,870.81 L987.13,873.17 L986.62,881.83 L986.82,882.62 L986.32,883.88 L986.72,889.40 L986.72,891.60 L985.81,893.18 L985.50,896.33 L985.20,897.27 L985.10,899.16 L985.30,899.95 L985.61,900.27 L994.73,906.41 L994.63,907.04 L991.79,909.25 L987.33,912.08 L984.29,912.87 L978.00,916.65 L975.98,917.28 L974.86,918.07 L972.43,918.70 L968.68,920.59 L968.27,920.91 L968.47,921.22 L968.27,921.38 L967.56,921.85 L967.46,921.70 L967.66,921.54 L967.36,921.70 L966.04,922.80 L957.43,928.63 L951.85,932.88 L950.43,934.30 L944.15,939.18 L938.98,943.91 L938.47,944.54 L938.47,947.22 L935.83,949.74 L934.72,951.79 L932.49,953.68 L925.39,958.25 L922.45,960.45 L915.46,965.02 L911.61,968.17 L911.30,968.65 L911.40,969.43 L912.11,970.38 L913.23,971.33 L913.33,971.64 L912.92,972.43 L913.84,974.00 L914.04,975.26 L913.94,980.94 L914.04,981.88 L914.55,983.14 L915.26,984.09 L918.50,987.40 L924.18,992.12 L924.38,992.44 L924.18,992.91 L921.44,995.27 L917.49,998.90 L915.66,1000.00 L915.05,1000.00 L913.84,999.21 L908.97,994.96 L907.35,993.23" fill="none" stroke="#fc4c02" stroke-width="2" />
</svg>