<svg xmlns="http://www.w3.org/2000/svg" viewBox="0 0 1000 1000">
  <path d="M4.49,1000.00 L3.27,998.52 L2.86,996.31 L0.00,994.09 L0.00,993.36 L0.41,992.99 L23.28,991.88 L57.19,992.25 L62.09,991.51 L63.32,987.82 L63.32,980.44 L62.09,977.11 L58.82,974.16 L59.64,971.58 L59.23,970.10 L46.57,967.15 L44.53,965.67 L44.93,964.93 L56.37,960.87 L63.32,956.44 L84.15,946.84 L100.90,940.20 L142.97,922.11 L145.02,920.63 L148.28,916.57 L155.64,913.25 L160.54,910.30 L161.36,904.02 L163.81,901.44 L185.05,890.73 L192.40,885.94 L210.38,876.34 L226.31,868.96 L243.46,862.68 L278.59,848.65 L313.32,839.06 L341.09,828.35 L352.94,827.24 L365.60,822.07 L377.86,819.12 L380.72,817.28 L381.13,816.54 L381.13,815.80 L380.72,815.06 L372.96,812.48 L366.01,809.52 L355.39,806.20 L349.67,803.62 L342.32,801.77 L341.91,801.03 L341.91,795.87 L344.36,789.96 L344.36,785.16 L345.18,780.73 L344.77,772.98 L345.59,765.60 L347.22,761.90 L346.81,754.52 L347.63,751.20 L346.41,746.03 L346.81,742.34 L346.41,738.65 L347.22,733.11 L344.77,730.90 L344.36,729.79 L345.59,727.57 L348.86,725.36 L350.90,720.56 L350.90,712.81 L352.12,704.32 L352.12,702.47 L354.17,698.04 L346.00,688.82 L339.87,679.22 L335.38,671.10 L323.94,658.91 L322.71,655.96 L324.35,655.59 L326.39,657.07 L331.70,662.61 L336.19,664.82 L346.81,664.08 L353.35,662.98 L358.25,661.13 L359.89,660.02 L362.34,654.12 L363.56,649.32 L363.15,645.99 L365.20,641.57 L363.97,640.83 L365.20,634.18 L361.11,630.12 L351.72,624.22 L334.56,617.57 L332.92,611.66 L335.78,604.28 L334.97,601.33 L335.78,599.48 L335.38,596.53 L334.56,595.79 L301.47,590.99 L275.74,588.41 L263.48,583.61 L251.23,581.76 L238.56,575.49 L229.58,565.15 L222.63,558.88 L221.00,556.66 L218.14,554.45 L212.83,549.65 L202.61,537.10 L197.71,532.30 L195.67,530.82 L193.22,527.50 L192.81,526.02 L193.22,518.64 L196.49,508.31 L202.21,506.83 L227.94,506.83 L247.96,505.72 L286.36,502.40 L310.05,498.71 L323.12,495.75 L340.69,490.96 L372.14,476.93 L385.62,471.39 L404.82,462.53 L423.20,452.93 L426.88,449.98 L431.37,444.08 L437.91,440.01 L443.22,438.91 L450.98,435.95 L459.56,430.42 L464.87,426.36 L465.28,423.40 L469.36,415.28 L477.94,408.64 L482.03,400.89 L486.11,397.56 L490.20,390.55 L497.14,380.21 L501.23,376.89 L512.66,371.35 L521.65,366.19 L548.20,354.74 L573.12,345.15 L578.84,343.67 L597.22,341.82 L614.79,337.02 L622.55,334.44 L626.63,334.07 L631.54,332.60 L643.38,327.43 L664.22,319.31 L684.23,306.76 L705.88,295.68 L716.09,291.62 L743.46,282.76 L769.20,276.12 L796.16,267.26 L801.47,260.61 L805.56,258.77 L812.50,251.75 L814.54,248.43 L816.18,238.83 L817.40,236.25 L822.30,230.71 L830.07,223.33 L834.97,217.79 L836.19,214.47 L835.38,210.78 L833.74,207.83 L833.33,204.50 L835.38,202.66 L841.50,199.70 L849.26,192.69 L866.42,182.36 L870.51,177.93 L871.32,176.08 L878.68,169.07 L894.20,159.84 L895.42,156.15 L896.65,150.98 L899.10,146.18 L919.53,131.78 L926.88,124.77 L929.33,120.34 L935.05,114.06 L936.27,110.00 L939.54,102.99 L946.08,96.71 L947.30,93.76 L944.44,86.38 L941.58,83.79 L940.77,81.58 L941.18,79.37 L940.36,77.15 L942.40,75.30 L942.81,73.46 L944.04,72.35 L943.63,70.51 L941.99,68.29 L941.99,66.81 L941.18,65.71 L942.81,64.23 L941.99,63.86 L941.99,61.65 L944.44,58.69 L945.26,55.00 L955.47,47.99 L956.70,45.40 L956.70,43.93 L957.92,42.45 L962.42,39.50 L964.46,38.39 L967.32,35.07 L969.77,33.59 L969.36,32.85 L971.41,29.90 L980.80,26.58 L991.42,18.83 L994.69,14.40 L997.14,8.49 L1000.00,5.17 L999.59,3.32 L998.37,2.58 L995.92,2.21 L974.67,4.80 L965.28,4.80 L944.44,8.49 L933.42,9.60 L873.37,18.83 L861.52,21.04 L835.38,27.69 L830.47,27.69 L821.49,29.53 L816.18,32.12 L805.15,33.22 L821.08,32.12 L828.43,30.64 L840.69,27.69 L863.56,23.99 L896.65,15.87 L916.26,12.18 L944.04,8.86 L972.63,4.43 L966.09,4.43 L948.53,7.01 L935.05,9.60 L925.65,12.18 L895.42,17.35 L870.10,22.52 L835.78,27.69 L824.75,28.79 L805.56,32.85 L813.32,31.01 L827.21,29.53 L867.24,21.41 L888.48,18.09 L905.23,14.77 L917.48,14.03 L930.15,11.07 L946.49,9.23 L960.78,6.28 L964.46,3.69 L964.05,2.58 L963.24,1.85 L958.33,0.74 L956.29,0.74 L955.07,0.00 L962.42,0.74 L966.50,3.32 L974.26,4.80 L964.87,3.69 L954.25,5.17 L930.15,9.97 L870.51,19.56 L841.09,26.58 L809.23,31.75 L825.16,29.90 L880.72,19.20 L909.31,15.50 L948.94,8.86 L962.01,7.01 L976.72,6.64 L979.58,5.91 L970.59,4.06 L966.91,4.06 L933.01,9.23 L905.64,14.40 L853.76,22.52 L847.22,23.99 L841.09,24.36 L819.04,28.79 L823.53,29.16 L857.03,25.84 L883.99,21.78 L912.58,16.24 L931.37,14.40 L947.71,11.81 L964.46,8.86 L980.39,7.75 L970.59,5.17 L963.24,5.54 L945.26,9.23 L888.07,16.98 L875.41,20.30 L854.17,22.52 L840.28,25.10 L832.92,25.47 L815.77,29.90 L821.90,30.27 L872.14,24.36 L894.61,19.93 L900.74,18.46 L921.98,16.98 L941.99,13.66 L954.66,10.71 L980.80,8.86 L980.80,8.49 L975.49,6.64 L974.67,5.91 L970.59,4.80 L943.63,6.64 L931.78,9.60 L908.91,13.29 L903.19,14.40 L875.82,18.09 L861.11,21.41 L853.35,23.62 L845.18,24.73 L834.97,26.95 L827.61,27.69 L821.08,29.16 L836.19,26.95 L860.29,24.73 L866.42,23.26 L892.16,19.93 L904.41,17.35 L915.85,16.61 L928.92,14.77 L932.19,14.03 L942.40,12.92 L952.21,11.07 L960.38,10.34 L962.01,9.60 L980.39,8.12 L979.98,7.75 L976.31,6.64 L970.18,5.91 L939.95,7.75 L928.51,10.34 L894.20,14.40 L853.35,23.26 L846.00,23.26 L835.78,25.10 L823.94,27.32 L821.49,28.42 L828.43,28.42 L845.59,26.21 L852.53,24.73 L885.21,20.30 L900.74,16.98 L911.76,16.61 L923.20,14.40 L941.18,12.92 L944.44,11.81 L952.21,11.07 L959.97,8.49 L935.87,9.97 L925.65,12.55 L911.76,13.29 L890.93,16.61 L861.11,20.30 L851.72,22.52 L837.83,24.36 L831.70,26.21 L826.39,26.58 L813.32,29.53 L808.42,29.90 L797.39,32.85 L813.73,31.01 L844.36,28.42 L875.82,23.62 L885.21,22.52 L897.88,19.20 L919.12,17.35 L948.12,12.18 L949.75,11.81 L951.39,9.60 L955.88,8.49 L937.09,8.86 L927.70,10.34 L895.02,13.29 L858.25,19.56 L856.62,20.67 L852.53,21.41 L839.46,23.62 L831.29,26.21 L812.50,29.53 L807.60,29.90 L799.02,32.85 L813.32,32.12 L831.29,29.90 L839.87,29.53 L855.39,27.69 L892.57,21.04 L919.93,19.93 L937.91,16.61 L940.77,14.40 L946.49,13.66 L954.66,11.81 L957.92,10.34 L958.33,9.60 L961.19,8.49 L935.05,9.23 L930.15,10.34 L917.89,11.07 L902.78,12.92 L898.28,12.92 L886.85,15.13 L857.03,19.20 L837.01,22.52 L825.98,25.47 L823.94,26.58 L812.09,28.79 L810.05,29.90 L793.71,32.48 L817.81,31.01 L842.32,28.79 L861.93,25.10 L885.21,21.41 L889.30,19.93 L896.24,19.20 L915.85,18.83 L928.92,17.72 L939.54,15.87 L943.63,13.66 L948.12,12.18 L954.25,11.44 L955.47,10.34 L962.42,9.23 L945.67,8.86 L931.78,9.97 L929.33,11.07 L923.61,12.18 L894.61,14.03 L881.54,16.61 L855.80,19.56 L843.14,21.78 L823.94,28.05 L805.96,31.01 L798.20,33.22 L816.18,32.12 L838.24,29.16 L859.89,24.73 L877.45,22.89 L889.30,20.67 L906.05,20.67 L926.47,18.09 L939.95,15.50 L943.22,14.03 L950.16,12.55 L974.67,10.71 L981.21,9.97 L988.97,6.28 L991.42,5.91 L996.32,6.28 L997.55,7.01 L994.69,9.97 L993.06,15.13 L991.01,19.20 L982.84,25.84 L973.86,29.16 L969.77,35.81 L963.24,39.50 L962.01,42.45 L959.56,43.93 L958.33,46.51 L955.47,47.62 L953.02,49.46 L952.21,50.94 L952.61,52.42 L950.57,53.89 L947.30,59.06 L948.53,61.65 L948.12,63.86 L946.08,66.08 L941.58,68.66 L939.95,70.87 L939.95,72.35 L940.77,74.20 L942.40,76.04 L944.04,76.78 L944.85,79.00 L944.85,79.73 L942.40,81.58 L942.40,84.16 L944.85,85.27 L945.67,88.22 L947.30,90.07 L947.71,92.65 L945.67,95.61 L941.58,99.30 L937.09,105.20 L936.68,105.94 L937.50,107.79 L936.27,109.27 L934.64,115.91 L929.74,122.55 L926.47,129.20 L922.79,132.15 L915.44,135.47 L910.13,139.17 L897.88,148.39 L895.02,152.45 L894.61,159.84 L892.16,163.53 L880.31,169.80 L865.60,182.36 L852.94,189.37 L843.55,196.75 L842.32,198.60 L837.42,201.18 L835.38,203.40 L833.74,206.35 L834.15,209.67 L834.97,212.99 L833.74,218.16 L830.88,225.18 L825.57,229.61 L820.67,232.56 L814.54,238.83 L812.91,245.11 L812.50,248.43 L811.27,252.12 L805.56,259.14 L794.93,269.47 L791.67,270.95 L784.31,272.43 L774.51,273.90 L760.62,276.49 L750.82,280.18 L732.43,285.71 L729.58,285.35 L717.32,289.04 L698.12,297.16 L677.70,310.45 L667.89,315.25 L660.54,320.78 L637.66,331.12 L614.79,337.76 L586.19,344.04 L577.61,346.99 L553.92,353.27 L530.64,362.13 L515.11,368.77 L504.08,375.05 L497.55,379.84 L493.46,383.91 L488.56,390.18 L484.48,397.19 L479.58,408.64 L475.08,413.81 L473.86,416.76 L469.77,422.30 L464.05,427.83 L447.71,440.38 L435.46,445.18 L428.51,448.50 L423.61,455.15 L419.12,458.84 L399.51,468.07 L370.51,480.25 L363.56,482.47 L335.78,494.28 L324.35,497.97 L307.60,502.77 L296.98,504.61 L258.58,508.67" fill="none" stroke="#fc4c02" stroke-width="2" />
</svg>