<svg xmlns="http://www.w3.org/2000/svg" viewBox="0 0 1000 1000">
  <path d="M36.15,4.72 L34.11,3.37 L30.77,0.22 L29.65,0.00 L28.54,0.00 L17.71,7.41 L8.79,14.38 L5.51,17.74 L4.53,19.09 L3.02,21.79 L1.64,25.61 L1.44,26.95 L1.25,27.40 L0.07,32.12 L0.00,34.14 L0.07,35.71 L0.39,36.84 L0.85,37.29 L9.71,41.33 L19.75,48.29 L69.41,86.48 L78.46,93.67 L84.56,99.51 L93.09,108.27 L99.65,115.68 L108.90,127.58 L117.23,139.49 L123.79,150.27 L127.21,156.56 L132.91,168.91 L136.26,177.00 L138.56,183.74 L140.92,192.05 L142.03,196.32 L142.95,201.03 L143.34,202.83 L143.74,205.53 L144.53,209.34 L145.71,218.33 L145.84,220.58 L146.62,228.66 L146.76,231.36 L146.82,238.10 L147.08,240.57 L147.22,245.51 L147.81,254.49 L148.86,263.48 L150.43,272.46 L152.46,281.90 L154.30,288.86 L155.35,293.58 L156.92,300.09 L157.71,304.13 L160.34,315.81 L160.99,318.06 L162.11,323.45 L165.06,335.13 L169.06,351.75 L171.95,362.31 L175.03,374.89 L176.47,380.05 L180.54,396.45 L183.10,406.33 L187.30,419.81 L189.07,424.75 L192.42,433.29 L195.76,440.48 L198.85,446.09 L204.22,454.40 L208.62,459.79 L215.31,466.53 L223.58,472.37 L239.13,480.46 L247.33,485.40 L251.85,488.99 L254.81,491.91 L261.43,499.33 L265.96,504.04 L267.07,505.62 L267.73,506.06 L269.11,507.86 L272.45,511.23 L273.96,512.35 L275.47,514.15 L283.74,520.66 L304.47,533.47 L316.28,540.43 L368.63,572.10 L382.21,579.51 L392.70,584.68 L409.96,591.64 L418.03,594.12 L432.26,598.16 L445.58,601.08 L455.23,602.43 L465.79,603.32 L468.74,603.32 L478.65,603.77 L542.48,603.32 L557.37,603.77 L564.72,603.32 L583.15,603.10 L603.49,603.55 L614.25,603.10 L655.05,603.32 L664.96,602.88 L727.81,602.88 L759.76,602.43 L772.88,602.88 L780.23,603.77 L795.78,607.37 L869.71,627.36 L880.01,630.73 L891.10,636.12 L900.35,642.63 L907.96,649.82 L914.98,657.91 L920.09,665.09 L924.36,672.06 L928.95,680.14 L930.13,682.61 L930.92,683.74 L933.15,687.78 L937.55,695.42 L945.35,709.79 L950.01,717.65 L954.41,724.17 L962.54,733.60 L973.96,744.83 L979.07,750.22 L984.52,757.64 L987.34,762.35 L990.49,768.42 L993.83,776.28 L995.54,781.67 L997.70,790.43 L999.15,798.97 L999.54,801.89 L999.74,805.03 L1000.00,812.89 L999.74,818.51 L999.54,821.65 L998.69,829.07 L997.57,835.58 L995.80,842.99 L994.69,847.04 L983.93,878.93 L980.78,889.04 L979.93,892.63 L975.20,907.01 L973.63,911.05 L969.36,920.93 L965.16,929.25 L963.00,933.29 L955.65,944.07 L949.35,951.48 L941.87,959.12 L938.53,961.81 L934.13,965.18 L927.31,969.23 L920.03,972.82 L907.76,975.97 L899.36,977.09 L891.10,976.86 L879.75,975.07 L866.82,971.25 L842.94,963.61 L834.02,961.37 L828.91,960.24 L823.66,959.57 L817.29,959.12 L801.02,959.34 L794.00,960.24 L788.76,961.37 L781.60,963.16 L771.83,966.76 L762.58,970.58 L755.30,974.17 L748.93,977.76 L747.62,978.66 L747.75,978.66 L741.19,982.03 L736.01,985.18 L734.44,986.75 L728.73,989.89 L722.36,992.36 L716.20,993.49 L695.79,994.38 L680.18,994.61 L666.86,995.06 L639.24,995.06 L609.92,995.96 L604.61,996.18 L600.47,996.63 L599.16,996.41 L587.15,997.30 L584.86,997.30 L582.04,997.75 L578.56,997.75 L577.45,997.98 L576.40,997.75 L574.23,998.20 L573.57,997.98 L572.13,998.20 L570.16,997.98 L568.46,998.65 L537.56,1000.00 L525.42,999.78 L513.88,998.88 L498.06,996.18 L490.00,993.71 L480.22,989.89 L471.89,985.18 L464.67,979.56 L461.06,976.42 L444.07,959.34 L441.71,956.65 L425.05,939.80 L413.70,929.25 L409.37,925.88 L405.76,923.41 L404.45,922.06 L400.91,919.81 L397.36,916.89 L395.79,915.77 L393.95,914.20 L366.79,893.53 L358.85,888.59 L354.06,886.12 L345.93,883.87 L339.57,883.20 L332.81,883.20 L303.09,885.44 L290.82,885.89 L253.30,884.32 L235.58,882.75 L232.17,882.97 L223.45,882.30 L222.92,882.52 L217.67,881.85 L216.36,882.30 L216.16,882.97 L216.36,883.87 L216.23,883.87 L216.30,883.65" fill="none" stroke="#fc4c02" stroke-width="2" />
</svg>