<svg xmlns="http://www.w3.org/2000/svg" viewBox="0 0 1000 1000">
  <path d="M993.87,1000.00 L995.07,999.43 L995.21,998.86 L991.08,995.45 L989.48,993.89 L989.21,993.18 L988.55,992.47 L987.48,990.48 L986.68,987.21 L984.82,985.08 L984.15,983.94 L983.62,981.52 L983.48,979.53 L983.08,979.25 L981.62,979.11 L979.49,978.40 L976.96,977.26 L976.16,976.69 L976.03,976.55 L976.16,976.41 L975.89,976.41 L975.76,975.98 L974.96,974.99 L973.76,974.42 L973.36,973.85 L969.23,972.71 L968.17,972.14 L966.44,971.15 L964.84,969.30 L964.04,967.74 L964.17,966.74 L963.77,965.04 L963.91,964.61 L963.64,963.05 L963.37,962.34 L963.51,961.20 L962.97,959.49 L963.11,958.50 L962.84,958.36 L962.84,957.22 L962.84,956.79 L963.64,955.66 L966.04,954.24 L967.90,952.67 L970.56,951.53 L972.43,949.55 L977.22,946.13 L977.49,944.71 L980.15,942.44 L981.62,939.88 L982.82,938.60 L983.48,935.62 L984.42,934.20 L985.08,933.34 L985.08,932.49 L985.35,931.92 L986.41,931.35 L986.01,929.51 L986.81,928.08 L986.68,928.08 L987.61,926.52 L987.48,926.09 L987.75,925.38 L986.81,924.25 L985.75,923.54 L985.08,922.68 L985.88,922.11 L987.08,921.97 L988.55,921.26 L995.21,920.27 L997.60,919.27 L998.53,918.14 L998.27,917.85 L998.67,916.86 L997.47,915.58 L997.87,914.87 L997.87,914.30 L998.67,913.16 L998.40,912.31 L997.60,911.46 L988.81,908.75 L986.01,907.33 L983.88,906.91 L982.82,906.34 L982.69,906.05 L980.42,904.78 L977.62,903.78 L975.23,903.64 L969.90,904.35 L963.91,905.91 L962.44,906.62 L959.11,908.90 L954.85,910.89 L951.25,911.88 L947.12,912.17 L941.66,911.17 L939.66,910.46 L936.47,909.75 L933.54,908.61 L925.55,906.62 L920.35,903.21 L920.35,902.79 L919.02,900.65 L919.29,900.23 L921.95,899.37 L924.48,899.23 L929.81,898.10 L929.41,897.95 L933.54,896.67 L935.40,895.25 L936.47,893.97 L936.73,891.98 L938.47,889.28 L938.60,888.72 L938.20,888.15 L938.20,886.73 L936.87,885.45 L936.87,884.88 L936.60,884.31 L936.73,883.88 L936.60,883.03 L936.87,882.32 L936.87,880.61 L936.20,879.19 L934.60,877.77 L930.87,876.49 L930.07,875.78 L930.21,875.36 L930.74,874.79 L931.14,873.65 L932.87,872.09 L933.40,871.09 L935.94,867.96 L936.60,867.68 L936.87,867.25 L939.13,865.97 L939.26,865.69 L941.00,864.98 L942.59,863.42 L944.33,862.71 L946.59,859.72 L950.19,857.73 L950.85,857.45 L952.58,856.17 L952.72,855.03 L951.65,853.18 L951.92,852.47 L951.25,851.48 L949.39,851.05 L947.39,850.63 L945.79,850.77 L941.26,849.49 L939.40,849.63 L937.53,849.20 L934.47,849.91 L932.74,850.06 L929.68,849.77 L928.48,849.20 L926.35,846.93 L925.68,846.08 L925.68,845.08 L927.41,841.96 L926.88,839.68 L927.14,838.97 L927.14,837.55 L927.54,836.98 L927.54,836.41 L927.14,835.70 L927.14,835.42 L926.48,834.71 L926.21,834.00 L925.15,833.14 L925.01,831.86 L925.15,832.01 L924.88,831.72 L924.48,831.01 L924.35,829.73 L922.88,827.32 L922.88,825.90 L922.08,825.04 L922.08,824.62 L921.28,823.62 L920.88,822.34 L921.55,820.35 L922.48,819.36 L923.95,818.50 L924.21,817.65 L922.62,817.08 L918.89,816.80 L914.09,816.09 L911.29,815.24 L909.70,814.24 L908.76,813.39 L908.10,813.10 L902.64,812.25 L900.91,811.40 L898.77,811.54 L893.85,812.25 L891.32,812.25 L888.25,811.68 L886.12,810.69 L885.19,809.98 L885.06,808.98 L885.32,808.41 L885.06,807.85 L886.79,805.71 L887.59,804.01 L889.05,802.44 L889.45,800.74 L889.45,800.45 L886.92,797.19 L886.65,796.48 L887.59,795.48 L890.25,793.49 L890.92,792.78 L891.32,791.79 L891.05,791.22 L890.12,790.36 L890.12,789.23 L889.85,788.94 L890.38,788.37 L890.92,785.82 L891.45,784.96 L891.18,784.68 L891.58,784.25 L891.32,783.97 L891.18,782.97 L890.78,781.84 L891.05,781.27 L892.78,780.13 L891.45,777.57 L890.52,773.31 L890.78,772.74 L892.12,771.60 L893.18,770.04 L893.18,768.90 L893.45,768.48 L894.11,767.62 L895.44,766.49 L894.91,764.64 L895.31,763.64 L895.18,762.08 L894.38,760.80 L893.05,759.38 L891.72,758.53 L888.92,757.53 L888.25,756.40 L887.32,755.97 L887.19,755.26 L886.65,754.83 L886.65,754.41 L886.25,754.26 L886.52,753.98 L884.66,753.27 L883.59,752.13 L883.86,750.71 L885.86,747.44 L885.59,747.02 L885.72,746.16 L885.46,745.59 L886.79,743.75 L886.65,743.32 L886.92,742.47 L886.65,742.18 L887.72,742.18 L887.72,742.04 L887.85,742.04 L886.65,739.77 L886.25,738.35 L886.65,736.92 L886.39,736.21 L886.79,735.08 L886.65,734.65 L886.92,734.08 L886.39,733.37 L885.32,732.94 L881.99,732.80 L880.13,732.38 L876.40,732.23 L875.87,731.95 L875.47,731.24 L874.93,731.10 L874.00,729.82 L872.14,728.54 L866.94,727.26 L862.01,725.41 L860.55,724.28 L858.95,722.57 L858.15,722.29 L857.09,721.29 L854.95,720.01 L854.42,719.16 L853.49,718.45 L850.69,717.45 L849.09,716.32 L848.56,715.61 L848.83,715.18 L848.30,714.47 L849.23,712.34 L849.89,711.91 L850.03,710.77 L852.02,708.50 L852.16,707.93 L853.22,706.79 L853.36,705.94 L856.15,703.38 L857.22,701.82 L857.62,700.82 L858.55,699.97 L859.22,698.12 L859.22,697.56 L859.62,696.84 L859.75,695.99 L861.08,694.14 L861.88,693.72 L862.01,693.29 L863.48,691.87 L869.07,689.45 L872.80,688.60 L875.47,688.74 L878.93,688.18 L880.39,688.32 L883.06,687.89 L884.26,686.90 L884.52,686.33 L884.26,685.76 L883.06,684.76 L883.06,684.34 L883.59,683.91 L886.92,682.21 L887.32,681.64 L887.05,680.50 L884.92,678.65 L885.59,678.08 L887.32,675.53 L889.85,673.96 L890.78,673.82 L891.45,673.11 L894.38,670.98 L894.91,669.70 L895.31,669.13 L895.05,668.42 L894.25,667.71 L894.11,667.28 L893.58,667.00 L892.25,665.15 L889.05,663.16 L886.25,660.89 L886.39,659.18 L885.72,658.04 L884.66,656.77 L884.52,654.78 L884.26,654.35 L884.26,653.78 L882.66,652.36 L881.86,651.22 L881.59,648.95 L881.99,648.38 L882.13,647.53 L881.59,646.67 L881.86,645.25 L881.33,644.26 L880.93,643.69 L880.13,643.26 L878.53,642.98 L876.66,642.13 L876.27,641.56 L874.00,641.56 L872.27,640.99 L871.20,640.28 L866.41,638.00 L865.21,637.15 L862.55,636.30 L860.68,635.30 L858.82,634.88 L856.29,633.88 L854.02,632.32 L852.96,632.32 L853.09,631.75 L851.36,630.61 L849.63,630.61 L846.56,629.48 L845.23,628.06 L845.63,625.92 L845.23,624.50 L844.30,623.51 L842.04,621.66 L842.04,621.38 L842.30,620.95 L841.50,619.67 L840.17,618.96 L840.04,618.53 L840.30,617.68 L839.50,616.54 L838.57,616.12 L838.44,615.12 L836.97,613.99 L835.91,613.56 L831.65,612.85 L831.11,612.56 L831.11,612.71 L831.25,612.56 L830.98,612.56 L832.05,612.42 L833.11,610.57 L832.84,609.86 L831.51,608.73 L829.65,608.30 L820.06,607.31 L815.13,607.45 L811.67,607.02 L803.94,607.59 L799.28,606.74 L797.28,606.74 L788.49,607.73 L782.63,607.87 L775.71,606.59 L772.51,606.74 L769.98,607.59 L767.85,607.87 L763.45,608.16 L761.05,608.02 L758.79,607.02 L757.06,606.88 L755.46,606.03 L754.00,605.88 L751.60,606.88 L750.67,606.88 L749.07,607.31 L748.80,608.16 L749.07,608.58 L748.93,609.44 L748.40,609.72 L747.74,610.86 L746.67,611.00 L744.27,609.86 L743.34,609.72 L743.34,609.58 L742.81,609.30 L741.74,609.01 L741.21,608.58 L738.68,607.59 L738.15,607.02 L737.61,606.88 L737.75,606.45 L737.48,605.88 L736.15,604.32 L735.88,602.05 L735.62,601.76 L735.75,601.48 L734.15,599.63 L734.15,599.20 L732.69,597.78 L732.69,597.21 L732.29,595.94 L730.82,594.51 L730.82,593.95 L730.55,593.52 L730.69,593.09 L730.55,592.52 L730.15,591.81 L729.75,591.39 L728.02,590.11 L726.82,589.54 L726.69,588.97 L726.96,588.26 L726.69,588.12 L726.43,587.27 L724.56,586.27 L724.03,585.42 L724.29,585.28 L724.16,585.42 L724.03,585.13 L723.49,584.99 L722.96,584.42 L720.56,583.00 L719.50,582.01 L715.90,581.44 L709.38,581.86 L707.65,581.58 L706.45,581.72 L704.32,581.30 L701.12,581.30 L699.52,580.87 L697.79,580.87 L696.72,580.59 L693.66,580.87 L690.06,580.73 L688.73,580.30 L681.41,581.44 L678.48,581.30 L671.68,579.16 L669.55,578.31 L667.02,576.75 L665.69,576.32 L664.22,576.04 L661.96,576.04 L661.56,576.18 L661.56,576.75 L660.63,576.75 L659.43,576.32 L659.16,575.90 L657.43,574.90 L653.97,573.19 L652.77,572.77 L652.37,572.48 L653.44,571.06 L653.17,570.92 L652.90,569.78 L652.24,568.93 L652.24,568.65 L651.97,567.94 L651.97,567.65 L651.44,567.23 L651.97,566.80 L652.24,566.23 L651.97,564.10 L651.44,563.39 L652.90,562.25 L654.50,559.98 L656.23,558.84 L657.30,557.70 L657.30,557.28 L657.57,556.99 L657.17,556.57 L657.17,556.28 L655.97,555.43 L657.43,553.72 L656.90,552.73 L657.17,552.16 L656.10,548.89 L655.97,547.61 L656.63,546.19 L656.90,545.05 L656.77,544.77 L657.17,543.77 L656.90,543.06 L657.30,542.50 L657.30,541.64 L657.57,540.93 L657.17,539.65 L657.70,538.23 L658.90,536.81 L660.76,535.11 L660.76,534.96 L661.56,533.97 L660.63,532.40 L659.96,532.40 L658.76,531.84 L658.23,530.98 L657.57,530.98 L657.17,530.42 L656.37,529.99 L656.50,529.56 L655.57,528.99 L655.43,528.57 L656.63,527.15 L656.23,526.72 L656.50,526.29 L656.77,525.44 L657.43,524.30 L657.57,523.17 L658.63,522.60 L658.76,522.31 L661.43,520.89 L662.09,519.76 L663.16,518.62 L669.15,515.92 L668.35,515.78 L669.69,514.92 L669.55,515.07 L669.42,514.50 L668.89,514.64 L669.15,514.21 L669.02,513.93 L669.55,513.36 L670.48,512.93 L672.62,512.65 L676.08,510.66 L676.48,509.95 L681.67,508.39 L681.41,508.24 L683.00,507.53 L683.80,506.68 L686.07,506.11 L687.53,505.26 L687.67,504.69 L688.07,504.26 L687.93,504.12 L688.20,503.55 L688.87,502.84 L691.53,501.71 L694.19,500.99 L696.59,499.72 L698.45,499.01 L700.45,497.44 L708.18,496.02 L709.24,494.88 L712.44,492.75 L714.84,491.61 L721.10,490.48 L723.36,489.48 L723.63,489.06 L723.89,488.91 L722.83,488.63 L722.43,487.92 L722.56,487.21 L721.50,486.64 L720.96,485.79 L720.03,485.22 L720.17,484.65 L719.50,484.37 L718.57,483.23 L717.77,482.94 L716.97,481.95 L716.57,481.81 L716.70,481.67 L714.84,481.10 L712.84,481.24 L711.37,480.67 L710.58,480.67 L710.31,481.52 L709.11,481.95 L708.98,482.38 L708.04,482.66 L707.51,483.09 L707.65,483.51 L707.38,483.80 L705.91,484.08 L706.18,484.51 L705.91,485.36 L705.65,485.50 L700.99,484.51 L699.25,484.93 L698.99,485.36 L698.32,485.65 L688.20,484.22 L686.47,484.37 L680.47,483.37 L679.41,482.80 L677.68,482.80 L675.81,482.09 L673.81,482.09 L673.42,481.81 L672.22,481.52 L671.95,481.10 L668.22,480.96 L666.76,480.67 L665.56,480.10 L662.36,479.68 L659.43,478.11 L658.63,477.97 L657.17,477.40 L655.30,477.26 L653.97,476.83 L652.64,477.12 L648.38,476.69 L647.44,476.55 L646.78,475.84 L645.58,475.41 L643.85,475.41 L642.12,474.99 L640.25,474.28 L639.98,473.71 L638.12,473.00 L637.45,472.29 L637.99,471.43 L638.39,469.87 L638.39,468.02 L640.12,466.17 L639.45,466.03 L638.39,467.17 L637.99,468.31 L637.99,469.44 L637.59,469.73 L636.39,469.58 L634.79,468.59 L634.52,467.88 L633.59,467.31 L632.92,466.60 L632.92,465.89 L632.66,465.32 L628.53,461.06 L629.06,458.78 L629.73,458.36 L633.32,458.07 L636.92,458.36 L636.65,458.21 L637.45,457.93 L637.85,456.51 L637.59,455.66 L636.25,454.95 L635.19,453.10 L630.79,450.54 L629.99,449.83 L629.60,448.83 L628.40,448.83 L625.87,448.27 L623.34,447.98 L620.54,447.56 L620.01,447.13 L620.14,446.84 L618.81,446.13 L616.94,444.57 L616.94,444.14 L617.08,444.00 L620.27,442.58 L619.47,441.59 L619.61,441.30 L619.47,441.02 L617.47,439.45 L616.41,438.03 L616.28,437.46 L616.14,436.61 L616.41,435.62 L616.14,435.33 L616.41,434.91 L616.54,433.77 L616.94,433.20 L616.94,432.63 L617.87,430.93 L617.47,430.07 L617.74,428.94 L617.21,427.80 L617.47,426.38 L617.47,425.53 L617.21,425.38 L617.74,424.39 L617.47,424.53 L616.94,424.39 L617.21,423.54 L616.54,422.83 L616.94,422.26 L616.81,422.11 L617.08,421.55 L617.08,420.98 L616.68,420.55 L615.88,420.41 L615.61,419.98 L616.41,418.85 L616.01,418.28 L616.14,417.57 L615.74,416.86 L615.74,415.72 L618.01,413.87 L619.34,413.30 L619.61,412.59 L619.21,412.59 L619.61,412.17 L619.34,411.88 L620.54,411.60 L621.20,411.17 L622.80,411.31 L626.80,410.89 L628.93,409.32 L631.19,408.33 L635.46,406.77 L638.52,406.05 L640.25,404.78 L641.32,404.49 L642.12,404.06 L641.18,402.93 L641.45,401.79 L640.12,401.08 L640.12,399.66 L641.85,398.66 L641.72,397.81 L640.65,397.53 L640.52,397.24 L640.78,396.82 L640.78,396.25 L641.72,393.41 L642.25,392.69 L642.51,391.84 L643.05,390.85 L643.71,390.28 L643.45,390.28 L642.91,389.43 L643.71,388.72 L644.11,388.86 L644.91,388.43 L644.78,388.00 L643.71,387.01 L642.65,386.73 L642.51,385.45 L642.65,384.31 L642.12,383.46 L642.12,382.89 L641.32,382.04 L637.32,375.21 L636.25,374.22 L636.52,373.51 L635.86,372.51 L636.25,371.38 L636.39,369.39 L635.86,367.82 L636.79,367.40 L637.05,365.97 L636.65,365.41 L637.45,364.70 L635.59,364.84 L633.06,364.41 L632.79,363.99 L629.60,362.99 L627.73,362.00 L627.46,361.57 L625.20,361.14 L624.40,360.57 L622.14,359.86 L621.87,359.58 L619.34,359.15 L618.01,358.58 L617.61,358.16 L617.08,358.16 L617.47,357.87 L617.21,357.87 L617.34,357.31 L616.54,356.74 L616.41,356.17 L615.48,355.88 L615.08,354.89 L614.68,354.46 L614.41,353.61 L614.54,352.47 L613.21,351.90 L613.08,351.48 L613.48,351.34 L610.68,349.63 L610.55,349.06 L610.68,348.49 L610.02,347.50 L608.68,346.79 L608.82,346.22 L608.15,345.79 L606.15,344.94 L604.29,344.51 L603.89,344.09 L601.76,343.23 L598.56,342.95 L597.50,342.38 L594.43,342.10 L593.50,341.39 L592.43,341.25 L591.50,340.68 L588.04,339.54 L583.64,339.11 L582.98,338.69 L582.58,338.26 L581.78,338.12 L580.85,337.27 L579.65,336.98 L578.85,336.27 L577.12,335.84 L571.79,335.28 L569.53,334.85 L567.00,334.99 L566.73,334.71 L566.33,334.99 L566.46,334.99 L559.00,335.84 L557.54,336.41 L554.21,337.27 L553.41,337.55 L553.68,337.55 L552.21,338.83 L549.95,339.68 L546.35,341.39 L543.95,341.96 L539.82,343.66 L539.03,344.23 L538.23,344.51 L524.11,345.51 L521.04,346.22 L519.71,347.21 L518.91,347.64 L518.51,347.07 L520.38,346.08 L522.64,345.51 L526.37,345.08 L525.97,344.66 L525.84,343.95 L524.24,342.38 L522.24,341.81 L521.18,341.25 L520.64,341.39 L518.51,340.39 L514.52,337.12 L512.92,335.42 L511.45,333.43 L511.05,333.29 L511.05,332.86 L509.99,331.30 L509.99,330.59 L509.46,330.02 L509.86,329.45 L509.72,328.88 L510.26,328.31 L510.12,328.17 L510.39,327.74 L511.05,326.89 L511.72,326.75 L509.99,326.89 L509.32,326.32 L509.99,325.47 L513.85,323.34 L514.38,322.77 L514.38,321.06 L514.52,320.35 L514.25,319.93 L514.25,319.36 L514.38,319.07 L513.99,318.65 L513.32,318.79 L510.39,316.66 L508.39,316.52 L507.86,316.37 L507.86,316.09 L505.59,315.66 L503.06,314.67 L502.40,313.25 L500.67,312.25 L500.80,311.68 L498.53,309.69 L496.94,308.70 L496.94,308.13 L495.60,306.42 L494.67,306.14 L494.14,305.43 L493.61,305.14 L492.81,305.00 L489.34,303.58 L489.08,303.44 L487.88,301.88 L484.68,300.60 L482.02,298.18 L480.29,295.91 L477.62,294.06 L477.22,293.49 L475.89,292.35 L473.49,291.79 L471.90,291.79 L471.10,291.36 L468.43,291.64 L459.78,290.79 L455.78,290.08 L451.78,289.94 L450.85,289.23 L448.32,288.23 L438.60,285.53 L433.94,283.83 L429.41,281.13 L425.81,279.70 L425.68,279.70 L425.68,279.85 L425.28,279.70 L425.28,279.28 L425.01,279.14 L423.81,278.85 L418.49,278.71 L416.49,278.28 L411.56,277.57 L410.36,277.15 L408.50,275.72 L405.43,275.16 L403.44,274.45 L397.98,274.02 L394.51,273.88 L391.58,273.45 L388.92,272.74 L384.39,270.89 L380.93,270.04 L379.33,269.90 L379.60,269.90 L377.73,270.18 L375.87,269.90 L373.07,270.47 L371.74,270.32 L370.54,270.61 L370.01,270.32 L368.94,270.32 L367.61,269.61 L367.47,269.04 L366.68,268.90 L366.41,268.33 L365.21,267.48 L364.81,266.20 L364.28,265.78 L364.28,264.21 L363.88,264.07 L364.14,263.64 L363.88,263.64 L363.48,262.93 L362.81,262.51 L363.21,262.08 L362.68,261.51 L363.08,261.37 L362.95,261.37 L362.95,261.09 L360.82,260.09 L359.35,259.66 L358.28,258.81 L357.88,258.67 L357.88,258.24 L357.62,257.96 L354.16,255.54 L353.09,255.26 L352.42,254.69 L348.30,253.27 L347.76,252.84 L344.70,251.28 L341.10,249.72 L338.44,247.44 L337.91,247.16 L337.24,246.02 L335.51,244.17 L333.78,243.89 L327.12,244.17 L325.52,243.18 L325.52,243.04 L326.05,242.33 L325.79,242.04 L326.19,241.47 L327.52,240.90 L330.18,240.34 L330.58,239.91 L330.18,238.63 L330.31,238.06 L330.05,237.78 L329.12,237.21 L328.98,236.78 L328.85,236.78 L328.72,235.93 L328.85,235.93 L328.85,235.50 L328.58,235.08 L329.52,235.08 L329.91,234.65 L329.78,234.37 L330.05,233.51 L330.45,232.94 L331.65,231.95 L331.25,231.52 L331.38,231.24 L332.71,230.39 L333.51,229.25 L333.38,228.40 L333.64,228.25 L333.38,228.40 L333.38,227.40 L332.45,224.99 L332.98,224.13 L332.31,223.28 L331.11,222.57 L331.51,222.00 L330.58,220.72 L330.58,220.44 L330.31,220.44 L330.31,219.58 L330.58,219.30 L330.05,217.60 L326.72,215.61 L324.05,213.33 L322.99,212.62 L322.59,211.91 L320.86,211.48 L320.86,211.06 L320.99,210.92 L321.79,210.92 L323.12,210.06 L324.99,207.93 L325.39,207.08 L325.12,205.80 L325.25,205.37 L324.85,204.52 L324.05,203.81 L322.59,203.10 L321.79,202.25 L321.66,201.53 L320.72,200.54 L320.19,198.98 L319.79,198.55 L319.79,197.70 L318.73,196.70 L319.13,195.99 L318.73,195.71 L318.86,195.42 L318.19,194.71 L317.66,193.43 L317.13,192.72 L316.20,192.30 L316.20,191.59 L315.80,191.02 L316.06,191.02 L315.93,190.73 L314.73,190.16 L315.13,189.60 L315.13,189.31 L314.20,188.74 L314.46,188.46 L313.67,187.75 L312.73,187.32 L312.60,186.61 L311.80,185.90 L311.93,185.33 L311.40,185.05 L308.47,183.63 L307.14,182.49 L305.94,182.06 L305.27,181.64 L304.74,181.50 L303.28,180.36 L302.61,180.07 L302.48,179.79 L299.68,178.79 L298.35,178.08 L296.08,177.37 L294.49,176.52 L294.49,175.24 L293.29,174.25 L291.16,173.11 L289.69,172.97 L288.76,172.26 L285.70,171.12 L282.90,169.27 L281.70,168.70 L280.63,167.71 L279.04,167.00 L278.10,165.29 L277.84,165.15 L277.57,164.44 L277.84,164.01 L277.57,163.87 L277.84,163.59 L276.77,163.30 L275.84,163.30 L274.51,162.73 L273.84,162.02 L272.64,161.60 L272.11,160.46 L271.58,160.32 L269.58,157.33 L268.51,156.62 L267.45,156.48 L265.18,155.06 L265.05,154.21 L265.32,154.06 L267.85,152.93 L267.58,152.79 L267.71,152.22 L267.58,151.65 L266.38,150.23 L264.38,149.52 L263.32,148.66 L262.79,147.67 L261.99,147.38 L261.72,146.67 L260.66,145.68 L259.46,145.11 L256.39,142.41 L254.53,142.27 L255.59,141.27 L254.79,140.70 L254.79,140.42 L255.19,139.85 L254.40,139.00 L254.40,138.29 L254.66,137.44 L254.26,136.87 L254.26,136.30 L252.93,135.02 L252.40,134.74 L252.13,134.31 L252.93,134.03 L250.80,133.17 L251.60,132.46 L251.60,132.04 L252.13,130.90 L251.86,129.48 L251.20,128.20 L250.27,127.49 L250.00,127.49 L250.13,127.35 L250.27,127.49 L246.94,127.91 L246.80,127.63 L248.00,127.06 L250.53,126.78 L250.27,126.21 L250.13,125.36 L249.47,124.64 L249.20,123.93 L248.40,123.08 L248.67,122.51 L248.00,120.95 L248.14,119.95 L248.00,119.24 L247.47,117.82 L247.34,116.69 L247.07,116.12 L247.47,114.70 L247.20,114.41 L247.34,113.56 L246.94,112.99 L247.20,111.85 L246.67,110.72 L246.67,110.43 L250.00,109.72 L251.60,108.73 L254.00,107.59 L257.19,104.89 L257.59,103.75 L258.92,102.19 L258.92,100.20 L260.26,99.49 L260.66,98.64 L260.26,98.07 L260.26,97.07 L259.99,95.79 L259.99,94.66 L260.52,93.95 L260.26,92.95 L260.26,92.24 L259.99,91.96 L260.12,91.39 L259.72,90.25 L260.12,89.11 L259.86,88.12 L259.99,87.12 L259.19,86.55 L258.92,86.13 L259.19,85.99 L259.06,85.70 L258.39,84.99 L256.53,84.14 L256.79,84.00 L256.39,83.57 L254.93,82.43 L254.13,82.15 L252.66,81.15 L251.60,80.16 L251.73,79.87 L251.20,79.45 L251.47,79.31 L251.20,79.02 L251.73,78.45 L251.73,77.89 L252.00,77.60 L252.13,77.03 L251.73,75.90 L251.86,75.33 L251.60,74.90 L250.13,74.19 L249.20,73.05 L248.93,72.20 L246.80,71.21 L245.74,71.21 L245.21,70.92 L243.07,69.36 L242.94,69.07 L242.27,68.79 L242.27,68.50 L241.74,68.22 L241.74,67.65 L241.34,67.51 L241.21,67.23 L240.68,67.08 L240.81,66.37 L239.61,64.95 L239.74,64.24 L240.28,63.67 L240.41,63.10 L241.48,62.25 L241.08,61.54 L241.08,60.83 L240.41,60.26 L240.54,59.69 L239.08,58.27 L236.81,57.42 L232.02,56.99 L231.62,56.14 L229.62,55.43 L226.43,54.72 L226.03,54.43 L224.43,54.29 L222.43,54.58 L222.70,54.58 L218.30,54.72 L215.90,55.57 L215.90,55.86 L211.24,56.57 L209.24,57.13 L207.11,56.85 L208.58,56.42 L208.98,55.71 L211.91,54.72 L211.77,54.72 L211.91,55.14 L209.11,55.86 L208.31,56.42 L209.38,56.28 L209.11,56.42 L206.18,56.57 L205.91,56.00 L204.98,55.43 L204.85,54.86 L203.92,54.58 L203.78,54.29 L204.05,53.87 L202.18,53.58 L200.72,52.73 L199.92,51.73 L200.32,51.17 L199.25,50.88 L198.45,50.31 L198.59,50.17 L195.52,49.46 L194.06,49.74 L192.33,49.46 L191.66,49.18 L191.80,48.75 L192.73,47.19 L192.46,46.62 L192.73,46.62 L192.19,46.19 L192.33,46.05 L192.06,45.20 L191.26,44.91 L188.47,44.06 L188.07,43.35 L186.87,42.64 L185.14,42.50 L181.94,41.64 L177.41,41.07 L175.15,41.07 L173.68,40.65 L172.48,39.94 L172.48,38.80 L171.68,38.52 L170.62,37.38 L168.62,36.95 L166.49,35.82 L160.50,34.54 L154.37,33.83 L149.71,33.54 L146.51,32.97 L141.58,32.55 L138.52,31.55 L135.86,30.98 L132.53,31.13 L128.53,30.56 L126.93,29.70 L125.87,28.85 L122.94,28.57 L120.54,27.15 L118.67,26.72 L117.74,26.01 L117.47,26.15 L115.88,24.59 L114.41,23.59 L112.68,23.45 L112.81,23.45 L111.21,22.60 L108.02,21.75 L106.55,20.75 L101.09,17.77 L99.89,17.77 L99.36,17.62 L97.36,17.20 L96.30,17.34 L95.50,16.91 L95.76,16.77 L95.50,16.34 L94.30,15.92 L92.30,15.92 L89.10,15.49 L87.37,15.92 L85.51,15.63 L82.71,16.34 L81.38,16.06 L78.72,16.34 L76.45,16.20 L75.79,15.63 L75.79,15.49 L73.65,14.78 L72.86,14.21 L72.32,14.21 L72.19,13.64 L71.26,13.36 L70.99,13.08 L70.19,12.79 L69.93,12.51 L68.86,12.22 L67.93,11.80 L66.86,11.51 L64.46,9.38 L61.53,7.53 L60.07,7.25 L58.34,7.39 L55.81,6.82 L54.74,7.11 L54.87,7.25 L55.27,7.11 L52.08,6.96 L48.75,7.25 L44.75,6.68 L44.22,6.40 L43.42,6.54 L39.56,5.69 L35.83,4.55 L35.43,4.12 L35.56,2.98 L34.36,3.13 L33.43,2.84 L33.30,2.70 L33.56,2.13 L33.30,1.99 L33.03,1.28 L32.23,0.71 L30.10,0.00 L30.37,0.00 L27.44,0.28 L23.71,0.99 L24.11,1.14 L24.11,1.28 L23.71,1.42 L23.84,1.56 L23.18,1.85 L23.18,2.13 L23.71,2.56 L23.71,2.70 L21.71,2.98 L21.98,3.13 L20.64,3.55 L19.31,3.55 L16.78,4.55 L13.45,5.12 L9.72,4.12 L8.26,3.98 L5.59,3.13 L5.06,3.27 L2.53,2.56 L0.93,2.42 L0.00,1.99 L13.32,4.69 L14.52,4.55 L15.18,4.69 L15.85,4.26 L16.92,4.26 L19.18,3.27 L20.25,3.41 L21.31,3.13 L23.44,3.55 L24.24,4.26 L25.04,4.41 L26.51,4.41 L27.70,3.70 L29.97,3.41 L30.77,3.55 L31.17,3.41 L32.63,3.55 L32.90,3.41 L33.83,3.41 L34.23,3.55 L35.56,3.55 L36.23,3.70 L36.76,4.26 L37.29,4.55 L40.22,5.54 L43.15,5.97 L49.95,7.82 L51.55,7.67 L53.28,7.25 L54.08,6.82 L57.27,6.54 L62.07,6.40 L64.86,6.82 L65.53,7.11 L65.80,7.96 L68.86,10.38 L68.33,10.80 L68.59,11.23 L68.59,11.37 L69.66,11.80 L70.19,12.51 L71.26,13.08 L71.52,13.36 L72.32,14.07 L73.12,14.07 L76.05,15.35 L79.12,16.34 L82.84,16.20 L84.84,15.49 L86.17,15.21 L86.97,15.63 L88.31,15.49 L90.17,15.49 L92.57,15.92 L94.17,15.92 L96.56,16.77 L95.76,17.06 L100.16,17.77 L100.69,17.77 L101.23,18.19 L102.42,18.19 L102.96,18.48 L102.42,18.48 L105.35,19.90 L108.68,22.03 L114.41,23.59 L118.27,25.16 L120.67,27.29 L121.07,27.29 L121.47,27.71 L122.27,27.86 L123.47,28.57 L123.73,28.85 L123.73,29.28 L124.40,29.85 L126.40,30.56 L131.99,30.98 L136.25,30.98 L137.85,31.27 L140.65,32.40 L150.37,33.54 L152.24,33.97 L155.70,33.97 L163.16,34.82 L166.09,35.67 L167.55,36.38 L167.95,36.81 L170.75,37.52 L171.55,38.23 L172.75,38.23 L173.02,38.66 L172.75,39.23 L173.02,39.80 L173.28,40.22 L174.35,40.79 L178.08,41.22 L181.94,41.36 L183.94,41.79 L184.87,42.21 L185.94,43.35 L188.20,43.77 L188.33,44.20 L189.26,44.63 L191.13,44.77 L192.06,45.05 L192.86,46.62 L192.46,47.75 L192.06,48.18 L192.46,48.47 L191.80,48.75 L192.33,49.32 L192.33,49.60 L194.33,50.03 L197.52,50.03 L198.45,50.17 L198.59,50.60 L199.12,50.74 L199.12,50.60 L200.19,51.45 L200.32,51.59 L200.05,51.88 L200.32,52.30 L201.25,53.30 L203.65,54.43 L204.45,54.58 L205.65,56.14 L207.25,56.85 L208.58,57.13 L209.51,57.13 L210.58,56.57 L211.51,56.57 L211.64,56.28 L214.70,55.86 L217.90,54.72 L224.43,54.15 L226.03,54.43 L228.42,55.29 L229.89,55.43 L231.75,56.28 L232.29,57.13 L236.68,57.42 L238.68,57.99 L239.74,58.56 L240.54,60.26 L241.48,61.26 L241.61,61.97 L240.81,63.53 L240.41,64.10 L240.28,65.24 L240.94,65.95 L241.08,66.94 L242.01,67.51 L242.01,67.94 L242.67,68.65 L242.67,68.79 L243.21,68.93 L245.34,70.92 L246.54,71.06 L248.00,71.63 L248.93,72.48 L249.07,72.91 L249.73,73.76 L251.07,74.47 L251.60,74.90 L251.73,75.75 L252.26,76.89 L251.86,77.46 L251.86,78.60 L251.47,79.16 L251.73,79.73 L251.60,80.02 L251.86,80.16 L251.86,80.44 L253.73,81.86 L256.53,83.43 L257.19,84.14 L258.79,84.85 L259.72,86.84 L260.26,87.55 L259.99,88.12 L260.39,90.39 L260.12,91.25 L260.66,92.67 L260.52,93.38 L259.99,94.23 L259.99,94.66 L260.26,95.22 L259.99,95.79 L260.12,96.08 L260.12,97.50 L260.79,98.78 L260.52,99.20 L259.06,100.20 L259.19,100.48 L258.79,101.05 L259.19,101.90 L259.06,102.19 L257.86,104.18 L255.19,106.31 L255.19,106.74 L254.13,107.16 L253.60,107.87 L251.47,109.15 L249.47,110.15 L247.20,110.29 L246.80,110.57 L247.20,111.14 L247.20,111.57 L247.60,112.00 L246.94,113.13 L247.20,113.42 L246.94,113.70 L247.20,113.70 L247.34,114.84 L246.94,115.69 L247.34,117.54 L247.20,117.96 L247.60,118.25 L247.87,119.24 L248.14,119.81 L247.87,120.52 L248.27,123.22 L249.33,123.93 L249.47,124.36 L249.20,124.50 L250.00,125.50 L250.27,126.21 L250.80,126.78 L247.60,127.63 L247.07,127.77 L247.20,128.20 L250.80,130.19 L251.73,131.32 L252.00,131.89 L251.86,132.18 L250.93,133.17 L252.00,133.46 L253.33,133.60 L253.33,134.03 L252.26,134.45 L252.53,134.74 L252.40,135.16 L254.26,136.73 L254.40,137.58 L254.13,138.15 L255.06,139.85 L254.93,140.28 L255.73,141.27 L255.59,141.70 L255.73,141.70 L255.33,142.27 L256.13,142.27 L256.66,142.84 L257.19,142.98 L259.46,144.97 L260.66,145.68 L264.92,149.66 L265.85,150.94 L266.78,151.65 L268.51,152.22 L268.25,152.79 L268.65,153.35 L266.52,153.64 L265.98,154.06 L265.72,154.78 L266.38,155.49 L270.11,157.62 L271.58,160.18 L273.31,161.03 L273.44,161.31 L273.18,161.88 L273.84,162.31 L274.24,162.88 L275.57,163.45 L275.97,164.30 L278.10,163.73 L278.37,165.15 L279.44,166.43 L279.44,166.86 L281.03,167.71 L281.17,168.14 L281.97,168.70 L283.16,169.27 L283.70,169.70 L285.96,171.12 L286.89,171.26 L287.16,171.69 L287.96,171.69 L290.36,172.97 L291.42,173.11 L294.49,174.96 L295.02,176.24 L296.08,177.09 L302.74,179.79 L305.14,181.50 L306.74,182.06 L308.20,183.20 L311.53,184.91 L311.93,185.19 L311.80,185.76 L312.60,186.47 L312.73,187.04 L313.93,187.61 L314.46,188.18 L314.46,188.89 L315.13,189.31 L314.86,189.88 L316.06,190.45 L316.73,192.30 L318.06,193.58 L318.46,194.86 L319.13,195.42 L319.13,195.71 L319.26,195.99 L319.13,196.84 L319.79,197.56 L320.32,199.12 L321.26,200.82 L322.19,201.39 L322.46,202.67 L324.19,203.67 L325.25,204.80 L325.79,206.51 L325.65,207.50 L324.45,208.64 L324.32,209.35 L323.12,210.20 L322.59,210.92 L321.26,211.20 L321.79,211.77 L324.85,213.62 L325.65,214.75 L326.58,215.46 L330.31,217.60 L330.85,218.73 L330.71,220.58 L331.78,222.00 L331.38,222.57 L332.98,223.85 L333.11,224.42 L332.45,225.13 L333.24,226.26 L333.78,228.68 L334.04,229.11 L332.98,230.39 L331.51,231.24 L331.38,231.52 L331.65,231.95 L329.25,235.08 L329.65,235.22 L329.38,236.36 L329.65,236.92 L330.58,237.92 L330.31,238.06 L330.71,239.20 L330.58,240.19 L331.65,241.76 L330.85,242.61 L330.85,243.18 L330.71,243.46 L330.85,243.60 L331.91,244.31 L333.11,244.46 L335.64,246.45 L339.24,248.01 L342.17,249.86 L344.70,250.85 L347.76,252.84 L350.56,255.12 L354.02,256.11 L356.15,256.96 L358.68,258.24 L361.35,260.38 L362.81,260.80 L363.75,261.94 L363.48,262.22 L364.01,262.36 L365.08,263.50 L365.61,263.64 L365.74,264.21 L365.34,265.35 L366.01,266.49 L365.88,266.91 L366.14,267.20 L366.01,267.62 L368.14,269.19 L368.41,269.76 L369.74,270.32 L370.80,270.61 L373.34,270.47 L374.67,269.90 L379.20,270.32 L378.66,270.32 L378.53,270.04 L380.13,269.47 L384.26,270.61 L388.52,272.46 L390.12,273.02 L393.85,273.02 L395.84,273.31 L399.17,274.30 L402.77,274.59 L407.43,275.72 L413.29,276.44 L416.09,277.29 L418.22,277.29 L419.42,277.57 L421.68,278.14 L421.95,278.71 L422.75,278.99 L425.95,279.14 L426.21,279.42 L426.08,279.85 L432.34,282.55 L437.53,285.39 L442.86,286.53 L446.32,286.67 L446.86,286.81 L446.86,287.52 L447.52,288.37 L452.18,289.65 L453.52,290.51 L454.85,290.79 L457.25,291.93 L458.31,291.79 L458.44,291.93 L458.18,291.93 L458.31,291.79 L459.91,291.50 L462.04,291.79 L464.30,291.50 L473.89,292.21 L476.56,293.21 L479.75,295.34 L481.09,296.76 L482.02,298.04 L481.89,298.18 L482.02,298.32 L482.82,299.03 L482.82,298.75 L482.69,298.89 L482.82,298.89 L483.22,299.89 L487.35,301.59 L489.88,303.87 L491.34,304.43 L493.21,305.57 L493.87,305.71 L495.60,306.57 L496.40,307.28 L496.27,307.56 L495.87,307.99 L495.87,308.27 L498.27,309.55 L499.07,310.40 L500.27,310.97 L501.33,311.97 L502.00,312.25 L502.93,313.39 L509.46,315.52 L512.12,316.66 L512.25,316.94 L511.99,317.23 L513.59,318.93 L515.45,319.78 L515.45,319.93 L514.78,320.49 L514.52,320.92 L514.38,321.49 L514.65,322.48 L515.58,323.34 L515.58,323.76 L515.85,324.19 L517.85,325.33 L520.25,325.90 L522.91,326.18 L527.17,328.03 L533.70,330.16 L545.42,331.15 L550.88,332.01 L555.41,333.14 L559.00,333.71 L560.47,333.71 L561.67,334.57 L566.33,334.85 L567.26,334.57 L568.19,335.13 L572.99,335.42 L577.65,336.13 L579.12,336.55 L580.18,337.27 L581.11,337.55 L581.78,337.98 L582.84,338.26 L583.24,338.69 L589.24,339.97 L592.30,341.25 L595.76,342.10 L596.16,342.38 L600.56,342.67 L602.42,343.09 L607.09,345.22 L607.49,345.51 L607.49,345.79 L608.55,346.79 L608.95,347.36 L610.02,348.35 L613.35,349.63 L613.35,350.34 L614.14,351.19 L613.88,351.76 L613.48,351.90 L614.01,352.33 L613.88,352.90 L615.08,354.46 L615.61,355.46 L616.54,356.45 L616.54,356.88 L617.34,357.45 L617.47,358.02 L618.81,358.58 L619.47,359.30 L620.80,359.58 L622.94,360.43 L624.80,360.86 L625.73,361.57 L628.00,362.14 L629.99,363.13 L632.39,363.56 L633.86,364.27 L633.72,364.55 L636.25,365.41 L636.52,365.69 L636.39,365.83 L636.79,366.12 L637.05,366.69 L636.92,367.54 L637.45,368.11 L637.19,368.53 L637.32,369.10 L637.19,369.53 L635.86,371.09 L636.25,371.66 L635.59,372.80 L635.86,373.22 L635.46,373.65 L635.86,373.79 L635.99,374.50 L637.05,375.07 L637.72,376.07 L637.99,377.06 L638.79,378.34 L639.58,378.91 L639.98,379.90 L642.38,383.03 L642.51,383.74 L643.05,384.03 L643.31,384.74 L643.18,386.16 L643.31,386.73 L643.85,387.72 L644.38,387.86 L644.25,388.15 L645.05,388.43 L644.78,389.00 L643.05,389.57 L642.51,390.14 L643.18,390.28 L643.58,390.70 L642.91,391.42 L642.78,392.27 L641.98,393.12 L641.45,395.25 L641.18,395.54 L641.18,396.25 L641.32,396.67 L641.05,397.53 L641.45,398.10 L642.25,398.52 L640.78,399.09 L639.98,399.94 L640.52,401.22 L641.58,401.65 L641.45,402.79 L642.38,404.21 L639.05,405.63 L638.52,406.05 L636.25,406.48 L631.73,408.04 L630.53,408.75 L628.00,409.75 L627.20,410.60 L626.40,410.46 L626.80,410.60 L626.13,411.03 L624.93,411.17 L622.80,412.17 L621.74,412.17 L621.87,412.17 L621.47,412.31 L621.60,412.31 L621.20,412.73 L619.61,412.88 L618.81,413.87 L616.01,415.15 L615.74,415.86 L616.01,416.57 L615.61,417.57 L616.01,418.14 L615.48,418.99 L615.48,419.41 L615.74,419.56 L615.88,420.55 L616.14,420.69 L615.74,421.55 L615.34,422.26 L614.81,424.10 L615.08,424.82 L616.41,425.53 L617.08,425.53 L617.74,426.38 L617.34,426.95 L617.61,427.80 L617.34,428.65 L617.61,430.07 L617.87,430.64 L617.61,431.21 L618.14,431.78 L618.14,432.21 L617.87,432.49 L617.34,432.63 L616.94,433.63 L616.54,434.05 L616.94,434.48 L617.08,434.76 L616.68,435.33 L617.08,435.90 L616.28,437.46 L617.08,438.46 L617.34,439.45 L619.61,441.30 L619.74,441.59 L619.47,441.87 L620.14,442.30 L620.27,443.01 L621.20,444.29 L622.27,444.71 L625.33,445.28 L629.73,447.56 L630.13,448.27 L630.13,449.83 L631.46,450.26 L632.79,450.82 L633.32,451.68 L634.52,452.25 L634.79,452.81 L635.86,453.24 L635.99,454.09 L636.52,454.80 L637.99,455.51 L637.72,456.51 L637.85,457.22 L637.45,457.65 L637.59,458.07 L636.92,458.21 L637.32,458.78 L637.19,459.64 L634.92,462.34 L633.32,463.62 L632.79,465.04 L633.06,465.75 L632.79,466.17 L635.32,468.45 L635.99,469.44 L637.05,470.30 L637.72,471.15 L637.99,472.29 L638.12,472.43 L641.32,474.42 L642.78,474.99 L642.65,475.55 L643.58,475.84 L643.85,476.55 L645.18,477.40 L645.84,477.97 L646.91,478.25 L647.84,479.39 L648.38,479.68 L648.38,479.96 L649.31,480.67 L650.51,481.38 L652.24,481.81 L652.10,482.38 L651.31,483.09 L651.44,483.23 L653.44,482.38 L653.57,482.23 L653.17,481.81 L653.04,480.81 L654.50,478.97 L658.10,477.83 L659.56,478.11 L661.69,479.39 L663.69,479.96 L668.49,480.67 L670.22,481.24 L673.15,481.67 L677.94,482.80 L677.54,482.80 L676.88,483.94 L678.74,483.09 L680.61,483.09 L686.33,484.08 L693.79,484.93 L698.85,485.79 L700.72,486.21 L704.58,486.64 L709.24,487.64 L710.31,488.20 L709.24,489.06 L707.25,492.18 L706.31,492.61 L706.05,493.32 L704.58,494.31 L704.45,494.46 L704.98,494.88 L703.78,496.30 L698.32,499.43 L693.26,501.28 L689.80,502.98 L688.87,503.84 L689.00,504.26 L688.07,504.55 L687.13,506.11 L685.00,506.96 L682.74,508.67 L680.21,509.52 L679.01,510.09 L677.94,510.23 L677.54,510.38 L677.68,510.52 L675.95,510.94 L674.61,512.51 L673.81,512.65 L673.42,513.64 L672.35,513.36 L670.88,513.64 L669.95,514.07 L669.55,514.50 L668.49,514.78 L668.62,515.07 L667.02,515.07 L667.55,515.92 L667.82,516.06 L667.55,516.63 L665.42,518.19 L663.96,518.62 L662.49,520.04 L661.69,521.60 L660.10,522.31 L659.30,523.02 L659.16,523.45 L658.10,523.59 L657.96,524.45 L657.03,525.87 L657.03,526.44 L656.50,527.15 L656.63,527.57 L656.10,528.28 L656.10,528.85 L656.90,530.13 L658.36,530.98 L658.76,530.98 L658.90,531.27 L659.56,531.84 L660.63,532.40 L661.83,532.55 L662.09,532.83 L661.83,532.83 L662.09,533.97 L661.96,534.39 L662.09,534.39 L660.90,535.53 L659.70,536.24 L658.50,537.52 L657.70,539.08 L657.83,540.51 L658.36,541.07 L658.23,542.21 L657.57,543.35 L657.70,543.63 L657.30,544.49 L656.37,546.33 L656.37,547.61 L656.90,549.60 L656.63,550.17 L657.03,550.88 L657.03,551.88 L657.43,552.73 L655.97,556.00 L656.37,556.57 L656.50,557.28 L656.10,557.70 L656.10,557.99 L655.03,558.56 L654.50,559.12 L653.97,561.26 L652.90,562.39 L652.90,563.96 L652.50,564.95 L652.64,565.38 L652.37,565.95 L652.64,566.09 L655.03,567.51 L655.83,568.65 L655.83,569.22 L656.10,569.36 L656.10,569.93 L656.63,570.35 L656.23,570.78 L656.37,571.06 L655.97,571.35 L655.83,572.48 L655.43,573.05 L655.43,573.48 L658.36,575.18 L661.03,576.04 L660.90,576.32 L661.16,576.75 L662.63,576.61 L664.22,576.18 L667.16,576.61 L669.69,578.17 L672.48,579.16 L673.81,579.45 L676.88,579.45 L679.01,580.44 L681.01,580.16 L684.47,580.59 L686.60,580.16 L688.60,580.30 L693.39,581.01 L699.52,580.87 L708.58,582.01 L711.11,582.15 L713.64,581.72 L717.10,581.72 L720.30,582.29 L721.36,583.14 L721.76,583.14 L721.90,583.71 L723.89,585.13 L723.89,585.70 L724.29,586.13 L726.56,587.12 L727.09,587.98 L726.82,589.11 L728.96,590.53 L730.42,591.96 L730.95,592.95 L731.22,594.51 L732.02,595.51 L732.15,596.08 L732.69,596.65 L732.95,597.78 L734.68,599.20 L735.88,601.62 L736.15,602.90 L736.01,603.75 L737.35,605.74 L737.48,606.45 L738.81,607.59 L740.54,608.58 L740.94,608.16 L742.81,607.87 L743.47,607.45 L745.47,607.87 L747.07,607.31 L748.14,607.45 L751.33,607.45 L752.00,607.31 L753.33,606.17 L755.19,605.88 L756.79,606.88 L758.26,607.16 L759.72,607.87 L763.72,608.44 L768.25,608.16 L771.98,607.02 L775.31,606.88 L777.44,606.88 L780.77,607.73 L782.50,608.02 L788.63,608.02 L797.55,607.02 L799.41,607.02 L803.41,607.73 L811.40,607.45 L820.72,607.59 L829.65,608.58 L831.11,608.87 L832.98,609.86 L833.38,610.86 L834.98,612.14 L835.78,613.42 L838.44,614.84 L838.97,615.83 L840.57,617.54 L840.30,618.68 L842.04,620.24 L842.70,621.38 L842.57,621.80 L842.83,622.09 L843.50,622.51 L844.83,623.65 L845.90,625.64 L845.63,627.49 L845.90,628.34 L848.16,629.33 L847.90,629.48 L848.16,629.48 L847.90,629.62 L847.90,629.48 L848.16,629.48 L847.63,629.48 L847.63,629.90 L849.76,630.76 L851.62,630.76 L852.96,631.75 L853.22,632.32 L853.49,632.75 L854.56,632.89 L857.62,634.74 L860.28,635.73 L861.88,635.87 L862.41,636.30 L864.94,636.87 L866.81,638.29 L870.94,639.99 L872.67,641.13 L879.73,643.41 L881.19,644.12 L881.86,644.68 L881.99,644.97 L882.13,646.53 L882.79,647.95 L882.79,648.24 L881.99,649.09 L881.86,649.80 L881.99,650.80 L882.53,651.93 L884.79,654.21 L884.92,656.48 L885.19,657.19 L885.99,657.76 L885.86,658.04 L886.52,660.60 L889.18,663.02 L892.51,664.87 L893.05,665.72 L893.71,666.15 L894.65,667.71 L895.98,668.70 L896.24,669.41 L895.31,670.27 L894.51,671.69 L893.31,672.68 L892.65,672.97 L891.98,673.96 L890.92,674.67 L889.32,674.96 L887.85,675.67 L886.79,677.23 L885.46,678.51 L885.32,678.94 L886.52,679.93 L887.32,681.35 L886.79,682.35 L885.86,683.34 L884.92,683.77 L883.86,684.05 L883.59,684.34 L883.72,685.05 L884.92,686.04 L884.92,686.75 L884.52,687.04 L881.73,688.18 L878.80,688.46 L877.46,688.89 L871.74,689.31 L871.07,689.74 L871.20,689.88 L868.41,690.31 L864.54,691.73 L862.41,693.58 L862.55,693.72 L861.48,694.57 L861.08,695.28 L860.02,696.42 L860.02,696.99 L859.48,697.56 L859.75,698.55 L858.95,700.11 L857.62,701.25 L856.82,703.24 L855.89,703.95 L855.35,704.09 L854.02,705.66 L853.62,707.22 L852.29,708.07 L851.49,708.07 L852.16,708.50 L851.62,708.50 L851.76,708.64 L851.62,708.50 L851.89,708.36 L851.62,708.50 L851.76,708.50 L851.49,708.64 L851.89,708.36 L852.02,708.50 L851.36,708.78 L848.03,714.04 L848.83,715.18 L848.69,715.75 L849.49,716.74 L853.49,718.73 L853.89,719.02 L854.02,719.58 L855.75,720.58 L856.55,721.43 L859.48,723.14 L860.28,723.71 L860.55,724.56 L862.28,726.12 L867.08,728.11 L872.54,728.54 L874.40,730.10 L875.87,731.81 L876.53,732.23 L882.66,732.94 L884.92,732.94 L886.12,733.09 L886.25,733.37 L886.39,735.22 L887.05,736.92 L886.39,738.63 L887.59,741.61 L887.59,742.33 L886.52,744.46 L886.12,745.88 L886.92,747.02 L886.52,747.58 L885.72,748.01 L885.19,748.72 L885.19,749.43 L884.52,750.71 L884.39,752.27 L885.19,753.27 L888.25,754.26 L888.79,755.26 L888.52,755.40 L888.52,755.69 L889.32,756.96 L892.38,758.81 L894.51,760.94 L894.91,761.65 L894.91,762.08 L895.58,762.79 L895.84,763.79 L895.98,765.78 L895.71,766.63 L894.51,768.62 L893.85,770.32 L893.85,770.89 L893.18,771.60 L892.78,772.46 L892.78,773.31 L892.25,774.16 L892.25,774.73 L892.51,775.16 L892.51,775.72 L892.12,776.44 L892.12,777.15 L892.78,778.57 L892.65,778.71 L892.78,778.85 L892.91,778.71 L892.91,779.14 L893.18,779.42 L893.45,780.13 L893.31,780.42 L891.85,781.27 L891.18,782.12 L891.45,782.40 L891.45,783.83 L891.72,784.96 L891.58,785.67 L890.78,787.66 L891.05,788.23 L890.38,790.08 L890.65,790.51 L891.45,791.07 L891.72,791.79 L891.58,792.64 L890.65,793.77 L887.85,795.76 L887.45,796.62 L887.45,797.04 L887.99,797.61 L888.39,798.61 L888.92,798.89 L889.72,800.17 L889.85,801.02 L889.72,801.45 L889.98,802.02 L889.72,802.73 L888.52,803.72 L887.19,806.00 L886.12,808.70 L886.25,810.26 L886.92,810.83 L888.12,811.68 L889.72,812.25 L891.18,812.54 L894.78,812.39 L897.98,811.82 L900.24,811.68 L902.24,812.39 L907.83,812.96 L909.03,813.39 L909.96,814.38 L913.43,815.95 L916.09,816.23 L916.62,816.52 L924.35,817.51 L924.75,817.79 L924.61,818.65 L922.35,820.35 L922.08,821.21 L921.42,822.06 L921.42,822.77 L922.08,824.76 L923.68,827.03 L924.21,828.60 L924.08,829.02 L924.75,830.44 L924.61,831.15 L925.28,831.72 L925.68,833.43 L926.08,834.00 L928.08,835.42 L928.61,836.55 L928.08,837.98 L928.21,839.11 L928.34,839.54 L928.08,840.53 L928.21,842.10 L926.88,844.66 L926.48,846.08 L927.28,847.78 L929.14,849.49 L931.81,850.20 L935.00,850.06 L938.20,849.20 L942.06,849.63 L946.19,850.77 L948.19,851.48 L950.05,851.76 L951.78,852.33 L953.52,854.89 L953.25,856.17 L952.32,857.45 L948.72,859.01 L945.92,861.43 L944.86,862.99 L942.86,863.84 L942.73,864.13 L941.40,864.70 L941.26,865.26 L940.86,865.55 L938.20,866.97 L935.00,870.10 L933.27,873.08 L931.01,875.50 L931.01,876.07 L932.21,876.92 L936.07,878.34 L936.87,879.05 L937.93,880.61 L938.07,881.04 L937.53,882.60 L937.93,884.74 L938.20,885.59 L939.00,886.58 L939.00,887.01 L939.53,888.43 L939.53,888.86 L937.67,891.56 L937.40,892.41 L937.27,893.55 L936.47,894.97 L934.34,896.96 L931.81,897.95 L930.61,898.24 L928.34,898.95 L923.15,899.52 L920.48,900.37 L920.09,900.94 L920.75,902.08 L921.15,903.21 L923.15,905.20 L926.21,906.91 L927.94,907.05 L930.87,908.19 L933.67,908.75 L939.00,910.46 L943.26,911.60 L946.06,912.02 L949.92,912.31 L952.58,911.88 L956.45,910.74 L959.64,909.18 L962.17,907.33 L965.50,906.20 L971.10,904.78 L975.36,904.21 L977.62,904.21 L979.36,904.49 L982.55,906.48 L984.42,907.19 L990.14,908.47 L993.47,910.46 L996.14,911.31 L997.74,911.46 L999.20,912.45 L999.07,913.16 L999.33,913.45 L998.80,913.87 L998.27,914.72 L999.60,916.29 L999.47,916.71 L1000.00,917.57 L999.20,918.70 L996.14,920.13 L992.01,920.84 L990.28,921.40 L988.81,922.11 L988.15,922.83 L987.21,923.11 L986.68,923.68 L987.48,925.24 L987.35,926.95 L986.15,928.94 L986.01,930.07 L986.15,931.21 L985.88,932.49 L984.55,934.20 L984.02,935.47 L983.48,936.19 L983.08,937.61 L983.08,939.17 L982.42,939.88 L982.02,941.30 L981.62,942.01 L980.15,943.72 L978.42,944.57 L977.89,945.99 L975.49,948.12 L970.83,951.68 L968.83,952.67 L966.04,954.52 L963.37,956.94 L963.37,957.93 L963.77,958.93 L964.17,961.34 L964.84,962.91 L964.97,963.90 L964.57,967.60 L966.17,970.01 L969.23,972.57 L971.63,973.71 L972.96,973.85 L973.76,974.56 L975.76,975.70 L976.82,976.69 L976.16,976.83 L976.43,976.98 L979.75,978.40 L983.08,979.25 L983.75,979.68 L983.62,980.67 L984.02,981.67 L984.15,983.37" fill="none" stroke="#fc4c02" stroke-width="2" />
</svg>