<svg xmlns="http://www.w3.org/2000/svg" viewBox="0 0 1000 1000">
  <path d="M618.37,908.38 L618.09,907.63 L616.90,905.86 L616.43,902.59 L615.79,901.33 L615.24,900.83 L608.13,900.83 L601.49,900.08 L597.44,901.33 L592.92,904.86 L590.15,906.12 L580.65,909.39 L578.07,911.40 L576.32,913.42 L575.95,914.17 L576.04,914.93 L577.33,917.19 L578.35,921.47 L578.81,922.48 L582.50,926.50 L584.89,930.03 L590.98,937.08 L592.55,939.84 L597.25,944.63 L597.99,945.88 L599.10,949.66 L601.03,952.68 L605.55,956.20 L606.20,956.96 L607.58,959.73 L609.61,962.25 L611.45,963.76 L615.14,964.76 L617.73,966.52 L619.20,967.78 L618.65,967.78 L618.92,968.03 L623.07,971.31 L626.67,976.59 L629.35,979.36 L634.88,982.88 L638.66,986.91 L640.69,988.42 L643.36,989.93 L647.24,991.19 L648.90,992.20 L653.79,993.46 L655.26,994.46 L657.11,996.48 L658.21,996.98 L665.04,997.23 L671.40,999.75 L672.88,1000.00 L679.79,998.49 L687.45,999.75 L694.18,996.98 L697.04,996.73 L700.36,997.23 L701.84,996.98 L703.96,994.97 L706.35,993.96 L711.24,993.96 L713.73,995.22 L716.59,995.47 L720.46,994.97 L726.28,992.20 L729.23,991.69 L734.11,991.69 L738.82,989.93 L741.31,989.43 L743.15,989.43 L749.05,991.19 L753.48,990.94 L755.97,990.18 L761.78,987.42 L768.51,987.16 L773.31,985.15 L774.51,985.15 L780.23,985.65 L782.99,985.40 L786.04,984.65 L789.17,982.88 L795.44,977.85 L801.35,975.08 L803.56,973.32 L805.77,970.80 L815.64,955.70 L819.05,949.16 L822.19,943.62 L824.50,938.08 L829.11,932.54 L832.06,927.26 L834.46,921.47 L837.22,917.44 L838.88,913.42 L840.54,910.40 L852.62,894.03 L854.28,891.01 L857.60,883.21 L860.83,877.93 L870.52,867.10 L877.43,855.78 L880.57,852.25 L884.26,847.22 L888.59,838.41 L890.44,836.14 L898.09,828.09 L900.86,824.06 L904.55,817.77 L907.68,810.97 L909.62,807.95 L914.41,804.18 L915.15,802.92 L916.07,800.91 L916.72,797.63 L917.64,796.12 L920.23,793.36 L934.34,774.23 L936.27,770.70 L945.86,757.87 L947.89,754.59 L950.84,751.07 L959.61,738.74 L963.29,732.70 L969.66,725.14 L974.08,718.60 L977.22,714.83 L978.51,713.82 L980.54,709.54 L987.73,700.23 L989.39,697.21 L990.59,695.70 L993.18,691.42 L996.59,687.14 L998.62,684.87 L1000.00,681.85 L999.63,679.84 L998.80,678.33 L992.99,668.26 L989.86,661.72 L988.75,660.21 L985.89,654.42 L983.12,649.64 L981.37,645.86 L972.70,630.25 L970.49,625.98 L966.15,616.66 L964.86,614.65 L962.83,615.15 L960.99,614.65 L959.05,613.64 L957.58,613.39 L957.02,612.13 L955.27,604.83 L952.41,598.54 L951.58,597.53 L949.92,597.28 L945.13,598.04 L942.27,597.03 L940.79,596.02 L939.78,594.01 L938.58,593.25 L937.19,593.25 L932.40,594.76 L929.54,594.51 L926.68,595.02 L923.55,594.26 L909.99,597.53 L909.53,598.29 L909.34,600.05 L908.24,601.06 L885.18,610.87 L865.54,620.19 L864.15,620.44 L862.68,619.93 L862.40,618.93 L860.83,616.91 L860.09,615.66 L859.17,612.38 L858.25,607.35 L857.33,604.83 L855.30,598.79 L854.38,595.02 L853.45,593.00 L851.70,592.00 L850.69,592.25 L843.49,596.27 L833.90,600.81 L826.89,603.32 L821.36,603.57 L820.90,604.08 L812.69,603.32 L799.59,603.32 L792.31,602.82 L787.51,603.07 L783.18,601.81 L774.14,598.54 L773.31,598.04 L772.11,595.77 L771.28,593.00 L768.88,587.97 L767.13,586.46 L766.30,586.21 L763.53,587.47 L761.41,587.72 L759.20,587.21 L756.99,585.96 L753.11,585.20 L740.66,584.70 L734.39,586.21 L725.81,589.23 L713.27,594.26 L704.97,598.04 L702.94,598.54 L695.01,601.56 L690.86,603.83 L688.19,604.83 L685.70,607.10 L685.42,608.36 L685.33,610.37 L685.33,615.66 L685.05,617.92 L683.76,620.69 L681.55,622.95 L680.44,626.73 L679.70,627.74 L678.69,627.99 L677.95,627.49 L677.30,626.73 L676.29,624.47 L675.37,623.46 L672.69,622.45 L671.40,620.44 L669.10,613.64 L667.25,607.10 L666.97,605.34 L665.59,600.81 L664.85,599.04 L660.24,583.44 L660.43,578.91 L661.35,571.36 L661.53,570.85 L663.19,570.35 L671.22,569.59 L683.85,566.57 L686.25,565.32 L690.40,562.30 L693.81,558.77 L699.99,550.21 L705.80,543.17 L711.61,534.61 L712.81,532.09 L713.27,529.32 L713.27,528.06 L714.01,525.80 L715.12,524.54 L717.05,523.28 L718.99,520.01 L721.57,513.97 L722.12,511.20 L722.49,507.93 L725.35,497.86 L726.28,492.32 L727.66,486.53 L728.21,484.52 L729.32,481.50 L730.61,478.48 L733.84,473.45 L737.25,469.17 L743.98,462.37 L747.12,459.85 L752.10,457.09 L756.99,453.31 L766.49,441.23 L769.16,436.70 L769.71,435.44 L770.36,432.42 L771.10,428.14 L771.10,427.13 L771.28,425.62 L772.30,421.60 L772.94,418.32 L773.13,415.55 L774.42,412.79 L778.47,408.26 L779.58,407.00 L781.33,406.24 L784.19,402.72 L784.84,402.21 L785.67,402.72 L785.94,404.48 L785.67,404.98 L784.93,405.49 L785.48,404.98 L786.04,405.24 L786.41,406.49 L787.24,408.51 L788.16,408.26 L789.63,409.77 L790.83,409.77 L793.32,408.51 L795.26,406.75 L796.09,405.49 L796.74,404.23 L797.47,400.70 L799.32,395.17 L800.06,388.62 L800.24,388.12 L800.24,387.11 L801.25,383.09 L803.01,378.05 L804.48,375.03 L804.94,373.77 L805.40,370.25 L805.40,368.74 L804.85,366.22 L804.76,364.46 L805.13,362.19 L807.06,359.68 L808.54,355.40 L811.58,349.61 L813.52,345.08 L814.07,342.56 L815.46,338.79 L818.13,335.01 L818.87,331.99 L819.05,329.98 L818.96,328.97 L819.42,324.94 L820.44,322.43 L822.56,318.40 L823.85,314.88 L825.51,311.60 L827.54,302.29 L828.46,294.49 L830.21,289.20 L830.77,286.43 L830.67,285.43 L829.94,281.90 L829.84,280.90 L829.29,278.88 L829.11,274.60 L829.20,273.09 L830.12,270.83 L830.40,269.82 L830.03,266.30 L829.38,263.78 L830.12,259.25 L830.77,257.24 L832.06,255.47 L833.44,250.69 L834.18,249.69 L835.29,247.17 L836.30,243.39 L838.24,241.38 L840.45,236.85 L840.91,234.08 L841.10,233.32 L841.56,229.05 L842.76,226.03 L843.03,224.77 L843.12,222.75 L842.48,217.47 L843.03,214.95 L843.12,210.67 L843.40,209.67 L844.14,207.90 L845.15,207.15 L846.72,205.64 L850.32,204.88 L852.53,203.37 L852.90,202.62 L854.10,201.61 L854.74,200.10 L854.84,199.09 L855.21,198.09 L854.74,195.07 L855.11,194.82 L854.93,194.82 L855.11,194.31 L855.02,194.06 L852.25,191.54 L850.78,189.28 L831.97,170.90 L829.20,168.64 L820.90,160.08 L818.41,158.82 L816.01,158.57 L800.15,157.56 L798.40,157.06 L796.74,155.80 L795.72,154.29 L795.91,154.04 L795.91,154.54 L796.09,154.29 L795.81,154.29 L796.09,154.29 L795.91,154.29 L796.00,154.04 L796.00,154.29 L795.44,154.29 L793.05,151.02 L790.65,148.25 L788.53,145.23 L786.22,142.71 L782.90,137.68 L771.65,123.84 L765.56,117.04 L764.09,114.77 L750.62,98.16 L748.13,95.39 L738.54,83.82 L735.13,79.03 L730.15,73.24 L727.66,69.72 L719.36,59.65 L717.88,57.39 L705.62,42.54 L704.79,41.28 L704.33,40.27 L701.01,36.50 L697.32,31.46 L696.49,30.96 L695.01,28.69 L693.35,27.44 L692.61,25.67 L689.11,21.90 L687.08,18.63 L686.16,18.12 L684.40,15.35 L683.48,14.35 L682.84,12.58 L682.84,12.08 L682.65,12.58 L682.74,12.33 L682.10,11.33 L681.82,9.82 L681.91,9.31 L681.64,8.56 L681.64,8.56 L681.36,6.80 L681.45,6.04 L682.47,3.52 L682.47,3.78 L682.65,3.02 L682.19,1.76 L681.08,1.26 L680.53,0.25 L679.70,0.00 L679.61,0.50 L679.42,0.76 L678.13,0.76 L675.00,3.02 L673.52,3.52 L668.73,8.56 L667.53,9.06 L663.47,13.09 L662.55,13.34 L659.04,16.86 L658.12,18.63 L656.46,20.89 L652.77,23.16 L650.93,23.66 L650.10,24.92 L648.44,25.67 L648.34,25.92 L648.62,26.43 L649.17,29.95 L650.65,34.23 L650.65,34.73 L650.28,35.74 L648.62,37.25 L646.78,37.75 L633.96,38.51 L619.20,34.99 L611.55,31.97 L608.60,31.21 L604.91,30.96 L600.66,31.46 L597.62,32.47 L589.23,37.00 L565.07,57.14 L561.65,59.40 L559.44,60.66 L557.23,61.67 L535.37,75.26 L521.07,83.31 L513.60,87.84 L512.04,89.10 L502.81,94.64 L496.26,97.66 L493.22,98.67 L485.66,99.92 L480.31,100.18 L459.84,103.95 L449.88,104.71 L443.79,105.71 L424.88,107.48 L396.57,108.99 L371.02,109.24 L367.15,108.99 L352.67,107.22 L343.26,104.96 L337.27,102.94 L332.93,100.93 L327.40,97.41 L323.25,95.14 L319.56,94.14 L316.61,93.88 L313.66,89.60 L313.11,88.35 L312.09,86.84 L312.00,86.08 L310.89,84.57 L308.49,83.56 L307.76,82.31 L307.66,81.55 L307.48,81.05 L302.31,78.53 L301.76,77.77 L301.48,77.02 L300.65,76.77 L298.99,75.01 L295.12,73.50 L293.92,72.24 L292.72,71.73 L290.97,70.48 L289.13,70.48 L288.11,70.22 L286.45,68.71 L285.16,66.45 L284.33,63.93 L283.13,62.42 L282.95,61.67 L281.93,59.90 L281.84,59.15 L280.55,58.14 L279.72,55.88 L278.98,55.63 L277.78,54.12 L277.69,53.11 L277.41,52.10 L276.03,50.59 L275.66,49.58 L274.56,48.07 L274.46,47.57 L273.26,46.06 L273.08,44.55 L272.62,43.80 L272.06,43.54 L269.11,40.52 L268.47,40.27 L267.08,39.27 L266.44,38.26 L266.25,37.50 L265.52,36.75 L264.96,35.74 L264.59,35.49 L264.23,34.48 L264.32,34.48 L263.86,33.98 L263.86,33.48 L263.58,32.47 L263.21,32.47 L262.66,31.46 L262.01,31.46 L261.92,29.70 L260.17,27.94 L260.08,27.44 L258.88,27.94 L258.23,27.69 L258.14,27.18 L258.32,27.44 L256.85,27.69 L256.66,27.94 L256.76,30.46 L256.11,36.75 L255.56,38.76 L255.56,40.27 L254.82,42.79 L254.73,44.05 L253.80,47.32 L253.71,48.83 L252.61,53.11 L252.05,58.14 L251.68,58.90 L251.50,60.41 L250.67,61.41 L250.67,61.92 L249.75,63.93 L248.82,67.96 L247.72,70.48 L247.07,71.23 L246.70,73.24 L244.86,75.76 L243.20,77.02 L239.69,78.53 L235.17,79.79 L232.59,80.80 L225.40,81.80 L223.46,81.30 L218.21,81.55 L215.62,81.05 L211.38,82.81 L200.13,83.56 L183.25,80.80 L168.13,78.78 L164.07,79.03 L163.05,80.04 L140.83,77.02 L133.63,75.26 L125.70,75.76 L119.89,73.50 L112.33,71.99 L89.83,68.97 L82.73,68.71 L77.47,68.71 L67.23,69.72 L63.73,70.73 L16.51,91.62 L8.76,95.39 L2.12,99.17 L1.20,99.17 L0.00,98.67 L0.09,95.14 L0.55,93.63 L2.12,90.86 L3.50,89.60 L8.21,83.31 L16.05,75.01 L18.17,73.24 L23.52,71.48 L23.98,70.98 L30.71,67.96 L35.97,65.44 L40.67,61.67 L43.16,60.41 L46.11,59.90 L48.79,60.41 L50.17,60.41 L53.21,61.67 L55.06,61.92 L59.39,60.41 L62.07,57.89 L64.19,56.38 L67.23,55.37 L68.89,55.88 L71.29,59.40 L73.50,60.91 L74.89,61.41 L77.56,63.68 L79.22,64.43 L80.05,64.43 L84.94,62.42 L85.95,62.67 L94.16,61.16 L100.06,61.16 L103.85,62.17 L106.52,63.43 L109.10,65.44 L114.18,70.48 L117.86,73.24 L124.50,75.26 L128.56,75.76 L132.80,74.75 L134.37,74.75 L136.40,75.76 L141.20,77.02 L159.46,79.03 L162.87,80.29 L165.64,80.04 L178.92,81.55 L183.81,82.81 L188.32,83.31 L191.37,84.07 L195.89,84.07 L197.73,84.57 L200.04,84.32 L208.80,85.33 L219.13,89.10 L224.85,90.36 L231.58,90.61 L239.23,91.87 L256.11,92.12 L263.58,93.13 L273.08,92.88 L276.12,92.37 L281.56,92.63 L283.87,91.87 L289.22,91.62 L295.12,93.38 L304.34,92.88 L312.64,93.13 L320.94,94.64 L324.91,95.90 L330.44,99.42 L333.58,100.93 L335.24,102.19 L339.76,104.20 L345.02,105.71 L347.14,105.71 L351.19,106.72 L356.17,107.48 L357.65,107.98 L360.51,107.98 L363.18,108.48 L364.57,108.23 L366.87,108.99 L369.55,108.73 L373.79,109.24 L381.72,108.73 L392.79,109.24 L402.84,108.99 L412.71,108.23 L415.01,108.73 L416.95,108.23 L427.28,107.98 L433.74,106.97 L436.69,106.97 L439.18,106.22 L442.68,106.47 L444.34,105.71 L449.60,105.21 L450.34,104.96 L454.03,104.96 L455.87,104.71 L461.96,104.20 L463.25,103.45 L467.31,102.69 L470.26,102.69 L472.01,102.19 L485.38,100.93 L491.65,99.92 L497.00,98.16 L507.52,92.88 L515.54,87.84 L519.78,84.57 L521.63,83.82 L529.83,79.54 L538.97,73.75 L539.89,73.50 L544.41,70.73 L551.14,66.20 L562.94,59.40 L579.64,46.31 L589.50,37.75 L591.26,36.50 L598.82,32.97 L603.25,32.22 L610.53,32.72 L622.98,37.00 L631.28,38.76 L634.33,39.01 L644.66,39.01 L647.70,38.51 L648.99,38.01 L652.77,34.23 L653.88,33.73 L654.34,34.23 L654.25,33.98 L655.91,34.73 L656.74,35.24 L657.38,38.51 L658.03,40.27 L658.03,42.29 L658.21,43.04 L658.86,43.04 L659.69,44.05 L660.61,44.55 L661.99,44.80 L662.82,45.81 L663.56,45.81 L663.84,46.56 L666.05,49.08 L666.79,50.59 L670.20,51.60 L670.94,51.35 L671.68,52.10 L674.08,53.11 L675.46,54.37 L678.87,56.63 L679.15,56.38 L679.42,57.14 L682.56,59.15 L686.16,61.16 L687.63,61.92 L688.09,61.67 L688.46,62.42 L689.02,62.67 L688.83,62.92 L688.83,63.68 L689.20,64.43 L690.86,65.69 L691.78,67.46 L691.78,67.96 L691.97,68.21 L691.97,69.22 L692.61,70.73 L694.83,72.99 L695.38,75.01 L695.20,76.52 L700.64,72.99 L701.84,71.48 L703.59,71.23 L704.23,70.73 L706.63,69.72 L707.37,69.22 L707.74,68.21 L712.81,65.44 L715.30,62.67 L717.42,61.16 L717.61,60.66 L717.42,60.66 L717.97,61.41 L719.17,61.92 L719.08,61.92 L719.73,61.41 L719.54,61.16 L719.73,60.41 L719.63,60.66 L721.29,61.67 L724.43,65.44 L724.71,65.44 L724.43,65.44 L724.61,65.19 L724.25,65.19 L724.52,65.19 L724.43,65.44 L727.47,69.72 L730.89,73.24 L741.58,87.59 L742.23,88.09 L750.25,98.41 L754.96,103.70 L768.79,121.57 L778.20,132.65 L779.86,134.91 L786.50,142.97 L788.62,145.99 L793.97,153.03 L797.47,156.81 L800.15,158.07 L817.85,159.07 L820.81,160.08 L824.77,164.11 L827.63,167.38 L833.07,172.16 L854.84,193.81 L855.02,194.31 L854.65,194.82 L855.02,194.82 L854.65,194.82 L854.38,195.82 L854.28,197.08 L854.38,198.09 L854.93,199.09 L854.84,200.35 L854.56,201.36 L853.73,202.37 L851.15,204.38 L847.00,205.13 L843.68,208.41 L843.03,210.17 L843.03,213.94 L842.66,216.96 L842.66,217.97 L843.03,219.23 L843.03,219.48 L843.40,222.00 L843.31,223.01 L842.85,224.01 L840.63,225.02 L838.51,226.78 L835.84,226.53 L833.44,227.03 L824.96,231.81 L817.12,235.84 L813.61,236.85 L795.44,246.16 L793.97,247.17 L792.49,248.68 L791.57,248.43 L791.02,247.17 L790.00,241.63 L789.17,238.86 L788.53,235.34 L787.24,232.57 L785.21,229.80 L783.45,228.79 L782.07,227.54 L780.41,224.26 L778.66,222.75 L777.55,221.24 L776.54,219.23 L774.32,218.22 L773.13,216.96 L773.13,216.46 L774.14,214.95 L774.23,212.18 L773.86,210.17 L773.03,208.66 L768.79,208.16 L762.89,205.64 L761.69,206.14 L754.22,211.18 L750.81,214.70 L746.47,215.96 L745.83,216.46 L745.46,217.22 L744.63,220.49 L744.44,223.01 L744.90,225.52 L745.18,228.54 L745.18,229.55 L745.37,230.56 L745.27,233.07 L745.46,235.34 L745.27,238.61 L745.46,251.20 L745.37,255.22 L745.46,256.73 L745.73,257.74 L746.75,259.25 L747.86,260.01 L760.58,263.28 L762.80,264.79 L763.90,266.05 L765.29,269.32 L766.76,273.85 L768.70,278.13 L778.84,297.26 L781.79,301.79 L785.67,306.32 L786.87,307.58 L790.00,309.59 L790.46,311.60 L791.11,312.61 L791.57,314.12 L791.48,317.14 L792.59,318.90 L792.59,320.16 L792.86,320.92 L794.25,322.68 L793.88,323.94 L791.39,327.71 L791.57,327.71 L790.19,327.96 L786.41,330.48 L785.67,331.49 L784.93,333.50 L783.92,334.76 L780.32,337.02 L774.60,338.79 L774.14,339.29 L773.86,340.80 L774.60,341.81 L774.42,343.32 L774.51,344.07 L777.83,348.35 L780.13,350.11 L781.15,351.37 L783.27,353.39 L785.76,356.66 L788.90,359.68 L791.29,362.70 L794.43,365.97 L795.35,366.47 L796.74,366.47 L798.30,365.97 L802.18,363.20 L803.10,362.95 L803.84,363.45 L804.57,364.46 L805.31,367.73 L805.22,369.24 L804.85,372.77 L804.02,375.79 L801.53,382.08 L800.15,389.13 L799.59,394.66 L798.58,398.44 L797.93,401.46 L796.37,405.49 L793.42,408.76 L789.08,411.28 L783.18,416.31 L781.89,417.82 L779.03,420.09 L776.26,423.11 L773.96,426.88 L772.11,431.16 L769.99,435.19 L768.79,437.96 L766.95,440.98 L765.38,443.24 L760.95,448.28 L756.80,453.56 L754.03,455.58 L749.24,458.09 L745.27,461.11 L741.22,464.89 L735.96,470.68 L731.81,476.47 L729.50,481.00 L727.94,485.28 L726.74,490.31 L725.17,499.37 L723.78,505.16 L722.31,512.21 L721.76,514.22 L719.91,518.50 L717.88,522.28 L714.84,524.54 L714.10,525.55 L712.53,528.82 L711.52,532.34 L710.69,534.36 L698.70,551.72 L695.84,555.25 L692.70,559.53 L689.48,562.55 L685.05,565.82 L672.60,568.84 L668.63,569.59 L663.01,569.85 L662.18,570.10 L661.72,570.60 L660.89,578.66 L660.79,582.18 L660.61,583.44 L660.61,583.69 L662.64,591.24 L669.10,613.64 L670.02,616.41 L672.14,621.70 L672.14,622.20 L671.86,622.70 L669.19,623.71 L667.99,625.22 L667.53,628.24 L667.53,629.25 L667.16,630.25 L665.59,631.76 L660.70,636.29 L658.03,639.32 L653.69,642.84 L653.14,643.85 L649.82,646.61 L647.61,647.12 L646.32,646.87 L644.84,645.61 L641.34,639.82 L639.49,637.55 L636.54,632.02 L635.53,630.76 L632.21,625.72 L630.82,623.96 L630.18,623.96 L627.96,626.23 L626.49,627.23 L623.63,631.01 L620.03,633.27 L616.90,637.05 L614.41,639.06 L609.98,642.08 L607.58,643.34 L603.80,644.35 L598.08,644.60 L596.88,645.61 L596.33,646.87 L596.14,648.38 L595.87,648.88 L595.41,648.88 L594.58,648.63 L592.09,646.87 L589.97,645.86 L579.45,642.59 L570.05,640.57 L565.34,639.06 L561.19,638.81 L554.92,639.06 L551.42,638.31 L546.80,635.29 L546.53,634.78 L545.61,632.27 L544.31,631.26 L539.24,629.75 L537.58,630.00 L536.57,630.51 L533.71,634.53 L528.54,639.57 L523.47,640.83 L517.85,644.10 L515.82,645.86 L510.65,647.37 L507.61,649.89 L505.49,652.15 L504.66,653.91 L504.29,655.17 L504.29,656.68 L504.75,661.46 L504.47,663.73 L503.74,666.50 L502.81,668.51 L501.43,674.30 L500.05,677.57 L498.66,679.59 L498.29,680.34 L498.20,681.85 L498.85,686.13 L498.48,688.14 L497.92,689.40 L491.28,697.46 L489.16,701.99 L487.23,707.02 L485.75,709.04 L484.55,710.04 L482.06,711.30 L477.45,711.30 L475.15,711.55 L473.67,712.56 L472.84,713.57 L471.46,716.84 L468.69,725.40 L465.92,731.69 L457.81,742.26 L452.18,747.29 L450.43,749.06 L447.29,753.84 L446.92,755.10 L445.17,756.86 L443.14,759.63 L438.62,763.15 L437.43,765.42 L436.13,771.21 L436.13,771.71 L436.87,772.46 L441.48,774.98 L444.62,778.00 L445.45,779.26 L447.29,783.04 L448.86,788.57 L450.15,791.09 L451.90,793.86 L454.58,796.63 L456.52,797.89 L458.82,800.15 L460.57,802.16 L462.51,805.69 L465.55,808.96 L468.97,811.98 L471.92,813.99 L475.42,817.27 L480.03,823.31 L486.12,834.38 L490.82,838.41 L493.87,842.44 L502.35,851.75 L503.83,853.26 L508.16,855.78 L510.01,857.54 L511.02,858.80 L512.87,862.32 L514.34,864.84 L517.29,867.61 L520.61,869.62 L522.73,872.14 L523.66,873.65 L525.04,876.92 L526.24,878.43 L528.08,879.69 L532.05,881.45 L534.08,883.46 L535.09,884.72 L537.40,890.76 L538.78,892.78 L540.81,894.79 L545.14,896.80 L546.53,897.56 L547.36,898.57 L549.39,902.09 L551.14,904.10 L555.29,906.62 L556.40,905.86 L558.52,903.10 L559.25,902.59 L562.85,903.10 L565.07,902.09 L565.43,902.34 L567.37,903.85 L567.46,904.35 L567.19,906.37 L567.09,907.63 L567.28,909.14 L567.65,910.14 L569.68,911.65 L573.55,913.67 L574.75,914.42 L575.39,914.42 L576.41,912.91 L577.79,912.16 L579.36,910.65 L581.57,909.39 L587.29,907.37 L590.98,905.61 L599.10,901.08 L602.69,900.58 L607.77,901.08 L612.56,901.08 L613.39,901.59 L614.13,902.59 L617.82,910.40" fill="none" stroke="#fc4c02" stroke-width="2" />
</svg>