<svg xmlns="http://www.w3.org/2000/svg" viewBox="0 0 1000 1000">
  <path d="M943.12,65.18 L942.58,63.79 L941.41,62.53 L928.38,62.39 L924.95,63.09 L921.60,64.34 L914.91,66.44 L907.95,67.70 L905.60,68.82 L903.25,70.50 L902.79,70.64 L898.09,69.52 L894.57,67.98 L894.11,66.86 L894.02,66.02 L894.20,64.76 L892.94,63.93 L890.95,64.06 L888.24,63.93 L884.44,60.43 L879.10,57.21 L877.38,55.67 L868.16,49.66 L865.00,48.12 L855.05,41.68 L848.54,37.91 L845.47,36.37 L841.31,33.57 L835.61,30.91 L834.98,27.84 L834.25,27.42 L833.35,27.00 L830.09,26.86 L828.28,27.28 L827.29,28.26 L826.75,31.47 L826.20,32.59 L824.31,34.83 L819.51,39.45 L815.99,42.94 L812.46,46.02 L806.67,51.62 L802.42,55.25 L796.27,60.99 L793.38,64.06 L791.57,65.46 L789.22,66.72 L782.98,68.40 L781.35,68.96 L779.73,69.80 L778.46,71.20 L777.29,74.56 L776.20,76.23 L775.30,77.21 L768.24,82.81 L763.90,85.89 L755.31,93.02 L753.59,94.14 L750.70,95.40 L749.07,96.24 L746.99,98.20 L745.73,99.87 L745.09,101.83 L744.10,103.51 L727.55,118.90 L724.39,121.70 L719.41,125.47 L714.26,130.79 L711.37,133.31 L707.57,136.52 L703.14,139.88 L702.14,141.56 L701.24,144.36 L699.70,146.03 L695.81,149.53 L691.74,153.87 L690.30,154.99 L677.82,166.32 L675.29,168.28 L668.96,174.15 L650.69,189.40 L645.09,193.17 L638.85,198.49 L630.35,204.92 L624.20,209.82 L622.57,211.36 L619.13,213.74 L617.78,215.00 L614.79,216.95 L608.10,222.41 L600.78,227.86 L595.53,231.36 L592.01,234.02 L579.26,244.23 L575.73,247.31 L572.84,249.41 L554.93,264.09 L551.41,267.31 L545.35,272.07 L542.00,275.28 L539.74,277.10 L529.43,286.19 L526.99,287.87 L521.02,292.63 L519.31,293.47 L507.55,303.12 L504.66,305.78 L496.88,312.21 L493.17,315.01 L491.27,315.85 L484.94,319.49 L479.52,323.96 L477.08,325.64 L471.65,330.54 L470.11,332.21 L468.40,334.59 L467.13,335.99 L462.16,339.35 L458.27,342.57 L453.21,347.32 L449.50,351.10 L445.61,355.99 L441.72,361.87 L439.28,364.81 L435.57,370.82 L434.58,372.08 L432.86,374.88 L429.88,379.07 L424.99,387.05 L423.55,389.29 L423.00,389.84 L415.41,402.29 L413.24,405.65 L411.34,408.17 L408.17,413.20 L407.27,414.74 L406.19,418.38 L404.11,422.02 L401.75,424.95 L398.23,430.55 L395.61,434.19 L395.06,435.31 L389.00,445.10 L386.65,448.45 L383.04,454.33 L380.50,457.83 L377.70,462.30 L373.90,469.16 L371.82,473.49 L370.47,475.45 L368.30,479.23 L364.41,487.90 L358.26,498.67 L355.00,504.97 L351.93,511.96 L345.60,523.85 L343.97,527.91 L343.07,529.72 L337.73,539.10 L335.84,542.73 L330.50,551.13 L329.96,552.66 L328.42,555.46 L327.24,557.14 L325.35,560.36 L324.35,562.60 L321.28,568.47 L320.46,569.73 L317.21,576.16 L311.78,585.26 L304.73,595.33 L298.94,604.84 L294.24,612.25 L290.35,617.85 L288.27,621.35 L287.19,622.60 L285.20,625.96 L279.59,633.66 L273.53,642.75 L271.45,645.68 L269.83,647.78 L264.67,656.18 L261.69,660.23 L257.71,666.39 L253.01,671.28 L249.57,676.74 L246.41,680.93 L244.15,684.71 L242.88,686.39 L240.62,690.17 L237.18,694.92 L234.65,699.12 L232.21,703.73 L230.04,707.09 L223.35,717.02 L222.62,718.42 L215.75,728.21 L215.03,729.61 L212.23,733.81 L209.60,738.42 L204.81,745.84 L199.02,753.53 L197.12,756.61 L190.70,765.84 L186.82,771.86 L185.46,773.26 L184.10,775.49 L182.29,777.87 L180.12,781.65 L176.69,786.40 L172.80,791.30 L172.08,792.70 L168.10,798.71 L163.76,804.45 L161.32,808.50 L152.82,820.81 L151.19,822.63 L148.30,826.41 L145.40,831.58 L141.42,837.46 L129.31,853.97 L121.98,865.02 L118.55,869.63 L116.29,873.41 L107.70,886.70 L101.73,896.91 L96.48,904.18 L93.50,908.10 L89.61,913.55 L87.71,916.77 L78.13,929.92 L75.14,934.54 L71.80,939.29 L71.16,940.83 L69.81,942.93 L63.57,951.74 L60.95,955.80 L57.33,960.55 L53.98,964.05 L45.21,971.18 L35.54,977.06 L12.48,989.37 L9.40,990.49 L2.35,992.31 L0.54,993.85 L0.00,996.22 L0.09,998.04 L0.54,999.16 L1.72,1000.00 L3.98,999.86 L14.92,996.64 L25.95,991.61 L35.17,986.85 L40.33,982.93 L44.13,980.42 L49.46,975.52 L51.36,974.12 L53.35,972.30 L56.15,968.53 L57.51,966.15 L61.58,960.27 L63.93,956.22 L68.36,949.64 L69.90,947.68 L71.25,946.43 L72.52,944.75 L79.12,935.66 L79.39,933.84 L79.93,932.02 L81.74,928.66 L84.00,925.86 L83.64,925.44 L82.29,924.74 L83.73,921.81 L84.82,920.13 L87.35,916.35 L92.23,909.92 L99.56,898.87 L103.90,893.27 L106.07,889.50 L109.50,883.34 L113.57,877.05 L116.92,872.29 L118.55,869.35 L123.07,862.78 L126.41,858.86 L135.09,845.43 L139.25,839.42 L141.69,836.20 L143.14,834.66 L149.74,824.17 L153.54,818.72 L155.71,815.78 L158.69,812.28 L163.40,804.59 L167.28,798.85 L170.18,794.94 L173.89,789.20 L177.86,783.47 L181.39,777.87 L184.47,773.95 L188.44,768.50 L190.89,765.00 L192.78,761.78 L199.93,751.29 L202.01,747.94 L206.80,741.08 L209.60,737.45 L218.74,722.48 L224.61,713.95 L226.60,711.57 L227.78,709.75 L231.12,704.29 L243.24,685.69 L245.86,681.91 L249.03,676.74 L254.27,669.60 L257.26,666.67 L258.70,664.99 L263.50,657.01 L266.03,653.38 L269.55,647.92 L272.00,644.57 L278.69,633.93 L286.37,622.46 L292.61,612.81 L294.51,610.71 L296.14,608.48 L308.89,589.17 L315.58,578.26 L320.10,569.87 L326.07,557.98 L329.78,552.38 L330.59,550.43 L336.29,540.22 L344.52,524.13 L347.68,518.39 L352.65,508.04 L359.98,494.47 L360.79,492.52 L362.87,488.60 L368.84,476.57 L375.17,464.96 L380.59,456.29 L384.03,451.67 L386.38,447.62 L394.25,435.17 L395.42,433.91 L397.96,429.99 L400.49,425.79 L404.56,419.92 L406.28,416.70 L407.36,413.76 L409.62,409.71 L414.68,401.73 L421.74,391.66 L428.52,381.45 L435.39,369.98 L439.73,364.25 L443.89,358.23 L449.95,350.12 L454.92,345.08 L464.15,336.83 L468.22,333.61 L469.57,332.07 L477.35,324.52 L479.88,322.56 L484.04,318.79 L490.91,314.59 L493.44,312.77 L508.64,301.58 L518.67,293.75 L525.36,288.01 L539.74,276.40 L541.46,274.86 L544.81,271.23 L546.70,270.11 L562.17,257.10 L571.30,250.24 L577.72,244.65 L580.16,242.83 L589.84,234.16 L594.99,230.38 L600.60,227.30 L610.36,219.33 L623.29,209.40 L635.14,199.47 L639.75,196.39 L646.80,190.52 L655.12,184.36 L659.82,181.14 L664.16,177.79 L686.50,156.67 L689.48,154.29 L693.19,150.65 L697.53,147.01 L700.88,143.52 L701.96,141.84 L702.87,139.74 L704.40,138.06 L708.65,134.70 L712.81,130.79 L720.50,124.35 L735.33,110.64 L737.77,108.69 L741.48,105.33 L743.38,103.23 L744.82,101.13 L745.73,99.03 L746.81,97.36 L748.44,95.82 L751.06,94.14 L753.96,92.74 L759.65,87.42 L765.53,82.95 L770.23,79.73 L774.66,76.23 L776.56,74.42 L777.47,72.74 L778.19,70.64 L779.46,68.96 L782.08,67.42 L791.03,64.20 L795.82,60.71 L798.17,58.47 L805.95,50.64 L813.09,44.06 L817.25,39.73 L823.67,34.27 L825.66,32.17 L826.48,31.19 L827.02,30.35 L827.47,28.68 L827.11,27.00 L827.83,26.30 L829.28,25.60 L832.81,25.46 L835.61,26.02 L836.87,26.58 L839.32,24.34 L840.94,22.24 L842.84,20.42 L844.56,18.32 L854.06,10.21 L863.28,3.78 L868.98,0.70 L870.96,0.00 L871.51,0.14 L873.77,2.10 L874.76,3.50 L875.21,5.04 L875.76,5.46 L877.29,6.29 L879.46,7.83 L881.45,8.81 L883.08,8.81 L884.26,8.53 L887.06,6.99 L888.33,6.57 L889.41,6.57 L892.94,8.81 L894.57,10.21 L895.83,12.31 L897.01,13.71 L898.73,14.97 L900.26,15.81 L901.08,15.95 L903.43,15.11 L905.42,13.85 L907.41,13.15 L908.13,13.29 L908.94,14.13 L911.02,15.39 L913.55,15.67 L915.18,16.65 L920.34,20.84 L920.70,21.54 L922.51,23.36 L927.30,26.86 L932.81,29.93 L940.50,35.53 L942.13,38.05 L947.37,43.78 L949.27,45.60 L951.17,47.14 L953.88,48.82 L955.33,49.24 L957.14,50.78 L963.47,54.83 L965.46,56.65 L966.90,58.61 L968.98,60.29 L973.23,62.11 L976.22,62.95 L984.99,64.06 L991.23,63.93 L993.31,64.48 L996.38,66.30 L998.91,70.78 L999.19,73.58 L999.64,75.54 L999.73,79.59 L1000.00,81.69 L999.82,83.79 L999.19,85.61 L997.92,89.66 L997.74,91.90 L997.56,92.18 L995.75,94.42 L992.68,97.64 L990.14,99.59 L988.24,100.57 L984.09,101.55 L983.54,101.97 L982.91,104.07 L982.28,105.61 L980.56,107.85 L976.40,112.60 L973.87,112.60 L971.06,112.32 L967.90,111.62 L965.46,110.64 L963.83,109.53 L961.57,108.55 L957.41,107.15 L954.43,105.75 L951.17,103.23 L949.00,101.83 L947.10,100.99 L944.57,99.45 L940.50,98.06 L940.14,97.36 L940.41,96.80 L948.46,89.38" fill="none" stroke="#fc4c02" stroke-width="2" />
</svg>