<svg xmlns="http://www.w3.org/2000/svg" viewBox="0 0 1000 1000">
  <path d="M129.50,636.85 L130.32,625.00 L129.78,617.46 L128.96,613.15 L129.50,610.99 L129.23,606.68 L124.36,591.59 L122.46,580.82 L119.21,571.12 L117.58,568.97 L112.44,568.97 L104.31,571.12 L83.99,573.28 L69.36,577.59 L61.77,586.21 L60.15,585.13 L48.77,596.98 L46.33,596.98 L39.56,603.45 L37.66,603.45 L21.67,614.22 L20.05,619.61 L8.94,630.39 L8.13,628.23 L0.00,643.32 L2.98,649.78 L6.23,665.95 L7.86,669.18 L18.15,684.27 L23.30,696.12 L38.74,718.75 L49.85,743.53 L60.96,757.54 L63.40,764.01 L66.92,781.25 L72.34,794.18 L87.78,814.66 L97.81,836.21 L105.66,843.75 L117.04,849.14 L123.54,856.68 L128.96,867.46 L140.34,880.39 L149.55,898.71 L171.77,923.49 L185.59,942.89 L195.61,952.59 L213.76,964.44 L229.21,970.91 L241.13,984.91 L252.78,982.76 L258.20,983.84 L287.46,997.84 L299.65,993.53 L311.03,992.46 L317.80,993.53 L327.55,1000.00 L334.06,997.84 L341.10,991.38 L350.31,987.07 L370.36,988.15 L374.97,984.91 L382.01,976.29 L386.62,974.14 L396.10,974.14 L408.83,981.68 L421.02,982.76 L430.78,978.45 L441.89,967.67 L446.22,964.44 L455.43,962.28 L470.88,963.36 L489.30,954.74 L493.90,954.74 L511.24,963.36 L524.52,963.36 L532.11,959.05 L549.17,943.97 L568.14,942.89 L578.16,937.50 L587.37,935.34 L607.69,937.50 L617.18,933.19 L630.99,922.41 L645.08,906.25 L663.23,893.32 L669.74,883.62 L677.05,870.69 L687.89,842.67 L692.50,835.13 L697.64,825.43 L709.83,796.34 L726.63,750.00 L733.95,724.14 L746.95,696.12 L754.81,674.57 L755.62,673.49 L761.31,656.25 L765.38,651.94 L769.17,644.40 L774.04,628.23 L778.65,614.22 L784.61,600.22 L790.03,592.67 L800.87,568.97 L812.25,547.41 L821.19,517.24 L823.90,504.31 L825.25,501.08 L827.15,498.92 L832.29,482.76 L842.59,461.21 L858.85,433.19 L865.62,420.26 L866.70,418.10 L867.79,419.18 L869.68,417.03 L884.04,377.16 L887.84,368.53 L896.51,356.68 L904.36,340.52 L911.95,317.89 L919.80,298.49 L928.75,281.25 L946.90,253.23 L954.75,238.15 L960.72,223.06 L970.20,192.89 L974.80,182.11 L981.03,169.18 L993.23,155.17 L997.29,146.55 L1000.00,136.85 L999.46,133.62 L984.83,129.31 L963.70,125.00 L950.15,119.61 L949.07,117.46 L948.79,112.07 L951.77,92.67 L953.13,73.28 L953.13,61.42 L954.75,29.09 L954.48,9.70 L955.03,5.39 L955.03,3.23 L954.21,1.08 L948.79,0.00 L946.36,2.16 L943.92,7.54 L939.58,8.62 L930.64,7.54 L910.59,9.70 L899.76,6.47 L888.65,8.62 L864.81,5.39 L857.49,5.39" fill="none" stroke="#fc4c02" stroke-width="2" />
</svg>