<svg xmlns="http://www.w3.org/2000/svg" viewBox="0 0 1000 1000">
  <path d="M154.89,739.71 L150.57,735.29 L148.21,734.56 L123.48,746.32 L119.36,738.24 L110.13,729.41 L101.10,715.44 L90.50,690.44 L78.72,672.06 L61.84,650.74 L50.26,630.88 L32.98,611.76 L24.34,591.18 L18.45,562.50 L0.00,542.65 L0.00,540.44 L1.18,522.06 L3.73,513.97 L5.89,509.56 L33.77,462.50 L43.19,453.68 L47.90,446.32 L59.29,432.35 L59.29,430.15 L66.94,406.62 L68.90,397.79 L71.65,389.71 L74.79,376.47 L86.38,369.12 L91.48,368.38 L100.90,371.32 L106.01,367.65 L110.33,361.76 L113.27,354.41 L116.22,341.91 L119.95,329.41 L123.67,319.12 L127.99,313.97 L133.49,303.68 L136.44,292.65 L135.65,282.35 L136.44,273.53 L138.40,267.65 L142.13,261.03 L143.11,257.35 L146.05,239.71 L149.00,225.74 L148.61,208.82 L149.20,200.00 L152.73,191.18 L159.01,183.09 L164.70,178.68 L176.29,173.53 L187.08,162.50 L193.76,159.56 L199.84,158.82 L208.09,153.68 L214.96,138.24 L219.87,129.41 L223.20,127.94 L225.56,128.68 L233.22,134.56 L238.32,140.44 L240.48,146.32 L247.55,155.15 L254.42,161.76 L259.13,163.24 L261.88,160.29 L272.48,157.35 L276.60,157.35 L293.09,163.24 L299.37,166.18 L305.26,170.59 L317.63,175.74 L326.07,177.21 L345.70,186.76 L349.63,180.88 L365.53,174.26 L386.14,160.29 L391.24,152.94 L399.69,136.03 L407.73,125.00 L412.84,114.71 L419.12,110.29 L426.19,109.56 L438.36,94.85 L440.32,93.38 L455.63,99.26 L462.31,97.79 L467.41,92.65 L473.89,90.44 L480.96,91.91 L486.45,90.44 L501.77,75.00 L510.99,67.65 L514.33,65.44 L519.63,65.44 L531.80,60.29 L541.62,58.82 L550.84,53.68 L563.21,44.85 L582.45,33.82 L617.20,13.97 L634.47,5.88 L645.27,2.21 L657.05,0.00 L673.54,0.74 L681.59,3.68 L679.82,13.97 L676.87,20.59 L676.29,23.53 L676.48,26.47 L675.70,31.62 L674.91,33.82 L674.52,33.09 L672.95,57.35 L672.75,71.32 L673.73,75.00 L673.93,77.21 L673.54,81.62 L673.54,93.38 L672.95,99.26 L674.13,105.15 L673.73,129.41 L675.11,134.56 L679.62,137.50 L695.33,141.91 L700.82,144.85 L716.92,149.26 L725.95,148.53 L728.70,150.00 L734.79,152.21 L736.16,156.62 L739.50,155.15 L742.25,152.21 L753.83,152.21 L765.61,155.15 L771.50,155.15 L775.62,158.09 L777.78,156.62 L780.72,161.03 L796.23,158.09 L802.32,154.41 L805.85,154.41 L807.42,152.94 L808.79,154.41 L811.15,153.68 L835.89,144.12 L855.71,139.71 L864.35,130.88 L893.01,116.91 L900.86,109.56 L912.25,102.21 L915.00,102.94 L924.22,100.00 L925.80,107.35 L926.58,109.56 L928.74,110.29 L951.32,90.44 L977.42,75.00 L990.38,76.47 L991.95,79.41 L992.34,88.97 L994.11,96.32 L996.66,110.29 L996.66,119.85 L1000.00,161.76 L999.41,187.50 L1000.00,202.94 L997.84,222.06 L995.68,246.32 L994.90,252.94 L994.50,260.29 L994.90,300.74 L995.09,311.03 L996.07,324.26 L996.07,335.29 L995.09,341.18 L994.11,352.21 L993.13,369.85 L993.33,372.79 L992.34,393.38 L992.74,400.74 L992.54,408.09 L993.33,417.65 L992.54,433.09 L991.95,438.24 L994.70,460.29 L994.31,466.18 L995.09,471.32 L995.09,474.26 L993.72,485.29 L992.93,497.06 L991.76,537.50 L990.77,547.79 L990.38,559.56 L990.58,562.50 L989.20,587.50 L989.99,588.97 L989.99,588.24 L988.81,585.29 L983.71,613.97 L980.96,633.09 L978.01,639.71 L971.73,642.65 L969.38,646.32 L964.47,650.74 L956.81,664.71 L950.92,673.53 L928.94,691.91 L920.30,694.12 L911.46,692.65 L901.65,693.38 L892.42,690.44 L886.34,690.44 L880.84,691.91 L860.03,686.76 L839.03,686.03 L821.55,700.00 L794.46,712.50 L782.10,721.32 L778.37,726.47 L768.75,733.09 L765.80,737.50 L759.32,741.18 L746.17,742.65 L742.64,749.26 L741.66,759.56 L741.26,773.53 L739.50,791.18 L740.09,808.09 L739.89,815.44 L738.91,822.06 L738.12,833.09 L738.12,838.97 L737.53,846.32 L737.73,858.09 L736.55,888.97 L738.12,897.06 L738.91,905.88 L738.32,916.91 L737.14,930.15 L737.14,931.62 L736.16,942.65 L734.98,947.79 L734.20,948.53 L712.80,955.88 L705.93,956.62 L698.47,953.68 L694.54,950.74 L684.73,947.79 L667.06,956.62 L658.81,957.35 L647.62,955.88 L632.90,957.35 L625.05,960.29 L604.83,962.50 L595.80,959.56 L593.44,955.88 L591.87,951.47 L590.69,943.38 L586.97,942.65 L584.81,949.26 L582.65,952.94 L575.19,958.09 L572.24,959.56 L571.46,961.03 L570.67,966.91 L569.49,971.32 L568.51,973.53 L564.98,977.21 L558.50,986.76 L546.33,1000.00 L542.21,994.12 L540.24,987.50 L538.08,981.62 L537.10,980.88 L511.19,978.68 L493.72,978.68 L487.63,974.26 L478.41,965.44 L470.55,964.71" fill="none" stroke="#fc4c02" stroke-width="2" />
</svg>