<svg xmlns="http://www.w3.org/2000/svg" viewBox="0 0 1000 1000">
  <path d="M487.51,295.24 L461.54,302.38 L409.59,300.00 L375.62,292.86 L295.70,266.67 L275.72,254.76 L267.73,257.14 L220.78,238.10 L184.82,242.86 L163.84,242.86 L149.85,269.05 L134.87,290.48 L131.87,300.00 L103.90,345.24 L52.95,435.71 L47.95,452.38 L47.95,464.29 L40.96,476.19 L22.98,497.62 L0.00,542.86 L32.97,561.90 L97.90,566.67 L121.88,573.81 L147.85,573.81 L174.83,583.33 L266.73,592.86 L289.71,616.67 L289.71,626.19 L275.72,716.67 L274.73,726.19 L276.72,730.95 L283.72,733.33 L283.72,735.71 L274.73,740.48 L266.73,759.52 L257.74,809.52 L255.74,830.95 L244.76,885.71 L250.75,897.62 L254.75,914.29 L258.74,919.05 L296.70,921.43 L364.64,935.71 L472.53,947.62 L530.47,961.90 L693.31,983.33 L777.22,1000.00 L805.19,997.62 L818.18,990.48 L825.17,983.33 L830.17,969.05 L862.14,928.57 L889.11,890.48 L917.08,838.10 L924.08,821.43 L926.07,814.29 L944.06,776.19 L962.04,730.95 L973.03,692.86 L980.02,664.29 L989.01,611.90 L998.00,580.95 L1000.00,561.90 L999.00,535.71 L999.00,500.00 L997.00,490.48 L990.01,480.95 L990.01,471.43 L1000.00,452.38 L992.01,340.48 L989.01,328.57 L983.02,321.43 L985.01,311.90 L985.01,300.00 L980.02,285.71 L973.03,247.62 L965.03,223.81 L960.04,216.67 L952.05,180.95 L931.07,126.19 L908.09,88.10 L901.10,69.05 L885.11,35.71 L871.13,26.19 L858.14,0.00" fill="none" stroke="#fc4c02" stroke-width="2" />
</svg>