<svg xmlns="http://www.w3.org/2000/svg" viewBox="0 0 1000 1000">
  <path d="M562.09,58.43 L547.57,61.54 L532.44,65.69 L521.78,67.34 L509.42,68.38 L490.27,67.76 L475.59,68.17 L468.80,67.97 L461.38,66.10 L450.26,66.31 L447.95,66.93 L444.55,70.45 L443.16,71.49 L436.52,71.28 L428.48,69.83 L421.07,67.34 L418.13,66.72 L371.79,63.61 L352.02,63.20 L345.38,62.37 L341.21,60.30 L324.07,49.32 L320.51,46.21 L313.41,38.13 L311.24,35.85 L310.78,35.64 L303.68,38.54 L303.83,40.20 L303.06,41.03 L302.90,41.65 L302.44,42.06 L301.98,43.10 L301.98,44.14 L301.51,45.38 L301.20,47.24 L302.44,50.15 L302.29,51.18 L303.99,52.84 L305.22,55.12 L306.61,56.57 L306.30,57.60 L305.22,58.64 L304.76,59.88 L306.15,64.03 L305.68,66.93 L307.38,70.87 L307.23,74.18 L313.10,77.50 L318.20,78.95 L321.44,81.85 L328.85,84.75 L330.40,86.61 L332.72,88.48 L332.87,89.31 L334.26,90.97 L334.72,92.62 L334.57,94.28 L336.89,98.84 L338.89,103.61 L339.20,105.06 L339.20,106.30 L338.28,109.82 L337.19,111.69 L336.42,113.97 L335.96,114.79 L334.57,115.62 L331.63,118.94 L327.62,121.43 L320.98,124.53 L308.62,128.06 L300.90,128.06 L270.16,125.16 L260.58,125.36 L246.52,127.02 L225.36,130.54 L220.57,130.75 L213.62,129.51 L196.17,124.74 L162.65,116.87 L156.16,114.59 L143.34,107.75 L141.80,106.51 L141.03,103.81 L140.25,102.98 L127.12,100.29 L125.58,99.67 L125.42,99.25 L125.73,98.43 L127.12,95.94 L127.74,92.00 L128.36,89.31 L126.66,83.30 L125.42,80.81 L123.26,78.95 L122.64,77.50 L122.95,76.46 L124.19,74.80 L124.65,73.77 L124.50,73.35 L124.03,71.69 L122.03,68.79 L118.63,66.31 L115.69,65.06 L112.14,64.65 L108.43,65.27 L105.34,66.31 L101.48,69.00 L98.55,71.90 L96.85,74.18 L96.54,75.22 L92.37,82.26 L91.13,83.09 L82.33,83.09 L80.48,82.68 L78.16,81.64 L77.08,80.81 L76.15,79.36 L76.15,75.01 L76.77,71.49 L77.39,68.59 L77.85,67.14 L79.39,63.20 L79.70,61.33 L78.62,59.06 L77.08,57.60 L74.30,56.98 L71.21,57.19 L68.43,58.02 L66.42,59.26 L64.72,62.78 L60.86,75.22 L60.70,77.08 L61.32,78.53 L63.18,80.19 L66.88,81.85 L67.19,82.26 L67.04,83.09 L53.75,90.97 L42.94,96.97 L42.63,97.60 L37.07,104.23 L31.97,108.58 L28.27,112.72 L26.41,116.04 L25.33,119.15 L24.56,120.39 L22.71,121.01 L18.84,123.91 L15.76,125.16 L11.58,127.43 L11.12,127.85 L10.50,128.89 L11.12,131.79 L11.89,133.03 L13.13,133.86 L16.06,134.89 L16.37,135.31 L17.15,136.97 L18.23,140.49 L20.23,141.94 L23.63,143.60 L25.02,145.67 L30.27,151.26 L31.67,156.24 L32.28,159.97 L33.21,163.08 L35.37,167.43 L38.31,171.78 L38.46,172.61 L38.92,173.44 L40.93,175.92 L42.79,178.82 L44.49,182.55 L44.95,185.66 L45.57,187.11 L46.80,188.35 L47.27,189.39 L47.27,190.63 L46.65,192.08 L45.41,193.33 L39.23,197.06 L35.99,199.54 L25.33,209.90 L24.71,213.43 L24.71,214.05 L25.80,215.91 L25.80,216.54 L25.18,218.61 L24.71,219.64 L21.47,223.17 L21.01,224.00 L17.30,228.76 L15.76,231.25 L14.52,235.60 L12.20,239.74 L11.74,240.99 L11.74,242.44 L12.05,246.58 L12.05,249.07 L11.43,251.14 L10.81,251.97 L8.80,253.42 L6.64,254.46 L2.78,255.49 L1.08,256.53 L1.24,257.77 L2.63,259.01 L2.78,260.05 L2.63,261.09 L0.00,263.78 L0.15,264.40 L0.00,265.23 L0.00,267.51 L1.24,268.96 L1.08,270.20 L1.39,271.24 L2.63,272.28 L5.10,273.73 L10.04,275.59 L15.29,278.49 L19.00,279.94 L21.01,282.22 L21.78,285.33 L22.40,286.78 L22.55,289.89 L22.24,292.79 L21.78,294.24 L19.77,296.31 L19.31,297.76 L19.15,299.21 L20.39,301.70 L19.93,302.53 L18.23,305.22 L16.53,306.88 L14.83,309.57 L14.83,310.19 L14.21,312.47 L14.52,313.51 L13.90,315.17 L14.21,317.03 L14.98,318.48 L16.84,320.14 L17.76,322.42 L19.93,324.08 L23.02,328.01 L23.17,328.43 L23.02,329.47 L23.48,330.71 L26.72,333.20 L26.88,333.82 L26.72,334.23 L26.88,334.65 L28.88,335.89 L32.28,338.79 L34.14,341.48 L34.75,342.93 L34.75,345.63 L35.68,347.49 L35.22,349.56 L37.53,352.05 L37.53,352.88 L37.23,353.92 L35.84,354.95 L35.84,355.37 L36.61,356.20 L37.07,357.65 L37.69,360.13 L37.23,360.75 L38.92,363.86 L39.23,365.31 L40.47,367.80 L40.62,368.84 L41.86,370.29 L41.71,370.70 L42.01,372.15 L43.87,374.02 L44.02,375.47 L47.11,380.02 L48.50,382.93 L48.97,384.38 L48.81,385.21 L49.12,386.03 L48.97,386.45 L46.49,389.35 L46.03,390.39 L46.18,390.80 L49.58,394.32 L51.75,396.19 L53.60,398.26 L54.68,399.30 L55.14,400.95 L54.83,401.78 L53.14,402.40 L52.67,402.82 L52.52,403.23 L54.53,405.93 L55.30,407.17 L57.00,408.62 L57.15,409.24 L57.15,410.48 L57.62,411.31 L60.55,412.76 L60.86,413.59 L62.56,416.08 L62.71,417.12 L62.40,418.36 L62.09,418.98 L62.25,420.02 L61.94,421.05 L62.09,421.67 L60.86,423.95 L61.17,424.16 L60.70,425.20 L60.55,428.93 L62.09,430.58 L63.18,432.86 L65.18,433.49 L69.05,436.59 L69.35,438.46 L68.58,439.49 L69.66,441.98 L69.66,442.81 L69.51,443.85 L69.66,445.30 L70.28,446.13 L69.66,447.78 L68.89,448.82 L68.74,449.23 L69.05,450.27 L67.35,453.58 L67.35,455.45 L67.96,456.90 L68.89,457.52 L68.89,457.94 L68.74,458.56 L68.89,460.01 L69.51,461.25 L70.13,462.08 L70.44,462.70 L70.59,464.15 L71.36,465.60 L73.52,468.09 L74.61,468.71 L74.76,469.33 L76.00,470.16 L77.08,471.20 L78.16,474.10 L77.23,476.38 L76.77,476.79 L76.61,478.24 L77.39,479.49 L80.78,482.80 L80.78,483.42 L82.95,484.25 L82.95,487.36 L83.72,489.43 L83.72,490.88 L84.49,492.13 L84.18,493.16 L84.65,493.78 L84.80,495.23 L84.49,497.72 L83.41,500.62 L83.57,501.66 L83.10,502.49 L83.72,505.39 L83.41,506.22 L83.72,506.84 L83.10,508.91 L82.95,510.15 L84.03,511.60 L85.57,516.16 L84.65,518.44 L84.03,524.04 L84.49,525.69 L86.04,528.80 L86.50,531.70 L86.04,533.15 L85.42,534.19 L85.42,534.60 L84.34,536.47 L85.11,538.96 L85.26,541.03 L85.11,541.44 L83.57,543.51 L83.41,547.04 L82.79,548.07 L82.95,548.90 L85.73,551.18 L85.88,553.46 L86.35,553.87 L88.51,555.33 L90.67,555.74 L91.91,556.57 L95.92,560.09 L104.73,565.89 L106.58,567.97 L109.98,568.79 L112.45,570.87 L114.15,571.69 L116.47,575.84 L116.31,576.46 L116.62,577.91 L118.78,579.98 L122.49,581.85 L123.88,583.51 L125.42,584.54 L125.73,585.37 L125.73,586.61 L126.35,587.24 L126.35,588.06 L126.81,588.89 L127.90,589.93 L132.53,591.59 L134.23,593.04 L135.46,594.90 L136.08,596.56 L137.78,598.63 L137.78,599.46 L137.16,600.70 L136.70,602.98 L137.01,604.23 L136.86,607.75 L137.16,608.99 L138.86,611.07 L141.03,612.52 L142.11,613.97 L143.34,616.45 L146.43,618.52 L149.52,619.98 L151.37,621.63 L154.77,622.88 L157.09,624.95 L157.86,625.36 L159.10,626.81 L161.57,628.47 L162.03,629.71 L163.42,631.99 L164.81,634.89 L169.76,638.62 L178.41,640.49 L182.73,641.11 L186.13,643.18 L188.91,645.67 L190.15,647.74 L190.76,648.16 L192.46,649.19 L194.01,649.61 L194.32,650.02 L194.16,650.44 L194.93,651.26 L195.40,652.92 L195.24,654.58 L195.40,657.48 L193.54,659.76 L193.85,660.80 L194.62,662.04 L194.62,662.87 L200.19,665.56 L204.36,666.39 L207.75,668.05 L209.61,669.29 L210.69,670.33 L216.87,673.64 L222.58,677.17 L225.36,680.48 L226.14,682.14 L228.76,684.21 L231.39,687.53 L233.24,688.98 L234.32,690.84 L237.10,692.71 L244.21,698.30 L251.93,703.69 L259.19,709.49 L264.13,710.94 L270.62,713.43 L274.17,713.84 L275.25,714.46 L275.87,715.91 L279.73,716.54 L287.92,720.27 L291.32,723.17 L293.17,729.80 L292.86,733.53 L294.10,735.60 L295.03,736.22 L296.26,736.84 L299.97,737.05 L305.84,736.63 L313.25,734.15 L320.98,733.53 L329.94,734.15 L332.87,735.18 L334.72,735.39 L337.66,736.63 L338.74,737.67 L339.82,737.67 L341.06,738.50 L342.76,738.50 L346.77,740.36 L350.32,741.40 L354.49,744.09 L357.12,744.51 L359.59,745.54 L360.52,747.41 L361.29,748.03 L362.53,750.10 L366.08,754.04 L366.70,754.87 L367.78,755.70 L368.24,756.32 L369.17,756.94 L371.02,758.81 L372.72,762.95 L372.88,763.78 L372.26,764.61 L372.26,765.44 L371.49,767.92 L371.64,768.55 L370.87,770.82 L370.71,771.03 L368.86,771.86 L368.71,772.07 L368.71,773.10 L369.94,775.18 L370.10,777.04 L369.32,778.08 L369.17,778.91 L370.25,780.15 L370.25,781.39 L375.35,782.84 L378.13,786.57 L379.83,789.06 L379.36,789.89 L379.52,791.75 L380.14,792.58 L384.92,795.69 L388.01,800.04 L392.65,803.36 L394.04,806.05 L396.05,812.47 L396.82,813.72 L397.28,814.96 L396.66,823.87 L397.13,825.53 L396.66,827.60 L394.96,829.26 L394.19,831.54 L394.81,832.99 L395.58,833.82 L398.83,835.89 L396.97,837.55 L395.89,837.96 L394.04,840.24 L394.19,841.48 L394.50,842.11 L394.04,843.35 L394.35,844.59 L394.19,845.84 L394.81,850.39 L394.66,852.26 L394.04,853.71 L393.27,854.54 L389.09,857.02 L387.86,858.27 L384.46,858.47 L377.51,857.44 L371.33,856.82 L361.91,858.27 L358.36,858.27 L353.41,857.44 L345.69,857.23 L339.20,855.78 L330.71,855.57 L328.54,856.20 L323.29,856.20 L318.66,855.37 L314.18,855.78 L304.91,854.75 L295.34,855.37 L290.86,856.20 L287.61,857.23 L284.83,858.68 L283.29,860.96 L280.20,862.83 L275.25,865.11 L274.02,865.93 L271.70,866.76 L269.85,867.80 L269.85,868.01 L269.08,868.42 L269.08,869.04 L268.46,869.87 L265.52,871.11 L265.06,872.15 L263.67,873.39 L262.59,874.84 L262.13,875.88 L260.89,877.12 L260.43,877.95 L260.58,878.57 L263.67,880.65 L265.06,881.06 L265.52,881.68 L270.00,881.68 L274.17,882.51 L283.75,882.51 L284.99,882.72 L284.83,883.13 L284.37,883.75 L279.58,885.62 L275.10,888.31 L272.01,888.93 L266.91,891.42 L262.59,892.46 L260.89,893.49 L252.86,896.19 L251.62,897.22 L249.61,897.64 L246.06,897.43 L244.83,898.26 L243.13,898.67 L240.96,899.71 L239.57,900.12 L235.56,900.33 L231.54,901.57 L225.98,900.33 L220.11,899.92 L211.15,900.95 L207.14,901.57 L201.27,901.99 L192.00,903.85 L188.91,905.10 L187.21,906.13 L186.44,906.96 L184.58,908.21 L181.34,909.45 L178.25,911.31 L175.47,913.80 L173.77,915.46 L172.07,918.36 L169.76,920.43 L168.37,922.50 L166.67,924.37 L161.88,936.18 L154.77,939.08 L153.54,939.91 L150.60,944.05 L150.29,945.50 L150.45,946.95 L152.15,949.85 L154.77,952.96 L156.47,954.00 L169.14,958.97 L175.93,960.63 L176.24,961.25 L176.24,962.08 L179.18,965.60 L182.73,967.05 L183.81,968.50 L183.81,969.13 L184.12,969.54 L185.36,970.78 L187.06,974.31 L189.99,976.79 L191.84,978.66 L191.84,979.69 L194.16,981.97 L195.09,984.25 L194.62,985.70 L194.62,986.53 L195.24,987.77 L201.73,992.95 L203.89,993.99 L206.21,995.44 L213.93,996.06 L216.71,996.48 L222.89,996.27 L231.70,997.10 L238.80,996.27 L248.22,997.93 L250.39,998.55 L262.43,998.55 L275.56,1000.00 L281.28,999.17 L283.60,998.34 L289.62,996.27 L292.86,994.41 L296.88,991.09 L297.65,989.64 L297.65,988.40 L298.12,986.74 L299.51,985.91 L301.36,983.22 L303.37,981.77 L306.77,978.04 L308.93,974.93 L310.01,974.10 L310.78,970.99 L311.71,969.54 L312.64,966.02 L312.64,963.53 L313.10,961.67 L312.64,961.25 L313.25,961.25 L316.96,957.52 L321.90,955.66 L322.68,954.83 L326.69,952.76 L328.08,951.10 L329.16,948.82 L331.33,945.92 L331.48,944.88 L332.56,943.02 L332.72,941.98 L333.18,940.94 L333.02,939.29 L334.72,936.59 L335.03,934.11 L334.88,933.49 L335.34,932.66 L335.65,930.38 L336.11,929.34 L338.43,926.44 L340.75,924.37 L342.60,923.12 L344.30,922.30 L348.63,920.64 L351.25,918.98 L351.87,917.94 L352.33,916.49 L354.49,914.21 L355.42,912.35 L355.58,911.31 L356.35,908.41 L358.05,907.38 L359.90,905.10 L359.90,904.06 L360.98,903.03 L360.83,901.57 L361.60,900.95 L362.06,899.50 L362.68,899.30 L363.45,898.26 L368.55,895.77 L376.89,894.74 L381.22,893.29 L381.99,891.63 L383.38,890.39 L385.08,887.28 L387.09,885.62 L387.24,884.79 L386.78,883.13 L386.78,881.68 L387.09,881.48 L390.02,879.40 L392.80,878.57 L395.89,877.33 L399.91,874.43 L402.69,871.94 L403.00,871.32 L403.15,869.87 L405.31,864.69 L408.56,860.34 L412.57,853.71 L415.51,848.11 L418.29,842.11 L420.76,835.89 L421.84,831.74 L423.39,826.36 L424.78,819.73 L424.93,816.62 L425.08,816.00 L424.93,814.34 L425.24,812.47 L425.70,811.65 L425.24,809.99 L425.70,805.43 L425.70,803.56 L424.16,801.49 L423.85,800.46 L422.92,799.42 L422.00,796.31 L418.60,790.72 L417.21,788.85 L416.13,786.16 L414.74,784.50 L413.96,782.43 L412.57,779.73 L410.57,777.04 L409.79,775.18 L407.32,770.62 L399.60,755.49 L397.13,751.76 L395.89,748.65 L394.96,747.41 L392.80,743.06 L392.18,740.78 L391.57,739.95 L389.40,734.77 L388.48,733.11 L387.55,730.42 L385.85,727.10 L383.53,720.89 L382.14,718.61 L381.06,716.95 L377.82,709.08 L373.65,700.58 L371.64,695.40 L368.09,691.67 L367.78,691.26 L368.40,688.98 L367.93,686.49 L366.70,683.38 L364.84,680.07 L364.69,678.82 L362.53,674.89 L361.91,673.02 L361.45,672.61 L360.83,669.29 L360.36,668.26 L357.74,654.58 L355.42,645.67 L354.80,642.35 L351.87,629.09 L351.71,626.19 L350.48,622.67 L350.48,621.01 L348.93,616.25 L349.09,615.00 L348.63,612.52 L348.63,607.13 L348.32,603.40 L348.01,601.95 L347.85,598.63 L347.39,596.35 L347.54,594.49 L346.77,582.68 L346.93,579.98 L348.63,573.35 L353.72,562.99 L363.61,544.76 L371.95,530.87 L382.76,516.16 L389.25,507.67 L390.95,505.80 L391.72,505.39 L391.26,505.39 L401.61,492.33 L403.46,489.23 L405.78,486.95 L409.33,482.39 L418.75,469.33 L422.00,466.64 L423.39,466.02 L440.99,464.36 L469.88,470.99 L473.12,471.40 L481.46,473.48 L487.80,474.51 L490.11,475.34 L497.22,476.38 L506.80,478.45 L510.66,479.28 L514.21,480.73 L520.23,481.77 L526.41,482.39 L529.19,483.01 L540.16,484.25 L545.57,485.91 L563.64,489.02 L601.64,496.27 L612.76,498.76 L616.16,499.17 L617.70,498.76 L636.70,490.68 L643.03,486.95 L644.89,485.50 L649.52,484.04 L654.16,481.14 L667.28,478.66 L671.92,476.17 L675.93,473.27 L677.63,471.82 L678.87,470.16 L681.50,467.47 L682.11,466.64 L689.53,461.46 L693.08,459.59 L702.50,456.90 L718.41,455.24 L719.96,455.24 L723.82,456.69 L732.00,457.31 L748.69,455.45 L752.55,455.45 L760.58,457.11 L767.38,459.18 L772.78,461.46 L774.95,463.95 L779.12,466.64 L784.52,468.30 L792.86,469.33 L815.72,469.75 L819.59,469.33 L824.07,468.09 L836.73,463.53 L845.69,459.18 L859.13,450.48 L866.70,445.09 L871.79,440.74 L879.36,433.90 L886.93,427.68 L902.38,413.39 L905.78,409.03 L907.94,405.30 L911.03,395.77 L910.87,394.12 L911.96,390.39 L918.29,387.69 L919.99,385.83 L920.45,383.96 L920.14,382.30 L920.45,381.48 L920.30,379.61 L920.61,378.57 L920.30,375.67 L919.99,374.84 L919.99,373.39 L920.61,371.74 L919.99,369.87 L920.14,368.84 L919.83,367.38 L919.99,365.11 L919.68,363.45 L916.90,354.75 L917.21,352.05 L917.83,350.60 L917.67,349.36 L918.29,347.29 L918.29,346.25 L919.22,342.31 L919.22,340.65 L918.44,337.34 L924.78,329.67 L933.89,321.80 L940.69,314.34 L945.63,311.23 L949.80,307.50 L949.80,304.81 L950.57,304.19 L950.88,302.32 L950.42,301.70 L950.88,300.04 L950.57,299.42 L950.88,299.01 L951.19,297.55 L951.81,296.73 L952.27,295.28 L951.96,295.28 L951.81,294.65 L951.03,293.62 L951.34,291.55 L951.96,290.30 L956.29,285.33 L957.06,283.67 L957.99,282.84 L959.53,279.94 L960.30,278.08 L960.46,276.83 L959.84,273.10 L957.68,267.30 L957.21,263.78 L956.75,262.74 L956.44,260.88 L955.51,259.64 L953.51,258.39 L952.27,256.94 L950.26,255.08 L949.95,254.66 L949.95,252.80 L950.88,250.73 L951.65,247.20 L951.50,246.17 L950.26,243.27 L948.10,241.19 L947.79,241.19 L944.39,238.50 L943.78,237.05 L943.78,234.98 L943.16,233.53 L941.77,232.28 L940.53,232.08 L940.53,231.66 L939.76,230.83 L939.60,230.00 L934.51,225.03 L933.43,223.17 L930.03,221.51 L923.39,219.23 L919.99,218.61 L911.65,218.40 L908.40,219.02 L898.83,218.81 L890.02,220.27 L887.55,220.27 L871.64,222.96 L869.63,223.79 L867.32,225.24 L861.75,227.10 L861.75,227.52 L858.82,228.76 L854.49,229.80 L851.41,230.00 L845.54,231.45 L840.13,231.87 L838.74,231.45 L838.59,231.04 L839.20,230.42 L843.06,229.59 L846.31,228.35 L856.04,221.92 L865.77,216.12 L873.96,209.49 L874.73,208.45 L876.43,204.93 L877.82,203.48 L881.37,200.99 L884.92,199.34 L888.94,197.89 L900.68,196.02 L902.07,195.61 L903.31,194.57 L903.92,193.74 L903.61,192.71 L902.53,191.46 L897.74,188.56 L896.35,187.32 L895.27,185.25 L895.12,184.42 L895.12,182.76 L895.58,181.52 L896.82,178.62 L902.69,170.95 L904.08,168.26 L904.23,166.60 L902.38,157.89 L900.22,150.64 L898.83,147.95 L895.58,144.84 L886.93,138.21 L882.92,134.69 L878.44,129.30 L874.11,122.46 L870.87,118.32 L868.40,115.83 L864.07,113.34 L853.72,109.82 L848.93,106.71 L847.24,104.85 L844.45,100.29 L841.52,96.77 L840.90,95.52 L841.06,94.90 L842.14,94.07 L864.69,86.20 L875.66,83.09 L883.69,82.47 L888.17,82.68 L905.93,84.96 L910.72,84.96 L916.43,84.54 L946.25,80.19 L987.03,73.56 L997.37,70.66 L999.23,69.42 L999.69,69.00 L1000.00,67.97 L998.92,63.41 L998.61,60.09 L996.76,54.91 L996.14,51.39 L994.28,46.42 L993.51,43.72 L992.43,42.27 L987.95,37.92 L985.33,34.19 L983.47,32.32 L981.93,29.42 L979.46,27.97 L978.38,28.60 L975.90,29.01 L974.05,28.80 L973.12,27.97 L971.89,27.35 L971.42,26.52 L969.11,26.52 L967.72,26.11 L967.56,24.87 L964.78,23.62 L963.24,23.41 L961.54,23.62 L961.23,23.21 L961.38,22.59 L959.99,21.14 L958.14,20.93 L957.83,21.34 L956.60,21.55 L954.28,21.14 L953.20,21.55 L951.96,22.79 L951.50,23.00 L948.25,22.59 L945.78,23.62 L944.08,23.41 L938.83,25.07 L936.52,26.52 L934.35,27.56 L931.88,27.14 L929.41,27.56 L926.17,27.56 L924.47,29.22 L920.14,30.46 L918.60,32.12 L917.98,33.36 L914.43,34.60 L913.19,34.81 L912.11,35.64 L910.41,36.47 L909.95,37.30 L909.79,38.96 L908.56,39.58 L908.56,39.99 L907.78,40.41 L904.39,40.82 L901.92,40.82 L898.67,39.99 L896.82,39.99 L894.19,40.61 L891.26,40.41 L887.09,42.06 L883.53,42.69 L881.53,43.72 L880.91,43.31 L876.43,42.27 L870.25,42.27 L865.31,41.86 L863.30,40.82 L863.30,39.99 L863.76,39.37 L866.85,38.54 L867.32,37.92 L867.16,36.26 L866.08,35.02 L866.08,34.40 L866.39,34.40 L866.23,34.60 L864.23,33.57 L862.99,33.57 L862.53,33.15 L858.67,32.12 L856.50,32.32 L855.42,31.91 L850.32,31.70 L849.55,31.29 L848.47,31.29 L845.69,32.12 L843.68,33.57 L842.91,36.26 L841.52,38.13 L841.52,38.96 L840.90,39.78 L839.67,42.89 L837.50,46.62 L835.34,48.49 L832.87,48.49 L831.33,48.07 L831.17,47.66 L829.63,47.24 L828.54,46.21 L827.31,46.00 L827.00,45.38 L824.99,44.55 L824.84,44.34 L825.30,43.93 L825.46,42.69 L824.68,42.48 L824.22,41.65 L822.98,40.41 L816.34,37.71 L816.03,37.09 L816.34,36.47 L815.88,35.43 L813.41,35.23 L810.94,35.85 L808.77,35.23 L807.85,33.98 L806.15,32.53 L805.07,30.46 L801.82,27.97 L799.66,23.41 L796.88,22.79 L795.18,23.00 L793.17,22.38 L781.28,21.55 L777.42,19.06 L777.57,18.65 L780.35,17.61 L775.72,15.33 L775.56,14.92 L779.58,14.50 L779.89,14.30 L779.27,14.09 L779.27,13.68 L780.20,13.68 L781.43,12.85 L787.30,12.43 L787.92,13.05 L789.16,12.85 L789.93,13.47 L790.08,12.85 L789.77,11.40 L790.55,10.77 L792.09,11.40 L793.95,11.19 L796.57,11.81 L797.03,12.02 L797.19,12.64 L797.50,12.85 L799.35,10.57 L798.89,9.74 L801.51,8.29 L803.83,8.50 L805.07,8.08 L805.07,7.67 L806.46,7.05 L805.07,5.80 L804.45,4.14 L802.90,2.90 L801.51,2.28 L798.42,1.86 L791.16,1.45 L783.13,0.00 L772.94,1.24 L770.62,1.86 L762.43,5.80 L759.65,6.84 L751.47,8.08 L749.61,9.12 L746.22,11.81 L745.29,12.23 L743.74,12.02 L743.90,12.02 L743.13,12.64 L737.10,12.02 L724.90,12.43 L718.41,13.26 L708.06,13.05 L698.18,14.09 L690.92,13.68 L683.04,12.64 L681.50,12.64 L676.86,13.88 L674.24,15.33 L663.73,20.31 L658.17,24.45 L655.70,26.73 L654.46,27.35 L653.23,28.80 L652.46,29.01 L652.76,29.22 L652.46,31.29 L651.68,35.85 L650.14,46.62 L649.52,47.45 L647.05,48.90 L643.19,50.35 L642.42,51.60 L642.57,52.63 L641.03,53.67 L637.94,53.87 L628.21,52.42 L627.43,52.22 L622.03,48.69 L620.33,48.49 L615.54,49.52 L603.49,53.67 L598.70,54.50 L593.14,54.91 L587.43,56.15 L582.48,57.81 L573.99,58.02 L563.18,59.06 L558.54,59.88 L557.92,60.51 L555.30,60.30 L553.75,60.92 L551.90,60.71 L548.19,61.96" fill="none" stroke="#fc4c02" stroke-width="2" />
</svg>