<svg xmlns="http://www.w3.org/2000/svg" viewBox="0 0 1000 1000">
  <path d="M411.11,989.01 L422.22,993.89 L461.73,997.56 L506.17,990.23 L539.51,974.36 L575.31,949.94 L600.00,937.73 L611.11,934.07 L614.81,930.40 L614.81,927.96 L606.17,915.75 L587.65,894.99 L575.31,884.00 L561.73,877.90 L539.51,860.81 L532.10,853.48 L528.40,843.71 L518.52,835.16 L513.58,816.85 L504.94,804.64 L507.41,792.43 L488.89,774.11 L485.19,760.68 L476.54,749.69 L467.90,735.04 L464.20,725.27 L469.14,722.83 L469.14,711.84 L465.43,706.96 L455.56,698.41 L440.74,689.87 L438.27,686.20 L422.22,675.21 L418.52,669.11 L367.90,637.36 L361.73,630.04 L356.79,619.05 L351.85,610.50 L349.38,603.17 L340.74,593.41 L325.93,584.86 L313.58,562.88 L306.17,555.56 L293.83,545.79 L281.48,538.46 L266.67,526.25 L240.74,512.82 L225.93,499.39 L218.52,489.62 L183.95,461.54 L177.78,452.99 L158.02,438.34 L138.27,427.35 L77.78,374.85 L56.79,355.31 L29.63,316.24 L1.23,286.94 L0.00,283.27 L6.17,280.83 L16.05,280.83 L33.33,282.05 L46.91,286.94 L98.77,308.91 L122.22,313.80 L140.74,313.80 L158.02,310.13 L177.78,297.92 L200.00,293.04 L206.17,289.38 L222.22,284.49 L262.96,279.61 L301.23,282.05 L298.77,282.05 L312.35,288.16 L316.05,286.94 L318.52,282.05 L324.69,279.61 L325.93,273.50 L338.27,268.62 L339.51,260.07 L337.04,255.19 L324.69,249.08 L333.33,244.20 L340.74,234.43 L339.51,230.77 L341.98,225.89 L333.33,214.90 L332.10,213.68 L335.80,208.79 L343.21,205.13 L345.68,200.24 L344.44,195.36 L339.51,192.92 L340.74,189.26 L335.80,186.81 L337.04,184.37 L343.21,184.37 L339.51,181.93 L340.74,180.71 L339.51,175.82 L348.15,168.50 L386.42,151.40 L395.06,137.97 L403.70,133.09 L413.58,123.32 L422.22,118.44 L449.38,109.89 L474.07,105.01 L535.80,101.34 L569.14,95.24 L643.21,69.60 L719.75,54.95 L728.40,51.28 L758.02,43.96 L764.20,40.29 L780.25,35.41 L809.88,20.76 L832.10,4.88 L841.98,4.88 L849.38,9.77 L839.51,3.66 L887.65,43.96 L954.32,107.45 L965.43,111.11 L987.65,112.33 L1000.00,117.22 L1000.00,122.10 L987.65,131.87 L965.43,141.64 L945.68,152.63 L949.38,169.72 L948.15,170.94 L939.51,172.16 L946.91,170.94 L943.21,169.72 L940.74,159.95 L944.44,150.18 L955.56,142.86 L980.25,133.09 L986.42,119.66 L981.48,116.00 L964.20,114.77 L955.56,112.33 L903.70,65.93 L876.54,39.07 L869.14,30.53 L841.98,4.88 L837.04,3.66 L848.15,8.55 L853.09,15.87 L901.23,56.17 L946.91,96.46 L953.09,105.01 L965.43,111.11 L982.72,111.11 L995.06,116.00 L992.59,125.76 L986.42,131.87 L948.15,150.18 L945.68,152.63 L945.68,162.39 L934.57,162.39 L940.74,161.17 L938.27,158.73 L940.74,151.40 L951.85,144.08 L981.48,131.87 L981.48,125.76 L985.19,116.00 L979.01,112.33 L958.02,111.11 L938.27,96.46 L920.99,80.59 L913.58,70.82 L858.02,23.20 L837.04,1.22 L838.27,1.22 L837.04,3.66 L844.44,7.33 L872.84,29.30 L877.78,35.41 L943.21,92.80 L959.26,109.89 L964.20,111.11 L987.65,112.33 L996.30,118.44 L992.59,126.98 L988.89,130.65 L962.96,141.64 L944.44,153.85 L945.68,162.39 L950.62,168.50 L943.21,172.16 L932.10,170.94 L929.63,158.73 L930.86,156.29 L956.79,141.64 L983.95,133.09 L982.72,126.98 L986.42,118.44 L981.48,114.77 L965.43,114.77 L955.56,111.11 L890.12,48.84 L833.33,0.00 L854.32,13.43 L907.41,64.71 L928.40,80.59 L958.02,108.67 L966.67,112.33 L983.95,111.11 L993.83,116.00 L992.59,123.32 L990.12,129.43 L948.15,151.40 L944.44,153.85 L945.68,161.17 L943.21,163.61 L935.80,163.61 L940.74,163.61 L937.04,158.73 L938.27,155.07 L953.09,142.86 L981.48,131.87 L985.19,118.44 L980.25,116.00 L960.49,113.55 L955.56,111.11 L886.42,46.40 L843.21,8.55 L838.27,3.66 L838.27,1.22 L834.57,1.22 L853.09,12.21 L956.79,109.89 L961.73,111.11 L977.78,111.11 L992.59,116.00 L992.59,122.10 L988.89,129.43 L946.91,151.40 L941.98,156.29 L944.44,161.17 L939.51,163.61 L934.57,162.39 L941.98,161.17 L938.27,158.73 L938.27,155.07 L943.21,150.18 L960.49,139.19 L980.25,130.65 L982.72,129.43 L985.19,116.00 L971.60,112.33 L961.73,112.33 L950.62,106.23 L903.70,62.27 L859.26,23.20 L846.91,10.99 L832.10,1.22 L834.57,0.00 L835.80,2.44 L838.27,1.22 L837.04,1.22 L839.51,1.22 L838.27,2.44 L859.26,18.32 L956.79,108.67 L965.43,111.11 L987.65,112.33 L998.77,117.22 L986.42,130.65 L967.90,139.19 L950.62,148.96 L946.91,155.07 L950.62,162.39 L950.62,168.50 L948.15,169.72 L938.27,170.94 L935.80,168.50 L937.04,164.84 L941.98,153.85 L956.79,141.64 L980.25,130.65 L985.19,116.00 L977.78,112.33 L961.73,112.33 L953.09,108.67 L908.64,67.16 L891.36,53.72 L850.62,14.65 L841.98,8.55 L838.27,4.88 L838.27,1.22 L840.74,1.22 L838.27,2.44 L914.81,72.04 L955.56,107.45 L964.20,111.11 L979.01,111.11 L991.36,114.77 L992.59,120.88 L991.36,128.21 L987.65,130.65 L962.96,142.86 L948.15,153.85 L946.91,167.28 L937.04,167.28 L940.74,167.28 L933.33,166.06 L933.33,159.95 L939.51,153.85 L939.51,150.18 L961.73,137.97 L979.01,131.87 L985.19,116.00 L975.31,112.33 L962.96,112.33 L954.32,109.89 L930.86,90.35 L867.90,29.30 L839.51,4.88 L838.27,2.44 L839.51,1.22 L835.80,1.22 L838.27,3.66 L838.27,1.22 L840.74,1.22 L837.04,2.44 L844.44,4.88 L906.17,64.71 L955.56,108.67 L966.67,111.11 L985.19,112.33 L993.83,118.44 L988.89,129.43 L959.26,141.64 L943.21,153.85 L944.44,162.39 L951.85,177.05 L938.27,178.27 L945.68,175.82 L940.74,175.82 L938.27,172.16 L935.80,158.73 L956.79,141.64 L980.25,133.09 L987.65,118.44 L980.25,114.77 L958.02,112.33 L851.85,14.65 L837.04,4.88 L837.04,1.22 L841.98,0.00 L843.21,2.44 L838.27,2.44 L841.98,2.44 L839.51,3.66 L844.44,6.11 L871.60,34.19 L953.09,106.23 L961.73,111.11 L980.25,111.11 L995.06,114.77 L998.77,118.44 L993.83,125.76 L986.42,133.09 L967.90,140.42 L946.91,152.63 L945.68,155.07 L948.15,168.50 L933.33,168.50 L939.51,167.28 L935.80,168.50 L937.04,163.61 L935.80,159.95 L939.51,153.85 L946.91,147.74 L960.49,139.19 L980.25,131.87 L982.72,120.88 L983.95,117.22 L976.54,113.55 L958.02,111.11 L949.38,101.34 L917.28,76.92 L860.49,25.64 L848.15,8.55 L832.10,4.88 L840.74,2.44 L834.57,3.66 L843.21,6.11 L835.80,2.44 L830.86,3.66 L832.10,3.66 L830.86,2.44 L832.10,3.66 L837.04,1.22 L835.80,1.22 L843.21,6.11 L953.09,105.01 L962.96,109.89 L979.01,111.11 L993.83,116.00 L995.06,119.66 L991.36,126.98 L987.65,130.65 L966.67,141.64 L946.91,153.85 L949.38,159.95 L949.38,174.60 L934.57,172.16 L935.80,168.50 L933.33,153.85 L955.56,140.42 L977.78,133.09 L986.42,116.00 L976.54,112.33 L961.73,113.55 L954.32,111.11 L928.40,83.03 L907.41,67.16 L901.23,59.83 L887.65,48.84 L839.51,4.88 L825.93,9.77 L822.22,13.43 L804.94,24.42 L753.09,45.18 L620.99,76.92 L602.47,85.47 L564.20,98.90 L530.86,103.79 L502.47,103.79 L459.26,108.67 L428.40,118.44 L418.52,126.98 L409.88,145.30 L396.30,155.07 L372.84,167.28 L348.15,172.16 L343.21,174.60 L344.44,184.37 L338.27,185.59 L340.74,190.48 L348.15,195.36 L349.38,201.47 L345.68,206.35 L338.27,208.79 L335.80,212.45 L337.04,216.12 L344.44,225.89 L344.44,233.21 L341.98,238.10 L338.27,240.54 L329.63,250.31 L330.86,252.75 L340.74,253.97 L338.27,267.40 L335.80,271.06 L325.93,272.28 L329.63,273.50 L327.16,273.50 L327.16,274.73 L320.99,279.61 L317.28,286.94 L314.81,288.16 L306.17,288.16 L279.01,279.61 L259.26,278.39 L250.62,280.83 L222.22,283.27 L216.05,286.94 L211.11,286.94 L161.73,310.13 L145.68,313.80 L116.05,317.46 L113.58,323.57 L104.94,329.67 L96.30,340.66 L88.89,345.54 L90.12,349.21 L100.00,355.31 L98.77,356.53 L88.89,358.97 L74.07,358.97 L72.84,361.42 L77.78,371.18 L97.53,387.06 L100.00,391.94 L103.70,393.16 L118.52,406.59 L158.02,437.12 L179.01,449.33 L188.89,459.10 L190.12,463.98 L212.35,477.41 L224.69,488.40 L225.93,495.73 L235.80,505.49 L279.01,532.36 L286.42,538.46 L309.88,554.33 L313.58,562.88 L313.58,566.54 L322.22,581.20 L339.51,589.74 L366.67,630.04 L439.51,682.54 L443.21,689.87 L464.20,703.30 L470.37,710.62 L470.37,725.27 L480.25,747.25 L488.89,755.80 L492.59,770.45 L511.11,788.77 L511.11,805.86 L516.05,810.74 L524.69,832.72 L532.10,838.83 L539.51,854.70 L588.89,890.11 L602.47,904.76 L611.11,918.19 L609.88,925.52 L603.70,936.51 L591.36,941.39 L535.80,978.02 L513.58,989.01 L462.96,1000.00 L406.17,995.12 L393.83,990.23 L386.42,984.13" fill="none" stroke="#fc4c02" stroke-width="2" />
</svg>