<svg xmlns="http://www.w3.org/2000/svg" viewBox="0 0 1000 1000">
  <path d="M321.87,776.09 L321.24,773.06 L320.83,768.81 L319.57,763.96 L318.53,762.14 L311.86,760.92 L283.51,759.71 L280.59,760.92 L269.96,768.81 L261.83,773.06 L244.53,778.52 L240.57,780.95 L237.65,783.37 L228.68,793.08 L217.01,787.62 L210.55,780.95 L209.71,773.06 L210.13,765.78 L209.51,764.56 L207.21,762.14 L205.34,762.14 L196.58,763.35 L185.53,751.21 L170.73,736.65 L163.64,723.91 L133.42,685.68 L109.44,658.98 L101.52,651.70 L86.51,630.46 L80.05,626.21 L74.21,620.75 L73.80,611.65 L71.71,606.80 L65.67,604.37 L57.54,603.16 L39.40,581.92 L38.15,577.67 L34.60,571.60 L24.39,559.47 L22.72,553.40 L20.64,541.26 L15.43,520.63 L11.67,503.03 L5.00,476.33 L1.88,465.41 L0.00,455.10 L1.04,447.82 L6.46,440.53 L12.30,436.89 L19.39,434.47 L23.14,432.04 L23.56,430.83 L22.72,424.76 L18.34,412.01 L11.67,384.71 L10.42,378.03 L9.80,371.36 L11.67,354.98 L16.89,337.99 L19.80,330.70 L27.93,319.17 L30.02,311.29 L30.85,302.79 L27.52,298.54 L27.10,296.12 L31.89,285.19 L33.77,279.13 L39.40,267.60 L51.07,254.25 L54.41,248.18 L55.45,239.68 L54.20,231.19 L55.66,225.73 L60.04,217.23 L61.50,212.99 L64.42,199.64 L66.92,192.96 L67.75,189.93 L68.38,185.68 L68.38,179.61 L67.54,166.26 L70.46,157.77 L79.42,149.27 L83.80,146.84 L89.64,146.84 L95.89,144.42 L111.53,134.10 L122.79,131.07 L128.62,126.82 L136.54,117.72 L141.34,110.44 L144.67,108.01 L149.68,108.62 L159.06,111.04 L161.56,113.47 L164.06,118.33 L167.40,121.97 L177.61,128.64 L183.03,129.85 L200.13,129.85 L210.13,131.07 L260.58,146.24 L274.13,153.52 L278.30,152.31 L281.43,148.06 L282.68,148.06 L289.56,148.67 L307.48,146.24 L312.07,143.81 L321.87,136.53 L339.59,110.44 L352.30,95.27 L356.26,95.27 L361.89,93.45 L366.90,88.59 L373.98,81.31 L379.20,80.10 L392.75,84.34 L399.21,83.13 L403.59,78.88 L410.05,76.46 L421.93,77.67 L434.86,70.39 L452.99,55.22 L458.20,53.40 L484.05,47.94 L493.85,43.08 L519.07,33.98 L543.26,21.24 L585.16,4.25 L600.38,0.61 L609.55,0.00 L618.93,1.21 L629.14,0.61 L631.23,1.82 L631.85,4.25 L630.60,11.53 L628.52,18.20 L626.43,30.34 L625.60,38.23 L625.60,41.87 L624.35,54.61 L623.51,70.39 L622.89,77.67 L626.02,89.81 L626.22,100.73 L625.81,103.76 L626.02,106.80 L627.27,109.83 L631.44,111.04 L638.94,111.65 L645.19,113.47 L661.46,116.50 L669.59,116.50 L676.26,115.29 L685.64,115.29 L698.77,111.65 L705.44,115.29 L727.12,117.72 L756.93,118.33 L769.02,115.90 L780.90,117.11 L813.22,116.50 L828.64,112.26 L834.48,107.40 L848.24,103.16 L860.33,97.09 L865.12,96.48 L875.34,88.59 L876.17,85.56 L877.01,84.95 L881.38,85.56 L890.77,83.74 L892.02,83.74 L894.52,88.59 L895.14,88.59 L914.95,81.92 L926.41,75.24 L949.76,64.32 L961.02,64.93 L962.06,67.35 L964.77,78.28 L967.90,85.56 L969.56,92.84 L969.98,101.33 L969.15,118.33 L969.56,156.55 L971.86,164.44 L972.07,170.51 L968.94,198.42 L967.06,224.51 L966.85,250.61 L968.31,266.99 L968.31,274.27 L967.48,284.59 L966.02,294.90 L965.40,306.43 L965.60,322.82 L964.77,361.65 L964.98,382.28 L963.52,396.24 L963.31,406.55 L963.73,418.08 L962.27,460.56 L962.27,467.84 L961.85,475.12 L961.23,483.01 L959.97,492.72 L958.93,498.18 L960.39,501.82 L975.19,511.53 L985.20,515.78 L1000.00,519.42 L997.71,526.09 L985.20,538.83 L981.86,544.90 L977.69,554.61 L965.60,576.46 L960.81,582.52 L937.88,608.01 L933.71,615.29 L926.83,632.28 L904.94,663.23 L893.89,683.25 L878.26,700.85 L873.67,707.52 L869.29,714.81 L856.16,743.93 L852.20,751.21 L847.40,757.89 L843.44,765.17 L830.52,783.37 L826.77,790.05 L818.64,806.43 L814.05,813.11 L809.46,827.06 L801.33,841.02 L795.08,848.30 L791.12,855.58 L788.41,863.47 L784.87,870.75 L776.94,885.92 L755.68,922.94 L751.30,930.22 L745.05,936.89 L738.59,941.75 L730.04,944.78 L722.33,949.64 L709.40,961.17 L701.90,964.20 L692.72,966.02 L679.80,964.20 L672.92,965.41 L665.21,968.45 L647.70,970.87 L640.19,975.12 L623.51,980.58 L605.80,975.12 L598.08,976.33 L591.41,978.76 L583.07,980.58 L574.73,979.98 L557.22,987.86 L546.38,989.68 L532.62,985.44 L524.49,985.44 L519.28,988.47 L516.16,990.90 L511.99,993.33 L504.69,992.11 L497.60,993.33 L481.13,1000.00 L474.46,997.57 L464.87,995.75 L447.99,999.39 L429.64,993.33 L413.38,993.33 L401.50,984.22 L394.41,981.80 L388.78,978.76 L378.78,974.51 L371.07,969.05 L364.39,962.38 L357.93,956.92 L351.26,952.67 L345.42,946.60 L335.63,932.04 L317.70,914.44 L310.82,913.83 L307.69,918.08 L302.48,924.15 L297.06,919.90 L287.26,913.23 L277.05,918.69 L259.12,922.33 L248.70,926.58 L242.03,929.00 L239.94,928.40 L238.69,925.97 L237.44,913.83 L234.73,904.73 L230.14,895.02 L219.51,882.28 L211.38,873.18 L206.59,866.50 L209.09,861.65 L222.43,845.27 L226.81,838.59 L226.60,834.95 L224.31,831.92 L214.72,813.11 L214.30,811.89 L215.97,808.86 L220.14,805.22 L233.06,788.83 L244.94,781.55 L256.20,776.70 L279.13,761.53 L283.72,759.10 L290.18,758.50 L301.44,760.92 L314.99,761.53 L316.24,762.14 L317.49,764.56 L317.91,766.38" fill="none" stroke="#fc4c02" stroke-width="2" />
</svg>