<svg xmlns="http://www.w3.org/2000/svg" viewBox="0 0 1000 1000">
  <path d="M393.23,989.30 L391.24,983.19 L387.88,975.55 L387.48,974.03 L387.08,967.91 L385.30,961.04 L383.91,958.75 L363.71,958.75 L360.94,957.22 L356.38,956.46 L353.01,956.46 L347.07,959.51 L338.95,968.68 L328.25,976.32 L321.91,980.14 L314.98,981.67 L303.88,991.60 L298.53,1000.00 L289.03,994.65 L282.49,988.54 L281.89,987.01 L280.90,980.90 L281.10,976.32 L282.09,970.21 L282.09,969.44 L280.31,965.62 L277.34,961.80 L271.20,964.86 L266.44,961.80 L257.73,948.05 L244.26,930.48 L227.61,900.69 L203.45,862.49 L163.83,797.56 L154.32,786.10 L152.14,780.75 L151.55,774.64 L151.55,768.53 L150.55,767.00 L145.80,761.65 L137.48,762.41 L135.90,763.18 L132.33,769.29 L131.54,770.05 L128.17,767.76 L125.40,769.29 L123.22,773.11 L121.04,773.87 L117.27,770.82 L107.96,758.59 L103.01,747.90 L93.70,724.22 L85.78,708.94 L76.27,695.19 L65.17,683.73 L60.42,677.62 L54.87,667.69 L51.90,660.05 L45.96,649.35 L34.47,634.84 L28.92,621.85 L26.15,611.15 L24.56,602.75 L23.18,597.40 L20.40,589.76 L17.23,582.89 L12.28,576.01 L7.33,571.43 L0.40,568.37 L0.00,566.84 L1.98,551.57 L3.17,545.45 L4.75,541.63 L11.89,532.47 L21.39,519.48 L29.71,501.15 L34.47,493.51 L46.16,479.76 L49.92,471.35 L52.30,468.30 L62.00,451.49 L65.37,443.85 L70.52,427.81 L77.06,400.31 L77.26,397.25 L79.83,389.61 L82.21,387.32 L85.58,385.79 L98.06,385.79 L103.01,382.73 L106.18,379.68 L110.14,371.28 L118.66,343.01 L132.33,319.33 L134.51,312.45 L134.90,309.40 L135.10,304.81 L134.31,296.41 L133.72,294.12 L133.91,292.59 L134.71,289.53 L137.88,282.66 L140.65,274.26 L142.04,268.91 L143.42,256.68 L146.79,244.46 L147.98,235.29 L147.19,216.96 L147.78,212.38 L150.55,203.21 L155.90,195.57 L160.86,190.22 L169.97,187.93 L178.09,178.76 L184.63,173.41 L198.89,167.30 L207.81,155.84 L211.57,148.97 L211.97,147.44 L215.13,140.57 L217.31,138.27 L226.62,138.27 L233.56,143.62 L234.55,144.39 L236.33,150.50 L237.92,153.55 L242.27,156.61 L246.63,161.96 L250.00,163.48 L256.54,165.01 L271.39,165.01 L277.14,165.78 L323.69,183.35 L332.41,187.93 L339.54,194.81 L342.51,195.57 L345.09,193.28 L346.87,188.69 L348.45,187.17 L355.19,186.40 L364.70,184.11 L368.46,180.29 L373.42,178.00 L379.36,171.89 L383.91,169.60 L388.67,164.25 L389.66,160.43 L392.63,153.55 L398.18,147.44 L407.29,131.40 L413.63,119.17 L421.75,114.59 L427.69,108.48 L431.85,107.72 L437.80,100.84 L443.15,100.84 L448.89,104.66 L456.02,105.42 L459.79,103.13 L464.34,98.55 L468.70,95.49 L478.80,97.78 L481.58,97.02 L507.33,72.57 L513.27,67.99 L530.31,62.64 L535.26,61.88 L546.16,58.82 L587.56,32.85 L637.88,4.58 L654.71,0.00 L670.76,2.29 L686.81,1.53 L689.38,3.06 L691.76,6.11 L698.69,8.40 L705.23,4.58 L709.98,3.06 L712.36,5.35 L714.74,9.17 L715.33,12.22 L720.29,25.21 L720.29,27.50 L721.08,33.61 L725.04,40.49 L727.02,41.25 L729.79,41.25 L732.96,44.31 L752.97,55.00 L784.07,55.00 L804.87,55.77 L838.35,55.77 L846.47,51.95 L858.56,44.31 L876.98,31.32 L888.27,22.15 L891.64,21.39 L895.80,23.68 L898.77,27.50 L904.52,47.36 L907.69,63.41 L913.23,84.03 L916.80,102.37 L917.99,106.19 L918.58,106.95 L922.74,106.19 L929.28,102.37 L930.86,109.24 L932.84,110.77 L937.20,109.24 L960.97,95.49 L983.56,80.98 L986.53,83.27 L991.48,84.03 L994.06,81.74 L995.64,87.85 L997.03,94.73 L998.61,98.55 L999.60,107.72 L1000.00,108.48 L999.21,112.30 L991.48,114.59 L989.90,117.65 L988.51,122.23 L986.33,125.29 L981.38,127.58 L975.24,132.93 L961.77,141.33 L958.99,142.09 L941.56,154.32 L921.35,166.54 L919.77,168.07 L919.18,173.41 L918.58,184.11 L919.77,188.69 L922.15,192.51 L925.52,193.28 L936.21,194.04 L939.78,193.28 L944.14,194.81 L952.06,193.28 L966.92,194.04 L979.20,187.17 L984.75,181.82 L986.93,181.82 L987.52,182.58 L987.32,193.28 L987.52,199.39 L986.93,222.31 L986.93,229.95 L987.52,239.88 L986.53,244.46 L983.16,246.75 L947.70,246.75 L921.95,244.46 L885.10,242.93 L858.36,242.93 L844.69,241.41 L840.93,241.41 L833.20,247.52 L826.27,249.81 L801.11,247.52 L791.40,247.52 L782.49,250.57 L752.97,250.57 L745.05,249.81 L741.68,246.75 L737.32,246.75 L735.54,245.99 L733.36,241.41 L726.03,240.64 L721.67,238.35 L720.48,240.64 L720.48,243.70 L720.09,247.52 L720.29,259.74 L719.89,261.27 L716.13,263.56 L705.63,263.56 L693.94,261.27 L689.98,262.80 L638.07,260.50 L635.50,258.98 L629.95,249.05 L629.36,245.23 L629.36,238.35 L628.57,237.59 L620.05,238.35 L612.12,236.82 L611.33,237.59 L610.94,242.17 L608.76,245.23 L602.42,244.46 L600.63,245.99 L599.45,262.80 L599.84,269.67 L599.05,281.13 L599.25,288.01 L599.84,291.83 L600.04,304.81 L598.65,320.86 L598.26,331.55 L598.45,336.90 L598.26,340.72 L597.66,343.01 L596.87,352.18 L596.87,360.58 L595.68,375.86 L595.88,378.15 L595.48,382.73 L595.09,381.97 L595.48,384.26 L595.48,389.61 L595.09,391.90 L595.29,396.49 L594.89,398.78 L592.12,404.89 L587.56,409.47 L574.09,410.24 L562.80,407.94 L561.41,409.47 L558.44,415.58 L557.45,419.40 L557.25,424.75 L556.46,447.67 L556.06,452.25 L556.26,455.31 L556.06,468.30 L556.26,480.52 L555.67,502.67 L555.67,535.52 L555.27,541.63 L555.67,550.04 L555.27,553.86 L552.50,558.44 L540.61,558.44 L538.83,559.97 L538.83,563.79 L539.82,568.37 L541.80,572.96 L547.15,581.36 L549.13,595.11 L548.93,598.17 L551.11,605.81 L553.68,611.15 L554.08,616.50 L552.69,625.67 L548.73,634.84 L544.37,641.71 L540.02,647.06 L524.96,660.81 L498.42,705.88 L465.93,771.58 L463.75,777.69 L464.14,792.21 L463.15,796.03 L458.20,805.19 L457.61,812.83 L456.02,815.89 L447.90,831.17 L440.57,842.63 L430.07,861.73 L427.89,864.02 L423.93,870.89 L417.79,881.59 L413.43,892.28 L409.47,898.40 L409.07,899.16 L409.07,900.69 L410.26,903.74 L414.42,908.33 L414.42,909.85 L414.22,912.91 L413.43,916.73 L415.02,925.13 L415.81,935.06 L416.01,956.46 L411.25,960.28 L406.70,959.51 L402.54,961.04 L387.68,960.28 L386.69,961.04 L386.29,963.33 L387.88,968.68 L387.48,972.50 L390.65,981.67 L392.04,993.89 L393.23,998.47" fill="none" stroke="#fc4c02" stroke-width="2" />
</svg>