<svg xmlns="http://www.w3.org/2000/svg" viewBox="0 0 1000 1000">
  <path d="M383.33,761.57 L383.71,757.52 L382.75,752.89 L375.65,738.43 L375.46,737.27 L375.65,734.37 L373.73,728.01 L373.15,727.43 L359.32,727.43 L343.96,725.69 L340.70,726.27 L323.79,736.69 L301.13,745.95 L296.72,749.42 L291.53,756.37 L289.80,756.94 L284.04,755.21 L275.21,750.58 L273.29,747.69 L272.90,744.79 L273.09,739.58 L274.05,734.95 L273.29,732.64 L269.64,729.75 L263.68,731.48 L260.80,731.48 L250.24,718.17 L239.49,707.75 L236.22,703.70 L235.64,701.39 L234.11,697.92 L204.15,660.30 L200.69,654.51 L193.59,645.83 L185.71,634.84 L180.91,629.63 L176.88,626.74 L172.08,620.95 L164.59,610.53 L157.48,601.85 L153.45,597.80 L153.06,598.96 L149.99,596.64 L148.45,593.17 L147.69,590.28 L147.69,583.91 L147.30,582.75 L144.81,579.28 L141.54,576.97 L133.67,576.97 L128.29,582.18 L123.87,581.02 L121.76,581.60 L118.69,585.07 L116.57,585.07 L113.69,581.02 L104.86,572.92 L93.53,550.93 L85.27,538.19 L79.32,530.67 L73.55,524.88 L59.92,513.31 L56.27,508.10 L49.36,495.95 L46.67,493.06 L38.41,485.53 L33.80,480.32 L28.62,471.06 L26.89,467.01 L23.81,454.86 L22.28,450.81 L17.09,441.55 L10.37,435.19 L0.77,431.71 L0.00,431.13 L0.00,429.40 L1.92,418.98 L4.42,410.30 L12.87,403.36 L18.05,397.57 L23.43,390.05 L29.96,378.47 L45.13,363.43 L60.11,342.59 L62.61,337.96 L68.37,324.07 L72.21,311.92 L74.13,303.82 L77.01,296.30 L78.74,293.98 L82.00,292.25 L95.64,292.25 L99.87,289.93 L103.51,287.04 L106.59,281.83 L112.73,265.63 L115.81,259.26 L129.06,241.32 L130.21,237.85 L130.98,233.22 L130.79,229.75 L129.63,222.80 L129.83,222.22 L130.40,219.91 L133.28,215.28 L136.35,208.33 L137.51,204.28 L140.39,190.39 L142.50,185.19 L143.65,179.40 L143.65,173.61 L142.88,167.25 L143.08,162.62 L144.23,157.41 L146.34,153.94 L155.56,144.68 L165.35,141.78 L175.15,134.26 L196.47,123.26 L201.08,118.63 L207.99,107.64 L210.87,105.32 L217.98,105.32 L226.43,108.80 L227.39,109.95 L229.11,114.58 L239.29,123.26 L242.17,124.42 L246.98,125.58 L264.26,125.58 L270.60,126.74 L317.46,140.05 L328.02,146.99 L330.52,147.57 L332.82,146.41 L336.66,141.20 L354.71,137.15 L367.77,130.21 L375.46,122.69 L391.59,100.12 L401.00,89.12 L403.50,87.38 L408.87,87.96 L412.33,86.81 L416.55,83.91 L423.85,76.97 L426.54,76.39 L441.33,79.86 L443.83,79.28 L452.85,72.92 L462.07,74.65 L467.64,74.07 L472.63,70.60 L483.96,61.34 L495.29,52.66 L527.94,44.56 L564.82,27.20 L617.44,3.47 L623.58,1.16 L633.57,0.00 L651.24,1.74 L662.57,1.74 L676.21,6.37 L686.19,2.89 L689.07,3.47 L692.53,6.37 L694.83,12.15 L696.37,14.47 L701.94,17.36 L702.52,18.52 L703.09,21.41 L706.74,28.36 L710.58,32.99 L727.87,39.93 L736.51,41.09 L772.61,42.25 L784.52,41.67 L801.81,42.82 L815.06,41.09 L821.39,39.35 L833.88,32.99 L842.14,26.62 L860.57,14.47 L863.26,13.89 L866.14,13.89 L868.06,17.36 L870.75,24.31 L877.47,46.88 L884.58,60.19 L886.11,65.39 L889.19,77.55 L889.76,79.28 L890.72,80.44 L892.84,80.44 L899.56,76.97 L900.90,78.12 L903.40,82.75 L906.09,83.33 L909.74,82.75 L943.15,67.13 L953.52,60.76 L958.71,63.08 L958.90,64.81 L960.05,67.71 L960.25,71.76 L960.05,74.65 L960.63,77.55 L960.63,80.44 L961.01,82.18 L962.17,84.49 L963.89,85.07 L968.89,84.49 L970.42,85.07 L971.00,86.23 L970.81,89.12 L971.58,94.33 L971.19,100.69 L971.96,105.90 L971.19,110.53 L971.58,115.16 L971.38,118.63 L970.81,135.42 L970.23,141.20 L970.81,146.99 L972.73,155.09 L973.11,164.35 L971.19,179.40 L970.62,192.13 L970.81,199.07 L970.23,215.86 L970.23,240.16 L971.58,256.94 L970.81,270.25 L969.27,287.04 L968.89,297.45 L969.08,304.98 L968.89,318.87 L971.38,368.63 L971.38,388.31 L970.62,401.04 L968.50,421.30 L968.31,445.60 L967.35,460.07 L966.39,468.75 L964.09,479.75 L964.47,480.90 L967.74,483.80 L997.89,491.90 L1000.00,494.79 L999.81,496.53 L998.46,500.00 L995.97,504.05 L988.29,511.57 L983.48,518.52 L975.03,536.46 L966.97,550.93 L959.48,561.34 L948.53,572.92 L942.39,581.02 L940.66,584.49 L934.51,599.54 L932.21,604.17 L917.61,624.42 L903.21,651.04 L889.38,667.25 L883.43,675.35 L877.66,685.76 L870.37,703.12 L866.91,710.65 L843.29,746.53 L839.45,754.63 L834.45,765.63 L829.08,774.31 L825.43,784.72 L818.90,798.61 L809.10,811.92 L803.92,825.23 L788.94,855.90 L776.26,876.16 L768.96,888.31 L763.97,894.68 L758.02,899.31 L748.61,903.36 L735.36,916.09 L726.52,920.14 L718.65,921.87 L703.48,921.30 L691.38,924.77 L677.93,925.35 L667.95,931.71 L656.23,935.76 L650.09,935.76 L640.68,931.71 L632.99,931.13 L622.62,936.34 L610.52,935.76 L606.11,936.92 L593.43,943.29 L586.13,945.60 L580.18,945.02 L571.73,941.55 L564.05,940.97 L559.44,943.29 L554.25,947.92 L551.37,948.50 L545.80,947.92 L538.51,947.92 L532.74,950.23 L527.56,953.70 L523.14,954.86 L510.27,951.97 L505.86,951.39 L496.06,954.86 L491.84,955.44 L481.28,950.23 L476.09,948.50 L461.88,948.50 L459.38,946.18 L454.58,940.39 L445.17,936.92 L442.48,938.08 L440.56,940.97 L438.83,947.92 L438.64,950.23 L439.02,953.70 L438.64,955.44 L437.68,957.18 L429.61,961.23 L428.27,961.23 L426.93,960.07 L420.97,951.39 L417.32,948.50 L413.29,946.76 L411.95,946.76 L404.65,952.55 L396.58,953.12 L381.22,957.75 L379.87,957.75 L376.80,953.12 L376.03,950.23 L375.65,939.24 L375.26,935.76 L374.30,934.03 L371.62,932.29 L360.67,936.34 L342.81,939.24 L333.97,938.66 L303.05,942.71 L280.97,947.92 L253.70,953.12 L248.70,955.44 L246.01,954.28 L243.13,951.97 L239.29,950.23 L237.56,948.50 L236.41,946.18 L234.68,945.02 L231.42,945.60 L228.73,950.23 L226.04,953.70 L222.97,952.55 L219.90,953.70 L217.40,952.55 L213.94,953.70 L208.18,953.12 L178.22,949.07 L176.49,949.65 L175.92,958.33 L174.96,965.28 L174.00,973.38 L172.65,982.06 L171.12,995.95 L170.54,998.26 L169.00,1000.00 L127.90,986.69 L98.91,975.12 L97.95,972.80 L98.91,967.01 L100.06,962.96 L106.01,950.81 L109.28,942.13 L111.39,931.71 L112.73,918.40 L115.61,907.41 L118.30,901.62 L123.10,892.94 L125.98,884.84 L127.33,879.05 L127.90,868.06 L130.02,859.37 L133.47,851.85 L141.16,841.44 L144.42,833.33 L146.34,826.39 L146.53,821.76 L146.34,809.61 L146.92,804.98 L150.57,797.45 L156.71,789.35 L159.59,783.56 L160.75,780.67 L163.82,765.63 L163.63,763.31 L161.32,756.94 L159.98,751.16 L159.02,742.48 L159.78,732.06 L162.67,722.80 L164.39,711.23 L164.39,702.55 L162.28,692.71 L161.32,685.76 L161.13,678.24 L162.28,667.82 L166.70,652.78 L166.31,652.78 L166.31,646.99 L160.94,638.89 L155.75,627.31 L153.26,623.84 L150.57,621.53 L144.23,618.06 L141.54,615.74 L141.35,614.58 L141.54,613.43 L142.12,611.69 L142.69,606.48 L143.27,604.75 L148.26,597.22 L154.41,594.91 L163.05,586.81 L166.12,586.23 L169.00,586.81 L174.76,585.07 L187.25,583.33 L190.90,583.33 L193.20,580.44 L203.00,574.07 L208.18,566.55 L229.88,531.83 L253.89,498.84 L261.76,488.43 L263.11,485.53 L262.92,487.27 L264.07,490.74 L273.09,504.05 L279.24,516.78 L286.35,528.94 L288.46,530.09 L289.99,529.51 L295.18,520.83 L296.91,520.25 L299.79,516.78 L302.09,517.36 L305.36,523.15 L317.46,532.99 L323.22,539.93 L327.64,546.30 L329.75,554.40 L329.17,557.29 L330.71,557.87 L338.39,567.13 L342.81,571.18 L347.80,578.12 L350.11,579.28 L353.56,585.07 L357.79,589.70 L360.09,594.91 L362.59,598.38 L365.85,600.69 L375.07,612.27 L375.65,616.90 L376.42,619.79 L378.14,624.42 L388.90,642.94 L390.44,647.57 L392.93,651.04 L397.35,660.88 L399.27,664.35 L402.54,664.93 L403.50,666.09 L403.88,666.67 L403.30,670.72 L400.61,677.08 L399.27,678.24 L399.08,679.98 L399.27,682.29 L400.04,685.19 L402.73,688.08 L402.92,689.24 L401.57,692.71 L401.38,693.87 L401.77,695.02 L410.60,701.39 L413.29,704.86 L419.24,717.01 L423.08,729.75 L428.46,737.85 L431.92,747.11 L436.53,752.89 L436.53,754.63 L434.99,757.52 L415.59,788.19 L411.75,793.40 L408.30,791.09 L405.42,792.25 L404.46,791.09 L396.39,778.36 L392.93,771.41 L388.90,765.63" fill="none" stroke="#fc4c02" stroke-width="2" />
</svg>