<svg xmlns="http://www.w3.org/2000/svg" viewBox="0 0 1000 1000">
  <path d="M316.15,427.33 L332.26,429.50 L334.84,428.42 L337.09,425.16 L337.74,420.28 L339.67,421.37 L341.60,424.08 L344.83,426.79 L346.12,426.79 L348.69,429.50 L350.31,430.04 L356.75,430.04 L359.97,429.50 L364.81,430.04 L373.19,427.87 L383.18,430.04 L387.37,428.42 L390.27,428.42 L394.13,426.79 L401.87,426.79 L411.54,429.50 L417.66,430.04 L439.90,439.80 L446.66,440.89 L452.79,440.35 L462.46,438.18 L478.25,436.01 L490.82,436.55 L496.29,437.64 L499.19,439.80 L500.81,445.23 L503.06,449.57 L504.35,449.57 L504.35,447.94 L506.28,447.40 L505.96,445.77 L509.51,447.40 L513.37,452.82 L518.53,463.12 L520.14,464.21 L521.11,466.38 L528.20,471.80 L532.71,480.48 L536.90,484.27 L539.16,485.36 L542.70,492.41 L544.96,493.49 L546.89,497.83 L548.82,498.92 L551.40,497.83 L555.27,497.29 L558.81,494.58 L562.04,497.83 L564.61,499.46 L576.22,513.02 L581.70,522.78 L584.60,525.49 L584.60,528.20 L585.24,530.91 L591.69,546.64 L597.81,545.55 L608.44,539.05 L613.92,536.33 L619.40,535.25 L623.91,531.45 L641.96,520.07 L649.37,516.81 L656.14,510.85 L661.62,508.13 L669.67,500.54 L672.57,499.46 L684.50,489.15 L696.75,471.80 L702.22,460.41 L704.16,456.07 L705.77,454.99 L707.06,452.28 L715.44,420.82 L719.63,412.69 L728.01,387.74 L736.71,371.48 L742.83,362.26 L753.79,347.61 L758.94,338.94 L765.39,332.97 L770.22,325.38 L781.82,312.91 L790.85,298.26 L802.13,285.79 L806.96,278.74 L814.37,270.61 L816.31,265.18 L818.56,262.47 L827.59,249.46 L838.22,236.98 L850.15,230.48 L860.14,221.80 L866.58,218.55 L872.06,213.12 L877.86,209.87 L881.73,206.62 L890.43,195.23 L897.20,188.72 L903.00,176.25 L909.44,157.81 L912.02,154.56 L915.24,149.13 L916.85,142.08 L916.21,136.12 L917.50,129.07 L924.59,115.51 L930.07,100.33 L938.12,82.43 L940.70,73.21 L942.64,68.87 L945.86,65.62 L951.02,56.94 L952.30,56.40 L953.92,54.77 L965.84,33.62 L975.19,22.78 L978.09,21.15 L981.31,21.69 L983.89,22.78 L988.08,26.57 L990.65,25.49 L992.59,22.78 L994.52,17.35 L999.68,1.63 L1000.00,0.00 L999.03,0.54 L997.10,6.51 L992.59,21.69 L989.69,28.20 L988.08,28.20 L984.85,23.32 L981.31,20.61 L978.09,19.52 L973.90,20.07 L970.35,22.23 L952.95,41.76 L951.02,47.72 L946.83,55.86 L941.99,68.33 L937.80,76.46 L932.00,92.73 L920.08,120.39 L915.89,131.24 L906.54,150.76 L899.77,170.28 L892.68,184.38 L888.17,191.43 L877.54,203.36 L867.55,209.87 L861.10,215.29 L847.57,232.10 L844.34,233.73 L836.61,234.82 L831.78,237.53 L826.30,244.58 L820.50,251.08 L815.66,258.13 L814.37,261.39 L813.73,265.18 L812.12,267.90 L802.77,278.74 L798.90,285.25 L788.59,298.81 L781.82,305.31 L776.67,313.99 L764.10,329.18 L759.59,332.43 L753.14,341.65 L742.51,357.92 L736.06,369.85 L725.10,394.79 L718.34,415.94 L714.47,425.70 L711.89,435.47 L708.35,444.69 L696.42,466.38 L690.94,474.51 L685.79,479.93 L673.86,494.03 L661.94,505.42 L649.37,515.18 L640.67,521.69 L622.62,531.45 L618.43,535.25 L610.05,539.59 L592.01,552.60 L583.31,562.36 L577.51,571.58 L572.67,577.55 L568.16,585.68 L565.26,594.90 L561.39,604.66 L557.20,611.17 L558.17,616.59 L555.27,630.15 L554.95,633.41 L555.27,636.12 L554.30,642.08 L534.00,667.57 L524.65,676.79 L512.09,691.43 L497.58,711.50 L486.63,723.43 L487.91,728.31 L475.67,738.61 L472.77,741.87 L470.51,746.20 L469.55,748.92 L469.22,753.25 L469.55,756.51 L470.83,759.76 L472.77,763.56 L488.88,782.00 L489.20,787.96 L487.91,792.84 L484.69,797.72 L480.50,801.52 L478.57,805.31 L473.74,811.28 L469.22,814.53 L466.00,815.62 L463.42,820.50 L454.72,830.80 L448.92,837.85 L441.83,849.24 L418.30,879.07 L412.83,888.29 L408.31,894.79 L398.32,916.49 L394.13,930.04 L389.62,939.80 L388.33,945.23 L383.50,960.41 L378.34,971.26 L366.74,1000.00 L367.39,998.92 L366.74,997.83 L365.13,999.46 L373.83,982.65 L374.15,980.48 L381.57,965.29 L386.72,955.53 L388.98,949.57 L391.88,945.77 L395.42,936.01 L398.32,932.21 L399.94,924.08 L404.45,913.23 L408.64,899.13 L411.86,893.71 L415.08,888.83 L421.53,880.69 L424.75,874.73 L426.68,873.64 L437.64,860.09 L439.25,856.29 L444.09,850.87 L446.02,845.99 L448.92,842.73 L451.50,838.94 L458.27,832.97 L465.36,823.21 L468.90,819.41 L472.45,818.33 L474.06,816.16 L482.76,811.28 L487.91,803.69 L492.10,796.64 L492.75,792.84 L491.78,787.96 L490.17,784.71 L484.37,774.95 L480.18,769.52 L470.19,760.30 L461.49,749.46 L460.20,748.92 L455.69,741.87 L454.08,741.32 L453.11,739.15 L450.85,737.53 L450.21,735.36 L452.14,725.60 L451.82,720.72 L450.21,716.92 L446.02,712.58 L445.38,712.58 L444.73,710.95 L441.83,698.48 L435.39,692.52 L423.14,687.64 L417.66,683.84 L415.40,683.84 L412.18,685.47 L408.64,689.80 L405.74,696.31 L405.41,698.48 L399.61,704.99 L395.10,713.67 L394.46,716.92 L392.20,721.26 L390.91,722.89 L390.59,724.51 L386.72,725.05 L381.57,731.02 L379.31,732.65 L377.70,737.53 L376.09,739.70 L373.19,746.75 L371.25,748.37 L369.96,753.25 L370.29,754.34 L366.74,757.05 L367.06,758.68 L365.78,759.76 L366.10,761.39 L360.94,764.64 L358.36,768.98 L354.17,773.86 L352.24,774.95 L352.24,777.11 L349.66,779.83 L342.57,784.16 L342.89,781.45 L346.76,774.40 L348.05,764.64 L349.02,763.56 L352.24,763.56 L352.56,759.22 L351.92,753.80 L354.17,749.46 L353.53,746.75 L351.92,746.75 L352.24,742.95 L351.60,740.24 L354.82,735.36 L354.50,732.10 L354.17,730.48 L354.82,729.93 L355.14,727.22 L354.82,724.51 L356.75,724.51 L359.01,722.89 L355.46,719.09 L354.82,720.17 L353.53,719.63 L347.41,715.29 L345.15,712.04 L339.35,707.70 L336.13,706.62 L329.04,698.48 L327.43,693.06 L326.46,686.55 L327.10,685.47 L326.46,684.92 L329.04,680.59 L329.36,678.42 L329.04,677.33 L325.17,673.54 L320.34,666.49 L317.11,661.61 L314.53,655.64 L311.31,654.56 L309.70,651.84 L309.06,648.59 L305.83,643.71 L302.61,643.71 L289.72,634.49 L287.46,627.44 L285.85,626.90 L284.56,624.19 L281.34,622.56 L274.57,609.54 L272.96,609.00 L271.03,604.66 L269.74,597.07 L266.84,591.65 L265.55,590.02 L264.26,586.77 L262.97,585.68 L263.29,584.60 L260.39,580.26 L258.46,578.63 L256.85,574.84 L250.73,566.16 L248.47,563.99 L246.21,558.57 L241.38,554.23 L232.03,548.26 L222.69,540.13 L215.28,530.91 L213.66,527.11 L213.02,521.15 L212.05,518.98 L201.74,514.10 L197.23,510.30 L196.91,508.68 L194.33,507.59 L192.72,505.42 L188.20,504.34 L187.24,501.08 L178.86,495.12 L177.89,491.32 L177.57,484.27 L178.54,482.10 L176.28,481.56 L176.93,480.48 L172.09,477.77 L172.09,475.60 L168.87,473.97 L160.81,460.95 L156.94,458.24 L155.66,456.07 L154.69,455.53 L153.72,452.82 L151.14,451.74 L150.82,449.57 L150.50,448.48 L149.53,447.94 L149.53,446.31 L148.89,445.23 L146.31,444.14 L143.09,440.89 L137.93,437.64 L133.74,432.75 L130.52,425.70 L129.87,422.45 L130.20,420.28 L125.36,419.74 L124.40,414.86 L123.11,409.44 L123.11,403.47 L124.40,404.56 L125.04,407.27 L124.07,407.81 L116.66,409.44 L114.08,409.44 L112.47,408.35 L111.83,406.18 L109.25,403.47 L106.99,398.05 L101.19,390.46 L101.84,383.95 L103.13,379.07 L98.29,375.81 L96.68,373.64 L97.65,375.27 L96.04,373.64 L94.10,372.56 L92.17,373.10 L90.88,372.02 L87.33,364.97 L77.34,353.04 L67.68,338.94 L64.45,336.77 L55.75,340.02 L51.89,341.11 L48.66,340.56 L46.41,342.73 L44.15,346.53 L36.42,355.75 L25.78,366.05 L20.30,374.73 L12.89,383.41 L9.67,389.91 L5.16,396.42 L0.64,409.98 L0.00,418.66 L1.93,427.33 L4.19,430.59 L7.09,432.21 L9.67,431.67 L12.89,432.75 L17.72,431.67 L21.27,429.50 L23.85,425.16 L26.43,418.66 L32.55,407.81 L34.16,402.93 L36.42,400.22 L38.67,398.59 L41.89,392.08 L45.12,388.83 L47.70,387.74 L48.34,386.12 L50.92,385.57 L52.53,383.41 L52.53,377.98 L53.82,373.64 L54.14,364.43 L52.53,356.29 L56.07,355.75 L57.36,356.83 L58.65,356.29 L61.55,357.92 L63.49,357.92 L66.39,355.75 L67.35,353.58 L68.32,353.04 L68.97,350.33 L68.97,347.61 L71.87,338.94 L77.34,329.72 L85.08,321.04 L87.98,313.99 L88.30,311.28 L91.85,306.94 L94.42,302.06 L93.78,302.06 L94.75,299.35 L95.39,297.18 L95.39,294.47 L96.36,291.76 L102.16,291.21 L108.60,280.37 L109.57,273.32 L111.83,266.27 L112.79,259.76 L113.44,252.17 L114.73,247.29 L116.02,245.66 L120.21,245.66 L124.40,241.87 L126.65,244.58 L129.87,245.12 L130.84,248.37 L133.10,251.63 L134.71,251.63 L135.68,253.25 L136.32,253.25 L136.64,255.42 L139.54,258.13 L140.51,260.30 L139.22,265.18 L140.83,268.44 L147.60,275.49 L149.21,276.57 L149.53,277.66 L162.42,270.07 L165.32,276.03 L165.65,278.74 L167.26,280.91 L168.55,284.71 L170.16,287.42 L174.99,302.60 L177.57,306.40 L184.02,315.08 L183.69,315.62 L186.27,319.96 L190.78,324.30 L192.07,328.63 L203.67,338.39 L203.67,337.31 L204.00,337.31 L205.61,338.39 L207.22,343.28 L208.83,345.99 L208.19,347.61 L211.41,358.46 L215.92,359.54 L217.53,361.17 L217.21,363.88 L217.85,364.43 L216.89,368.76 L216.89,370.93 L230.42,375.27 L232.36,377.44 L233.00,374.73 L234.29,376.90 L235.26,376.90 L238.80,384.49 L242.67,388.83 L245.25,389.91 L245.25,392.08 L246.21,394.79 L247.82,394.79 L250.08,401.30 L252.01,404.56 L254.59,401.84 L261.36,398.59 L267.48,404.56 L285.85,415.94 L287.46,411.61" fill="none" stroke="#fc4c02" stroke-width="2" />
</svg>