<svg xmlns="http://www.w3.org/2000/svg" viewBox="0 0 1000 1000">
  <path d="M301.14,722.93 L300.28,721.77 L288.07,715.44 L282.81,713.71 L270.74,721.20 L269.18,728.69 L107.10,513.82 L101.99,505.18 L100.57,501.73 L99.29,497.12 L91.48,455.65 L88.21,440.67 L83.24,440.09 L80.54,428.00 L80.26,418.20 L84.37,409.56 L94.89,405.53 L95.17,403.80 L94.74,398.04 L91.90,387.10 L87.64,361.75 L86.79,354.26 L85.09,345.05 L84.52,334.68 L86.22,324.31 L88.78,315.09 L92.33,306.45 L98.58,297.24 L100.43,290.32 L100.71,279.38 L98.30,273.04 L99.01,269.01 L102.56,256.34 L105.54,246.54 L108.95,239.63 L112.64,234.45 L115.77,227.53 L117.05,219.47 L115.91,209.10 L117.19,203.34 L120.45,194.70 L126.14,164.75 L125.99,149.77 L127.56,142.28 L131.25,135.37 L136.22,130.18 L138.78,129.03 L148.30,142.28 L152.41,140.55 L163.49,131.34 L170.03,129.61 L177.27,116.94 L180.97,107.72 L184.37,102.53 L187.93,101.96 L193.18,103.11 L196.45,104.84 L198.72,109.45 L200.71,111.75 L209.37,118.66 L212.07,118.09 L230.54,124.42 L236.51,128.46 L243.89,130.76 L248.01,134.22 L261.65,135.37 L266.19,137.10 L271.59,142.28 L272.30,142.28 L278.41,133.64 L284.66,133.64 L291.76,136.52 L295.74,136.52 L297.16,135.37 L301.99,127.30 L305.82,120.39 L310.65,116.36 L314.20,106.57 L322.16,92.17 L326.99,87.56 L330.40,89.86 L334.66,89.29 L336.08,87.56 L339.35,78.92 L344.18,72.00 L348.58,72.00 L352.41,73.73 L356.11,73.16 L359.94,66.82 L361.79,65.09 L373.30,64.52 L382.24,56.45 L388.21,53.57 L390.63,48.96 L392.05,47.24 L397.30,44.93 L409.37,46.08 L420.45,41.47 L426.99,35.14 L434.66,29.38 L449.43,23.62 L455.40,18.43 L472.16,12.10 L484.23,4.03 L490.91,1.15 L497.44,0.00 L516.90,1.73 L517.61,2.30 L517.76,5.18 L515.06,16.71 L514.49,23.62 L513.64,28.23 L513.21,38.02 L513.21,48.96 L512.64,69.12 L511.36,89.29 L511.36,98.50 L513.07,103.69 L514.06,104.84 L524.43,107.14 L527.84,109.45 L548.15,114.63 L551.28,114.06 L552.41,111.18 L554.69,108.29 L561.08,104.26 L565.91,111.75 L567.76,113.48 L571.16,113.48 L575.85,111.75 L590.77,111.75 L594.74,109.45 L598.44,110.60 L603.55,113.48 L607.53,110.02 L612.93,110.02 L619.03,111.75 L626.28,112.90 L637.07,111.75 L639.91,112.33 L645.17,111.18 L649.29,107.72 L658.24,103.69 L682.10,89.86 L684.23,86.98 L689.49,87.56 L693.32,85.25 L694.03,84.10 L695.03,84.68 L697.87,89.29 L700.28,88.13 L714.91,76.04 L734.94,61.06 L740.91,62.21 L743.61,65.67 L747.30,82.95 L749.57,83.53 L754.69,82.95 L773.72,77.19 L779.55,76.04 L794.18,75.46 L807.10,76.04 L812.78,77.19 L822.30,76.61 L840.20,69.70 L842.76,68.55 L844.46,69.12 L845.03,69.70 L846.31,75.46 L854.55,96.20 L865.62,127.30 L872.02,145.16 L876.70,160.71 L894.32,205.07 L898.58,217.17 L903.27,228.11 L911.22,250.00 L918.04,270.16 L934.09,311.06 L937.64,322.58 L946.31,346.77 L954.69,367.51 L967.47,402.07 L978.98,431.45 L986.08,451.61 L994.46,473.50 L998.86,486.75 L1000.00,490.78 L999.29,496.54 L996.59,500.00 L993.47,501.73 L981.39,515.55 L964.91,532.83 L955.68,544.35 L939.20,562.79 L917.47,589.86 L891.34,619.24 L886.36,624.42 L883.38,626.15 L879.26,624.42 L874.72,629.03 L864.20,642.28 L850.99,656.11 L843.47,665.32 L831.68,682.60 L826.70,688.94 L802.84,712.56 L799.57,716.59 L788.49,733.87 L784.37,736.18 L768.47,752.30 L749.15,779.95 L744.60,785.14 L729.97,798.96 L715.63,818.55 L705.26,830.65 L687.07,853.11 L666.05,872.70 L650.14,884.79 L625.85,898.04 L614.77,902.07 L609.23,904.38 L598.86,906.11 L589.35,906.11 L580.68,897.47 L574.15,907.83 L569.60,913.02 L564.91,915.32 L558.38,917.05 L545.88,915.90 L538.07,920.51 L531.11,919.93 L527.27,921.08 L522.59,925.69 L517.33,928.57 L512.07,929.72 L507.53,929.15 L502.13,926.27 L496.73,924.54 L492.19,926.84 L487.36,930.88 L482.39,932.03 L476.70,931.45 L472.87,932.60 L466.19,937.79 L460.37,940.67 L455.40,940.67 L448.72,937.21 L444.18,937.21 L439.91,938.36 L436.93,942.97 L432.81,944.12 L428.12,943.55 L423.30,944.70 L414.49,951.61 L411.65,950.46 L407.24,947.58 L402.84,947.00 L397.44,947.58 L393.18,949.31 L388.92,948.73 L378.84,941.82 L369.89,942.97 L367.19,941.82 L363.92,936.64 L360.37,932.60 L355.54,931.45 L354.97,932.03 L353.69,937.79 L352.84,949.31 L349.57,952.19 L344.89,954.49 L342.90,958.53 L341.48,964.29 L338.64,968.89 L337.78,969.47 L325.14,971.77 L308.38,976.38 L288.21,980.41 L259.23,989.63 L231.82,994.24 L220.31,997.12 L201.42,999.42 L180.54,1000.00 L157.67,997.12 L126.14,983.87 L114.63,978.11 L99.29,968.32 L95.31,969.47 L91.62,968.32 L70.74,949.31 L43.18,919.93 L20.60,891.13 L13.92,878.46 L13.07,875.58 L11.22,864.06 L7.95,859.45 L0.28,860.02 L0.00,858.87 L0.43,855.41 L6.96,845.05 L11.79,835.25 L19.74,817.40 L35.80,788.02 L39.35,779.95 L42.05,771.31 L44.46,755.76 L46.16,747.70 L47.44,745.39 L52.70,740.78 L64.35,735.60 L68.47,728.11 L73.72,714.29 L77.56,706.22 L91.34,671.08 L100.00,652.65 L103.55,644.01 L109.80,630.76 L120.45,603.11 L122.59,593.89 L122.16,577.19 L126.70,571.43 L132.39,571.43 L138.21,574.88 L139.49,573.16 L143.04,565.67 L145.60,558.18 L149.01,545.51 L155.97,527.07 L165.91,504.03 L176.99,484.45 L184.94,468.32 L187.22,466.59 L190.91,465.44 L194.18,467.17 L199.72,476.96 L204.55,481.57 L209.37,487.90 L211.65,490.21 L213.78,490.78 L221.73,484.45 L225.71,479.26 L229.69,471.77 L240.77,448.16 L244.18,444.12 L250.14,453.92 L258.24,463.71 L260.65,466.01 L258.24,464.29 L251.56,455.07 L244.89,448.73 L242.33,445.28 L236.22,460.25 L227.56,476.96 L224.57,483.87 L224.57,489.06 L229.83,498.85 L231.68,504.61 L236.08,514.98 L241.05,522.47 L248.01,514.40 L250.28,514.40 L252.41,519.01 L260.51,525.92 L264.06,531.68 L266.48,537.44 L265.77,543.20 L265.34,546.08 L262.64,551.84 L259.52,562.21 L259.52,563.94 L261.93,572.00 L272.16,582.37 L279.55,593.32 L284.80,603.69 L290.20,610.60 L299.86,631.34 L302.41,637.67 L307.39,650.92 L314.49,672.81 L324.29,681.45 L325.14,683.18 L324.86,686.06 L325.14,687.79 L327.41,692.40 L332.81,698.16 L336.36,704.49 L339.49,713.13 L342.76,726.96 L347.87,740.78 L352.13,750.00 L350.28,754.61 L346.59,762.10 L338.35,781.11 L323.86,810.48 L321.59,813.36 L320.88,812.79 L319.74,807.03 L322.02,800.12 L326.28,793.20 L327.13,787.44 L326.85,785.71 L322.02,773.62 L318.89,768.43" fill="none" stroke="#fc4c02" stroke-width="2" />
</svg>