<svg xmlns="http://www.w3.org/2000/svg" viewBox="0 0 1000 1000">
  <path d="M952.66,687.19 L949.70,685.24 L942.80,686.22 L903.02,711.63 L887.57,720.43 L841.55,751.71 L825.77,766.37 L817.88,777.13 L810.65,794.72 L807.69,802.54 L808.02,804.50 L803.09,822.09 L802.43,828.93 L801.12,832.84 L797.17,840.66 L792.24,843.60 L785.01,843.60 L760.68,833.82 L747.21,826.00 L728.47,814.27 L712.69,800.59 L696.91,783.97 L680.47,761.49 L664.37,732.16 L654.50,707.72 L648.26,685.24 L645.63,674.49 L643.66,659.82 L641.03,629.52 L637.41,621.70 L626.56,617.79 L580.54,619.75 L552.27,616.81 L533.86,611.93 L515.45,602.15 L495.07,585.53 L417.16,507.33 L384.62,471.16 L310.32,395.89 L262.66,345.06 L242.27,321.60 L226.50,301.08 L223.21,302.05 L213.02,308.90 L208.74,308.90 L207.76,307.92 L207.43,304.99 L206.77,304.01 L202.17,300.10 L193.62,287.39 L181.46,272.73 L160.09,257.09 L131.49,238.51 L115.38,222.87 L110.12,220.92 L102.89,213.10 L67.06,211.14 L57.53,208.21 L52.60,204.30 L45.04,200.39 L31.89,199.41 L29.26,203.32 L31.23,204.30 L36.82,212.12 L47.34,217.01 L61.47,212.12 L80.54,212.12 L93.36,209.19 L97.96,211.14 L101.25,214.08 L107.82,216.03 L110.12,221.90 L112.43,223.85 L123.27,231.67 L126.89,236.56 L132.81,239.49 L136.42,243.40 L157.13,257.09 L175.87,271.75 L195.60,294.23 L204.14,294.23 L214.00,289.35 L216.31,290.32 L250.49,332.36 L287.64,373.41 L364.56,450.64 L411.24,499.51 L416.17,507.33 L427.68,519.06 L439.18,529.81 L489.15,579.67 L458.91,550.34 L449.70,539.59 L416.17,506.35 L359.30,444.77 L301.45,386.12 L241.95,320.63 L236.36,313.78 L220.58,295.21 L203.16,272.73 L197.57,260.02 L188.03,245.36 L188.03,244.38 L188.03,246.33 L187.71,245.36 L188.36,246.33 L188.69,245.36 L187.71,245.36 L188.36,246.33 L186.39,244.38 L147.93,179.86 L144.97,175.95 L141.68,173.02 L142.67,174.00 L118.01,134.90 L108.15,123.17 L108.48,122.19 L108.81,122.19 L106.51,121.21 L80.21,87.98 L54.90,59.63 L51.28,57.67 L55.56,60.61 L71.66,79.18 L20.38,21.51 L14.46,16.62 L35.17,38.12 L72.32,80.16 L15.45,16.62 L16.11,16.62 L16.77,18.57 L16.11,17.60 L22.02,24.44 L41.75,45.94 L71.33,80.16 L72.65,80.16 L71.01,80.16 L71.99,80.16 L35.50,38.12 L13.48,13.69 L12.49,15.64 L13.48,14.66 L41.42,44.97 L71.99,80.16 L71.01,80.16 L42.08,43.99 L13.15,12.71 L10.85,11.73 L13.15,14.66 L71.01,78.20 L71.99,80.16 L68.05,77.22 L54.24,59.63 L18.74,18.57 L6.90,6.84 L5.92,4.89 L19.72,22.48 L74.62,82.11 L70.35,78.20 L70.35,79.18 L71.33,80.16 L70.35,78.20 L70.02,79.18 L71.66,79.18 L55.23,58.65 L37.15,38.12 L11.18,12.71 L11.83,11.73 L11.51,13.69 L11.18,12.71 L15.45,19.55 L72.65,81.13 L47.34,51.81 L20.05,23.46 L12.16,14.66 L10.85,10.75 L9.20,11.73 L72.32,82.11 L61.14,67.45 L16.44,19.55 L8.55,8.80 L14.14,17.60 L23.01,27.37 L39.78,44.97 L72.32,81.13 L47.01,51.81 L6.57,6.84 L5.59,7.82 L8.88,12.71 L71.66,79.18 L71.99,81.13 L43.72,47.90 L15.45,18.57 L5.92,6.84 L25.64,30.30 L66.73,75.27 L71.66,79.18 L71.99,80.16 L71.33,82.11 L48.98,54.74 L16.11,19.55 L5.26,5.87 L13.15,16.62 L66.73,74.29 L71.33,81.13 L70.35,81.13 L49.64,55.72 L10.19,12.71 L4.93,3.91 L0.00,0.00 L2.96,1.96 L4.27,4.89 L11.83,14.66 L70.68,79.18 L71.66,79.18 L74.95,84.07 L70.02,79.18 L98.29,109.48 L115.38,131.96 L147.60,179.86 L184.42,240.47 L189.02,245.36 L192.31,251.22 L209.73,277.61 L225.51,297.17 L227.15,301.08 L227.81,304.01 L230.77,308.90 L258.38,341.15 L261.01,347.02 L262.98,348.00 L268.90,353.86 L276.13,363.64 L278.44,363.64 L286.32,370.48 L317.55,404.69 L369.17,455.52 L424.06,515.15 L444.12,534.70 L473.70,565.98 L506.57,597.26 L520.71,606.06 L536.16,613.88 L563.45,620.72 L587.77,621.70 L630.51,618.77 L643.33,623.66 L645.63,626.59 L646.61,631.48 L646.29,635.39 L646.94,643.21 L648.59,660.80 L650.89,674.49 L654.50,691.10 L665.02,722.39 L665.35,731.18 L666.34,738.03 L667.65,740.96 L677.51,758.55 L687.71,774.19 L705.46,795.70 L724.52,813.29 L750.16,829.91 L768.57,838.71 L830.37,860.22 L859.63,874.88 L891.52,893.45 L995.07,961.88 L998.36,964.81 L999.34,969.70 L991.78,996.09 L991.78,998.04 L992.44,999.02 L993.75,1000.00 L995.73,998.04 L995.07,989.25 L1000.00,968.72 L1000.00,966.76 L997.70,959.92 L995.07,956.99 L918.80,906.16 L865.22,871.95 L838.26,859.24 L807.03,847.51 L804.08,844.57 L802.76,837.73 L802.76,832.84 L804.73,824.05 L804.73,820.14 L806.05,818.18 L806.38,814.27 L808.02,810.36 L809.66,803.52 L815.91,784.95 L820.51,776.15 L834.65,759.53 L858.32,740.96 L925.71,695.99 L944.44,686.22 L953.98,687.19 L987.18,707.72" fill="none" stroke="#fc4c02" stroke-width="2" />
</svg>