<svg xmlns="http://www.w3.org/2000/svg" viewBox="0 0 1000 1000">
  <path d="M382.52,785.07 L381.17,779.05 L378.48,773.63 L375.60,768.21 L375.41,763.40 L372.72,757.38 L367.72,756.17 L363.50,756.77 L343.32,754.36 L335.25,758.58 L329.88,763.40 L321.04,769.42 L300.10,777.84 L295.87,781.46 L290.68,788.68 L289.72,789.28 L287.03,786.88 L275.89,780.85 L273.78,778.45 L272.81,776.04 L272.43,772.43 L272.81,768.81 L273.97,765.80 L273.97,764.00 L271.28,759.78 L269.36,759.18 L266.47,760.99 L260.71,760.99 L251.10,748.34 L237.85,734.50 L236.70,732.69 L235.16,728.48 L233.43,726.07 L223.82,712.22 L206.72,691.15 L202.11,683.32 L191.16,669.48 L180.79,656.23 L171.57,646.60 L160.42,630.95 L149.09,619.51 L147.36,614.09 L147.36,610.48 L147.93,606.26 L147.55,605.06 L142.36,600.84 L133.14,600.84 L127.57,606.86 L123.34,605.66 L118.92,609.87 L117.00,609.87 L112.20,604.46 L103.94,596.63 L92.03,571.94 L89.15,566.53 L81.46,555.69 L73.58,547.26 L58.98,533.41 L48.22,515.95 L34.77,502.11 L31.32,497.29 L29.78,494.88 L26.71,487.06 L23.82,475.02 L21.52,468.39 L16.52,459.36 L10.37,452.74 L5.76,450.33 L0.77,449.13 L0.00,447.92 L0.00,446.72 L0.77,444.31 L1.73,434.68 L4.42,426.85 L12.30,419.63 L18.44,412.40 L30.74,393.14 L44.57,378.09 L61.29,354.00 L65.13,344.97 L69.74,332.33 L75.50,311.86 L77.23,308.25 L81.46,304.64 L94.72,304.64 L99.33,302.23 L103.75,298.62 L106.63,292.59 L113.93,273.33 L115.66,269.72 L128.15,252.86 L129.88,248.65 L130.84,245.03 L130.45,237.81 L129.68,231.79 L137.75,209.51 L138.90,202.89 L142.17,193.26 L143.52,186.03 L143.52,182.42 L142.75,173.39 L142.75,169.78 L143.32,166.77 L144.67,162.55 L147.36,157.74 L151.78,152.92 L157.54,149.91 L164.65,148.71 L171.57,142.08 L181.17,136.06 L193.08,131.85 L199.81,125.23 L203.46,120.41 L208.45,111.98 L211.14,109.57 L216.14,108.97 L221.71,110.78 L226.32,113.18 L226.90,113.79 L228.05,118.00 L229.20,119.81 L240.92,128.84 L251.87,129.44 L255.91,131.25 L268.78,130.64 L276.85,134.26 L312.58,144.49 L321.61,148.10 L329.30,153.52 L331.99,154.12 L334.29,152.32 L336.02,149.31 L338.33,147.50 L342.94,147.50 L356.00,144.49 L362.54,140.28 L366.19,136.66 L372.33,133.05 L377.14,128.24 L383.29,119.21 L387.13,114.99 L402.31,93.32 L411.91,91.51 L424.40,80.07 L427.86,80.07 L441.31,83.68 L445.92,81.28 L451.68,76.46 L455.14,75.86 L462.63,77.66 L467.63,77.66 L470.89,75.86 L492.03,57.80 L497.02,54.79 L506.44,52.98 L513.35,49.97 L517.96,49.37 L529.68,45.76 L559.85,31.31 L570.22,25.29 L607.88,7.83 L622.48,2.41 L634.97,0.00 L665.51,2.41 L674.35,6.62 L677.62,7.22 L685.88,4.21 L690.49,4.82 L692.60,7.22 L696.06,15.05 L698.17,18.66 L698.94,20.47 L699.90,26.49 L701.44,30.10 L703.17,31.31 L728.72,43.35 L733.14,42.75 L738.71,44.55 L745.63,43.35 L772.53,45.15 L801.34,45.15 L813.64,43.95 L819.79,42.14 L827.47,38.53 L853.99,22.88 L861.10,18.06 L864.75,17.46 L870.51,20.47 L871.85,22.28 L873.78,27.09 L875.31,31.91 L877.23,37.33 L879.92,49.37 L881.84,55.99 L882.42,60.20 L885.49,67.43 L889.91,83.08 L891.26,84.89 L893.56,84.89 L900.48,81.88 L902.98,88.50 L905.67,88.50 L941.21,71.64 L951.97,65.02 L954.47,65.02 L957.54,66.23 L961.96,65.02 L963.69,65.62 L965.80,69.24 L970.03,83.68 L971.57,90.31 L971.95,95.12 L971.57,100.54 L971.76,102.95 L971.57,119.21 L971.76,126.43 L971.37,131.85 L971.57,142.08 L970.99,150.51 L971.37,152.92 L973.87,161.35 L974.83,167.97 L974.06,176.40 L970.61,190.25 L970.41,193.86 L970.22,213.73 L969.45,234.80 L970.03,245.03 L970.03,255.27 L970.99,265.50 L970.99,274.53 L970.03,281.16 L968.68,295.00 L967.92,308.85 L968.49,342.56 L969.64,366.65 L970.61,375.08 L970.61,394.94 L970.99,399.16 L970.03,417.82 L967.72,437.69 L967.53,442.50 L967.15,451.54 L967.15,468.99 L966.57,479.23 L966.57,484.65 L965.23,493.08 L964.46,495.48 L963.88,498.49 L964.65,500.90 L969.64,503.31 L998.85,512.94 L999.62,513.55 L1000.00,514.75 L999.42,518.96 L997.12,524.38 L989.24,532.81 L987.13,537.03 L981.94,542.44 L971.95,564.72 L965.80,574.95 L958.31,585.79 L947.17,599.04 L941.21,608.07 L931.60,629.74 L917.20,651.41 L907.01,671.28 L906.05,671.88 L906.44,671.88 L904.51,675.50 L904.32,677.30 L885.11,701.38 L879.54,710.42 L873.58,724.26 L870.32,732.69 L865.13,742.93 L842.84,777.84 L834.20,798.92 L828.82,806.74 L824.21,819.39 L818.64,832.03 L815.75,836.85 L811.91,841.06 L809.03,845.88 L803.07,861.53 L799.04,869.36 L791.16,887.42 L788.09,891.63 L781.56,903.07 L781.75,903.07 L779.44,906.68 L778.67,909.69 L777.91,910.30 L777.52,911.50 L773.29,917.52 L768.30,925.95 L765.03,930.16 L758.89,936.18 L747.36,941.60 L734.87,953.64 L725.26,958.46 L717.39,959.66 L704.71,958.46 L698.37,960.26 L694.33,962.07 L678.77,963.88 L666.09,971.10 L657.25,973.51 L652.64,973.51 L639.19,968.69 L633.43,968.69 L622.48,974.11 L612.68,973.51 L606.15,974.11 L594.04,981.34 L585.98,983.74 L579.25,983.14 L572.14,979.53 L563.69,979.53 L559.85,980.73 L553.51,986.75 L550.62,987.36 L543.90,986.15 L537.75,986.75 L531.99,989.77 L526.99,993.38 L521.81,994.58 L515.47,991.57 L507.40,990.37 L495.49,993.38 L491.64,993.98 L476.85,986.75 L462.63,986.75 L460.13,985.55 L454.56,978.93 L444.19,974.71 L442.46,975.92 L439.39,983.14 L438.42,987.96 L438.42,990.97 L438.81,993.38 L438.62,995.18 L435.54,997.59 L429.97,1000.00 L427.09,1000.00 L425.36,996.39 L422.09,991.57 L418.06,987.96 L412.68,985.55 L407.11,989.16 L405.00,991.57 L389.63,993.98 L380.02,996.39 L379.06,995.18 L378.87,993.98 L378.87,991.57 L378.10,985.55 L377.52,974.11 L377.14,972.91 L375.02,969.90 L372.14,968.69 L360.04,971.10 L352.55,971.10 L336.41,974.71 L322.96,976.52 L308.93,980.73 L306.24,980.73 L304.71,978.93 L304.13,968.09 L302.59,951.84 L301.63,945.82 L300.67,933.17 L299.33,922.34 L298.37,910.30 L297.98,905.48 L297.41,903.07 L293.76,894.64 L281.84,878.99 L272.05,868.15 L270.12,865.14 L269.93,863.94 L289.53,835.64 L289.53,833.84 L289.34,832.63 L285.69,827.21 L280.69,813.97 L278.77,810.96 L278.00,808.55 L279.35,806.14 L286.07,796.51 L290.49,788.68 L292.60,785.67" fill="none" stroke="#fc4c02" stroke-width="2" />
</svg>