<svg xmlns="http://www.w3.org/2000/svg" viewBox="0 0 1000 1000">
  <path d="M1000.00,42.67 L997.25,40.78 L997.04,40.30 L995.45,39.36 L989.94,39.04 L986.66,39.36 L981.16,39.20 L975.44,39.51 L962.74,42.52 L953.43,44.25 L949.83,45.68 L944.86,45.05 L940.83,43.94 L940.20,42.99 L940.41,40.30 L938.08,39.36 L933.85,39.67 L932.37,39.04 L921.46,33.51 L917.76,30.66 L904.11,23.87 L900.30,21.34 L897.44,19.91 L890.45,14.54 L884.42,11.06 L879.45,7.59 L876.69,6.01 L872.88,4.27 L872.57,3.95 L871.82,1.90 L870.77,0.63 L869.39,0.00 L863.78,0.16 L861.77,1.42 L861.88,2.69 L861.03,5.69 L858.91,8.38 L852.88,14.22 L849.60,17.07 L847.69,19.12 L838.17,26.55 L823.77,38.56 L819.54,42.36 L816.68,44.41 L809.06,47.26 L806.31,48.52 L804.19,50.26 L803.24,51.84 L802.50,53.74 L801.02,55.95 L798.58,58.01 L794.14,61.32 L787.68,65.75 L782.71,70.18 L777.62,73.81 L774.34,76.18 L771.17,77.60 L768.73,79.50 L766.51,81.40 L763.55,86.61 L761.85,88.19 L755.19,94.04 L752.54,95.94 L747.57,100.05 L744.60,102.89 L739.73,107.95 L731.69,115.06 L722.48,122.81 L716.02,127.71 L714.86,129.60 L713.70,132.13 L711.90,134.34 L702.16,142.72 L689.03,154.26 L688.72,154.42 L684.59,157.89 L676.44,165.96 L670.41,171.49 L655.69,182.71 L649.03,187.29 L638.55,195.35 L629.76,201.52 L620.87,208.79 L612.72,214.64 L606.80,219.69 L601.08,223.64 L597.16,226.65 L587.11,232.81 L571.34,245.77 L562.13,252.73 L551.76,260.79 L549.32,263.00 L544.45,266.32 L531.96,276.28 L523.18,284.50 L517.78,288.76 L510.27,294.29 L500.11,302.99 L490.58,309.63 L480.31,318.16 L477.88,319.90 L469.62,325.59 L459.78,331.44 L453.64,336.18 L448.67,340.13 L444.01,344.24 L440.52,348.82 L436.18,352.14 L428.87,357.36 L426.55,359.57 L417.76,369.05 L413.31,374.27 L405.38,384.54 L397.12,397.03 L395.85,399.40 L384.95,414.26 L375.53,428.32 L369.50,438.12 L367.59,442.39 L363.57,449.50 L359.97,454.40 L355.63,460.72 L354.36,462.78 L346.53,473.68 L343.67,478.11 L339.12,483.96 L332.24,495.02 L327.48,504.35 L324.51,509.40 L323.14,511.14 L320.28,515.88 L318.37,520.31 L317.63,522.68 L314.88,527.42 L312.66,532.01 L309.17,538.33 L307.37,541.96 L304.83,546.23 L302.82,550.50 L299.64,555.87 L298.26,558.72 L296.68,561.25 L294.14,566.46 L291.81,570.25 L289.16,575.63 L279.74,592.38 L278.47,595.07 L275.40,599.65 L272.33,605.34 L268.84,611.03 L265.03,617.99 L264.08,620.20 L262.70,622.41 L261.54,624.94 L258.47,629.52 L250.21,642.96 L245.55,649.12 L244.07,651.81 L242.17,653.86 L238.57,659.08 L236.03,662.24 L226.08,677.89 L224.17,680.10 L216.02,692.27 L214.01,694.48 L206.71,705.55 L202.16,711.55 L199.83,715.03 L197.82,718.51 L195.28,722.14 L193.90,723.88 L190.09,727.68 L187.13,731.31 L183.11,737.32 L181.52,740.16 L177.18,745.69 L171.25,754.86 L165.33,763.55 L162.26,768.77 L154.11,779.67 L152.52,782.20 L150.40,785.05 L146.17,792.16 L142.78,796.59 L139.82,801.17 L137.70,804.01 L134.74,809.07 L129.45,816.18 L128.07,818.40 L126.38,820.29 L122.88,825.04 L117.59,833.41 L107.32,847.00 L100.87,856.17 L95.79,862.97 L87.85,874.66 L79.91,886.04 L75.36,891.89 L66.26,905.17 L58.43,914.97 L54.40,921.61 L52.29,924.77 L47.95,930.30 L44.24,936.15 L40.01,941.99 L33.87,951.48 L31.75,954.16 L29.32,958.12 L28.58,959.06 L28.05,959.38 L26.46,962.23 L16.09,976.92 L13.65,980.88 L11.54,983.40 L5.93,991.62 L3.49,994.63 L0.00,1000.00 L1.06,998.26 L3.07,995.57 L9.95,984.67 L13.87,979.45 L15.56,976.45 L18.95,971.08 L23.39,964.91 L27.41,958.75 L33.66,949.74 L40.22,941.05 L43.92,935.51 L48.05,930.30 L55.04,919.87 L63.51,908.65 L65.62,905.33 L73.77,894.42 L77.37,888.57 L79.38,885.73 L82.45,881.62 L83.30,881.14 L84.14,880.04 L86.90,875.14 L92.72,867.55 L96.10,862.34 L102.24,854.43 L109.86,842.90 L114.52,837.05 L118.23,831.20 L120.77,827.88 L123.84,823.46 L125.11,821.56 L131.88,812.55 L134.63,808.12 L139.29,801.49 L142.36,796.59 L145.53,792.63 L148.50,787.74 L154.95,778.57 L156.33,776.20 L158.02,773.98 L160.88,769.08 L164.16,764.34 L167.65,759.60 L171.68,753.12 L182.26,738.90 L188.29,729.10 L190.62,726.25 L194.43,722.93 L196.55,720.40 L198.14,717.40 L200.25,714.08 L205.44,706.81 L216.98,689.43 L220.26,684.68 L225.66,677.57 L231.16,669.67 L235.61,662.24 L241.53,653.71 L255.72,631.42 L258.26,627.94 L260.16,625.89 L261.54,623.99 L268.20,612.45 L276.35,597.28 L279.21,593.01 L284.29,583.69 L285.67,581.79 L286.62,579.74 L291.81,571.04 L297.21,561.09 L303.98,547.02 L305.36,544.49 L307.90,540.70 L310.33,535.48 L312.24,532.16 L313.08,531.06 L321.34,514.94 L328.32,503.24 L329.91,499.29 L331.08,496.92 L333.93,491.86 L338.27,485.38 L339.44,483.96 L343.46,478.58 L344.94,475.90 L352.67,464.99 L357.96,456.46 L360.18,452.51 L367.91,441.44 L369.81,436.38 L374.89,428.80 L375.95,426.74 L383.47,416.94 L386.01,412.68 L389.18,408.09 L390.66,405.56 L398.39,394.66 L399.56,392.76 L403.79,386.76 L413.42,373.32 L422.95,361.78 L425.49,358.94 L427.60,357.20 L429.93,355.62 L435.75,351.83 L438.51,349.77 L441.26,347.24 L444.75,342.97 L453.54,335.86 L457.87,332.07 L461.05,330.01 L467.61,326.70 L471.00,324.48 L476.82,319.58 L485.39,313.10 L487.93,311.68 L492.27,308.36 L495.98,305.04 L498.73,303.30 L507.41,295.87 L511.33,292.71 L515.77,288.76 L526.14,281.97 L528.26,279.75 L530.17,277.38 L532.71,275.17 L535.77,273.12 L546.68,263.95 L551.12,260.63 L555.46,256.84 L561.49,252.41 L564.78,249.41 L573.35,243.24 L577.48,239.61 L582.03,236.45 L588.38,231.07 L596.74,226.17 L600.76,222.85 L608.59,217.32 L615.16,212.42 L623.52,206.73 L630.29,201.52 L635.27,198.04 L643.42,191.72 L645.22,190.61 L651.67,185.55 L661.30,178.28 L667.87,173.70 L678.77,163.58 L681.63,161.06 L683.74,159.00 L687.34,156.31 L694.22,150.31 L699.83,144.62 L708.19,137.82 L712.11,134.19 L713.38,132.76 L714.33,130.87 L715.18,128.81 L716.34,127.07 L722.38,122.81 L727.77,118.07 L732.64,114.27 L742.17,104.95 L747.14,101.00 L749.68,98.47 L756.14,93.25 L758.36,91.04 L763.12,86.93 L764.82,84.56 L765.88,82.03 L767.68,80.29 L769.48,78.87 L775.61,75.87 L784.08,69.07 L786.62,66.54 L792.87,61.96 L795.41,60.53 L800.06,57.22 L801.76,55.32 L802.82,53.58 L803.77,50.73 L804.72,49.00 L805.57,48.36 L808.95,46.78 L816.57,44.73 L819.43,43.31 L824.62,39.67 L829.49,35.40 L835.31,29.40 L837.00,28.45 L838.59,26.39 L841.13,24.81 L843.67,21.81 L845.05,20.86 L847.69,18.02 L849.28,17.23 L851.19,15.49 L852.03,15.02 L852.67,14.86 L854.47,15.02 L855.74,14.70 L858.70,13.12 L861.13,12.64 L861.77,11.85 L862.83,11.38 L864.20,11.06 L866.74,11.22 L867.59,11.06 L868.33,10.43 L870.13,7.27 L872.57,5.85 L873.62,5.69 L877.33,6.95 L879.13,8.06 L882.20,9.17 L888.65,13.12 L888.97,12.80 L890.98,13.43 L893.73,14.86 L903.26,21.18 L907.81,24.50 L911.62,26.87 L913.84,28.61 L916.28,29.71 L919.67,31.61 L921.15,33.35 L924.53,35.40 L937.13,41.73 L940.73,41.25 L941.89,41.73 L943.27,43.15 L942.95,44.10 L942.74,46.15 L944.54,47.26 L951.74,49.63 L952.90,49.15 L955.02,47.57 L958.51,46.31 L966.45,44.89 L979.57,41.25 L984.34,41.25 L994.50,41.73 L997.35,42.36 L999.26,44.10 L999.26,44.57" fill="none" stroke="#fc4c02" stroke-width="2" />
</svg>