<svg xmlns="http://www.w3.org/2000/svg" viewBox="0 0 1000 1000">
  <path d="M1000.00,999.69 L998.70,999.85 L995.36,1000.00 L992.30,999.92 L973.76,998.53 L951.97,996.60 L917.93,993.98 L914.97,993.59 L913.02,992.90 L912.93,992.66 L913.11,992.28 L913.39,992.12 L919.14,990.58 L922.39,989.50 L925.26,988.42 L928.97,986.64 L931.19,985.25 L933.42,983.40 L934.81,981.93 L935.83,980.54 L936.48,978.38 L936.29,975.44 L935.37,973.20 L934.16,971.51 L928.69,964.86 L927.02,962.70 L925.63,960.46 L924.24,958.84 L922.57,955.83 L922.29,954.75 L922.01,954.52 L921.64,953.44 L920.07,950.73 L920.16,950.19 L919.05,947.80 L918.58,946.18 L917.84,945.10 L917.56,944.32 L916.26,942.32 L914.41,939.92 L913.30,939.15 L911.44,937.37 L910.79,936.68 L906.81,932.74 L904.40,930.19 L901.24,925.41 L900.87,925.10 L899.20,921.62 L898.92,920.39 L898.65,920.00 L897.72,919.61 L896.33,919.38 L892.90,919.38 L889.28,919.61 L884.83,919.61 L880.93,919.46 L875.46,918.92 L871.29,918.07 L868.05,917.22 L865.26,916.37 L862.67,915.29 L859.98,914.44 L855.80,912.74 L849.31,910.50 L841.15,907.26 L831.88,904.02 L808.51,895.29 L806.94,894.83 L804.25,894.36 L792.47,893.20 L777.45,891.43 L773.74,890.81 L769.47,889.50 L767.25,888.96 L758.16,887.72 L748.42,886.64 L739.80,885.25 L735.63,884.71 L727.28,883.86 L719.96,883.01 L716.52,882.39 L709.38,880.39 L706.14,879.85 L703.64,879.61 L699.18,879.54 L698.16,879.69 L695.47,880.08 L689.35,881.78 L683.51,882.39 L676.84,882.24 L670.62,882.32 L668.12,882.24 L665.24,882.32 L663.76,882.16 L659.31,882.16 L654.95,882.32 L654.12,882.47 L650.22,882.63 L643.73,882.39 L634.27,882.63 L629.91,883.09 L629.08,883.32 L624.72,883.94 L623.33,884.32 L618.42,885.02 L603.39,886.56 L598.39,886.56 L592.64,886.72 L584.76,887.41 L577.99,887.57 L572.33,887.41 L563.24,886.72 L559.72,886.72 L555.17,886.95 L553.78,887.34 L548.31,887.95 L545.62,888.03 L541.64,887.95 L537.09,887.26 L528.47,885.41 L522.07,883.47 L519.38,882.39 L517.90,881.39 L514.74,879.92 L512.98,878.92 L511.59,878.30 L510.01,876.99 L509.27,875.98 L508.35,872.82 L507.70,871.89 L507.42,871.27 L506.68,870.27 L506.21,868.73 L506.49,868.19 L506.95,866.18 L506.95,864.94 L507.33,864.09 L507.70,862.32 L507.60,860.85 L507.14,859.77 L507.33,859.07 L506.95,858.61 L507.33,858.46 L507.33,857.14 L507.51,856.60 L507.42,856.53 L509.09,854.75 L509.74,853.51 L510.01,852.90 L509.92,852.05 L510.11,851.89 L509.92,850.97 L509.18,849.65 L507.51,847.57 L507.23,847.03 L505.93,845.95 L505.38,845.17 L504.36,844.32 L504.17,843.86 L503.52,843.32 L503.25,842.78 L502.23,841.93 L500.74,839.85 L500.93,838.92 L500.83,838.46 L501.11,837.61 L501.48,837.07 L501.48,836.45 L501.95,835.60 L501.95,835.06 L502.41,833.98 L501.85,832.12 L501.02,831.27 L500.93,830.97 L500.65,830.81 L500.46,830.50 L499.81,830.04 L499.72,829.65 L499.44,829.50 L496.48,826.18 L494.81,824.94 L493.51,823.63 L492.95,823.40 L493.05,823.17 L491.75,821.78 L491.56,821.39 L491.28,821.16 L490.54,820.00 L490.45,819.23 L490.63,818.92 L490.63,818.69 L491.84,817.99 L492.95,817.76 L498.70,817.30 L502.78,816.60 L506.12,816.14 L507.23,815.91 L507.97,815.44 L507.88,814.98 L507.51,814.75 L501.67,812.90 L500.19,812.28 L499.26,811.51 L498.98,810.97 L498.61,810.73 L498.61,810.35 L498.33,810.19 L497.77,809.03 L497.87,808.80 L497.59,808.34 L497.87,807.80 L498.61,807.34 L499.07,806.72 L499.35,806.25 L499.26,806.10 L498.98,805.56 L498.52,805.25 L496.38,804.40 L495.36,803.78 L495.18,803.24 L494.81,802.86 L494.62,802.24 L494.62,801.54 L495.27,800.85 L497.40,800.00 L498.33,799.31 L498.42,798.38 L498.15,797.76 L497.59,797.37 L497.03,797.07 L495.64,796.76 L493.51,796.45 L489.80,796.22 L487.20,796.29 L483.22,797.14 L479.69,797.14 L474.31,796.37 L472.00,795.83 L470.51,795.37 L469.40,794.67 L469.21,794.52 L469.31,793.67 L469.77,793.28 L472.09,791.89 L472.55,791.27 L473.02,790.97 L473.48,790.27 L473.57,789.81 L473.94,788.73 L473.85,788.42 L474.04,787.80 L473.76,786.72 L473.94,786.18 L473.76,785.64 L474.04,784.86 L473.85,784.02 L472.92,783.17 L470.60,782.24 L468.75,782.55 L465.69,782.24 L462.72,781.54 L460.68,780.85 L458.83,779.54 L457.72,778.07 L457.25,777.84 L457.16,777.37 L456.79,776.99 L454.56,775.75 L452.61,775.06 L450.39,774.05 L449.55,773.44 L448.44,771.27 L448.26,770.19 L448.35,769.03 L449.37,767.49 L449.65,766.49 L449.93,765.95 L449.83,765.56 L449.93,765.41 L449.83,764.40 L450.02,764.02 L449.65,763.86 L449.46,762.78 L448.91,761.70 L447.79,760.54 L444.83,758.53 L443.90,756.99 L442.88,755.83 L440.19,754.05 L438.80,752.90 L437.96,752.43 L437.87,752.12 L437.04,751.51 L436.11,750.97 L435.00,749.96 L433.33,748.80 L429.43,745.25 L423.13,741.31 L422.11,739.85 L422.11,739.07 L421.64,738.30 L421.83,737.53 L421.36,735.44 L420.25,733.36 L420.34,732.43 L421.46,731.27 L421.83,730.50 L421.83,730.04 L421.64,729.50 L419.51,727.18 L417.93,725.71 L416.36,724.56 L414.97,722.70 L413.67,721.54 L411.44,720.39 L408.94,719.54 L407.08,719.15 L404.40,717.99 L402.36,716.60 L400.50,714.67 L399.57,713.44 L397.90,711.81 L395.86,710.12 L394.57,709.42 L392.90,708.11 L391.41,707.26 L384.83,704.63 L383.81,703.55 L383.44,703.32 L382.14,702.16 L381.58,701.24 L382.42,699.92 L382.60,699.31 L382.33,698.61 L381.77,697.99 L377.78,696.14 L375.93,695.52 L372.96,694.90 L368.14,693.13 L364.34,691.43 L362.67,690.27 L361.46,688.49 L361.18,687.49 L361.37,686.64 L361.09,685.71 L361.09,684.71 L360.53,683.55 L360.53,682.93 L360.07,682.32 L359.70,681.47 L359.24,680.93 L358.96,679.92 L358.40,679.15 L358.22,678.46 L357.94,678.07 L357.75,677.84 L357.10,676.37 L357.29,675.68 L357.57,675.29 L360.91,673.67 L367.03,670.19 L367.95,669.50 L368.23,669.11 L368.42,668.57 L364.99,659.23 L364.89,657.99 L365.54,656.06 L365.45,655.68 L364.52,654.67 L362.85,653.28 L361.55,651.74 L361.37,651.35 L361.37,650.81 L361.93,650.12 L361.93,649.88 L361.74,649.58 L360.35,648.57 L360.07,647.72 L360.72,646.95 L363.13,645.95 L364.71,644.94 L365.08,644.17 L364.80,643.40 L363.32,642.63 L357.66,642.01 L354.51,641.31 L349.31,639.46 L345.98,638.07 L344.58,637.76 L339.21,637.68 L334.20,637.14 L330.03,636.91 L328.08,636.60 L325.76,635.83 L324.09,635.52 L321.22,635.29 L313.52,635.14 L306.84,635.21 L303.41,635.44 L298.96,635.98 L295.81,635.91 L294.23,635.68 L287.93,634.13 L286.72,633.75 L281.16,632.43 L279.77,631.97 L276.89,630.58 L275.50,630.27 L273.28,629.88 L264.47,629.11 L262.89,628.80 L253.71,626.18 L249.54,625.33 L246.94,624.56 L245.18,623.78 L243.88,623.01 L242.58,621.93 L242.58,621.62 L242.21,620.62 L242.40,617.68 L242.30,615.83 L242.40,615.52 L242.12,615.21 L242.49,614.90 L242.49,614.75 L243.42,613.82 L243.42,613.51 L243.88,613.13 L244.16,612.82 L244.07,612.74 L244.16,612.51 L244.71,612.20 L245.18,611.66 L245.46,611.27 L245.83,611.12 L246.01,610.66 L246.75,610.35 L247.13,609.88 L247.87,609.65 L247.87,609.50 L248.79,609.19 L248.98,608.88 L249.35,608.73 L249.63,608.42 L251.11,607.64 L251.39,607.41 L252.69,606.80 L252.97,606.41 L253.99,606.18 L255.01,605.79 L255.66,605.02 L255.19,604.25 L253.34,603.01 L252.97,602.39 L252.97,601.62 L253.25,601.08 L252.97,600.15 L252.23,599.61 L251.67,598.84 L250.37,595.98 L248.98,593.44 L247.87,592.20 L246.85,590.19 L246.85,589.88 L246.57,588.49 L246.66,588.34 L246.38,587.18 L246.57,586.64 L246.38,586.41 L246.29,584.86 L246.38,584.25 L246.20,583.63 L246.57,583.01 L246.57,582.08 L246.48,581.93 L246.48,581.70 L245.73,581.16 L245.46,580.62 L245.55,580.23 L246.01,579.92 L246.11,579.07 L245.92,577.22 L245.55,576.22 L245.36,574.36 L245.46,572.74 L245.27,572.12 L245.64,569.81 L245.64,569.19 L245.83,568.80 L245.83,567.80 L246.38,566.95 L246.01,566.33 L246.20,565.25 L246.01,564.86 L246.20,564.09 L246.75,563.47 L247.77,561.70 L248.24,560.54 L248.61,560.08 L248.70,558.22 L248.98,557.76 L248.70,557.53 L249.17,557.22 L249.17,556.76 L250.37,555.21 L250.93,553.59 L251.21,553.13 L251.11,552.82 L251.58,552.28 L252.04,550.81 L251.21,545.10 L250.56,543.55 L249.91,541.24 L248.52,539.38 L247.96,538.92 L246.85,538.22 L246.11,537.61 L243.32,536.37 L239.34,535.06 L237.48,534.21 L234.14,532.43 L231.82,531.35 L224.31,528.57 L221.72,527.95 L220.70,527.95 L218.29,527.64 L217.73,527.72 L215.78,527.41 L210.59,526.95 L203.45,526.56 L201.13,526.25 L187.78,525.56 L185.74,525.71 L183.05,525.56 L178.13,524.86 L171.55,523.55 L168.95,523.40 L161.72,522.55 L159.31,522.47 L153.38,521.93 L147.26,521.85 L140.49,521.54 L130.84,521.54 L128.34,521.39 L125.19,520.93 L122.13,520.69 L117.67,519.85 L116.47,519.92 L114.71,519.77 L113.59,519.92 L111.74,519.54 L110.26,519.38 L101.08,518.84 L89.48,518.84 L84.66,518.61 L79.19,517.99 L75.30,517.37 L74.09,517.07 L72.05,516.22 L70.85,515.44 L70.57,515.06 L70.29,514.36 L70.29,513.44 L70.75,510.50 L71.59,508.42 L72.33,507.34 L72.33,506.41 L72.61,506.25 L73.16,504.94 L74.00,504.09 L74.18,503.55 L75.39,502.47 L76.87,501.62 L78.64,500.15 L82.16,497.84 L82.72,497.37 L82.72,497.14 L83.55,496.83 L85.31,495.68 L86.42,495.21 L86.80,494.90 L88.19,494.29 L88.37,493.98 L89.76,493.36 L90.13,492.82 L92.17,491.66 L94.31,490.04 L98.11,488.03 L99.50,486.72 L100.80,484.63 L102.37,483.17 L104.88,482.01 L107.66,481.16 L111.00,479.77 L117.21,477.84 L119.62,476.83 L125.74,475.44 L127.50,474.90 L129.45,474.21 L130.38,473.75 L131.68,472.82 L134.18,469.88 L137.70,467.10 L140.86,465.17 L143.55,464.02 L146.42,462.39 L148.09,461.62 L149.11,460.77 L149.39,460.39 L149.76,459.54 L149.85,457.45 L148.65,455.29 L147.72,454.29 L146.05,452.66 L145.59,452.05 L145.49,451.58 L145.77,451.04 L147.16,449.81 L148.00,448.88 L148.18,448.42 L148.83,447.80 L149.48,447.41 L150.69,445.33 L150.78,444.63 L151.06,444.25 L151.15,443.01 L150.50,441.93 L150.59,441.70 L150.04,440.54 L149.85,440.46 L149.94,440.23 L149.57,439.61 L149.67,439.23 L149.39,438.92 L149.48,438.38 L149.02,437.14 L148.65,436.60 L146.51,434.98 L146.51,434.83 L145.86,434.90 L145.59,434.59 L144.66,434.21 L143.08,432.97 L140.76,432.20 L139.37,431.51 L138.07,431.35 L135.66,430.50 L131.86,429.50 L121.75,428.03 L119.90,427.64 L118.23,427.18 L109.70,425.41 L104.88,424.86 L101.91,424.63 L92.92,425.10 L86.98,425.95 L80.21,425.71 L73.44,424.71 L59.81,422.01 L47.94,419.77 L42.66,418.53 L37.28,416.99 L36.63,416.68 L35.61,416.06 L34.87,415.14 L33.10,412.59 L30.79,410.19 L30.14,409.73 L28.93,409.03 L26.15,407.88 L24.48,406.95 L22.72,405.71 L21.88,404.71 L20.86,402.70 L20.49,402.39 L20.40,401.31 L20.59,400.77 L20.49,400.15 L19.29,398.61 L15.49,394.98 L12.80,392.97 L12.24,392.51 L12.24,392.28 L11.22,391.74 L11.03,391.35 L9.55,390.04 L7.42,388.80 L6.86,388.19 L4.45,386.10 L1.48,384.48 L0.09,383.24 L0.00,382.70 L0.65,381.85 L2.60,380.62 L4.64,380.08 L8.35,379.23 L9.37,378.69 L9.64,378.22 L10.66,377.53 L10.85,376.60 L10.66,375.83 L10.85,375.29 L12.24,374.52 L14.28,373.82 L17.34,373.51 L25.96,372.05 L29.49,371.27 L33.01,370.04 L33.94,369.50 L34.87,368.57 L35.52,367.49 L35.79,364.56 L35.70,361.85 L35.42,360.69 L35.61,357.92 L35.79,357.68 L35.89,357.30 L36.35,356.76 L37.83,355.52 L38.95,354.90 L39.32,354.52 L40.62,353.59 L41.54,353.20 L44.60,351.51 L49.52,349.50 L55.36,347.34 L57.59,346.41 L59.44,345.33 L61.20,343.78 L62.87,341.93 L65.00,340.23 L65.65,339.46 L66.12,339.07 L67.69,337.07 L68.53,336.37 L68.53,336.06 L69.27,335.37 L70.75,333.44 L73.53,331.04 L74.74,330.27 L75.39,329.73 L75.76,329.11 L75.95,328.26 L76.41,327.57 L76.59,327.03 L77.61,325.64 L78.08,325.25 L80.40,321.62 L81.42,320.69 L84.01,318.53 L84.66,317.76 L85.13,316.68 L85.31,315.44 L84.57,312.90 L83.74,311.43 L83.92,310.58 L83.74,309.73 L83.83,309.27 L83.46,308.42 L83.46,307.57 L82.90,305.41 L82.16,303.47 L81.97,301.78 L82.44,299.61 L83.18,297.14 L83.46,295.29 L83.83,294.90 L84.38,293.05 L86.33,290.19 L86.42,288.80 L86.80,287.49 L86.98,283.78 L87.72,282.78 L89.86,281.54 L90.23,281.16 L93.10,278.92 L93.75,278.53 L94.96,277.45 L95.88,276.06 L95.79,273.75 L95.98,272.90 L96.62,272.05 L97.37,270.73 L98.76,269.65 L100.24,268.73 L101.82,268.19 L103.12,267.80 L105.34,267.57 L110.26,267.26 L111.83,267.03 L112.85,266.56 L113.69,265.71 L113.78,265.56 L113.69,265.17 L113.32,264.56 L111.28,262.70 L110.81,261.39 L110.81,260.54 L111.28,259.54 L111.83,258.76 L113.97,256.99 L115.82,255.75 L117.03,254.59 L117.58,253.51 L117.58,252.51 L117.77,251.74 L118.42,250.66 L119.53,249.50 L121.57,247.88 L122.68,246.33 L122.96,245.71 L122.87,245.33 L123.05,244.79 L122.68,243.47 L122.96,243.17 L122.77,242.70 L122.87,242.47 L122.59,241.54 L122.68,238.07 L122.31,236.37 L122.77,234.36 L124.72,233.20 L126.76,232.51 L131.77,231.89 L136.13,232.36 L140.67,233.28 L144.38,233.90 L148.00,234.21 L151.71,234.13 L155.42,233.67 L162.28,232.51 L170.53,230.81 L175.45,229.96 L177.86,229.27 L178.69,229.03 L180.55,228.11 L184.44,225.33 L185.46,224.09 L186.02,223.32 L190.47,219.38 L193.16,216.22 L197.14,212.59 L200.20,209.34 L204.19,206.18 L209.38,202.86 L212.26,200.69 L213.56,200.00 L217.08,198.61 L219.86,197.84 L223.39,196.37 L226.63,194.83 L229.23,193.28 L233.03,190.73 L234.51,189.88 L235.63,189.50 L237.11,189.11 L251.67,186.87 L260.66,186.02 L270.03,185.41 L272.26,185.10 L277.08,183.71 L282.27,181.62 L285.42,180.23 L287.56,179.61 L290.43,179.38 L295.81,179.31 L304.62,178.53 L319.55,176.60 L325.76,175.37 L328.82,174.59 L331.42,173.44 L333.36,172.05 L334.76,170.27 L335.78,169.27 L338.37,167.49 L340.50,166.41 L344.21,164.79 L348.29,163.47 L353.39,162.55 L358.31,162.16 L367.58,162.32 L375.00,162.78 L382.23,163.47 L388.45,164.32 L393.18,165.33 L396.61,166.33 L399.02,167.18 L402.45,168.03 L404.30,168.34 L408.10,168.57 L414.32,168.49 L418.95,168.11 L424.61,167.18 L431.38,166.49 L434.16,165.56 L435.00,165.25 L436.39,164.25 L437.87,162.93 L438.24,162.32 L438.71,161.31 L438.98,159.69 L441.12,157.30 L443.99,155.44 L445.38,153.82 L446.03,153.28 L447.42,152.43 L449.18,151.66 L454.47,149.81 L459.66,148.34 L462.17,147.80 L464.21,147.88 L466.15,148.34 L468.19,149.27 L470.51,149.73 L472.46,149.65 L473.57,149.50 L475.33,148.88 L477.28,147.41 L482.38,142.24 L486.65,138.69 L487.95,137.76 L488.59,137.07 L489.34,136.53 L491.56,135.37 L499.26,131.81 L506.77,127.88 L512.98,124.32 L514.93,123.01 L516.04,122.47 L519.10,120.08 L521.79,118.22 L522.07,117.76 L525.69,115.06 L526.43,114.75 L530.79,111.35 L532.46,110.27 L536.26,108.11 L538.30,107.34 L541.26,106.56 L543.86,106.10 L546.74,105.71 L552.76,105.33 L567.32,105.10 L568.90,104.94 L571.59,104.63 L574.74,104.02 L578.08,103.01 L579.56,102.39 L583.09,100.54 L586.15,98.38 L587.17,97.45 L589.58,95.68 L591.80,94.13 L595.70,91.81 L599.59,89.81 L601.91,88.42 L604.04,86.56 L605.16,85.33 L605.99,84.09 L606.27,82.39 L606.36,80.54 L607.47,76.68 L606.73,73.67 L605.34,70.66 L604.69,68.42 L604.69,67.95 L605.34,66.87 L606.08,65.79 L610.91,62.63 L613.87,61.62 L616.75,61.00 L622.50,59.92 L639.65,57.14 L641.51,56.60 L643.82,55.68 L645.12,54.52 L645.86,53.20 L646.98,45.56 L647.35,44.09 L648.37,42.01 L649.20,40.54 L650.87,38.38 L653.38,36.14 L653.56,35.68 L653.56,35.44 L653.00,35.06 L650.96,34.67 L644.20,34.44 L637.24,33.98 L627.04,33.13 L614.52,31.89 L605.06,31.27 L598.94,30.97 L593.38,30.97 L583.09,31.12 L573.53,31.66 L557.59,33.05 L552.39,33.67 L544.42,34.44 L530.79,35.37 L517.25,35.83 L508.07,35.98 L502.60,35.98 L489.89,35.44 L478.58,34.67 L462.54,33.28 L440.93,30.97 L419.42,28.88 L414.50,28.34 L410.52,27.41 L399.94,26.10 L395.40,25.48 L380.47,22.78 L367.95,20.15 L353.12,16.53 L344.96,14.21 L341.34,13.05 L335.50,11.12 L329.56,8.88 L326.50,7.57 L322.05,5.48 L316.39,2.08 L315.65,1.54 L313.80,0.54 L313.24,0.00" fill="none" stroke="#fc4c02" stroke-width="2" />
</svg>