<svg xmlns="http://www.w3.org/2000/svg" viewBox="0 0 1000 1000">
  <path d="M366.56,745.54 L365.45,745.54 L365.13,744.39 L365.29,742.66 L361.65,733.45 L361.49,732.30 L362.12,729.99 L361.97,728.84 L360.38,724.24 L359.43,723.09 L349.92,723.09 L336.29,721.36 L331.85,723.09 L322.66,730.57 L313.00,736.33 L300.79,741.51 L297.46,744.39 L291.13,753.60 L289.06,751.87 L286.21,750.72 L279.56,746.11 L277.81,743.24 L277.18,739.78 L277.34,736.33 L278.13,732.30 L277.97,729.99 L275.91,726.54 L274.48,724.81 L270.21,727.12 L266.56,726.54 L259.11,715.03 L249.45,703.51 L247.39,699.48 L246.12,695.45 L243.90,692.00 L221.71,658.61 L200.95,626.37 L192.87,616.58 L182.41,599.31 L175.12,591.82 L174.01,588.37 L173.69,584.92 L174.01,582.61 L173.53,579.16 L170.52,574.55 L169.10,573.40 L161.81,573.98 L157.69,579.16 L156.89,579.16 L153.57,577.43 L150.40,582.04 L148.49,582.61 L138.51,571.68 L133.28,561.31 L130.59,553.83 L127.10,545.77 L120.76,534.83 L114.10,525.04 L101.58,511.80 L97.15,504.89 L92.55,495.11 L89.54,490.50 L77.34,473.81 L74.80,467.47 L70.52,449.05 L67.99,442.72 L65.61,438.11 L61.33,432.93 L57.21,430.05 L53.57,428.90 L52.14,427.17 L53.88,415.66 L55.31,409.90 L56.74,407.02 L64.03,399.54 L68.46,393.21 L72.42,384.00 L77.02,375.36 L88.75,360.97 L102.22,337.94 L107.29,322.97 L112.20,305.12 L115.69,294.76 L119.02,290.73 L121.87,290.16 L130.11,290.16 L134.07,288.43 L137.08,285.55 L140.41,279.22 L143.26,268.85 L146.59,259.64 L158.32,240.64 L159.43,237.19 L160.06,232.58 L158.95,219.92 L161.17,215.89 L164.66,206.68 L165.45,202.65 L166.72,193.44 L169.41,184.80 L170.52,177.89 L170.05,164.65 L170.21,161.20 L170.68,158.32 L172.42,153.71 L179.40,144.50 L188.91,140.47 L194.29,134.72 L202.54,128.96 L211.09,125.50 L217.75,118.02 L223.77,106.51 L225.67,104.20 L230.59,103.63 L235.50,104.78 L239.46,108.23 L241.36,113.41 L243.11,115.14 L249.45,120.90 L253.25,123.20 L274.64,124.93 L313.00,138.74 L317.75,141.05 L324.41,146.23 L325.83,146.23 L331.06,140.47 L335.50,139.90 L343.74,137.02 L358.48,127.81 L363.39,122.05 L368.30,113.99 L371.00,107.66 L374.33,103.63 L383.04,89.23 L384.79,86.93 L391.44,88.08 L401.58,77.14 L403.01,76.57 L417.27,79.45 L419.18,78.87 L423.93,73.69 L425.99,72.54 L428.21,71.96 L434.55,73.69 L438.83,73.11 L457.53,55.27 L465.61,49.51 L467.67,48.36 L473.69,48.36 L485.42,44.91 L495.88,39.72 L510.94,30.51 L514.26,29.94 L516.80,27.63 L522.03,25.33 L523.61,23.60 L529.16,20.15 L545.48,12.67 L562.92,3.45 L569.41,1.15 L581.14,0.00 L589.06,1.73 L599.68,1.73 L603.17,2.88 L607.61,5.76 L611.09,6.33 L614.74,5.18 L618.70,2.88 L621.08,3.45 L623.61,6.33 L627.42,16.12 L627.58,18.42 L628.68,23.03 L631.70,29.36 L651.98,40.30 L656.10,40.88 L676.86,42.03 L679.71,41.45 L688.75,42.60 L700.63,41.45 L711.09,42.03 L723.30,40.88 L728.68,39.15 L739.62,32.82 L755.47,21.88 L761.33,17.27 L767.83,14.39 L769.41,15.54 L771.00,20.15 L775.44,35.69 L786.05,78.87 L787.48,80.60 L795.40,77.14 L796.51,81.17 L797.46,83.48 L799.68,84.05 L826.94,68.51 L837.88,61.60 L839.30,61.02 L842.00,62.75 L845.96,61.60 L848.34,64.48 L853.72,84.63 L854.04,88.66 L853.88,104.20 L853.41,143.93 L853.72,146.23 L855.63,153.71 L855.94,157.17 L855.15,165.80 L853.09,177.32 L852.93,182.50 L852.77,202.07 L852.30,217.62 L852.30,236.61 L852.46,242.95 L853.25,253.31 L853.57,258.49 L852.77,268.28 L851.19,282.67 L851.19,288.43 L850.55,293.03 L851.03,295.91 L850.55,302.25 L851.03,305.70 L850.87,313.18 L851.51,320.67 L851.51,324.70 L851.98,339.67 L853.25,356.36 L853.57,367.30 L853.25,374.78 L853.41,379.39 L852.61,398.96 L851.19,415.66 L850.55,431.78 L849.92,436.38 L849.60,458.84 L848.65,468.05 L847.07,475.53 L847.07,476.68 L847.23,477.84 L860.86,483.02 L897.46,499.71 L918.54,512.95 L938.35,529.07 L948.34,539.44 L956.58,549.22 L966.09,561.89 L974.01,573.98 L985.90,595.28 L990.49,604.49 L999.84,626.37 L1000.00,628.09 L996.35,633.28 L995.09,632.70 L994.29,633.85 L984.79,644.21 L968.15,659.76 L943.58,689.69 L919.33,711.00 L901.58,734.02 L893.50,739.78 L880.51,751.30 L860.86,775.47 L832.01,803.11 L816.64,821.53 L787.48,852.62 L767.04,869.89 L750.24,882.56 L730.27,893.49 L706.50,903.28 L682.41,908.46 L679.24,907.89 L677.18,906.74 L673.06,900.40 L669.89,898.68 L668.30,899.83 L660.06,909.61 L656.58,912.49 L648.97,916.52 L644.37,917.10 L633.12,915.95 L622.50,920.55 L613.47,920.55 L609.51,921.70 L600.32,928.61 L594.29,930.34 L588.75,929.76 L579.71,925.73 L574.80,925.73 L564.66,930.92 L552.93,931.49 L539.46,939.55 L533.91,940.70 L523.93,936.67 L517.43,936.10 L513.47,937.82 L509.03,942.43 L506.66,943.58 L500.32,943.01 L494.14,944.16 L485.74,949.34 L483.52,949.91 L469.73,947.04 L467.67,947.04 L460.22,950.49 L456.89,950.49 L449.29,945.31 L444.53,943.58 L440.41,943.01 L434.87,944.16 L432.49,943.58 L426.31,935.52 L418.38,932.07 L417.12,933.79 L415.69,938.98 L415.06,942.43 L414.74,948.19 L414.26,950.49 L412.20,952.22 L404.60,956.25 L401.58,966.03 L399.68,968.91 L397.15,970.06 L269.10,996.55 L252.46,999.42 L226.94,1000.00 L209.03,997.70 L186.21,993.09 L167.99,986.76 L149.60,978.12 L135.02,969.49 L130.43,969.49 L127.42,971.21 L122.66,968.34 L97.94,949.34 L72.74,924.58 L64.18,914.80 L56.42,904.43 L52.30,900.40 L39.14,884.28 L34.23,875.07 L32.01,869.31 L30.59,867.01 L27.10,864.13 L20.44,862.41 L20.29,861.26 L21.39,857.80 L28.84,848.59 L46.91,814.05 L65.29,782.96 L68.94,773.17 L71.16,760.51 L72.90,754.17 L74.33,751.30 L77.50,747.27 L77.97,744.39 L69.26,712.72 L67.19,706.97 L65.13,702.94 L57.05,690.27 L48.34,678.18 L23.14,640.18 L12.36,625.22 L1.43,611.40 L0.48,607.37 L0.00,597.01 L0.48,585.49 L2.06,578.01 L3.01,575.13 L1.74,571.10 L1.27,568.80 L1.58,567.07 L4.75,563.04 L14.42,561.31 L21.87,556.71 L24.72,557.28 L27.58,559.59 L36.77,564.19 L44.37,565.34 L49.13,564.77 L53.88,563.04 L60.86,558.43 L70.05,548.07 L73.06,541.74 L77.97,529.07 L82.41,512.38 L85.58,502.59 L88.11,495.68 L117.91,432.35 L123.77,421.42 L132.01,416.81 L165.61,402.42 L200.32,386.30 L202.06,386.30 L202.38,387.45 L203.80,394.36 L204.28,397.81 L205.39,401.27 L209.51,400.12 L213.31,397.81 L218.86,395.51 L225.20,389.75 L231.85,379.39 L245.17,355.79 L247.54,352.33 L251.03,348.88 L263.55,340.24 L265.45,337.94 L278.45,316.06 L282.73,314.34 L288.75,310.88 L293.50,310.88 L299.37,317.79 L305.71,328.15 L309.67,329.88 L314.42,327.00 L319.49,321.24 L330.43,304.55 L336.45,302.82 L341.20,304.55 L345.17,309.73 L349.92,317.79 L355.47,325.27 L358.80,330.45 L360.06,331.61 L361.49,330.45 L363.07,331.61 L364.98,333.91 L374.33,348.30 L379.40,355.79 L388.27,370.18 L388.91,371.33 L389.22,374.21 L384.94,377.66 L381.14,382.84 L364.98,409.33 L361.33,414.51 L352.14,430.63 L346.91,437.54 L313.15,492.23 L303.96,505.47 L302.22,509.50 L301.90,512.38 L301.90,515.26 L302.38,516.98 L303.80,519.86 L314.74,531.95 L319.33,538.28 L322.03,543.47 L323.93,551.53 L326.31,556.13 L338.35,573.40 L341.20,576.28 L347.39,587.22 L349.60,591.82 L359.11,606.22" fill="none" stroke="#fc4c02" stroke-width="2" />
</svg>