<svg xmlns="http://www.w3.org/2000/svg" viewBox="0 0 1000 1000">
  <path d="M885.12,1000.00 L880.73,997.41 L881.02,997.08 L883.36,995.95 L883.17,995.28 L883.36,995.05 L883.27,994.49 L882.97,994.04 L882.78,992.24 L882.39,991.01 L883.07,990.44 L885.12,989.99 L890.29,989.77 L897.60,989.43 L900.92,989.66 L904.92,990.11 L907.55,990.78 L908.62,991.57 L909.30,993.14 L911.06,993.48 L913.40,993.37 L913.69,993.25 L915.74,993.37 L920.13,991.79 L923.54,991.34 L926.66,991.01 L928.22,991.12 L936.71,990.89 L937.00,990.78 L937.98,989.88 L938.07,988.98 L938.37,988.42 L937.29,987.52 L937.59,986.96 L940.02,985.61 L940.41,985.05 L942.07,983.47 L945.39,981.45 L947.34,980.77 L947.34,980.44 L946.17,979.65 L946.07,979.42 L946.56,978.86 L947.14,978.64 L951.73,978.64 L956.50,979.09 L963.33,979.99 L964.31,980.21 L968.79,980.55 L974.64,981.45 L979.33,980.77 L984.01,981.00 L991.52,981.67 L993.95,981.67 L995.22,981.45 L996.88,980.66 L997.07,980.10 L996.39,978.86 L996.10,977.40 L995.22,976.05 L994.44,975.38 L985.96,971.55 L980.69,968.18 L977.57,967.06 L971.82,964.25 L968.01,961.55 L962.55,959.41 L960.89,958.29 L959.82,957.39 L955.43,954.80 L952.90,953.79 L949.09,953.11 L944.90,951.43 L944.61,951.20 L944.22,950.53 L944.02,949.18 L943.53,948.62 L942.07,948.28 L934.76,947.27 L924.42,945.13 L915.74,942.32 L911.74,940.75 L909.99,938.72 L909.01,936.59 L908.72,935.69 L907.35,933.21 L905.89,931.08 L904.92,929.28 L903.74,927.82 L902.96,926.58 L902.09,924.56 L901.21,923.21 L900.43,921.52 L899.45,920.62 L898.09,919.95 L897.50,919.16 L897.21,918.26 L896.72,917.25 L896.33,916.12 L895.75,915.45 L894.77,914.66 L893.70,914.21 L892.92,913.65 L892.82,912.53 L892.53,911.74 L892.24,911.51 L890.68,909.26 L890.38,908.25 L890.38,907.69 L889.90,906.45 L889.02,905.78 L886.87,904.43 L884.34,902.29 L883.17,901.84 L881.51,901.62 L876.73,900.38 L874.10,899.15 L872.54,898.47 L868.64,896.33 L866.59,895.66 L864.83,895.55 L862.20,895.66 L859.37,896.11 L856.45,897.12 L854.01,897.01 L852.94,896.56 L849.72,894.42 L846.60,893.07 L842.79,891.61 L838.40,890.26 L837.14,888.91 L834.11,886.44 L833.43,885.54 L831.77,884.42 L827.97,881.16 L827.38,880.03 L826.99,878.91 L826.02,877.33 L820.75,872.27 L818.41,868.23 L816.17,865.41 L814.22,863.39 L812.85,862.38 L812.66,862.15 L812.66,861.82 L811.59,860.69 L810.61,859.34 L809.54,858.56 L808.86,857.32 L807.59,855.75 L807.29,854.96 L806.61,854.17 L806.12,853.72 L804.47,851.02 L801.74,848.10 L801.64,846.98 L801.44,846.75 L801.64,846.30 L801.54,845.63 L801.15,844.39 L800.96,842.25 L799.59,840.23 L796.57,837.31 L795.98,836.41 L794.52,833.71 L792.18,831.68 L789.35,829.89 L787.50,828.76 L781.74,825.95 L779.11,824.26 L777.65,823.03 L777.16,822.13 L777.26,820.89 L778.72,818.64 L780.38,814.59 L781.26,811.00 L781.45,809.65 L780.96,807.85 L779.70,806.27 L778.23,805.15 L776.28,803.91 L773.06,802.79 L766.82,800.99 L763.80,800.31 L763.21,800.43 L762.43,801.44 L762.43,801.66 L761.56,802.45 L759.41,804.70 L758.44,806.16 L756.88,807.74 L756.78,808.07 L754.34,810.77 L752.58,813.36 L751.22,814.93 L751.12,815.27 L749.95,816.73 L748.68,818.19 L745.95,821.90 L745.17,822.58 L744.69,822.69 L742.15,822.35 L726.74,818.75 L721.28,817.63 L719.04,817.40 L715.23,817.85 L712.40,817.63 L686.66,811.90 L680.32,810.77 L670.76,810.32 L658.18,810.32 L652.72,810.88 L648.14,811.67 L642.58,811.90 L631.46,811.45 L623.85,810.66 L622.59,810.66 L616.83,809.87 L615.66,809.08 L614.69,808.19 L613.81,807.62 L612.54,807.06 L608.74,806.05 L604.45,803.80 L600.74,803.13 L599.47,803.13 L594.50,802.68 L591.28,801.89 L588.16,801.44 L585.92,800.76 L581.24,798.40 L580.85,798.07 L580.55,796.60 L580.16,795.82 L579.19,794.92 L578.60,794.58 L575.39,793.46 L571.39,792.33 L565.15,790.08 L563.78,788.96 L558.71,784.12 L556.17,782.21 L554.32,780.41 L553.05,778.95 L552.17,776.59 L551.98,775.13 L551.39,772.99 L551.59,771.87 L551.98,771.31 L555.78,768.05 L559.59,765.46 L563.49,763.66 L566.32,762.54 L571.78,760.85 L573.92,759.16 L579.48,756.13 L580.65,755.34 L584.65,751.74 L586.41,749.49 L586.99,747.36 L587.19,746.12 L586.89,743.98 L586.11,742.07 L585.53,741.06 L583.77,739.15 L569.92,730.27 L568.85,729.37 L561.93,724.42 L556.47,720.37 L552.56,718.69 L549.15,718.01 L544.67,718.12 L543.69,717.79 L543.50,717.11 L543.59,717.11 L544.18,717.34 L544.18,717.11 L543.40,716.89 L543.11,716.66 L543.50,715.99 L543.40,715.65 L543.69,713.85 L543.20,712.62 L543.79,711.94 L543.79,710.70 L543.30,709.58 L543.30,708.79 L543.01,707.78 L542.62,707.22 L541.64,706.32 L541.25,705.42 L541.25,704.52 L541.54,703.28 L541.54,702.05 L541.35,701.60 L540.57,701.26 L537.16,700.13 L535.69,699.35 L535.69,698.79 L535.21,698.34 L533.84,697.55 L533.65,697.10 L531.99,696.54 L528.96,694.85 L527.79,693.84 L527.21,692.94 L526.92,690.92 L527.01,690.58 L526.92,688.44 L526.62,687.88 L526.72,686.87 L525.94,684.06 L526.14,683.27 L528.18,681.81 L529.74,680.35 L531.40,679.56 L533.55,677.42 L536.28,675.62 L536.67,675.06 L536.96,673.94 L538.42,672.81 L538.52,672.59 L539.01,672.03 L540.67,669.44 L540.76,669.10 L540.67,668.32 L541.45,666.52 L541.54,665.17 L543.11,663.59 L543.30,661.68 L544.08,659.55 L544.08,658.98 L543.79,658.20 L543.11,657.52 L542.42,657.07 L542.32,656.51 L542.72,655.95 L543.98,655.50 L545.54,655.27 L546.62,654.82 L548.76,654.60 L550.03,654.04 L551.49,652.91 L551.59,652.91 L551.30,652.24 L551.69,651.79 L551.20,651.56 L550.71,650.66 L551.30,650.10 L551.49,649.76 L551.98,649.43 L552.08,648.64 L551.88,648.08 L551.78,647.96 L548.86,647.07 L545.93,645.49 L544.47,645.15 L543.69,644.70 L541.06,643.92 L539.20,642.68 L538.13,642.12 L535.89,641.78 L534.04,641.78 L530.82,642.23 L528.28,643.02 L526.43,643.69 L524.19,645.27 L520.48,647.29 L518.82,647.85 L517.46,648.19 L515.51,648.30 L513.07,648.08 L510.24,647.52 L508.58,646.73 L507.12,646.50 L504.78,645.60 L502.54,645.04 L500.39,644.14 L498.83,643.92 L497.85,643.02 L497.07,642.79 L495.51,641.78 L495.12,641.33 L494.83,640.43 L494.15,639.76 L494.34,638.97 L495.90,638.30 L497.66,638.18 L499.71,637.73 L504.10,636.38 L504.78,635.93 L506.24,634.47 L506.63,633.91 L506.73,633.01 L508.09,629.75 L508.09,628.63 L507.12,627.50 L506.83,626.60 L506.92,626.49 L506.63,625.14 L507.12,624.35 L507.12,623.79 L506.73,623.45 L506.73,623.00 L506.14,621.88 L504.88,621.09 L502.54,620.19 L502.15,619.74 L502.15,618.96 L502.34,618.51 L503.41,617.27 L503.80,616.37 L504.88,614.80 L505.66,614.01 L506.05,613.11 L506.63,612.55 L508.19,611.65 L508.78,611.54 L508.68,611.20 L514.43,606.48 L515.90,606.03 L517.36,605.24 L517.94,605.13 L518.53,604.68 L519.21,603.67 L519.31,603.44 L518.82,602.43 L516.48,600.40 L508.00,598.38 L505.07,599.17 L503.02,599.28 L501.07,598.49 L499.51,597.14 L498.73,595.57 L498.93,595.01 L498.83,594.67 L499.61,593.88 L500.00,591.30 L499.80,591.07 L499.80,590.40 L500.10,589.50 L500.10,589.05 L500.49,588.49 L498.73,585.45 L498.63,584.66 L497.85,583.43 L496.88,580.05 L496.49,579.60 L496.39,579.04 L495.71,578.26 L495.32,577.47 L495.42,576.68 L495.90,575.56 L496.49,574.99 L497.66,574.21 L497.85,573.65 L496.39,573.20 L492.00,572.63 L489.76,572.18 L487.22,570.95 L486.74,570.61 L486.44,570.16 L485.47,569.71 L483.03,569.60 L480.89,568.59 L479.91,568.59 L476.11,569.49 L473.28,569.37 L470.74,568.70 L469.38,567.69 L469.18,567.01 L469.38,566.34 L469.87,565.66 L471.23,562.74 L472.01,562.18 L472.50,561.50 L472.40,560.15 L471.23,558.47 L471.04,557.90 L471.62,556.55 L472.40,555.66 L472.50,554.64 L473.47,554.19 L473.38,553.97 L473.67,553.29 L473.67,552.96 L473.08,552.06 L472.79,551.50 L472.99,550.93 L472.89,550.03 L473.67,547.90 L473.47,547.79 L473.57,547.00 L473.18,545.42 L474.16,544.41 L475.03,544.19 L475.03,543.96 L474.16,542.16 L473.96,541.38 L473.57,540.81 L473.86,540.03 L474.55,538.90 L474.74,537.67 L475.52,536.65 L475.42,535.53 L475.52,534.74 L476.11,533.73 L476.69,533.06 L476.69,532.04 L476.89,530.92 L476.50,529.68 L476.01,528.78 L474.64,527.21 L472.79,526.09 L472.01,524.96 L471.13,524.06 L471.33,523.61 L470.65,523.16 L468.99,522.82 L468.21,521.81 L468.40,520.58 L469.18,518.78 L469.67,518.10 L469.77,517.65 L469.48,516.98 L469.57,516.53 L471.23,514.05 L470.84,513.83 L470.94,513.15 L470.16,511.58 L470.45,509.89 L470.26,508.10 L470.45,507.65 L470.26,507.08 L469.87,506.75 L469.28,506.63 L462.94,505.96 L461.58,504.95 L461.48,504.61 L460.50,503.49 L458.55,502.70 L455.43,502.25 L453.29,501.24 L451.82,500.45 L450.65,499.33 L449.87,498.88 L448.41,497.53 L447.34,496.85 L445.00,494.83 L443.44,494.15 L442.56,493.14 L442.17,491.90 L442.07,491.45 L442.66,490.89 L444.22,487.52 L445.48,486.40 L446.07,485.05 L447.53,483.70 L448.02,483.02 L448.41,482.01 L449.97,479.87 L450.95,477.06 L451.63,476.28 L452.41,475.04 L453.87,473.80 L455.24,473.24 L456.50,472.90 L457.48,472.23 L467.04,471.10 L468.89,470.32 L469.18,469.87 L467.91,468.52 L468.01,468.07 L470.35,466.61 L470.74,466.16 L470.94,465.59 L470.55,465.15 L468.99,463.68 L471.23,461.21 L472.79,460.76 L473.47,460.31 L474.45,458.85 L475.62,457.95 L476.59,456.60 L476.30,455.59 L475.52,454.58 L474.84,453.45 L473.86,452.55 L471.62,451.20 L470.16,449.40 L470.16,448.17 L468.99,446.59 L468.89,444.46 L468.50,443.89 L466.94,442.10 L466.65,440.75 L467.13,439.62 L466.65,438.39 L466.84,437.26 L466.65,436.47 L465.38,435.91 L460.41,434.11 L457.19,432.20 L455.72,431.75 L454.16,430.63 L452.02,429.84 L450.95,429.73 L449.29,428.94 L447.14,427.48 L445.58,427.03 L445.68,426.47 L444.90,426.13 L444.31,425.57 L443.44,425.91 L440.80,424.78 L439.73,423.66 L440.32,422.08 L440.22,421.74 L439.24,420.06 L437.59,418.71 L437.39,418.48 L437.68,418.26 L437.68,417.92 L437.20,417.14 L435.93,416.35 L435.93,416.01 L436.02,415.45 L435.73,415.11 L435.63,414.66 L434.95,413.99 L434.95,413.42 L433.59,412.53 L432.71,412.19 L432.81,411.85 L432.51,411.40 L431.25,410.39 L430.37,408.81 L429.59,408.48 L426.08,407.69 L415.94,407.02 L412.42,407.13 L409.79,407.35 L406.77,406.90 L405.21,406.79 L398.77,407.47 L394.29,407.58 L389.21,406.57 L386.58,406.79 L384.34,407.47 L380.24,408.03 L378.19,407.80 L375.27,406.90 L374.10,406.23 L373.22,406.12 L372.54,406.23 L371.56,407.02 L370.00,407.13 L369.51,407.35 L369.22,407.92 L369.42,408.25 L369.61,409.60 L368.83,410.05 L367.95,410.16 L366.69,409.83 L366.39,409.49 L365.13,409.15 L364.74,408.81 L363.37,408.70 L361.32,407.13 L361.03,406.34 L360.05,404.99 L359.57,402.52 L358.49,400.72 L358.10,400.61 L357.52,399.82 L357.52,399.48 L357.13,398.70 L357.03,398.13 L356.25,397.35 L355.96,396.56 L355.86,395.44 L355.47,394.87 L353.33,393.41 L353.03,392.96 L353.33,392.17 L352.64,391.28 L351.47,390.71 L351.28,390.26 L350.69,389.93 L350.69,389.59 L350.30,389.48 L350.30,389.03 L349.72,388.80 L349.13,388.13 L347.96,387.45 L346.01,386.89 L339.87,387.34 L333.14,386.44 L329.92,386.55 L326.21,386.10 L324.17,386.22 L320.95,386.67 L317.44,386.55 L313.93,385.43 L311.49,384.30 L310.03,383.40 L309.15,383.07 L307.59,382.84 L305.93,382.84 L304.37,382.62 L300.76,380.71 L299.98,380.14 L299.79,379.81 L300.37,378.68 L300.18,378.23 L300.37,377.33 L300.27,376.32 L299.10,375.08 L298.23,374.52 L298.13,374.30 L298.42,374.07 L298.13,373.85 L298.71,372.05 L299.79,370.36 L302.03,368.68 L302.42,368.23 L302.52,367.44 L301.54,366.65 L302.13,365.98 L302.22,365.41 L302.42,364.97 L302.52,364.18 L302.22,363.73 L302.22,362.83 L301.54,360.81 L301.93,360.47 L301.83,359.68 L302.22,358.89 L301.93,358.56 L301.83,358.22 L302.13,357.43 L302.32,357.21 L302.13,356.98 L302.52,355.63 L302.61,354.85 L302.32,353.61 L302.81,352.15 L303.59,351.14 L304.47,350.35 L305.73,349.67 L306.03,349.22 L306.61,348.77 L305.73,348.21 L303.88,347.87 L302.32,346.64 L301.54,345.85 L301.74,344.95 L301.54,344.39 L301.83,343.60 L302.81,342.37 L303.78,340.23 L304.95,339.22 L306.51,337.31 L307.68,336.63 L309.44,336.18 L309.83,335.73 L311.78,334.50 L312.66,333.48 L313.93,332.92 L314.02,332.36 L314.61,331.68 L316.85,330.56 L320.17,329.21 L323.00,327.64 L323.78,326.96 L325.43,324.94 L331.48,322.13 L333.24,320.78 L334.50,320.22 L336.65,319.54 L340.94,318.75 L341.92,318.75 L342.89,318.42 L343.18,318.08 L344.16,317.40 L343.96,317.07 L344.26,316.39 L344.74,316.06 L344.84,313.92 L345.04,313.24 L344.94,313.13 L343.96,313.24 L341.82,312.91 L337.04,312.01 L334.21,311.67 L331.97,311.11 L323.19,309.98 L321.63,309.53 L316.56,308.86 L313.44,307.96 L311.78,307.62 L311.29,307.40 L306.81,306.72 L306.32,306.39 L305.64,306.27 L303.88,305.15 L302.81,304.81 L299.88,304.36 L298.62,304.47 L297.05,304.14 L295.98,304.14 L294.81,303.80 L293.35,303.69 L291.69,303.01 L290.13,302.11 L289.94,301.89 L289.94,301.78 L289.25,301.66 L287.50,300.88 L287.89,299.75 L287.79,299.08 L285.06,296.38 L284.57,295.48 L285.45,293.46 L286.23,292.56 L287.40,290.08 L287.20,289.75 L287.69,289.30 L287.99,287.38 L286.81,286.71 L286.42,286.26 L286.23,285.36 L285.94,285.14 L284.47,284.12 L283.01,283.56 L282.23,282.66 L282.04,282.10 L279.31,281.43 L278.04,280.75 L277.45,279.18 L275.79,278.50 L274.23,275.80 L273.26,274.90 L272.58,273.78 L272.09,273.11 L272.38,272.66 L272.77,270.52 L272.87,269.73 L272.58,269.17 L273.06,268.50 L273.06,267.93 L273.36,267.26 L273.16,265.91 L272.87,265.46 L273.06,265.01 L272.87,262.54 L272.77,262.31 L273.06,261.41 L272.28,259.95 L271.80,259.50 L271.70,259.05 L271.80,258.71 L271.31,258.38 L271.89,257.93 L271.41,257.59 L271.89,257.14 L271.70,256.02 L271.80,255.68 L272.87,254.89 L273.75,254.44 L274.53,253.54 L274.72,252.75 L275.31,252.64 L275.21,252.53 L275.50,252.30 L277.45,252.30 L279.70,251.97 L281.06,250.96 L281.84,250.73 L283.30,249.83 L285.84,248.82 L288.08,248.37 L288.86,247.58 L289.35,247.47 L289.25,247.25 L289.55,247.02 L290.42,247.02 L291.01,246.80 L290.91,246.35 L290.52,245.67 L290.72,244.88 L289.74,244.21 L289.55,243.42 L289.84,242.75 L290.52,242.19 L290.52,241.96 L290.03,241.40 L290.13,241.06 L290.13,240.61 L290.52,239.37 L290.52,238.93 L291.30,237.46 L291.40,236.79 L291.79,236.11 L292.08,235.89 L292.08,235.44 L292.47,234.88 L292.96,234.77 L292.76,234.65 L293.06,234.65 L293.25,234.32 L291.59,232.85 L291.50,232.29 L291.79,231.50 L291.79,230.94 L290.23,228.69 L289.64,227.46 L288.67,226.11 L287.50,223.75 L286.23,222.28 L286.33,220.94 L286.72,220.04 L286.62,218.35 L287.01,217.67 L287.01,217.11 L287.50,215.99 L287.30,215.88 L286.81,215.54 L284.08,214.86 L283.11,214.53 L283.01,214.30 L280.87,213.63 L279.40,212.73 L278.62,212.62 L278.33,212.17 L277.65,212.05 L277.06,211.60 L276.18,211.49 L274.92,210.59 L273.36,210.25 L272.67,209.92 L272.58,209.69 L272.09,209.13 L272.19,208.79 L271.11,207.78 L270.82,206.99 L270.33,206.43 L270.43,205.76 L270.04,205.31 L270.43,204.74 L270.33,204.52 L268.58,203.51 L268.38,203.17 L268.29,202.72 L267.80,202.38 L267.60,201.93 L266.63,201.15 L266.63,200.92 L266.24,200.47 L264.58,199.80 L263.70,199.12 L262.04,198.34 L260.00,197.89 L257.36,197.66 L254.44,196.76 L252.49,195.97 L248.49,195.08 L248.10,194.40 L246.83,194.40 L244.59,193.05 L243.42,192.71 L238.64,191.93 L237.96,191.93 L236.59,191.70 L236.40,192.04 L236.10,191.93 L235.81,191.70 L235.52,191.81 L234.54,191.48 L234.06,191.70 L231.42,191.48 L231.52,191.59 L230.35,190.92 L224.40,189.57 L216.79,188.33 L211.43,187.88 L205.38,185.74 L203.92,184.73 L201.77,183.61 L198.56,183.38 L198.26,182.82 L197.48,181.92 L197.48,180.91 L197.68,180.35 L197.19,179.11 L197.09,178.66 L196.61,177.87 L195.63,177.31 L193.49,176.75 L190.27,175.29 L189.49,175.06 L188.51,174.50 L188.02,174.05 L187.63,173.26 L185.20,170.79 L181.00,167.87 L179.15,166.97 L177.98,165.62 L175.74,164.61 L174.37,163.37 L173.59,162.92 L173.30,162.24 L172.42,160.89 L171.06,159.77 L169.49,158.20 L167.74,157.75 L165.30,157.75 L157.40,157.07 L152.92,156.40 L139.75,151.79 L136.63,150.33 L135.26,149.31 L133.41,148.30 L133.31,147.63 L132.53,147.52 L131.95,146.95 L130.97,146.50 L128.44,146.28 L126.10,146.39 L121.51,145.15 L118.30,144.70 L116.34,144.14 L113.03,143.80 L108.93,143.02 L106.50,143.02 L104.93,142.46 L101.72,140.99 L97.82,139.98 L97.72,139.98 L97.82,140.21 L97.52,140.43 L95.57,140.43 L93.43,140.88 L92.16,140.88 L90.31,140.54 L90.01,139.98 L88.16,138.63 L87.87,137.73 L87.48,137.17 L87.58,137.17 L87.38,135.60 L87.09,135.37 L86.99,134.81 L87.09,134.59 L86.80,134.47 L86.80,134.02 L86.50,133.80 L86.60,133.69 L85.72,133.46 L84.94,132.79 L82.02,132.11 L80.75,131.55 L78.51,130.99 L77.34,130.54 L77.14,130.43 L76.75,128.74 L75.39,127.61 L71.87,125.70 L70.61,124.69 L69.53,123.68 L67.58,122.89 L66.71,122.10 L65.34,121.21 L64.46,120.31 L63.78,119.97 L62.80,119.86 L62.80,119.74 L62.41,119.41 L62.80,118.62 L62.80,118.17 L63.19,117.72 L62.90,117.16 L62.90,116.26 L62.71,115.47 L62.71,115.02 L61.93,114.35 L61.63,113.67 L61.63,113.11 L61.34,112.89 L61.73,112.66 L63.58,110.41 L63.39,110.07 L63.58,109.62 L64.37,109.29 L65.15,108.28 L64.95,107.71 L64.95,107.04 L64.76,105.69 L64.37,105.01 L64.56,104.23 L63.49,102.99 L63.68,102.43 L62.90,101.42 L62.61,100.63 L62.90,99.96 L62.61,99.62 L62.71,99.17 L60.37,97.71 L58.81,96.36 L58.71,96.13 L57.54,95.23 L57.05,94.67 L56.17,94.33 L55.78,93.88 L55.88,93.77 L56.66,93.43 L57.34,92.76 L57.83,92.53 L58.90,91.19 L59.10,90.40 L59.00,89.39 L58.51,88.60 L58.03,88.04 L57.25,87.59 L56.76,86.91 L56.27,86.69 L56.37,86.13 L55.78,85.68 L55.10,84.44 L55.00,83.54 L54.22,82.75 L54.42,81.52 L53.83,81.07 L53.74,80.84 L53.83,80.73 L53.54,80.50 L53.54,80.05 L53.25,79.49 L53.05,79.49 L52.47,78.70 L52.47,78.48 L52.08,77.58 L51.59,77.24 L51.78,76.79 L51.78,76.68 L51.20,76.23 L51.10,75.89 L50.32,75.44 L50.42,75.11 L49.83,74.77 L49.93,74.66 L49.35,73.87 L49.35,73.53 L49.25,73.31 L46.71,72.07 L46.42,71.96 L46.03,71.28 L42.81,69.71 L42.62,69.37 L41.45,68.70 L40.18,68.36 L40.18,68.25 L39.79,67.91 L38.42,67.80 L37.55,67.35 L36.38,66.34 L36.28,66.11 L36.38,65.66 L35.79,64.99 L33.26,63.64 L32.57,63.08 L31.11,62.74 L29.84,62.06 L26.82,60.15 L26.43,59.59 L25.36,59.03 L23.89,57.45 L23.41,57.45 L22.43,57.00 L22.63,56.33 L22.24,55.77 L21.46,55.09 L20.87,54.87 L20.38,54.31 L20.38,53.97 L18.92,53.18 L19.02,52.84 L18.72,52.39 L18.33,51.16 L17.46,50.71 L17.26,50.15 L15.51,49.25 L15.60,48.91 L17.07,48.23 L16.77,47.90 L17.07,47.67 L17.07,46.77 L16.48,46.55 L16.09,45.76 L14.14,44.97 L14.04,44.52 L13.07,43.62 L12.78,43.06 L12.19,42.50 L10.83,41.71 L8.87,39.69 L8.00,39.46 L8.29,39.02 L8.00,38.90 L8.00,38.45 L7.61,38.12 L7.70,37.44 L7.02,36.54 L7.12,35.75 L6.83,34.29 L5.75,33.51 L5.95,32.94 L4.78,32.49 L4.49,32.27 L5.27,31.48 L5.46,30.58 L5.46,29.91 L4.88,28.33 L4.10,27.77 L4.19,27.88 L2.15,28.45 L1.07,28.22 L1.27,28.00 L1.27,27.77 L1.46,27.55 L3.41,27.21 L4.10,26.53 L4.00,26.20 L2.73,24.40 L2.73,23.50 L2.44,22.82 L2.54,22.49 L2.44,22.26 L2.54,21.81 L1.85,20.13 L1.95,19.34 L1.56,18.44 L1.66,17.54 L1.85,17.20 L1.66,16.42 L1.95,15.85 L1.66,15.18 L1.76,14.95 L1.46,14.50 L1.66,14.28 L2.44,14.05 L3.71,13.83 L6.24,12.03 L7.70,11.36 L8.87,10.12 L9.85,8.66 L10.14,8.43 L10.63,7.53 L10.53,6.63 L10.73,6.18 L11.80,5.28 L11.31,4.27 L11.51,3.49 L11.22,2.70 L11.41,2.36 L11.41,2.14 L11.22,1.91 L11.61,0.34 L11.41,0.00 L11.61,0.00 L11.70,0.45 L11.31,1.57 L11.51,2.25 L11.22,2.47 L11.41,3.49 L11.31,3.94 L11.80,4.83 L11.51,5.40 L10.53,6.18 L10.73,7.42 L10.43,7.98 L9.75,8.55 L9.36,9.56 L7.90,11.13 L6.44,11.92 L6.24,12.26 L5.07,12.93 L4.68,13.04 L3.80,13.83 L2.34,14.17 L1.66,14.50 L1.85,14.95 L2.05,16.08 L1.76,16.53 L1.85,16.98 L1.56,17.43 L1.76,17.88 L1.56,18.44 L1.76,18.78 L1.76,20.01 L2.15,20.69 L2.44,21.81 L2.24,22.26 L2.44,22.60 L2.34,23.05 L2.73,24.40 L4.10,26.20 L4.29,27.21 L3.90,27.43 L2.44,27.43 L1.07,28.00 L1.37,28.22 L0.98,29.23 L0.10,29.91 L0.20,30.02 L0.00,30.13 L0.68,29.80 L1.76,29.80 L2.63,30.13 L4.88,30.25 L5.56,30.47 L5.17,31.48 L4.58,32.27 L5.46,32.61 L5.75,32.83 L5.95,33.06 L5.66,33.28 L5.75,33.51 L6.83,34.41 L6.92,36.65 L7.51,37.33 L7.61,38.23 L8.00,38.57 L7.90,38.90 L8.29,39.24 L8.00,39.46 L8.68,39.80 L9.07,40.25 L9.65,40.59 L10.63,41.60 L12.09,42.50 L12.78,43.18 L12.78,43.40 L14.04,44.86 L15.60,45.54 L17.07,46.32 L17.26,47.56 L16.97,47.90 L17.16,48.12 L17.16,48.23 L16.09,48.80 L15.99,49.02 L15.70,49.13 L15.70,49.25 L16.19,49.25 L17.16,50.15 L17.46,50.60 L18.04,50.93 L19.11,53.41 L19.80,53.63 L20.58,54.19 L20.48,54.64 L21.46,55.09 L22.53,55.99 L22.72,56.44 L22.53,57.12 L23.89,57.57 L25.26,58.69 L25.45,59.14 L26.33,59.59 L26.92,60.27 L28.18,60.83 L30.13,62.18 L30.72,62.29 L31.01,62.51 L31.50,62.63 L34.23,63.86 L34.72,64.31 L36.38,65.10 L36.67,65.66 L36.57,66.00 L37.55,67.24 L39.79,67.91 L40.37,68.36 L42.03,69.04 L42.62,69.60 L43.40,69.82 L44.47,70.50 L45.93,71.17 L46.52,72.07 L47.49,72.41 L49.25,73.42 L49.15,73.87 L49.64,74.32 L49.93,74.99 L50.81,75.56 L51.10,76.12 L51.59,76.57 L51.49,77.24 L52.17,77.58 L52.37,78.82 L53.35,79.72 L53.93,81.07 L54.42,81.40 L54.52,81.97 L54.42,82.53 L55.00,83.31 L55.30,84.66 L55.98,85.68 L56.47,86.13 L56.37,86.69 L57.05,87.59 L57.73,87.81 L58.51,88.60 L59.20,90.29 L59.10,91.07 L57.54,93.10 L57.05,93.66 L55.78,94.00 L56.17,94.00 L56.17,93.77 L56.08,94.00 L56.17,94.22 L57.15,94.67 L57.44,95.12 L58.22,95.68 L60.07,97.48 L62.61,99.06 L62.90,100.18 L62.71,100.74 L63.49,102.09 L63.49,102.99 L64.46,104.12 L64.27,104.90 L64.85,106.36 L64.95,107.71 L65.24,108.05 L65.24,108.28 L64.46,109.29 L63.49,109.74 L63.68,110.19 L63.39,110.64 L62.51,111.65 L62.12,112.66 L61.63,113.00 L61.83,112.89 L62.02,113.11 L62.02,113.56 L61.93,113.67 L62.12,114.35 L62.61,115.02 L63.00,116.82 L63.39,117.61 L63.29,118.28 L62.80,119.29 L63.10,119.86 L64.46,120.42 L67.49,122.78 L69.53,123.57 L70.70,124.92 L71.97,125.70 L75.48,127.50 L76.65,128.51 L80.55,129.75 L82.41,130.87 L84.84,132.67 L86.11,133.01 L86.80,133.69 L87.28,133.57 L87.67,134.14 L87.77,134.59 L88.06,134.70 L88.65,135.71 L88.45,136.05 L88.16,137.17 L88.55,137.51 L88.45,137.85 L88.84,138.18 L88.75,138.41 L89.82,139.19 L89.92,139.53 L90.31,139.64 L90.40,140.09 L91.38,140.66 L93.72,140.88 L94.30,140.77 L94.79,140.54 L95.77,140.43 L98.21,140.66 L100.35,141.11 L103.37,142.12 L103.76,141.89 L104.54,141.89 L105.62,142.57 L106.50,142.79 L107.96,142.79 L112.93,143.69 L115.66,144.03 L118.20,144.82 L121.22,145.15 L125.80,146.39 L127.27,146.50 L131.46,147.52 L133.51,147.52 L135.07,147.96 L134.97,148.30 L135.26,148.64 L135.46,149.31 L138.09,151.00 L138.48,151.45 L141.51,152.69 L149.02,154.94 L151.45,156.06 L153.11,156.51 L155.06,156.73 L157.50,157.18 L165.30,157.86 L167.93,157.86 L169.30,158.20 L170.28,159.43 L172.13,160.67 L172.71,161.68 L174.76,163.93 L175.54,164.49 L177.88,165.62 L179.15,167.08 L180.81,167.87 L184.81,170.23 L187.73,173.26 L188.22,174.27 L189.49,175.06 L192.61,176.30 L194.07,176.97 L195.63,177.31 L196.51,177.87 L196.80,178.21 L197.68,180.23 L197.39,181.13 L197.48,181.81 L198.75,183.49 L199.92,183.83 L202.46,183.94 L204.99,185.52 L207.63,186.64 L211.62,187.99 L214.55,188.33 L216.40,188.33 L224.01,189.45 L227.42,190.35 L230.54,190.80 L231.32,191.48 L233.96,191.81 L234.54,191.59 L235.91,191.93 L235.91,192.04 L236.40,191.81 L237.08,191.81 L241.27,192.15 L244.39,193.05 L246.05,193.84 L246.83,194.40 L247.81,194.85 L248.98,194.96 L252.88,195.86 L254.73,196.87 L257.17,197.44 L258.05,197.89 L260.48,197.89 L262.34,198.34 L264.58,199.69 L266.53,200.47 L266.82,201.03 L266.73,201.26 L267.31,201.48 L268.29,203.06 L268.58,203.06 L270.33,204.52 L270.33,204.74 L270.53,205.19 L270.33,205.42 L270.24,206.09 L270.82,206.54 L271.50,207.89 L272.38,208.68 L272.38,209.24 L272.67,209.47 L272.77,209.69 L273.16,209.80 L273.45,210.25 L275.21,211.49 L275.50,211.49 L276.67,212.05 L276.97,212.50 L279.50,212.84 L281.26,213.63 L281.84,213.96 L282.82,214.08 L284.28,214.64 L284.86,215.09 L285.84,215.20 L287.11,215.99 L287.30,217.56 L286.91,218.80 L286.81,219.59 L286.91,219.81 L286.33,220.82 L286.52,222.62 L287.69,223.97 L287.89,224.31 L287.79,224.65 L287.99,225.10 L288.47,225.55 L289.16,227.01 L289.55,227.23 L290.33,229.03 L290.72,229.59 L291.20,229.82 L291.79,230.72 L291.40,231.84 L291.50,232.74 L292.37,233.53 L292.86,233.64 L293.54,234.32 L293.45,234.54 L293.54,234.54 L292.47,234.99 L291.59,236.34 L291.20,236.68 L291.30,236.79 L290.72,237.91 L290.42,239.26 L290.23,239.71 L290.03,241.29 L290.62,241.85 L289.64,242.97 L289.55,243.65 L290.52,244.88 L290.42,245.56 L291.01,246.46 L290.62,246.80 L289.64,247.02 L288.28,248.14 L285.84,248.59 L283.60,249.61 L281.26,250.84 L279.79,251.86 L277.84,252.19 L275.60,252.19 L275.70,252.30 L274.82,252.64 L275.01,252.64 L274.92,252.87 L274.33,253.54 L274.04,254.10 L271.89,255.34 L271.70,255.79 L271.80,256.69 L271.31,257.25 L271.50,257.70 L271.41,258.38 L271.80,258.71 L271.80,259.50 L272.28,259.84 L272.58,260.40 L272.87,260.40 L273.06,261.30 L272.87,261.86 L272.97,261.86 L272.67,262.65 L272.97,262.87 L273.26,264.11 L272.97,264.79 L273.06,265.80 L272.87,266.25 L273.06,266.47 L272.67,267.15 L272.67,267.48 L271.99,268.72 L272.19,269.40 L272.48,269.62 L272.28,270.63 L272.48,270.74 L272.38,271.19 L272.19,271.42 L271.99,272.32 L271.99,272.77 L272.48,273.67 L272.77,273.89 L272.97,274.34 L273.36,274.68 L275.01,276.59 L275.21,277.49 L275.60,277.94 L276.18,278.39 L277.36,278.73 L277.55,279.06 L277.65,279.96 L278.04,280.64 L280.18,281.65 L282.13,281.99 L282.13,282.33 L282.52,283.00 L284.38,283.79 L285.06,284.35 L286.62,285.70 L287.01,286.60 L287.50,286.82 L287.89,287.27 L287.99,288.51 L287.40,289.52 L287.69,289.86 L287.01,291.43 L286.91,292.44 L284.77,295.03 L284.77,295.93 L285.06,296.60 L286.62,298.29 L287.79,299.19 L287.99,299.75 L287.69,300.54 L287.89,300.65 L289.84,301.55 L290.23,301.89 L290.81,302.11 L291.89,302.90 L293.15,303.35 L294.42,303.46 L295.01,303.80 L298.91,304.03 L303.30,304.81 L305.93,306.16 L309.64,306.84 L312.27,307.62 L313.44,307.62 L314.61,308.07 L315.78,308.07 L317.53,308.75 L325.82,309.87 L328.46,310.43 L331.19,310.66 L334.02,311.45 L336.45,311.67 L342.89,312.91 L347.08,313.36 L348.84,313.58 L349.52,313.58 L350.30,313.81 L350.20,314.14 L347.86,314.93 L346.79,315.49 L345.13,315.83 L342.70,316.84 L342.11,317.74 L341.14,318.19 L340.35,318.87 L339.28,319.20 L336.75,319.65 L334.60,320.33 L332.85,321.12 L332.07,321.79 L330.02,322.80 L326.90,324.38 L326.12,324.60 L324.36,326.06 L323.87,326.85 L323.39,327.41 L321.53,328.42 L320.66,328.76 L319.39,329.44 L316.85,330.11 L316.66,330.34 L316.75,330.67 L314.71,332.02 L314.12,332.47 L314.22,332.70 L314.12,332.92 L312.66,333.48 L311.98,334.16 L311.78,334.61 L310.12,335.51 L309.44,336.18 L307.78,336.74 L306.51,337.42 L305.15,339.22 L303.78,340.12 L303.20,340.90 L302.61,342.48 L301.74,343.27 L300.96,344.95 L301.25,345.63 L303.00,347.20 L304.17,347.76 L305.83,348.21 L306.42,348.55 L306.51,348.77 L305.64,349.79 L304.76,350.35 L304.27,350.91 L303.78,351.14 L303.00,351.92 L302.61,352.71 L302.81,355.97 L302.42,357.32 L302.52,358.22 L301.74,359.46 L301.93,359.68 L301.83,360.02 L302.13,361.59 L302.81,363.50 L302.71,364.74 L302.22,365.30 L302.03,366.20 L301.74,366.65 L301.83,367.66 L302.22,368.23 L301.74,368.90 L299.98,370.25 L298.81,371.94 L298.42,373.17 L297.74,374.07 L298.91,374.75 L299.79,375.76 L300.08,376.32 L300.27,377.00 L300.08,377.45 L300.08,378.57 L299.59,379.58 L299.79,380.14 L300.57,380.71 L303.88,382.51 L305.83,382.73 L307.20,382.62 L309.15,382.95 L311.39,384.42 L317.53,386.55 L320.66,386.89 L324.07,386.10 L326.02,385.99 L329.82,386.55 L332.75,386.44 L339.48,387.45 L344.16,386.89 L345.43,386.89 L347.96,387.34 L349.62,388.69 L349.72,389.03 L350.69,389.70 L350.79,390.04 L351.28,390.26 L351.96,390.83 L352.64,391.16 L353.13,391.95 L353.13,392.17 L352.74,392.62 L352.94,393.19 L354.11,393.75 L355.47,395.21 L355.76,395.88 L355.76,396.33 L355.96,397.01 L356.25,397.57 L356.93,398.36 L356.93,398.81 L357.23,399.15 L357.23,399.60 L358.49,400.83 L359.27,402.41 L359.66,404.77 L360.64,405.78 L360.74,406.90 L362.10,407.69 L362.20,408.03 L363.37,408.37 L363.66,408.70 L364.44,408.81 L364.83,409.15 L365.91,409.38 L366.59,409.83 L369.42,410.84 L372.93,412.86 L377.32,413.99 L384.14,414.10 L389.21,413.31 L397.41,413.76 L398.87,413.99 L400.04,414.66 L403.65,414.10 L407.94,414.77 L414.86,414.77 L415.84,414.89 L417.11,415.45 L418.67,416.24 L419.35,417.02 L420.03,417.25 L421.49,417.36 L423.64,417.02 L425.49,417.02 L428.42,418.15 L430.37,418.48 L432.42,419.61 L434.07,421.52 L436.61,423.21 L437.39,424.44 L438.66,425.68 L439.73,426.24 L440.41,426.47 L442.27,426.35 L443.14,425.79 L444.12,425.57 L445.58,426.58 L445.48,427.03 L445.58,427.14 L446.26,427.14 L447.92,428.38 L450.07,429.73 L453.58,430.74 L458.16,432.99 L458.85,433.44 L459.53,434.00 L463.14,435.12 L465.28,435.91 L465.67,436.25 L466.06,437.04 L466.45,438.72 L466.45,441.76 L468.40,444.12 L468.60,444.91 L468.50,446.14 L469.48,447.27 L469.57,447.61 L469.38,448.39 L469.67,449.40 L470.45,449.97 L471.72,451.32 L473.18,452.21 L474.35,453.23 L476.50,455.81 L476.69,456.38 L476.59,456.60 L473.08,460.20 L471.43,461.10 L468.99,463.46 L468.89,463.68 L469.09,463.91 L469.67,464.36 L470.16,465.26 L470.26,466.04 L469.09,467.39 L467.82,468.07 L467.72,468.52 L468.60,469.64 L468.50,469.87 L467.82,470.54 L467.04,471.10 L460.31,472.00 L455.92,473.13 L454.85,473.80 L454.07,474.03 L453.09,474.70 L451.82,476.39 L450.75,477.29 L450.36,477.96 L450.46,478.30 L450.07,479.99 L448.51,481.56 L448.22,482.01 L448.02,482.80 L447.53,483.47 L445.68,485.16 L445.09,486.40 L444.41,487.41 L444.12,488.31 L442.07,491.01 L441.88,492.13 L441.97,492.69 L442.66,493.59 L445.09,494.94 L446.85,496.63 L449.39,498.09 L451.04,500.34 L453.48,501.80 L456.31,502.70 L459.04,503.04 L459.82,503.26 L461.19,504.16 L461.58,505.17 L462.36,505.85 L466.65,506.41 L469.48,506.52 L470.06,507.31 L469.87,508.99 L469.96,509.56 L469.67,511.02 L470.55,512.48 L470.74,513.04 L470.74,513.72 L470.45,514.62 L469.48,516.42 L469.87,517.65 L469.38,518.66 L468.21,520.35 L468.01,521.59 L469.09,522.60 L470.84,523.16 L471.13,523.61 L471.13,523.95 L472.11,524.74 L472.40,525.64 L472.89,526.20 L473.67,526.65 L475.91,528.90 L476.59,529.91 L476.69,530.58 L477.08,530.92 L477.08,531.59 L476.69,533.28 L475.72,534.63 L475.42,535.53 L474.94,536.09 L474.45,537.33 L473.67,541.49 L473.86,542.50 L475.23,543.96 L474.84,544.52 L474.25,544.64 L473.77,545.09 L473.47,545.54 L473.47,546.10 L474.06,546.77 L474.25,547.22 L473.86,549.25 L473.96,549.47 L473.38,551.50 L473.38,552.17 L473.67,553.07 L473.18,554.19 L472.01,555.32 L471.82,556.11 L471.04,557.45 L471.04,558.24 L472.11,559.82 L472.11,561.16 L472.01,561.61 L471.04,562.74 L468.89,566.45 L468.89,567.01 L469.09,567.57 L469.67,568.14 L471.13,569.04 L473.57,569.71 L474.74,569.71 L476.50,569.60 L479.72,568.70 L481.86,569.49 L484.59,569.93 L486.44,570.95 L488.30,571.62 L489.08,572.07 L491.13,572.52 L492.88,572.63 L494.64,573.08 L496.49,573.08 L497.85,573.65 L498.15,574.09 L496.20,575.67 L495.81,576.12 L495.81,576.68 L495.22,577.47 L495.32,578.26 L496.49,580.17 L496.49,580.62 L496.98,581.85 L497.46,582.30 L497.85,584.33 L498.15,584.66 L498.24,585.23 L498.44,585.45 L498.83,586.35 L500.10,587.70 L500.68,588.94 L500.39,589.50 L500.10,591.07 L500.10,591.52 L500.29,592.08 L500.29,592.87 L499.22,594.90 L499.02,595.68 L499.22,596.58 L499.71,597.26 L500.98,598.61 L501.95,599.17 L503.32,599.51 L505.85,599.28 L507.70,598.61 L511.70,599.06 L514.92,600.29 L516.97,600.74 L518.63,602.09 L519.21,602.99 L519.21,603.78 L518.43,605.01 L515.02,606.70 L514.53,607.38 L513.75,607.83 L512.87,609.29 L512.19,609.85 L511.31,610.07 L511.12,610.30 L511.12,610.52 L510.43,610.86 L510.14,611.31 L508.87,612.32 L507.80,612.77 L505.95,614.57 L504.78,616.03 L504.19,617.27 L503.80,617.49 L503.02,618.96 L502.44,619.41 L502.44,619.74 L503.22,620.42 L505.85,621.32 L506.92,622.10 L507.61,623.57 L507.31,626.49 L507.61,627.39 L508.29,628.40 L508.58,630.09 L508.48,630.43 L507.31,632.00 L506.83,633.57 L505.85,635.37 L505.66,635.60 L503.61,636.83 L498.93,638.30 L496.39,638.41 L495.81,638.75 L494.93,638.86 L494.44,639.31 L494.54,639.53 L495.12,640.66 L495.42,641.78 L498.54,643.92 L499.61,644.25 L500.68,644.37 L501.07,644.70 L502.15,645.15 L504.39,645.60 L506.05,646.39 L511.12,647.85 L513.07,648.30 L516.68,648.64 L520.19,647.85 L522.53,646.95 L524.09,645.94 L525.55,644.70 L527.01,644.03 L530.52,642.79 L535.69,642.01 L537.74,642.23 L538.62,642.46 L540.08,643.36 L541.25,644.48 L544.08,644.93 L546.23,645.60 L547.69,646.62 L549.15,647.18 L550.32,647.96 L551.30,648.30 L551.39,648.53 L551.30,649.09 L551.88,649.54 L552.08,650.10 L551.88,650.55 L552.76,651.45 L553.15,652.57 L552.86,652.91 L552.37,653.81 L551.10,654.82 L546.42,655.61 L543.79,656.96 L543.59,657.18 L543.59,657.86 L544.28,658.53 L544.37,658.87 L544.28,660.22 L542.91,662.13 L542.62,663.26 L542.13,663.93 L541.93,664.61 L541.84,665.39 L542.03,665.50 L541.54,666.74 L541.06,669.22 L539.30,672.59 L537.45,674.05 L536.86,675.51 L533.26,678.32 L531.99,679.56 L529.74,680.91 L528.38,682.15 L526.92,683.04 L526.53,683.49 L526.43,684.84 L527.21,688.89 L527.11,690.92 L527.31,691.93 L527.21,692.83 L527.89,693.95 L529.16,695.19 L530.23,695.97 L531.99,696.76 L533.65,697.21 L534.04,697.77 L535.60,698.90 L536.08,699.46 L535.89,699.69 L535.99,699.46 L536.08,699.80 L536.47,700.13 L541.35,701.82 L541.35,702.95 L541.54,703.51 L541.35,704.18 L541.45,704.86 L542.32,706.09 L543.98,707.89 L544.86,709.69 L545.15,711.27 L545.74,712.62 L548.86,715.76 L550.03,716.66 L553.64,719.02 L554.52,720.37 L557.05,721.95 L566.32,729.03 L572.95,733.53 L579.29,737.35 L582.50,739.49 L584.45,741.74 L585.72,744.21 L585.92,745.56 L585.92,747.13 L585.63,748.37 L585.14,749.38 L583.28,751.86 L580.07,754.67 L578.21,755.90 L574.21,758.15 L572.26,759.05 L567.97,760.40 L565.44,762.09 L558.51,764.79 L556.66,765.91 L554.52,767.48 L552.37,769.84 L551.10,771.98 L550.61,773.78 L550.61,775.13 L551.10,777.27 L551.49,778.17 L551.69,778.95 L552.47,779.85 L553.05,780.98 L553.74,781.54 L556.56,784.91 L560.37,788.51 L563.98,791.21 L571.00,795.93 L574.21,797.73 L582.50,801.44 L586.31,802.90 L594.79,805.82 L601.13,807.51 L611.08,809.65 L617.52,810.88 L629.51,812.23 L636.82,812.80 L647.16,812.91 L649.02,812.80 L648.62,812.91 L650.09,813.02 L669.69,811.67 L672.91,812.23 L677.88,812.23 L684.22,813.02 L688.32,813.69 L701.77,816.84 L705.48,817.07 L719.62,820.33 L725.77,822.01 L728.59,822.91 L731.03,824.04 L734.84,826.51 L736.59,828.20 L737.37,828.54 L738.35,828.65 L739.32,828.65 L740.30,828.42 L743.42,826.29 L749.46,818.98 L750.63,817.18 L751.41,816.51 L755.90,810.32 L758.92,807.06 L762.73,801.78 L763.99,801.21 L764.97,801.10 L773.45,803.24 L777.55,805.04 L779.70,806.95 L780.77,808.97 L780.96,810.10 L780.57,812.80 L779.79,814.48 L779.89,815.16 L779.11,816.51 L779.01,817.52 L778.53,818.08 L778.33,818.87 L777.75,819.65 L777.06,821.57 L777.65,823.14 L778.72,824.15 L782.23,826.40 L787.79,829.10 L790.13,830.67 L791.50,831.35 L792.76,832.36 L793.93,833.60 L794.52,834.50 L795.20,836.63 L799.69,841.13 L800.86,844.50 L801.05,845.18 L801.05,847.54 L801.54,848.66 L803.00,850.12 L804.08,850.91 L805.15,852.82 L806.12,853.95 L806.61,854.96 L808.46,856.98 L809.83,859.01 L810.32,859.34 L810.42,859.79 L812.07,862.27 L815.78,865.41 L818.22,868.79 L819.19,870.81 L820.07,872.05 L822.12,874.07 L824.26,875.65 L826.31,877.78 L826.80,878.57 L827.29,880.03 L828.07,881.27 L830.80,883.97 L832.65,885.32 L833.63,886.22 L834.89,887.00 L836.36,888.58 L838.40,890.15 L842.40,891.50 L847.86,893.86 L849.42,894.20 L850.89,894.99 L852.94,896.56 L854.11,897.01 L856.45,897.12 L861.03,896.11 L863.08,895.88 L865.81,895.88 L867.56,896.22 L871.56,897.68 L875.37,899.37 L879.85,901.17 L883.36,902.07 L886.00,903.42 L888.82,905.22 L889.80,906.12 L890.68,907.35 L890.87,908.37 L891.65,910.05 L893.11,911.96 L893.41,913.54 L895.36,914.66 L896.33,915.56 L896.63,916.01 L898.09,919.27 L900.14,920.40 L900.92,921.30 L903.94,927.25 L905.50,929.28 L906.38,930.96 L906.48,931.53 L907.35,932.54 L908.33,934.79 L909.69,937.04 L910.47,938.95 L910.96,939.40 L911.74,940.63 L915.45,942.10 L920.03,943.67 L928.22,946.03 L934.66,947.16 L943.63,948.28 L944.02,948.50 L944.41,949.07 L944.61,949.97 L945.00,950.75 L945.97,951.43 L949.68,952.89 L953.97,953.68 L955.33,954.24 L960.41,957.16 L961.87,958.51 L963.43,959.41 L968.40,961.21 L970.26,962.45 L971.33,963.57 L972.50,964.36 L977.67,966.72 L979.62,967.28 L982.35,968.41 L987.71,971.78 L990.93,973.13 L995.32,975.49 L996.29,976.28 L996.68,976.95 L997.17,978.97 L997.07,979.31 L997.37,979.99 L998.05,980.77 L999.71,981.79 L1000.00,982.12 L999.71,982.46 L998.63,982.57 L994.34,982.01 L989.96,981.90 L980.98,981.11 L974.94,981.67 L964.60,980.44 L952.60,978.86 L948.12,978.64 L947.24,978.97 L947.05,979.20 L947.44,979.87 L948.22,980.66 L948.22,980.89 L943.05,983.58 L940.71,985.83 L938.66,986.73 L938.07,987.18 L938.07,987.41 L939.05,988.19 L939.05,989.21 L938.56,990.33 L938.17,990.78 L937.68,991.01 L934.46,991.34 L925.79,991.45 L921.30,991.90 L919.45,992.58" fill="none" stroke="#fc4c02" stroke-width="2" />
</svg>