<svg xmlns="http://www.w3.org/2000/svg" viewBox="0 0 1000 1000">
  <path d="M786.13,578.32 L788.38,575.59 L789.28,574.23 L790.09,573.69 L791.80,570.42 L792.25,568.24 L792.25,566.88 L791.35,565.51 L791.35,564.97 L791.98,561.15 L792.43,560.34 L792.70,558.98 L793.60,556.80 L793.78,555.98 L797.48,547.81 L797.84,545.90 L798.56,543.99 L800.18,541.54 L800.90,538.82 L801.53,538.82 L803.51,533.91 L804.59,532.55 L804.32,531.74 L804.59,531.19 L804.59,530.10 L804.14,529.01 L804.77,526.56 L804.68,525.20 L804.86,524.93 L805.41,522.75 L805.86,519.75 L805.86,518.93 L806.76,514.85 L807.30,513.21 L807.39,511.85 L808.02,510.49 L808.20,509.40 L808.11,508.31 L809.01,506.95 L809.19,506.67 L809.10,505.58 L809.37,504.22 L809.73,503.68 L810.18,497.68 L810.54,496.87 L810.63,495.51 L811.26,495.23 L812.34,492.24 L813.06,489.24 L813.78,487.88 L813.60,486.52 L814.41,484.61 L814.59,484.06 L814.50,483.52 L814.86,482.16 L814.77,482.16 L814.59,481.61 L815.23,478.89 L815.23,477.53 L815.14,476.71 L815.23,476.44 L815.50,475.07 L815.77,474.80 L816.58,472.62 L816.58,472.08 L817.48,469.63 L817.48,469.35 L817.84,468.81 L818.29,466.90 L818.74,466.09 L818.92,464.72 L818.83,463.91 L819.55,462.54 L819.55,460.91 L819.91,460.91 L820.45,459.00 L820.81,458.46 L821.17,455.73 L821.44,454.92 L821.53,453.83 L821.71,453.28 L821.98,452.74 L822.25,451.65 L822.16,451.38 L822.61,450.56 L823.24,448.11 L823.24,445.11 L823.42,442.93 L823.33,442.11 L823.51,440.21 L823.33,439.39 L823.51,438.57 L823.33,438.30 L823.24,437.21 L822.88,436.12 L822.88,433.40 L822.34,431.76 L822.34,430.13 L822.07,428.77 L822.07,427.68 L821.44,426.04 L821.44,424.95 L820.72,422.50 L820.81,421.96 L820.54,419.23 L820.18,417.87 L820.18,415.42 L821.71,407.25 L823.06,403.70 L824.68,400.44 L825.41,398.53 L825.77,397.17 L826.58,395.80 L826.85,394.72 L827.75,393.90 L827.84,392.81 L828.29,391.99 L833.06,381.10 L833.96,376.46 L834.59,374.83 L835.14,372.11 L835.05,371.56 L835.41,369.38 L835.23,367.20 L835.41,366.39 L835.14,365.30 L834.41,363.93 L834.14,361.75 L833.87,360.94 L833.87,360.39 L833.69,359.85 L833.87,358.21 L832.97,355.22 L832.97,353.04 L833.15,352.49 L833.24,351.40 L833.06,350.59 L833.24,349.77 L833.24,348.95 L834.05,347.59 L834.41,346.23 L834.77,341.05 L835.23,338.33 L835.05,337.24 L835.23,336.42 L835.14,334.51 L835.32,334.24 L835.59,330.97 L835.86,330.16 L835.77,329.34 L836.13,328.79 L836.22,327.16 L836.85,324.16 L837.48,323.35 L839.01,318.71 L840.36,317.08 L840.18,316.81 L840.54,316.54 L841.89,312.72 L842.43,311.63 L843.24,311.09 L844.86,308.91 L845.59,307.00 L845.50,303.73 L846.13,302.37 L846.04,301.83 L846.49,301.01 L846.58,300.74 L846.31,300.19 L846.31,299.37 L846.13,298.83 L846.40,297.47 L846.13,296.92 L845.95,296.10 L845.68,292.02 L845.95,290.38 L845.86,288.75 L846.04,288.20 L845.86,287.12 L846.40,285.21 L846.49,283.85 L846.67,283.03 L846.49,282.21 L846.49,279.76 L845.41,277.04 L845.50,276.49 L845.23,275.13 L845.23,272.95 L845.41,271.32 L845.23,269.95 L845.59,268.59 L845.50,268.05 L845.68,267.23 L845.14,264.78 L845.32,263.69 L845.23,262.33 L845.50,261.24 L845.50,259.60 L846.13,254.70 L846.04,253.34 L846.58,251.70 L846.49,250.89 L846.94,248.98 L846.94,247.34 L847.30,246.53 L847.57,244.08 L848.11,242.99 L848.74,240.26 L850.18,236.72 L853.42,231.00 L854.14,228.82 L854.14,228.55 L854.77,227.73 L858.11,224.73 L862.97,221.19 L863.96,220.92 L865.32,219.83 L865.32,219.56 L867.30,219.29 L868.74,218.20 L870.00,217.11 L869.82,216.83 L871.26,215.20 L871.26,214.38 L871.98,213.29 L872.16,212.48 L872.07,211.11 L872.16,208.66 L872.79,204.58 L872.88,203.49 L873.78,200.49 L873.69,199.67 L873.96,198.04 L873.87,197.49 L874.77,194.77 L874.68,194.50 L874.95,193.41 L875.50,192.59 L875.50,192.05 L875.86,190.96 L876.13,189.59 L877.39,186.60 L878.29,182.78 L879.37,180.33 L879.46,179.79 L879.28,179.52 L879.73,178.70 L880.18,176.79 L881.08,174.88 L881.35,173.79 L881.71,173.52 L881.98,172.43 L883.06,170.53 L883.78,168.62 L885.05,166.98 L885.23,166.17 L885.23,165.89 L885.95,164.81 L886.31,163.17 L886.76,162.35 L887.03,161.26 L888.38,158.27 L889.28,155.00 L890.36,152.55 L891.26,151.46 L893.15,150.37 L896.04,149.28 L896.40,148.46 L897.03,148.19 L896.94,146.55 L898.38,144.65 L906.85,137.29 L906.85,137.84 L906.40,140.29 L905.86,142.20 L906.04,142.47 L906.13,143.56 L905.77,145.19 L908.83,147.64 L909.10,147.92 L909.01,149.28 L909.28,149.55 L909.37,150.37 L909.64,150.91 L910.72,150.37 L912.16,150.37 L913.60,153.36 L913.42,153.64 L913.60,154.45 L915.95,157.18 L917.39,157.18 L918.02,157.72 L918.65,157.18 L918.56,156.91 L919.37,157.18 L920.72,156.09 L921.35,156.63 L919.91,156.91 L919.73,156.09 L919.46,156.91 L918.02,157.72 L915.50,156.91 L914.59,156.09 L913.51,154.45 L913.42,153.09 L912.25,150.91 L911.08,150.64 L909.64,151.18 L909.46,150.37 L909.10,149.82 L909.01,148.73 L908.92,148.19 L905.95,145.46 L905.41,144.65 L906.13,143.83 L905.77,142.20 L906.31,141.38 L906.31,140.56 L906.22,139.74 L906.40,138.65 L906.22,137.84 L906.22,137.84 L910.36,132.93 L910.54,131.84 L912.43,128.30 L912.61,127.21 L914.86,122.85 L915.41,121.22 L917.03,120.13 L917.21,118.50 L917.75,116.86 L920.00,113.05 L921.98,110.87 L923.42,108.42 L923.87,107.33 L925.41,105.15 L925.77,103.79 L925.59,102.15 L925.77,101.88 L927.57,98.61 L928.65,97.79 L929.10,96.43 L930.09,95.07 L933.87,90.98 L935.05,88.80 L936.49,84.72 L938.02,82.27 L938.65,81.99 L938.92,80.90 L940.00,79.81 L940.90,77.91 L943.06,75.46 L943.33,74.37 L942.70,73.28 L942.25,71.37 L943.24,66.19 L943.78,64.29 L944.05,64.02 L947.75,61.02 L948.65,59.38 L948.56,59.11 L948.74,58.84 L949.73,58.02 L950.18,56.93 L951.08,56.93 L952.79,55.30 L958.74,56.39 L962.61,56.39 L965.14,55.03 L967.48,54.21 L968.92,52.85 L970.36,52.57 L971.89,51.48 L973.15,49.85 L975.86,50.39 L978.74,49.85 L979.73,50.12 L983.87,47.67 L985.86,47.67 L988.29,46.58 L989.19,45.76 L989.46,45.49 L989.37,44.13 L989.01,43.86 L988.65,42.50 L987.21,40.86 L985.41,37.32 L984.50,37.86 L984.05,37.05 L983.60,35.41 L983.78,34.60 L983.51,34.05 L983.60,33.78 L983.33,32.14 L983.42,31.33 L983.78,30.51 L984.59,29.96 L984.86,28.33 L986.85,26.42 L987.03,25.61 L987.39,25.06 L988.02,23.43 L988.56,22.61 L989.10,21.25 L990.00,16.89 L990.63,14.98 L992.25,12.80 L994.05,11.44 L994.41,10.35 L995.14,9.53 L996.22,9.53 L996.31,8.99 L996.85,8.72 L997.21,7.90 L997.30,6.54 L997.48,5.72 L998.83,4.63 L999.55,3.27 L999.73,2.45 L999.37,1.63 L999.91,0.82 L999.73,0.00 L1000.00,0.27 L999.64,0.27 L999.73,0.00 L999.82,0.54 L999.55,1.36 L999.73,2.72 L999.46,4.09 L998.20,4.90 L997.48,5.99 L997.39,6.54 L997.57,7.90 L996.40,9.26 L994.86,10.08 L994.23,11.17 L992.43,12.80 L990.36,16.07 L989.73,18.52 L989.55,20.70 L988.92,22.34 L988.74,22.34 L988.65,23.15 L987.84,24.52 L987.75,25.06 L987.03,25.88 L987.03,26.42 L985.23,28.06 L984.86,29.96 L983.87,30.51 L983.60,30.78 L983.51,31.60 L980.36,33.23 L978.92,34.32 L977.30,37.86 L976.67,38.41 L976.76,40.32 L976.94,40.59 L975.68,42.22 L974.59,44.40 L974.23,46.58 L973.96,47.13 L974.05,47.40 L971.80,51.76 L966.85,54.75 L963.69,56.12 L959.10,56.39 L956.40,56.12 L953.96,55.30 L952.97,55.30 L951.53,56.66 L950.54,56.66 L949.73,58.57 L948.74,58.84 L947.75,61.02 L944.32,63.74 L943.51,64.83 L942.88,69.19 L942.52,69.46 L942.25,70.55 L942.34,71.10 L942.25,71.37 L942.61,72.46 L942.61,73.28 L943.15,74.09 L943.06,75.46 L942.16,76.82 L940.81,77.91 L940.54,78.45 L940.72,78.73 L940.27,79.54 L938.65,81.18 L938.65,81.72 L937.03,83.90 L935.23,87.99 L935.23,88.80 L934.23,90.71 L931.80,93.16 L930.99,93.44 L927.93,97.79 L927.12,99.70 L925.68,102.42 L925.59,102.97 L923.96,105.42 L923.42,107.06 L923.24,108.14 L921.98,110.87 L919.55,114.41 L918.92,114.96 L916.94,118.50 L916.94,118.77 L916.31,119.86 L916.22,120.68 L915.68,120.95 L914.77,123.40 L913.24,126.40 L912.52,128.58 L910.72,132.12 L910.63,132.39 L910.72,132.93 L910.27,133.75 L907.39,136.48 L905.05,139.47 L903.33,140.56 L898.92,145.19 L897.93,145.74 L897.48,146.83 L897.30,147.64 L896.49,149.01 L896.31,149.55 L891.44,151.73 L889.73,154.18 L888.20,159.63 L888.38,159.90 L888.11,160.72 L886.49,163.72 L886.40,164.53 L885.68,166.44 L884.05,169.16 L880.90,175.97 L880.27,177.61 L879.64,180.60 L878.38,183.87 L878.20,185.78 L877.57,186.60 L876.94,189.05 L875.77,192.05 L874.77,196.40 L874.41,197.22 L873.87,200.22 L873.60,200.76 L873.69,201.04 L873.42,201.58 L873.42,202.94 L872.88,205.39 L872.52,208.12 L872.25,213.02 L871.98,214.66 L871.71,215.20 L869.19,218.20 L865.59,219.83 L861.17,222.56 L857.12,225.55 L855.05,227.73 L854.32,228.55 L852.97,231.82 L849.10,238.90 L848.38,241.90 L847.93,242.71 L847.03,246.80 L846.22,253.61 L845.68,255.79 L844.86,265.05 L845.32,267.50 L845.41,268.86 L845.14,269.95 L845.23,271.59 L844.86,273.49 L844.77,276.49 L845.14,278.13 L845.68,278.94 L846.31,282.21 L846.13,285.75 L845.68,287.39 L845.50,289.02 L845.68,290.66 L845.50,292.84 L845.59,294.20 L845.68,295.83 L845.95,296.92 L845.95,298.83 L846.31,301.01 L845.95,302.91 L845.59,303.73 L845.50,307.00 L843.87,312.18 L842.61,314.36 L840.90,317.08 L840.18,317.62 L840.27,317.62 L840.09,317.35 L840.09,317.90 L839.19,318.99 L837.75,322.80 L836.67,324.71 L835.23,333.70 L835.05,338.60 L834.41,342.41 L833.87,348.41 L833.15,350.59 L833.33,351.13 L832.88,352.22 L832.97,353.31 L832.25,355.22 L832.25,357.12 L831.44,359.30 L831.26,360.94 L830.90,361.75 L830.99,362.30 L830.54,363.39 L830.09,367.75 L830.27,369.65 L830.09,370.20 L829.91,373.74 L829.46,375.65 L828.38,377.83 L827.93,379.46 L826.58,387.09 L826.49,390.36 L825.95,395.26 L825.86,396.35 L825.50,397.98 L823.06,403.16 L821.17,408.61 L819.91,416.51 L819.91,418.14 L820.36,420.05 L820.81,423.05 L821.80,426.86 L821.71,428.49 L821.98,432.58 L822.61,433.94 L822.70,436.67 L822.97,437.76 L822.97,438.85 L823.33,439.66 L823.06,443.48 L823.33,444.57 L823.33,445.66 L823.06,447.29 L823.06,448.92 L822.52,450.29 L822.52,451.65 L821.44,454.37 L820.54,458.73 L820.09,459.82 L819.28,462.82 L818.47,464.72 L817.57,467.99 L817.30,469.90 L816.22,472.62 L816.04,473.99 L815.41,475.07 L815.23,476.44 L814.41,478.34 L813.78,482.43 L813.33,483.25 L813.06,484.88 L812.07,488.42 L811.89,489.78 L812.25,490.33 L811.98,491.42 L811.98,491.96 L811.08,494.14 L810.45,496.87 L810.36,497.96 L810.45,499.05 L810.18,502.04 L809.64,505.58 L808.92,508.85 L808.92,511.58 L808.47,514.03 L807.57,516.75 L806.13,525.20 L805.23,527.65 L803.96,529.56 L801.62,535.28 L800.45,539.36 L800.18,541.27 L799.37,543.45 L799.37,544.81 L797.75,550.80 L796.94,552.98 L795.50,554.89 L794.32,557.34 L793.78,559.79 L792.70,563.06 L791.62,563.88 L791.53,565.24 L791.89,567.42 L791.80,570.96 L791.08,571.78 L789.28,575.05 L787.48,576.68 L785.05,580.50 L781.26,582.95 L778.83,583.22 L768.29,574.23 L764.59,570.69 L753.33,561.43 L747.03,557.61 L737.66,553.26 L715.50,547.53 L672.16,538.55 L657.30,534.46 L649.28,533.37 L641.35,532.82 L630.36,534.73 L623.96,536.91 L611.17,542.90 L598.65,549.71 L590.00,556.52 L570.00,576.41 L560.81,584.85 L553.96,592.21 L551.98,594.93 L549.55,598.47 L547.21,601.20 L546.67,602.56 L546.58,603.38 L545.77,606.10 L542.79,614.82 L542.25,617.54 L541.35,623.81 L541.17,627.89 L540.45,634.98 L540.36,639.06 L539.73,646.42 L539.82,651.05 L539.01,661.94 L539.01,664.94 L537.93,665.76 L537.39,666.85 L537.03,670.66 L536.58,672.84 L536.58,676.11 L536.22,681.56 L535.23,686.46 L530.09,701.99 L527.93,707.44 L523.78,715.06 L522.52,718.06 L521.08,721.06 L520.72,722.42 L520.00,723.78 L518.02,727.32 L515.32,732.77 L510.45,741.49 L508.20,746.12 L507.84,747.21 L504.59,752.93 L497.66,767.37 L491.89,778.26 L480.54,801.42 L463.15,835.47 L462.16,837.92 L460.45,840.92 L459.37,843.64 L457.12,847.73 L456.40,849.36 L454.32,852.90 L453.51,854.81 L453.06,855.35 L452.70,855.90 L452.79,856.17 L449.37,862.71 L448.56,865.16 L447.84,865.98 L446.49,869.25 L443.15,875.51 L440.99,880.14 L439.55,884.23 L435.32,891.86 L432.97,897.58 L432.25,898.39 L423.33,916.37 L418.38,925.36 L412.43,937.35 L406.94,947.70 L401.80,958.05 L400.81,960.50 L400.72,962.14 L400.45,963.23 L399.64,965.13 L395.77,971.40 L390.36,981.20 L385.95,988.29 L381.35,993.73 L378.38,996.46 L375.59,997.82 L371.62,999.18 L368.11,999.18 L365.86,998.91 L361.17,997.28 L358.74,995.64 L356.13,993.19 L353.24,989.38 L350.90,985.02 L347.12,974.67 L346.67,972.49 L345.77,969.49 L343.24,962.95 L341.62,957.50 L340.09,953.42 L337.03,944.16 L336.49,941.43 L335.23,937.07 L332.43,928.90 L331.17,923.18 L330.90,922.91 L330.45,921.00 L329.82,919.91 L329.55,917.73 L328.56,916.10 L328.11,913.92 L327.48,912.29 L327.48,911.74 L326.94,909.83 L326.22,908.20 L326.22,907.38 L324.32,901.12 L322.88,897.58 L321.71,893.76 L319.01,886.41 L318.02,884.23 L315.41,876.87 L309.46,863.25 L304.86,852.08 L294.14,827.30 L289.28,817.49 L283.87,808.23 L276.85,796.51 L266.85,782.62 L260.09,774.18 L250.00,763.01 L242.88,755.92 L240.18,753.75 L220.09,735.77 L202.52,721.06 L194.50,713.43 L182.79,703.08 L175.23,697.09 L162.70,687.82 L150.45,680.74 L144.77,676.65 L135.86,668.48 L127.03,659.77 L125.05,656.50 L123.51,654.86 L123.15,654.05 L124.14,651.32 L125.59,648.60 L126.76,645.60 L128.29,643.15 L132.34,633.61 L133.06,630.62 L133.24,628.71 L133.78,626.26 L134.05,622.17 L133.96,621.63 L134.05,618.09 L133.87,616.45 L132.88,611.01 L130.90,605.56 L127.57,598.75 L122.88,591.66 L121.71,589.21 L120.09,587.31 L120.00,586.76 L120.81,585.40 L120.72,584.31 L118.38,579.95 L117.12,578.04 L114.95,573.96 L114.23,573.41 L111.26,574.23 L110.00,573.69 L106.31,568.24 L105.14,566.88 L97.66,554.34 L95.95,552.44 L95.23,549.99 L87.57,537.18 L83.24,529.56 L80.99,526.29 L79.46,523.56 L79.10,521.38 L78.11,519.75 L75.14,516.48 L67.93,509.40 L45.14,485.15 L32.25,474.26 L31.26,473.44 L28.92,473.17 L23.78,469.90 L9.55,458.73 L5.23,454.92 L4.95,453.83 L3.87,452.19 L0.90,449.74 L0.27,448.65 L0.00,447.02 L1.26,444.02 L3.96,439.12 L5.41,435.58 L7.03,433.67 L8.02,430.67 L10.54,424.95 L11.44,423.86 L12.70,421.68 L14.41,417.60 L15.50,412.42 L19.10,404.52 L19.91,403.43 L20.63,402.89 L23.78,397.98 L24.50,396.08 L25.05,393.35 L26.85,390.36 L33.24,376.46 L34.59,374.01 L35.77,371.02 L36.58,369.65 L37.48,368.56 L42.07,365.84 L44.05,364.21 L51.08,365.02 L55.50,367.75 L56.13,369.11 L57.30,372.65 L58.02,373.74 L58.20,374.56 L59.10,376.46 L61.71,383.82 L62.61,385.18 L63.60,387.63 L64.23,388.72 L64.32,389.81 L65.14,391.99 L66.13,392.54 L66.13,393.08 L66.49,393.90 L67.84,395.53 L68.38,395.80 L68.74,397.17 L69.64,397.44 L70.27,397.98 L70.18,399.35 L69.10,402.62 L68.47,403.70 L68.11,405.61 L65.41,412.15 L64.68,414.60 L63.96,415.42 L62.07,420.59 L60.99,422.23 L59.46,426.59 L58.11,428.77 L53.42,439.66 L51.26,443.75 L50.00,447.29 L47.30,452.74 L44.86,458.73 L45.50,460.09 L55.50,467.72 L61.44,474.26 L76.13,488.15 L82.61,495.51 L92.52,505.58 L92.79,505.86 L93.33,508.04 L93.24,510.22 L94.68,512.94 L101.80,525.47 L102.88,526.83 L105.05,527.10 L105.41,527.65 L105.68,528.19 L105.86,530.10 L106.13,531.19 L113.78,544.27 L115.05,548.08 L117.12,551.35 L120.09,554.07 L120.36,555.71 L120.36,556.25 L120.18,556.80 L116.40,561.15 L112.79,564.42 L112.52,564.97 L112.25,565.79 L112.52,566.88 L114.14,569.87 L114.77,573.14 L116.04,576.14 L117.66,579.13 L118.65,580.22 L120.36,583.76 L120.63,585.13 L120.45,586.76 L120.63,587.85 L128.38,600.11 L131.44,606.65 L132.88,611.01 L133.87,615.64 L134.23,618.09 L134.41,622.72 L134.14,626.26 L133.42,629.53 L133.42,630.62 L132.25,635.25 L126.58,646.96 L124.05,651.87 L123.33,653.50 L123.42,654.32 L124.41,655.41 L126.67,659.22 L128.11,661.13 L134.23,667.39 L140.27,672.84 L146.31,677.20 L149.19,679.92 L164.41,689.46 L175.77,697.90 L193.69,713.16 L203.33,722.15 L216.04,732.77 L220.36,737.13 L242.43,756.20 L250.27,763.82 L258.56,773.09 L265.77,781.80 L271.62,789.70 L281.17,804.14 L286.22,812.59 L290.81,821.03 L296.31,832.47 L300.36,841.73 L313.15,871.97 L320.09,889.68 L323.78,900.03 L325.95,906.29 L327.21,910.92 L332.70,928.90 L336.40,941.98 L340.09,953.69 L342.52,960.50 L344.14,965.68 L347.84,975.76 L348.56,978.48 L351.44,986.11 L352.88,988.83 L355.23,992.65 L357.84,995.37 L361.89,998.37 L366.58,1000.00 L369.28,1000.00 L372.34,999.73 L376.04,998.37 L380.09,995.64 L384.50,990.74 L387.66,986.11 L387.93,985.29 L390.09,981.48 L391.08,980.11 L393.15,976.30 L393.15,976.03 L395.95,972.21 L396.49,970.85 L400.36,964.04 L400.99,960.77 L401.89,958.32 L403.96,954.78 L405.59,950.97 L411.26,940.34 L419.37,924.27 L421.53,920.73 L429.55,905.20 L435.14,893.49 L440.27,883.41 L440.27,882.59 L440.90,881.23 L441.35,879.60 L444.23,873.60 L445.50,871.42 L446.31,869.52 L448.11,866.25 L448.65,864.89 L450.54,861.35 L451.80,858.08 L454.95,852.63 L456.40,849.36 L460.90,840.92 L463.06,836.01 L464.14,834.38 L464.14,834.11 L466.13,830.56 L468.11,826.21 L471.98,819.12 L472.61,818.31 L473.87,815.04 L475.41,812.04 L476.31,810.95 L477.93,806.86 L481.17,800.87 L484.41,794.06 L484.86,792.70 L487.57,788.07 L488.11,786.43 L491.53,780.17 L491.44,779.90 L491.98,778.81 L500.36,762.73 L500.45,761.65 L501.44,760.01 L502.34,757.83 L505.05,757.29 L508.20,750.48 L511.08,747.48 L522.25,724.87 L527.30,715.61 L527.48,714.79 L533.60,701.99 L535.14,697.90 L537.48,689.46 L539.37,678.29 L539.46,676.11 L539.37,675.02 L539.55,674.75 L539.73,670.12 L540.18,665.76 L540.00,665.21 L540.36,661.40 L540.27,659.77 L540.54,657.04 L540.63,654.05 L540.90,651.59 L541.08,647.51 L541.35,645.60 L541.44,640.97 L541.71,636.34 L541.89,634.70 L542.34,628.44 L542.25,628.17 L542.79,622.17 L543.51,618.09 L545.05,611.55 L547.12,605.56 L549.64,600.65 L553.06,595.21 L558.74,588.67 L577.93,570.69 L579.82,567.97 L584.59,563.33 L584.77,562.79 L589.82,558.16 L598.11,551.62 L601.62,549.71 L603.15,548.35 L608.20,546.17 L616.04,541.81 L618.56,541.00 L625.14,537.73 L630.90,535.82 L634.68,535.28 L635.86,534.46 L640.27,533.91 L646.94,534.19 L679.28,541.27 L681.08,540.72 L701.44,545.08 L705.86,545.63 L711.35,547.26 L716.31,548.08 L719.46,549.44" fill="none" stroke="#fc4c02" stroke-width="2" />
</svg>