<svg xmlns="http://www.w3.org/2000/svg" viewBox="0 0 1000 1000">
  <path d="M0.00,846.92 L2.19,844.43 L4.93,846.09 L6.02,844.43 L8.76,845.26 L16.97,846.09 L21.35,847.75 L37.22,863.56 L58.02,878.54 L65.13,885.19 L69.51,886.86 L76.08,886.02 L82.65,889.35 L84.29,891.85 L83.20,895.17 L83.74,898.50 L108.37,918.47 L139.03,937.60 L176.25,957.57 L212.37,972.55 L222.77,976.71 L231.53,977.54 L259.44,986.69 L281.88,991.68 L305.42,994.18 L313.08,996.67 L338.81,1000.00 L390.26,1000.00 L444.99,994.18 L457.03,988.35 L476.74,984.19 L480.57,981.70 L500.82,955.91 L524.36,935.94 L530.38,929.28 L531.47,868.55 L536.40,866.06 L548.99,866.06 L568.14,871.88 L596.61,873.54 L724.69,869.38 L730.16,868.55 L744.39,861.06 L786.54,846.92 L803.50,843.59 L821.02,843.59 L840.72,837.77 L850.57,829.45 L856.60,826.96 L895.46,828.62 L928.85,824.46 L954.57,822.80 L980.84,828.62 L981.94,827.79 L977.01,820.30 L976.46,816.14 L979.20,783.69 L978.11,753.74 L980.84,712.15 L980.30,703.83 L983.03,663.06 L982.48,654.74 L983.03,650.58 L987.41,644.76 L990.70,637.27 L993.98,627.29 L992.34,617.30 L987.96,605.66 L977.01,598.17 L972.63,592.35 L972.63,589.02 L971.54,586.52 L966.06,584.03 L921.73,580.70 L893.27,575.71 L842.91,559.07 L801.86,535.77 L761.90,511.65 L755.34,507.49 L754.24,504.99 L754.79,503.33 L760.81,497.50 L764.64,488.35 L842.36,457.57 L862.07,448.42 L867.00,442.60 L869.18,438.44 L870.28,413.48 L869.73,399.33 L870.83,353.58 L869.18,342.76 L862.62,331.95 L864.26,330.28 L869.18,331.11 L868.64,336.11 L869.18,340.27 L871.92,350.25 L871.92,354.41 L870.28,370.22 L871.37,371.88 L871.37,376.04 L869.73,379.37 L869.73,383.53 L870.83,388.52 L870.28,392.68 L871.37,393.51 L869.18,402.66 L870.28,411.81 L869.18,439.27 L866.45,445.09 L859.88,448.42 L858.78,451.75 L852.76,452.58 L855.50,456.74 L863.16,471.71 L869.18,475.04 L887.79,489.18 L894.91,493.34 L909.69,499.17 L918.45,501.66 L928.85,502.50 L940.34,501.66 L968.80,495.84 L979.20,495.01 L980.84,493.34 L988.51,494.18 L990.15,492.51 L993.98,493.34 L986.86,495.84 L987.96,496.67 L991.24,497.50 L990.15,492.51 L985.77,495.01 L977.01,496.67 L968.25,495.84 L949.10,500.00 L928.85,501.66 L910.24,498.34 L897.10,493.34 L883.96,486.69 L873.02,478.37 L867.00,470.05 L866.45,467.55 L867.54,465.89 L867.00,464.23 L872.47,456.74 L875.75,454.24 L876.85,450.08 L875.75,447.59 L875.21,445.09 L876.30,445.92 L874.66,450.08 L868.09,464.23 L867.54,472.55 L870.83,477.54 L879.04,484.19 L897.65,495.01 L910.78,500.00 L922.28,501.66 L927.75,501.66 L915.16,500.83 L897.10,494.18 L883.96,487.52 L869.73,476.71 L868.64,475.04 L868.64,467.55 L871.92,458.40 L875.75,455.91 L876.85,451.75 L876.85,449.25 L873.56,441.76 L874.66,440.10 L874.11,440.10 L874.66,445.09 L873.56,450.08 L870.28,455.07 L867.54,462.56 L867.00,470.05 L867.54,472.55 L880.13,485.02 L899.29,495.84 L911.88,500.00 L932.13,502.50 L943.62,501.66 L981.39,495.01 L993.98,494.18 L992.88,495.84 L993.98,495.84 L993.43,494.18 L990.15,494.18 L987.96,495.84 L981.94,494.18 L944.72,500.83 L929.39,501.66 L910.78,499.17 L894.91,492.51 L880.68,485.02 L869.73,476.71 L868.64,475.04 L867.54,470.88 L868.09,466.72 L873.56,464.23 L876.30,458.40 L876.30,450.92 L873.56,444.26 L874.11,439.27 L875.21,442.60 L874.11,448.42 L867.00,459.23 L865.90,464.23 L867.00,472.55 L877.94,482.53 L892.72,492.51 L904.76,497.50 L915.71,500.00 L894.91,493.34 L869.73,477.54 L868.64,475.87 L868.64,467.55 L873.02,462.56 L875.21,457.57 L875.21,453.41 L876.30,449.25 L873.56,440.10 L874.11,440.93 L873.56,440.93 L875.21,440.10 L875.75,445.09 L867.54,463.39 L866.45,470.88 L867.54,474.21 L885.60,488.35 L899.84,495.84 L916.80,500.83 L932.13,502.50 L947.45,500.83 L976.46,495.01 L984.13,495.84 L996.72,494.18 L989.05,493.34 L984.13,495.84 L981.39,494.18 L973.73,495.01 L955.67,499.17 L929.39,501.66 L910.24,499.17 L896.00,494.18 L883.42,486.69 L870.83,477.54 L869.73,475.04 L868.64,466.72 L876.30,457.57 L876.30,449.25 L874.66,445.92 L875.21,442.60 L873.56,440.93 L874.66,440.10 L875.21,445.92 L867.00,462.56 L866.45,467.55 L867.54,472.55 L870.28,476.71 L896.55,494.18 L911.33,500.00 L910.78,499.17 L907.50,498.34 L893.81,492.51 L880.13,484.19 L869.18,475.04 L868.09,466.72 L871.37,464.23 L875.75,455.07 L875.75,453.41 L876.30,448.42 L872.47,441.76 L872.47,440.10 L874.66,440.10 L873.56,441.76 L874.66,440.93 L873.56,440.10 L874.66,440.93 L874.66,446.76 L868.64,460.07 L867.00,465.06 L867.54,473.38 L871.92,478.37 L879.04,484.19 L900.93,495.84 L913.52,500.83 L929.39,502.50 L949.64,500.83 L968.25,495.84 L983.58,494.18 L988.51,495.84 L1000.00,493.34 L974.27,495.01 L948.55,500.00 L931.58,501.66 L914.07,500.00 L898.19,494.18 L885.60,487.52 L869.18,475.87 L868.09,472.55 L868.09,466.72 L870.83,462.56 L872.47,455.07 L874.66,449.25 L873.56,441.76 L874.66,439.27 L875.75,441.76 L874.66,447.59 L868.09,464.23 L867.54,468.39 L868.64,474.21 L886.15,488.35 L896.55,493.34 L912.42,500.83 L914.07,499.17 L906.95,497.50 L889.44,490.85 L871.92,478.37 L869.18,475.04 L868.09,469.22 L868.64,465.89 L877.39,444.26 L871.37,440.93 L868.09,433.44 L869.73,420.97 L869.73,409.32 L868.64,406.82 L864.26,405.16 L833.06,405.16 L828.68,403.49 L813.36,401.83 L782.16,401.83 L760.26,400.17 L758.07,399.33 L755.88,395.17 L755.34,390.18 L756.43,368.55 L755.88,362.73 L757.53,351.91 L757.53,336.11 L756.43,335.27 L746.03,332.78 L743.30,331.11 L743.30,329.45 L752.60,315.31 L754.79,310.32 L757.53,300.33 L758.07,296.17 L755.34,282.03 L755.88,271.21 L755.34,246.26 L758.07,222.96 L758.07,214.64 L759.72,211.31 L761.36,202.16 L761.36,200.50 L756.98,198.84 L739.46,198.00 L737.27,196.34 L735.08,191.35 L732.90,189.68 L713.74,188.02 L690.75,188.02 L682.54,183.03 L673.23,178.87 L640.94,175.54 L638.20,173.88 L633.83,167.22 L613.03,158.90 L603.72,150.58 L586.21,149.75 L580.73,148.09 L578.00,143.93 L577.45,129.78 L568.14,118.14 L566.50,114.81 L565.41,108.99 L560.48,102.33 L563.77,74.04 L564.31,45.76 L565.41,41.60 L565.41,33.28 L568.14,7.49 L565.41,4.16 L558.29,3.33 L500.27,0.00 L480.57,0.00 L476.19,1.66 L474.00,4.16 L470.17,14.14 L470.72,19.13 L468.53,35.77 L469.07,43.26 L467.43,46.59 L466.34,72.38 L462.51,106.49 L461.96,119.80 L459.22,138.10 L455.39,176.37 L454.30,180.53 L450.47,183.03 L448.28,186.36 L448.82,190.52 L453.20,193.84 L455.39,203.00 L455.39,217.14 L453.20,228.79 L453.75,247.09 L452.11,262.06 L452.11,273.71 L454.84,282.86 L450.47,301.16 L448.82,336.11 L447.18,353.58 L446.09,356.91 L447.18,362.73 L450.47,365.22 L496.44,394.34 L498.08,396.01 L498.08,400.17 L459.22,425.96 L440.61,430.12 L426.38,439.27 L412.15,446.76 L362.34,467.55 L296.11,511.65 L197.59,591.51 L193.76,596.51 L194.85,608.15 L192.67,613.98 L179.53,624.79 L174.06,636.44 L165.30,643.09 L81.01,698.84" fill="none" stroke="#fc4c02" stroke-width="2" />
</svg>