<svg xmlns="http://www.w3.org/2000/svg" viewBox="0 0 1000 1000">
  <path d="M376.22,746.16 L376.42,743.49 L373.73,736.81 L360.48,736.81 L346.84,734.13 L342.04,734.80 L319.57,750.84 L306.51,755.51 L302.86,758.18 L295.18,764.86 L292.87,768.20 L290.95,772.21 L293.26,778.89 L296.33,792.92 L298.25,796.93 L304.21,804.28 L310.35,816.30 L318.61,826.99 L326.10,841.68 L334.55,851.70 L336.28,855.71 L338.97,866.40 L340.89,870.41 L343.58,875.08 L353.18,883.77 L355.48,887.78 L357.40,893.79 L361.24,899.80 L365.47,903.81 L370.46,905.81 L376.03,909.15 L381.22,916.50 L388.90,923.85 L390.82,926.52 L397.16,939.21 L403.88,947.23 L410.99,951.90 L416.94,958.58 L416.55,958.58 L417.13,957.92 L421.16,964.60 L424.81,968.60 L431.34,973.28 L440.75,975.95 L442.67,979.96 L453.04,982.63 L459.00,989.31 L462.45,991.98 L469.56,991.32 L476.86,992.65 L484.54,995.99 L488.38,999.33 L492.22,1000.00 L507.97,995.99 L513.92,997.33 L519.11,999.33 L523.33,1000.00 L537.16,992.65 L543.88,991.98 L551.37,993.32 L554.83,991.32 L560.02,985.97 L563.28,984.64 L573.07,983.97 L577.88,987.31 L585.37,988.64 L594.58,985.97 L598.23,982.63 L605.92,978.62 L611.29,977.96 L618.21,978.62 L621.47,978.62 L635.30,971.94 L639.72,972.61 L650.09,976.62 L656.42,977.29 L666.03,974.62 L679.66,965.93 L693.68,965.26 L703.67,960.59 L716.92,962.59 L725.95,959.92 L737.08,953.91 L748.22,941.88 L758.98,935.87 L764.55,929.86 L770.12,921.84 L790.86,881.76 L793.36,875.75 L802.77,854.38 L810.83,832.33 L817.17,823.65 L819.86,818.97 L824.85,806.95 L829.08,792.25 L834.65,782.90 L842.52,762.19 L864.61,724.11 L876.51,691.38 L881.31,681.36 L886.69,672.01 L903.40,648.63 L909.93,635.94 L917.03,619.91 L932.97,593.85 L939.31,577.15 L943.73,567.13 L964.86,537.07 L971.77,524.38 L981.76,498.33 L984.64,492.32 L988.29,486.97 L996.74,478.29 L999.04,473.61 L1000.00,470.27 L998.85,466.93 L972.34,456.91 L966.01,455.58 L963.70,452.91 L963.51,448.90 L964.86,440.21 L966.01,428.86 L966.58,412.83 L966.39,403.47 L967.35,381.43 L968.70,368.07 L969.85,347.36 L970.04,319.97 L968.50,284.57 L968.12,257.85 L968.31,255.85 L968.12,253.84 L967.54,252.51 L965.05,252.51 L961.59,257.18 L960.25,257.85 L940.08,259.19 L936.43,257.18 L933.74,252.51 L932.97,246.49 L934.32,229.12 L935.09,205.74 L934.51,183.03 L935.28,168.34 L936.05,135.60 L936.62,126.25 L935.86,120.91 L933.17,116.90 L929.52,114.90 L923.56,114.23 L811.22,110.22 L789.32,108.22 L769.54,108.88 L763.20,110.22 L751.87,111.56 L735.93,110.89 L717.30,112.22 L714.81,111.56 L713.08,108.88 L710.97,107.55 L702.90,108.22 L699.64,104.88 L698.87,102.87 L698.67,100.87 L698.87,90.85 L698.10,85.50 L698.10,81.50 L698.67,68.14 L698.48,64.13 L699.25,50.77 L699.64,38.74 L699.25,37.41 L698.29,36.74 L692.15,35.40 L632.80,34.74 L623.39,34.07 L618.21,35.40 L612.64,34.07 L593.62,32.73 L588.82,34.07 L575.96,32.06 L557.13,31.40 L547.15,32.73 L534.28,30.73 L526.79,28.06 L503.74,24.72 L497.02,28.06 L491.65,28.72 L486.46,27.39 L474.75,41.42 L468.22,46.76 L464.95,42.75 L462.26,42.75 L459.00,45.42 L445.55,62.79 L440.94,66.80 L438.83,65.46 L433.84,57.45 L426.54,42.08 L421.55,33.40 L417.71,23.38 L415.21,19.37 L407.91,2.67 L405.80,0.00 L404.65,0.00 L402.34,2.00 L396.39,10.02 L391.97,18.04 L388.71,21.38 L379.30,37.41 L371.81,45.42 L359.32,54.78 L349.91,58.12 L339.93,59.45 L337.81,61.46 L334.36,66.80 L330.71,66.13 L320.53,60.79 L305.36,54.78 L270.21,43.42 L262.53,42.08 L248.70,42.75 L243.33,41.42 L241.02,40.08 L231.61,31.40 L229.69,28.72 L228.35,23.38 L227.39,22.04 L219.13,18.04 L213.94,17.37 L208.95,19.37 L206.64,22.04 L203.96,28.06 L201.27,32.06 L192.82,42.08 L185.71,44.76 L178.80,48.10 L171.88,53.44 L165.55,59.45 L158.06,61.46 L154.41,63.46 L145.77,73.48 L143.65,78.16 L142.50,81.50 L142.12,87.51 L143.08,101.54 L142.31,108.88 L139.62,118.90 L136.93,132.93 L130.21,150.97 L130.02,152.97 L130.98,166.33 L129.83,171.68 L128.48,175.68 L116.19,193.72 L113.50,200.40 L106.40,221.78 L104.09,225.78 L101.21,229.12 L96.79,232.46 L82.97,233.13 L80.47,235.14 L77.59,238.48 L74.71,247.16 L70.87,263.86 L64.91,282.57 L61.65,289.91 L45.52,315.97 L31.69,332.67 L18.44,354.71 L12.68,362.06 L6.15,368.07 L3.84,372.75 L2.11,378.09 L0.00,390.11 L0.00,392.12 L0.38,393.45 L1.73,394.79 L11.14,400.80 L16.13,406.81 L20.17,413.49 L22.09,418.84 L24.97,428.86 L26.89,437.54 L31.30,448.90 L35.72,455.58 L47.63,468.27 L55.89,484.30 L59.54,489.65 L69.14,498.33 L82.58,515.03 L89.69,527.05 L103.13,557.11 L115.81,571.81 L118.11,573.81 L121.95,569.81 L126.75,570.47 L127.90,569.14 L131.94,563.79 L140.39,562.46 L142.88,563.13 L147.11,569.14 L147.69,571.81 L147.49,573.15 L148.26,579.16 L150.37,583.83 L158.63,592.52 L163.63,598.53 L174.19,615.90 L185.52,628.59 L195.12,643.29 L197.81,647.96 L198.39,647.96 L203.00,654.64 L222.58,684.70 L230.46,694.72 L234.68,702.07 L237.37,704.74 L238.33,704.07 L242.56,692.05 L257.73,661.99 L262.15,651.30 L266.95,642.62 L269.83,637.94 L284.81,605.21 L298.25,578.49 L301.90,569.14 L305.74,551.10 L308.05,547.09 L322.64,525.05 L325.33,524.38 L327.44,526.39 L328.60,525.72 L345.50,500.33 L352.22,491.65 L365.28,470.94 L369.89,466.27 L370.85,462.93 L381.41,448.23 L386.21,439.55 L386.98,436.21 L395.24,426.85 L398.12,420.84 L413.67,398.13 L425.97,378.09 L427.89,377.42 L430.19,380.09 L442.10,398.80 L445.55,402.81 L448.05,408.15 L459.00,424.18 L472.06,444.89 L479.35,456.25 L482.62,458.92 L491.65,474.95 L499.52,486.97 L499.52,488.31 L481.85,516.37 L459.96,558.45 L451.89,573.15 L450.55,577.82 L450.93,589.18 L450.36,592.52 L444.98,600.53 L443.83,607.88 L441.14,613.23 L434.22,623.25 L417.13,650.63 L414.06,654.64 L405.99,666.67 L402.92,673.35 L398.69,680.03 L398.89,684.03 L399.27,686.71 L402.73,692.05 L402.73,693.39 L401.77,698.06 L401.77,699.40 L402.92,701.40 L403.30,703.41 L403.11,709.42 L403.50,716.77 L403.30,720.77 L403.69,733.47 L404.65,735.47 L407.91,738.81 L410.02,743.49 L410.41,744.82 L410.41,747.49 L413.10,754.18 L415.59,756.85 L417.32,760.86 L420.01,768.87 L424.62,776.22 L424.24,779.56 L422.70,782.90 L407.91,811.62 L406.18,812.29 L404.26,811.62 L395.62,796.26 L388.13,780.90 L375.65,748.83 L375.26,747.49 L375.07,742.15 L374.30,741.48 L374.30,742.82 L374.50,740.81 L373.92,738.81 L373.92,736.81 L374.50,735.47 L377.76,734.80 L404.07,736.14 L407.53,737.47 L410.60,744.15 L410.60,745.49 L409.83,746.83 L408.87,746.16 L406.57,739.48 L404.65,737.47 L387.75,735.47" fill="none" stroke="#fc4c02" stroke-width="2" />
</svg>