<svg xmlns="http://www.w3.org/2000/svg" viewBox="0 0 1000 1000">
  <path d="M580.21,993.76 L581.14,990.20 L576.05,983.96 L573.28,982.17 L564.49,968.81 L564.03,963.46 L559.41,953.65 L490.98,950.09 L471.10,953.65 L440.59,967.91 L416.55,975.04 L388.81,981.28 L368.01,991.98 L361.53,999.11 L359.22,1000.00 L332.41,991.09 L319.46,983.96 L318.08,980.39 L317.15,975.04 L319.46,963.46 L319.46,961.68 L312.53,956.33 L308.83,955.44 L305.59,957.22 L297.73,958.11 L289.41,958.11 L284.79,956.33 L261.21,937.61 L232.09,918.00 L218.68,902.85 L196.95,884.14 L152.10,848.48 L103.56,807.49 L78.13,791.44 L42.07,761.14 L30.98,754.01 L23.58,751.34 L18.96,751.34 L7.86,760.25 L5.55,763.81 L0.00,776.29 L0.00,778.97 L2.77,782.53 L30.05,796.79 L35.60,802.14 L44.85,814.62 L53.63,824.42 L60.10,828.88 L86.45,842.25 L94.78,848.48 L98.94,852.94 L107.26,866.31 L113.27,871.66 L118.35,875.22 L148.40,886.81 L154.42,891.27 L160.89,901.07 L168.75,916.22 L173.83,921.57 L189.09,929.59 L205.27,934.05 L213.13,937.61 L219.60,942.07 L228.85,953.65 L234.40,959.00 L248.27,964.35 L257.51,971.48 L261.21,970.59 L276.01,958.11 L278.32,954.55 L277.85,952.76 L272.77,946.52 L261.67,936.72 L232.55,919.79 L229.31,916.22 L229.31,914.44 L243.18,893.05 L249.65,885.03 L259.82,877.01 L268.15,867.20 L275.08,857.40 L301.43,826.20 L316.69,811.94 L323.16,803.03 L351.36,771.84 L362.92,756.68 L377.72,740.64 L386.04,727.27 L392.05,712.12 L395.75,704.10 L437.36,670.23 L438.28,668.45 L438.28,666.67 L435.51,663.99 L395.28,640.82 L390.66,637.25 L386.96,629.23 L389.27,622.10 L394.36,614.97 L414.24,598.93 L427.65,586.45 L434.58,581.11 L441.05,573.98 L501.16,522.28 L519.19,507.13 L532.59,499.11 L554.32,481.28 L619.51,425.13 L631.07,418.00 L650.02,413.55 L652.33,410.87 L654.65,406.42 L654.65,401.96 L655.57,400.18 L739.25,328.88 L753.12,311.05 L758.67,302.14 L763.29,298.57 L765.60,294.12 L768.38,284.31 L773.93,278.07 L779.94,268.27 L787.79,249.55 L789.18,236.19 L791.49,226.38 L792.42,217.47 L794.27,209.45 L796.58,188.06 L796.12,179.14 L797.50,173.80 L800.74,146.17 L799.35,139.04 L797.50,134.58 L787.79,122.99 L739.25,73.98 L736.48,69.52 L737.40,66.84 L754.97,50.80 L779.01,35.65 L793.34,24.96 L798.89,24.06 L805.83,20.50 L813.68,13.37 L824.78,5.35 L830.79,4.46 L850.21,5.35 L866.85,1.78 L887.19,0.00 L893.67,1.78 L895.05,4.46 L896.44,12.48 L895.05,21.39 L917.24,25.85 L936.20,33.87 L938.05,35.65 L939.90,43.67 L943.60,50.80 L970.87,71.30 L978.27,79.32 L978.73,82.00 L979.20,90.02 L976.88,112.30 L975.03,148.84 L975.03,162.21 L974.57,164.88 L972.26,187.17 L971.80,199.64 L969.49,222.82 L969.95,229.95 L967.64,242.42 L965.79,265.60 L963.94,274.51 L962.55,291.44 L958.85,295.01 L957.00,299.47 L957.00,302.14 L961.63,309.27 L960.24,347.59 L959.78,405.53 L962.09,418.00 L963.01,429.59 L962.09,441.18 L958.85,450.09 L956.08,483.96 L957.47,488.41 L966.71,497.33 L996.76,521.39 L1000.00,525.85 L999.54,529.41 L996.30,533.87 L966.71,556.15 L961.63,558.82 L952.84,559.71 L927.42,580.21 L883.03,603.39 L826.63,651.52 L797.04,682.71 L786.41,691.62 L746.65,732.62 L742.49,738.86 L742.49,744.21 L743.41,754.01 L742.95,756.68 L739.71,761.14 L730.47,770.05 L725.84,781.64 L692.56,810.16 L660.19,839.57 L639.85,854.72 L634.30,860.07 L628.29,868.98 L621.82,875.22 L605.18,884.14 L598.71,883.24 L595.93,881.46 L570.04,846.70 L557.56,831.55 L539.07,811.05 L515.95,788.77 L476.19,755.79 L434.12,729.06 L415.63,720.14 L407.30,709.45 L405.46,702.32 L406.38,696.97 L419.33,684.49 L435.97,672.01 L437.36,667.56 L424.41,657.75 L397.13,643.49 L392.05,639.93 L387.42,632.80 L386.96,630.12 L387.42,624.78 L389.74,620.32 L397.13,611.41 L436.43,577.54 L458.16,557.04 L501.16,521.39 L530.28,500.00 L612.11,430.48 L630.61,418.00 L650.02,410.87 L653.72,407.31 L655.11,404.63 L655.11,400.18 L656.96,397.50 L726.31,339.57 L746.65,318.18 L757.74,303.92 L765.60,296.79 L767.91,292.34 L767.45,286.99 L768.38,284.31 L774.85,276.29 L787.79,251.34 L789.64,242.42 L789.64,237.97 L791.96,228.16 L793.80,193.40 L797.04,174.69 L797.50,159.54 L795.65,152.41 L790.57,139.93 L788.26,135.47 L776.70,123.89 L767.45,111.41 L736.01,82.89 L732.78,72.19 L733.70,69.52 L744.34,57.04 L756.82,47.24 L799.82,22.28 L819.69,8.02 L827.55,4.46 L848.36,5.35 L868.24,0.89 L885.81,0.00 L972.26,9.80 L975.96,10.70 L980.58,15.15 L980.12,27.63 L978.73,38.32 L980.58,50.80 L980.58,63.28 L981.97,82.89 L977.35,129.23 L975.50,139.04 L975.50,147.06 L974.57,152.41 L975.03,162.21 L973.19,180.93 L971.80,204.10 L970.41,209.45 L969.95,229.95 L967.64,249.55 L963.94,265.60 L962.09,278.97 L962.55,284.31 L961.17,293.23 L957.00,297.68 L956.08,302.14 L960.70,307.49 L962.09,311.94 L963.48,326.20 L962.09,336.01 L961.63,350.27 L960.70,353.83 L960.70,359.18 L961.63,360.96 L960.70,375.22 L961.63,382.35 L960.24,389.48 L960.70,393.94 L959.78,406.42 L960.24,414.44 L958.85,421.57 L957.93,433.16 L958.39,436.72 L957.00,448.31 L957.93,463.46 L955.62,467.91 L949.61,466.13 L920.94,464.35 L901.06,466.13 L869.16,462.57 L821.08,462.57 L804.90,459.00 L772.08,459.89 L718.91,453.65 L707.81,449.20 L687.93,434.94 L675.91,424.24 L661.58,409.98 L657.42,408.20 L648.17,413.55 L632.45,418.00 L617.66,426.92 L588.07,451.87 L574.20,465.24 L549.70,483.96 L535.83,498.22 L520.11,508.91 L479.89,541.89 L420.71,593.58 L393.90,614.97 L388.35,620.32 L387.89,623.89 L388.35,629.23 L390.66,634.58 L394.82,639.04 L429.03,657.75 L444.75,670.23 L448.91,674.69 L454.92,687.17 L461.40,695.19 L494.68,720.14 L502.54,723.71 L519.65,737.97 L525.66,745.10 L533.52,752.23 L559.87,770.94 L562.18,774.51 L563.57,781.64 L567.73,789.66 L596.39,822.64 L619.97,852.94 L628.29,856.51 L631.07,858.29 L631.53,860.07 L628.76,867.20 L618.59,877.90 L620.43,881.46 L623.21,885.03 L625.98,891.27 L625.98,894.83 L624.13,898.40 L624.13,901.07 L630.14,910.87 L630.14,917.11 L629.68,922.46 L631.07,945.63 L628.29,949.20 L623.21,951.87 L606.10,952.76" fill="none" stroke="#fc4c02" stroke-width="2" />
</svg>