<svg xmlns="http://www.w3.org/2000/svg" viewBox="0 0 1000 1000">
  <path d="M292.31,748.42 L291.14,744.96 L290.85,742.66 L287.03,734.02 L286.74,732.87 L287.03,731.15 L286.59,728.84 L284.83,723.09 L271.19,723.09 L263.57,721.36 L258.29,723.09 L246.11,734.02 L233.06,739.78 L228.07,743.81 L223.67,748.99 L212.82,770.87 L211.50,770.87 L202.70,763.96 L199.18,759.93 L193.02,750.72 L191.55,747.27 L190.67,743.24 L190.53,740.36 L189.94,737.48 L189.35,735.18 L187.59,732.87 L182.02,728.27 L180.40,725.39 L176.88,716.18 L174.10,712.72 L166.47,708.69 L163.24,704.66 L161.04,698.91 L158.84,688.54 L156.20,682.21 L151.51,677.03 L145.94,674.15 L144.03,671.85 L141.24,666.67 L138.90,657.46 L137.72,655.15 L132.15,647.09 L130.24,646.52 L125.11,639.61 L122.47,633.85 L118.95,624.64 L117.34,621.19 L115.43,618.88 L106.78,610.82 L101.50,601.61 L92.70,589.52 L87.27,579.16 L79.64,569.37 L76.12,561.31 L72.16,550.37 L71.28,548.65 L69.52,544.04 L64.39,533.68 L57.64,524.47 L45.32,510.65 L42.24,505.47 L39.16,497.41 L37.40,494.53 L26.84,480.71 L24.20,475.53 L23.03,473.23 L20.83,466.32 L17.16,450.20 L13.20,440.41 L8.95,434.08 L4.84,430.63 L0.44,428.90 L0.00,428.32 L0.00,427.17 L1.61,415.66 L2.93,409.90 L4.25,407.02 L9.83,400.12 L14.96,392.06 L18.33,386.30 L22.88,375.94 L33.88,362.12 L45.17,341.97 L47.81,335.64 L51.33,324.70 L54.27,313.76 L57.93,297.06 L59.55,293.61 L61.60,291.31 L63.36,290.16 L73.48,290.16 L78.03,286.70 L80.23,282.67 L85.51,266.55 L87.86,257.92 L95.48,245.83 L97.54,241.80 L99.00,237.77 L99.74,233.16 L99.74,228.55 L99.00,222.22 L99.15,219.92 L101.79,213.01 L102.23,212.44 L101.94,213.01 L103.99,207.25 L105.46,200.92 L105.60,198.04 L106.34,193.44 L109.12,181.92 L109.56,177.32 L109.12,164.65 L109.42,160.62 L110.44,156.59 L111.62,153.71 L116.90,145.65 L119.39,143.35 L125.26,141.62 L134.94,132.41 L139.92,128.96 L144.91,127.23 L148.58,124.35 L148.43,124.35 L154.59,116.29 L159.58,105.93 L161.92,104.20 L170.28,105.93 L172.92,108.23 L174.39,112.84 L175.71,115.14 L182.60,122.05 L186.27,124.35 L193.90,124.93 L199.77,123.20 L205.19,123.78 L240.54,137.59 L246.70,141.05 L251.25,145.65 L253.59,146.23 L254.77,145.08 L257.85,139.90 L259.46,138.74 L266.50,138.17 L272.51,136.44 L279.55,132.41 L281.75,130.11 L285.86,125.50 L295.98,109.38 L299.21,104.20 L302.58,96.14 L306.25,89.81 L308.74,88.08 L312.11,88.66 L314.61,86.93 L316.66,85.20 L324.14,75.99 L327.96,76.57 L338.08,79.45 L347.17,71.96 L356.56,74.27 L364.04,67.36 L368.58,61.60 L370.64,59.87 L371.37,58.72 L378.26,51.81 L386.77,49.51 L390.73,47.21 L393.08,47.21 L396.01,45.48 L399.09,45.48 L405.54,42.60 L412.44,37.42 L420.50,33.97 L429.60,27.06 L433.41,25.33 L436.34,22.45 L440.45,20.73 L443.24,17.85 L445.88,17.85 L467.88,5.18 L480.93,0.00 L487.68,0.00 L496.33,1.73 L505.43,1.15 L509.83,2.88 L513.49,5.76 L516.13,6.33 L519.21,6.33 L524.05,2.88 L526.84,3.45 L529.33,7.48 L530.65,12.09 L533.44,18.42 L534.17,23.03 L535.20,26.48 L536.96,29.94 L545.47,34.54 L548.40,35.12 L556.91,40.30 L559.99,40.88 L607.80,42.60 L619.83,41.45 L627.02,39.15 L635.23,32.82 L639.04,29.36 L649.90,22.45 L658.11,14.97 L662.95,14.39 L664.12,14.97 L665.74,18.42 L668.23,30.51 L669.99,36.27 L673.07,53.54 L675.86,61.60 L676.74,65.63 L678.50,76.57 L679.52,80.02 L680.26,81.17 L681.87,80.60 L687.30,77.72 L688.33,78.87 L689.06,82.33 L690.23,84.63 L692.14,84.63 L727.93,61.02 L730.86,62.75 L733.94,61.60 L735.85,62.18 L740.83,82.90 L741.57,84.63 L742.59,84.63 L776.03,74.27 L790.26,73.69 L811.09,75.99 L818.13,75.42 L829.13,73.69 L834.70,71.39 L837.93,68.51 L840.42,69.08 L843.50,74.27 L848.05,86.36 L857.88,115.14 L863.60,128.96 L864.62,133.56 L866.24,136.44 L867.85,141.62 L869.32,144.50 L870.20,148.53 L876.21,162.92 L880.32,175.59 L880.46,176.17 L880.46,179.04 L881.64,179.04 L882.66,180.77 L883.84,185.38 L889.56,199.19 L890.29,203.80 L889.70,207.25 L888.68,207.25 L889.85,205.53 L891.02,204.95 L899.82,226.25 L920.06,280.94 L929.74,304.55 L932.82,314.34 L942.21,338.51 L946.61,351.18 L948.67,355.21 L953.51,369.03 L967.73,404.72 L969.05,409.33 L976.83,428.32 L992.52,469.78 L997.36,481.87 L998.97,486.47 L1000.00,492.80 L999.41,496.26 L998.53,497.99 L989.59,510.07 L963.63,538.86 L945.88,560.16 L939.72,566.49 L931.21,576.86 L925.34,583.19 L922.12,585.49 L917.57,591.82 L914.34,594.70 L910.82,599.88 L909.36,600.46 L903.93,607.37 L898.80,612.55 L885.45,628.09 L877.68,628.67 L873.57,632.12 L861.54,646.52 L850.98,656.30 L845.41,662.64 L830.89,682.79 L825.32,689.12 L802.87,710.42 L785.27,735.18 L782.19,736.33 L765.91,751.87 L750.37,773.75 L738.19,786.99 L724.55,799.65 L709.15,819.80 L684.07,849.17 L676.30,857.23 L653.56,877.37 L642.86,884.86 L628.04,894.07 L614.84,900.40 L603.84,903.86 L583.46,909.04 L580.67,908.46 L578.62,907.31 L574.66,900.98 L572.16,899.25 L569.67,900.98 L561.60,911.34 L555.15,915.95 L552.07,917.10 L548.11,917.67 L538.43,916.52 L534.47,917.10 L528.31,920.55 L518.48,921.13 L516.28,921.70 L508.95,928.04 L500.00,931.49 L495.01,929.76 L489.88,926.89 L485.04,926.31 L474.33,932.07 L471.69,932.07 L466.71,930.92 L462.60,932.07 L452.77,938.98 L447.35,940.70 L442.21,940.13 L437.52,937.25 L430.48,936.10 L426.66,938.40 L422.85,943.58 L420.21,944.16 L413.61,943.01 L408.92,944.16 L401.44,949.91 L398.65,950.49 L390.29,946.46 L387.50,946.46 L378.26,951.07 L373.86,950.49 L365.65,945.31 L358.61,943.01 L353.33,944.16 L351.42,943.01 L346.58,935.52 L339.54,932.07 L337.49,933.79 L336.17,936.67 L335.44,940.13 L335.00,943.58 L335.14,950.49 L333.24,952.79 L326.34,955.67 L325.32,957.40 L324.58,963.15 L323.41,966.61 L321.65,968.91 L319.74,970.06 L206.95,995.97 L187.44,999.42 L166.03,1000.00 L152.68,999.42 L128.48,994.24 L112.06,989.06 L91.52,979.27 L77.30,971.21 L75.54,970.06 L74.95,967.76 L75.54,962.58 L77.15,955.09 L81.99,942.43 L84.34,933.22 L84.92,929.19 L85.95,915.37 L88.00,904.43 L90.50,896.95 L94.75,886.59 L96.07,881.98 L97.10,876.22 L97.83,862.41 L99.59,853.77 L102.08,846.86 L107.66,837.08 L110.88,827.29 L112.06,819.80 L112.20,812.90 L111.91,806.56 L112.79,799.65 L114.55,793.90 L119.98,785.26 L122.62,774.90 L123.20,769.72 L123.50,762.23 L122.76,755.33 L121.15,744.39 L120.86,736.90 L121.74,727.12 L124.38,713.30 L124.96,708.69 L125.26,702.94 L124.67,697.18 L122.91,685.66 L122.18,676.45 L122.18,673.00 L123.35,663.79 L125.40,654.58 L126.28,648.24 L127.16,646.52 L128.48,645.94 L132.15,647.09 L136.55,652.85 L139.19,658.03 L141.98,666.67 L143.59,670.12 L145.79,672.42 L152.83,677.61 L157.08,683.36 L158.26,685.66 L161.48,698.33 L163.39,702.94 L166.91,707.54 L172.19,710.42 L176.44,715.03 L181.72,727.12 L189.79,735.75 L195.37,725.39 L196.25,724.81 L198.01,727.12 L200.79,727.69 L203.58,726.54 L206.95,718.48 L211.06,712.72 L220.30,708.12 L226.75,707.54 L238.78,709.84 L242.74,708.69 L244.65,706.97 L251.69,698.91 L270.17,681.06 L273.98,682.21 L287.91,677.61 L294.37,674.15 L297.15,677.61 L300.67,678.76 L306.83,683.94 L307.27,685.09 L307.27,686.24 L306.39,689.69 L306.39,691.42 L307.57,692.57 L312.41,697.18 L315.49,701.78 L320.48,715.03 L322.38,724.81 L327.22,734.60 L328.69,739.78 L329.28,742.66 L330.60,744.96 L333.53,748.42 L333.97,749.57 L333.68,751.30 L321.36,776.63 L316.22,788.72 L314.32,790.44 L311.82,787.56 L309.18,787.56 L305.95,781.81 L294.37,754.75 L286.74,732.87" fill="none" stroke="#fc4c02" stroke-width="2" />
</svg>