<svg xmlns="http://www.w3.org/2000/svg" viewBox="0 0 1000 1000">
  <path d="M875.61,67.47 L849.59,69.88 L808.13,60.24 L697.56,21.69 L649.59,0.00 L646.34,2.41 L638.21,19.28 L616.26,74.70 L556.91,197.59 L550.41,216.87 L550.41,226.51 L548.78,231.33 L540.65,253.01 L518.70,291.57 L499.19,303.61 L486.18,303.61 L467.48,296.39 L439.84,277.11 L412.20,260.24 L341.46,243.37 L318.70,236.14 L254.47,226.51 L120.33,187.95 L113.82,192.77 L103.25,216.87 L95.12,248.19 L88.62,267.47 L69.92,306.02 L58.54,322.89 L57.72,325.30 L60.16,332.53 L56.10,349.40 L50.41,356.63 L2.44,392.77 L0.00,397.59 L0.00,404.82 L4.07,436.14 L11.38,477.11 L17.07,527.71 L25.20,566.27 L26.02,585.54 L33.33,626.51 L39.84,681.93 L44.72,696.39 L44.72,734.94 L75.61,930.12 L74.80,932.53 L78.86,956.63 L78.86,966.27 L83.74,997.59 L90.24,1000.00 L169.11,978.31 L196.75,966.27 L230.89,961.45 L237.40,956.63 L242.28,949.40 L242.28,925.30 L246.34,915.66 L249.59,913.25 L316.26,896.39 L335.77,893.98 L355.28,884.34 L457.72,862.65 L482.11,838.55 L497.56,831.33 L659.35,795.18 L695.93,780.72 L696.75,778.31 L702.44,698.80 L709.76,653.01 L721.95,559.04 L734.96,479.52 L739.02,438.55 L743.90,412.05 L745.53,385.54 L757.72,373.49 L761.79,361.45 L765.04,322.89 L765.04,303.61 L767.48,269.88 L765.85,253.01 L766.67,248.19 L778.05,238.55 L795.93,233.73 L904.07,233.73 L975.61,243.37 L987.80,240.96 L989.43,236.14 L988.62,226.51 L991.87,161.45 L1000.00,91.57 L998.37,86.75 L994.31,84.34 L972.36,74.70 L950.41,62.65" fill="none" stroke="#fc4c02" stroke-width="2" />
</svg>