<svg xmlns="http://www.w3.org/2000/svg" viewBox="0 0 1000 1000">
  <path d="M441.37,878.23 L440.70,872.79 L439.59,873.47 L433.83,861.22 L433.39,859.86 L433.83,856.46 L433.83,855.78 L431.17,848.30 L410.55,847.62 L399.69,846.26 L393.70,846.26 L387.28,848.98 L376.86,857.14 L367.32,862.59 L353.36,867.35 L347.59,870.07 L342.72,873.47 L335.62,882.99 L334.52,883.67 L318.33,874.83 L315.89,870.75 L315.01,868.03 L314.79,863.95 L316.12,855.78 L313.23,851.70 L311.24,849.66 L305.92,851.70 L300.16,851.70 L291.51,839.46 L274.66,822.45 L272.89,820.41 L269.12,812.24 L245.40,780.95 L219.69,748.30 L209.27,733.33 L197.52,721.09 L184.88,703.40 L172.69,692.52 L171.80,691.16 L170.03,685.03 L170.47,679.59 L170.25,677.55 L168.70,674.83 L165.82,672.11 L163.82,670.75 L153.18,670.75 L148.08,676.87 L143.87,675.51 L141.65,675.51 L137.66,680.27 L135.00,680.95 L120.37,666.67 L116.83,660.54 L104.19,634.69 L96.21,622.45 L85.35,610.20 L76.70,603.40 L68.72,594.56 L56.09,575.51 L41.01,560.54 L36.36,554.42 L31.04,542.18 L25.71,523.81 L20.17,512.24 L15.74,506.80 L10.86,502.72 L0.89,499.32 L0.00,497.96 L0.00,496.60 L0.89,493.88 L2.44,482.99 L5.54,474.83 L26.16,451.02 L28.60,447.62 L33.25,437.41 L35.91,434.01 L52.98,417.69 L69.61,394.56 L75.15,382.31 L80.03,370.07 L83.57,358.50 L86.46,346.26 L89.34,340.14 L92.22,337.41 L95.54,336.05 L106.85,336.05 L111.51,335.37 L114.39,334.01 L119.71,329.25 L121.70,325.17 L133.01,297.28 L147.42,278.23 L148.97,274.15 L150.52,268.03 L150.52,264.63 L149.41,255.10 L149.63,252.38 L154.29,243.54 L156.51,238.10 L158.50,230.61 L159.83,223.81 L164.27,209.52 L165.37,203.40 L165.37,200.00 L164.49,189.80 L164.49,182.99 L165.82,178.91 L168.48,173.47 L174.46,166.67 L179.78,162.59 L189.32,159.86 L199.29,151.70 L208.38,146.26 L219.46,142.86 L223.01,140.82 L232.99,130.61 L238.53,120.41 L243.18,116.33 L247.84,115.65 L254.27,117.01 L260.47,119.73 L264.46,127.21 L275.33,135.37 L278.43,137.41 L293.06,139.46 L306.36,139.46 L315.89,142.18 L365.33,157.14 L369.54,158.50 L379.30,165.31 L382.62,165.99 L390.16,158.50 L404.57,155.78 L427.40,144.90 L436.71,135.37 L443.36,123.81 L446.91,121.09 L463.98,96.60 L473.29,96.60 L476.61,95.24 L488.58,84.35 L490.80,82.99 L508.31,87.07 L511.64,86.39 L522.50,78.91 L534.91,79.59 L539.57,78.23 L545.78,74.83 L568.83,56.46 L573.27,54.42 L585.01,52.38 L591.66,48.98 L607.63,44.90 L645.31,28.57 L654.18,29.25 L674.57,20.41 L677.68,21.77 L680.34,21.09 L682.55,17.69 L686.54,14.97 L716.03,2.72 L722.68,0.68 L738.64,0.00 L747.73,1.36 L759.70,5.44 L839.73,40.14 L844.60,48.30 L846.15,52.38 L846.60,55.10 L846.82,64.63 L846.38,70.75 L846.82,75.51 L846.15,85.03 L846.60,91.16 L846.60,97.28 L845.05,116.33 L845.27,121.09 L846.15,123.81 L848.15,124.49 L887.39,124.49 L895.15,125.85 L910.88,124.49 L916.20,127.89 L917.31,132.65 L917.31,138.78 L918.20,140.82 L919.97,143.54 L929.28,149.66 L937.26,161.22 L939.70,166.67 L939.70,184.35 L939.92,196.60 L939.26,224.49 L939.48,238.78 L938.59,261.90 L938.82,268.03 L938.37,277.55 L938.59,282.31 L937.93,314.29 L937.71,349.66 L938.37,357.14 L937.49,370.75 L939.70,376.19 L951.23,392.52 L956.55,404.08 L960.10,414.97 L960.76,419.73 L961.43,431.29 L960.32,446.26 L957.44,456.46 L953.23,469.39 L951.45,480.95 L951.23,490.48 L952.12,499.32 L953.00,505.44 L956.11,517.01 L956.77,521.09 L957.22,528.57 L956.77,538.10 L955.22,544.22 L949.01,561.90 L947.46,568.03 L946.80,572.11 L946.58,594.56 L945.91,604.76 L943.25,614.97 L943.25,616.33 L944.80,622.45 L948.13,627.21 L948.35,629.25 L949.90,648.30 L951.67,663.27 L951.90,669.39 L952.56,674.15 L954.56,682.99 L965.86,708.16 L970.29,717.69 L972.51,723.13 L974.51,731.97 L975.17,738.10 L975.39,744.22 L974.73,746.94 L974.51,754.42 L975.62,762.59 L975.62,768.71 L974.95,774.83 L970.29,784.35 L970.07,787.76 L971.40,789.80 L982.71,802.04 L988.92,810.88 L992.46,817.69 L998.89,825.17 L999.78,826.53 L1000.00,828.57 L999.33,829.93 L974.95,867.35 L970.74,874.83 L967.41,882.99 L965.20,885.71 L946.35,885.03 L932.83,876.19 L925.74,874.15 L918.64,874.15 L904.68,878.91 L898.91,878.91 L894.48,876.19 L884.73,869.39 L876.52,866.67 L868.32,868.03 L846.82,876.19 L838.84,874.83 L827.53,870.07 L820.22,870.07 L798.27,874.83 L787.41,872.79 L786.08,872.79 L779.87,882.31 L772.78,885.71 L766.35,887.07 L751.05,897.96 L745.51,898.64 L737.97,907.48 L733.98,909.52 L680.56,912.24 L668.59,910.20 L662.60,905.44 L655.95,905.44 L655.07,906.12 L654.62,908.16 L654.40,924.49 L654.62,935.37 L654.18,938.10 L637.55,953.06 L620.93,962.59 L608.73,967.35 L600.31,969.39 L581.69,970.75 L575.93,970.07 L572.82,967.35 L567.28,965.99 L565.06,966.67 L563.73,972.79 L562.85,974.15 L557.30,976.87 L551.32,981.63 L541.34,998.64 L539.13,1000.00 L529.15,997.28 L514.96,986.39 L494.35,963.27 L484.81,949.66" fill="none" stroke="#fc4c02" stroke-width="2" />
</svg>