<svg xmlns="http://www.w3.org/2000/svg" viewBox="0 0 1000 1000">
  <path d="M129.47,787.53 L127.30,785.71 L119.72,773.00 L119.45,771.79 L119.99,768.77 L119.72,767.55 L117.28,763.32 L115.38,761.50 L98.86,760.90 L75.57,759.08 L66.90,760.90 L49.02,770.58 L40.09,774.21 L14.63,781.48 L4.60,787.53 L1.63,790.56 L0.00,792.98 L0.00,794.79 L1.90,797.22 L7.85,813.56 L20.31,825.06 L27.63,834.14 L39.27,844.43 L46.86,854.12 L60.67,864.41 L64.19,869.25 L67.98,878.33 L71.51,883.17 L74.49,886.20 L88.30,894.67 L90.20,897.09 L95.07,904.36 L97.24,906.78 L104.55,912.23 L119.99,917.68 L128.39,924.94 L135.97,929.18 L141.12,934.02 L147.89,943.10 L152.49,947.34 L160.62,952.78 L174.97,960.05 L187.70,970.94 L197.45,975.18 L217.23,981.84 L227.25,983.66 L232.12,986.08 L235.92,990.31 L240.79,992.13 L252.98,992.13 L263.27,993.34 L282.50,1000.00 L286.84,1000.00 L303.36,996.37 L310.67,996.37 L326.11,1000.00 L331.80,999.39 L341.55,994.55 L347.24,993.34 L368.63,992.74 L371.61,992.13 L378.66,987.29 L382.72,986.08 L395.45,985.47 L407.10,989.10 L416.03,989.71 L429.31,986.68 L444.75,980.63 L450.43,980.02 L462.08,980.63 L470.48,979.42 L482.94,975.18 L490.25,974.58 L503.52,978.81 L515.44,979.42 L527.90,977.60 L545.23,970.34 L554.98,969.13 L565.82,969.13 L581.26,964.29 L601.57,965.50 L618.91,962.47 L631.09,957.02 L644.37,947.34 L664.41,939.47 L673.62,931.60 L679.58,924.94 L704.23,894.67 L724.00,865.01 L732.94,848.67 L741.33,841.40 L745.40,835.96 L753.79,823.85 L759.48,811.14 L767.88,802.06 L773.84,790.56 L777.36,785.11 L785.75,774.82 L802.28,757.87 L811.48,746.97 L819.61,733.66 L827.19,719.73 L833.97,709.44 L841.28,701.57 L864.57,680.99 L884.62,654.36 L903.30,634.38 L904.39,633.17 L905.47,629.54 L907.64,628.33 L910.35,624.70 L916.31,612.59 L922.81,605.93 L946.37,585.35 L952.87,578.69 L959.64,569.61 L976.71,541.16 L981.31,536.92 L995.67,526.63 L999.19,522.40 L1000.00,519.98 L1000.00,517.55 L997.56,515.74 L986.19,513.92 L970.48,509.08 L951.79,504.84 L950.16,504.24 L949.08,500.61 L951.25,493.34 L952.87,480.63 L953.14,473.37 L953.95,469.13 L953.68,467.92 L953.95,461.86 L953.68,460.65 L953.95,449.15 L956.39,426.76 L956.93,424.33 L957.20,424.94 L957.48,418.28 L957.48,399.52 L958.02,386.80 L956.66,354.12 L955.85,346.85 L956.12,322.03 L955.85,310.53 L957.48,289.35 L960.46,272.40 L959.91,263.92 L959.10,259.08 L958.56,252.42 L959.10,194.31 L959.64,188.86 L963.16,176.15 L964.25,169.49 L963.98,165.86 L963.16,162.83 L959.37,152.54 L959.37,127.72 L960.18,113.80 L959.64,103.51 L960.18,93.22 L959.10,89.59 L956.39,88.38 L952.87,88.98 L940.68,84.75 L935.54,80.51 L932.29,75.06 L931.20,74.46 L919.01,81.11 L912.51,82.93 L903.85,86.56 L896.26,88.98 L881.91,90.80 L867.01,92.62 L865.11,91.40 L863.49,87.17 L861.05,83.54 L859.43,82.93 L849.95,86.56 L846.15,86.56 L843.17,84.75 L838.84,78.09 L833.97,67.80 L825.57,47.82 L819.34,27.85 L812.57,19.98 L807.96,18.16 L802.55,19.37 L795.23,23.00 L768.69,34.50 L741.87,43.58 L732.12,45.40 L662.24,43.58 L626.22,43.58 L621.61,44.79 L589.11,35.11 L576.38,26.03 L566.63,7.87 L562.03,4.84 L558.50,4.84 L546.59,7.26 L528.17,2.42 L492.96,0.00 L480.50,0.61 L469.39,3.03" fill="none" stroke="#fc4c02" stroke-width="2" />
</svg>