<svg xmlns="http://www.w3.org/2000/svg" viewBox="0 0 1000 1000">
  <path d="M343.83,761.96 L341.33,763.17 L327.70,772.86 L311.00,781.95 L302.55,785.58 L297.37,789.82 L292.19,796.49 L281.44,790.43 L275.48,784.37 L274.91,780.13 L275.29,768.02 L272.99,764.39 L270.49,763.17 L268.57,764.39 L262.43,764.39 L251.10,750.45 L238.24,738.95 L226.53,719.56 L221.92,714.11 L205.80,692.31 L201.38,685.65 L182.57,659.60 L171.05,646.88 L163.56,636.58 L158.19,627.50 L151.66,620.84 L148.78,614.78 L148.59,607.51 L148.21,606.30 L145.71,603.27 L141.29,602.06 L136.11,603.27 L132.85,602.06 L117.11,581.47 L114.61,576.62 L112.11,569.35 L102.51,556.03 L98.10,534.83 L96.95,526.35 L84.09,472.44 L82.55,468.20 L77.37,457.90 L70.26,476.08 L53.18,508.78 L49.15,514.23 L36.86,502.73 L32.44,497.88 L28.99,491.82 L19.77,466.99 L14.40,458.51 L9.21,453.66 L0.19,448.82 L0.00,447.61 L1.15,440.34 L3.07,433.07 L3.84,432.47 L8.06,433.68 L4.99,431.86 L4.99,429.44 L8.83,422.77 L15.17,416.11 L24.57,404.60 L34.56,388.86 L47.99,374.92 L55.86,362.20 L59.51,357.36 L67.00,341.01 L70.84,331.31 L77.17,310.12 L79.86,305.27 L83.51,302.24 L99.25,300.42 L105.01,294.97 L108.47,288.31 L114.61,268.32 L117.87,262.87 L129.58,248.33 L131.70,239.25 L130.54,228.35 L130.93,224.11 L134.38,217.44 L137.84,207.15 L138.99,199.27 L141.49,191.40 L143.21,182.92 L143.41,178.07 L142.83,169.59 L143.79,161.11 L148.21,154.45 L153.58,149.61 L159.34,146.58 L164.33,145.37 L180.46,134.46 L191.78,130.22 L196.58,127.20 L204.45,119.93 L210.41,108.42 L213.09,106.00 L219.43,107.21 L225.76,110.24 L229.03,113.26 L231.52,118.72 L240.93,126.59 L245.92,129.01 L270.69,130.83 L323.67,148.39 L328.85,152.03 L333.46,153.24 L338.26,147.79 L349.78,147.18 L354.77,145.97 L366.48,140.52 L372.82,136.28 L377.81,130.83 L404.49,92.07 L413.13,92.07 L417.74,88.43 L424.65,80.56 L429.26,78.74 L441.35,83.59 L447.49,80.56 L452.29,76.32 L458.05,75.11 L464.20,76.92 L470.34,75.11 L474.18,72.68 L491.07,58.15 L498.18,53.91 L531.00,46.64 L547.51,36.34 L559.80,30.89 L569.40,24.83 L597.04,12.72 L613.36,4.85 L622.77,1.82 L635.82,0.00 L652.52,1.82 L660.78,1.82 L661.55,3.03 L661.93,8.48 L663.85,13.33 L700.71,32.10 L712.80,36.95 L718.95,41.19 L731.62,43.00 L746.02,43.00 L753.70,41.19 L760.80,41.19 L780.57,43.61 L793.82,43.61 L805.91,45.43 L813.59,44.82 L841.81,30.89 L858.51,21.20 L869.84,18.17 L871.57,23.02 L872.14,27.26 L875.22,38.16 L879.63,56.33 L882.89,64.81 L884.24,72.68 L886.93,80.56 L889.23,82.98 L897.68,82.37 L900.56,80.56 L903.24,86.01 L906.70,86.01 L929.93,76.92 L950.85,64.81 L955.65,62.99 L965.64,65.41 L967.94,71.47 L971.20,85.40 L972.16,93.88 L972.55,103.57 L972.93,107.21 L972.93,135.07 L972.55,147.18 L972.93,149.00 L972.74,155.66 L974.85,162.33 L975.81,173.83 L973.12,190.19 L973.12,200.48 L971.78,224.11 L972.16,242.88 L971.97,251.97 L973.32,269.53 L972.74,279.22 L971.01,288.31 L969.48,307.69 L969.86,335.55 L970.44,348.88 L970.24,352.51 L970.82,366.44 L970.63,376.14 L970.05,382.19 L970.82,391.28 L971.78,397.33 L971.40,405.21 L971.78,408.24 L970.82,418.53 L968.90,430.65 L967.75,462.14 L967.56,482.13 L967.17,491.82 L966.02,499.70 L969.67,504.54 L973.32,506.97 L979.65,509.39 L995.20,513.02 L1000.00,515.45 L1000.00,516.66 L999.42,520.90 L996.74,526.35 L992.13,532.40 L985.41,543.31 L980.80,553.60 L971.01,573.59 L958.15,591.76 L949.89,601.45 L944.14,608.72 L941.64,613.57 L936.26,626.89 L928.97,639.61 L924.75,645.67 L903.63,680.80 L894.41,694.73 L886.16,705.03 L883.47,709.27 L873.30,728.65 L869.26,740.76 L869.07,743.19 L866.00,749.85 L861.39,757.72 L853.71,767.41 L847.96,776.50 L841.24,787.40 L838.16,794.06 L834.33,795.28 L824.34,794.06 L817.05,791.04 L812.25,788.01 L799.96,784.37 L795.74,784.37 L789.02,786.80 L780.96,787.40 L767.52,780.74 L760.80,778.92 L754.27,779.53 L738.53,784.98 L730.85,785.58 L720.68,783.16 L719.33,784.98 L711.65,801.94 L708.01,808.00 L702.25,812.84 L695.53,823.74 L692.07,830.41 L689.96,838.89 L689.19,843.13 L689.38,847.97 L689.00,851.00 L689.38,864.32 L689.19,872.80 L687.85,875.83 L686.12,875.83 L683.82,877.04 L678.83,877.04 L663.85,876.44 L648.30,874.02 L646.77,874.02 L641.97,880.07 L641.20,900.67 L641.20,912.17 L641.39,923.08 L641.20,934.59 L639.28,953.97 L639.28,963.66 L640.05,974.56 L628.72,979.41 L619.89,980.62 L610.48,980.01 L603.95,981.83 L596.28,987.28 L587.83,990.91 L582.65,990.91 L579.38,990.31 L571.51,985.46 L565.56,985.46 L563.64,986.07 L550.78,993.94 L543.48,993.34 L539.45,993.94 L530.62,997.58 L527.16,1000.00 L519.68,1000.00 L506.62,996.37 L499.33,998.79 L491.65,998.79 L485.70,994.55 L478.02,992.13 L471.68,991.52 L463.43,992.13 L457.86,987.89 L453.64,983.04 L447.49,981.83 L442.89,978.80 L438.28,973.96 L425.42,969.11 L412.36,955.78 L406.22,951.54 L399.12,944.28 L395.28,939.43 L390.48,930.95 L374.74,913.99 L368.59,912.78 L365.91,913.99 L363.79,919.44 L361.30,923.08 L359.57,926.71 L359.38,935.80 L357.84,937.61 L334.23,943.67 L304.28,948.52 L300.25,947.91 L277.40,953.36 L244.38,959.42 L237.28,959.42 L237.28,947.91 L238.63,936.40 L242.66,929.13 L244.77,920.65 L243.81,909.75 L244.00,907.33 L247.26,897.03 L268.19,864.93 L269.15,862.51 L285.66,838.89 L289.31,832.22 L286.43,826.77 L281.05,818.29 L277.40,810.42 L277.21,808.60 L279.32,804.36 L293.91,782.56 L300.44,777.10 L305.62,774.08 L318.87,769.84 L331.35,762.57 L337.11,757.12 L342.87,755.30 L343.64,755.91 L344.79,761.36 L345.36,768.63 L347.86,773.47 L358.42,800.73 L363.60,811.63 L368.40,819.50 L372.05,828.59 L377.23,838.28 L382.61,845.55 L386.25,853.42 L388.56,856.45 L388.75,858.27 L390.29,859.48 L394.70,857.06 L400.08,849.79 L406.22,838.89 L407.95,829.80 L404.68,823.74 L391.44,803.76 L385.29,792.85 L384.14,789.22 L381.07,791.64" fill="none" stroke="#fc4c02" stroke-width="2" />
</svg>