<svg xmlns="http://www.w3.org/2000/svg" viewBox="0 0 1000 1000">
  <path d="M134.90,527.62 L139.88,528.91 L147.58,528.91 L150.29,529.56 L156.63,528.91 L163.88,525.02 L172.02,529.56 L181.98,530.86 L187.42,534.11 L195.11,534.11 L201.00,535.41 L210.05,546.46 L210.05,550.36 L214.58,557.50 L214.12,561.40 L218.20,569.20 L217.75,573.10 L219.56,577.00 L223.63,577.65 L224.08,578.95 L227.70,578.30 L229.52,579.60 L234.50,580.25 L240.38,577.65 L245.36,578.95 L247.17,576.35 L250.34,577.65 L255.77,577.00 L264.37,582.20 L265.73,584.15 L265.28,585.45 L266.64,588.04 L265.73,588.69 L266.18,591.29 L268.90,593.89 L269.35,597.79 L276.14,605.59 L276.60,607.54 L280.67,614.04 L280.67,622.48 L279.76,627.03 L292.44,635.48 L311.45,643.27 L312.36,645.22 L320.05,650.42 L321.87,653.67 L326.84,656.27 L334.09,661.47 L342.24,670.57 L368.49,692.66 L368.95,693.96 L368.04,693.96 L377.55,705.65 L381.62,708.90 L384.34,707.60 L399.28,695.26 L421.91,670.57 L426.44,666.67 L436.85,660.17 L461.75,649.77 L472.61,641.98 L482.12,636.78 L498.42,630.93 L526.03,610.79 L539.61,598.44 L541.42,595.19 L547.76,588.69 L550.93,586.74 L552.29,584.80 L554.55,583.50 L557.27,580.90 L559.98,580.25 L569.04,567.90 L576.28,554.91 L580.35,545.16 L583.07,541.26 L588.95,527.62 L597.10,500.32 L608.42,474.33 L614.31,462.64 L628.79,439.90 L631.05,437.95 L638.75,426.25 L649.62,413.26 L681.30,380.77 L687.64,371.67 L702.13,358.02 L706.65,349.58 L712.54,341.78 L722.50,330.73 L725.22,329.43 L734.72,317.09 L743.32,309.94 L758.26,293.05 L761.88,289.80 L786.33,280.05 L800.81,267.06 L818.92,257.96 L828.88,248.86 L836.58,239.77 L855.14,216.37 L862.38,205.33 L867.81,192.98 L873.25,183.89 L878.23,172.19 L878.68,166.99 L879.58,163.74 L888.64,146.20 L896.79,126.71 L915.35,92.27 L926.21,66.93 L931.19,57.83 L936.62,51.33 L946.13,37.04 L951.11,32.49 L956.54,29.24 L960.16,28.59 L965.14,29.89 L971.93,33.14 L979.18,40.29 L983.25,39.64 L985.97,35.74 L1000.00,1.95 L1000.00,0.00 L997.28,1.95 L995.02,5.85 L991.40,16.89 L985.97,28.59 L980.99,42.88 L979.18,43.53 L974.65,37.04 L968.76,34.44 L962.43,33.14 L955.18,35.09 L951.56,37.69 L950.20,40.94 L946.58,44.83 L943.87,47.43 L942.51,50.03 L940.70,51.33 L937.53,57.83 L934.36,61.08 L933.45,63.68 L931.64,64.98 L923.95,77.97 L903.12,117.61 L900.86,124.11 L900.41,131.90 L896.79,140.35 L887.73,157.24 L882.30,169.59 L864.64,202.08 L855.59,216.37 L848.35,224.82 L829.79,250.81 L825.26,254.71 L807.15,267.06 L781.35,290.45 L771.84,295.00 L761.88,298.25 L756.00,304.74 L738.80,319.04 L736.53,321.64 L733.36,328.14 L727.48,335.93 L717.97,342.43 L710.28,351.53 L693.07,372.97 L682.66,384.02 L673.16,396.36 L667.27,401.56 L635.58,439.25 L621.55,458.74 L610.23,477.58 L605.25,489.28 L602.54,497.08 L598.01,506.17 L595.74,514.62 L593.48,518.52 L591.22,526.32 L590.77,531.51 L587.60,536.71 L585.79,541.91 L581.71,547.11 L574.02,559.45 L572.20,565.30 L565.41,572.45 L557.72,583.50 L549.57,588.69 L533.27,607.54 L518.79,621.18 L494.79,635.48 L483.02,641.33 L465.82,648.47 L436.40,664.07 L431.42,666.67 L420.10,677.71 L410.59,684.86 L392.03,707.60 L388.41,714.10 L383.43,728.40 L374.83,746.59 L374.38,751.79 L372.11,759.58 L372.57,762.83 L369.40,777.78 L366.68,783.63 L356.72,796.62 L337.71,814.17 L328.66,824.56 L315.07,836.26 L303.76,851.20 L295.16,858.35 L285.20,869.40 L281.58,875.89 L271.62,885.64 L262.11,892.14 L255.32,898.64 L249.89,907.73 L250.34,910.98 L276.60,941.52 L297.87,962.96 L308.28,975.31 L316.43,988.95 L317.34,992.20 L320.51,998.70 L320.05,1000.00 L314.17,1000.00 L306.02,997.40 L296.97,992.85 L298.33,991.55 L298.33,990.90 L295.61,988.30 L286.10,984.41 L285.20,980.51 L285.65,971.41 L289.72,964.91 L285.65,962.96 L286.10,959.71 L285.65,956.47 L282.48,949.97 L273.88,942.82 L267.99,935.67 L265.28,934.37 L262.11,930.47 L260.75,925.28 L258.49,923.98 L252.15,916.83 L235.85,905.78 L229.97,898.64 L227.25,890.19 L224.54,886.29 L223.18,880.44 L221.37,877.19 L217.29,874.59 L216.39,872.64 L214.12,865.50 L212.77,854.45 L210.96,850.55 L206.88,845.35 L191.94,836.26 L191.04,836.91 L188.77,834.96 L183.79,834.31 L179.72,831.71 L173.38,823.91 L169.31,821.31 L162.97,808.97 L155.27,805.07 L141.24,787.52 L132.64,783.63 L127.66,778.43 L118.15,770.63 L117.25,768.68 L117.70,768.03 L118.61,769.33 L121.32,760.23 L121.32,753.09 L123.13,745.94 L125.85,740.09 L127.21,733.59 L129.02,731.64 L134.00,732.94 L134.00,731.64 L136.71,730.34 L136.71,728.40 L138.98,727.10 L142.60,725.80 L149.84,719.30 L150.75,717.35 L149.84,714.75 L148.48,715.40 L146.67,714.10 L143.96,714.10 L134.90,702.40 L124.49,695.26 L118.15,687.46 L116.34,687.46 L109.10,681.61 L106.84,678.36 L102.31,673.81 L95.07,672.51 L91.90,664.72 L83.30,656.92 L82.39,652.37 L82.39,647.82 L81.48,644.57 L78.77,639.38 L72.88,631.58 L64.74,628.33 L61.11,628.33 L57.04,627.03 L54.78,617.28 L47.99,606.24 L42.55,601.04 L42.55,596.49 L40.29,589.99 L40.74,583.50 L38.93,582.85 L39.84,580.90 L39.38,578.30 L35.76,574.40 L32.59,569.20 L28.07,567.25 L17.20,567.25 L11.32,565.30 L8.60,562.70 L1.81,560.10 L0.00,558.15" fill="none" stroke="#fc4c02" stroke-width="2" />
</svg>