<svg xmlns="http://www.w3.org/2000/svg" viewBox="0 0 1000 1000">
  <path d="M999.90,37.78 L1000.00,37.65 L999.50,37.52 L998.41,36.50 L996.62,35.35 L996.92,34.72 L996.82,34.46 L995.53,33.31 L994.04,33.06 L986.69,32.93 L981.72,32.55 L979.33,32.67 L976.75,33.18 L972.88,34.59 L969.50,35.61 L957.77,37.40 L954.89,38.54 L952.61,39.82 L951.42,39.44 L946.05,38.29 L944.86,37.91 L944.06,37.40 L943.86,36.38 L944.46,34.84 L943.77,34.21 L942.08,33.57 L939.29,33.95 L937.31,33.82 L931.74,30.89 L925.48,28.21 L924.49,27.19 L921.01,25.02 L909.19,18.63 L899.85,13.40 L895.78,11.36 L891.70,9.70 L886.64,6.89 L885.35,6.00 L883.76,5.36 L881.77,4.85 L880.08,3.96 L879.38,3.45 L878.99,2.68 L878.89,1.40 L876.70,0.13 L872.13,0.00 L870.74,0.13 L868.85,1.40 L868.75,1.91 L869.05,3.32 L868.85,3.96 L867.86,5.62 L866.37,7.15 L863.09,9.70 L856.43,14.42 L847.89,21.19 L841.03,26.16 L830.50,34.46 L827.62,35.99 L825.14,36.76 L819.77,37.91 L817.09,38.93 L815.20,40.33 L813.11,44.42 L811.43,45.95 L798.21,53.99 L788.57,60.75 L784.50,62.41 L783.21,63.05 L781.22,64.45 L779.23,66.24 L776.95,69.81 L773.67,72.50 L768.70,76.07 L758.67,83.73 L754.10,87.43 L751.71,88.96 L750.52,90.11 L739.29,98.53 L734.43,101.34 L732.84,102.62 L731.54,103.89 L729.76,107.21 L727.77,109.13 L718.83,115.76 L716.54,117.80 L712.57,120.49 L689.02,138.48 L675.91,147.16 L673.52,148.44 L671.63,149.97 L669.95,150.86 L668.36,152.14 L666.57,153.03 L664.38,154.69 L662.10,155.97 L660.71,156.99 L654.74,160.56 L620.27,183.02 L614.31,186.22 L611.33,188.00 L607.35,190.81 L599.01,196.17 L571.98,214.81 L568.41,216.98 L566.92,218.12 L564.63,219.40 L562.15,221.19 L561.65,221.57 L559.56,222.97 L553.60,227.82 L535.92,239.44 L529.36,244.03 L524.79,246.97 L502.43,262.03 L493.99,266.24 L491.60,267.65 L486.64,271.09 L478.49,276.45 L476.80,277.86 L474.52,280.54 L472.63,282.07 L461.60,289.47 L457.72,292.53 L455.14,294.96 L450.17,300.19 L448.98,301.60 L439.34,312.19 L435.47,317.42 L415.90,341.93 L413.11,345.76 L407.85,352.39 L407.15,353.29 L405.76,356.99 L401.59,362.48 L399.40,364.90 L398.71,366.05 L392.35,373.84 L391.75,374.86 L387.38,379.96 L374.86,395.92 L368.90,404.98 L365.72,410.72 L364.73,412.00 L360.16,419.53 L354.99,427.44 L351.42,433.57 L333.93,461.39 L330.55,467.13 L325.98,473.52 L323.20,478.11 L315.65,489.34 L315.15,490.49 L313.56,492.53 L312.67,494.19 L306.21,504.15 L302.43,509.25 L268.26,552.01 L253.06,570.52 L247.99,577.41 L243.62,583.02 L242.13,584.43 L238.55,587.36 L236.96,589.15 L233.68,593.24 L232.99,594.51 L231.79,595.79 L229.61,598.60 L228.22,600.13 L224.34,604.98 L220.37,610.34 L217.88,613.15 L212.72,620.04 L204.17,630.63 L199.60,636.76 L183.51,656.80 L179.33,661.65 L178.44,662.92 L176.95,664.58 L158.37,687.30 L149.83,697.26 L137.01,713.08 L131.45,719.46 L127.67,724.31 L122.40,730.44 L118.83,735.04 L107.30,748.95 L102.04,755.07 L98.26,759.92 L93.49,765.41 L90.51,769.11 L87.53,772.30 L87.13,772.94 L87.23,773.32 L89.32,774.35 L89.92,775.11 L89.82,775.88 L89.42,776.52 L62.20,808.93 L58.02,814.42 L54.94,817.87 L54.55,818.51 L52.26,821.06 L47.49,827.06 L45.40,829.23 L36.07,840.71 L26.73,851.56 L25.04,853.48 L24.24,854.88 L20.96,858.84 L18.38,861.52 L18.18,861.90 L18.28,862.54 L18.08,863.56 L14.80,866.62 L12.02,868.92 L6.46,872.50 L2.29,874.66 L0.70,875.69 L0.10,876.45 L0.00,877.09 L1.09,879.00 L1.29,880.41 L1.69,881.05 L2.68,881.94 L11.03,888.83 L14.90,892.28 L16.99,894.32 L18.48,895.34 L35.27,910.15 L37.06,911.55 L52.76,925.34 L84.15,952.52 L86.64,954.82 L94.49,961.33 L111.77,976.26 L118.53,982.77 L120.42,984.68 L121.51,986.22 L122.60,987.24 L127.17,993.49 L130.85,999.74 L130.75,1000.00 L130.55,999.87 L130.95,999.62 L131.64,999.62 L131.74,998.98 L131.35,998.09 L130.45,996.94 L129.06,994.38 L127.07,991.32 L124.99,988.77 L119.82,982.90 L117.14,980.22 L98.26,963.75 L95.48,961.20 L90.61,957.12 L77.69,945.50 L57.82,928.53 L53.45,924.57 L48.88,920.74 L32.59,906.32 L16.10,892.28 L7.75,884.88 L5.96,883.47 L0.99,878.88 L0.10,877.60 L0.10,876.96 L0.99,875.81 L2.88,874.79 L4.07,872.88 L5.17,871.98 L10.03,869.18 L11.82,867.77 L17.19,863.18 L19.18,861.01 L23.65,856.03 L31.89,845.82 L33.78,843.78 L48.58,825.78 L51.66,822.46 L51.86,822.08 L51.86,821.70 L50.27,820.68 L49.98,820.42 L49.98,820.04 L52.36,817.49 L59.41,808.68 L63.98,803.32 L64.78,802.17 L73.12,792.21 L85.74,775.37 L89.62,770.64 L96.77,762.22 L122.31,730.70 L127.37,724.82 L134.72,715.63 L143.07,705.68 L150.92,696.11 L157.38,688.58 L168.50,674.79 L190.46,648.25 L201.09,634.97 L202.78,632.55 L205.37,629.48 L215.00,617.10 L219.77,611.23 L225.73,603.32 L234.58,592.47 L237.26,588.77 L238.55,587.24 L243.02,583.54 L244.31,582.00 L251.56,572.69 L266.67,554.18 L277.30,541.03 L279.19,538.35 L285.94,530.19 L285.94,529.93 L287.03,528.40 L289.12,525.85 L290.21,524.82 L290.51,524.19 L291.41,522.91 L292.40,521.76 L292.90,521.00 L293.59,520.36 L294.19,519.21 L295.78,517.68 L297.47,515.25 L298.36,514.49 L298.66,513.72 L299.65,512.70 L300.75,511.04 L301.94,509.89 L302.24,509.25 L304.52,506.19 L306.21,504.15 L307.30,502.36 L314.06,492.15 L317.44,486.66 L318.23,485.77 L322.70,479.00 L324.39,476.20 L327.17,472.24 L328.46,469.94 L329.66,468.41 L332.14,464.58 L332.14,464.20 L333.33,462.28 L334.92,460.37 L335.92,458.20 L337.01,456.92 L337.90,455.14 L344.06,445.56 L347.34,439.95 L348.24,438.80 L350.72,434.72 L351.22,434.21 L352.31,431.91 L353.01,431.14 L358.27,422.46 L360.16,419.78 L360.56,418.76 L364.03,413.40 L364.43,412.38 L371.19,402.04 L374.17,397.06 L377.84,392.47 L379.04,390.56 L388.18,379.58 L392.45,373.84 L399.01,365.92 L400.79,363.37 L404.47,358.90 L406.06,356.35 L407.05,353.67 L412.12,346.90 L413.61,345.25 L415.50,342.69 L421.06,335.80 L430.00,324.19 L436.07,316.91 L439.54,312.32 L446.00,305.04 L448.78,302.11 L451.66,298.79 L456.23,294.07 L459.71,291.26 L461.30,289.73 L462.69,288.96 L465.18,287.05 L467.26,285.90 L468.16,285.00 L472.03,282.58 L473.82,281.30 L475.91,278.88 L478.09,276.83 L490.71,268.03 L492.50,267.01 L500.75,263.18 L503.03,261.77 L503.53,261.26 L507.90,258.58 L524.09,247.48 L532.74,241.99 L552.91,228.46 L557.87,224.25 L564.03,219.91 L578.14,210.59 L583.11,207.40 L593.44,200.26 L598.41,197.06 L606.95,191.19 L609.94,189.28 L610.33,188.90 L621.86,182.39 L659.12,158.14 L664.08,155.20 L667.96,152.52 L670.94,150.73 L675.01,147.93 L678.59,145.76 L679.98,144.74 L684.75,141.80 L688.52,139.25 L700.84,129.93 L708.30,124.06 L728.56,108.87 L729.46,108.10 L730.55,106.57 L731.64,104.40 L732.14,103.77 L733.43,102.49 L740.09,98.40 L740.19,98.15 L755.69,86.79 L760.76,82.58 L776.65,70.71 L778.54,68.41 L779.23,66.88 L781.32,64.84 L784.20,62.92 L788.67,61.14 L798.81,53.99 L806.46,49.52 L812.12,45.82 L813.81,44.29 L815.10,41.48 L815.80,40.46 L816.49,39.82 L818.38,38.67 L827.22,36.38 L830.00,35.23 L841.53,26.68 L844.51,24.25 L846.10,23.23 L848.19,21.44 L853.55,17.36 L856.83,16.72 L858.32,15.95 L864.38,11.23 L865.28,10.72 L867.16,10.21 L868.06,10.21 L869.55,9.32 L870.44,9.06 L873.22,9.06 L874.91,8.68 L876.20,7.53 L876.90,6.13 L879.19,4.59 L880.48,4.21 L881.37,4.34 L884.65,5.49 L886.84,6.51 L892.80,10.08 L898.66,12.51 L915.65,22.08 L921.91,25.27 L923.70,26.42 L925.68,28.08 L932.34,30.89 L937.21,33.82 L939.79,33.95 L941.88,33.57 L942.37,33.57 L943.57,34.08 L944.46,34.72 L943.96,36.50 L944.16,37.27 L944.76,37.78 L945.85,38.29 L951.61,39.44 L952.71,39.95 L954.40,41.23 L955.89,43.65 L957.08,44.67 L960.26,46.33 L963.84,48.63 L967.81,50.54 L970.69,52.84 L976.15,55.26 L977.25,56.29 L977.84,57.43 L979.73,59.09 L980.92,59.73 L985.79,61.52 L986.49,61.90 L987.48,63.05 L988.38,63.69 L990.06,64.58 L990.96,64.84 L991.46,64.84 L995.03,62.28" fill="none" stroke="#fc4c02" stroke-width="2" />
</svg>