<svg xmlns="http://www.w3.org/2000/svg" viewBox="0 0 1000 1000">
  <path d="M349.07,746.46 L354.52,741.98 L354.52,739.75 L354.92,738.26 L352.10,729.31 L349.27,722.60 L347.46,714.39 L345.64,709.92 L341.40,708.43 L328.49,707.68 L314.57,703.21 L311.54,703.95 L307.51,706.19 L293.79,718.87 L287.13,723.34 L277.24,726.32 L269.17,732.29 L259.89,743.48 L257.47,749.44 L258.07,752.42 L266.14,777.78 L278.05,798.66 L284.10,806.11 L295.00,824.76 L300.44,832.21 L304.68,841.91 L307.30,852.35 L311.54,862.04 L320.62,873.23 L327.89,887.40 L333.13,892.62 L341.61,896.35 L346.25,899.33 L359.97,915.73 L370.46,933.63 L374.70,939.60 L378.53,944.07 L384.58,949.29 L395.28,962.71 L400.52,967.19 L406.78,971.66 L411.42,972.41 L426.35,979.87 L433.41,989.56 L439.06,991.05 L446.33,990.31 L452.58,991.05 L468.32,1000.00 L484.67,994.78 L491.53,996.27 L497.38,998.51 L503.23,999.25 L517.55,991.05 L534.10,988.81 L537.93,984.34 L542.17,982.10 L549.23,981.36 L554.28,982.10 L559.52,986.58 L564.37,987.32 L570.22,986.58 L576.67,983.59 L588.18,975.39 L605.73,974.65 L614.81,970.17 L619.45,969.43 L625.30,969.43 L632.77,973.90 L639.23,975.39 L649.11,972.41 L663.44,961.22 L669.90,959.73 L676.96,960.48 L690.68,955.26 L705.21,956.75 L717.51,953.77 L726.39,946.31 L736.48,935.12 L746.17,929.16 L751.41,924.68 L755.65,919.46 L777.24,876.21 L793.79,835.94 L802.26,812.83 L810.13,800.15 L815.98,785.98 L820.82,770.32 L827.48,757.64 L836.16,735.27 L849.68,712.16 L859.97,692.02 L863.40,683.82 L875.50,648.77 L883.17,633.11 L896.69,612.98 L900.73,606.26 L910.41,583.89 L915.25,574.20 L920.70,563.76 L931.40,545.12 L936.64,531.69 L940.48,519.76 L942.49,515.29 L957.83,492.92 L961.66,488.44 L970.14,472.78 L973.77,463.09 L977.20,450.41 L980.83,439.97 L983.25,435.50 L985.27,429.53 L994.96,419.09 L1000.00,407.90 L999.80,407.16 L998.79,405.67 L996.57,404.18 L978.61,397.46 L962.47,388.52 L962.27,387.02 L964.89,368.38 L965.70,352.72 L965.90,343.03 L965.90,308.72 L965.29,307.98 L963.88,307.23 L960.86,308.72 L959.44,313.94 L957.63,315.44 L951.98,313.94 L921.31,313.20 L912.63,311.71 L891.04,310.96 L889.43,308.72 L888.01,293.81 L886.60,291.57 L857.95,291.57 L824.05,288.59 L823.04,287.10 L823.65,283.37 L826.07,272.18 L826.88,254.29 L826.47,249.07 L823.65,232.66 L820.02,217.00 L817.80,210.29 L806.90,193.89 L804.88,187.17 L803.67,181.21 L803.67,175.99 L803.47,172.26 L802.66,170.02 L799.64,168.53 L776.43,168.53 L763.32,167.04 L735.27,166.29 L715.70,163.31 L706.82,164.80 L693.10,164.06 L686.04,163.31 L681.60,160.33 L681.60,142.43 L682.00,133.48 L682.00,121.55 L681.19,112.60 L680.59,111.11 L671.91,105.15 L669.49,100.67 L662.03,92.47 L655.57,91.72 L641.24,83.52 L634.18,81.28 L625.71,80.54 L605.93,84.27 L598.87,82.03 L596.85,76.81 L595.24,67.86 L593.02,60.40 L592.21,56.67 L591.40,48.47 L590.40,44.00 L587.37,17.15 L590.40,12.68 L586.76,14.17 L577.48,15.66 L574.66,0.00 L563.16,5.22 L562.35,7.46 L560.33,29.08 L557.91,44.74 L557.71,55.93 L555.89,66.37 L555.49,74.57 L555.29,79.79 L556.30,90.98 L555.89,111.86 L556.70,125.28 L556.90,147.65 L555.69,158.09 L553.87,159.58 L550.04,158.84 L544.59,156.60 L538.14,158.09 L513.32,156.60 L503.83,157.35 L468.32,151.38 L441.69,150.63 L431.80,145.41 L421.71,147.65 L418.68,146.16 L405.17,134.97 L399.72,128.26 L374.50,87.25 L369.65,81.28 L365.62,73.83 L360.98,64.88 L360.17,61.15 L357.34,57.42 L353.31,55.93 L351.49,51.45 L349.48,49.22 L329.90,30.57 L320.62,42.51 L318.00,50.71 L310.13,68.61 L306.70,72.33 L298.43,84.27 L279.06,113.35 L277.64,117.08 L277.44,120.06 L276.63,123.79 L276.63,128.26 L277.04,135.72 L274.21,147.65 L270.78,155.85 L253.23,166.29 L247.18,171.51 L240.72,180.46 L229.62,193.14 L220.74,207.31 L215.09,214.02 L209.04,219.99 L203.79,226.70 L198.35,237.88 L194.71,244.59 L189.47,259.51 L184.62,266.22 L174.13,276.66 L162.83,285.61 L148.10,292.32 L144.47,290.83 L144.07,284.86 L142.45,282.62 L132.57,276.66 L118.24,285.61 L104.52,292.32 L43.79,316.93 L38.14,322.15 L33.90,331.10 L17.35,367.64 L0.00,408.65 L2.62,414.62 L12.31,431.77 L32.89,454.88 L37.93,463.09 L44.19,473.53 L56.30,501.86 L60.33,509.32 L72.44,526.47 L84.14,547.35 L88.38,556.30 L96.85,564.50 L105.13,570.47 L110.17,575.69 L117.64,592.84 L121.87,600.30 L127.93,607.01 L133.58,611.48 L138.82,619.69 L143.06,630.13 L147.09,639.08 L151.33,643.55 L157.18,646.53 L164.25,653.24 L168.68,662.94 L171.51,674.12 L174.74,682.33 L180.99,688.29 L188.05,692.02 L193.91,697.99 L197.34,706.94 L202.78,715.14 L209.85,723.34 L213.48,738.26 L215.09,741.24 L225.38,756.15 L229.82,760.63 L236.68,765.10 L240.11,770.32 L245.76,781.51 L249.80,794.18 L254.84,803.13 L260.90,806.86 L267.15,811.33 L271.39,818.79 L278.65,835.20 L287.13,844.15 L292.37,853.09 L295.60,862.04 L299.23,870.25 L307.71,879.94 L315.78,897.09 L323.65,902.31 L328.29,906.79 L329.30,906.79 L331.92,900.82 L331.52,894.11 L324.86,882.18 L322.24,875.47 L305.49,857.57 L302.87,850.11 L299.64,837.43 L289.14,824.76 L283.09,812.08 L275.83,802.39 L270.58,796.42 L264.12,783.00" fill="none" stroke="#fc4c02" stroke-width="2" />
</svg>