<svg xmlns="http://www.w3.org/2000/svg" viewBox="0 0 1000 1000">
  <path d="M345.25,23.64 L344.53,24.87 L344.35,26.50 L352.07,38.73 L352.43,42.40 L351.54,46.88 L345.61,53.81 L329.26,68.08 L321.18,76.64 L318.66,78.68 L308.07,83.98 L289.38,90.09 L274.12,89.69 L268.01,90.50 L250.76,90.50 L244.66,92.13 L244.30,93.36 L244.84,94.17 L257.59,99.06 L261.00,101.92 L264.95,106.81 L284.17,116.59 L286.33,117.81 L286.69,119.04 L295.31,120.67 L298.90,119.85 L304.47,115.78 L305.91,116.18 L306.45,116.59 L306.45,117.41 L305.01,121.48 L303.22,124.75 L295.49,134.12 L294.05,136.98 L292.44,143.50 L294.05,145.54 L294.77,147.57 L294.77,149.61 L295.49,153.28 L295.85,157.77 L294.41,162.25 L294.77,163.07 L294.59,164.70 L291.18,168.77 L291.54,169.59 L291.36,170.00 L276.63,175.30 L273.40,174.89 L269.44,172.85 L265.67,169.59 L262.62,165.10 L262.08,162.66 L261.36,161.43 L259.92,160.62 L257.95,161.03 L255.97,162.66 L246.99,171.63 L242.14,174.48 L234.42,176.52 L231.00,178.56 L227.05,184.67 L218.07,195.27 L209.99,200.16 L205.86,209.13 L201.54,213.21 L200.65,214.84 L200.29,216.06 L201.72,219.32 L216.81,235.22 L221.66,238.48 L225.08,242.97 L227.95,249.90 L229.93,252.75 L234.24,256.01 L234.42,256.83 L233.70,258.05 L230.47,260.91 L225.79,266.20 L218.97,267.84 L213.40,272.32 L207.11,272.73 L202.08,275.99 L199.03,275.99 L197.41,274.77 L195.80,271.91 L195.08,269.87 L194.90,266.20 L193.64,264.17 L183.76,254.79 L180.89,252.75 L177.12,252.34 L171.19,256.83 L159.69,269.87 L155.92,275.58 L151.97,286.18 L150.53,287.40 L142.63,289.03 L140.65,291.48 L136.70,293.11 L132.03,293.52 L116.76,290.26 L93.77,298.00 L90.35,298.00 L80.29,296.78 L74.73,295.56 L72.39,295.96 L61.25,307.38 L57.30,309.01 L50.12,309.82 L35.21,316.35 L31.61,320.83 L30.00,326.54 L29.10,327.76 L15.99,334.28 L9.34,338.36 L6.65,343.66 L4.67,351.00 L4.49,352.22 L4.85,355.48 L4.67,362.01 L3.59,366.08 L2.34,368.94 L1.62,373.01 L1.80,376.68 L0.00,383.61 L0.36,390.13 L0.54,390.95 L2.87,393.40 L3.59,397.47 L3.23,399.10 L4.31,402.36 L5.03,403.59 L5.21,408.48 L7.19,412.15 L9.88,415.00 L13.11,417.45 L19.22,420.71 L23.71,426.01 L29.28,426.82 L33.23,429.27 L35.39,432.12 L37.54,436.61 L42.21,440.28 L44.55,443.54 L45.99,448.43 L47.78,450.06 L48.86,452.51 L51.19,460.25 L51.73,463.92 L51.37,465.96 L51.91,468.00 L50.66,475.34 L52.63,480.64 L52.81,483.49 L52.45,487.16 L52.81,489.60 L53.89,490.83 L62.15,496.53 L65.03,501.43 L64.49,505.10 L62.33,509.99 L61.61,515.29 L61.07,517.33 L58.74,520.59 L57.66,523.03 L57.12,529.96 L53.35,535.26 L52.45,537.30 L53.35,540.97 L53.71,546.68 L54.61,549.53 L55.33,551.57 L58.74,556.05 L60.00,559.32 L60.00,564.21 L59.46,567.47 L59.10,573.18 L58.74,576.03 L58.02,578.07 L58.02,579.29 L58.56,580.92 L60.36,582.14 L65.21,582.55 L70.41,580.51 L76.52,580.92 L81.55,578.88 L87.12,580.92 L92.15,585.00 L98.08,585.41 L111.73,591.93 L113.35,593.56 L114.42,599.27 L116.76,603.75 L117.48,606.60 L118.02,607.83 L121.79,609.46 L123.59,612.72 L126.10,614.76 L138.32,619.65 L139.57,619.24 L144.78,620.06 L151.97,622.91 L155.92,623.32 L159.69,622.10 L165.26,622.50 L169.75,620.87 L173.52,621.69 L178.55,620.06 L183.76,617.20 L187.89,616.39 L202.98,618.43 L212.50,624.54 L218.61,626.17 L222.02,629.43 L224.72,633.51 L227.23,638.40 L229.03,640.85 L230.64,645.74 L231.72,646.96 L234.24,651.45 L235.49,651.85 L237.65,653.89 L241.42,662.05 L242.14,664.08 L242.32,665.72 L244.48,671.83 L244.48,673.05 L245.19,675.91 L245.37,677.54 L244.84,678.76 L244.12,684.88 L245.02,686.51 L247.71,688.54 L248.07,690.18 L249.15,691.81 L256.51,696.29 L260.82,702.00 L263.34,706.48 L264.77,708.52 L274.12,714.23 L284.71,726.87 L287.41,732.16 L288.13,734.20 L289.20,735.83 L294.59,738.28 L295.67,739.91 L294.95,742.76 L289.20,754.99 L288.13,759.07 L285.43,764.37 L285.07,767.63 L285.07,770.49 L287.23,774.56 L287.23,778.64 L287.77,785.98 L287.59,790.46 L286.87,793.72 L283.64,797.39 L275.01,800.24 L272.14,802.28 L263.52,806.36 L259.92,809.21 L255.07,812.47 L252.92,814.51 L252.20,816.55 L252.20,819.00 L249.87,828.37 L249.51,830.00 L249.87,833.27 L254.00,841.01 L254.36,843.86 L253.82,845.50 L250.94,849.98 L246.99,851.61 L240.52,851.61 L230.29,850.39 L225.79,850.39 L219.87,849.16 L216.81,849.98 L213.76,851.61 L209.99,855.28 L206.57,856.91 L205.14,856.91 L201.54,860.17 L197.23,862.62 L191.84,868.73 L187.71,874.85 L187.35,875.66 L187.53,877.29 L186.99,877.70 L187.89,879.74 L187.71,880.55 L185.92,883.00 L186.46,887.08 L185.74,893.19 L183.40,897.27 L183.04,900.53 L182.14,902.98 L179.63,905.42 L178.55,907.46 L177.47,911.13 L177.12,913.98 L177.29,916.43 L178.73,919.28 L178.37,921.32 L179.27,923.77 L180.35,925.81 L183.40,929.07 L185.74,930.70 L188.25,931.10 L190.23,929.47 L195.08,928.25 L204.42,923.36 L206.75,920.91 L211.96,918.06 L215.38,920.51 L217.53,924.99 L222.02,927.84 L233.34,930.70 L238.37,935.18 L244.30,938.44 L253.82,939.67 L261.72,937.63 L266.39,939.67 L271.06,939.67 L274.83,942.52 L282.56,943.33 L284.35,943.33 L289.92,939.67 L292.98,938.85 L294.41,939.67 L296.39,942.11 L297.83,946.19 L298.90,948.23 L304.11,951.90 L308.25,953.53 L320.46,954.75 L324.23,955.56 L328.36,958.01 L331.24,958.01 L332.85,959.64 L335.19,962.90 L341.66,966.57 L343.45,970.24 L343.99,972.28 L343.63,978.80 L348.12,988.18 L349.20,991.85 L351.72,996.33 L353.33,997.55 L354.05,999.18 L356.57,1000.00 L360.16,998.78 L365.55,994.29 L372.55,994.29 L376.15,991.85 L381.00,987.36 L383.87,984.10 L386.92,981.66 L395.01,973.50 L402.37,968.61 L405.25,965.76 L412.25,962.09 L414.77,960.05 L416.56,957.20 L418.18,952.71 L419.80,950.67 L420.15,949.04 L419.80,948.63 L422.85,942.52 L423.03,941.70 L422.49,940.48 L422.67,938.85 L424.65,933.96 L426.26,933.14 L423.75,930.29 L423.03,928.66 L423.39,927.44 L424.29,929.07 L426.26,929.88 L430.93,929.07 L438.84,924.17 L442.61,921.32 L445.84,918.06 L451.23,915.61 L455.54,913.17 L458.42,912.76 L460.75,911.13 L472.43,911.54 L474.40,909.91 L477.46,908.68 L482.31,905.42 L487.70,903.79 L491.65,903.38 L494.34,901.35 L497.93,900.12 L503.14,896.45 L507.81,892.78 L517.51,883.41 L521.29,880.15 L525.24,878.11 L527.21,875.66 L529.19,870.36 L529.73,868.32 L530.99,862.62 L531.17,856.91 L530.99,853.24 L531.53,851.61 L533.50,847.94 L539.25,841.01 L543.38,838.16 L544.28,836.12 L547.51,833.67 L549.67,829.19 L554.70,822.67 L557.21,820.63 L558.29,817.77 L559.19,816.96 L567.45,811.25 L570.15,810.84 L573.20,811.66 L586.13,810.84 L591.34,806.77 L595.29,805.95 L597.99,806.36 L603.74,803.10 L606.61,803.51 L607.69,803.10 L608.95,801.88 L610.92,801.06 L624.57,784.75 L624.93,783.94 L625.65,783.94 L626.37,785.16 L627.81,784.75 L629.06,786.38 L636.79,787.20 L638.40,788.42 L640.02,788.83 L645.23,792.91 L648.28,797.39 L654.21,802.69 L659.24,808.81 L670.92,815.33 L671.64,816.14 L673.43,820.22 L680.80,827.56 L679.36,830.82 L678.82,833.67 L679.36,836.53 L679.90,836.12 L680.08,836.93 L679.72,838.57 L680.08,839.38 L679.72,841.01 L679.36,841.42 L679.54,842.23 L680.26,842.64 L678.46,845.90 L678.28,847.13 L678.64,847.53 L678.82,848.35 L678.28,849.98 L676.67,850.39 L673.25,849.98 L672.53,850.39 L668.04,855.69 L667.86,855.69 L672.89,851.20 L675.77,851.20 L677.74,849.16 L678.64,847.94 L684.93,844.27 L687.98,845.09 L694.63,841.83 L702.53,842.23 L705.59,843.46 L711.51,845.09 L720.68,843.86 L722.47,842.23 L723.19,842.64 L722.47,843.86 L721.03,844.27 L711.69,845.09 L711.69,845.90 L704.69,844.68 L702.71,843.05 L695.17,844.68 L691.58,843.86 L688.88,845.09 L689.06,845.90 L688.52,847.13 L680.80,850.79 L677.56,851.20 L674.51,854.06 L670.20,856.50 L669.48,858.13 L668.76,858.54 L668.58,859.76 L668.76,861.39 L670.38,864.66 L670.38,868.32 L671.28,870.36 L672.53,870.77 L676.49,871.99 L678.46,873.22 L681.88,878.92 L683.85,887.08 L685.83,889.93 L694.99,892.38 L697.32,894.82 L703.07,896.45 L706.31,899.71 L709.54,900.94 L722.47,900.94 L730.91,905.42 L737.20,907.05 L740.26,909.09 L743.85,912.76 L749.06,915.61 L758.22,916.43 L769.89,918.87 L775.28,918.06 L784.44,920.10 L789.83,919.28 L795.58,915.61 L801.87,916.02 L807.62,913.58 L807.80,911.54 L806.36,907.05 L806.36,905.42 L808.87,902.16 L809.59,898.49 L809.23,898.08 L809.59,897.27 L809.41,894.82 L812.11,890.34 L810.85,887.48 L810.13,884.63 L809.95,882.19 L809.95,880.96 L809.41,878.52 L808.33,875.66 L808.16,872.81 L810.31,870.36 L817.86,859.76 L820.91,854.46 L832.41,846.31 L839.05,844.27 L842.11,841.83 L847.31,840.60 L850.19,837.34 L854.50,836.93 L855.76,835.71 L860.25,836.93 L863.12,839.38 L869.41,840.20 L871.38,841.42 L874.98,841.42 L876.59,843.05 L879.47,842.23 L882.52,843.05 L883.78,842.64 L886.47,841.42 L892.58,836.93 L892.94,835.71 L892.76,835.30 L892.76,833.27 L892.40,832.86 L892.22,832.04 L890.07,829.19 L887.55,827.15 L885.40,824.70 L884.86,821.44 L887.19,817.37 L892.22,803.91 L894.02,797.80 L894.92,792.50 L894.92,788.83 L895.99,783.53 L896.89,781.90 L898.33,781.49 L907.85,779.86 L911.08,776.60 L914.14,775.78 L916.65,775.78 L917.73,774.56 L929.23,774.15 L933.36,770.89 L938.93,767.63 L940.00,766.00 L940.36,765.19 L940.18,763.55 L941.26,761.11 L944.49,758.66 L945.39,756.22 L945.57,750.92 L945.21,749.29 L945.39,744.39 L945.75,742.76 L950.06,737.46 L950.78,735.83 L950.96,734.20 L955.27,728.50 L957.07,724.01 L958.33,721.97 L958.69,719.93 L960.30,717.08 L960.66,715.45 L965.51,709.74 L968.92,704.44 L969.28,702.00 L970.00,699.96 L970.36,699.55 L969.10,695.88 L969.28,694.25 L968.92,693.44 L969.10,691.81 L971.80,685.28 L973.24,683.65 L976.11,681.21 L976.29,679.98 L978.09,678.35 L979.52,675.91 L980.24,673.46 L980.42,669.79 L981.14,668.57 L981.32,667.75 L982.94,666.53 L992.28,662.45 L998.02,659.19 L999.28,657.97 L1000.00,656.34 L999.82,655.12 L998.56,653.08 L996.41,650.63 L993.53,648.59 L988.14,646.96 L984.55,647.37 L982.58,646.15 L980.96,646.56 L977.37,644.92 L972.16,644.11 L969.82,642.89 L965.87,637.18 L960.30,634.33 L955.45,631.06 L953.84,631.06 L949.34,629.43 L939.11,627.40 L938.21,626.58 L934.79,621.28 L933.54,616.39 L932.82,610.27 L930.48,604.97 L928.15,602.53 L917.73,598.45 L912.70,597.23 L905.16,594.78 L901.02,591.11 L897.79,589.07 L891.14,583.77 L885.22,579.29 L876.41,574.81 L871.03,570.73 L866.71,569.10 L852.34,566.65 L841.57,565.84 L834.56,568.28 L826.84,567.47 L814.44,573.18 L807.44,575.62 L806.18,577.25 L802.41,578.07 L792.89,577.66 L790.01,576.03 L780.85,574.81 L779.77,574.81 L778.88,576.44 L777.44,574.81 L776.36,576.03 L774.92,576.44 L771.33,576.03 L755.70,581.74 L748.52,581.74 L746.72,579.70 L744.75,580.11 L736.48,583.77 L730.73,588.26 L726.24,589.89 L721.39,593.56 L718.16,594.78 L718.88,596.00 L723.91,594.37 L727.14,591.52 L730.38,590.30 L736.66,586.22 L737.74,583.77 L737.74,582.14 L737.02,580.11 L737.92,576.84 L739.36,575.21 L739.18,574.40 L739.54,573.99 L735.94,570.32 L734.51,565.43 L733.07,562.17 L732.89,560.13 L733.25,556.46 L732.71,554.83 L729.30,552.79 L720.68,549.12 L715.47,545.86 L710.08,545.05 L694.63,534.86 L692.83,533.22 L690.14,527.52 L687.62,525.48 L684.93,522.22 L680.62,519.36 L670.74,507.95 L667.86,505.91 L659.96,503.06 L655.65,500.20 L651.16,494.09 L649.18,492.46 L648.10,490.01 L647.39,490.01 L643.61,485.12 L627.81,481.45 L621.88,478.19 L613.26,474.52 L611.46,473.30 L606.79,473.30 L594.22,470.85 L581.46,471.26 L572.66,474.11 L564.40,474.52 L557.39,478.60 L553.80,479.01 L542.12,482.67 L532.42,482.27 L528.83,483.49 L526.32,482.27 L523.44,477.78 L517.87,472.48 L508.89,462.29 L498.11,452.10 L484.82,434.16 L473.68,422.75 L464.52,411.74 L455.18,397.88 L444.58,386.47 L443.15,382.80 L438.48,377.50 L438.84,373.01 L440.09,370.57 L440.09,367.31 L437.94,364.04 L429.85,357.93 L426.26,350.59 L423.39,347.33 L421.77,343.66 L420.51,342.03 L419.80,339.58 L418.54,332.25 L418.72,327.76 L421.77,321.65 L421.59,320.42 L422.67,319.61 L422.67,317.98 L423.03,317.16 L422.85,315.94 L423.21,314.72 L422.85,311.86 L421.41,307.38 L421.41,306.56 L422.31,304.93 L435.78,294.74 L437.22,291.89 L441.71,285.77 L446.20,282.10 L447.10,280.47 L447.28,278.84 L449.07,276.40 L449.43,274.77 L454.46,267.84 L454.82,266.20 L459.31,261.31 L460.93,258.46 L464.16,254.38 L467.04,251.94 L471.71,250.31 L470.63,248.68 L469.73,248.68 L474.94,245.82 L483.74,237.67 L490.93,233.59 L492.72,231.96 L493.44,228.29 L494.34,226.25 L494.52,225.03 L495.06,223.40 L495.42,220.55 L495.24,215.25 L495.78,210.76 L497.40,207.50 L498.83,201.39 L499.37,193.23 L499.73,191.60 L499.91,188.34 L499.73,182.23 L501.89,171.63 L501.89,165.51 L503.32,156.54 L501.53,149.21 L501.53,148.39 L499.37,141.87 L499.19,135.75 L500.45,130.45 L503.14,123.11 L508.17,111.70 L510.69,107.22 L511.05,104.77 L513.20,98.65 L513.56,97.02 L513.20,91.32 L513.74,88.06 L513.92,81.53 L512.48,78.68 L509.61,76.64 L502.60,75.01 L500.99,73.79 L496.32,73.79 L489.85,72.16 L487.34,70.53 L483.74,66.04 L482.13,60.74 L480.51,57.89 L477.64,53.81 L472.07,44.44 L469.91,40.36 L467.22,36.28 L465.24,31.80 L463.45,30.17 L459.85,29.76 L448.00,35.47 L431.83,39.95 L421.23,41.17 L408.30,41.17 L405.42,39.95 L399.50,35.47 L387.82,22.01 L375.61,15.49 L372.01,12.23 L370.40,11.41 L368.24,8.97 L362.31,0.41 L361.06,0.00" fill="none" stroke="#fc4c02" stroke-width="2" />
</svg>