<svg xmlns="http://www.w3.org/2000/svg" viewBox="0 0 1000 1000">
  <path d="M332.37,0.00 L338.51,1.63 L340.56,2.85 L341.76,5.69 L344.66,8.94 L347.74,10.98 L354.06,18.29 L358.84,23.17 L364.13,26.83 L365.50,28.86 L370.28,33.33 L374.55,38.62 L378.82,42.28 L384.46,41.87 L389.41,42.68 L398.12,40.24 L400.34,40.24 L403.42,41.06 L417.25,37.80 L422.37,35.77 L427.33,32.11 L431.08,28.46 L434.84,26.83 L437.06,27.24 L439.11,29.67 L441.84,37.80 L442.87,41.46 L446.63,47.56 L449.02,54.47 L451.92,60.16 L452.60,64.23 L453.46,66.67 L456.36,69.11 L461.66,71.14 L473.95,73.58 L483.69,78.05 L485.06,79.67 L485.23,80.49 L485.06,87.80 L483.69,95.93 L483.69,97.97 L483.35,101.63 L483.52,103.66 L483.18,105.69 L480.61,110.98 L478.74,116.26 L477.20,119.51 L473.61,124.39 L470.37,130.08 L470.03,130.89 L470.20,134.96 L469.68,137.80 L469.00,139.43 L469.17,139.84 L469.17,141.06 L470.71,143.50 L470.03,151.22 L470.20,154.07 L471.05,154.88 L472.42,158.54 L472.93,165.45 L473.27,168.29 L473.44,178.46 L472.76,189.84 L471.73,197.97 L471.56,202.44 L470.88,203.66 L470.03,207.32 L467.98,212.20 L467.46,215.45 L467.81,226.02 L466.95,230.49 L465.41,232.11 L455.34,236.59 L451.07,241.06 L448.33,242.28 L444.75,245.53 L440.48,246.75 L436.72,250.00 L431.43,256.10 L429.04,257.32 L423.06,262.60 L421.86,264.23 L421.01,266.26 L415.20,271.14 L415.37,271.95 L414.86,272.36 L413.32,273.17 L412.30,275.61 L412.30,276.42 L410.42,282.52 L411.44,283.33 L406.83,286.99 L406.15,288.21 L401.20,293.50 L400.51,295.93 L398.29,300.41 L398.12,302.03 L396.93,303.66 L396.24,305.28 L395.90,307.32 L394.71,309.76 L393.00,312.60 L392.14,315.85 L390.78,324.39 L390.95,336.18 L391.12,339.84 L391.63,342.68 L392.83,345.12 L394.36,347.15 L397.78,352.85 L408.03,361.79 L410.76,365.04 L412.13,368.29 L412.30,371.14 L411.96,374.39 L412.13,375.61 L416.05,382.52 L419.64,385.77 L423.23,391.06 L433.13,402.85 L436.38,408.13 L440.48,412.60 L443.89,417.48 L447.82,421.14 L456.36,431.71 L463.19,441.87 L467.29,445.93 L468.66,448.37 L473.44,451.22 L482.66,461.38 L489.33,470.73 L492.06,475.20 L493.60,478.46 L495.30,480.08 L497.52,480.08 L500.77,479.27 L508.97,480.08 L514.43,478.46 L519.73,476.42 L526.73,475.20 L535.61,470.33 L541.93,470.33 L549.44,468.29 L556.11,467.89 L562.43,466.26 L566.70,467.07 L575.92,467.07 L577.28,467.89 L579.33,470.33 L582.75,471.95 L584.46,472.36 L592.14,478.05 L594.53,478.86 L598.29,478.86 L600.85,480.49 L604.61,481.71 L607.17,485.37 L607.86,487.80 L608.54,488.21 L609.05,490.65 L610.59,490.24 L610.93,491.06 L613.66,493.09 L615.03,496.34 L616.57,497.97 L623.57,502.03 L631.43,504.07 L633.13,505.28 L640.99,514.23 L644.24,519.51 L648.16,523.17 L651.92,525.61 L655.34,532.11 L657.90,533.74 L669.68,538.21 L674.47,541.87 L680.44,543.90 L685.23,547.15 L691.37,549.59 L691.89,550.41 L692.91,555.69 L692.06,561.38 L692.06,562.20 L693.77,565.45 L694.79,565.85 L694.79,566.67 L697.01,569.92 L697.01,572.36 L698.89,573.98 L700.26,573.98 L705.72,578.05 L711.70,578.05 L718.36,575.61 L725.02,574.39 L728.44,574.39 L735.61,572.36 L739.54,573.17 L743.64,576.42 L749.27,576.42 L752.69,577.24 L756.11,576.83 L761.91,573.17 L771.48,569.11 L779.85,563.82 L785.14,562.60 L790.61,563.01 L796.07,560.57 L799.66,560.57 L806.15,562.20 L813.32,562.60 L814.69,563.41 L818.45,563.82 L823.91,563.82 L826.47,565.04 L831.94,571.95 L839.11,577.64 L850.56,585.37 L852.26,588.21 L854.48,590.24 L861.14,592.68 L874.64,594.72 L879.08,596.75 L881.47,599.59 L881.98,601.63 L882.66,602.44 L882.84,603.66 L882.15,609.35 L883.69,615.04 L887.45,620.73 L888.30,623.17 L890.69,625.20 L891.37,626.83 L897.01,628.05 L902.65,632.11 L904.87,633.74 L905.38,635.77 L906.40,636.59 L909.65,639.02 L914.43,640.24 L918.87,641.06 L919.90,642.28 L922.80,642.28 L925.02,643.90 L927.58,644.72 L939.20,643.90 L942.10,645.93 L943.13,648.37 L944.15,649.59 L945.35,649.59 L944.66,650.41 L944.66,650.81 L943.13,651.63 L941.08,653.66 L932.88,656.50 L931.34,658.54 L929.63,662.60 L925.70,668.29 L922.80,674.39 L918.19,681.30 L915.46,686.18 L913.24,689.02 L914.09,689.84 L913.92,691.46 L913.24,694.31 L912.04,695.53 L912.55,695.93 L911.70,697.56 L912.04,698.37 L912.04,699.19 L911.36,701.22 L909.14,705.28 L904.87,716.26 L903.16,718.29 L900.26,723.58 L900.26,723.98 L898.38,726.42 L895.99,731.71 L896.33,733.33 L896.33,734.96 L895.99,740.24 L895.13,743.09 L894.96,745.53 L892.23,751.22 L892.91,752.44 L892.40,755.69 L884.54,758.94 L884.03,760.16 L883.86,759.35 L882.49,760.16 L881.13,761.38 L876.35,762.60 L875.66,764.23 L874.47,765.04 L871.73,765.45 L865.58,767.89 L864.90,771.14 L859.61,773.58 L858.41,775.20 L855.51,776.83 L851.58,777.64 L849.87,779.27 L849.19,780.08 L847.99,783.74 L847.82,786.99 L845.94,794.72 L844.06,797.56 L842.70,802.03 L840.82,806.50 L838.60,809.76 L837.23,812.60 L836.72,816.67 L837.06,819.51 L838.26,823.58 L840.31,825.61 L842.53,829.27 L844.58,830.49 L848.33,834.55 L849.02,836.18 L853.46,839.43 L855.17,841.06 L856.19,841.46 L856.70,842.28 L862.51,846.75 L863.36,846.34 L867.46,846.34 L870.20,849.19 L872.25,848.78 L875.15,851.22 L876.69,854.47 L876.86,857.72 L877.71,861.79 L877.88,866.67 L878.05,867.48 L880.27,869.51 L887.79,874.80 L889.50,877.24 L890.69,877.64 L892.23,880.89 L892.57,882.52 L893.60,883.33 L894.62,887.40 L895.99,888.21 L896.67,889.43 L897.87,894.72 L900.43,899.19 L911.02,907.72 L912.89,908.13 L915.80,911.38 L916.14,914.23 L916.82,915.04 L917.34,916.67 L918.36,917.07 L925.53,916.26 L932.54,913.41 L941.93,912.20 L944.15,913.01 L955.94,913.01 L957.64,911.79 L961.57,911.38 L969.09,907.72 L970.11,907.72 L976.09,910.57 L980.19,914.23 L982.75,915.45 L986.68,914.63 L989.75,915.04 L992.49,914.63 L994.19,915.45 L995.05,918.70 L998.98,926.02 L999.49,927.24 L999.32,928.86 L1000.00,929.67 L999.15,931.30 L998.63,934.15 L997.78,936.59 L996.24,939.02 L995.90,943.09 L995.05,945.53 L995.22,945.93 L994.88,946.75 L995.22,948.37 L994.88,949.59 L992.83,952.03 L991.46,952.44 L991.12,954.07 L989.92,954.47 L988.90,956.10 L985.82,956.91 L980.87,956.50 L976.09,958.13 L971.99,956.50 L966.35,956.91 L962.08,958.94 L956.62,959.35 L953.20,960.98 L950.30,961.38 L942.61,965.04 L940.91,965.04 L938.00,964.23 L929.29,964.63 L917.16,959.76 L910.85,958.94 L907.77,959.76 L904.01,962.20 L901.62,963.01 L894.79,960.57 L889.84,959.35 L882.49,960.57 L875.83,960.57 L869.51,960.98 L863.54,956.91 L849.87,955.28 L843.38,955.28 L832.79,958.54 L829.55,958.54 L824.42,957.72 L818.10,958.94 L812.47,956.10 L810.93,954.07 L807.34,952.44 L803.07,952.44 L792.49,955.69 L790.61,954.88 L789.07,952.44 L782.75,940.24 L781.73,936.18 L778.65,931.30 L777.63,927.24 L776.43,923.17 L775.58,922.36 L773.87,915.04 L772.50,913.41 L771.31,910.98 L768.23,907.72 L767.38,908.54 L766.70,908.54 L766.87,909.76 L766.70,910.16 L764.65,912.20 L761.57,913.01 L757.81,912.60 L753.20,915.45 L748.25,916.67 L737.66,915.04 L731.68,915.85 L720.58,913.82 L714.43,913.41 L711.36,911.38 L709.48,908.13 L701.96,905.69 L700.26,904.47 L697.87,901.63 L694.11,899.59 L683.35,900.00 L676.86,894.31 L671.22,895.12 L667.63,892.28 L663.19,891.46 L658.41,888.62 L652.95,882.93 L649.53,876.83 L643.55,872.36 L640.48,867.48 L639.62,864.63 L635.18,860.98 L634.84,859.35 L634.84,858.54 L635.87,856.50 L636.55,854.07 L638.09,851.63 L640.65,849.59 L642.53,847.15 L645.26,840.24 L645.43,834.15 L646.63,829.27 L646.97,826.83 L645.60,823.17 L641.84,817.07 L640.48,815.85 L639.11,813.41 L629.89,808.13 L623.23,801.22 L615.88,793.90 L614.52,793.09 L608.88,786.59 L604.27,785.37 L598.29,781.30 L594.36,784.15 L587.19,788.21 L585.82,789.84 L582.58,792.28 L578.14,793.90 L574.55,794.31 L570.96,796.34 L567.21,797.15 L565.16,799.59 L557.98,803.25 L552.86,805.28 L549.10,804.88 L541.08,806.91 L533.90,812.60 L531.68,813.41 L527.58,816.67 L515.29,823.98 L514.26,826.02 L512.21,827.64 L511.70,829.27 L511.19,831.30 L509.82,832.52 L506.75,839.43 L504.53,841.46 L503.16,843.90 L502.99,845.93 L501.79,847.56 L501.79,849.19 L501.45,850.00 L502.13,852.85 L500.43,860.98 L494.79,866.26 L494.11,868.29 L491.20,869.92 L486.59,875.20 L484.88,879.67 L482.15,883.74 L479.76,885.77 L478.57,885.77 L477.20,886.99 L474.64,888.21 L471.39,891.46 L466.10,893.09 L463.54,895.93 L456.70,899.59 L454.65,902.03 L451.92,904.07 L443.55,908.54 L441.50,908.94 L437.06,908.13 L430.91,909.35 L424.42,912.20 L421.69,915.04 L417.08,918.70 L411.61,921.54 L405.98,923.17 L401.37,928.86 L401.54,930.08 L401.20,931.30 L401.37,933.74 L401.54,934.96 L402.22,935.77 L400.00,937.80 L400.00,939.84 L399.49,941.46 L395.73,944.72 L393.00,951.63 L388.73,955.69 L385.14,961.38 L383.60,963.01 L382.75,964.63 L369.94,975.20 L359.01,991.06 L357.30,993.09 L353.89,994.72 L350.30,998.37 L346.37,1000.00 L343.13,1000.00 L340.22,995.93 L339.37,995.12 L338.86,993.50 L336.64,989.43 L335.61,989.02 L332.54,980.49 L329.29,976.83 L328.44,969.51 L325.88,964.23 L325.19,963.41 L320.41,960.57 L315.97,955.69 L309.48,952.44 L303.50,951.22 L290.01,948.78 L285.57,945.53 L281.81,939.02 L279.25,937.40 L275.49,936.99 L271.22,939.43 L269.00,939.84 L263.36,938.62 L258.75,936.59 L249.36,933.74 L245.77,933.33 L240.65,934.55 L235.01,934.96 L230.57,934.55 L226.64,932.52 L219.98,927.24 L213.83,925.61 L210.76,923.17 L209.22,920.33 L208.37,917.48 L207.34,915.85 L202.56,914.23 L198.63,914.63 L194.88,916.26 L192.14,916.67 L190.61,918.70 L189.07,919.92 L179.50,924.39 L177.28,924.80 L172.84,922.36 L171.82,920.33 L171.65,918.29 L170.96,916.26 L168.74,910.57 L168.57,908.13 L168.92,906.10 L168.92,903.66 L169.94,900.00 L172.16,896.34 L175.58,888.21 L176.43,880.49 L178.31,876.42 L178.31,875.20 L177.46,873.17 L177.46,871.54 L177.97,869.92 L178.65,868.70 L179.33,864.63 L183.60,860.16 L187.36,858.94 L189.92,856.91 L191.12,855.28 L195.05,853.25 L197.78,848.37 L200.51,846.34 L203.93,845.93 L221.01,847.56 L224.77,846.75 L232.11,847.15 L235.01,845.53 L238.09,842.28 L238.60,841.06 L238.77,838.62 L238.09,835.77 L235.87,830.49 L235.35,826.02 L235.87,823.98 L237.75,817.48 L238.26,811.38 L238.77,810.16 L240.82,807.32 L245.94,804.47 L247.82,802.44 L253.63,799.59 L260.12,798.37 L263.88,793.90 L266.95,792.28 L270.37,789.43 L271.39,787.80 L271.90,786.99 L272.25,783.74 L271.56,776.42 L270.88,773.17 L271.05,769.11 L268.83,764.63 L268.66,763.82 L269.00,760.57 L272.76,751.63 L279.08,741.87 L280.27,738.21 L280.79,734.15 L279.76,733.74 L277.03,733.74 L274.47,731.30 L272.42,726.83 L271.05,724.80 L258.58,709.76 L250.56,704.47 L248.68,702.44 L242.53,692.68 L240.99,691.46 L237.57,689.84 L234.50,686.59 L232.96,683.74 L231.77,679.27 L231.43,675.61 L231.26,667.07 L230.23,663.82 L228.01,655.28 L222.37,646.34 L219.64,641.06 L212.30,625.20 L211.27,623.58 L205.47,619.11 L201.88,615.04 L187.53,610.98 L181.04,614.23 L164.82,617.89 L159.18,615.85 L156.28,616.67 L151.32,615.85 L147.91,617.48 L145.18,617.48 L133.73,613.41 L127.58,613.82 L124.00,611.79 L121.61,608.94 L116.31,605.28 L110.85,597.56 L107.77,590.65 L106.40,589.02 L97.18,583.33 L90.35,580.89 L83.86,575.20 L80.10,573.98 L76.86,574.80 L71.73,575.20 L65.41,577.64 L60.46,577.24 L58.58,576.42 L56.87,573.58 L56.70,572.76 L56.70,571.14 L57.22,567.07 L57.22,560.57 L56.70,556.50 L54.82,552.03 L51.92,547.97 L49.36,541.87 L48.68,539.02 L48.68,536.59 L47.48,534.55 L47.31,532.93 L48.33,530.89 L51.41,528.05 L52.60,526.02 L52.95,523.98 L52.95,518.70 L56.53,512.20 L57.39,508.13 L58.58,504.88 L60.97,501.22 L60.97,498.78 L60.29,496.34 L58.24,491.87 L56.87,490.65 L55.00,490.24 L50.73,487.80 L49.53,486.59 L48.51,483.74 L47.82,477.24 L46.29,471.95 L46.11,469.92 L47.14,465.04 L47.48,458.13 L45.60,450.00 L45.09,443.90 L43.89,440.24 L38.43,434.96 L36.04,429.67 L32.79,426.02 L30.57,424.80 L26.64,424.39 L21.01,419.92 L15.20,417.89 L10.25,413.01 L4.78,406.50 L3.93,403.25 L3.42,399.59 L3.42,395.12 L3.76,391.87 L3.59,390.24 L1.37,384.55 L1.37,382.93 L0.85,380.89 L0.00,370.73 L0.00,369.11 L1.71,359.35 L1.02,347.97 L1.37,344.72 L2.39,340.65 L3.93,336.99 L5.12,335.37 L25.11,325.61 L26.13,324.39 L27.67,317.48 L32.11,312.20 L35.35,310.57 L44.58,305.28 L53.29,302.85 L57.05,300.41 L57.73,300.81 L64.39,293.09 L68.66,290.24 L69.51,289.84 L76.69,292.68 L87.11,293.50 L95.47,290.65 L99.06,288.21 L102.99,287.40 L103.67,287.80 L111.19,284.96 L118.53,286.99 L123.31,287.40 L125.19,289.02 L128.61,287.80 L130.49,287.80 L133.22,285.77 L135.78,282.52 L140.91,282.11 L142.95,281.30 L144.15,279.67 L144.83,274.80 L146.20,270.73 L153.37,259.35 L161.74,251.22 L167.55,246.75 L170.45,245.93 L172.50,245.93 L174.38,247.15 L176.43,249.59 L177.46,251.63 L181.21,256.50 L183.09,260.16 L184.12,263.41 L184.12,267.48 L184.63,270.33 L185.48,271.95 L186.85,273.17 L190.26,272.36 L195.56,268.70 L200.51,268.29 L207.17,263.41 L212.13,262.20 L216.57,259.35 L221.52,253.25 L222.03,252.03 L221.86,251.63 L221.35,251.63 L219.81,250.81 L217.59,248.78 L215.20,245.12 L210.76,237.40 L203.42,230.49 L196.41,222.76 L187.36,211.38 L187.36,209.76 L189.24,206.91 L193.00,202.85 L197.44,193.90 L198.98,192.68 L205.64,189.84 L209.56,186.18 L213.15,180.89 L217.93,171.54 L222.37,169.51 L223.23,170.33 L228.18,168.70 L233.48,165.04 L242.87,156.10 L243.72,156.50 L251.41,153.66 L254.14,150.41 L254.82,149.19 L255.00,145.93 L255.00,143.50 L254.14,140.65 L248.33,132.11 L243.21,123.58 L240.65,120.73 L232.96,114.63 L227.50,113.41 L223.74,108.94 L222.03,105.69 L222.03,104.07 L221.69,103.25 L221.69,101.22 L222.20,97.97 L222.20,95.12 L223.40,93.50 L226.47,91.06 L231.26,85.77 L235.01,79.67 L239.97,73.17 L244.06,67.07 L249.36,61.79 L251.58,57.72 L253.80,55.69 L254.65,56.50 L269.17,55.28 L273.95,56.50 L285.57,63.41 L291.37,64.23 L300.43,63.01 L309.48,59.35 L325.02,48.37 L326.73,46.75 L329.63,41.87 L329.97,39.43 L329.29,35.77 L327.41,30.89" fill="none" stroke="#fc4c02" stroke-width="2" />
</svg>