<svg xmlns="http://www.w3.org/2000/svg" viewBox="0 0 1000 1000">
  <path d="M691.69,1000.00 L696.85,1000.00 L700.86,998.08 L702.58,996.16 L706.02,995.21 L710.60,990.41 L716.33,979.87 L721.49,965.48 L727.79,952.06 L732.38,940.56 L732.95,929.05 L736.39,914.67 L749.57,888.78 L756.45,879.19 L761.60,865.77 L763.32,859.06 L763.32,848.51 L759.31,837.97 L761.03,831.26 L777.08,810.16 L786.25,796.74 L804.58,775.65 L807.45,768.94 L810.89,765.10 L818.34,748.80 L826.36,737.30 L844.13,721.00 L845.85,717.16 L847.56,705.66 L847.56,693.19 L850.43,689.36 L850.43,687.44 L861.32,670.18 L868.19,663.47 L872.78,653.88 L889.40,630.87 L889.97,625.12 L902.01,595.40 L908.31,561.84 L911.17,556.09 L915.76,548.42 L918.62,539.79 L918.62,535.00 L916.91,531.16 L915.19,522.53 L911.17,510.07 L911.75,502.40 L910.03,494.73 L910.03,488.02 L915.76,480.35 L918.62,473.63 L916.33,460.21 L913.47,449.66 L917.48,433.37 L920.92,427.61 L928.94,417.07 L937.54,401.73 L946.70,390.22 L955.30,373.92 L967.91,366.25 L977.65,352.83 L982.23,340.36 L986.25,333.65 L985.67,331.74 L988.54,320.23 L995.42,310.64 L998.85,300.10 L995.99,280.92 L994.84,277.09 L997.13,264.62 L998.85,248.32 L998.28,246.40 L992.55,241.61 L979.94,236.82 L975.93,233.94 L974.79,232.02 L973.07,227.23 L969.05,225.31 L963.90,220.52 L958.17,209.01 L953.01,202.30 L941.55,200.38 L929.51,194.63 L924.36,188.88 L922.64,179.29 L917.48,174.50 L912.32,171.62 L904.30,172.58 L888.25,169.70 L880.80,163.95 L878.51,156.28 L881.95,144.77 L880.80,139.02 L864.76,124.64 L852.72,110.26 L851.00,105.47 L845.85,98.75 L841.26,95.88 L802.29,87.25 L758.17,89.17 L734.67,83.41 L714.61,84.37 L686.53,92.04 L667.62,93.96 L656.73,96.84 L649.28,95.88 L608.02,95.88 L584.53,89.17 L570.77,87.25 L544.41,89.17 L536.96,87.25 L518.05,76.70 L492.26,67.11 L470.49,62.32 L450.43,54.65 L437.25,43.14 L415.47,15.34 L406.88,9.59 L381.66,3.84 L363.90,1.92 L314.04,0.00 L293.98,4.79 L280.80,10.55 L265.90,23.97 L241.83,40.27 L235.53,47.94 L234.38,52.73 L234.38,59.44 L237.82,68.07 L243.55,76.70 L244.13,84.37 L242.98,98.75 L233.24,139.02 L230.95,157.24 L232.09,168.74 L232.09,173.54 L208.60,200.38 L200.00,212.85 L193.70,217.64 L181.66,219.56 L133.52,214.77 L107.74,209.01 L98.57,208.05 L93.41,210.93 L82.52,229.15 L75.64,235.86 L74.50,241.61 L70.49,244.49 L69.34,249.28 L59.60,263.66 L53.87,269.42 L51.00,278.04 L39.54,289.55 L31.52,294.34 L26.36,299.14 L14.90,313.52 L14.33,315.44 L14.90,317.35 L17.19,322.15 L16.62,324.07 L2.29,348.03 L1.15,351.87 L0.00,367.21 L6.88,373.92 L7.45,378.72 L13.18,383.51 L34.96,389.26 L51.00,396.93 L73.93,398.85 L87.11,397.89 L89.97,399.81 L96.28,399.81 L97.99,400.77 L103.72,412.27 L107.16,414.19 L107.16,418.98 L103.15,424.74 L104.30,429.53 L103.72,434.32 L104.87,441.04 L103.15,452.54 L104.30,459.25 L110.03,471.72 L120.34,486.10 L146.13,509.11 L158.74,525.41 L166.19,532.12 L176.50,539.79 L186.25,551.29 L204.01,560.88 L230.95,567.59 L275.64,586.77 L299.14,598.27 L325.50,615.53 L336.96,620.33 L362.18,633.75 L433.81,677.85 L522.06,728.67 L557.59,749.76 L563.32,755.51 L568.48,758.39 L569.63,752.64 L569.05,750.72 L563.90,747.84 L563.32,744.97 L564.47,742.09 L570.20,737.30 L605.16,731.54 L626.36,723.87 L631.52,719.08 L634.96,711.41 L640.69,705.66 L675.07,693.19 L689.40,682.65 L691.12,679.77 L689.97,677.85 L681.95,672.10 L679.08,664.43 L674.50,658.68 L673.93,652.92 L672.21,644.30 L666.48,635.67 L664.18,628.95 L664.76,626.08 L667.62,624.16 L721.49,600.19 L727.22,594.44 L763.32,567.59 L806.88,540.75 L825.21,523.49 L834.96,511.03 L839.54,501.44 L841.26,491.85 L838.40,486.10 L789.68,444.87 L775.36,429.53 L758.74,415.15 L756.45,408.44 L753.58,374.88 L755.30,370.09 L757.59,368.17 L766.76,363.37 L856.73,338.45 L902.01,323.11 L920.92,319.27 L936.39,314.48 L940.97,310.64 L943.84,304.89 L943.27,300.10 L947.85,297.22 L951.29,289.55 L949.00,284.76 L947.85,278.04 L941.55,269.42 L914.61,247.36 L914.04,242.57 L910.60,239.69 L903.15,229.15 L900.29,226.27 L896.28,227.23 L884.81,225.31 L874.50,228.19 L866.48,228.19 L857.31,224.35 L849.28,217.64 L842.98,214.77 L831.52,200.38 L831.52,196.55 L829.80,194.63 L828.65,189.84 L826.93,186.96 L828.08,181.21 L826.36,174.50 L831.52,169.70 L833.81,164.91 L870.49,151.49 L877.36,151.49 L879.66,152.44 L881.95,159.16 L887.11,164.91 L914.61,169.70 L922.06,176.41 L924.36,182.17 L924.36,188.88 L925.50,190.80 L931.23,194.63 L951.86,198.47 L960.46,208.05 L965.62,218.60 L971.92,223.39 L974.79,229.15 L988.54,235.86 L997.71,243.53 L997.71,255.03 L995.99,272.29 L1000.00,293.38 L998.85,300.10 L995.99,304.89 L994.84,308.72 L989.68,317.35 L986.25,334.61 L979.94,348.03 L969.05,364.33 L957.02,372.00 L946.13,391.18 L937.54,400.77 L936.39,406.52 L928.94,418.98 L918.62,430.49 L918.62,435.28 L915.19,448.71 L918.05,458.29 L918.62,463.09 L917.48,467.88 L915.76,472.67 L915.19,476.51 L914.04,478.43 L914.61,482.26 L912.32,488.02 L913.47,508.15 L917.48,516.78 L919.20,524.45 L918.05,542.67 L911.75,553.21 L906.59,565.68 L903.72,587.73 L897.42,606.90 L887.11,630.87 L857.31,672.10 L848.71,685.52 L846.99,693.19 L847.56,697.99 L846.42,707.57 L842.98,716.20 L825.21,738.26 L805.16,772.77 L799.43,778.52 L779.37,805.37 L765.62,819.75 L759.89,827.42 L758.17,835.09 L762.75,848.51 L762.18,853.31 L757.02,872.48 L750.72,885.91" fill="none" stroke="#fc4c02" stroke-width="2" />
</svg>