<svg xmlns="http://www.w3.org/2000/svg" viewBox="0 0 1000 1000">
  <path d="M390.73,992.41 L389.36,984.83 L385.44,972.69 L385.44,968.13 L384.86,965.86 L382.90,962.06 L379.18,959.79 L373.12,957.51 L352.57,954.48 L346.51,957.51 L336.33,968.13 L328.12,973.44 L307.77,984.83 L301.70,991.65 L297.01,1000.00 L284.68,989.38 L281.94,985.58 L280.77,981.79 L279.98,975.72 L280.38,965.86 L279.40,962.82 L276.07,959.03 L270.20,962.06 L266.09,960.55 L258.07,947.65 L243.79,929.44 L241.05,922.61 L236.55,913.51 L229.90,901.37 L224.03,893.02 L220.70,885.43 L207.98,864.95 L197.42,849.01 L196.44,845.98 L190.18,836.12 L185.09,830.80 L177.07,819.42 L163.18,792.87 L154.37,783.00 L152.22,776.18 L151.63,767.07 L149.87,764.04 L146.35,760.24 L143.42,761.00 L138.52,760.24 L136.76,761.76 L133.24,767.83 L127.57,767.83 L121.89,773.14 L109.37,756.45 L100.18,736.72 L93.52,720.79 L84.52,703.34 L76.89,691.96 L60.26,672.99 L49.89,654.02 L32.87,629.74 L28.17,618.36 L22.30,595.60 L17.41,584.22 L13.11,578.15 L9.39,573.60 L0.00,568.29 L2.15,558.42 L3.52,550.08 L4.89,544.01 L7.04,539.45 L16.63,528.07 L27.59,511.38 L34.44,496.21 L48.33,476.48 L64.37,444.61 L71.41,425.64 L78.26,394.54 L80.22,388.47 L82.57,383.16 L87.26,380.12 L88.63,380.88 L101.15,380.88 L104.48,378.60 L109.57,372.53 L113.68,359.64 L117.39,343.70 L120.13,334.60 L123.46,327.77 L130.50,317.15 L134.02,308.80 L134.81,305.01 L134.61,297.42 L133.63,290.59 L133.83,287.56 L140.09,268.59 L143.42,253.41 L146.94,241.27 L147.72,234.45 L146.74,217.00 L146.94,210.17 L148.31,205.61 L150.26,200.30 L153.59,194.99 L160.05,187.41 L169.05,184.37 L178.44,174.51 L186.46,167.68 L200.16,161.61 L207.40,151.75 L215.22,135.81 L218.35,134.29 L223.05,133.54 L225.20,136.57 L230.29,138.09 L234.40,144.16 L235.77,147.95 L236.55,150.99 L237.72,154.02 L246.14,163.13 L249.66,165.40 L254.94,166.16 L265.70,165.40 L273.92,166.92 L279.59,170.71 L296.22,178.30 L315.99,183.61 L325.57,186.65 L334.38,192.72 L339.66,198.03 L342.99,198.03 L347.29,191.20 L362.16,186.65 L368.23,182.85 L372.92,178.30 L377.62,177.54 L380.55,174.51 L385.83,166.92 L396.01,145.68 L401.88,136.57 L411.47,118.36 L423.79,115.33 L428.88,110.77 L435.34,101.67 L438.66,101.67 L453.14,107.74 L457.25,106.22 L463.31,98.63 L466.44,97.12 L475.45,99.39 L480.14,99.39 L483.27,97.12 L490.12,88.77 L494.03,86.49 L501.47,76.63 L508.90,69.04 L522.99,64.49 L536.10,62.22 L559.58,47.80 L585.60,29.59 L602.23,21.24 L603.21,22.76 L636.47,3.03 L642.73,0.76 L653.88,0.00 L668.95,3.03 L669.93,3.79 L674.82,3.79 L675.99,7.59 L676.19,16.69 L676.58,18.21 L677.75,20.49 L687.34,25.04 L702.41,30.35 L723.15,43.25 L732.34,50.08 L744.28,56.90 L749.17,57.66 L776.17,58.42 L777.15,56.90 L781.65,56.90 L804.54,59.18 L815.69,56.90 L824.89,59.94 L828.41,59.18 L838.78,55.39 L845.04,50.08 L849.15,49.32 L859.13,40.97 L867.93,37.94 L884.56,26.56 L888.67,25.80 L889.85,29.59 L890.04,34.14 L891.80,38.69 L891.61,43.25 L892.19,50.83 L893.56,63.73 L894.35,67.53 L899.24,77.39 L903.54,98.63 L905.30,101.67 L905.89,104.70 L907.65,106.98 L915.67,104.70 L917.43,110.77 L921.54,113.05 L931.32,111.53 L952.06,101.67 L964.19,93.32 L970.26,86.49 L975.15,83.46 L984.15,88.77 L986.89,97.88 L989.04,103.19 L991.78,122.91 L992.17,128.98 L993.15,133.54 L992.57,144.92 L993.15,147.19 L992.96,154.02 L993.35,156.30 L992.76,166.16 L992.96,172.23 L992.37,183.61 L992.17,194.99 L992.37,196.51 L991.59,197.27 L992.76,204.10 L994.52,221.55 L992.17,259.48 L991.39,266.31 L991.59,269.35 L990.41,293.63 L990.41,301.21 L991.00,311.08 L990.80,321.70 L993.35,348.25 L992.76,361.91 L991.78,370.26 L990.41,391.50 L990.22,407.44 L990.80,416.54 L990.41,429.44 L991.00,438.54 L990.02,444.61 L990.22,449.92 L989.43,455.99 L989.24,459.03 L990.02,468.89 L989.24,476.48 L989.04,485.58 L989.04,487.10 L990.02,488.62 L990.41,492.41 L992.17,500.00 L992.17,506.07 L991.78,508.35 L993.15,512.90 L991.39,525.04 L991.00,531.87 L989.04,540.21 L989.04,542.49 L989.63,544.76 L988.46,559.18 L988.85,562.97 L988.65,571.32 L988.06,581.18 L988.06,588.77 L987.48,597.88 L987.67,603.19 L987.09,608.50 L987.48,611.53 L987.28,614.57 L986.30,621.40 L985.52,630.50 L985.91,632.78 L988.26,636.57 L999.02,644.16 L1000.00,644.16" fill="none" stroke="#fc4c02" stroke-width="2" />
</svg>