<svg xmlns="http://www.w3.org/2000/svg" viewBox="0 0 1000 1000">
  <path d="M410.00,739.56 L384.55,737.80 L378.59,738.98 L371.55,745.44 L361.80,751.32 L342.30,758.97 L335.98,765.43 L334.18,767.78 L333.45,770.14 L335.80,776.60 L337.97,787.18 L339.05,790.12 L345.55,798.94 L351.87,809.52 L359.09,818.34 L366.13,831.86 L374.44,841.27 L375.88,843.62 L379.67,855.97 L382.02,860.08 L383.28,861.85 L390.86,868.31 L393.21,871.25 L396.64,878.89 L399.71,883.60 L403.50,886.54 L408.38,888.30 L413.07,891.24 L418.85,898.30 L425.53,904.76 L430.58,912.99 L437.99,922.40 L439.43,924.75 L449.18,931.80 L459.11,943.56 L464.70,947.09 L477.70,953.56 L485.29,955.32 L487.99,957.67 L492.15,962.96 L494.49,964.14 L508.03,964.73 L513.45,966.49 L520.31,970.61 L522.84,971.19 L526.09,970.61 L532.41,968.25 L538.91,967.67 L551.18,971.19 L553.53,971.19 L560.03,966.49 L565.63,964.73 L571.94,963.55 L577.90,964.73 L580.61,964.14 L586.75,958.26 L590.18,957.08 L598.30,957.67 L605.71,961.20 L613.11,961.20 L620.15,958.85 L629.72,952.38 L634.95,951.21 L639.65,952.38 L644.70,951.79 L656.62,946.50 L662.03,947.09 L671.78,951.21 L679.73,951.21 L688.03,948.27 L697.06,942.39 L710.60,941.21 L720.17,936.51 L723.96,936.51 L735.33,938.27 L744.72,935.92 L752.30,931.22 L762.95,920.63 L774.69,914.17 L777.40,911.82 L782.45,905.35 L785.16,899.47 L787.87,895.94 L791.66,888.30 L795.45,882.42 L799.06,874.78 L802.49,869.49 L816.21,839.51 L821.27,825.98 L828.13,815.99 L832.46,807.76 L836.25,798.35 L839.32,788.95 L845.28,779.54 L848.17,771.31 L851.96,761.90 L868.57,734.86 L872.36,728.98 L879.22,714.29 L885.54,697.82 L890.59,687.24 L893.30,682.54 L909.37,661.38 L921.29,638.45 L924.54,633.16 L926.34,628.45 L937.17,613.17 L944.94,594.36 L947.10,590.24 L961.36,572.60 L968.59,562.02 L972.38,554.97 L979.42,538.51 L984.47,524.99 L986.46,521.46 L995.85,512.64 L999.46,506.76 L1000.00,504.41 L999.82,503.23 L998.19,500.88 L967.86,490.89 L966.42,489.71 L965.88,487.95 L968.59,474.43 L968.59,468.55 L969.31,459.14 L969.13,444.44 L969.67,435.04 L969.85,425.63 L972.02,399.76 L971.84,372.13 L970.75,368.02 L971.47,364.49 L971.84,359.79 L970.57,339.21 L970.75,333.33 L970.03,319.22 L970.39,313.35 L970.39,306.88 L970.21,303.94 L970.21,296.88 L972.92,263.96 L971.84,245.74 L972.02,240.45 L971.84,238.68 L972.02,221.05 L971.84,211.05 L972.20,205.76 L972.20,191.65 L972.56,184.60 L974.54,174.60 L975.27,166.37 L974.91,158.73 L972.38,148.74 L972.56,146.38 L972.56,132.28 L973.28,112.87 L973.10,108.17 L972.92,105.82 L973.28,99.94 L973.46,91.71 L972.92,88.18 L971.84,86.42 L966.96,87.01 L959.38,82.89 L956.67,78.19 L955.05,72.90 L953.78,70.55 L947.82,75.84 L933.74,84.07 L921.83,83.48 L909.91,88.18 L908.65,85.83 L907.93,81.72 L906.66,79.95 L899.80,83.48 L896.91,83.48 L895.11,81.13 L891.14,70.55 L887.71,58.79 L886.08,50.56 L884.28,44.68 L881.39,33.51 L878.68,26.46 L877.78,22.93 L874.35,18.22 L872.36,16.46 L868.93,17.64 L863.87,20.58 L860.08,24.10 L845.82,33.51 L832.46,40.56 L825.42,43.50 L804.66,44.68 L778.66,43.50 L769.63,44.09 L749.05,42.92 L743.82,42.33 L732.26,37.62 L720.53,31.75 L715.65,25.87 L715.11,23.52 L714.93,17.05 L710.96,7.05 L707.53,4.12 L703.56,4.70 L698.32,7.05 L695.07,7.05 L686.77,2.94 L659.51,0.00 L650.66,1.18 L640.55,4.12 L619.97,12.93 L594.33,25.28 L586.21,30.57 L578.80,33.51 L559.31,44.68 L545.59,47.62 L540.35,49.97 L530.96,49.97 L526.99,51.15 L520.85,55.26 L500.63,73.49 L497.38,74.07 L487.63,73.49 L482.94,75.25 L476.44,78.78 L458.57,77.01 L453.33,78.78 L450.08,81.72 L445.21,88.77 L438.89,91.71 L433.47,99.35 L426.43,107.58 L421.56,115.23 L419.21,120.52 L407.84,134.63 L401.52,139.33 L395.92,141.68 L385.63,142.86 L379.85,142.27 L376.78,144.62 L373.89,149.91 L373.17,150.50 L369.92,149.32 L362.52,144.03 L350.79,140.51 L346.99,138.15 L314.32,127.57 L307.10,126.40 L295.90,126.98 L287.78,126.40 L282.72,123.46 L276.58,117.58 L273.88,111.70 L269.54,108.17 L262.86,106.41 L258.35,106.41 L255.46,108.76 L249.50,119.34 L243.37,126.40 L240.30,128.16 L233.62,129.92 L227.30,132.86 L214.84,143.45 L205.63,145.80 L198.59,153.44 L196.43,156.38 L194.26,161.67 L193.90,165.20 L193.90,169.90 L194.26,171.66 L194.62,178.13 L194.62,181.66 L194.08,185.19 L190.47,196.94 L188.48,208.70 L185.77,215.76 L181.80,223.40 L181.44,225.75 L182.34,233.39 L182.34,238.68 L181.26,242.80 L180.00,246.33 L168.44,262.20 L166.46,266.90 L159.42,286.30 L155.80,291.59 L153.10,293.94 L148.94,295.12 L137.75,295.12 L133.06,298.65 L131.97,301.00 L129.81,307.47 L129.27,310.41 L124.57,327.45 L118.07,343.92 L113.02,352.15 L107.60,359.79 L102.18,368.61 L90.63,380.36 L88.28,383.89 L83.95,391.53 L78.17,400.35 L64.81,415.64 L63.73,417.40 L62.11,422.69 L60.84,430.34 L60.48,435.04 L59.76,437.39 L57.23,438.57 L44.23,439.15 L40.44,436.80 L35.02,428.57 L33.40,427.98 L27.08,432.10 L23.29,437.39 L20.04,447.38 L18.05,456.20 L16.25,462.08 L15.17,467.37 L6.50,499.12 L6.14,506.17 L7.04,516.75 L7.94,523.81 L9.75,527.92 L14.62,536.16 L14.26,536.74 L6.32,547.33 L2.17,554.38 L1.99,556.73 L4.15,583.19 L5.78,585.54 L5.78,587.30 L5.24,589.65 L3.25,592.59 L1.62,597.30 L1.08,602.00 L0.18,606.11 L0.00,613.17 L0.36,617.28 L0.90,619.64 L3.79,626.10 L15.17,639.62 L17.33,641.39 L29.79,658.44 L34.84,664.32 L55.06,691.36 L66.62,706.06 L74.74,717.81 L79.44,727.81 L84.67,744.27 L90.63,761.32 L89.73,763.08 L86.12,766.61 L83.77,770.72 L81.24,779.54 L79.08,790.71 L75.46,798.94 L53.62,832.45 L34.30,865.96 L25.82,874.78 L24.01,877.13 L22.39,881.25 L22.21,884.19 L24.91,890.65 L26.90,897.71 L28.53,900.65 L31.96,903.59 L34.30,904.76 L39.18,905.35 L43.69,908.29 L50.91,914.76 L57.05,916.52 L66.62,925.34 L69.69,929.45 L81.06,941.80 L84.13,943.56 L87.38,947.68 L108.50,966.49 L132.15,984.13 L146.96,992.95 L150.21,991.18 L153.46,991.18 L158.33,992.95 L170.97,1000.00 L172.41,999.41 L175.66,985.89 L175.66,983.54 L180.72,960.02 L183.79,951.79 L186.13,950.62 L215.74,961.20 L225.13,961.79 L228.38,964.14 L254.74,968.25 L271.53,968.84 L273.70,968.25 L276.22,963.55 L278.39,961.20 L280.74,960.02 L282.36,960.61 L285.61,964.73 L289.04,965.31 L291.57,967.08 L298.43,967.08 L313.59,962.96 L324.61,962.38 L344.83,957.08 L347.72,957.08 L348.80,959.44 L350.24,960.02 L354.58,957.08 L367.03,955.91 L409.64,947.68 L412.53,949.44 L413.97,952.38 L415.24,961.79 L415.06,967.67 L415.42,971.19 L416.32,973.54 L417.40,974.13 L423.00,974.13 L439.25,970.02 L447.73,962.38 L451.53,964.73 L452.61,966.49 L457.48,970.02 L458.39,969.43 L461.46,975.90 L462.90,976.48 L470.66,973.54 L473.01,971.19 L473.19,966.49 L473.55,961.79 L474.63,957.67 L480.77,941.21 L487.45,926.51 L488.90,920.63 L489.08,918.28 L491.42,911.82 L492.33,903.59 L499.01,899.47 L503.70,894.77 L512.73,878.89 L518.32,879.48 L521.94,881.83 L530.96,884.19 L542.70,883.60 L545.95,882.42 L550.10,883.01 L563.82,879.48 L568.33,875.96 L575.92,873.60 L577.18,872.43 L578.62,867.14 L581.87,858.91 L582.24,856.55 L588.19,844.80 L592.16,838.33 L593.61,835.39 L593.97,832.45 L593.61,831.28 L593.97,829.51 L593.79,823.63 L593.97,823.05 L593.61,817.17 L593.97,808.35 L593.79,801.88 L594.33,786.60 L594.15,783.07 L593.25,780.13 L591.08,776.60 L584.22,773.07 L583.50,770.72 L583.32,764.84 L582.78,764.26 L571.76,760.73 L562.74,755.44 L554.07,754.26 L542.34,758.97 L529.88,759.55 L527.17,760.14 L525.73,761.90 L524.28,766.61 L524.10,777.19 L522.30,778.37 L511.28,777.78 L504.96,772.49" fill="none" stroke="#fc4c02" stroke-width="2" />
</svg>