<svg xmlns="http://www.w3.org/2000/svg" viewBox="0 0 1000 1000">
  <path d="M132.09,648.54 L133.50,645.40 L134.35,641.21 L134.64,634.94 L131.80,623.43 L125.85,606.69 L125.57,598.33 L123.02,588.91 L84.75,583.68 L72.85,585.77 L44.50,608.79 L18.14,621.34 L10.77,626.57 L6.52,631.80 L2.27,638.08 L0.00,643.31 L3.68,654.81 L7.09,670.50 L9.07,675.73 L20.98,693.51 L30.61,713.39 L43.08,732.22 L51.87,750.00 L64.63,765.69 L66.89,769.87 L71.15,786.61 L73.98,793.93 L80.22,804.39 L92.97,816.95 L96.37,823.22 L99.49,833.68 L102.89,839.96 L109.69,847.28 L125.28,855.65 L134.64,868.20 L145.12,879.71 L149.38,887.03 L155.05,900.63 L158.16,904.81 L170.92,919.46 L180.84,926.78 L193.88,943.51 L207.48,955.02 L226.19,965.48 L236.68,968.62 L244.33,975.94 L249.15,984.31 L252.83,986.40 L265.87,986.40 L275.51,987.45 L295.92,998.95 L303.00,998.95 L312.07,993.72 L320.01,993.72 L341.27,1000.00 L344.95,998.95 L364.23,987.45 L375.28,986.40 L381.24,988.49 L386.90,988.49 L399.09,975.94 L413.27,974.90 L428.57,981.17 L438.21,981.17 L449.55,976.99 L460.60,968.62 L466.55,965.48 L473.36,965.48 L484.41,966.53 L509.92,956.07 L515.31,956.07 L528.63,963.39 L538.27,964.44 L552.44,961.30 L566.33,950.84 L574.55,946.65 L591.84,946.65 L604.59,940.38 L612.53,938.28 L627.83,940.38 L636.90,939.33 L652.78,933.05 L660.71,925.73 L676.02,907.95 L691.04,899.58 L696.43,895.40 L706.63,880.75 L711.73,870.29 L739.23,812.76 L750.00,784.52 L759.64,762.55 L766.44,740.59 L779.20,720.71 L789.12,696.65 L795.63,674.69 L802.72,661.09 L810.66,638.08 L815.76,625.52 L836.73,585.77 L850.91,561.72 L851.19,559.62 L858.84,539.75 L859.98,533.47 L865.36,517.78 L870.75,503.14 L878.12,489.54 L903.63,451.88 L912.41,434.10 L922.34,410.04 L929.14,396.44 L942.74,374.48 L951.25,356.69 L951.53,351.46 L942.18,304.39 L942.74,271.97 L942.46,264.64 L943.03,253.14 L942.46,244.77 L939.91,233.26 L959.75,214.44 L971.09,197.70 L981.01,180.96 L990.65,155.86 L994.90,131.80 L996.88,112.97 L998.30,73.22 L998.30,49.16 L1000.00,29.29 L998.30,26.15 L991.21,26.15 L990.65,27.20 L990.93,33.47 L990.36,35.56 L983.84,37.66 L936.51,35.56 L928.85,34.52 L907.03,36.61 L893.71,34.52 L890.87,33.47 L890.02,31.38 L890.02,19.87 L890.87,9.41 L890.02,5.23 L883.22,3.14 L836.45,2.09 L820.01,3.14 L794.50,0.00 L792.52,1.05 L790.82,9.41 L790.25,26.15 L788.83,29.29 L771.54,34.52 L745.46,37.66 L740.36,36.61 L731.29,31.38 L723.07,30.33 L659.86,27.20 L651.93,23.01 L634.07,9.41 L623.87,7.32 L589.57,7.32 L570.58,13.60 L543.37,14.64 L532.60,12.55 L525.51,8.37 L519.84,6.28 L518.99,7.32 L517.57,10.46 L518.14,12.55 L517.57,20.92 L518.14,31.38 L517.57,48.12 L518.14,71.13 L517.29,77.41 L511.90,89.96 L505.67,101.46 L498.30,109.83 L493.48,114.02 L477.32,117.15 L473.07,122.38 L468.82,124.48 L462.30,124.48 L454.37,117.15 L444.16,99.37 L441.04,96.23 L432.82,91.00 L418.08,86.82 L415.25,83.68 L410.43,74.27 L406.75,74.27 L397.39,87.87 L387.19,97.28 L377.27,116.11 L371.60,124.48 L363.38,128.66 L346.09,153.77 L324.26,175.73 L309.24,197.70 L285.71,236.40 L274.66,256.28 L261.34,284.52 L236.39,332.64 L235.26,336.82 L235.54,355.65 L234.69,359.83 L227.89,372.38 L227.32,374.48 L225.62,384.94 L221.66,394.35 L202.38,423.64 L187.64,449.79 L168.37,479.08 L159.30,498.95 L159.30,501.05 L159.86,506.28 L161.28,510.46 L164.97,514.64 L165.25,517.78 L164.12,525.10 L164.12,528.24 L166.10,531.38 L166.67,541.84 L166.38,550.21 L166.95,562.76 L166.38,582.64 L166.95,588.91 L177.15,616.11 L189.06,643.31 L200.40,665.27 L200.40,667.36 L199.83,669.46 L195.86,678.87 L177.72,715.48 L161.00,730.13 L159.30,730.13 L158.16,728.03 L158.73,725.94 L160.43,723.85 L166.38,712.34 L167.52,708.16 L166.95,702.93 L165.53,699.79 L145.69,662.13 L126.13,609.83 L125.00,605.65 L125.28,600.42 L121.88,587.87 L116.78,586.82" fill="none" stroke="#fc4c02" stroke-width="2" />
</svg>