<svg xmlns="http://www.w3.org/2000/svg" viewBox="0 0 1000 1000">
  <path d="M418.17,744.97 L417.63,743.83 L417.45,740.38 L413.84,733.49 L413.11,727.74 L411.13,723.15 L409.32,722.00 L384.03,721.42 L377.53,723.15 L370.12,728.89 L359.83,734.64 L346.28,740.38 L340.32,744.40 L336.52,747.85 L334.36,750.72 L333.45,753.59 L333.45,754.74 L335.44,758.76 L336.89,763.93 L337.97,769.67 L339.41,773.12 L345.56,781.16 L352.24,792.07 L360.19,801.84 L364.70,811.03 L374.46,821.94 L376.26,825.39 L379.34,835.73 L380.96,838.60 L385.30,844.34 L392.16,850.66 L396.50,859.85 L398.84,862.72 L403.90,866.17 L408.78,867.89 L413.11,870.76 L418.17,877.66 L425.40,883.97 L431.18,893.74 L436.24,900.63 L439.49,904.08 L449.24,910.97 L456.65,920.16 L460.08,923.03 L464.78,925.90 L471.64,928.20 L478.87,932.22 L485.37,934.52 L487.90,936.24 L491.51,941.41 L494.22,943.14 L507.59,942.56 L522.58,949.45 L527.64,948.88 L530.35,947.16 L536.31,946.01 L541.37,946.58 L548.95,950.03 L552.02,950.03 L555.64,948.31 L564.31,943.14 L580.20,942.56 L585.26,937.97 L589.05,936.24 L597.72,936.24 L604.05,939.12 L612.54,939.69 L618.14,938.54 L625.36,933.37 L629.88,931.65 L633.85,931.07 L643.61,931.07 L654.26,926.48 L657.15,925.90 L660.40,925.90 L669.98,929.93 L680.27,929.93 L685.87,928.20 L696.53,921.88 L710.62,920.16 L720.38,916.14 L724.35,916.14 L739.16,917.29 L751.26,911.55 L763.55,899.48 L773.84,894.31 L779.62,889.14 L785.40,881.10 L802.02,851.23 L805.09,844.34 L805.46,844.92 L805.09,844.92 L806.54,841.47 L807.26,842.04 L806.90,841.47 L807.98,839.17 L808.53,839.75 L808.16,839.17 L811.60,831.13 L817.02,819.64 L821.71,807.01 L828.94,797.24 L831.47,792.65 L835.98,782.88 L840.32,769.67 L845.01,762.21 L848.81,752.44 L853.50,742.68 L874.46,709.94 L878.61,700.75 L884.75,684.09 L889.63,674.33 L893.42,668.01 L909.68,647.90 L924.31,620.33 L937.50,600.23 L943.46,585.87 L947.25,578.40 L964.23,556.58 L970.38,547.39 L975.07,538.20 L986.45,511.77 L987.72,510.05 L996.03,502.01 L1000.00,494.54 L1000.00,492.25 L999.64,491.10 L998.55,490.52 L968.03,480.18 L966.58,478.46 L967.67,469.84 L967.67,464.10 L968.75,457.21 L968.93,454.34 L969.29,451.46 L970.20,419.30 L972.00,398.05 L972.36,383.11 L972.18,377.94 L972.36,368.75 L971.82,361.29 L972.18,353.82 L970.74,329.12 L971.10,326.25 L970.56,305.57 L970.92,286.62 L972.00,276.85 L973.09,269.96 L973.81,258.47 L972.90,246.98 L972.54,234.35 L972.54,210.22 L973.09,191.84 L972.90,186.10 L973.27,180.36 L975.43,169.44 L976.34,160.83 L975.43,154.51 L972.72,147.04 L973.27,121.19 L973.63,115.45 L973.63,105.69 L974.53,90.75 L974.35,89.60 L972.72,85.58 L968.57,85.58 L958.82,80.41 L956.47,76.97 L954.30,71.22 L953.76,71.22 L945.99,75.82 L942.74,79.26 L938.04,82.71 L934.25,84.43 L922.51,87.31 L910.77,88.45 L909.32,86.73 L908.06,80.99 L906.43,79.26 L900.65,82.14 L896.86,82.71 L893.79,77.54 L890.53,71.22 L889.09,65.48 L887.28,53.99 L885.48,47.10 L884.21,44.80 L881.68,35.61 L880.78,33.31 L879.34,27.00 L877.89,23.55 L875.36,18.95 L872.83,17.81 L870.85,17.81 L862.90,23.55 L840.32,37.33 L824.24,43.65 L808.89,43.65 L798.41,44.80 L772.76,42.50 L750.00,43.08 L744.58,41.93 L735.19,37.91 L733.74,36.76 L731.39,32.74 L727.78,29.29 L718.93,24.70 L717.30,22.40 L711.34,7.47 L707.91,4.60 L697.43,6.89 L686.42,2.87 L661.13,0.00 L653.00,1.15 L642.52,4.60 L620.30,15.51 L598.81,24.12 L555.27,45.95 L541.37,49.40 L532.33,49.40 L526.91,50.55 L518.97,56.29 L501.63,71.80 L498.55,72.95 L489.70,70.65 L486.81,71.22 L476.52,78.69 L462.25,75.82 L459.18,75.82 L447.80,87.31 L439.85,90.75 L416.73,124.07 L410.22,130.38 L403.54,135.55 L395.95,140.15 L389.81,141.30 L378.97,141.30 L376.63,143.60 L375.54,146.47 L373.37,147.62 L370.30,147.04 L364.16,142.45 L356.94,139.00 L354.05,138.43 L316.47,125.79 L307.62,124.07 L295.34,124.64 L286.85,124.07 L276.55,115.45 L275.83,114.30 L274.57,110.28 L271.32,106.26 L263.19,103.39 L257.95,103.96 L255.42,106.26 L248.55,117.17 L242.05,124.64 L228.87,130.38 L221.10,134.98 L215.14,140.72 L206.11,143.02 L196.35,153.36 L194.18,157.96 L193.46,161.98 L194.18,174.04 L194.36,178.06 L194.00,180.93 L191.11,190.12 L189.13,201.03 L187.68,206.20 L185.33,212.52 L182.62,216.54 L181.72,218.84 L181.54,220.56 L182.44,230.90 L182.44,233.77 L181.36,237.79 L180.27,240.67 L168.35,256.75 L164.02,267.09 L160.22,279.15 L157.33,284.32 L154.08,287.19 L149.39,289.49 L140.72,288.91 L136.56,289.49 L133.67,291.79 L132.04,294.08 L130.06,299.25 L124.28,319.93 L117.96,337.74 L115.25,343.48 L115.07,343.48 L111.09,348.08 L102.78,361.29 L90.14,372.77 L87.25,376.79 L79.12,390.01 L75.33,395.18 L63.95,406.66 L61.60,413.56 L60.33,425.04 L59.61,427.34 L48.41,429.06 L44.26,428.49 L41.37,426.77 L33.96,418.15 L30.89,418.72 L28.36,419.87 L24.75,423.32 L22.04,427.34 L20.59,431.36 L16.98,446.30 L15.35,450.89 L13.01,461.23 L6.14,483.63 L5.24,488.23 L4.70,492.25 L4.70,496.84 L6.32,511.77 L7.77,515.80 L19.87,533.03 L30.89,547.39 L31.43,548.54 L31.61,550.26 L30.89,553.13 L29.62,555.43 L23.12,558.87 L18.24,560.60 L6.86,561.75 L3.97,563.47 L3.07,565.77 L4.34,574.38 L1.26,585.87 L0.36,591.04 L0.00,597.93 L0.72,606.55 L1.99,609.99 L3.97,612.87 L21.50,631.82 L33.60,648.48 L47.87,666.28 L52.75,674.33 L74.60,702.47 L79.48,713.38 L82.73,724.87 L89.41,743.83 L89.05,746.70 L85.26,751.29 L84.90,751.29 L85.08,751.87 L82.91,754.74 L79.48,772.54 L75.87,781.16 L55.64,811.03 L35.22,846.07 L32.15,850.09 L26.91,854.68 L22.58,861.00 L21.86,864.45 L22.22,865.59 L23.12,868.47 L27.82,878.81 L30.53,881.10 L34.50,881.68 L35.22,883.40 L39.92,886.85 L47.33,888.00 L50.40,889.72 L80.56,921.31 L104.23,943.14 L123.74,957.50 L144.69,970.71 L148.66,968.98 L151.55,969.56 L165.10,976.45 L184.25,984.49 L211.71,993.11 L229.77,997.13 L255.24,1000.00 L289.74,998.85 L305.09,996.55 L451.59,970.71 L455.56,968.41 L458.09,966.11 L459.54,962.09 L460.44,958.64 L461.71,956.35 L471.46,952.33 L472.18,951.18 L472.72,950.03 L473.45,943.71 L474.89,935.67 L476.70,932.22 L486.09,935.09 L491.51,941.99 L494.22,943.71 L504.15,943.14 L509.93,943.71 L518.79,949.45 L521.86,950.03 L524.93,950.03 L531.07,947.16 L537.21,946.58 L550.76,950.03 L553.83,949.45 L564.67,943.71 L579.66,943.71 L585.98,937.97 L589.96,936.24 L597.36,936.24 L603.87,939.69 L609.83,940.84 L619.58,938.54 L625.18,934.52 L630.78,931.65 L643.79,931.65 L655.35,926.48 L660.40,926.48 L669.08,929.93 L676.84,930.50 L686.05,928.78 L697.62,920.74 L711.71,919.59 L717.12,917.29 L721.82,916.14 L735.19,917.86 L749.64,912.69 L754.88,908.67 L763.01,900.06 L772.94,895.46 L775.65,893.16 L783.06,884.55 L804.37,847.21 L816.29,821.37 L821.53,807.58 L828.58,798.39 L830.20,794.95 L835.80,782.88 L840.14,770.25 L844.83,763.93 L846.82,759.33 L847.00,758.18 L846.46,756.46 L843.75,755.31 L843.03,754.16 L843.93,746.70 L843.57,738.66 L842.67,734.64 L841.58,732.34 L839.41,723.15 L832.73,701.32 L830.74,693.28 L830.74,690.41 L830.92,687.54 L831.47,686.39 L841.94,676.05 L846.10,670.30 L851.34,657.09 L853.50,647.90 L854.77,637.56 L854.05,626.65 L852.06,617.46 L850.79,614.01 L839.96,590.47 L837.97,584.15 L836.16,574.38 L835.44,565.19 L835.08,554.85 L833.82,539.92 L832.91,537.05 L830.38,535.32 L827.49,536.47 L823.34,541.07 L817.56,545.09 L810.51,547.96 L802.75,549.68 L786.85,560.60 L769.33,570.94 L758.13,575.53 L742.23,577.25 L740.79,579.55 L739.88,582.42 L739.52,597.93 L738.08,602.53 L738.08,604.25 L739.16,606.55 L739.34,615.16 L738.98,631.82 L739.16,636.99 L738.80,642.73 L738.98,657.09 L738.62,658.24 L737.90,659.39 L705.74,658.82 L703.22,658.24 L698.70,651.35 L696.53,649.63 L672.51,647.90 L670.34,648.48 L669.80,649.63 L669.08,654.22 L668.89,709.94 L668.53,718.55 L668.17,720.28 L667.27,720.85 L651.55,722.00 L623.37,720.28 L612.90,720.85 L610.01,719.70 L604.05,714.53 L600.25,712.81 L597.90,714.53 L596.46,719.13 L596.10,723.15 L594.65,724.87 L590.32,725.45 L576.05,722.57 L562.32,722.57 L552.75,723.15 L541.73,722.57 L530.89,726.02 L526.73,728.89" fill="none" stroke="#fc4c02" stroke-width="2" />
</svg>