<svg xmlns="http://www.w3.org/2000/svg" viewBox="0 0 1000 1000">
  <path d="M343.39,884.54 L344.05,883.86 L343.83,882.51 L344.27,881.84 L344.71,877.79 L344.49,876.43 L341.21,869.01 L336.40,860.23 L335.74,852.80 L333.77,848.08 L329.40,846.73 L317.59,846.73 L300.31,845.37 L296.15,846.05 L277.12,859.55 L254.16,869.01 L245.19,875.08 L238.63,883.86 L237.10,881.84 L223.32,875.08 L219.60,870.36 L218.94,866.98 L219.38,862.26 L220.47,857.53 L220.47,856.18 L217.85,852.13 L216.10,850.78 L210.19,852.13 L205.82,852.13 L204.29,850.78 L195.10,837.27 L179.79,822.42 L177.82,820.39 L176.29,815.67 L168.42,804.19 L115.92,735.99 L104.11,723.16 L89.68,703.58 L79.40,694.13 L76.77,688.05 L76.33,686.02 L76.33,681.30 L76.12,679.27 L69.77,673.19 L63.43,673.19 L58.40,671.17 L40.03,646.86 L39.15,646.19 L38.71,642.81 L37.84,640.78 L25.15,623.90 L22.97,613.77 L20.78,602.30 L16.62,585.42 L14.00,571.24 L9.41,551.65 L3.28,520.59 L0.00,506.41 L0.00,504.39 L0.66,502.36 L5.91,494.94 L9.41,491.56 L20.56,488.18 L21.43,486.83 L22.31,481.43 L22.31,477.38 L20.34,465.23 L13.78,436.19 L10.94,419.99 L10.50,408.51 L10.94,399.05 L13.12,388.93 L16.62,378.80 L20.12,371.37 L28.22,359.89 L30.18,355.84 L31.28,348.41 L32.81,343.01 L32.81,340.99 L28.65,334.91 L28.22,332.88 L28.65,328.83 L29.09,327.48 L39.15,301.82 L41.56,297.77 L52.06,284.94 L55.99,276.84 L57.09,271.44 L57.09,266.04 L56.21,259.28 L56.65,257.26 L61.02,249.16 L64.30,241.05 L65.40,237.68 L67.37,226.20 L71.30,214.72 L72.18,206.62 L71.08,195.14 L71.30,191.09 L71.74,187.04 L74.37,179.61 L81.80,171.51 L85.52,168.13 L96.02,165.43 L109.80,154.63 L117.24,150.57 L124.89,148.55 L128.83,146.52 L138.67,136.39 L146.54,123.57 L150.26,121.54 L158.36,121.54 L166.01,125.59 L170.60,133.69 L181.98,142.47 L192.91,145.17 L214.79,146.52 L232.94,150.57 L239.94,153.95 L269.90,162.73 L277.34,166.78 L283.25,171.51 L285.87,172.18 L288.50,170.16 L293.96,164.08 L299.43,164.08 L312.12,161.38 L321.08,156.65 L333.99,147.87 L340.99,139.77 L345.58,133.02 L348.64,126.94 L356.30,117.49 L365.49,103.98 L367.89,101.96 L376.42,99.26 L389.76,87.10 L394.14,85.75 L412.51,90.48 L422.79,83.05 L425.42,82.38 L429.57,81.70 L436.57,83.73 L441.16,83.73 L464.35,64.82 L475.94,58.07 L489.50,56.04 L508.97,51.99 L544.18,36.46 L565.40,24.98 L615.70,2.70 L630.80,0.00 L649.61,1.35 L665.79,1.35 L674.32,6.08 L678.70,7.43 L683.95,6.75 L690.51,3.38 L693.79,3.38 L697.51,7.43 L702.76,17.56 L703.85,22.96 L704.07,26.33 L705.38,29.71 L708.01,33.09 L714.13,36.46 L735.78,45.24 L742.78,46.59 L769.03,46.59 L787.62,49.29 L813.65,48.62 L823.71,49.29 L835.30,48.62 L843.61,45.91 L856.96,39.16 L891.73,17.56 L896.33,16.88 L898.95,18.91 L900.70,21.61 L905.07,36.46 L909.89,50.64 L912.95,62.12 L915.14,67.52 L921.48,90.48 L922.79,93.86 L926.07,93.86 L933.95,90.48 L935.04,91.15 L936.35,96.56 L938.98,98.58 L958.88,89.80 L966.54,92.51 L968.94,94.53 L970.91,94.53 L978.57,89.80 L983.16,85.08 L991.03,81.03 L992.56,84.40 L993.66,90.48 L999.78,101.28 L1000.00,103.31 L999.56,109.39 L999.78,110.06 L999.56,113.44 L999.78,134.37 L998.91,160.03 L999.34,166.10 L998.69,170.83 L999.34,172.86 L998.47,193.79 L998.91,196.49 L998.25,210.67 L997.81,213.37 L995.84,216.75 L982.72,216.75 L980.53,217.42 L975.50,222.82 L973.75,228.22 L973.53,237.68 L972.44,259.28 L972.66,261.99 L972.00,284.27 L972.44,294.40 L972.00,303.17 L972.44,310.60 L972.22,316.00 L971.57,320.05 L971.57,330.18 L972.00,335.58 L971.78,344.36 L972.22,349.09 L971.78,354.49 L971.78,357.19 L970.91,362.59 L968.50,364.62 L965.22,364.62 L953.63,363.27 L933.29,363.94 L921.04,361.92 L910.98,363.27 L904.20,370.70 L903.32,372.72 L902.67,376.77 L902.67,377.45 L903.11,378.12 L902.23,386.90 L901.57,407.16 L902.23,427.41 L902.01,434.84 L902.01,442.27 L901.57,448.35 L901.57,457.12 L902.01,458.47 L901.57,464.55 L897.42,469.95 L894.36,471.30 L869.86,471.98 L853.67,470.63 L850.83,471.30 L849.30,475.35 L847.77,486.83 L847.33,488.86 L847.33,493.59 L847.99,496.96 L848.43,503.04 L850.61,512.49 L851.27,517.22 L852.36,521.27 L853.24,528.02 L853.46,536.80 L852.36,542.88 L844.27,571.24 L843.61,575.96 L842.96,588.79 L843.39,594.87 L842.74,607.02 L840.33,615.80 L839.90,619.85 L841.86,625.25 L844.93,628.63 L845.80,637.41 L847.55,642.13 L849.30,661.04 L849.08,671.17 L850.39,681.30 L851.71,685.35 L851.71,687.37 L850.61,690.75 L847.11,694.80 L833.11,702.90 L821.52,707.63 L819.34,711.01 L816.05,713.71 L815.40,715.73 L816.05,723.84 L817.15,727.21 L817.15,728.56 L816.49,730.59 L816.71,733.29 L818.46,736.66 L829.18,750.17 L834.65,760.30 L855.21,782.58 L860.02,789.33 L879.70,808.91 L888.23,818.37 L895.01,825.79 L896.11,828.49 L889.55,840.65 L885.61,845.37 L869.64,871.03 L863.08,884.54 L858.92,886.56 L845.80,887.24 L837.49,883.19 L827.87,876.43 L819.55,875.08 L803.59,879.81 L797.24,880.49 L792.21,878.46 L781.93,871.03 L771.00,868.33 L763.56,869.68 L746.94,876.43 L739.28,877.11 L734.03,875.76 L727.91,872.38 L720.69,871.71 L697.51,877.11 L686.35,873.06 L682.85,876.43 L679.57,882.51 L671.04,886.56 L664.92,887.91 L650.04,897.37 L644.79,898.72 L637.36,906.82 L633.64,908.17 L582.68,912.22 L567.80,909.52 L563.21,905.47 L559.27,905.47 L557.52,906.82 L555.99,910.20 L555.34,912.90 L554.68,925.73 L555.34,937.20 L554.90,938.56 L550.09,943.28 L536.53,953.41 L519.90,962.86 L509.84,966.91 L486.00,970.97 L475.94,969.62 L473.97,967.59 L468.50,966.24 L467.19,967.59 L466.10,972.32 L464.57,975.02 L458.66,977.72 L452.32,983.12 L446.41,991.90 L442.69,999.32 L441.60,1000.00 L427.82,994.60 L418.64,987.17 L398.95,966.24 L395.01,960.84" fill="none" stroke="#fc4c02" stroke-width="2" />
</svg>