<svg xmlns="http://www.w3.org/2000/svg" viewBox="0 0 1000 1000">
  <path d="M332.39,780.58 L326.03,766.79 L325.53,764.39 L325.36,762.59 L324.36,758.39 L323.02,756.59 L299.28,754.80 L294.77,755.40 L285.91,763.19 L276.54,769.78 L260.49,778.78 L254.97,784.17 L251.80,788.37 L240.43,780.58 L236.58,774.58 L235.91,761.39 L234.74,759.59 L232.07,757.79 L228.22,759.59 L224.21,757.79 L207.66,738.61 L202.81,731.41 L202.14,729.02 L200.47,726.02 L196.12,719.42 L186.42,702.04 L179.23,692.45 L175.05,685.25 L165.86,673.26 L154.32,652.88 L147.13,645.08 L135.76,626.50 L128.24,618.11 L127.24,615.11 L126.40,606.12 L125.06,604.32 L121.38,601.92 L116.03,603.12 L111.35,606.71 L106.50,606.12 L102.66,609.11 L101.49,608.51 L93.96,601.32 L86.77,591.73 L78.92,576.14 L75.91,568.35 L68.22,553.96 L51.83,535.37 L39.46,514.39 L34.78,509.59 L25.75,495.20 L21.07,482.01 L18.22,471.22 L15.21,462.83 L10.53,455.64 L5.85,452.04 L0.00,448.44 L0.33,442.45 L1.50,434.05 L4.18,425.06 L18.39,407.67 L20.90,403.48 L25.25,394.48 L29.09,389.09 L40.63,375.90 L43.64,371.10 L53.67,351.92 L60.86,330.34 L64.37,316.55 L66.71,308.75 L70.39,303.96 L73.40,302.76 L81.42,303.36 L86.11,302.16 L90.29,298.56 L93.30,292.57 L96.30,281.18 L99.48,271.58 L102.66,265.59 L109.18,256.00 L112.52,250.00 L113.86,242.21 L113.02,235.01 L113.19,228.42 L116.70,220.62 L118.54,215.23 L120.88,202.04 L124.06,190.65 L124.56,186.45 L124.06,172.06 L124.56,167.27 L127.57,160.67 L133.92,153.48 L140.28,149.28 L144.96,148.08 L148.97,143.29 L158.84,135.49 L165.52,133.09 L170.87,129.50 L174.72,124.70 L183.92,110.91 L188.76,110.31 L194.62,111.51 L199.30,113.91 L200.47,116.31 L201.14,119.90 L210.50,130.70 L220.70,133.09 L231.90,132.49 L237.59,133.69 L253.47,138.49 L282.90,151.68 L289.58,157.07 L295.77,151.08 L303.96,149.88 L322.52,140.29 L326.37,136.09 L351.11,95.32 L351.78,94.72 L358.13,94.72 L361.31,92.93 L370.84,80.94 L385.72,85.73 L394.92,77.34 L407.12,78.54 L408.96,77.94 L421.17,66.55 L426.52,59.95 L431.20,56.35 L440.39,52.16 L456.61,49.76 L462.30,46.76 L472.33,40.77 L483.20,34.77 L499.25,23.98 L526.33,10.19 L547.23,1.20 L558.27,0.00 L576.66,3.00 L576.99,3.60 L577.16,11.39 L578.50,14.99 L579.33,15.59 L596.56,23.98 L605.42,29.98 L608.76,33.57 L628.82,43.17 L635.18,44.96 L645.54,46.16 L674.30,43.76 L694.53,44.96 L707.74,46.76 L714.43,44.36 L729.98,35.37 L734.83,31.77 L751.55,20.98 L756.40,20.98 L757.57,26.38 L760.41,48.56 L763.58,64.15 L766.93,71.34 L769.10,79.14 L771.28,84.53 L779.64,86.33 L782.31,91.73 L784.82,91.13 L800.03,82.13 L831.63,61.15 L840.16,62.95 L840.83,64.15 L844.17,78.54 L846.35,91.13 L846.68,99.52 L846.68,109.11 L847.18,121.70 L847.35,161.27 L847.85,176.86 L846.01,192.45 L844.51,232.01 L845.18,258.99 L846.35,268.59 L846.35,279.38 L844.51,298.56 L844.01,305.76 L844.17,326.74 L843.67,336.93 L843.67,355.52 L843.17,363.31 L843.34,371.70 L843.17,380.70 L843.50,389.09 L843.84,390.29 L841.83,401.68 L841.00,410.67 L841.00,434.05 L842.17,445.44 L841.67,454.44 L839.99,469.42 L840.16,475.42 L840.83,481.41 L838.82,494.00 L839.32,496.40 L843.17,502.40 L845.85,505.40 L850.36,507.79 L861.90,511.99 L877.95,516.19 L886.98,519.78 L903.53,528.78 L908.88,532.37 L922.92,544.36 L936.47,558.15 L952.85,576.14 L960.21,586.33 L972.08,604.32 L982.95,623.50 L991.14,639.09 L997.66,652.88 L1000.00,660.67 L979.60,680.46 L968.40,690.05 L963.38,695.44 L946.83,717.63 L941.48,723.62 L936.47,728.42 L919.24,741.61 L906.87,757.19 L896.00,771.58 L891.32,773.38 L886.31,777.58 L874.27,789.57 L869.25,794.96 L857.21,811.15 L850.36,818.94 L828.96,835.73 L778.47,891.49 L763.92,903.48 L758.40,909.47 L743.86,922.66 L738.67,926.26 L712.09,938.85 L685.84,947.24 L668.12,950.24 L662.60,950.24 L657.08,946.64 L653.24,941.25 L649.56,940.65 L642.87,951.44 L640.36,953.84 L634.01,958.63 L627.82,960.43 L615.95,959.83 L608.59,960.43 L602.41,962.83 L595.22,962.83 L588.70,964.63 L582.01,970.02 L575.15,973.62 L568.63,974.22 L562.45,972.42 L554.26,968.23 L551.25,968.23 L540.71,974.82 L527.34,974.22 L514.13,983.81 L506.44,986.21 L502.59,984.41 L496.57,979.62 L490.89,979.02 L486.21,981.41 L482.70,986.21 L480.86,987.41 L470.16,986.81 L464.47,987.41 L458.12,992.21 L453.27,993.41 L441.06,989.21 L429.19,993.41 L417.32,987.41 L411.14,985.01 L401.10,985.01 L394.92,977.22 L386.39,974.82 L384.89,976.62 L383.55,979.62 L382.04,988.61 L381.21,997.00 L377.19,999.40 L370.84,1000.00 L368.17,994.00 L363.65,988.61 L358.97,985.01 L357.30,985.01 L352.12,989.81 L340.08,993.41 L331.22,995.20 L330.38,994.60 L328.87,988.01 L327.70,985.61 L325.20,970.62 L323.02,967.63 L320.51,967.03 L290.59,974.82 L279.89,978.42 L250.13,983.81 L226.38,990.41 L213.18,990.41 L206.49,986.81 L204.31,981.41 L203.14,973.62 L203.81,956.83 L203.31,953.84 L195.95,953.84 L179.07,951.44 L171.71,952.64 L166.86,952.04 L166.03,950.84 L165.52,947.84 L165.69,946.04 L170.04,934.05 L170.04,932.85 L162.85,925.06 L158.00,923.26 L152.82,925.66 L140.11,926.86 L134.59,924.46 L124.23,917.27 L118.88,914.87 L113.53,913.67 L109.18,911.27 L108.68,910.07 L110.52,899.88 L113.53,890.29 L117.71,881.89 L122.72,873.50 L125.73,865.11 L127.57,856.71 L127.91,848.32 L127.74,838.13 L129.58,830.94 L139.94,812.35 L143.62,809.35 L165.02,812.95 L171.04,812.95 L175.39,809.35 L177.56,805.76 L178.40,805.76 L181.74,812.95 L194.95,833.93 L196.12,835.13 L197.79,833.33 L205.65,820.14 L212.51,806.95 L217.35,799.76 L223.37,787.17 L217.19,779.98 L214.85,774.58 L213.68,768.59 L220.36,757.19 L223.37,756.00 L224.71,758.39 L230.40,760.79 L235.58,758.99 L238.59,763.79 L238.25,773.38 L240.09,781.18 L252.13,788.37 L254.14,785.97 L256.65,781.77 L260.32,778.18 L265.67,773.98 L284.90,763.79 L296.77,756.00 L298.61,756.00 L299.95,758.99 L299.95,766.79 L301.62,775.78 L306.80,791.37 L321.69,827.94 L335.23,851.32 L343.76,839.33 L347.94,832.13 L350.94,824.94 L348.77,818.94 L345.93,813.55" fill="none" stroke="#fc4c02" stroke-width="2" />
</svg>