<svg xmlns="http://www.w3.org/2000/svg" viewBox="0 0 1000 1000">
  <path d="M171.93,872.18 L166.56,860.88 L160.98,855.93 L147.67,859.46 L138.01,857.34 L157.54,829.10 L159.26,825.56 L156.90,812.85 L154.97,808.62 L153.47,801.55 L139.94,783.19 L125.99,766.24 L119.98,760.59 L115.05,752.82 L103.67,740.82 L91.44,722.46 L86.07,718.22 L81.78,712.57 L80.70,707.63 L77.91,707.63 L74.48,703.39 L69.11,700.56 L62.46,702.68 L56.88,701.27 L52.16,696.33 L45.50,687.15 L42.50,680.79 L41.85,677.97 L40.78,677.97 L37.78,673.02 L35.84,667.37 L23.82,651.13 L21.68,642.66 L19.53,630.65 L13.74,605.23 L12.88,591.81 L7.94,571.33 L4.94,552.97 L2.58,537.43 L0.00,524.01 L1.07,521.19 L4.08,516.95 L8.80,511.30 L18.89,507.06 L24.25,501.41 L23.82,495.06 L13.31,450.56 L13.31,445.62 L9.87,438.56 L9.87,427.97 L10.95,415.96 L13.52,403.25 L16.10,394.77 L19.32,387.71 L30.05,370.06 L31.12,365.82 L31.12,362.99 L32.63,355.23 L30.69,349.58 L28.33,345.34 L28.55,343.93 L31.34,336.86 L35.84,324.15 L39.71,314.97 L44.86,306.50 L54.30,294.49 L57.09,289.55 L58.17,281.78 L56.66,266.95 L63.53,253.53 L69.76,231.64 L71.47,223.87 L72.12,217.51 L71.05,202.68 L71.05,197.74 L72.98,191.38 L77.70,183.62 L88.22,174.44 L100.67,170.20 L110.54,162.43 L116.76,158.90 L128.78,154.66 L133.51,149.72 L145.74,133.47 L149.60,129.94 L155.83,128.53 L162.91,129.94 L167.20,132.77 L169.14,134.89 L171.28,139.83 L182.44,149.72 L189.10,151.84 L207.34,151.13 L222.79,154.66 L236.75,159.60 L249.41,162.43 L274.09,170.90 L283.97,177.26 L291.05,173.02 L296.20,175.14 L305.00,175.14 L311.65,173.02 L317.88,168.08 L320.67,163.84 L329.47,154.66 L333.98,149.01 L346.00,129.24 L362.31,109.46 L365.53,107.34 L373.90,107.34 L384.63,95.34 L388.07,93.22 L396.65,94.63 L402.88,91.81 L409.74,91.81 L420.48,88.28 L436.36,88.28 L464.26,66.38 L474.78,61.44 L492.59,59.32 L504.83,55.79 L538.96,36.02 L563.00,24.01 L581.88,16.24 L600.99,6.36 L621.38,0.00 L651.43,3.53 L651.86,4.94 L652.07,12.01 L656.15,16.24 L670.32,24.72 L682.55,29.66 L697.57,39.55 L703.58,40.25 L729.13,50.14 L749.95,50.85 L770.12,48.73 L792.87,51.55 L800.39,50.14 L814.34,50.85 L834.51,48.73 L852.97,40.96 L854.69,38.14 L855.76,34.60 L862.20,30.37 L875.51,26.84 L879.16,26.84 L879.80,29.66 L882.38,33.19 L883.02,36.02 L884.52,44.49 L885.60,47.32 L886.03,50.14 L887.31,55.08 L887.53,60.73 L888.17,64.97 L891.18,75.56 L893.54,78.39 L909.42,91.10 L912.64,91.81 L913.07,91.10 L913.72,95.34 L915.22,100.28 L914.79,103.81 L911.35,107.34 L887.10,122.18 L874.01,132.77 L863.06,135.59 L855.55,139.12 L827.00,146.89 L822.06,154.66 L822.28,156.07 L820.13,168.79 L822.92,185.73 L823.35,212.57 L820.35,224.58 L819.70,230.23 L819.49,242.23 L818.63,247.18 L819.92,259.89 L819.27,266.95 L819.92,268.36 L820.78,274.72 L819.92,284.60 L819.49,286.02 L819.92,293.79 L819.06,300.85 L819.49,302.26 L817.99,324.15 L817.99,335.45 L818.85,343.22 L818.85,349.58 L820.13,361.58 L819.06,372.18 L819.49,372.88 L820.35,374.29 L831.29,375.00 L860.49,379.94 L876.58,378.53 L894.40,381.36 L910.50,379.24 L930.46,383.47 L939.47,382.77 L958.79,383.47 L971.24,382.77 L982.83,379.94 L986.48,375.71 L991.63,376.41 L992.27,378.53 L992.92,394.77 L992.92,402.54 L993.35,403.95 L993.56,408.19 L993.99,410.31 L994.20,415.25 L993.99,424.44 L995.49,432.91 L994.85,442.09 L1000.00,463.98 L998.71,468.93 L997.21,471.05 L995.28,480.93 L993.78,486.58 L992.06,503.53 L992.49,506.36 L992.92,528.95 L990.99,542.37 L990.77,548.73 L990.77,553.67 L993.78,572.03 L989.05,588.28 L988.62,597.46 L985.19,612.29 L982.19,617.23 L979.39,619.35 L976.18,629.94 L974.24,629.24 L972.31,629.94 L958.15,640.54 L948.92,645.48 L934.75,648.31 L912.00,649.72 L884.10,649.72 L873.36,652.54 L847.82,651.13 L827.43,655.37 L819.27,663.14 L810.69,667.37 L794.38,673.73 L754.02,698.45 L745.44,701.98 L734.06,703.39 L715.17,702.68 L708.09,700.56 L700.15,699.86 L682.55,692.80 L675.90,687.85 L669.03,682.20 L647.99,659.60 L641.77,650.42 L625.89,631.36 L619.45,621.47 L615.37,617.94 L602.28,599.58 L598.84,593.22 L582.31,576.27 L575.23,567.80 L570.94,560.03 L566.22,555.08 L560.85,552.26 L555.48,551.55 L549.69,548.02 L544.54,540.96 L542.39,540.25 L538.10,547.32 L531.23,552.97 L527.58,558.62 L528.01,562.15 L527.80,563.56 L521.14,565.68 L506.98,583.33 L484.01,608.05 L477.57,615.82 L455.03,650.42 L449.02,661.72 L434.21,685.03 L429.92,690.68 L420.26,709.75 L415.75,721.75 L415.33,730.23 L408.89,745.06 L407.60,751.41 L395.58,769.07 L380.77,794.49 L371.32,806.50 L363.38,820.62 L361.24,822.03 L346.86,823.45 L340.63,826.98 L309.72,835.45 L297.92,843.93 L273.02,867.23 L268.94,868.64 L244.26,867.94 L230.95,870.76 L223.44,875.00 L216.57,885.59 L210.56,891.95 L205.62,890.54 L202.40,887.71 L200.90,889.12 L194.46,898.31 L192.53,902.54 L191.24,913.84 L194.03,920.90 L207.98,935.73 L215.07,940.68 L223.87,944.92 L239.97,915.96 L245.12,910.31 L250.70,906.78 L268.73,899.72 L291.91,884.89 L294.48,885.59 L295.99,887.71 L296.63,896.19 L297.70,903.95 L302.85,920.20 L313.16,944.21 L318.95,954.80 L334.62,987.99 L340.63,997.88 L343.21,1000.00 L342.99,997.88 L346.43,991.53 L354.15,982.34" fill="none" stroke="#fc4c02" stroke-width="2" />
</svg>