<svg xmlns="http://www.w3.org/2000/svg" viewBox="0 0 1000 1000">
  <path d="M992.89,1000.00 L993.03,999.43 L993.44,999.14 L993.17,999.00 L993.17,998.57 L994.70,997.58 L995.12,997.01 L994.98,995.58 L993.86,994.16 L990.10,990.74 L989.96,990.02 L988.84,989.03 L988.15,987.74 L985.91,983.32 L983.40,980.19 L983.40,979.19 L982.85,977.77 L982.98,976.34 L982.85,976.20 L981.87,975.63 L978.66,974.91 L974.76,973.20 L974.34,972.35 L972.25,970.92 L971.69,970.35 L969.87,970.07 L967.09,968.79 L964.44,966.93 L963.32,966.08 L962.90,965.22 L962.34,963.23 L962.34,961.52 L961.92,960.09 L962.06,958.24 L961.65,957.67 L961.37,956.67 L961.65,954.96 L961.37,954.68 L961.51,953.11 L965.83,949.69 L969.32,947.98 L972.25,945.55 L976.85,942.56 L977.13,940.99 L977.82,940.28 L978.94,939.71 L979.92,938.57 L981.17,936.29 L982.01,935.43 L982.71,932.73 L983.26,931.87 L983.26,931.30 L984.66,930.02 L984.66,929.59 L984.94,929.30 L985.08,928.73 L986.05,927.88 L985.77,927.02 L985.91,926.31 L986.33,925.03 L987.03,924.03 L987.31,922.04 L986.19,920.32 L985.36,919.75 L985.36,918.90 L986.05,918.33 L987.17,918.19 L989.82,917.19 L996.09,916.19 L998.61,915.05 L1000.00,913.34 L998.74,912.06 L998.33,911.35 L998.33,910.78 L998.74,909.78 L998.61,908.92 L998.33,908.35 L997.63,907.92 L992.75,906.50 L991.91,905.93 L989.26,905.36 L985.63,903.65 L983.12,903.22 L979.78,901.08 L976.29,900.37 L974.48,900.23 L969.04,900.94 L964.44,901.94 L960.25,903.51 L958.58,904.50 L953.56,907.07 L949.93,908.07 L946.72,908.49 L941.98,908.07 L938.77,907.50 L937.38,906.93 L934.03,906.21 L930.82,904.93 L922.18,902.94 L917.15,899.66 L916.88,899.23 L916.88,898.52 L916.18,897.52 L915.90,897.38 L916.04,896.81 L916.60,896.52 L918.55,895.81 L923.43,895.24 L925.80,894.24 L928.73,893.67 L931.80,892.39 L933.89,889.54 L934.73,886.97 L936.26,885.26 L935.56,883.84 L935.70,883.41 L934.17,880.99 L934.03,878.56 L934.31,877.71 L933.75,877.00 L933.89,876.43 L933.47,875.71 L932.78,874.86 L929.43,873.43 L928.31,873.15 L927.06,872.43 L927.20,871.29 L929.15,869.44 L929.15,869.01 L929.43,868.44 L930.82,867.30 L932.91,864.45 L933.75,864.03 L933.75,863.74 L935.98,862.88 L936.54,862.31 L938.91,861.17 L939.19,860.60 L939.61,860.18 L941.70,859.32 L942.40,858.61 L942.96,857.90 L942.82,857.61 L944.21,856.19 L946.58,855.05 L948.26,853.91 L949.37,853.62 L950.35,852.91 L950.91,851.34 L950.49,850.63 L948.81,849.06 L948.68,848.77 L946.03,847.49 L938.91,845.78 L935.70,845.35 L931.10,846.21 L927.89,846.35 L925.52,845.50 L923.29,843.22 L922.87,842.08 L922.73,841.22 L923.29,840.36 L923.29,839.51 L924.41,837.94 L923.57,836.66 L923.85,836.09 L923.85,835.52 L924.27,835.23 L923.99,834.52 L924.41,833.81 L924.41,832.81 L923.29,830.53 L922.18,828.82 L922.32,828.39 L919.80,822.12 L917.71,819.27 L917.57,818.27 L917.57,817.56 L918.41,816.28 L919.39,815.42 L920.64,814.99 L921.06,814.00 L915.06,812.71 L914.23,812.71 L909.21,812.00 L906.14,810.72 L904.88,809.72 L904.60,809.29 L902.93,808.87 L900.14,808.58 L896.65,807.44 L893.86,807.73 L889.54,808.58 L886.61,808.58 L884.66,808.30 L882.29,807.58 L881.31,807.16 L880.33,806.16 L879.92,805.59 L880.06,805.02 L880.89,803.88 L882.85,800.17 L884.38,798.75 L884.52,798.18 L884.66,796.75 L882.85,794.47 L882.71,793.04 L883.54,791.76 L884.10,790.48 L885.50,789.20 L886.47,787.77 L886.47,787.34 L885.08,785.49 L885.22,784.35 L885.08,783.92 L885.50,783.64 L885.91,781.93 L886.61,780.64 L886.05,778.08 L886.75,777.22 L888.28,776.65 L888.56,776.37 L886.89,773.66 L887.31,771.52 L887.03,770.24 L886.89,768.67 L888.70,764.82 L890.93,762.40 L890.79,761.69 L890.93,760.97 L890.38,757.98 L889.96,757.13 L888.84,755.99 L888.15,755.13 L885.91,753.85 L883.68,751.28 L883.12,750.14 L882.85,749.86 L881.73,749.43 L879.78,749.00 L878.66,748.15 L878.94,746.15 L879.78,745.30 L879.78,744.30 L880.20,743.73 L880.20,743.44 L880.47,742.87 L880.20,742.73 L880.47,742.30 L880.33,741.73 L880.75,740.74 L882.43,738.17 L882.57,737.31 L882.29,736.03 L881.31,734.61 L881.45,733.75 L881.87,732.90 L881.59,731.33 L881.87,729.76 L881.31,729.19 L880.33,728.76 L877.82,728.76 L875.03,728.19 L872.38,728.19 L870.57,727.77 L869.04,726.62 L868.76,725.91 L867.92,725.48 L866.95,724.63 L865.69,723.92 L860.25,723.35 L858.86,722.78 L854.53,720.50 L849.23,716.51 L847.84,715.94 L846.86,714.65 L845.47,713.65 L843.51,713.08 L841.84,711.94 L841.70,710.80 L841.14,710.23 L841.56,709.09 L843.38,707.24 L843.24,707.10 L844.77,704.39 L846.03,703.53 L846.72,702.39 L846.86,701.68 L848.68,700.11 L849.09,698.83 L850.07,697.83 L850.07,697.12 L851.74,695.55 L852.72,694.27 L852.72,692.99 L853.84,691.13 L856.90,688.00 L859.97,686.43 L863.18,685.29 L866.53,684.72 L877.55,683.72 L879.50,682.73 L879.92,682.30 L879.78,681.58 L878.10,680.73 L877.96,680.30 L878.24,680.02 L879.64,679.30 L881.45,677.74 L881.87,677.17 L882.01,676.45 L881.73,675.88 L879.78,674.46 L879.78,674.17 L880.33,673.75 L881.87,671.89 L882.85,671.18 L886.33,669.75 L887.03,668.76 L887.59,668.33 L887.73,667.76 L888.84,667.19 L890.79,665.19 L890.38,664.91 L890.38,664.20 L888.84,662.63 L888.28,661.35 L886.89,660.35 L884.80,659.35 L883.26,658.49 L882.29,657.35 L881.45,656.64 L881.17,656.07 L881.31,655.36 L881.31,654.65 L879.64,652.65 L879.50,650.51 L878.80,649.37 L877.41,648.09 L876.57,646.81 L876.29,645.24 L876.99,643.67 L876.57,642.82 L875.87,640.25 L874.90,639.11 L873.92,638.83 L871.27,637.83 L867.64,637.12 L865.69,635.97 L863.18,634.98 L862.76,634.55 L860.67,633.98 L859.14,632.55 L853.70,631.41 L849.65,629.42 L848.26,628.28 L846.16,627.99 L846.03,627.85 L846.58,627.28 L846.30,627.14 L844.07,626.28 L843.38,626.28 L840.73,625.71 L839.19,624.86 L838.21,623.72 L838.35,622.15 L838.63,621.44 L837.94,619.87 L837.38,619.16 L835.01,617.45 L835.01,617.16 L835.15,616.59 L834.31,615.31 L832.78,614.45 L832.64,614.03 L833.05,613.45 L833.05,613.31 L832.36,612.74 L832.08,612.17 L831.10,611.46 L831.10,610.60 L828.45,609.18 L827.06,607.47 L825.66,606.47 L824.55,604.90 L823.01,604.19 L816.46,603.19 L803.49,602.34 L800.42,602.77 L798.61,602.62 L795.26,603.05 L789.54,602.34 L779.64,603.19 L773.36,603.34 L770.71,603.19 L768.20,602.34 L765.55,602.05 L761.65,602.48 L758.30,603.48 L753.97,603.91 L752.02,603.91 L749.37,603.62 L747.84,602.91 L746.03,602.48 L743.10,601.48 L741.70,601.77 L740.59,602.48 L737.94,602.91 L736.96,603.19 L736.68,603.62 L736.96,605.62 L737.38,605.90 L735.98,606.47 L735.01,606.47 L733.19,606.04 L732.50,605.47 L730.13,604.76 L728.59,604.48 L726.92,603.62 L726.64,603.19 L726.22,603.19 L725.38,602.48 L725.52,601.77 L723.57,599.49 L723.29,598.92 L723.57,598.49 L723.29,597.21 L722.32,595.50 L720.36,593.50 L720.22,592.65 L719.80,592.08 L719.80,591.36 L719.11,591.08 L718.41,589.94 L717.71,587.66 L716.32,586.52 L716.04,586.52 L715.20,585.66 L715.34,585.52 L714.92,585.52 L714.09,585.09 L714.23,583.81 L713.67,582.81 L711.85,581.96 L711.30,581.24 L711.02,580.67 L710.04,579.96 L709.21,579.68 L707.67,578.53 L707.53,578.25 L706.42,577.68 L703.21,576.97 L695.54,577.39 L685.91,576.40 L679.92,576.40 L674.90,575.97 L666.95,576.82 L663.60,576.82 L657.18,574.97 L651.32,572.12 L644.91,571.69 L639.47,569.27 L638.08,568.42 L637.94,567.84 L638.77,566.70 L638.91,565.85 L638.77,563.57 L637.10,562.29 L635.29,561.57 L634.73,560.86 L635.43,559.29 L635.98,558.72 L636.68,557.44 L637.52,557.01 L639.19,555.16 L641.14,553.88 L641.56,553.31 L641.70,552.45 L640.31,551.17 L641.00,550.46 L641.00,549.89 L641.42,549.46 L641.56,548.32 L641.28,547.89 L641.28,547.04 L640.45,544.75 L640.03,542.62 L641.14,540.34 L641.14,539.62 L641.70,537.77 L641.70,536.20 L641.28,535.21 L641.28,534.64 L641.70,533.49 L643.10,531.78 L643.93,531.21 L644.49,530.50 L646.16,529.79 L646.44,529.08 L647.42,528.65 L645.89,527.94 L644.07,527.65 L641.84,526.51 L640.45,525.09 L640.59,523.95 L640.17,522.23 L640.86,521.52 L641.98,520.81 L642.40,519.81 L642.40,519.24 L643.24,518.67 L643.24,517.96 L645.61,516.11 L647.56,513.97 L650.07,512.97 L651.19,512.69 L651.88,512.12 L655.09,510.69 L654.81,510.55 L655.65,509.55 L657.88,508.41 L657.74,508.12 L658.44,507.41 L661.79,505.56 L661.92,504.99 L665.83,503.99 L666.95,503.14 L671.41,501.14 L672.25,500.43 L672.52,499.71 L673.64,499.43 L673.64,499.00 L674.20,498.43 L676.29,497.58 L678.66,496.15 L683.12,494.58 L685.63,493.02 L688.42,492.02 L691.07,491.45 L699.30,490.31 L701.12,488.88 L700.84,488.03 L700.98,487.46 L701.39,487.31 L702.93,486.60 L705.02,486.17 L707.11,485.32 L709.07,484.89 L709.07,484.75 L708.79,484.46 L706.42,484.04 L696.37,483.04 L689.96,481.61 L686.75,481.33 L682.15,480.47 L678.38,480.19 L674.90,479.48 L671.13,479.33 L669.18,478.76 L662.34,477.91 L657.74,476.77 L655.37,476.62 L650.77,475.34 L647.98,475.06 L647.00,474.49 L645.19,474.20 L643.38,473.20 L642.26,472.92 L638.35,472.35 L635.98,472.35 L633.75,471.92 L631.80,471.92 L630.26,471.49 L628.73,471.49 L626.08,470.64 L623.57,469.07 L622.59,468.93 L620.36,467.93 L620.92,466.22 L618.97,464.37 L616.46,461.09 L616.60,459.95 L618.83,456.24 L620.50,452.54 L620.78,451.11 L620.64,450.83 L618.97,449.97 L618.13,448.26 L615.90,446.55 L614.23,446.12 L613.95,445.70 L612.97,445.27 L612.27,444.13 L610.18,443.84 L607.95,443.13 L606.83,442.42 L606.28,441.85 L606.00,440.42 L603.21,439.14 L602.23,437.43 L600.84,435.72 L599.30,434.58 L598.47,433.30 L598.19,432.44 L598.61,431.44 L599.02,429.59 L599.58,428.73 L599.44,427.31 L599.86,426.88 L600.14,425.60 L600.00,424.03 L599.44,423.46 L599.58,422.32 L599.30,420.47 L599.30,420.04 L599.02,419.18 L599.16,418.47 L598.47,417.90 L598.88,417.33 L598.74,416.62 L597.49,415.34 L597.49,414.77 L597.07,413.77 L597.35,413.34 L596.93,412.77 L597.63,411.92 L597.49,411.06 L597.77,410.35 L600.84,408.92 L601.67,407.64 L601.67,407.07 L601.95,406.64 L603.63,406.21 L605.44,406.21 L609.07,405.64 L610.60,404.79 L612.55,403.93 L614.23,403.08 L617.57,401.94 L621.20,400.94 L621.90,400.51 L621.90,400.23 L622.59,400.09 L623.15,399.66 L625.10,399.37 L624.97,398.66 L624.27,397.81 L624.69,396.95 L623.29,395.95 L623.01,395.10 L623.29,394.38 L624.55,393.10 L623.99,392.53 L623.99,391.39 L624.13,390.11 L624.83,388.11 L626.64,385.26 L627.20,384.12 L628.03,383.84 L628.03,383.55 L628.17,383.41 L626.08,381.70 L625.94,380.99 L626.22,379.70 L626.08,378.85 L621.20,371.86 L620.78,370.87 L618.55,368.30 L618.55,368.02 L618.83,367.45 L618.55,366.88 L618.97,364.74 L618.83,364.31 L619.67,362.74 L619.67,361.32 L620.78,360.03 L620.78,359.61 L618.55,359.61 L616.88,359.32 L615.62,358.61 L610.88,357.18 L610.04,356.61 L608.79,356.04 L607.67,355.90 L605.30,354.62 L602.51,354.33 L600.28,353.19 L599.30,352.19 L598.33,351.62 L598.33,351.05 L597.77,350.63 L597.63,350.34 L596.79,349.77 L596.79,348.77 L595.54,347.63 L595.54,347.06 L595.12,346.49 L595.40,346.07 L595.40,345.64 L592.33,343.93 L592.05,343.36 L591.07,342.79 L591.63,342.36 L591.21,341.93 L590.38,341.36 L590.24,340.94 L583.82,337.80 L580.47,337.23 L577.41,337.09 L572.80,335.95 L571.97,335.38 L570.71,334.95 L563.18,333.24 L562.62,332.67 L561.65,332.53 L559.14,331.39 L554.95,330.25 L551.05,329.82 L548.68,329.82 L547.28,329.53 L546.44,329.10 L546.44,329.53 L546.03,329.68 L544.91,329.53 L543.79,329.82 L539.61,328.96 L538.08,328.39 L524.69,325.97 L511.99,324.69 L506.56,323.26 L503.07,321.98 L499.72,319.98 L498.19,319.56 L494.84,319.41 L493.17,318.99 L491.49,317.13 L491.35,316.13 L491.91,315.14 L491.77,314.85 L490.24,312.00 L481.45,308.72 L480.20,308.44 L478.52,307.44 L477.82,306.87 L477.68,306.30 L476.99,305.44 L473.64,302.45 L468.06,299.32 L465.69,298.32 L464.16,296.75 L463.46,296.32 L460.53,295.04 L457.60,293.04 L457.46,292.47 L456.35,291.33 L455.51,290.19 L453.42,288.91 L452.16,287.77 L451.60,287.06 L449.09,286.49 L445.75,286.49 L438.63,285.92 L428.59,284.78 L426.36,284.35 L421.48,282.64 L418.41,281.93 L408.23,278.65 L404.18,276.80 L402.65,275.80 L400.42,274.80 L399.72,273.52 L397.77,272.81 L397.49,272.52 L393.86,271.95 L389.12,272.23 L383.68,270.67 L379.78,270.10 L374.76,269.10 L371.41,268.81 L364.99,267.67 L361.09,267.53 L357.04,265.96 L355.23,266.39 L354.53,266.25 L355.09,265.82 L354.39,265.96 L353.42,265.68 L352.58,265.68 L347.00,264.54 L345.47,264.54 L343.79,265.25 L342.12,265.11 L341.00,265.39 L337.94,264.40 L337.66,263.97 L336.82,263.54 L335.98,262.40 L335.15,261.97 L334.73,261.26 L334.59,260.83 L334.31,260.26 L333.75,258.84 L334.03,258.55 L334.03,257.98 L334.17,257.70 L332.78,255.99 L331.94,255.84 L330.40,254.99 L330.13,254.56 L327.20,253.71 L326.50,253.14 L322.32,251.28 L320.50,250.14 L319.25,249.86 L316.74,248.15 L310.04,244.73 L308.93,243.44 L306.14,242.59 L302.37,240.02 L301.26,239.03 L300.28,238.60 L299.02,238.60 L298.74,238.17 L298.61,237.88 L298.74,237.17 L299.58,235.60 L298.88,234.75 L299.02,233.47 L298.47,232.18 L297.35,231.33 L297.07,230.62 L297.21,229.76 L296.93,229.48 L298.05,228.05 L298.88,227.62 L299.58,226.77 L299.86,225.48 L301.12,224.91 L302.37,223.77 L302.09,223.06 L302.23,221.78 L301.26,219.21 L301.53,218.79 L300.98,217.79 L300.00,217.08 L300.14,216.36 L299.16,215.22 L299.02,214.22 L299.30,213.65 L299.02,212.66 L298.61,212.09 L295.26,210.23 L292.89,208.10 L291.21,207.38 L290.52,206.53 L289.26,206.10 L288.70,205.53 L289.40,205.39 L291.07,204.39 L291.91,203.11 L293.17,202.11 L293.44,200.97 L293.17,200.40 L293.31,199.69 L292.75,198.55 L290.93,197.55 L289.82,196.41 L289.54,195.55 L287.87,193.70 L287.73,192.56 L286.75,191.28 L286.89,190.71 L286.61,189.57 L285.50,188.57 L285.22,187.57 L283.82,186.29 L283.96,186.00 L283.68,185.01 L282.57,184.29 L282.98,183.87 L282.85,183.72 L282.01,183.15 L282.01,182.73 L281.31,182.01 L280.33,181.58 L280.06,180.87 L279.36,180.30 L279.64,179.87 L277.82,178.73 L275.87,178.02 L275.03,176.88 L274.06,176.45 L269.87,174.74 L269.32,174.03 L268.34,173.46 L266.95,173.18 L265.55,172.46 L263.74,172.18 L262.20,171.75 L260.81,170.47 L260.95,169.75 L260.39,169.04 L255.65,166.76 L255.23,166.33 L253.00,165.91 L251.74,165.34 L249.65,163.91 L247.42,162.91 L246.86,162.06 L245.61,161.63 L245.19,160.92 L243.51,159.92 L243.24,159.49 L241.98,159.21 L241.00,158.64 L241.42,158.49 L241.14,157.78 L238.77,155.93 L238.35,155.07 L236.12,153.93 L235.29,151.51 L233.89,150.66 L233.61,150.09 L232.91,149.66 L231.10,148.80 L233.19,147.52 L232.91,147.23 L233.33,146.81 L233.47,146.09 L233.19,145.10 L231.24,143.96 L229.43,143.24 L227.75,141.68 L227.20,140.82 L223.99,138.97 L221.76,136.97 L220.50,136.55 L220.64,136.12 L220.36,135.83 L220.50,135.26 L219.67,134.69 L219.67,133.84 L219.11,133.12 L218.69,132.55 L218.97,131.56 L218.69,129.85 L217.15,128.85 L217.43,128.14 L215.62,127.28 L216.32,126.14 L216.74,125.14 L216.04,122.58 L215.20,122.15 L211.85,122.58 L210.74,122.29 L210.60,122.01 L211.58,121.15 L214.37,121.01 L215.20,120.58 L214.37,119.16 L212.69,116.88 L212.83,116.45 L212.41,115.59 L212.55,115.02 L212.41,114.74 L212.55,114.03 L211.72,112.17 L211.58,110.60 L211.16,109.89 L211.58,108.04 L211.30,106.90 L211.72,106.19 L211.44,105.47 L211.58,105.33 L211.02,104.62 L212.13,104.19 L214.37,103.91 L215.34,103.19 L216.32,102.91 L216.88,102.34 L220.36,100.48 L222.45,98.35 L222.73,97.63 L223.99,96.49 L224.13,95.92 L223.99,94.93 L224.13,94.36 L225.66,93.07 L225.80,92.79 L225.10,91.93 L225.10,89.94 L225.38,89.37 L225.10,88.80 L225.66,87.66 L225.80,86.52 L225.52,86.09 L225.66,85.52 L224.69,84.66 L225.24,83.81 L224.69,81.96 L224.97,81.67 L224.97,81.10 L224.41,80.96 L223.71,79.10 L221.90,78.25 L221.76,77.68 L221.48,77.39 L218.13,75.97 L216.88,74.83 L216.74,74.12 L216.04,73.55 L216.18,71.84 L216.88,70.98 L216.46,68.84 L214.78,68.13 L214.37,67.56 L213.81,67.13 L213.81,66.85 L213.25,66.28 L212.55,65.71 L209.76,64.57 L209.34,64.00 L206.83,62.71 L206.14,62.14 L205.86,61.29 L204.74,60.72 L204.74,60.15 L203.91,58.72 L204.18,58.44 L204.18,57.58 L205.86,56.01 L205.72,55.30 L204.74,54.30 L204.74,53.31 L203.77,52.31 L202.93,51.88 L200.70,51.45 L196.09,51.03 L195.54,50.60 L195.54,50.31 L193.17,49.46 L191.07,49.03 L187.73,48.18 L186.19,48.18 L183.68,48.89 L181.31,48.75 L181.45,48.60 L179.22,49.46 L178.52,49.89 L175.59,50.17 L173.22,50.88 L172.38,50.88 L171.97,51.17 L170.43,51.17 L170.57,51.17 L169.04,50.74 L168.48,50.31 L168.34,49.89 L167.64,49.32 L166.53,48.03 L163.74,46.89 L163.04,46.18 L162.90,45.47 L162.48,45.04 L161.23,44.90 L160.53,45.04 L158.44,44.61 L154.81,44.33 L154.53,44.04 L154.25,43.90 L154.67,43.61 L154.11,43.47 L154.11,42.62 L154.25,41.76 L154.11,41.62 L154.53,41.05 L154.53,40.34 L154.11,40.05 L154.11,39.34 L153.70,39.05 L150.91,38.63 L147.14,37.06 L146.03,36.20 L144.35,35.49 L143.65,35.35 L140.86,35.35 L136.82,34.49 L134.59,33.35 L133.05,32.07 L131.66,31.36 L129.99,30.93 L127.34,29.50 L123.99,28.65 L120.36,28.36 L112.97,27.08 L106.56,26.94 L102.79,26.51 L98.88,25.80 L95.96,24.94 L93.17,24.66 L90.10,24.80 L88.84,25.23 L87.59,25.23 L87.17,25.09 L87.31,24.66 L87.03,24.09 L85.77,23.52 L83.54,21.95 L79.92,20.67 L77.96,19.53 L73.36,17.82 L69.18,17.10 L68.76,16.82 L68.90,16.53 L68.06,15.96 L68.90,15.11 L68.34,14.11 L67.64,13.54 L63.46,13.11 L61.65,13.11 L59.83,12.12 L59.14,12.26 L58.02,11.69 L53.00,10.83 L53.14,10.55 L52.58,9.98 L51.19,9.69 L45.61,9.26 L45.75,9.41 L45.05,9.55 L42.82,9.69 L42.40,9.41 L43.10,8.98 L43.10,8.55 L41.98,8.55 L42.12,8.41 L39.61,8.27 L35.56,7.13 L34.87,6.70 L33.89,6.56 L29.57,3.71 L29.43,2.85 L29.57,2.28 L29.29,2.14 L29.29,1.57 L28.31,1.14 L27.20,1.14 L25.38,0.29 L20.08,0.43 L18.27,0.29 L15.34,0.57 L12.41,0.29 L9.90,0.43 L8.51,0.86 L5.16,0.43 L0.00,0.57 L3.63,0.14 L8.23,0.57 L11.02,0.29 L25.10,0.00 L26.50,0.43 L27.20,0.86 L29.57,1.28 L29.85,1.57 L29.71,2.28 L30.13,2.57 L30.13,2.85 L29.71,2.99 L30.13,3.71 L32.22,5.56 L35.84,7.27 L39.61,8.12 L42.12,8.27 L42.40,8.55 L42.12,8.55 L42.96,8.84 L43.38,9.12 L43.24,9.26 L44.35,9.55 L47.28,9.12 L49.65,9.55 L51.88,9.55 L53.56,10.26 L53.70,10.40 L53.42,10.83 L58.02,11.40 L59.83,12.12 L61.09,12.83 L61.65,13.11 L66.39,13.11 L67.64,13.40 L68.20,13.68 L68.34,14.25 L68.76,14.82 L68.76,15.54 L68.20,16.11 L68.62,16.25 L68.90,16.96 L73.22,17.82 L73.92,18.10 L75.17,18.39 L77.82,19.38 L78.38,19.95 L80.20,20.81 L81.73,21.24 L83.12,21.95 L85.50,23.66 L86.75,24.09 L87.17,25.09 L88.15,25.23 L88.98,24.80 L95.12,24.80 L99.16,25.94 L104.32,26.37 L106.00,26.80 L111.30,27.08 L117.85,27.79 L123.57,28.65 L126.64,29.50 L129.85,30.93 L131.10,31.21 L131.94,31.78 L133.33,32.21 L134.59,33.35 L136.26,34.35 L138.77,34.78 L140.59,35.35 L143.65,35.35 L145.61,35.92 L147.56,37.34 L151.46,38.48 L153.56,38.77 L154.11,39.20 L154.25,39.77 L154.67,40.34 L154.39,41.48 L153.97,42.19 L154.39,42.33 L154.11,42.76 L154.95,43.47 L154.11,43.90 L154.67,44.33 L157.74,44.47 L160.11,45.04 L162.34,45.04 L162.90,45.32 L163.18,46.32 L164.16,47.18 L166.39,48.03 L167.36,49.17 L168.06,49.74 L168.48,50.46 L169.46,51.03 L171.55,51.03 L174.48,50.03 L175.17,50.31 L176.01,49.89 L176.99,49.89 L181.17,48.60 L187.87,47.89 L193.17,49.17 L195.68,50.17 L195.82,50.60 L196.37,51.03 L198.88,51.03 L202.37,51.74 L203.77,52.31 L204.74,53.31 L205.02,54.16 L206.00,55.02 L205.72,56.16 L205.02,56.87 L204.04,58.15 L204.04,59.15 L204.74,59.72 L204.88,60.58 L205.30,61.00 L205.86,61.86 L207.25,62.86 L208.51,63.43 L210.46,64.71 L213.11,65.85 L213.67,66.42 L213.81,66.99 L214.64,67.84 L216.60,69.13 L217.02,70.70 L216.88,71.41 L216.32,71.84 L216.18,72.69 L216.32,73.55 L216.60,74.54 L217.02,74.83 L217.99,75.68 L221.62,77.39 L221.90,78.11 L223.57,78.68 L224.27,79.68 L224.55,80.39 L225.38,80.82 L225.52,81.10 L225.24,81.67 L225.38,82.24 L225.10,83.10 L225.24,83.81 L224.69,84.52 L225.52,85.38 L225.38,85.95 L225.66,86.52 L225.66,87.37 L224.97,88.65 L225.24,89.08 L224.97,89.79 L225.24,91.79 L225.66,92.79 L225.66,93.22 L224.13,94.21 L224.13,94.78 L224.41,95.35 L224.13,96.35 L223.01,97.35 L221.76,99.20 L220.36,100.63 L218.13,101.62 L216.46,102.91 L215.34,103.34 L214.64,103.91 L212.27,104.33 L211.44,104.76 L211.30,105.05 L211.85,106.04 L211.58,106.90 L211.72,107.18 L211.72,107.90 L211.16,109.89 L211.58,110.60 L211.44,111.60 L211.99,112.74 L211.99,114.45 L212.55,115.17 L212.27,115.45 L212.69,117.02 L213.53,118.59 L214.64,119.58 L214.92,119.58 L214.92,120.30 L215.34,120.87 L214.78,121.15 L212.97,121.01 L211.99,121.29 L211.02,121.86 L211.30,122.29 L215.48,123.57 L216.46,124.14 L216.60,125.14 L216.46,126.00 L216.18,126.57 L215.34,127.42 L217.02,127.85 L217.57,128.28 L217.29,128.71 L217.29,128.99 L218.55,129.99 L218.83,131.56 L218.83,132.70 L219.67,133.69 L219.80,134.83 L220.64,135.26 L220.36,135.97 L220.78,136.26 L220.78,136.55 L221.20,136.69 L222.18,137.69 L222.87,137.97 L223.99,139.11 L225.38,139.82 L226.64,140.68 L227.20,141.25 L227.48,141.96 L229.29,143.39 L233.19,144.95 L233.75,146.24 L233.19,147.23 L233.61,147.66 L231.24,148.66 L233.05,149.66 L233.47,150.37 L234.73,151.08 L236.54,154.36 L238.77,155.36 L238.91,155.93 L239.89,156.36 L240.86,157.21 L241.70,158.35 L241.42,158.78 L243.38,159.49 L244.63,160.35 L245.19,161.20 L246.03,161.63 L247.84,163.06 L249.37,163.63 L251.74,165.19 L252.58,165.34 L253.56,165.91 L255.37,166.19 L255.79,166.62 L258.02,167.47 L259.55,168.33 L260.81,169.04 L261.23,170.32 L262.48,171.75 L264.02,172.18 L265.83,172.46 L266.67,173.03 L268.90,173.75 L269.60,174.17 L269.87,174.60 L271.13,175.03 L272.80,176.03 L274.34,176.60 L275.59,177.74 L279.22,179.30 L279.36,180.16 L280.06,181.16 L281.03,181.58 L282.01,182.44 L282.01,183.01 L282.85,183.58 L282.98,183.87 L282.71,184.15 L283.68,185.01 L283.96,186.57 L285.36,187.86 L286.19,189.14 L286.75,189.57 L287.17,190.28 L286.75,191.28 L287.31,191.70 L287.73,192.42 L288.01,193.42 L288.70,194.98 L289.26,195.41 L289.68,196.27 L290.66,197.26 L291.91,197.83 L293.17,199.12 L293.86,201.11 L293.72,201.68 L291.21,204.53 L290.24,205.25 L288.98,205.53 L288.98,205.67 L289.96,206.24 L290.66,206.96 L292.89,208.24 L292.89,208.52 L295.40,210.38 L298.19,211.66 L298.88,212.23 L299.16,212.66 L298.88,213.94 L299.02,214.79 L300.00,216.08 L299.86,216.93 L301.26,218.22 L301.26,218.64 L301.12,219.64 L301.95,221.49 L301.95,222.78 L302.23,223.63 L301.39,224.77 L300.00,225.63 L300.28,226.20 L300.14,226.48 L297.21,229.48 L297.63,231.33 L298.61,232.18 L299.02,233.75 L298.88,234.75 L299.58,235.60 L299.44,236.46 L298.61,237.74 L299.16,238.17 L300.00,238.45 L301.26,239.17 L304.60,241.59 L306.14,242.45 L308.79,243.30 L310.46,244.87 L311.99,245.87 L315.90,247.72 L318.83,249.57 L325.80,251.57 L329.57,253.99 L331.52,254.85 L332.50,255.70 L333.89,255.99 L334.17,256.41 L334.17,256.84 L335.56,258.12 L335.29,259.69 L335.01,260.26 L335.43,260.69 L336.12,261.69 L336.12,261.97 L337.10,263.40 L338.49,264.25 L339.89,264.82 L340.86,264.97 L343.51,264.97 L345.05,264.54 L346.58,264.40 L351.05,265.11 L355.09,266.11 L355.65,265.82 L356.62,265.82 L360.95,267.53 L364.30,267.67 L369.18,268.53 L374.48,268.96 L377.55,269.81 L383.12,270.52 L389.26,271.95 L395.96,271.52 L397.63,272.09 L398.88,272.95 L399.58,273.52 L399.58,274.09 L400.14,274.66 L404.18,276.51 L407.11,278.22 L411.44,279.79 L421.20,282.50 L425.66,284.21 L427.62,284.64 L431.10,285.06 L434.31,285.63 L445.47,286.49 L448.95,286.49 L451.32,287.06 L452.72,288.48 L455.09,289.77 L457.04,292.19 L458.44,293.33 L459.00,294.18 L460.11,294.90 L462.62,295.90 L464.16,297.04 L465.13,298.18 L466.81,298.89 L467.22,298.89 L468.62,300.03 L473.92,302.45 L477.82,306.44 L477.96,307.01 L478.80,307.73 L480.47,308.58 L481.45,308.72 L485.91,310.43 L489.12,311.15 L490.24,312.00 L491.77,314.71 L491.21,316.28 L491.49,317.13 L492.19,317.56 L492.89,318.99 L495.68,319.70 L497.49,319.56 L499.30,319.98 L502.37,321.69 L503.49,321.98 L504.32,322.55 L511.72,324.83 L518.27,325.26 L530.13,326.82 L535.98,328.11 L538.35,328.25 L540.03,329.25 L543.79,329.53 L545.75,329.39 L546.30,329.82 L546.72,329.53 L548.95,329.82 L551.88,329.68 L555.37,330.10 L557.88,331.10 L559.14,331.24 L562.48,333.10 L565.97,333.67 L566.53,333.95 L571.55,335.09 L572.80,335.80 L576.85,337.09 L578.66,337.37 L580.61,337.23 L583.40,337.66 L588.98,340.22 L590.93,341.65 L591.49,341.79 L591.77,342.22 L592.19,342.22 L592.05,342.65 L592.47,343.36 L593.72,344.21 L594.14,344.78 L594.98,345.21 L595.82,345.92 L595.82,346.21 L596.09,347.21 L596.93,347.78 L596.79,348.49 L597.21,348.77 L597.07,349.20 L597.21,349.63 L598.19,350.34 L598.05,350.63 L598.47,350.91 L598.47,351.34 L599.02,351.91 L599.72,353.05 L600.70,353.19 L603.07,354.76 L605.86,355.19 L607.25,355.90 L608.93,356.33 L610.60,357.18 L612.13,357.90 L615.06,358.32 L616.46,359.18 L618.27,359.61 L618.55,360.03 L619.39,360.32 L620.64,360.03 L620.36,360.03 L620.50,361.03 L619.80,361.74 L619.94,362.46 L619.39,364.60 L619.39,365.02 L618.97,365.74 L618.83,367.02 L618.55,367.87 L618.97,368.87 L620.78,370.87 L621.76,372.86 L622.32,373.57 L624.13,376.71 L626.36,378.99 L626.50,379.28 L625.80,380.99 L626.08,381.56 L628.59,383.69 L628.31,384.12 L627.20,384.55 L626.78,385.40 L626.22,385.97 L624.97,387.97 L623.85,390.82 L623.85,392.53 L624.55,393.10 L623.43,394.10 L623.01,395.10 L623.43,395.95 L624.69,396.52 L624.69,397.23 L624.27,397.66 L625.24,399.09 L625.10,399.37 L622.45,400.37 L621.06,401.23 L617.85,401.80 L614.78,402.94 L612.13,404.36 L611.16,404.50 L608.93,405.93 L607.81,405.93 L606.83,406.36 L603.63,406.36 L602.23,406.93 L601.67,407.64 L601.26,408.64 L600.98,408.92 L598.05,410.35 L597.49,411.06 L597.63,411.77 L597.07,412.91 L597.49,414.34 L597.77,414.91 L597.77,415.34 L598.61,416.05 L599.30,417.05 L599.72,418.76 L599.58,420.04 L599.86,420.18 L599.72,420.61 L600.00,421.04 L599.58,421.75 L599.44,422.75 L599.44,423.18 L600.00,423.89 L599.72,424.46 L599.72,425.17 L600.14,425.60 L600.00,426.88 L599.58,427.45 L599.72,427.74 L599.30,429.02 L599.58,429.45 L599.30,429.73 L599.30,430.44 L598.74,432.01 L598.61,433.01 L599.58,434.72 L600.28,435.15 L600.70,435.86 L602.23,437.14 L602.37,437.86 L603.07,438.57 L603.35,439.28 L605.30,439.85 L605.86,440.28 L606.83,442.27 L607.67,442.84 L610.18,443.70 L612.27,443.84 L612.27,444.56 L612.97,445.55 L614.37,445.98 L616.88,447.26 L618.97,448.69 L618.97,449.26 L619.80,449.97 L620.64,450.26 L621.20,450.83 L620.92,452.11 L620.92,453.11 L619.94,454.25 L620.22,455.10 L619.53,455.53 L619.11,456.39 L619.25,456.96 L618.27,458.10 L618.41,458.38 L617.71,459.52 L616.60,460.66 L616.46,461.09 L616.46,461.66 L617.43,462.51 L618.69,464.37 L620.64,465.94 L620.50,466.93 L619.53,467.93 L616.74,470.07 L614.92,471.64 L613.25,472.49 L606.56,478.91 L602.79,480.19 L597.07,481.47 L596.65,481.33 L596.79,481.47 L591.49,483.47 L586.05,486.32 L577.13,490.17 L570.71,495.01 L567.50,499.00 L566.67,499.29 L566.25,500.14 L566.25,499.71 L566.81,498.86 L569.04,496.44 L569.32,495.58 L570.85,494.30 L570.15,492.73 L568.76,491.16 L566.95,490.02 L565.97,488.74 L566.39,488.17 L562.34,486.03 L557.46,485.46 L546.44,485.32 L541.14,484.46 L536.54,484.18 L521.48,483.89 L516.32,484.46 L511.44,483.75 L508.65,483.89 L503.77,483.04 L501.39,482.47 L499.44,481.33 L490.52,479.33 L487.03,478.05 L482.01,475.48 L478.38,474.34 L472.66,471.49 L470.01,470.35 L468.62,469.93 L468.48,469.78 L468.20,468.64 L465.41,468.64 L463.46,467.79 L462.90,467.93 L461.23,467.65 L460.53,467.22 L454.25,464.94 L442.40,461.52 L435.98,460.52 L428.73,460.09 L422.45,459.38 L414.78,459.09 L406.97,458.52 L401.95,456.81 L400.84,456.67 L394.28,454.82 L392.47,453.68 L391.63,453.68 L388.28,452.11 L385.50,451.54 L384.52,451.25 L376.99,450.40 L373.36,450.11 L372.25,450.40 L368.48,449.97 L366.25,450.11 L362.62,449.54 L352.58,449.26 L344.91,448.83 L340.31,449.26 L334.03,448.55 L332.91,448.69 L331.80,449.12 L329.29,449.26 L327.34,450.26 L321.90,451.11 L316.18,453.11 L313.25,453.39 L311.99,453.11 L309.62,453.39 L304.46,452.96 L302.09,452.25 L299.30,451.97 L298.88,451.68 L296.37,451.82 L293.72,450.40 L293.31,449.97 L290.93,449.26 L291.07,449.12 L291.07,448.97 L291.21,448.97 L290.93,449.26 L290.93,448.97 L291.63,449.54 L293.17,449.83 L294.84,450.54 L296.23,451.68 L297.49,451.68 L298.19,451.40 L299.30,451.54 L299.58,451.82 L301.53,452.11 L302.93,452.54 L309.07,453.25 L311.02,452.96 L313.81,453.39 L316.04,452.96 L321.06,451.54 L322.32,450.97 L324.97,450.68 L327.34,450.11 L330.68,448.26 L331.66,448.55 L333.75,448.55 L340.03,449.12 L343.38,448.83 L349.37,449.26 L362.48,449.54 L365.97,450.11 L368.90,449.97 L371.97,450.26 L373.36,450.11 L383.82,451.11 L387.31,451.82 L388.70,452.54 L391.77,453.53 L394.14,454.96 L399.86,456.67 L401.39,456.81 L405.58,458.38 L410.88,459.09 L421.76,459.52 L426.92,460.09 L435.29,460.66 L443.38,461.94 L451.19,464.08 L460.95,467.36 L464.16,467.93 L467.36,468.36 L468.20,468.64 L468.76,469.36 L470.29,470.78 L476.85,473.92 L481.03,475.20 L482.43,476.05 L484.24,476.62 L486.47,478.05 L488.98,478.91 L494.98,480.33 L496.23,480.47 L499.58,481.61 L501.39,482.61 L503.35,483.04 L507.81,483.75 L511.58,483.75 L515.90,484.46 L521.76,484.04 L529.43,484.32 L535.70,484.18 L541.70,484.75 L543.79,484.61 L546.16,484.75 L548.12,485.32 L556.35,485.46 L562.06,485.89 L566.39,485.75 L571.69,485.32 L575.87,485.32 L581.17,484.75 L583.40,485.03 L585.91,484.89 L587.59,485.18 L588.70,484.89 L595.40,482.04 L599.02,480.90 L602.23,480.19 L605.30,479.05 L606.69,478.19 L609.21,475.63 L611.02,475.20 L613.11,473.35 L614.09,472.92 L615.06,471.64 L616.74,470.35 L619.67,468.50 L620.78,468.36 L622.04,468.36 L623.15,468.93 L624.13,469.78 L628.73,471.35 L630.68,471.49 L632.36,471.92 L637.10,472.35 L640.03,472.92 L641.56,472.78 L644.07,473.63 L644.21,474.06 L645.19,474.20 L648.12,475.20 L650.77,475.48 L653.70,476.48 L657.18,476.62 L658.44,477.19 L661.79,477.91 L663.88,477.91 L665.41,478.34 L667.09,478.34 L673.92,479.62 L674.90,479.62 L678.38,480.19 L682.57,480.62 L686.05,481.47 L689.12,481.76 L695.68,482.90 L700.28,483.61 L708.79,484.32 L709.90,484.75 L709.90,484.89 L707.25,485.60 L705.58,486.46 L702.79,486.89 L699.72,488.03 L699.02,488.45 L698.74,489.03 L696.79,489.88 L694.42,491.16 L690.52,491.73 L687.73,492.59 L686.75,493.16 L685.36,493.59 L683.68,494.58 L675.03,498.29 L674.48,498.57 L673.92,499.43 L673.08,499.86 L671.55,501.57 L668.76,502.99 L667.09,503.99 L663.46,505.42 L662.76,505.42 L661.09,506.27 L659.69,507.41 L658.16,507.98 L658.44,508.27 L658.02,508.69 L656.90,508.98 L656.07,509.41 L655.51,510.12 L655.65,510.40 L655.65,510.55 L652.44,512.26 L652.16,512.69 L649.09,513.54 L647.70,514.25 L646.58,515.39 L645.47,516.96 L643.38,518.24 L643.10,518.67 L642.68,519.10 L642.54,519.67 L641.84,520.10 L641.84,520.67 L641.00,521.52 L640.73,522.66 L640.03,523.23 L639.61,524.09 L641.14,525.80 L642.82,526.94 L646.44,527.94 L647.42,528.36 L647.56,528.65 L646.72,529.36 L646.58,529.93 L645.19,530.50 L644.35,531.36 L643.51,531.78 L642.40,532.92 L641.70,534.06 L641.56,534.64 L641.84,536.35 L641.42,538.77 L641.70,539.34 L640.86,541.19 L640.73,542.19 L641.56,545.32 L642.40,547.18 L641.84,549.60 L640.45,551.31 L641.00,552.74 L641.42,553.45 L641.28,553.73 L639.61,554.87 L635.84,558.58 L635.56,560.15 L635.01,560.72 L635.15,561.00 L636.12,561.29 L638.63,563.43 L639.05,564.57 L638.91,566.56 L637.94,568.42 L644.07,571.41 L646.16,571.69 L647.42,571.41 L651.46,571.84 L654.81,573.69 L658.02,574.97 L661.09,576.11 L664.02,576.82 L668.06,576.68 L671.69,576.11 L674.48,575.97 L679.64,576.40 L684.94,576.25 L694.28,577.39 L696.51,577.39 L700.98,576.97 L703.21,577.11 L706.83,577.68 L707.53,578.25 L708.23,578.25 L710.46,580.25 L711.02,580.39 L711.58,580.96 L711.30,581.24 L711.99,581.96 L713.39,582.38 L714.23,583.38 L714.23,583.95 L714.09,584.38 L714.23,584.95 L716.18,586.23 L717.99,587.80 L718.55,589.65 L718.97,590.36 L719.94,591.08 L720.08,592.22 L720.50,592.50 L720.50,593.22 L722.04,594.36 L723.71,596.78 L723.99,599.49 L725.10,600.91 L725.38,602.34 L728.87,604.48 L729.99,604.62 L731.24,605.19 L732.36,605.19 L732.50,605.47 L735.01,606.61 L736.40,606.47 L737.24,605.90 L736.96,603.76 L737.38,603.05 L738.63,602.62 L740.73,602.34 L741.28,601.62 L742.54,601.20 L743.38,601.20 L745.19,602.19 L747.56,602.62 L748.81,603.34 L752.72,603.76 L757.88,603.34 L761.23,602.34 L765.55,602.05 L772.94,603.34 L783.40,603.05 L787.87,602.34 L794.14,603.05 L804.18,602.62 L816.18,603.19 L820.78,603.62 L823.15,604.05 L824.97,605.19 L825.52,606.33 L825.94,606.76 L827.20,607.47 L827.75,608.75 L831.24,610.46 L831.38,611.32 L833.19,613.03 L832.91,614.17 L834.59,615.31 L835.29,616.45 L835.15,617.02 L837.38,618.87 L838.08,620.15 L838.49,621.29 L838.21,622.01 L838.21,623.29 L839.33,624.57 L840.73,625.29 L843.10,626.00 L844.35,626.00 L846.44,627.14 L846.30,627.99 L847.28,627.99 L848.54,628.28 L849.51,629.13 L853.70,631.27 L858.16,632.55 L859.83,633.41 L861.23,633.84 L864.85,635.40 L866.53,636.55 L874.34,638.97 L875.17,639.40 L876.01,640.25 L876.43,641.96 L877.13,643.24 L877.13,643.67 L876.57,644.81 L876.43,646.52 L877.68,648.09 L879.22,649.52 L879.64,650.37 L879.36,651.23 L879.22,652.37 L880.47,653.22 L881.45,654.65 L881.45,655.93 L881.73,656.78 L882.98,658.21 L887.59,660.63 L888.84,662.49 L890.93,664.20 L891.35,665.05 L890.79,665.76 L888.84,667.62 L887.17,668.61 L886.19,669.90 L884.94,670.61 L882.57,671.32 L879.78,674.17 L879.64,674.46 L881.31,675.74 L881.87,676.60 L881.87,676.88 L881.73,677.59 L880.47,679.02 L879.64,679.45 L878.38,679.73 L878.24,680.02 L878.94,680.73 L878.80,681.16 L879.64,681.73 L879.64,682.16 L879.36,682.58 L877.82,683.44 L875.17,684.15 L872.25,684.44 L863.32,685.72 L862.20,686.43 L858.30,687.43 L856.07,689.14 L853.42,692.13 L853.42,692.42 L853.00,693.13 L853.00,694.27 L852.72,694.84 L852.72,695.13 L851.05,697.12 L851.19,697.55 L850.07,698.69 L849.93,699.26 L847.00,701.68 L846.03,703.53 L845.05,704.53 L841.42,709.24 L841.14,710.23 L841.70,711.66 L841.98,711.94 L846.44,714.22 L848.26,715.94 L852.16,718.64 L853.70,719.50 L855.93,721.78 L857.88,722.63 L860.67,723.49 L863.04,723.63 L867.22,724.77 L868.90,725.77 L869.46,726.77 L871.41,728.05 L874.34,728.05 L876.85,728.62 L879.78,728.62 L880.75,728.91 L881.45,729.19 L881.73,729.62 L882.01,732.18 L881.73,732.61 L881.59,734.46 L881.59,735.03 L882.57,736.46 L882.57,737.60 L882.43,738.74 L880.75,741.16 L880.61,741.88 L881.03,742.59 L880.89,743.02 L879.78,744.30 L879.78,745.01 L878.80,746.29 L878.66,747.58 L879.36,748.43 L880.61,749.14 L882.57,749.71 L883.54,751.14 L884.66,751.85 L884.66,752.14 L885.63,753.28 L888.15,755.27 L889.26,756.70 L890.38,759.12 L890.79,761.40 L890.52,762.40 L889.40,763.97 L888.28,766.39 L887.31,767.53 L886.75,768.81 L886.75,770.38 L886.33,771.81 L886.61,772.52 L886.33,772.81 L886.47,773.23 L886.75,773.66 L887.31,774.94 L888.70,775.94 L888.01,776.80 L886.61,777.37 L886.33,778.08 L886.33,778.79 L886.61,778.93 L886.89,779.65 L886.89,780.36 L887.31,781.64 L886.75,783.35 L886.89,784.64 L886.19,785.35 L886.05,786.20 L886.61,787.34 L886.47,788.20 L884.10,790.34 L882.71,793.76 L884.66,796.32 L884.52,798.18 L883.40,799.17 L883.26,800.03 L882.43,800.74 L880.33,804.30 L880.20,805.30 L880.47,806.01 L882.01,807.30 L884.52,808.15 L885.91,808.44 L888.84,808.44 L893.86,807.73 L896.37,807.87 L899.02,808.58 L901.95,809.01 L904.46,810.15 L909.21,811.86 L911.30,811.86 L915.76,812.71 L918.13,812.86 L920.92,813.85 L921.34,814.28 L921.20,814.57 L919.11,815.71 L918.41,816.56 L918.27,817.13 L917.71,817.56 L917.15,818.70 L917.85,819.84 L918.13,820.84 L918.69,821.27 L920.50,824.54 L920.92,825.68 L920.92,827.11 L921.48,827.54 L921.90,829.25 L922.73,830.53 L924.13,831.81 L924.41,832.67 L924.55,833.52 L924.13,834.95 L924.27,838.08 L924.13,838.80 L923.29,839.79 L922.59,841.79 L922.87,842.79 L923.29,843.50 L924.27,844.50 L925.52,845.50 L927.89,846.21 L929.29,846.35 L932.22,846.07 L935.01,845.35 L941.98,846.35 L947.00,847.49 L948.12,847.92 L948.95,848.92 L950.21,849.91 L950.91,851.05 L950.91,852.19 L950.21,853.34 L945.47,855.62 L943.79,856.76 L942.54,858.75 L941.42,859.46 L940.17,859.89 L938.63,860.89 L938.08,861.74 L935.70,862.31 L933.89,863.45 L932.91,864.31 L933.05,865.02 L932.78,865.45 L931.94,866.16 L931.52,866.88 L929.29,868.59 L927.20,871.58 L927.48,872.29 L928.45,872.86 L929.99,873.15 L932.36,874.14 L934.03,875.29 L935.01,876.71 L934.59,880.70 L935.98,882.70 L936.68,884.69 L936.40,885.55 L934.87,887.26 L934.31,888.11 L934.03,889.68 L933.47,890.68 L931.24,893.10 L930.68,893.24 L922.04,895.67 L918.69,895.81 L917.71,896.38 L916.18,896.52 L915.76,896.81 L915.62,897.23 L916.60,898.23 L916.60,899.37 L917.85,900.37 L920.64,901.65 L921.90,902.94 L924.97,903.36 L927.34,904.36 L929.71,904.65 L933.61,905.93 L934.45,906.36 L937.52,906.78 L939.33,907.64 L945.61,908.64 L949.93,908.35 L953.42,907.35 L955.51,906.50 L960.53,903.36 L965.69,901.80 L974.06,900.37 L975.73,900.23 L977.82,900.37 L980.33,901.08 L982.98,902.65 L983.96,903.51 L984.52,903.79 L987.03,904.08 L990.24,904.93 L991.91,906.07 L995.40,907.21 L996.37,907.92 L997.49,908.35 L997.77,909.21 L997.49,909.49 L998.47,910.06 L997.63,909.92 L997.35,910.35 L997.49,910.49 L996.65,911.20 L996.93,911.92 L995.96,912.06 L995.82,912.34 L995.82,912.63 L996.51,912.91 L998.05,914.20 L998.33,914.91 L998.05,915.62 L997.21,916.33 L996.23,916.62 L991.77,917.19" fill="none" stroke="#fc4c02" stroke-width="2" />
</svg>