<svg xmlns="http://www.w3.org/2000/svg" viewBox="0 0 1000 1000">
  <path d="M249.09,730.30 L249.37,727.43 L248.54,724.55 L251.60,707.30 L251.19,706.73 L247.70,705.00 L246.16,705.58 L238.77,695.23 L231.10,688.33 L227.06,694.08 L225.38,691.78 L217.43,696.95 L198.47,667.63 L192.33,654.40 L173.50,623.92 L164.57,607.25 L162.06,600.92 L159.14,595.74 L154.53,591.72 L152.30,585.39 L152.16,579.07 L151.74,577.34 L148.95,573.32 L140.45,573.89 L135.84,569.29 L127.34,556.07 L125.10,547.44 L120.64,538.24 L117.02,532.49 L113.25,516.96 L111.99,510.06 L110.74,500.29 L110.88,495.11 L109.62,484.76 L107.39,473.26 L107.11,468.66 L105.72,461.76 L103.49,447.38 L100.42,437.61 L100.00,435.31 L99.16,435.88 L98.61,437.61 L98.33,441.06 L94.28,453.13 L92.61,461.76 L89.82,469.24 L80.75,485.91 L77.68,489.36 L73.78,484.76 L68.06,476.71 L64.85,468.09 L62.20,456.01 L56.35,440.48 L52.86,434.73 L49.37,431.86 L42.82,428.41 L42.54,425.53 L45.61,418.06 L47.56,409.43 L51.32,402.53 L55.37,398.50 L59.27,391.60 L65.97,376.08 L69.18,370.33 L82.01,351.35 L91.91,332.95 L96.37,320.30 L100.56,298.45 L102.37,291.55 L105.86,285.80 L116.32,284.65 L121.34,280.05 L123.85,274.87 L128.73,257.04 L130.26,252.44 L138.49,237.49 L140.45,232.32 L141.00,225.99 L140.73,221.97 L139.89,217.37 L141.28,212.19 L142.96,208.17 L145.61,198.96 L146.58,192.06 L149.79,178.26 L149.93,170.79 L149.37,163.89 L150.21,156.41 L151.88,151.24 L158.16,142.61 L167.36,136.86 L174.34,127.66 L180.47,122.48 L183.96,121.91 L186.75,120.18 L192.47,110.98 L198.33,101.21 L199.58,99.48 L203.77,98.91 L207.81,100.63 L212.27,105.23 L213.67,110.41 L218.27,116.73 L223.01,120.18 L240.86,121.33 L257.88,127.08 L263.18,131.11 L268.76,133.99 L280.20,136.86 L284.38,139.74 L286.61,142.61 L287.31,142.61 L289.82,139.74 L291.07,137.44 L292.75,136.29 L299.16,138.59 L301.95,138.59 L304.74,136.86 L309.62,132.26 L321.06,117.88 L331.66,98.33 L336.96,90.28 L339.89,88.56 L343.38,89.13 L346.16,87.98 L347.70,86.26 L354.81,75.33 L358.16,75.91 L359.83,75.33 L363.60,76.48 L368.34,75.91 L373.08,70.73 L376.15,69.01 L383.82,72.46 L387.45,70.73 L391.35,66.71 L398.61,61.53 L402.79,56.93 L405.72,54.63 L414.09,50.60 L424.41,49.45 L428.17,47.15 L437.10,39.68 L446.16,34.50 L457.46,25.30 L466.95,18.98 L471.97,16.68 L486.05,7.48 L494.00,4.03 L503.21,1.15 L508.37,1.73 L525.94,0.00 L526.50,0.58 L526.50,4.03 L526.22,7.48 L526.78,10.35 L527.89,11.50 L532.36,14.95 L536.82,16.68 L545.61,21.85 L549.23,27.03 L552.72,28.75 L556.76,32.20 L557.60,31.63 L563.88,33.93 L573.78,39.68 L581.87,39.10 L587.31,36.23 L591.49,37.38 L597.35,38.53 L599.72,37.95 L601.81,38.53 L614.78,39.68 L624.83,41.40 L628.45,43.13 L636.54,43.13 L644.21,39.68 L658.44,32.20 L666.67,23.00 L677.27,16.68 L676.99,18.40 L677.13,20.70 L678.24,27.03 L679.22,30.48 L679.50,35.65 L681.03,41.40 L681.87,47.15 L683.12,50.60 L684.24,55.20 L685.63,63.25 L686.33,64.98 L686.89,69.01 L690.79,71.88 L694.84,70.73 L694.98,73.03 L696.37,75.33 L698.19,77.06 L703.35,76.48 L718.13,73.03 L723.85,69.58 L734.87,65.55 L738.49,63.25 L742.12,63.83 L745.61,63.25 L747.28,64.40 L747.56,66.13 L748.54,67.86 L749.09,74.76 L750.91,81.66 L753.42,83.96 L757.60,84.53 L779.64,78.21 L784.24,75.91 L795.40,75.33 L803.21,75.91 L807.11,77.63 L812.55,77.06 L816.60,74.76 L822.18,75.91 L826.50,75.33 L835.29,75.91 L838.91,74.18 L846.44,70.16 L850.49,73.03 L853.70,79.93 L856.21,88.56 L861.65,104.66 L869.04,124.21 L871.69,131.68 L872.52,135.14 L876.15,145.49 L878.10,149.51 L891.77,188.04 L895.68,197.24 L901.81,215.07 L905.30,227.72 L911.02,242.09 L918.97,259.92 L944.07,332.95 L953.28,355.38 L958.16,372.05 L959.97,376.08 L960.67,384.13 L964.57,394.48 L980.20,431.28 L995.12,472.69 L999.86,487.06 L1000.00,488.79 L999.86,491.09 L985.91,512.36 L975.59,523.29 L957.60,545.14 L942.96,560.67 L919.94,588.84 L903.07,611.27 L888.28,627.95 L885.36,629.67 L881.59,629.67 L878.80,631.97 L866.25,646.92 L854.81,658.42 L829.85,690.05 L819.94,698.68 L806.56,711.90 L791.35,733.76 L786.19,737.21 L786.47,737.78 L786.33,739.51 L778.80,746.41 L770.01,756.76 L753.14,780.91 L738.49,796.43 L730.68,806.21 L727.20,809.66 L717.99,820.59 L706.28,833.24 L692.19,852.21 L685.36,858.54 L670.85,873.49 L660.25,880.39 L655.51,884.42 L633.19,897.07 L616.88,904.54 L609.76,906.84 L596.93,907.99 L594.70,906.84 L590.52,900.52 L587.73,901.09 L579.64,909.72 L568.20,915.47 L556.76,915.47 L550.21,918.92 L538.63,920.64 L524.69,929.84 L519.94,930.99 L515.20,929.84 L509.21,926.97 L503.77,927.54 L499.44,930.42 L494.28,931.57 L488.84,930.99 L483.12,933.29 L472.38,940.20 L466.81,939.62 L461.92,937.32 L456.90,936.17 L451.19,937.90 L449.37,940.20 L444.91,943.65 L438.77,942.50 L424.41,949.40 L418.83,947.10 L413.25,946.52 L403.91,950.55 L401.39,950.55 L394.00,945.37 L390.10,944.22 L379.78,943.07 L373.78,935.02 L367.78,932.72 L365.97,936.17 L364.16,948.25 L358.86,952.85 L354.95,956.87 L352.30,964.35 L350.07,967.22 L340.59,972.97 L327.20,975.27 L321.90,975.27 L307.53,980.45 L278.80,987.35 L271.97,987.92 L261.23,991.37 L236.54,997.70 L225.80,999.42 L216.46,1000.00 L188.42,999.42 L165.13,994.82 L141.98,985.05 L114.50,968.37 L110.04,970.10 L95.40,958.02 L86.19,949.97 L70.43,932.14 L56.07,913.74 L32.78,881.54 L29.15,874.64 L27.06,868.32 L23.43,861.99 L22.18,860.26 L18.97,859.11 L17.57,856.81 L19.94,852.79 L24.13,847.61 L27.20,842.44 L33.47,828.64 L39.75,811.39 L42.12,806.79 L45.05,802.19 L53.28,786.66 L57.32,781.48 L58.30,779.18 L60.67,770.56 L63.74,753.88 L67.78,745.83 L67.78,745.26 L64.57,734.33 L58.30,710.75 L55.79,703.28 L51.74,696.95 L47.84,693.50 L45.61,688.90 L39.89,675.10 L30.26,657.27 L23.57,646.35 L13.81,626.80 L11.02,622.20 L1.81,611.27 L0.00,604.37 L0.00,601.50 L0.56,599.19 L2.79,594.59 L5.86,592.29 L7.95,593.44 L16.74,587.12 L24.69,583.67 L32.22,579.07 L33.89,576.77 L34.87,574.47 L35.01,571.59 L34.87,569.29 L33.61,564.69 L31.10,558.94 L9.76,523.86 L3.63,508.91 L2.93,502.59 L2.93,494.54 L4.32,487.64 L6.28,481.31 L8.09,472.69 L15.62,435.31 L18.13,427.26 L21.62,420.93 L26.64,414.03 L28.87,408.28 L32.91,407.13 L45.19,408.86 L48.40,408.28 L51.32,403.11 L54.11,400.81 L57.18,395.63 L59.41,391.60 L66.81,374.35 L78.80,355.95 L90.66,332.37 L93.31,324.32 L94.00,323.17 L101.26,293.27 L103.63,289.82 L117.15,288.10 L122.45,283.50 L125.10,287.52 L125.24,290.40 L123.43,302.47 L122.32,305.35 L119.53,310.52 L114.92,317.42 L114.50,319.72 L110.46,334.10 L108.93,344.45 L108.23,355.95 L108.37,358.83 L109.76,369.18 L111.16,377.80 L114.23,392.75 L115.48,401.38 L116.18,403.11 L118.55,403.11 L130.54,395.63 L134.59,396.78 L136.96,403.11 L138.08,404.26 L148.40,398.50 L162.06,388.73 L176.43,383.55 L180.20,383.55 L184.80,387.00 L185.22,387.58 L186.47,393.90 L187.59,394.48 L192.33,394.48 L194.28,393.33 L196.09,391.60 L200.14,385.28 L202.37,380.68 L208.51,365.15 L212.41,356.53 L217.71,347.33 L221.62,343.88 L224.97,342.15 L231.66,336.40 L233.89,333.53 L236.96,327.77 L240.17,320.30 L248.12,309.37 L250.21,310.52 L254.53,308.80 L257.88,310.52 L265.55,323.75 L266.53,323.75 L269.87,320.87 L279.22,297.30 L282.43,287.52 L286.61,279.47 L289.12,280.62 L292.75,286.37 L297.63,285.80 L301.12,281.77 L301.67,282.35 L303.35,285.22 L305.30,292.12 L314.78,312.82 L321.34,325.47 L328.45,336.98 L334.03,353.08 L341.28,368.60 L341.56,369.75 L342.40,369.18 L340.45,370.33 L337.80,374.35 L337.52,376.65 L334.87,378.38 L332.91,382.40 L328.59,388.15 L326.78,391.60 L325.94,395.05 L321.34,403.11 L317.57,414.03 L316.46,415.76 L314.50,414.61 L312.83,415.76 L308.51,419.78 L306.56,422.66 L302.51,436.46 L300.28,437.61 L299.44,439.33 L297.49,441.06 L295.40,445.08 L293.72,447.38 L288.98,448.53 L286.33,447.96 L286.05,449.68 L284.94,451.98 L280.75,451.98 L273.64,459.46 L271.13,464.06 L264.44,485.34 L262.48,501.44 L263.04,512.36 L264.02,515.24 L269.18,522.14 L272.52,528.46 L275.59,537.09 L277.82,541.12 L278.80,545.72 L281.45,553.77 L284.66,560.67 L291.77,572.74 L294.28,576.19 L296.23,580.79 L300.14,587.12 L302.51,592.87 L306.14,598.04 L311.72,608.97 L312.27,613.57 L314.64,622.20 L317.02,628.52 L320.08,634.85 L326.64,653.25 L331.24,660.15 L333.19,661.87 L332.50,665.32 L330.82,668.20 L330.40,671.08 L330.54,672.23 L335.01,682.00 L335.70,689.48 L344.21,699.25 L348.54,711.33 L352.44,724.55 L357.88,735.48 L361.65,749.28 L354.67,759.63 L352.30,765.96 L338.63,798.16 L336.12,805.64 L335.01,807.36 L333.61,806.79 L333.19,805.06 L333.05,802.19 L333.47,800.46 L337.94,790.11 L338.35,785.51 L335.15,779.18 L332.22,775.16 L329.15,769.41 L327.06,764.23" fill="none" stroke="#fc4c02" stroke-width="2" />
</svg>