<svg xmlns="http://www.w3.org/2000/svg" viewBox="0 0 1000 1000">
  <path d="M621.02,946.07 L617.90,940.07 L611.67,930.34 L610.11,927.34 L610.11,922.10 L607.92,917.60 L604.49,913.86 L587.34,914.61 L559.89,912.36 L548.97,913.86 L534.62,922.10 L515.91,930.34 L494.70,936.33 L484.72,941.57 L477.85,946.82 L472.24,953.56 L470.37,953.56 L455.40,948.31 L447.91,944.57 L445.10,942.32 L443.23,938.58 L442.92,934.83 L443.54,929.59 L444.48,925.84 L444.17,923.60 L438.86,916.85 L428.88,919.10 L421.40,917.60 L409.54,904.87 L386.15,885.39 L380.85,877.90 L375.86,871.91 L302.56,797.00 L277.60,775.28 L257.02,753.56 L243.29,743.82 L240.17,738.58 L239.55,734.83 L239.55,727.34 L234.25,721.35 L229.57,719.85 L216.78,720.60 L213.66,722.10 L208.05,726.59 L200.87,725.84 L192.76,731.09 L188.71,731.09 L186.84,731.09 L174.05,719.10 L168.75,713.86 L152.53,687.64 L139.74,671.16 L129.13,660.67 L120.71,653.93 L97.63,637.45 L91.39,630.71 L80.47,615.73 L69.25,605.99 L58.95,598.50 L51.15,590.26 L44.29,579.03 L39.30,564.04 L35.56,555.06 L27.76,544.57 L16.22,534.83 L2.18,530.34 L0.62,528.84 L0.00,526.59 L1.25,522.85 L3.12,513.11 L6.24,504.12 L7.49,502.62 L20.59,492.88 L29.94,483.90 L41.80,471.16 L49.28,460.67 L72.68,441.95 L98.57,412.73 L101.68,408.24 L110.73,390.26 L122.27,359.55 L124.77,354.31 L128.82,350.56 L133.50,349.06 L151.90,349.81 L160.32,347.57 L166.56,343.82 L173.11,334.83 L187.46,306.37 L208.36,284.64 L210.23,280.90 L211.79,275.66 L210.23,262.17 L210.54,256.93 L214.60,251.69 L220.21,241.20 L222.40,236.70 L223.96,229.21 L226.45,220.97 L231.44,209.74 L232.06,204.49 L232.06,199.25 L231.13,186.52 L231.44,182.02 L233.00,176.78 L235.81,172.28 L239.86,167.79 L251.72,158.80 L266.06,155.81 L276.98,149.06 L291.95,140.82 L312.54,135.58 L327.82,122.85 L336.87,110.86 L340.30,107.87 L344.35,106.37 L350.28,106.37 L362.13,109.36 L367.44,112.36 L373.67,119.85 L387.71,128.84 L393.64,131.09 L406.11,132.58 L433.56,134.08 L460.07,139.33 L514.66,152.81 L524.33,156.55 L531.50,161.05 L537.43,162.55 L541.17,160.30 L547.41,154.31 L570.80,152.06 L586.71,146.07 L593.26,141.57 L600.75,139.33 L613.85,128.84 L620.71,121.35 L626.64,113.11 L633.50,104.87 L640.99,98.13 L652.21,86.14 L655.96,84.64 L664.07,85.39 L669.99,83.90 L675.30,80.90 L688.40,70.41 L694.64,69.66 L718.34,74.91 L722.40,73.41 L733.94,65.17 L737.99,65.17 L752.34,67.42 L758.89,67.42 L762.94,65.92 L799.44,41.95 L809.73,38.20 L832.19,32.96 L850.90,30.71 L866.50,26.22 L906.74,10.49 L914.54,8.99 L927.01,9.74 L949.78,0.00 L954.15,1.50 L956.96,5.24 L959.14,11.99 L959.45,30.71 L958.20,47.94 L958.52,54.68 L957.89,56.93 L956.33,77.90 L955.40,86.14 L955.08,96.63 L955.71,101.12 L955.08,107.87 L955.71,110.11 L956.96,110.86 L960.07,111.61 L986.90,110.11 L991.27,111.61 L992.83,113.11 L992.51,116.85 L993.14,119.10 L997.82,124.34 L999.06,126.59 L999.06,133.33 L997.82,149.06 L997.82,153.56 L998.44,159.55 L999.69,168.54 L1000.00,184.27 L998.75,193.26 L997.82,195.51 L992.83,201.50 L986.28,203.00 L961.01,203.00 L958.20,205.99 L949.47,210.49 L947.29,214.23 L945.73,218.73 L943.54,237.45 L943.54,268.91 L944.17,279.40 L939.80,320.60 L938.24,338.58 L937.31,358.80 L936.37,363.30 L937.62,382.77 L936.06,408.24 L935.75,426.22 L934.81,428.46 L935.12,429.21 L934.81,438.20 L935.12,450.19 L934.19,451.69 L934.19,454.68 L935.75,465.92 L933.87,473.41 L934.19,481.65 L933.56,485.39 L933.87,488.39 L933.25,495.88 L933.56,498.13 L932.63,505.62 L931.69,507.12 L928.57,510.11 L920.77,510.11 L918.59,511.61 L917.65,516.10 L915.16,522.10 L916.72,530.34 L919.84,540.07 L919.53,543.07 L918.59,544.57 L905.80,557.30 L898.94,561.80 L887.71,574.53 L881.16,579.78 L870.87,583.52 L855.27,600.00 L830.32,615.73 L822.21,622.47 L784.15,662.17 L731.44,729.59 L729.57,734.83 L729.88,748.31 L726.76,752.81 L722.08,758.05 L720.21,763.30 L718.65,769.29 L679.35,812.73 L658.76,832.21 L654.09,837.45 L647.22,847.94 L646.60,850.19 L646.60,852.43 L647.85,855.43 L652.84,862.92 L651.59,868.16 L651.59,870.41 L653.77,875.66 L654.40,879.40 L654.40,888.39 L655.02,894.38 L655.33,900.37 L654.71,910.11 L649.72,913.11 L644.42,913.86 L615.10,911.61 L609.79,913.11 L608.55,914.61 L609.79,922.10 L609.79,925.84 L610.73,927.34 L615.72,934.83 L624.14,949.81 L638.80,972.28 L645.98,979.78 L657.83,995.51 L658.45,997.75 L655.02,1000.00 L653.46,999.25 L650.34,997.00 L644.42,989.51" fill="none" stroke="#fc4c02" stroke-width="2" />
</svg>