<svg xmlns="http://www.w3.org/2000/svg" viewBox="0 0 1000 1000">
  <path d="M852.95,983.52 L853.73,982.99 L856.18,982.15 L855.83,981.42 L854.87,980.26 L855.31,979.95 L857.58,978.90 L857.93,978.27 L857.67,976.59 L857.75,976.17 L856.97,975.65 L855.22,973.97 L855.22,972.71 L854.52,969.35 L854.87,968.72 L855.57,968.51 L861.34,968.09 L864.31,968.19 L869.47,967.88 L872.53,968.09 L874.89,968.51 L876.46,969.03 L878.30,969.35 L880.75,970.08 L882.41,971.13 L884.33,971.66 L885.47,971.34 L888.53,970.08 L890.63,969.77 L894.56,969.35 L899.28,969.35 L903.83,969.14 L905.40,969.24 L908.99,970.08 L910.65,970.50 L911.26,970.82 L910.82,970.92 L909.60,970.61 L906.54,970.29 L904.18,969.77 L903.57,969.45 L903.74,968.93 L904.53,967.88 L904.79,966.93 L903.83,966.20 L903.74,965.88 L904.35,965.36 L906.19,964.41 L906.54,963.89 L908.29,962.21 L911.79,960.21 L912.75,960.00 L912.83,959.79 L912.83,959.48 L912.05,958.85 L911.87,958.43 L912.40,957.90 L912.75,957.80 L915.19,957.69 L918.87,957.90 L927.87,959.16 L931.46,959.58 L932.59,959.90 L935.30,960.21 L937.40,960.42 L942.12,960.00 L950.95,960.53 L953.93,960.53 L955.41,960.32 L956.72,959.69 L956.90,959.48 L956.29,958.11 L956.02,957.06 L955.59,955.91 L954.97,955.07 L950.52,952.66 L947.46,951.19 L942.56,948.14 L940.29,947.20 L935.04,944.57 L931.37,941.84 L926.12,939.85 L924.55,938.69 L923.50,937.75 L919.74,935.44 L917.73,934.71 L913.71,933.55 L910.12,932.19 L909.60,931.66 L909.42,930.09 L909.16,929.67 L907.59,929.35 L905.14,929.14 L893.51,926.83 L888.79,925.47 L880.92,922.53 L879.35,920.74 L878.65,919.06 L877.78,917.80 L877.69,917.49 L875.24,912.77 L873.32,909.83 L872.88,908.67 L871.83,906.99 L870.43,904.05 L869.65,903.42 L868.42,902.90 L868.07,902.48 L867.02,899.96 L866.67,899.33 L865.71,898.49 L864.49,897.75 L863.79,897.02 L863.70,896.28 L863.53,896.18 L863.35,895.44 L862.30,893.76 L861.69,892.50 L861.25,892.19 L861.34,891.45 L861.16,890.93 L860.38,889.88 L855.66,886.42 L851.55,885.26 L848.40,884.21 L843.15,881.59 L839.74,880.33 L838.43,879.59 L837.38,877.91 L837.30,876.44 L837.47,876.02 L837.30,875.39 L838.00,873.61 L838.17,872.35 L838.70,871.61 L838.78,870.98 L839.48,870.25 L839.83,869.62 L839.92,869.20 L839.74,868.99 L835.81,868.47 L832.66,868.78 L831.26,869.20 L829.87,870.14 L829.25,871.72 L828.82,872.03 L827.68,874.03 L827.07,874.34 L825.67,874.76 L823.75,875.08 L823.92,875.08 L823.40,875.50 L822.70,876.44 L822.52,877.49 L822.17,877.60 L821.65,877.60 L817.45,876.13 L815.00,875.50 L813.69,873.71 L808.88,869.83 L806.17,867.31 L803.64,863.01 L799.53,858.91 L798.22,857.13 L796.91,854.61 L795.16,852.09 L792.01,849.15 L791.92,848.73 L791.40,848.20 L791.22,847.58 L791.40,846.84 L792.62,845.37 L794.28,842.75 L795.24,841.70 L795.51,841.17 L795.42,840.86 L796.73,839.91 L798.92,839.49 L800.75,839.60 L801.54,839.91 L803.55,839.70 L804.42,838.97 L804.51,838.86 L804.34,838.76 L804.86,838.23 L805.82,837.71 L807.48,837.29 L811.07,837.60 L811.51,837.81 L811.33,837.81 L811.16,837.71 L813.52,837.92 L814.48,837.50 L814.30,837.50 L814.57,837.08 L816.14,836.97 L816.23,836.66 L819.72,835.82 L820.34,835.29 L822.00,834.45 L822.70,834.24 L824.79,834.14 L824.62,833.93 L823.66,833.61 L823.05,833.09 L822.70,832.25 L822.70,831.41 L822.43,830.57 L820.86,829.20 L820.34,828.15 L819.72,828.15 L817.28,827.00 L815.53,827.21 L814.48,827.21 L812.90,825.95 L813.08,825.95 L813.08,825.95 L812.47,825.74 L812.12,825.22 L812.12,825.11 L811.77,824.80 L812.20,824.59 L809.93,824.69 L808.27,824.06 L807.83,823.43 L808.45,822.70 L809.76,821.75 L811.33,820.18 L814.92,819.02 L817.54,818.39 L818.41,817.97 L820.07,817.55 L821.04,817.03 L823.57,817.03 L826.72,816.50 L827.68,816.19 L828.82,815.45 L829.95,813.98 L830.04,813.56 L829.52,812.93 L827.77,811.78 L826.89,810.94 L825.84,810.20 L825.76,809.99 L826.28,809.57 L826.46,808.63 L826.72,808.31 L826.02,807.58 L825.93,807.05 L825.58,806.74 L826.11,806.53 L826.02,805.58 L824.27,803.07 L824.18,802.54 L822.52,800.76 L822.61,800.44 L822.26,800.02 L822.35,799.50 L821.30,798.34 L821.21,797.29 L820.51,796.56 L820.07,796.24 L819.99,795.61 L819.72,795.09 L819.72,794.35 L819.81,794.35 L819.81,794.46 L819.64,794.04 L819.72,793.41 L819.46,792.67 L819.72,791.62 L819.64,790.57 L818.94,790.78 L818.15,790.47 L817.98,790.15 L817.36,790.05 L816.93,789.63 L816.93,789.31 L816.75,789.00 L816.05,788.79 L815.18,788.89 L814.48,789.31 L811.86,789.73 L807.57,789.31 L805.74,788.58 L803.29,787.11 L802.76,787.11 L802.50,786.90 L802.50,786.69 L800.93,786.27 L800.84,786.06 L799.70,785.64 L798.92,785.64 L798.22,784.80 L797.34,784.59 L796.12,784.06 L795.24,783.43 L791.75,781.65 L790.17,781.23 L789.47,781.55 L788.60,782.18 L787.46,783.43 L783.97,786.48 L778.72,789.52 L777.32,790.78 L776.18,792.36 L775.31,792.78 L773.39,792.46 L770.68,790.36 L770.68,790.05 L770.50,789.84 L770.68,789.42 L770.59,789.21 L770.85,789.00 L770.85,789.10 L770.85,788.47 L770.50,787.53 L770.24,787.32 L767.18,785.74 L766.92,785.43 L765.34,784.59 L764.91,784.17 L764.99,783.96 L763.68,783.22 L760.80,780.60 L756.51,777.66 L753.02,775.77 L751.36,775.25 L748.12,773.57 L719.71,764.75 L717.70,764.33 L707.90,762.86 L703.71,761.70 L698.72,759.50 L690.42,755.09 L685.43,753.62 L683.34,753.10 L682.11,752.99 L681.33,752.78 L680.36,752.05 L679.49,751.00 L679.05,749.32 L677.04,748.06 L674.33,746.80 L672.06,746.48 L669.70,746.38 L668.39,746.59 L667.16,746.90 L666.20,747.01 L665.24,746.48 L660.08,745.01 L658.86,744.38 L656.23,743.23 L648.37,740.60 L642.86,736.93 L639.27,734.10 L638.75,733.47 L634.03,730.74 L632.28,729.27 L631.67,728.53 L631.32,727.69 L631.23,726.75 L631.49,725.49 L631.40,724.96 L630.88,723.91 L629.83,723.07 L627.99,722.23 L626.95,721.92 L622.05,721.71 L620.30,721.18 L619.51,720.66 L618.73,719.71 L617.68,718.98 L615.49,718.14 L611.30,713.52 L608.94,711.32 L608.24,710.27 L605.35,708.27 L601.50,707.54 L597.31,707.33 L594.25,707.85 L589.35,709.11 L584.46,709.22 L584.63,709.22 L584.46,708.90 L584.81,708.48 L584.72,708.06 L584.37,707.75 L584.11,707.01 L584.19,706.59 L583.76,706.17 L575.63,704.91 L573.61,704.49 L569.77,702.81 L567.23,701.13 L563.73,700.08 L561.99,699.03 L560.76,698.61 L559.10,698.30 L555.95,698.30 L549.83,697.67 L546.51,697.98 L545.38,697.88 L543.45,697.04 L543.45,696.93 L543.71,696.93 L541.97,695.36 L541.70,694.94 L540.04,694.31 L537.24,692.74 L536.11,691.37 L535.93,690.85 L536.02,690.32 L535.76,688.75 L535.67,686.96 L535.41,686.54 L535.32,685.70 L535.41,684.76 L535.15,684.34 L535.23,683.92 L534.97,682.97 L535.32,681.92 L537.86,679.40 L539.87,678.35 L541.09,676.99 L543.10,675.41 L543.45,674.99 L544.06,674.68 L544.33,674.36 L544.33,673.84 L544.50,673.53 L544.50,673.32 L545.90,672.27 L546.51,671.53 L547.21,670.27 L547.21,669.96 L547.82,669.54 L548.17,668.80 L548.35,667.96 L548.26,667.65 L548.44,666.81 L549.22,665.65 L549.66,665.23 L549.83,665.02 L549.66,664.81 L550.10,664.50 L549.92,664.29 L550.45,663.66 L550.62,662.82 L550.36,662.29 L550.53,661.98 L550.53,661.14 L551.32,660.19 L551.06,659.14 L550.27,657.99 L550.18,657.67 L550.62,657.04 L551.58,656.20 L552.63,655.89 L554.55,655.68 L555.34,655.36 L555.95,655.36 L557.35,654.73 L558.14,654.21 L558.40,653.68 L559.36,652.95 L558.66,652.53 L558.23,651.80 L557.96,651.59 L557.96,651.06 L558.58,650.12 L558.40,649.49 L557.00,648.54 L554.38,648.02 L552.72,647.07 L551.15,646.65 L550.53,646.13 L548.87,645.50 L548.44,645.18 L548.35,644.97 L547.39,644.34 L545.99,643.71 L543.45,643.19 L538.91,643.82 L536.37,644.66 L534.45,645.50 L532.61,646.86 L530.16,648.44 L528.15,649.17 L526.93,649.49 L523.87,649.28 L520.55,648.65 L519.50,648.12 L517.57,647.70 L515.39,646.76 L513.90,646.34 L511.89,645.50 L511.10,645.50 L510.40,645.29 L509.44,644.34 L507.61,643.29 L507.08,642.66 L506.47,641.51 L506.38,640.77 L506.47,640.56 L507.78,640.04 L510.75,639.72 L511.89,639.41 L515.21,638.15 L516.44,637.20 L517.49,635.84 L517.66,635.42 L517.57,634.89 L517.66,634.26 L518.80,632.79 L519.06,632.06 L518.45,630.07 L518.10,629.75 L517.84,628.91 L517.92,626.50 L517.84,626.08 L517.40,625.24 L517.49,624.92 L517.14,624.40 L516.26,624.08 L513.90,622.93 L513.46,622.19 L514.16,621.25 L514.51,620.62 L514.95,620.20 L515.39,619.04 L516.17,618.31 L516.70,617.47 L517.92,616.00 L518.53,615.79 L519.58,615.05 L520.55,614.63 L520.72,614.42 L521.07,613.58 L522.21,613.16 L523.26,612.43 L523.96,611.69 L524.22,610.96 L524.74,610.54 L525.62,609.80 L527.28,608.96 L528.15,607.92 L528.33,607.08 L527.63,605.71 L525.88,604.66 L524.83,604.56 L520.81,603.19 L519.23,602.98 L515.47,603.72 L513.81,603.51 L512.76,603.09 L511.98,602.46 L511.54,601.72 L510.93,601.30 L510.49,600.46 L510.67,598.89 L511.37,597.94 L511.37,597.10 L511.19,596.16 L511.63,594.69 L511.45,594.06 L511.54,593.43 L511.10,592.69 L511.02,592.06 L510.58,591.54 L510.58,591.33 L510.23,591.12 L510.05,590.59 L509.70,588.60 L508.48,586.61 L508.04,585.24 L508.04,584.82 L507.87,584.30 L507.52,583.98 L507.17,583.04 L507.26,582.30 L507.43,581.88 L508.48,580.73 L509.35,580.20 L509.62,579.78 L509.44,579.57 L508.39,579.15 L507.61,579.26 L505.86,578.84 L502.71,578.52 L501.14,577.79 L500.17,577.16 L499.48,576.32 L499.04,576.21 L495.98,575.69 L494.40,575.06 L493.62,575.06 L489.95,575.69 L487.85,575.79 L485.84,575.27 L484.87,574.74 L484.00,574.01 L483.83,572.96 L483.91,572.54 L485.22,570.44 L485.75,569.28 L486.71,567.92 L486.54,566.87 L484.79,564.25 L485.49,563.09 L487.67,560.99 L487.76,560.26 L487.06,559.42 L487.06,559.10 L487.06,558.37 L487.32,558.05 L487.24,557.74 L487.50,557.00 L487.41,556.69 L487.59,556.48 L487.50,556.27 L487.93,555.11 L487.32,553.33 L488.02,552.49 L488.90,552.28 L489.25,551.75 L488.55,551.23 L488.20,550.49 L488.02,549.44 L487.50,548.18 L487.50,547.55 L487.32,547.13 L487.41,546.71 L487.93,546.19 L488.20,545.56 L488.81,544.72 L489.07,543.36 L489.42,542.94 L489.60,542.62 L490.30,542.10 L490.47,541.68 L490.47,540.94 L490.47,539.58 L490.30,538.53 L488.90,536.64 L487.15,535.27 L486.89,534.33 L486.54,533.91 L486.10,533.70 L485.31,532.65 L483.65,532.12 L482.86,531.28 L482.86,530.23 L483.48,529.18 L483.65,528.34 L484.09,527.82 L484.26,527.08 L484.18,526.45 L484.96,524.46 L484.87,523.72 L485.31,523.30 L484.70,521.21 L484.87,520.79 L484.87,520.37 L485.05,520.05 L484.79,519.42 L484.87,517.74 L484.26,517.22 L483.91,517.11 L482.08,517.11 L480.94,516.80 L478.84,516.59 L478.14,516.38 L477.79,516.17 L477.53,515.75 L477.09,515.43 L476.92,515.01 L475.78,513.96 L474.38,513.44 L472.11,513.12 L470.80,512.70 L466.69,510.18 L466.60,509.76 L466.34,509.24 L463.98,507.66 L462.93,506.30 L460.48,505.04 L460.05,504.72 L459.96,504.41 L459.70,502.62 L461.09,499.69 L462.14,498.53 L462.49,497.69 L462.76,497.17 L465.03,494.86 L465.38,493.70 L466.52,492.23 L466.86,490.24 L468.61,487.72 L470.10,486.46 L472.37,485.51 L472.98,484.99 L477.97,484.36 L479.19,484.04 L481.90,483.83 L482.25,483.73 L483.21,483.10 L483.48,482.89 L483.21,482.36 L482.34,481.31 L482.43,481.10 L483.39,480.58 L484.35,479.84 L484.79,478.90 L484.61,478.17 L483.74,477.33 L483.56,477.12 L483.74,476.80 L485.75,474.49 L487.85,473.34 L488.37,472.29 L489.33,471.76 L490.30,470.29 L490.38,469.87 L489.60,468.61 L489.16,468.19 L488.81,467.25 L487.93,466.51 L486.27,465.57 L484.18,463.68 L483.91,462.31 L484.09,461.58 L483.30,460.74 L483.48,460.21 L483.56,459.48 L483.21,458.85 L483.30,458.64 L481.82,457.06 L481.55,455.91 L481.47,455.49 L481.82,454.76 L481.82,454.44 L481.47,452.97 L481.64,452.34 L481.38,451.61 L480.42,450.87 L475.61,449.30 L473.68,447.93 L471.67,447.09 L470.36,446.15 L466.52,445.10 L465.55,444.36 L464.15,442.89 L462.67,442.68 L462.76,442.16 L461.71,441.32 L460.83,441.53 L458.56,440.48 L457.68,439.43 L457.95,438.06 L457.42,436.59 L455.67,434.81 L455.59,434.60 L455.85,434.29 L455.76,433.66 L455.15,433.45 L454.28,432.61 L454.19,432.40 L454.54,431.87 L453.84,431.03 L453.31,430.61 L453.14,429.88 L451.39,428.93 L450.87,427.88 L449.55,426.83 L449.29,426.20 L448.07,425.26 L443.17,424.52 L438.10,424.31 L435.92,424.10 L430.06,424.42 L426.30,423.89 L421.23,424.52 L417.64,424.63 L416.07,424.52 L413.45,423.79 L412.22,423.68 L410.21,423.79 L407.33,424.52 L404.09,424.84 L402.87,424.63 L400.86,423.89 L399.72,423.68 L398.41,422.95 L397.88,422.95 L397.53,423.05 L397.18,423.47 L396.75,423.68 L395.00,424.10 L392.64,424.42 L391.68,424.21 L390.72,424.21 L390.72,424.42 L390.19,424.94 L390.28,424.94 L390.02,425.26 L389.67,425.47 L389.32,425.36 L388.35,425.05 L388.00,424.63 L387.13,423.89 L387.04,423.26 L386.52,422.42 L386.26,422.21 L385.99,421.79 L385.99,421.16 L385.73,420.74 L385.91,420.22 L385.82,419.80 L385.21,419.06 L384.77,418.12 L383.46,416.86 L383.81,416.54 L383.46,416.23 L383.55,415.91 L383.11,415.39 L383.11,415.18 L382.67,414.44 L382.76,414.23 L382.58,414.23 L382.41,413.18 L381.80,412.45 L379.87,410.77 L380.05,410.14 L380.05,409.62 L379.79,409.62 L379.52,409.20 L378.39,408.57 L378.39,408.46 L378.04,408.15 L378.13,407.94 L377.78,407.62 L376.20,406.78 L375.68,406.15 L375.07,405.73 L373.40,405.31 L371.66,405.21 L368.07,405.63 L364.22,405.21 L362.65,404.79 L360.73,404.68 L358.19,404.79 L355.13,404.37 L350.76,404.89 L347.53,404.89 L346.04,404.47 L344.12,403.74 L340.09,401.43 L337.21,401.32 L335.90,401.11 L332.14,399.01 L332.05,398.80 L332.05,398.49 L332.49,397.65 L332.31,397.23 L332.40,395.76 L332.14,395.13 L331.09,394.08 L331.53,393.13 L331.26,392.82 L330.65,392.61 L330.48,392.19 L330.74,391.87 L330.65,391.66 L331.53,390.30 L332.40,389.15 L333.80,388.20 L334.32,387.36 L334.24,387.15 L334.50,386.10 L334.06,385.26 L334.24,384.00 L333.45,381.06 L333.89,380.43 L333.62,379.91 L333.89,379.59 L333.89,379.28 L334.50,378.75 L334.32,377.39 L334.50,377.28 L334.41,376.65 L334.67,376.02 L334.50,375.08 L334.59,374.97 L334.50,374.87 L334.59,374.55 L334.67,373.19 L335.46,371.93 L335.81,371.61 L335.90,371.19 L337.03,370.77 L337.12,369.83 L337.38,369.52 L337.65,369.41 L337.47,369.20 L335.55,368.57 L334.06,367.52 L333.54,366.79 L333.62,366.05 L333.45,365.84 L333.45,365.53 L333.71,365.11 L333.80,364.58 L334.41,363.95 L334.94,362.90 L334.76,362.69 L335.37,361.85 L335.37,361.64 L336.68,360.80 L337.03,359.96 L337.73,359.02 L339.39,358.07 L340.62,357.65 L342.54,356.29 L342.63,355.97 L343.50,355.24 L343.59,354.82 L344.03,354.71 L343.94,354.50 L344.03,354.40 L344.47,354.29 L344.90,353.87 L345.51,353.56 L347.18,352.30 L348.66,351.67 L349.54,351.46 L350.06,350.93 L351.37,350.41 L353.21,349.46 L353.65,349.04 L353.82,348.62 L354.52,347.89 L354.69,347.37 L354.87,347.16 L358.63,345.58 L360.47,344.64 L361.08,344.01 L363.35,342.85 L364.49,342.43 L367.63,341.80 L368.42,341.07 L369.82,340.54 L370.17,340.23 L370.17,339.81 L370.69,339.60 L373.49,338.34 L375.33,337.92 L376.73,337.39 L377.78,337.29 L378.13,336.97 L378.21,336.97 L376.99,336.97 L372.36,336.24 L371.22,336.24 L367.28,335.61 L365.10,335.08 L362.39,334.77 L361.16,334.35 L357.41,333.93 L354.43,333.30 L352.95,333.30 L346.74,332.14 L346.21,331.83 L345.60,331.83 L344.03,331.51 L343.59,331.20 L342.45,331.09 L342.37,330.88 L340.36,330.78 L339.05,330.15 L337.21,329.83 L335.55,328.78 L334.67,328.57 L333.10,328.47 L331.79,327.94 L328.82,327.73 L328.29,327.84 L327.07,327.42 L326.54,327.42 L323.48,326.37 L323.05,326.06 L322.87,325.64 L321.91,325.22 L321.47,325.32 L320.77,325.01 L320.77,324.80 L321.12,324.59 L321.30,323.96 L321.30,323.54 L320.51,322.49 L319.90,322.07 L318.24,320.28 L318.06,319.23 L318.24,318.60 L320.51,314.93 L320.60,314.40 L321.12,314.09 L321.30,312.51 L320.07,311.57 L319.99,311.15 L319.81,310.73 L319.20,310.10 L318.24,309.26 L317.45,309.05 L316.40,308.31 L316.14,307.89 L315.96,307.26 L314.65,307.05 L313.95,306.63 L312.47,306.42 L312.20,306.21 L312.20,305.16 L311.94,304.74 L310.37,303.91 L309.06,301.60 L307.66,300.13 L307.13,298.97 L307.13,298.34 L307.40,297.82 L307.31,297.61 L307.66,296.35 L307.57,296.03 L307.75,295.82 L307.66,295.19 L308.01,294.88 L308.01,294.14 L308.18,293.51 L307.92,292.46 L308.01,292.04 L307.83,291.94 L308.01,290.78 L307.83,290.36 L308.01,289.63 L307.66,289.21 L308.10,288.16 L307.48,287.32 L307.40,286.90 L306.52,285.95 L306.52,285.53 L306.35,285.22 L306.52,284.90 L306.26,284.38 L306.78,283.85 L306.70,283.33 L306.61,283.33 L306.61,283.43 L306.43,283.01 L306.61,282.70 L308.62,281.44 L309.32,280.29 L309.06,279.76 L309.67,279.45 L311.86,279.55 L314.04,279.13 L314.92,278.40 L317.45,277.03 L319.37,276.19 L321.65,275.67 L322.61,274.72 L324.10,274.30 L323.66,273.25 L323.83,272.62 L323.66,272.31 L323.13,271.89 L322.78,271.36 L322.96,270.73 L323.75,270.00 L323.75,269.68 L323.31,269.26 L323.31,268.53 L323.75,267.48 L323.83,266.53 L324.36,265.69 L324.44,265.06 L324.79,264.64 L325.06,263.70 L325.49,263.17 L326.19,262.75 L324.71,261.39 L324.62,260.87 L324.79,259.61 L324.44,258.87 L323.40,257.40 L322.96,256.35 L321.47,253.94 L321.04,252.89 L320.34,252.15 L320.25,250.89 L319.90,250.37 L320.42,249.21 L320.77,247.32 L320.60,246.90 L320.42,245.75 L320.25,245.43 L316.66,243.86 L315.61,243.75 L311.51,241.55 L309.58,241.23 L308.62,240.39 L308.10,240.29 L308.10,240.08 L307.66,239.87 L307.57,239.55 L306.96,239.24 L307.22,238.82 L306.87,238.19 L306.35,238.19 L306.35,237.88 L306.00,237.56 L305.91,236.83 L306.00,236.62 L305.56,236.20 L305.56,235.88 L305.30,235.57 L305.56,235.15 L305.39,234.73 L304.07,233.99 L303.90,233.47 L302.85,232.10 L302.24,231.79 L302.24,231.37 L298.30,229.16 L296.73,228.85 L293.93,228.53 L291.40,227.69 L289.21,226.75 L287.73,226.33 L285.71,226.01 L285.19,225.80 L285.28,225.59 L284.49,225.28 L284.32,224.96 L280.91,223.60 L276.27,223.18 L275.05,222.86 L275.31,223.07 L274.96,223.18 L274.70,222.97 L274.79,223.18 L273.39,222.97 L272.95,223.07 L271.11,222.76 L270.85,222.97 L270.59,222.65 L270.06,222.55 L269.89,222.23 L265.78,221.08 L257.39,219.82 L254.76,219.71 L252.84,219.40 L247.33,217.40 L245.93,216.36 L244.45,215.62 L243.66,215.41 L241.74,215.41 L241.30,215.10 L240.95,214.36 L240.34,213.73 L240.25,213.10 L240.60,212.47 L240.60,212.26 L240.34,212.05 L239.81,210.69 L239.46,210.06 L237.37,209.43 L236.06,208.48 L233.26,207.43 L232.47,206.91 L232.03,206.59 L231.77,205.86 L230.11,204.39 L229.67,203.76 L226.35,201.24 L223.82,199.87 L223.20,198.93 L221.11,197.77 L219.79,196.83 L219.62,196.41 L219.01,196.09 L218.83,195.57 L217.96,194.63 L217.87,194.21 L216.47,193.16 L215.42,192.00 L215.25,191.58 L213.94,191.27 L207.12,190.85 L200.30,189.90 L196.28,188.43 L194.35,187.91 L192.43,187.07 L189.89,186.33 L188.84,185.81 L188.49,185.39 L183.86,182.97 L182.64,182.45 L182.55,182.34 L182.55,182.24 L182.02,181.71 L181.59,181.71 L181.24,181.50 L178.44,181.50 L177.57,181.40 L176.25,180.87 L171.27,180.35 L170.31,179.72 L170.13,179.30 L169.70,179.09 L168.04,178.67 L167.69,178.35 L164.63,178.14 L161.92,177.62 L159.82,177.62 L158.68,177.30 L154.40,175.52 L151.08,174.57 L150.81,174.68 L150.99,174.78 L150.46,175.20 L148.89,175.10 L148.02,175.52 L146.97,175.62 L145.22,175.52 L143.99,174.99 L143.73,174.36 L143.29,174.36 L143.29,174.05 L142.51,173.42 L142.16,172.69 L141.81,172.06 L141.81,170.90 L141.63,170.69 L141.72,170.48 L141.55,170.27 L141.63,170.17 L141.37,169.85 L140.93,168.70 L140.76,168.59 L140.67,168.70 L139.97,168.28 L138.75,167.86 L137.61,167.12 L137.00,166.39 L135.43,165.65 L134.64,165.02 L132.02,164.08 L130.70,163.03 L126.86,160.72 L125.81,159.56 L123.71,158.62 L121.09,156.20 L119.60,155.78 L119.43,155.26 L120.04,154.31 L119.95,154.21 L119.95,153.79 L119.60,153.05 L119.69,152.42 L119.34,151.90 L119.34,151.48 L118.64,150.75 L118.64,150.54 L118.46,150.33 L118.64,149.59 L118.38,149.49 L118.81,149.07 L118.90,148.54 L120.21,147.28 L120.13,146.34 L121.00,145.81 L121.61,145.08 L121.52,144.55 L121.35,144.45 L121.44,144.03 L121.35,143.19 L120.91,141.93 L121.18,141.40 L120.30,140.14 L120.39,139.72 L119.69,138.25 L119.78,137.52 L119.51,136.57 L117.50,135.31 L116.28,134.26 L116.02,133.74 L115.23,133.00 L114.88,133.00 L114.44,132.48 L113.31,131.74 L114.18,131.53 L116.19,129.23 L116.37,128.81 L116.19,127.34 L115.84,126.71 L115.32,126.18 L114.62,125.76 L113.83,124.92 L113.83,124.29 L112.96,123.24 L112.69,122.19 L112.00,121.25 L112.00,120.30 L111.30,119.04 L111.38,118.83 L111.03,118.20 L110.42,117.78 L110.07,116.52 L109.28,116.10 L109.46,115.68 L108.94,115.16 L108.85,114.63 L108.50,114.21 L107.71,113.90 L107.80,113.58 L107.36,113.06 L107.19,112.53 L105.09,111.27 L104.65,110.85 L104.39,110.43 L102.90,109.59 L101.33,109.07 L100.98,108.44 L100.10,108.02 L99.32,107.81 L98.88,107.39 L97.31,106.97 L96.78,106.66 L96.96,106.34 L95.82,105.92 L95.47,104.87 L94.25,103.93 L92.94,103.30 L92.15,102.77 L91.19,102.67 L90.05,102.04 L89.70,101.62 L88.65,100.88 L87.52,100.36 L86.99,99.83 L86.99,99.62 L85.85,99.10 L85.85,98.89 L85.07,98.36 L84.81,97.94 L83.41,97.31 L83.49,96.47 L82.71,95.74 L81.57,95.00 L81.66,94.90 L81.48,94.69 L81.48,94.37 L81.13,94.27 L80.43,93.74 L79.65,91.85 L78.95,91.33 L78.77,90.80 L77.99,90.49 L78.60,90.38 L78.42,90.07 L78.86,89.75 L77.90,89.44 L77.99,89.23 L78.51,88.91 L78.16,88.60 L78.51,88.28 L78.60,87.86 L78.42,87.55 L78.16,87.55 L77.64,86.82 L77.20,86.40 L75.97,85.77 L74.93,84.61 L74.66,84.09 L74.05,83.46 L72.83,82.72 L71.08,81.04 L70.20,80.73 L70.47,80.52 L70.29,80.10 L70.55,79.99 L70.03,79.47 L70.03,78.84 L69.51,78.00 L69.59,76.95 L69.42,76.42 L69.51,76.00 L69.16,75.58 L68.46,75.16 L68.46,74.85 L68.72,74.64 L67.41,74.22 L67.41,74.01 L67.93,73.38 L67.84,73.06 L68.11,72.64 L68.02,71.28 L67.76,70.44 L66.97,69.81 L66.97,69.91 L64.87,70.44 L64.26,70.33 L64.08,70.12 L64.35,70.02 L64.35,69.81 L65.05,69.49 L65.83,69.28 L66.71,69.49 L66.97,69.49 L66.97,69.28 L66.88,68.97 L66.97,68.55 L65.75,66.66 L65.75,66.03 L65.48,65.50 L65.48,64.88 L65.31,64.67 L65.48,64.04 L64.96,62.99 L64.87,62.36 L64.96,61.94 L64.61,60.89 L64.87,59.63 L64.52,59.10 L64.87,58.89 L65.05,58.47 L64.70,58.05 L64.78,57.95 L64.52,57.63 L64.52,57.42 L65.31,57.11 L66.62,56.90 L66.53,56.90 L66.88,56.79 L67.06,56.37 L67.93,56.06 L68.19,55.64 L68.46,55.53 L68.72,55.22 L70.03,54.48 L71.43,53.01 L71.87,52.17 L72.39,51.65 L72.74,51.12 L72.65,49.86 L73.79,48.81 L73.79,48.60 L73.44,47.76 L73.53,47.13 L73.35,46.40 L73.53,45.98 L73.26,45.56 L73.61,44.93 L73.61,44.19 L73.53,43.77 L73.70,43.25 L73.00,42.73 L73.44,41.99 L73.26,41.47 L73.26,40.63 L73.53,40.21 L72.91,39.47 L72.91,39.05 L72.48,38.42 L71.34,37.90 L71.08,37.27 L69.85,36.64 L69.68,36.32 L68.89,36.11 L68.72,35.69 L68.11,35.27 L67.93,34.96 L68.02,34.75 L67.67,34.43 L67.93,33.70 L67.76,33.28 L68.11,32.86 L68.11,32.12 L67.84,31.81 L68.02,31.39 L67.76,30.97 L66.97,30.65 L66.53,30.13 L66.18,29.39 L65.40,28.76 L63.73,27.92 L62.86,27.08 L62.07,26.77 L61.46,26.14 L61.20,25.61 L60.59,25.09 L60.50,24.35 L60.24,24.25 L60.15,23.93 L59.89,23.72 L59.89,23.51 L60.24,22.67 L60.24,22.36 L60.94,21.73 L61.11,21.31 L61.02,20.79 L60.50,20.26 L60.67,19.95 L60.59,19.74 L59.80,19.21 L59.63,18.79 L59.19,18.48 L57.53,18.06 L54.99,17.85 L54.99,17.85 L55.08,17.74 L54.99,17.43 L54.64,17.22 L50.10,15.75 L48.61,15.85 L47.82,16.17 L45.81,16.27 L44.59,16.69 L44.15,17.01 L44.24,17.01 L41.88,17.22 L41.27,17.53 L40.48,17.74 L40.04,18.06 L37.94,17.64 L37.77,17.53 L37.59,16.90 L37.16,16.59 L36.46,15.54 L34.80,14.91 L34.36,14.17 L34.36,13.65 L32.44,13.33 L31.39,12.91 L30.34,13.02 L29.64,12.81 L29.46,12.39 L29.03,12.39 L29.20,12.28 L28.76,11.97 L28.68,11.55 L28.94,11.44 L28.94,10.71 L29.03,10.60 L29.20,10.29 L28.76,9.76 L28.85,9.34 L28.15,8.82 L26.49,8.50 L24.74,7.77 L23.52,6.72 L22.29,6.19 L19.41,6.09 L17.84,5.56 L16.35,4.72 L15.82,4.09 L14.95,3.78 L14.69,3.46 L13.29,3.04 L12.07,2.10 L10.05,1.47 L2.19,0.21 L0.00,0.21 L0.26,0.00 L1.49,0.31 L2.54,0.21 L3.23,0.42 L9.70,1.36 L11.02,1.89 L11.80,2.10 L13.46,3.15 L14.86,3.46 L15.04,3.78 L15.56,3.88 L16.79,4.83 L19.15,5.98 L20.46,6.30 L21.86,6.19 L23.26,6.72 L24.48,7.66 L27.10,8.71 L28.50,8.92 L29.11,9.87 L29.03,9.87 L29.11,10.39 L29.03,10.92 L29.11,11.23 L28.85,11.65 L29.20,12.28 L29.73,12.39 L29.64,12.49 L29.81,12.49 L29.64,12.49 L29.64,12.60 L29.90,12.91 L30.86,12.91 L32.70,13.33 L34.27,13.44 L34.88,14.91 L36.63,15.64 L37.68,17.11 L37.86,17.64 L38.03,17.74 L39.78,17.95 L40.13,17.85 L40.13,17.64 L40.30,17.64 L41.27,17.43 L41.88,17.11 L41.97,17.22 L41.88,17.43 L41.97,17.43 L45.72,16.17 L49.57,15.64 L51.23,15.96 L51.84,16.27 L53.51,16.59 L54.73,17.22 L54.90,17.74 L55.17,17.95 L56.30,17.95 L59.10,18.37 L59.89,18.79 L60.33,19.42 L60.67,19.53 L60.76,19.74 L60.59,20.05 L60.94,20.47 L61.29,21.63 L60.15,23.09 L60.15,23.83 L60.76,24.35 L60.67,24.98 L61.02,25.19 L61.37,25.93 L61.81,26.35 L63.39,27.29 L63.65,27.82 L65.57,28.66 L66.18,29.29 L66.27,29.71 L66.71,30.34 L68.02,31.18 L68.11,31.39 L67.84,31.70 L68.11,31.70 L67.93,31.60 L68.11,31.70 L67.84,31.81 L68.11,32.12 L68.28,32.65 L67.93,33.17 L67.93,33.80 L67.76,34.12 L67.67,34.43 L68.02,34.75 L67.93,35.17 L68.28,35.38 L68.89,36.11 L71.08,37.37 L71.25,37.90 L72.39,38.42 L72.91,39.26 L72.91,39.58 L73.18,39.68 L73.35,40.10 L73.18,40.52 L73.26,40.94 L73.18,41.36 L73.35,41.99 L72.91,42.73 L73.61,43.36 L73.44,43.77 L73.61,44.51 L73.18,45.56 L73.44,46.08 L73.18,46.29 L73.44,46.82 L73.35,47.66 L73.88,48.81 L72.83,49.86 L72.83,50.81 L72.57,51.44 L72.04,51.96 L71.34,53.12 L70.12,54.59 L68.98,55.11 L68.54,55.53 L66.27,57.11 L65.57,57.11 L64.61,57.42 L64.87,57.84 L64.87,58.16 L65.13,58.68 L64.70,59.21 L64.70,59.73 L65.05,59.94 L64.70,60.36 L64.61,61.20 L64.87,61.73 L64.78,62.57 L65.13,63.51 L65.57,66.55 L66.88,68.34 L67.23,69.28 L65.22,69.81 L65.05,70.02 L64.35,70.23 L64.43,70.33 L65.92,70.75 L67.06,70.75 L67.84,71.17 L68.02,72.12 L68.02,72.96 L67.76,73.48 L67.23,74.01 L67.41,74.22 L68.19,74.32 L68.98,74.85 L68.54,75.06 L68.54,75.16 L69.42,76.00 L69.51,77.16 L69.42,78.10 L69.85,78.73 L70.03,79.57 L70.47,80.10 L70.29,80.41 L72.48,82.62 L74.31,83.88 L75.01,85.14 L75.80,85.87 L77.55,86.61 L77.81,87.13 L78.77,88.07 L78.51,88.70 L78.77,89.02 L78.25,89.12 L77.46,89.75 L78.60,89.75 L78.69,89.86 L78.60,90.28 L78.34,90.59 L78.69,90.70 L78.77,91.12 L79.56,91.64 L79.65,92.17 L80.35,93.74 L81.75,94.69 L81.57,95.11 L82.44,95.42 L82.44,95.63 L83.67,96.47 L83.76,97.00 L83.58,97.31 L84.63,97.73 L85.85,98.68 L85.85,99.10 L86.47,99.31 L87.52,100.25 L88.39,100.67 L90.23,102.04 L91.19,102.56 L92.32,102.67 L92.76,103.09 L95.56,104.66 L96.08,105.29 L96.08,105.71 L96.26,106.03 L97.22,106.45 L97.13,106.76 L97.57,107.18 L98.71,107.39 L99.14,107.60 L99.32,107.81 L100.63,108.13 L100.98,108.34 L101.50,109.17 L101.94,109.17 L103.78,110.22 L104.39,110.64 L104.74,111.17 L106.40,111.90 L107.45,112.53 L107.27,112.95 L108.06,114.00 L108.59,114.21 L109.02,114.63 L109.11,115.05 L109.63,115.58 L109.46,116.00 L110.07,116.52 L109.98,116.94 L110.16,117.68 L110.95,118.31 L111.47,119.57 L111.91,119.88 L112.08,120.51 L112.00,121.14 L112.43,121.46 L112.78,123.14 L113.74,124.40 L113.74,124.82 L114.53,125.76 L115.14,126.08 L115.93,126.71 L116.19,127.44 L116.45,128.39 L116.28,129.02 L115.84,129.44 L115.49,130.17 L114.97,130.80 L114.36,131.32 L113.83,131.64 L113.31,131.64 L113.57,131.64 L113.66,131.95 L114.18,132.27 L114.71,132.90 L115.75,133.53 L116.37,134.37 L117.15,135.00 L119.16,136.26 L119.51,136.99 L119.43,138.15 L120.21,139.72 L120.04,140.14 L121.00,141.09 L121.00,141.61 L120.83,142.03 L121.44,143.29 L121.52,144.55 L121.79,145.08 L121.09,145.92 L120.13,146.44 L120.39,146.97 L119.34,148.23 L118.90,149.07 L118.46,149.38 L118.64,149.59 L118.81,150.43 L118.64,150.64 L119.25,151.38 L119.51,152.53 L119.51,152.95 L119.69,153.47 L119.95,153.68 L119.95,154.21 L119.60,154.73 L119.43,155.36 L119.51,155.57 L119.69,155.89 L120.56,156.20 L124.06,158.83 L125.81,159.46 L127.82,161.35 L131.14,163.03 L132.45,164.08 L135.86,165.13 L138.14,167.12 L140.41,168.28 L140.76,168.70 L141.37,168.70 L141.37,168.80 L141.90,169.64 L141.72,169.64 L141.90,170.17 L142.33,170.38 L142.59,170.80 L142.42,172.48 L143.03,173.21 L143.03,173.42 L143.73,174.15 L143.73,174.36 L144.17,174.47 L144.26,174.78 L145.92,175.31 L147.40,175.41 L148.45,174.99 L150.46,174.89 L151.08,174.47 L154.57,175.41 L158.33,177.20 L160.78,177.41 L162.79,177.83 L166.90,178.46 L169.17,179.09 L172.84,179.72 L175.99,180.56 L178.70,180.56 L180.54,181.19 L181.41,181.71 L181.50,182.03 L181.33,182.24 L181.50,182.34 L182.90,182.55 L185.43,183.92 L187.01,184.86 L187.27,185.28 L188.23,185.81 L189.98,186.44 L192.25,187.07 L194.18,187.91 L195.75,188.22 L197.32,188.96 L200.30,190.01 L206.85,190.95 L211.40,191.37 L213.67,191.27 L215.16,191.69 L215.25,192.00 L216.03,192.53 L216.30,193.05 L217.61,194.10 L218.92,195.99 L219.36,196.30 L220.06,197.14 L222.50,198.51 L223.64,199.77 L225.13,200.61 L229.32,203.23 L231.25,205.65 L231.86,206.70 L232.91,207.33 L235.88,208.59 L237.02,209.22 L237.98,209.32 L238.50,209.64 L239.29,209.85 L239.64,210.27 L239.64,210.69 L240.08,211.63 L240.08,211.84 L240.43,212.16 L240.08,213.21 L240.25,213.52 L240.25,213.73 L241.13,214.99 L242.00,215.62 L244.62,215.83 L246.20,216.67 L246.72,217.20 L247.33,217.51 L248.03,217.61 L249.52,218.35 L250.57,218.56 L252.49,219.40 L255.55,219.82 L257.65,219.82 L263.94,220.97 L268.23,221.92 L269.71,222.02 L269.80,222.23 L269.63,222.23 L270.59,222.76 L272.25,222.86 L273.21,222.65 L274.70,223.18 L277.06,223.18 L281.34,223.81 L283.88,224.86 L284.67,225.59 L285.63,226.01 L286.94,226.22 L289.91,226.96 L291.22,227.80 L293.50,228.64 L295.33,228.64 L296.99,228.85 L298.92,229.48 L302.06,231.26 L302.50,231.89 L303.20,232.21 L303.37,232.73 L304.16,233.78 L305.12,234.52 L305.30,235.04 L305.47,235.04 L305.47,235.46 L305.30,235.67 L305.65,236.09 L305.74,236.72 L305.91,236.83 L306.00,237.35 L306.35,237.98 L307.13,238.72 L307.31,239.24 L307.83,239.45 L308.27,240.29 L308.80,240.60 L310.63,241.65 L311.77,241.86 L312.47,242.28 L312.47,242.49 L313.25,242.70 L313.95,242.70 L315.79,243.75 L317.10,244.07 L318.06,244.59 L320.51,245.54 L320.86,245.96 L320.77,247.43 L320.42,247.85 L320.51,248.37 L320.16,249.63 L319.81,250.16 L319.99,250.68 L319.99,251.42 L320.34,251.63 L320.34,252.36 L321.04,252.89 L321.82,254.78 L322.26,255.30 L322.35,255.72 L322.87,256.25 L323.75,258.03 L324.71,259.19 L324.79,259.71 L324.53,260.76 L324.71,261.49 L326.37,262.86 L325.41,263.59 L325.49,263.80 L325.06,264.12 L324.62,264.64 L324.36,265.48 L323.83,266.43 L323.57,267.37 L323.31,267.90 L323.31,268.63 L323.13,269.37 L323.48,269.37 L323.83,269.79 L322.87,270.84 L322.78,271.47 L322.96,271.89 L323.66,272.31 L323.83,272.62 L323.92,272.83 L323.66,273.25 L324.10,273.78 L324.27,274.41 L322.96,274.72 L321.56,275.77 L320.51,275.88 L320.16,276.19 L319.64,276.19 L318.15,276.82 L315.96,278.08 L315.26,278.29 L314.04,279.34 L311.86,279.66 L310.63,279.55 L310.37,279.87 L309.76,279.87 L308.80,281.55 L307.83,281.86 L306.87,282.70 L306.87,283.96 L306.43,284.38 L306.78,284.90 L306.61,285.43 L306.96,286.27 L307.75,287.11 L307.83,287.84 L308.45,289.94 L308.18,290.26 L308.27,291.10 L308.01,291.94 L308.18,293.20 L308.36,293.41 L308.27,293.41 L308.18,294.14 L308.27,294.67 L307.92,295.09 L307.83,295.72 L307.57,296.35 L307.66,296.98 L307.31,297.40 L307.40,298.03 L307.22,298.13 L307.31,298.66 L307.48,298.76 L307.40,299.08 L307.83,300.34 L309.32,302.02 L310.19,303.91 L311.86,304.64 L312.20,305.90 L314.65,307.16 L315.53,307.05 L316.05,307.26 L315.96,307.58 L316.31,307.79 L316.84,308.84 L318.06,309.36 L319.11,309.99 L320.07,310.83 L320.25,311.46 L320.51,311.88 L321.38,312.41 L321.38,313.35 L321.47,313.56 L321.21,314.19 L320.86,314.51 L320.86,315.24 L320.51,315.98 L320.34,316.82 L319.99,317.34 L319.81,318.18 L319.02,319.23 L318.67,320.28 L319.81,321.96 L321.30,323.33 L321.38,323.64 L321.30,324.90 L322.35,325.53 L322.87,325.53 L323.66,326.26 L325.32,327.21 L327.16,327.31 L327.68,327.73 L328.47,327.94 L330.04,327.94 L330.91,328.15 L332.40,328.26 L335.20,328.78 L336.51,329.41 L337.12,329.94 L338.35,330.25 L338.96,330.25 L342.11,331.30 L345.69,331.83 L347.18,332.35 L349.80,332.67 L352.51,333.30 L361.08,334.45 L362.39,334.87 L364.05,335.08 L371.13,336.45 L372.79,336.45 L375.76,336.87 L376.99,337.18 L376.81,337.50 L375.07,338.44 L373.58,338.76 L371.74,339.60 L370.78,339.81 L370.17,340.33 L370.17,340.65 L370.08,340.86 L369.56,341.17 L368.86,341.28 L367.81,342.01 L363.53,343.06 L361.60,344.01 L360.55,344.74 L356.97,346.63 L355.39,347.26 L354.96,347.68 L354.87,348.10 L354.43,348.41 L354.00,349.36 L350.76,351.25 L350.32,351.25 L349.80,351.67 L347.35,352.40 L347.35,352.82 L346.74,353.14 L345.86,353.87 L345.34,354.19 L345.43,354.40 L345.08,354.50 L344.73,355.03 L343.85,355.34 L343.15,356.08 L343.33,356.18 L343.24,356.39 L341.14,357.65 L341.06,357.97 L339.57,358.39 L338.35,359.02 L337.56,359.75 L336.95,360.80 L335.64,361.64 L335.46,362.06 L335.55,362.27 L335.20,362.48 L334.76,363.74 L333.97,364.48 L333.10,366.05 L333.28,366.58 L333.89,367.42 L334.67,367.94 L335.20,368.57 L336.25,369.10 L337.38,369.31 L337.91,369.62 L337.30,370.04 L337.21,370.77 L336.86,370.88 L335.72,371.61 L334.67,372.98 L334.41,373.82 L334.32,374.55 L334.76,376.13 L334.24,378.33 L333.54,379.91 L333.54,380.75 L333.97,382.53 L334.06,384.21 L334.32,384.63 L334.06,385.26 L334.15,386.00 L333.97,386.31 L333.54,386.63 L333.62,387.05 L334.50,387.78 L334.32,387.89 L334.41,388.41 L334.15,388.83 L331.61,390.72 L330.74,392.08 L330.56,392.92 L331.00,392.82 L331.70,393.03 L331.96,393.55 L331.88,393.87 L333.01,395.34 L333.19,395.76 L331.35,397.65 L331.26,398.38 L331.44,398.80 L335.37,401.11 L336.42,401.32 L339.57,401.43 L340.27,401.64 L341.49,402.58 L343.07,403.32 L346.74,404.68 L348.23,405.10 L351.72,405.10 L354.08,404.58 L356.44,404.68 L358.54,404.89 L361.16,404.68 L367.11,405.63 L368.51,405.63 L372.18,405.31 L375.07,405.73 L376.11,406.47 L376.81,407.20 L377.43,407.31 L377.60,407.52 L377.51,407.73 L377.95,408.15 L377.78,408.25 L378.13,408.67 L379.35,409.20 L379.96,410.14 L380.05,410.35 L379.70,410.88 L379.79,411.19 L381.19,412.03 L382.23,413.08 L382.76,415.18 L383.37,415.81 L383.37,416.44 L383.63,416.75 L383.72,417.28 L384.60,418.33 L385.38,419.59 L385.56,420.22 L385.64,421.48 L385.82,422.00 L386.69,423.05 L386.87,423.89 L387.22,424.21 L387.22,424.52 L389.40,425.57 L389.58,425.57 L390.19,424.84 L390.28,424.31 L390.89,423.89 L393.43,424.10 L396.31,424.00 L396.66,423.89 L397.27,423.26 L398.06,423.05 L398.58,423.16 L399.28,423.79 L400.59,424.10 L402.96,424.94 L404.18,425.05 L407.06,424.84 L409.69,424.00 L411.79,423.79 L413.18,424.00 L416.24,424.73 L420.27,424.73 L426.65,424.10 L429.88,424.52 L434.95,424.21 L438.71,424.52 L441.16,424.42 L446.93,424.94 L448.16,425.26 L449.12,425.99 L449.64,426.94 L450.60,427.88 L450.87,428.41 L451.48,429.04 L452.09,429.25 L453.14,430.09 L453.14,430.61 L454.19,431.87 L454.28,432.08 L454.10,432.61 L454.19,432.92 L455.06,433.45 L455.67,434.39 L455.50,434.91 L456.20,435.44 L457.25,436.70 L457.60,437.96 L457.51,438.48 L457.51,439.43 L458.12,440.37 L460.31,441.53 L461.36,441.42 L462.84,442.37 L462.84,442.79 L462.67,442.89 L462.84,443.00 L463.37,442.89 L464.15,443.21 L465.73,444.57 L467.74,445.52 L469.31,445.94 L472.37,447.41 L474.21,448.35 L475.43,449.19 L479.72,450.77 L481.12,451.71 L481.90,454.13 L481.29,455.70 L481.29,456.54 L483.48,459.27 L483.21,459.79 L483.39,460.11 L483.30,460.63 L484.61,462.42 L484.53,463.68 L486.54,465.88 L487.24,466.41 L488.11,466.72 L488.90,467.35 L489.33,468.19 L490.21,469.14 L490.73,469.98 L490.12,470.92 L489.86,471.03 L488.81,472.39 L488.20,473.44 L487.15,474.18 L485.57,474.91 L483.74,477.01 L484.96,478.90 L484.79,479.63 L484.18,480.26 L482.78,481.00 L482.69,481.52 L482.95,482.15 L483.48,482.57 L483.39,482.99 L482.34,483.73 L481.38,484.15 L473.33,485.30 L471.94,485.83 L470.71,486.56 L469.75,486.98 L469.23,487.61 L468.00,488.66 L467.13,489.71 L466.95,490.03 L467.21,491.29 L467.04,491.92 L466.43,492.76 L465.38,493.60 L465.29,494.33 L464.77,495.28 L462.84,497.38 L462.58,498.11 L460.40,501.15 L459.87,502.31 L459.43,502.62 L459.26,503.25 L459.70,504.30 L459.70,504.72 L461.09,505.56 L462.76,506.30 L463.63,507.56 L464.77,508.29 L466.69,510.29 L467.13,511.02 L468.26,511.76 L470.80,513.12 L472.02,513.54 L475.26,513.86 L475.61,514.17 L477.97,516.48 L478.32,516.59 L483.83,517.01 L484.35,517.22 L484.79,517.95 L484.61,519.00 L484.87,519.53 L484.35,521.42 L484.53,522.15 L485.05,523.09 L485.05,523.72 L484.00,525.82 L483.91,526.66 L484.18,527.19 L484.18,528.03 L483.83,528.34 L483.65,529.08 L483.04,530.13 L482.95,531.18 L483.56,532.02 L484.79,532.44 L485.49,532.96 L485.66,533.59 L486.71,534.64 L486.97,535.38 L488.63,536.53 L489.77,537.79 L490.21,538.95 L490.56,540.52 L490.30,541.47 L489.95,541.89 L489.68,542.94 L488.90,544.30 L488.72,545.66 L487.85,547.45 L487.93,549.13 L487.59,549.86 L487.59,550.49 L488.98,551.86 L488.98,552.17 L487.93,553.01 L487.67,553.64 L488.20,555.01 L488.37,555.74 L488.20,557.00 L487.59,558.37 L487.50,559.63 L487.76,560.15 L487.76,560.68 L487.41,561.10 L487.32,561.62 L486.54,562.46 L486.54,562.99 L485.75,563.93 L485.40,564.67 L485.57,565.40 L486.45,566.76 L486.62,568.23 L485.49,569.60 L483.74,572.85 L483.74,573.80 L484.09,574.32 L485.14,575.27 L486.27,575.69 L489.16,575.90 L490.38,575.79 L492.48,575.27 L493.36,575.27 L495.02,575.90 L496.24,576.00 L498.08,576.32 L500.61,577.79 L500.70,577.58 L502.62,578.31 L506.56,578.42 L508.83,578.31 L509.97,578.84 L510.05,579.05 L509.88,579.36 L509.79,579.68 L509.35,580.31 L508.74,580.73 L508.13,581.57 L507.78,582.72 L507.69,583.56 L508.66,585.87 L508.74,586.61 L509.44,587.97 L509.35,588.49 L509.88,589.44 L509.88,590.17 L510.23,591.12 L511.80,593.64 L511.72,594.48 L511.80,595.84 L511.54,596.58 L511.80,597.63 L510.49,599.41 L510.40,600.57 L510.75,601.41 L511.89,602.88 L512.85,603.51 L513.73,603.72 L514.60,603.93 L516.61,603.61 L518.36,603.09 L521.07,603.40 L526.67,604.45 L527.28,604.66 L527.71,605.19 L527.89,606.45 L528.41,607.92 L528.24,608.65 L524.74,610.64 L523.61,611.80 L523.17,613.06 L521.42,614.21 L521.16,614.74 L520.37,614.95 L519.58,615.68 L518.18,616.10 L517.57,616.42 L517.14,616.84 L516.79,617.89 L513.38,622.30 L513.29,622.72 L513.90,623.35 L514.60,623.45 L517.22,624.61 L517.75,625.03 L518.27,625.97 L518.45,627.13 L518.27,628.81 L518.45,629.75 L518.97,630.59 L519.32,631.95 L519.23,632.48 L518.01,634.26 L517.66,636.36 L516.26,637.83 L513.55,639.20 L511.37,639.83 L509.70,640.14 L508.39,640.04 L507.52,640.35 L506.64,640.56 L506.21,640.88 L506.12,641.09 L506.73,642.14 L506.82,642.98 L507.17,643.40 L510.32,645.50 L511.72,645.71 L520.90,648.86 L522.91,649.28 L526.40,649.80 L528.41,649.38 L529.73,648.86 L532.00,647.39 L534.53,645.50 L536.54,644.66 L540.13,643.92 L544.85,643.50 L545.46,643.61 L546.95,644.45 L548.44,645.71 L550.36,646.13 L552.02,646.86 L554.12,648.12 L557.00,649.07 L557.61,649.59 L557.79,650.01 L558.05,650.12 L558.05,650.54 L558.31,650.96 L557.35,651.38 L557.18,651.90 L557.61,652.53 L558.49,652.95 L558.66,653.16 L558.40,653.68 L558.58,654.21 L557.79,655.05 L557.00,655.47 L555.43,655.57 L553.24,656.10 L552.54,656.52 L551.67,656.52 L551.41,656.73 L551.32,657.04 L550.53,657.25 L549.75,657.67 L549.75,657.99 L549.92,658.30 L550.62,658.72 L550.97,659.25 L551.06,660.40 L550.71,661.03 L549.75,662.29 L549.40,664.39 L549.05,664.81 L548.78,665.55 L548.44,665.76 L548.52,666.60 L548.26,667.23 L548.00,669.33 L547.47,670.38 L546.86,672.06 L546.34,672.58 L544.94,673.32 L544.68,674.36 L541.09,677.41 L540.22,678.46 L538.38,679.40 L537.16,680.66 L535.50,681.82 L535.15,682.24 L534.88,682.97 L535.67,687.38 L535.85,690.43 L536.37,691.90 L536.89,692.63 L538.47,694.00 L539.78,694.73 L541.09,695.05 L542.23,695.78 L543.36,697.04 L544.68,696.72 L548.52,697.14 L549.13,697.14 L550.27,697.35 L550.45,697.25 L552.54,697.46 L554.03,697.46 L560.24,698.09 L565.48,698.72 L567.93,699.14 L581.05,703.13 L585.94,703.34 L587.34,703.02 L588.21,702.60 L590.40,702.18 L592.94,700.71 L596.43,698.09 L601.94,692.84 L605.79,691.06 L607.54,689.48 L612.61,686.65 L615.14,685.60 L616.80,684.65 L617.68,683.81 L619.25,682.13 L619.69,681.19 L620.56,680.87 L620.13,680.66 L620.74,680.77 L621.44,680.45 L623.62,680.98 L624.15,680.77 L624.41,680.87 L625.02,681.61 L625.98,681.82 L625.81,682.45 L624.76,684.02 L623.62,684.76 L621.87,686.54 L621.00,687.91 L620.65,689.06 L620.65,689.27 L619.25,691.06 L617.50,693.79 L615.67,696.20 L613.92,699.03 L613.04,700.82 L610.68,704.28 L609.46,706.38 L607.89,708.48 L607.62,708.48 L607.89,709.32 L607.97,710.48 L608.76,711.63 L614.71,718.03 L615.58,718.56 L618.38,719.71 L618.64,719.92 L619.34,720.87 L620.91,721.81 L622.14,722.13 L625.55,722.34 L627.73,722.55 L629.31,723.28 L630.09,723.81 L630.70,724.65 L630.88,725.59 L630.70,727.17 L630.79,728.22 L631.58,729.37 L632.98,730.63 L638.22,733.47 L640.67,735.67 L647.05,740.18 L652.82,742.70 L658.07,744.59 L659.03,745.22 L659.64,745.85 L659.82,746.27 L661.30,747.43 L662.09,747.32 L665.41,747.95 L666.99,747.22 L669.44,746.69 L672.93,746.69 L675.29,747.32 L678.96,749.21 L679.23,749.42 L679.23,749.84 L680.01,751.42 L680.98,752.05 L685.17,753.73 L690.16,755.20 L701.78,761.18 L704.49,762.44 L707.90,763.28 L713.41,764.22 L717.08,764.64 L719.27,765.17 L735.97,770.10 L746.46,773.36 L748.82,774.41 L750.13,775.14 L751.88,776.72 L752.84,778.08 L753.19,778.82 L753.72,781.34 L753.37,782.70 L751.70,785.43 L750.83,786.48 L750.39,787.21 L749.26,788.26 L748.73,789.10 L748.12,790.78 L748.38,791.73 L749.43,792.25 L756.16,794.04 L759.40,795.30 L761.06,796.45 L762.02,797.29 L763.25,798.87 L763.51,799.60 L763.77,801.18 L763.42,802.54 L761.76,807.26 L760.19,810.10 L759.75,811.46 L759.84,812.20 L760.27,812.83 L762.37,814.40 L766.48,816.92 L769.02,818.18 L771.38,819.86 L771.99,820.07 L774.17,821.54 L774.96,822.70 L775.83,824.48 L776.01,825.32 L776.27,825.85 L777.76,827.10 L778.63,828.36 L779.59,829.10 L780.99,831.30 L781.17,832.14 L781.26,833.40 L781.17,834.77 L781.87,836.34 L785.71,840.86 L786.24,842.01 L787.81,844.32 L789.47,846.42 L791.40,849.25 L794.89,852.72 L797.69,856.81 L798.22,857.97 L799.00,859.02 L803.11,862.80 L803.99,863.74 L805.30,866.58 L806.26,868.05 L809.84,870.88 L810.98,872.03 L812.55,873.29 L814.92,875.60 L817.45,876.34 L822.78,878.44 L825.14,879.17 L828.03,881.17 L828.82,881.48 L830.22,881.69 L831.70,881.59 L835.55,880.64 L838.78,880.54 L842.80,881.59 L844.73,882.43 L845.25,882.53 L848.84,884.63 L850.24,885.16 L854.35,886.10 L855.66,886.52 L857.67,887.99 L860.29,889.57 L861.25,890.41 L862.48,893.13 L863.87,894.81 L864.40,895.76 L864.49,896.91 L867.28,899.12 L868.86,902.27 L869.21,902.69 L870.17,903.21 L870.87,903.84 L873.67,909.41 L875.50,912.14 L876.29,913.71 L877.16,915.07 L878.48,918.12 L879.09,919.06 L879.70,920.74 L880.84,922.32 L883.55,923.58 L888.62,925.47 L892.46,926.52 L900.42,928.20 L903.39,928.62 L906.19,929.35 L908.38,929.46 L909.60,929.88 L909.95,930.09 L910.39,931.77 L911.52,932.61 L916.24,934.39 L917.73,934.50 L919.04,935.23 L922.36,936.59 L924.72,938.06 L926.56,940.06 L927.61,940.58 L931.19,941.74 L933.64,943.42 L934.87,944.47 L936.70,945.52 L944.22,948.67 L949.20,951.92 L954.97,954.76 L956.02,955.39 L956.37,955.91 L956.99,957.17 L957.16,958.85 L957.34,959.37 L957.60,959.79 L958.56,960.42 L960.83,961.47 L966.25,963.05 L970.80,964.73 L974.12,966.83 L974.30,967.04 L977.18,967.98 L981.12,970.40 L981.55,970.92 L982.25,971.24 L982.95,971.97 L983.83,972.39 L984.18,972.92 L984.87,973.23 L985.31,973.76 L985.49,974.60 L986.01,975.12 L989.16,977.12 L989.95,977.85 L991.17,979.32 L992.22,982.36 L992.66,983.10 L995.45,984.78 L998.08,986.67 L999.21,987.40 L999.91,988.03 L1000.00,988.77 L999.48,989.82 L999.21,989.92 L992.92,993.60 L990.65,994.44 L986.71,995.38 L978.14,996.33 L975.87,995.70 L974.38,994.75 L972.46,993.91 L968.96,993.18 L965.47,993.18 L963.72,993.60 L960.48,994.54 L953.84,997.27 L949.20,999.79 L948.33,1000.00 L947.89,999.90 L947.28,999.58 L945.71,998.11 L943.87,996.22 L942.39,994.12 L941.51,992.23 L940.99,988.98 L940.46,987.93 L938.98,986.25 L937.58,985.83 L933.47,985.93 L931.98,985.41 L929.97,984.15 L924.11,980.05 L922.10,978.79 L914.93,973.55 L911.44,971.34 L910.56,971.03 L904.35,969.98 L893.95,969.98 L889.67,970.40 L884.86,971.97 L883.55,972.71 L882.76,973.55 L881.71,973.97 L881.19,974.81 L881.19,975.02 L880.75,975.33 L880.40,975.33 L880.14,975.02 L879.70,974.28 L879.17,972.50 L879.09,971.55 L878.65,970.61 L877.69,969.87 L874.98,969.35 L872.36,969.03 L868.16,968.93 L857.58,969.24 L851.98,969.56 L850.67,970.08 L850.15,970.71 L850.15,971.34 L850.15,971.76 L850.59,972.92 L850.85,974.91 L851.98,976.07 L853.38,977.01 L854.52,978.17 L855.57,978.69 L855.92,979.00" fill="none" stroke="#fc4c02" stroke-width="2" />
</svg>