<svg xmlns="http://www.w3.org/2000/svg" viewBox="0 0 1000 1000">
  <path d="M311.02,747.39 L311.87,746.65 L311.44,745.90 L311.87,739.94 L311.66,737.70 L304.81,719.08 L304.60,712.37 L302.25,706.41 L300.53,704.92 L271.66,704.17 L263.10,706.41 L240.21,721.31 L221.39,731.00 L212.83,739.94 L210.05,745.16 L210.27,746.65 L211.98,751.12 L213.26,754.84 L215.61,767.51 L217.11,771.24 L223.10,779.43 L230.59,792.85 L242.14,809.99 L247.91,821.91 L259.04,836.07 L263.32,850.22 L267.17,857.68 L280.00,871.83 L281.50,874.81 L283.64,880.77 L287.49,886.74 L290.48,888.97 L292.19,891.95 L304.17,897.91 L309.95,906.11 L319.14,915.05 L326.63,929.21 L331.34,935.92 L337.11,942.62 L345.24,948.58 L359.57,964.98 L365.56,969.45 L372.19,971.68 L381.82,977.65 L391.02,980.63 L394.01,983.61 L396.15,987.33 L400.00,991.06 L416.68,991.80 L424.17,994.78 L431.66,999.25 L435.08,1000.00 L445.13,996.27 L450.91,995.53 L457.33,997.02 L466.31,1000.00 L469.52,999.25 L484.28,991.80 L492.41,991.06 L499.04,991.80 L502.46,991.06 L510.16,983.61 L513.37,982.12 L521.93,982.12 L532.19,987.33 L539.89,987.33 L548.45,985.10 L556.58,978.39 L562.78,976.15 L578.18,976.15 L592.73,969.45 L599.14,969.45 L609.41,973.92 L617.11,974.66 L626.31,972.43 L643.21,962.74 L656.47,962.00 L666.10,957.53 L672.73,956.04 L685.35,958.27 L698.40,953.80 L705.88,949.33 L720.64,933.68 L729.63,929.21 L734.97,925.48 L741.18,917.29 L744.17,912.07 L768.56,865.13 L776.47,845.75 L782.89,831.59 L788.45,814.46 L798.29,800.30 L805.99,780.92 L810.05,768.26 L816.26,757.08 L824.39,735.47 L851.55,687.78 L856.47,675.86 L863.96,654.25 L867.59,645.31 L873.58,634.87 L886.42,616.99 L894.97,603.58 L909.95,571.54 L920.64,555.89 L924.71,547.69 L927.49,542.47 L932.83,526.83 L936.68,518.63 L941.39,511.18 L955.51,492.55 L964.28,478.39 L971.55,462.00 L980.96,437.41 L986.95,426.97 L995.29,419.52 L998.72,412.07 L1000.00,406.86 L998.50,404.62 L985.45,400.89 L976.04,394.93 L962.14,389.72 L960.21,386.74 L960.43,382.27 L962.14,371.83 L963.64,355.44 L963.42,348.73 L963.85,342.03 L963.21,339.05 L962.99,327.12 L964.28,308.49 L963.85,307.00 L962.35,305.51 L959.36,305.51 L957.43,307.00 L957.01,311.48 L956.36,313.71 L951.87,314.46 L910.37,311.48 L883.64,311.48 L881.71,309.99 L881.28,304.02 L881.93,294.34 L881.71,292.10 L880.21,289.87 L809.84,288.38 L808.98,286.89 L808.77,284.65 L812.62,271.24 L814.55,258.57 L814.76,251.86 L813.05,233.98 L809.20,218.33 L806.20,210.13 L795.94,194.49 L791.87,187.03 L791.44,183.31 L791.66,174.37 L791.02,165.42 L791.23,154.25 L790.59,143.07 L789.73,139.34 L786.31,131.89 L786.52,122.95 L786.31,120.72 L784.39,118.48 L778.18,115.50 L767.27,114.01 L753.58,114.01 L747.38,115.50 L730.27,114.01 L725.78,114.75 L714.87,113.26 L668.24,113.26 L667.17,113.26 L660.11,104.32 L649.41,103.58 L644.06,96.13 L638.50,93.14 L636.15,89.42 L609.63,87.93 L601.71,85.69 L584.81,86.44 L580.11,81.22 L573.90,79.73 L568.34,72.28 L565.35,66.32 L564.71,55.14 L564.92,32.04 L566.42,2.24 L565.35,0.00 L545.88,0.00 L540.96,5.22 L536.04,5.96 L534.76,8.94 L534.33,18.63 L534.12,27.57 L533.48,34.28 L533.69,45.45 L533.26,55.89 L533.26,68.55 L532.62,72.28 L532.62,82.71 L531.76,92.40 L530.48,113.26 L530.48,125.93 L529.84,134.13 L529.84,156.48 L527.70,158.72 L522.78,160.21 L507.81,160.95 L470.59,156.48 L459.25,157.23 L434.87,151.27 L406.84,149.03 L397.86,145.31 L389.09,148.29 L384.39,147.54 L378.61,145.31 L368.98,138.60 L365.13,134.13 L349.73,107.30 L334.12,85.69 L324.06,70.04 L322.57,66.32 L322.35,64.83 L322.99,60.36 L321.07,56.63 L314.87,55.14 L307.59,47.69 L296.26,37.26 L289.84,29.06 L284.92,35.02 L268.45,64.08 L241.50,105.07 L238.07,108.79 L232.94,119.23 L225.88,130.40 L219.89,141.58 L212.62,151.27 L210.70,154.99 L206.63,159.46 L195.29,175.11 L176.90,204.92 L171.76,210.88 L155.51,224.29 L150.59,229.51 L136.47,250.37 L124.28,270.49 L119.57,276.45 L101.82,287.63 L95.40,289.87 L91.98,286.89 L88.98,273.47 L86.84,271.98 L81.28,271.98 L75.94,277.20 L69.73,280.92 L52.41,286.14 L23.96,297.32 L0.64,307.75 L0.00,308.49 L2.35,318.18 L2.78,321.91 L3.64,325.63 L4.49,330.85 L8.98,353.95 L11.76,369.60 L24.81,441.88 L25.67,444.86 L29.95,452.31 L29.52,458.27 L26.95,463.49 L14.76,478.39 L14.12,479.88 L13.69,482.12 L14.33,483.61 L22.25,494.78 L32.73,511.18 L35.72,512.67 L43.85,511.92 L49.20,516.39 L50.27,520.12 L50.48,525.34 L50.91,529.06 L53.05,536.51 L54.97,538.75 L61.39,544.71 L68.02,552.16 L77.43,568.55 L91.98,587.18 L105.88,608.79" fill="none" stroke="#fc4c02" stroke-width="2" />
</svg>