<svg xmlns="http://www.w3.org/2000/svg" viewBox="0 0 1000 1000">
  <path d="M1.04,738.32 L0.52,733.64 L0.00,736.76 L1.04,738.32 L6.23,742.99 L19.20,771.03 L45.15,811.53 L50.86,825.55 L59.68,834.89 L100.16,895.64 L135.44,937.69 L174.36,976.64 L196.16,989.10 L204.98,989.10 L217.44,1000.00 L220.03,998.44 L233.00,976.64 L249.61,956.39 L257.39,950.16 L272.96,942.37 L275.56,937.69 L278.67,920.56 L281.27,919.00 L293.20,920.56 L299.43,925.23 L312.92,926.79 L320.19,931.46 L362.22,928.35 L379.87,925.23 L411.52,911.21 L445.77,890.97 L483.65,862.93 L489.36,855.14 L490.40,842.68 L489.88,783.49 L492.48,778.82 L503.89,778.82 L515.83,786.60 L531.91,791.28 L552.15,794.39 L675.66,786.60 L681.89,783.49 L690.19,774.14 L703.68,763.24 L738.45,741.43 L756.10,735.20 L767.51,742.99 L775.30,742.99 L782.04,735.20 L789.31,719.63 L799.17,705.61 L823.56,711.84 L868.71,704.05 L888.43,702.49 L905.55,707.17 L907.63,704.05 L911.26,690.03 L913.34,671.34 L914.89,649.53 L915.41,618.38 L914.89,598.13 L915.41,559.19 L917.49,521.81 L916.97,493.77 L917.49,478.19 L916.97,462.62 L917.49,409.66 L919.05,370.72 L922.68,353.58 L926.83,344.24 L927.87,341.12 L933.58,339.56 L936.69,336.45 L936.69,330.22 L937.73,320.87 L937.21,308.41 L938.25,302.18 L937.73,272.59 L937.73,250.78 L941.88,246.11 L977.69,239.88 L984.43,233.64 L977.17,204.05 L958.48,193.15 L957.45,191.59 L957.45,186.92 L953.30,182.24 L953.30,176.01 L942.92,138.63 L932.02,104.36 L929.94,90.34 L927.87,85.67 L923.20,82.55 L915.41,84.11 L905.03,93.46 L875.97,109.03 L850.54,105.92 L844.32,101.25 L840.69,95.02 L841.20,90.34 L840.69,87.23 L825.64,74.77 L810.07,46.73 L798.13,35.83 L794.50,26.48 L783.60,12.46 L784.64,10.90 L786.72,10.90 L796.06,24.92 L801.25,28.04 L805.92,40.50 L823.04,66.98 L847.95,93.46 L858.33,96.57 L874.42,98.13 L898.29,91.90 L898.81,90.34 L888.43,95.02 L868.19,98.13 L848.99,95.02 L833.42,81.00 L812.66,52.96 L805.40,38.94 L805.92,24.92 L818.37,3.12 L818.89,4.67 L816.81,10.90 L809.55,20.25 L806.95,24.92 L806.43,28.04 L809.55,43.61 L813.18,52.96 L833.42,81.00 L849.51,93.46 L869.75,99.69 L882.72,98.13 L904.51,88.79 L884.28,96.57 L873.90,98.13 L858.85,96.57 L846.39,91.90 L827.71,74.77 L814.22,54.52 L810.59,48.29 L811.11,42.06 L807.47,31.15 L807.47,24.92 L810.59,17.13 L816.81,10.90 L818.89,1.56 L820.97,1.56 L819.41,1.56 L819.93,3.12 L814.22,15.58 L807.99,21.81 L806.43,26.48 L806.95,29.60 L811.11,38.94 L812.14,48.29 L814.22,52.96 L826.15,71.65 L847.95,93.46 L860.40,98.13 L870.78,99.69 L893.10,95.02 L897.77,90.34 L898.81,91.90 L875.45,98.13 L860.92,98.13 L847.95,93.46 L827.19,73.21 L812.66,52.96 L811.11,48.29 L810.59,38.94 L807.99,26.48 L812.14,14.02 L813.70,12.46 L817.85,3.12 L817.85,1.56 L818.37,3.12 L817.33,1.56 L818.89,3.12 L817.33,7.79 L810.07,17.13 L807.47,23.36 L806.95,29.60 L810.59,37.38 L810.59,45.17 L813.70,52.96 L830.83,76.32 L849.51,95.02 L863.00,99.69 L877.53,98.13 L905.55,90.34 L907.11,87.23 L893.62,93.46 L873.90,99.69 L848.47,95.02 L833.42,82.55 L813.70,56.07 L811.11,48.29 L810.59,40.50 L807.47,31.15 L806.43,24.92 L806.95,23.36 L813.18,14.02 L815.78,9.35 L816.81,1.56 L817.85,3.12 L816.81,1.56 L817.85,1.56 L817.33,6.23 L809.55,20.25 L806.43,26.48 L806.43,29.60 L810.59,38.94 L812.14,49.84 L824.60,68.54 L847.95,93.46 L860.92,98.13 L872.34,99.69 L883.24,98.13 L907.11,88.79 L888.95,95.02 L868.19,99.69 L852.10,95.02 L837.05,84.11 L814.74,57.63 L811.62,49.84 L810.59,40.50 L807.47,26.48 L807.99,21.81 L807.99,20.25 L811.11,14.02 L814.74,10.90 L818.37,1.56 L818.89,3.12 L817.85,3.12 L816.81,9.35 L811.62,14.02 L807.47,23.36 L812.14,51.40 L823.04,66.98 L832.90,79.44 L851.06,93.46 L863.52,98.13 L880.12,98.13 L919.05,84.11 L925.79,85.67 L923.20,84.11 L923.72,82.55 L919.56,84.11 L882.72,98.13 L868.19,99.69 L851.06,96.57 L827.71,74.77 L813.18,54.52 L810.59,46.73 L809.55,37.38 L807.47,31.15 L807.47,21.81 L810.59,14.02 L818.89,1.56 L817.85,7.79 L811.11,15.58 L807.47,23.36 L807.47,24.92 L811.11,40.50 L812.14,51.40 L828.23,74.77 L850.03,95.02 L861.44,98.13 L878.57,98.13 L921.12,82.55 L875.45,99.69 L866.11,99.69 L849.51,95.02 L826.15,73.21 L812.14,52.96 L810.59,45.17 L810.07,37.38 L806.95,29.60 L807.99,20.25 L811.62,12.46 L815.26,10.90 L818.37,1.56 L817.33,1.56 L818.89,4.67 L817.85,6.23 L810.59,15.58 L806.43,24.92 L806.43,28.04 L810.07,37.38 L811.62,48.29 L815.26,52.96 L833.94,79.44 L852.62,95.02 L867.67,98.13 L876.49,98.13 L921.64,82.55 L926.31,82.55 L930.46,85.67 L914.89,84.11 L889.47,95.02 L871.30,99.69 L853.14,95.02 L831.34,77.88 L813.70,52.96 L811.11,45.17 L810.07,35.83 L807.99,29.60 L807.47,21.81 L810.59,14.02 L816.81,4.67 L817.33,1.56 L818.89,0.00 L818.37,4.67 L812.14,12.46 L808.51,23.36 L812.66,49.84 L823.04,68.54 L828.75,76.32 L854.18,95.02 L871.82,99.69 L919.56,82.55 L924.75,82.55 L929.94,87.23 L933.58,84.11 L928.39,90.34 L927.35,95.02 L930.46,98.13 L932.02,110.59 L935.65,115.26 L938.25,123.05 L938.25,127.73 L942.40,133.96 L947.59,149.53 L949.14,158.88 L952.26,165.11 L952.26,171.34 L953.81,177.57 L963.67,183.80 L977.17,196.26 L980.80,210.28 L982.87,221.18 L995.85,258.57 L1000.00,277.26 L998.44,341.12 L998.44,381.62 L996.89,431.46 L997.41,475.08 L925.79,476.64 L911.78,470.40 L902.96,473.52 L846.39,471.96 L809.03,475.08 L802.28,470.40 L791.39,454.83 L783.08,447.04 L708.35,447.04 L707.32,450.16 L706.80,457.94 L705.24,517.13 L705.76,537.38 L705.24,577.88 L704.72,590.34 L705.76,618.38 L704.72,637.07 L706.80,654.21 L713.54,688.47 L714.06,700.93 L713.54,714.95 L714.06,721.18 L729.11,746.11 L725.48,750.78 L712.51,761.68 L701.09,767.91 L686.04,785.05 L670.99,789.72 L613.39,789.72 L553.19,792.83 L528.80,791.28 L511.68,780.37 L495.59,778.82 L493.51,780.37 L491.44,789.72 L489.88,833.33 L490.40,847.35 L489.36,856.70 L447.33,892.52 L402.18,915.89 L344.58,933.02 L313.44,933.02 L303.06,929.91 L296.32,923.68" fill="none" stroke="#fc4c02" stroke-width="2" />
</svg>