<svg version="1.1" viewBox="0.0 0.0 600.0 371.0" fill="none" stroke="none" stroke-linecap="square" stroke-miterlimit="10" width="600" height="371" xmlns:xlink="http://www.w3.org/1999/xlink" xmlns="http://www.w3.org/2000/svg"><path fill="#ffffff" d="M0 0L600.0 0L600.0 371.0L0 371.0L0 0Z" fill-rule="nonzero"/><path fill="#ea4335" d="M300.0 54.916668C302.88516 54.916668 305.7697 55.0006 308.65002 55.168358L300.0 203.68333Z" fill-rule="nonzero"/><path fill="#fbbc04" d="M308.65002 55.168358C309.61005 55.224274 310.56952 55.289494 311.5283 55.364017L300.0 203.68333Z" fill-rule="nonzero"/><path fill="#4285f4" d="M311.5283 55.364017C392.32178 61.643784 453.22687 131.43329 448.51498 212.33334C443.80307 293.2334 375.20773 355.48038 294.2315 352.33813C213.2553 349.19586 149.68988 281.82047 151.2613 200.79855C152.83272 119.77663 218.96284 54.916668 300.0 54.916668L300.0 203.68333Z" fill-rule="nonzero"/><path fill="#1a1a1a" d="M19.14375 332.96564L20.175 333.1219Q20.2375 333.59064 20.534374 333.8094Q20.925 334.10626 21.596874 334.10626Q22.33125 334.10626 22.721874 333.8094Q23.128124 333.5125 23.26875 332.9969Q23.3625 332.66876 23.346874 331.6375Q22.659374 332.45 21.628124 332.45Q20.346874 332.45 19.64375 331.52814Q18.940624 330.59064 18.940624 329.3094Q18.940624 328.41876 19.253124 327.66876Q19.58125 326.90314 20.190624 326.4969Q20.8 326.09064 21.628124 326.09064Q22.7375 326.09064 23.45625 326.98126L23.45625 326.23126L24.425 326.23126L24.425 331.60626Q24.425 333.0594 24.128124 333.66876Q23.83125 334.27814 23.190624 334.6219Q22.55 334.98126 21.6125 334.98126Q20.503124 334.98126 19.815624 334.48126Q19.128124 333.98126 19.14375 332.96564ZM20.01875 329.23126Q20.01875 330.45 20.503124 331.0125Q20.9875 331.575 21.721874 331.575Q22.45625 331.575 22.940624 331.0125Q23.440624 330.45 23.440624 329.2625Q23.440624 328.1219 22.925 327.54376Q22.425 326.96564 21.70625 326.96564Q21.003124 326.96564 20.503124 327.54376Q20.01875 328.10626 20.01875 329.23126ZM25.95625 329.34064Q25.95625 327.60626 26.909374 326.77814Q27.70625 326.09064 28.8625 326.09064Q30.14375 326.09064 30.95625 326.9344Q31.784374 327.7625 31.784374 329.2469Q31.784374 330.45 31.425 331.1375Q31.065624 331.825 30.3625 332.21564Q29.675 332.59064 28.8625 332.59064Q27.565624 332.59064 26.753124 331.7625Q25.95625 330.91876 25.95625 329.34064ZM27.034374 329.34064Q27.034374 330.52814 27.55 331.1219Q28.08125 331.71564 28.8625 331.71564Q29.659374 331.71564 30.175 331.1219Q30.690624 330.52814 30.690624 329.3094Q30.690624 328.15314 30.159374 327.5594Q29.64375 326.96564 28.8625 326.96564Q28.08125 326.96564 27.55 327.5594Q27.034374 328.1375 27.034374 329.34064ZM32.95625 329.34064Q32.95625 327.60626 33.909374 326.77814Q34.70625 326.09064 35.8625 326.09064Q37.14375 326.09064 37.95625 326.9344Q38.784374 327.7625 38.784374 329.2469Q38.784374 330.45 38.425 331.1375Q38.065624 331.825 37.3625 332.21564Q36.675 332.59064 35.8625 332.59064Q34.565624 332.59064 33.753124 331.7625Q32.95625 330.91876 32.95625 329.34064ZM34.034374 329.34064Q34.034374 330.52814 34.55 331.1219Q35.08125 331.71564 35.8625 331.71564Q36.659374 331.71564 37.175 331.1219Q37.690624 330.52814 37.690624 329.3094Q37.690624 328.15314 37.159374 327.5594Q36.64375 326.96564 35.8625 326.96564Q35.08125 326.96564 34.55 327.5594Q34.034374 328.1375 34.034374 329.34064ZM44.378124 332.45L44.378124 331.66876Q43.784374 332.59064 42.64375 332.59064Q41.89375 332.59064 41.26875 332.1844Q40.64375 331.7625 40.3 331.02814Q39.95625 330.29376 39.95625 329.34064Q39.95625 328.41876 40.26875 327.65314Q40.58125 326.8875 41.20625 326.4969Q41.83125 326.09064 42.596874 326.09064Q43.159374 326.09064 43.596874 326.325Q44.034374 326.5594 44.315624 326.9344L44.315624 323.85626L45.3625 323.85626L45.3625 332.45L44.378124 332.45ZM41.05 329.34064Q41.05 330.54376 41.55 331.1375Q42.05 331.71564 42.7375 331.71564Q43.425 331.71564 43.909374 331.15314Q44.39375 330.59064 44.39375 329.4344Q44.39375 328.15314 43.89375 327.5594Q43.409374 326.96564 42.690624 326.96564Q41.9875 326.96564 41.51875 327.54376Q41.05 328.10626 41.05 329.34064Z" fill-rule="nonzero"/><path fill="#9e9e9e" d="M19.20625 347.46564L20.221874 347.3719Q20.346874 348.09064 20.70625 348.41876Q21.08125 348.73126 21.64375 348.73126Q22.128124 348.73126 22.4875 348.5125Q22.8625 348.27814 23.096874 347.91876Q23.33125 347.54376 23.4875 346.91876Q23.64375 346.27814 23.64375 345.6219Q23.64375 345.54376 23.64375 345.40314Q23.33125 345.90314 22.784374 346.23126Q22.2375 346.54376 21.596874 346.54376Q20.51875 346.54376 19.784374 345.77814Q19.05 344.9969 19.05 343.73126Q19.05 342.41876 19.815624 341.6219Q20.596874 340.825 21.753124 340.825Q22.58125 340.825 23.26875 341.27814Q23.971874 341.73126 24.33125 342.575Q24.690624 343.40314 24.690624 344.98126Q24.690624 346.6219 24.33125 347.60626Q23.9875 348.575 23.26875 349.09064Q22.565624 349.59064 21.628124 349.59064Q20.6125 349.59064 19.971874 349.04376Q19.33125 348.48126 19.20625 347.46564ZM23.51875 343.66876Q23.51875 342.7625 23.034374 342.23126Q22.565624 341.7 21.878124 341.7Q21.175 341.7 20.64375 342.27814Q20.128124 342.84064 20.128124 343.7625Q20.128124 344.575 20.628124 345.09064Q21.128124 345.60626 21.846874 345.60626Q22.58125 345.60626 23.05 345.09064Q23.51875 344.575 23.51875 343.66876ZM27.675 344.79376Q27.01875 344.54376 26.690624 344.10626Q26.378124 343.65314 26.378124 343.04376Q26.378124 342.10626 27.05 341.46564Q27.7375 340.825 28.846874 340.825Q29.971874 340.825 30.659374 341.48126Q31.346874 342.1375 31.346874 343.075Q31.346874 343.66876 31.034374 344.10626Q30.721874 344.54376 30.08125 344.79376Q30.878124 345.04376 31.284374 345.6219Q31.690624 346.2 31.690624 346.9969Q31.690624 348.09064 30.909374 348.84064Q30.14375 349.59064 28.8625 349.59064Q27.596874 349.59064 26.815624 348.84064Q26.034374 348.09064 26.034374 346.96564Q26.034374 346.1219 26.45625 345.5594Q26.89375 344.9969 27.675 344.79376ZM27.45625 342.9969Q27.45625 343.60626 27.846874 343.9969Q28.253124 344.3875 28.878124 344.3875Q29.4875 344.3875 29.878124 344.0125Q30.26875 343.6219 30.26875 343.0594Q30.26875 342.48126 29.8625 342.09064Q29.45625 341.6844 28.8625 341.6844Q28.253124 341.6844 27.846874 342.075Q27.45625 342.46564 27.45625 342.9969ZM27.128124 346.96564Q27.128124 347.41876 27.33125 347.84064Q27.55 348.2625 27.971874 348.4969Q28.39375 348.73126 28.878124 348.73126Q29.628124 348.73126 30.1125 348.2469Q30.6125 347.7625 30.6125 347.0125Q30.6125 346.2469 30.1125 345.7469Q29.6125 345.2469 28.846874 345.2469Q28.096874 345.2469 27.6125 345.7469Q27.128124 346.23126 27.128124 346.96564ZM33.64375 349.45L33.64375 348.2469L34.846874 348.2469L34.846874 349.45L33.64375 349.45ZM37.675 344.79376Q37.01875 344.54376 36.690624 344.10626Q36.378124 343.65314 36.378124 343.04376Q36.378124 342.10626 37.05 341.46564Q37.7375 340.825 38.846874 340.825Q39.971874 340.825 40.659374 341.48126Q41.346874 342.1375 41.346874 343.075Q41.346874 343.66876 41.034374 344.10626Q40.721874 344.54376 40.08125 344.79376Q40.878124 345.04376 41.284374 345.6219Q41.690624 346.2 41.690624 346.9969Q41.690624 348.09064 40.909374 348.84064Q40.14375 349.59064 38.8625 349.59064Q37.596874 349.59064 36.815624 348.84064Q36.034374 348.09064 36.034374 346.96564Q36.034374 346.1219 36.45625 345.5594Q36.89375 344.9969 37.675 344.79376ZM37.45625 342.9969Q37.45625 343.60626 37.846874 343.9969Q38.253124 344.3875 38.878124 344.3875Q39.4875 344.3875 39.878124 344.0125Q40.26875 343.6219 40.26875 343.0594Q40.26875 342.48126 39.8625 342.09064Q39.45625 341.6844 38.8625 341.6844Q38.253124 341.6844 37.846874 342.075Q37.45625 342.46564 37.45625 342.9969ZM37.128124 346.96564Q37.128124 347.41876 37.33125 347.84064Q37.55 348.2625 37.971874 348.4969Q38.39375 348.73126 38.878124 348.73126Q39.628124 348.73126 40.1125 348.2469Q40.6125 347.7625 40.6125 347.0125Q40.6125 346.2469 40.1125 345.7469Q39.6125 345.2469 38.846874 345.2469Q38.096874 345.2469 37.6125 345.7469Q37.128124 346.23126 37.128124 346.96564ZM43.253124 342.91876Q43.253124 341.9969 43.70625 341.35626Q44.175 340.71564 45.05 340.71564Q45.8625 340.71564 46.39375 341.29376Q46.925 341.8719 46.925 342.98126Q46.925 344.075 46.378124 344.66876Q45.846874 345.2469 45.065624 345.2469Q44.284374 345.2469 43.76875 344.66876Q43.253124 344.09064 43.253124 342.91876ZM45.08125 341.4344Q44.690624 341.4344 44.425 341.77814Q44.175 342.1219 44.175 343.02814Q44.175 343.85626 44.425 344.2Q44.690624 344.52814 45.08125 344.52814Q45.4875 344.52814 45.7375 344.1844Q46.003124 343.84064 46.003124 342.95Q46.003124 342.10626 45.7375 341.77814Q45.471874 341.4344 45.08125 341.4344ZM45.08125 349.7625L49.784374 340.71564L50.64375 340.71564L45.95625 349.7625L45.08125 349.7625ZM48.8 347.4344Q48.8 346.5125 49.253124 345.8719Q49.721874 345.23126 50.6125 345.23126Q51.425 345.23126 51.95625 345.8094Q52.4875 346.3719 52.4875 347.4969Q52.4875 348.59064 51.940624 349.1844Q51.409374 349.7625 50.6125 349.7625Q49.846874 349.7625 49.315624 349.1844Q48.8 348.60626 48.8 347.4344ZM50.64375 345.95Q50.2375 345.95 49.971874 346.29376Q49.721874 346.6375 49.721874 347.54376Q49.721874 348.35626 49.9875 348.7Q50.253124 349.04376 50.64375 349.04376Q51.034374 349.04376 51.3 348.7Q51.565624 348.35626 51.565624 347.45Q51.565624 346.6219 51.3 346.29376Q51.034374 345.95 50.64375 345.95Z" fill-rule="nonzero"/><path stroke="#757575" stroke-width="1.0" stroke-linecap="butt" d="M18.55 336.95L145.23334 336.95L294.51993 344.9054" fill-rule="nonzero"/><path fill="#9e9e9e" d="M296.51993 344.9054C296.51993 343.8008 295.6245 342.9054 294.51993 342.9054C293.41537 342.9054 292.51993 343.8008 292.51993 344.9054C292.51993 346.00995 293.41537 346.9054 294.51993 346.9054C295.6245 346.9054 296.51993 346.00995 296.51993 344.9054" fill-rule="nonzero"/><path fill="#1a1a1a" d="M557.2469 68.30729L557.2469 59.697914L558.2 59.697914L558.2 60.49479Q558.54376 60.02604 558.96564 59.791664Q559.40314 59.55729 560.0125 59.55729Q560.8094 59.55729 561.41876 59.96354Q562.02814 60.36979 562.325 61.11979Q562.6375 61.86979 562.6375 62.760414Q562.6375 63.71354 562.29376 64.479164Q561.96564 65.24479 561.3094 65.65104Q560.65314 66.05729 559.9344 66.05729Q559.40314 66.05729 558.98126 65.83854Q558.5594 65.604164 558.29376 65.27604L558.29376 68.30729L557.2469 68.30729ZM558.2 62.83854Q558.2 64.041664 558.6844 64.61979Q559.16876 65.18229 559.85626 65.18229Q560.5594 65.18229 561.0594 64.58854Q561.5594 63.99479 561.5594 62.74479Q561.5594 61.55729 561.075 60.979164Q560.59064 60.385414 559.90314 60.385414Q559.23126 60.385414 558.71564 61.010414Q558.2 61.635414 558.2 62.83854ZM563.85626 62.80729Q563.85626 61.072914 564.8094 60.24479Q565.60626 59.55729 566.7625 59.55729Q568.04376 59.55729 568.85626 60.40104Q569.6844 61.229164 569.6844 62.71354Q569.6844 63.916664 569.325 64.604164Q568.96564 65.291664 568.2625 65.68229Q567.575 66.05729 566.7625 66.05729Q565.46564 66.05729 564.65314 65.229164Q563.85626 64.385414 563.85626 62.80729ZM564.9344 62.80729Q564.9344 63.99479 565.45 64.58854Q565.98126 65.18229 566.7625 65.18229Q567.5594 65.18229 568.075 64.58854Q568.59064 63.99479 568.59064 62.77604Q568.59064 61.61979 568.0594 61.02604Q567.54376 60.43229 566.7625 60.43229Q565.98126 60.43229 565.45 61.02604Q564.9344 61.604164 564.9344 62.80729ZM570.85626 62.80729Q570.85626 61.072914 571.8094 60.24479Q572.60626 59.55729 573.7625 59.55729Q575.04376 59.55729 575.85626 60.40104Q576.6844 61.229164 576.6844 62.71354Q576.6844 63.916664 576.325 64.604164Q575.96564 65.291664 575.2625 65.68229Q574.575 66.05729 573.7625 66.05729Q572.46564 66.05729 571.65314 65.229164Q570.85626 64.385414 570.85626 62.80729ZM571.9344 62.80729Q571.9344 63.99479 572.45 64.58854Q572.98126 65.18229 573.7625 65.18229Q574.5594 65.18229 575.075 64.58854Q575.59064 63.99479 575.59064 62.77604Q575.59064 61.61979 575.0594 61.02604Q574.54376 60.43229 573.7625 60.43229Q572.98126 60.43229 572.45 61.02604Q571.9344 61.604164 571.9344 62.80729ZM578.23126 65.916664L578.23126 59.697914L579.1844 59.697914L579.1844 60.635414Q579.54376 59.979164 579.84064 59.77604Q580.15314 59.55729 580.52814 59.55729Q581.0594 59.55729 581.60626 59.885414L581.2469 60.86979Q580.85626 60.635414 580.48126 60.635414Q580.1219 60.635414 579.84064 60.854164Q579.575 61.05729 579.46564 61.43229Q579.27814 61.99479 579.27814 62.65104L579.27814 65.916664L578.23126 65.916664Z" fill-rule="nonzero"/><path fill="#9e9e9e" d="M553.95 78.68229Q553.95 77.15104 554.2625 76.229164Q554.575 75.291664 555.1844 74.791664Q555.8094 74.291664 556.7469 74.291664Q557.4344 74.291664 557.95 74.572914Q558.48126 74.854164 558.825 75.385414Q559.16876 75.90104 559.35626 76.65104Q559.54376 77.40104 559.54376 78.68229Q559.54376 80.197914 559.23126 81.11979Q558.9344 82.041664 558.3094 82.55729Q557.7 83.05729 556.7469 83.05729Q555.5125 83.05729 554.79376 82.166664Q553.95 81.104164 553.95 78.68229ZM555.02814 78.68229Q555.02814 80.791664 555.52814 81.49479Q556.02814 82.197914 556.7469 82.197914Q557.48126 82.197914 557.96564 81.49479Q558.46564 80.791664 558.46564 78.68229Q558.46564 76.55729 557.96564 75.86979Q557.48126 75.166664 556.73126 75.166664Q556.0125 75.166664 555.575 75.77604Q555.02814 76.55729 555.02814 78.68229ZM561.54376 82.916664L561.54376 81.71354L562.7469 81.71354L562.7469 82.916664L561.54376 82.916664ZM564.10626 80.93229L565.1219 80.83854Q565.2469 81.55729 565.60626 81.885414Q565.98126 82.197914 566.54376 82.197914Q567.02814 82.197914 567.3875 81.979164Q567.7625 81.74479 567.9969 81.385414Q568.23126 81.010414 568.3875 80.385414Q568.54376 79.74479 568.54376 79.08854Q568.54376 79.010414 568.54376 78.86979Q568.23126 79.36979 567.6844 79.697914Q567.1375 80.010414 566.4969 80.010414Q565.41876 80.010414 564.6844 79.24479Q563.95 78.46354 563.95 77.197914Q563.95 75.885414 564.71564 75.08854Q565.4969 74.291664 566.65314 74.291664Q567.48126 74.291664 568.16876 74.74479Q568.8719 75.197914 569.23126 76.041664Q569.59064 76.86979 569.59064 78.447914Q569.59064 80.08854 569.23126 81.072914Q568.8875 82.041664 568.16876 82.55729Q567.46564 83.05729 566.52814 83.05729Q565.5125 83.05729 564.8719 82.510414Q564.23126 81.947914 564.10626 80.93229ZM568.41876 77.135414Q568.41876 76.229164 567.9344 75.697914Q567.46564 75.166664 566.77814 75.166664Q566.075 75.166664 565.54376 75.74479Q565.02814 76.30729 565.02814 77.229164Q565.02814 78.041664 565.52814 78.55729Q566.02814 79.072914 566.7469 79.072914Q567.48126 79.072914 567.95 78.55729Q568.41876 78.041664 568.41876 77.135414ZM571.15314 76.385414Q571.15314 75.46354 571.60626 74.822914Q572.075 74.18229 572.95 74.18229Q573.7625 74.18229 574.29376 74.760414Q574.825 75.33854 574.825 76.447914Q574.825 77.541664 574.27814 78.135414Q573.7469 78.71354 572.96564 78.71354Q572.1844 78.71354 571.66876 78.135414Q571.15314 77.55729 571.15314 76.385414ZM572.98126 74.90104Q572.59064 74.90104 572.325 75.24479Q572.075 75.58854 572.075 76.49479Q572.075 77.322914 572.325 77.666664Q572.59064 77.99479 572.98126 77.99479Q573.3875 77.99479 573.6375 77.65104Q573.90314 77.30729 573.90314 76.416664Q573.90314 75.572914 573.6375 75.24479Q573.3719 74.90104 572.98126 74.90104ZM572.98126 83.229164L577.6844 74.18229L578.54376 74.18229L573.85626 83.229164L572.98126 83.229164ZM576.7 80.90104Q576.7 79.979164 577.15314 79.33854Q577.6219 78.697914 578.5125 78.697914Q579.325 78.697914 579.85626 79.27604Q580.3875 79.83854 580.3875 80.96354Q580.3875 82.05729 579.84064 82.65104Q579.3094 83.229164 578.5125 83.229164Q577.7469 83.229164 577.21564 82.65104Q576.7 82.072914 576.7 80.90104ZM578.54376 79.416664Q578.1375 79.416664 577.8719 79.760414Q577.6219 80.104164 577.6219 81.010414Q577.6219 81.822914 577.8875 82.166664Q578.15314 82.510414 578.54376 82.510414Q578.9344 82.510414 579.2 82.166664Q579.46564 81.822914 579.46564 80.916664Q579.46564 80.08854 579.2 79.760414Q578.9344 79.416664 578.54376 79.416664Z" fill-rule="nonzero"/><path stroke="#757575" stroke-width="1.0" stroke-linecap="butt" d="M581.45 70.416664L454.76666 70.416664L304.1105 62.414787" fill-rule="nonzero"/><path fill="#9e9e9e" d="M306.1105 62.414787C306.1105 61.31022 305.21506 60.414787 304.1105 60.414787C303.00592 60.414787 302.1105 61.31022 302.1105 62.414787C302.1105 63.51936 303.00592 64.41479 304.1105 64.41479C305.21506 64.41479 306.1105 63.51936 306.1105 62.414787" fill-rule="nonzero"/><path fill="#757575" d="M30.315624 32.534374L32.20625 33.003124Q31.6125 35.346874 30.065624 36.58125Q28.51875 37.8 26.26875 37.8Q23.95625 37.8 22.503124 36.8625Q21.065624 35.909374 20.3 34.128124Q19.55 32.33125 19.55 30.284374Q19.55 28.05 20.39375 26.39375Q21.253124 24.721874 22.83125 23.8625Q24.409374 22.9875 26.3 22.9875Q28.45625 22.9875 29.909374 24.08125Q31.378124 25.175 31.95625 27.159374L30.096874 27.596874Q29.596874 26.034374 28.64375 25.33125Q27.70625 24.6125 26.26875 24.6125Q24.6125 24.6125 23.503124 25.409374Q22.39375 26.190624 21.940624 27.534374Q21.503124 28.8625 21.503124 30.26875Q21.503124 32.096874 22.034374 33.471874Q22.565624 34.83125 23.690624 35.503124Q24.815624 36.175 26.1125 36.175Q27.70625 36.175 28.815624 35.253124Q29.925 34.33125 30.315624 32.534374ZM34.01875 37.55L34.01875 23.2375L35.909374 23.2375L35.909374 35.8625L42.95625 35.8625L42.95625 37.55L34.01875 37.55ZM44.45625 32.95625L46.2375 32.8Q46.3625 33.8625 46.815624 34.55Q47.284374 35.2375 48.253124 35.675Q49.2375 36.096874 50.471874 36.096874Q51.55 36.096874 52.378124 35.784374Q53.20625 35.45625 53.6125 34.89375Q54.01875 34.33125 54.01875 33.659374Q54.01875 32.9875 53.628124 32.4875Q53.2375 31.9875 52.346874 31.64375Q51.76875 31.409374 49.784374 30.940624Q47.815624 30.471874 47.034374 30.05Q46.003124 29.51875 45.503124 28.721874Q45.003124 27.925 45.003124 26.940624Q45.003124 25.846874 45.6125 24.909374Q46.221874 23.971874 47.409374 23.4875Q48.596874 22.9875 50.034374 22.9875Q51.628124 22.9875 52.846874 23.503124Q54.065624 24.01875 54.70625 25.01875Q55.3625 26.003124 55.409374 27.26875L53.596874 27.409374Q53.45625 26.05 52.6125 25.3625Q51.76875 24.659374 50.1125 24.659374Q48.39375 24.659374 47.596874 25.3Q46.815624 25.925 46.815624 26.8Q46.815624 27.58125 47.378124 28.08125Q47.925 28.58125 50.2375 29.096874Q52.55 29.6125 53.409374 30.003124Q54.659374 30.58125 55.253124 31.471874Q55.846874 32.346874 55.846874 33.503124Q55.846874 34.64375 55.190624 35.659374Q54.534374 36.675 53.3 37.2375Q52.08125 37.8 50.55 37.8Q48.6125 37.8 47.3 37.2375Q45.9875 36.659374 45.2375 35.51875Q44.4875 34.378124 44.45625 32.95625ZM63.846874 37.55L63.846874 27.175L65.425 27.175L65.425 28.753124Q66.03438 27.64375 66.55 27.3Q67.06563 26.940624 67.675 26.940624Q68.56563 26.940624 69.4875 27.503124L68.87813 29.14375Q68.2375 28.753124 67.59688 28.753124Q67.01875 28.753124 66.55 29.1125Q66.09688 29.45625 65.89375 30.065624Q65.6125 31.003124 65.6125 32.1125L65.6125 37.55L63.846874 37.55ZM77.64375 36.26875Q76.65938 37.096874 75.75313 37.440624Q74.84688 37.784374 73.81563 37.784374Q72.1125 37.784374 71.19063 36.95625Q70.26875 36.1125 70.26875 34.815624Q70.26875 34.05 70.6125 33.425Q70.97188 32.8 71.53438 32.425Q72.09688 32.034374 72.8 31.83125Q73.31563 31.70625 74.3625 31.565624Q76.4875 31.315624 77.4875 30.971874Q77.50313 30.6125 77.50313 30.503124Q77.50313 29.440624 77.00313 28.9875Q76.33125 28.39375 75.00313 28.39375Q73.75313 28.39375 73.15938 28.83125Q72.58125 29.26875 72.3 30.378124L70.58125 30.14375Q70.81563 29.034374 71.34688 28.3625Q71.87813 27.675 72.89375 27.315624Q73.90938 26.940624 75.25313 26.940624Q76.58125 26.940624 77.40938 27.253124Q78.2375 27.565624 78.62813 28.05Q79.01875 28.51875 79.175 29.2375Q79.26875 29.690624 79.26875 30.8625L79.26875 33.20625Q79.26875 35.659374 79.37813 36.315624Q79.4875 36.95625 79.83125 37.55L77.9875 37.55Q77.72188 37.003124 77.64375 36.26875ZM77.4875 32.346874Q76.53438 32.7375 74.6125 33.003124Q73.53438 33.159374 73.08125 33.3625Q72.64375 33.55 72.39375 33.925Q72.14375 34.3 72.14375 34.76875Q72.14375 35.471874 72.675 35.940624Q73.20625 36.409374 74.2375 36.409374Q75.25313 36.409374 76.03438 35.971874Q76.83125 35.51875 77.20625 34.753124Q77.4875 34.14375 77.4875 32.9875L77.4875 32.346874ZM85.70625 35.971874L85.95625 37.534374Q85.22188 37.690624 84.62813 37.690624Q83.675 37.690624 83.14375 37.39375Q82.62813 37.08125 82.40938 36.596874Q82.19063 36.096874 82.19063 34.51875L82.19063 28.55L80.90938 28.55L80.90938 27.175L82.19063 27.175L82.19063 24.6125L83.94063 23.55L83.94063 27.175L85.70625 27.175L85.70625 28.55L83.94063 28.55L83.94063 34.6125Q83.94063 35.3625 84.03438 35.58125Q84.12813 35.784374 84.33125 35.925Q84.55 36.05 84.94063 36.05Q85.22188 36.05 85.70625 35.971874ZM87.87813 25.253124L87.87813 23.2375L89.64375 23.2375L89.64375 25.253124L87.87813 25.253124ZM87.87813 37.55L87.87813 27.175L89.64375 27.175L89.64375 37.55L87.87813 37.55ZM91.8625 37.55L91.8625 27.175L93.45625 27.175L93.45625 28.659374Q94.59688 26.940624 96.75313 26.940624Q97.69063 26.940624 98.47188 27.284374Q99.26875 27.6125 99.65938 28.159374Q100.05 28.70625 100.20625 29.45625Q100.3 29.95625 100.3 31.175L100.3 37.55L98.53438 37.55L98.53438 31.2375Q98.53438 30.159374 98.33125 29.628124Q98.12813 29.096874 97.59688 28.784374Q97.08125 28.471874 96.37813 28.471874Q95.25313 28.471874 94.44063 29.190624Q93.62813 29.89375 93.62813 31.878124L93.62813 37.55L91.8625 37.55ZM101.55 38.409374L103.25313 38.659374Q103.3625 39.45625 103.84688 39.815624Q104.50313 40.3 105.64375 40.3Q106.8625 40.3 107.51875 39.815624Q108.19063 39.33125 108.425 38.45625Q108.56563 37.909374 108.55 36.190624Q107.39375 37.55 105.675 37.55Q103.53438 37.55 102.3625 36.003124Q101.19063 34.45625 101.19063 32.3Q101.19063 30.815624 101.72188 29.565624Q102.26875 28.315624 103.28438 27.628124Q104.31563 26.940624 105.69063 26.940624Q107.51875 26.940624 108.72188 28.425L108.72188 27.175L110.33125 27.175L110.33125 36.14375Q110.33125 38.565624 109.83125 39.565624Q109.34688 40.58125 108.26875 41.159374Q107.20625 41.753124 105.64375 41.753124Q103.8 41.753124 102.64375 40.925Q101.50313 40.096874 101.55 38.409374ZM103.00313 32.175Q103.00313 34.221874 103.81563 35.159374Q104.62813 36.096874 105.84688 36.096874Q107.05 36.096874 107.8625 35.159374Q108.69063 34.221874 108.69063 32.2375Q108.69063 30.33125 107.84688 29.3625Q107.00313 28.39375 105.81563 28.39375Q104.64375 28.39375 103.81563 29.346874Q103.00313 30.3 103.00313 32.175ZM112.15938 34.45625L113.90938 34.175Q114.05 35.221874 114.72188 35.784374Q115.39375 36.33125 116.59688 36.33125Q117.8 36.33125 118.37813 35.846874Q118.97188 35.346874 118.97188 34.690624Q118.97188 34.096874 118.45625 33.753124Q118.09688 33.51875 116.65938 33.159374Q114.72188 32.659374 113.97188 32.315624Q113.2375 31.95625 112.84688 31.33125Q112.45625 30.690624 112.45625 29.925Q112.45625 29.2375 112.76875 28.64375Q113.09688 28.05 113.64375 27.659374Q114.05 27.3625 114.75313 27.159374Q115.47188 26.940624 116.28438 26.940624Q117.50313 26.940624 118.425 27.3Q119.34688 27.64375 119.78438 28.253124Q120.22188 28.846874 120.39375 29.846874L118.675 30.08125Q118.55 29.284374 117.9875 28.846874Q117.425 28.39375 116.40938 28.39375Q115.19063 28.39375 114.675 28.8Q114.15938 29.190624 114.15938 29.721874Q114.15938 30.065624 114.37813 30.346874Q114.58125 30.628124 115.05 30.815624Q115.31563 30.909374 116.59688 31.253124Q118.47188 31.753124 119.20625 32.08125Q119.94063 32.39375 120.3625 33.003124Q120.78438 33.596874 120.78438 34.503124Q120.78438 35.378124 120.26875 36.159374Q119.75313 36.940624 118.78438 37.3625Q117.81563 37.784374 116.59688 37.784374Q114.58125 37.784374 113.51875 36.940624Q112.45625 36.096874 112.15938 34.45625Z" fill-rule="nonzero"/></svg>