<svg version="1.1" viewBox="0.0 0.0 600.0 371.0" fill="none" stroke="none" stroke-linecap="square" stroke-miterlimit="10" width="600" height="371" xmlns:xlink="http://www.w3.org/1999/xlink" xmlns="http://www.w3.org/2000/svg"><path fill="#ffffff" d="M0 0L600.0 0L600.0 371.0L0 371.0L0 0Z" fill-rule="nonzero"/><path fill="#4285f4" d="M300.0 54.916668C382.16156 54.916668 448.76666 121.521774 448.76666 203.68333C448.76666 285.8449 382.16156 352.45 300.0 352.45C217.83844 352.45 151.23334 285.8449 151.23334 203.68333C151.23334 121.521774 217.83844 54.916668 300.0 54.916668L300.0 203.68333Z" fill-rule="nonzero"/><path fill="#1a1a1a" d="M554.04376 332.96564L555.075 333.1219Q555.1375 333.59064 555.4344 333.8094Q555.825 334.10626 556.4969 334.10626Q557.23126 334.10626 557.6219 333.8094Q558.02814 333.5125 558.16876 332.9969Q558.2625 332.66876 558.2469 331.6375Q557.5594 332.45 556.52814 332.45Q555.2469 332.45 554.54376 331.52814Q553.84064 330.59064 553.84064 329.3094Q553.84064 328.41876 554.15314 327.66876Q554.48126 326.90314 555.09064 326.4969Q555.7 326.09064 556.52814 326.09064Q557.6375 326.09064 558.35626 326.98126L558.35626 326.23126L559.325 326.23126L559.325 331.60626Q559.325 333.0594 559.02814 333.66876Q558.73126 334.27814 558.09064 334.6219Q557.45 334.98126 556.5125 334.98126Q555.40314 334.98126 554.71564 334.48126Q554.02814 333.98126 554.04376 332.96564ZM554.91876 329.23126Q554.91876 330.45 555.40314 331.0125Q555.8875 331.575 556.6219 331.575Q557.35626 331.575 557.84064 331.0125Q558.34064 330.45 558.34064 329.2625Q558.34064 328.1219 557.825 327.54376Q557.325 326.96564 556.60626 326.96564Q555.90314 326.96564 555.40314 327.54376Q554.91876 328.10626 554.91876 329.23126ZM560.85626 329.34064Q560.85626 327.60626 561.8094 326.77814Q562.60626 326.09064 563.7625 326.09064Q565.04376 326.09064 565.85626 326.9344Q566.6844 327.7625 566.6844 329.2469Q566.6844 330.45 566.325 331.1375Q565.96564 331.825 565.2625 332.21564Q564.575 332.59064 563.7625 332.59064Q562.46564 332.59064 561.65314 331.7625Q560.85626 330.91876 560.85626 329.34064ZM561.9344 329.34064Q561.9344 330.52814 562.45 331.1219Q562.98126 331.71564 563.7625 331.71564Q564.5594 331.71564 565.075 331.1219Q565.59064 330.52814 565.59064 329.3094Q565.59064 328.15314 565.0594 327.5594Q564.54376 326.96564 563.7625 326.96564Q562.98126 326.96564 562.45 327.5594Q561.9344 328.1375 561.9344 329.34064ZM567.85626 329.34064Q567.85626 327.60626 568.8094 326.77814Q569.60626 326.09064 570.7625 326.09064Q572.04376 326.09064 572.85626 326.9344Q573.6844 327.7625 573.6844 329.2469Q573.6844 330.45 573.325 331.1375Q572.96564 331.825 572.2625 332.21564Q571.575 332.59064 570.7625 332.59064Q569.46564 332.59064 568.65314 331.7625Q567.85626 330.91876 567.85626 329.34064ZM568.9344 329.34064Q568.9344 330.52814 569.45 331.1219Q569.98126 331.71564 570.7625 331.71564Q571.5594 331.71564 572.075 331.1219Q572.59064 330.52814 572.59064 329.3094Q572.59064 328.15314 572.0594 327.5594Q571.54376 326.96564 570.7625 326.96564Q569.98126 326.96564 569.45 327.5594Q568.9344 328.1375 568.9344 329.34064ZM579.27814 332.45L579.27814 331.66876Q578.6844 332.59064 577.54376 332.59064Q576.79376 332.59064 576.16876 332.1844Q575.54376 331.7625 575.2 331.02814Q574.85626 330.29376 574.85626 329.34064Q574.85626 328.41876 575.16876 327.65314Q575.48126 326.8875 576.10626 326.4969Q576.73126 326.09064 577.4969 326.09064Q578.0594 326.09064 578.4969 326.325Q578.9344 326.5594 579.21564 326.9344L579.21564 323.85626L580.2625 323.85626L580.2625 332.45L579.27814 332.45ZM575.95 329.34064Q575.95 330.54376 576.45 331.1375Q576.95 331.71564 577.6375 331.71564Q578.325 331.71564 578.8094 331.15314Q579.29376 330.59064 579.29376 329.4344Q579.29376 328.15314 578.79376 327.5594Q578.3094 326.96564 577.59064 326.96564Q576.8875 326.96564 576.41876 327.54376Q575.95 328.10626 575.95 329.34064Z" fill-rule="nonzero"/><path fill="#9e9e9e" d="M543.91876 349.45L542.8719 349.45L542.8719 342.73126Q542.48126 343.09064 541.85626 343.46564Q541.2469 343.825 540.7625 343.9969L540.7625 342.98126Q541.6375 342.5594 542.29376 341.98126Q542.96564 341.3875 543.2469 340.825L543.91876 340.825L543.91876 349.45ZM546.95 345.21564Q546.95 343.6844 547.2625 342.7625Q547.575 341.825 548.1844 341.325Q548.8094 340.825 549.7469 340.825Q550.4344 340.825 550.95 341.10626Q551.48126 341.3875 551.825 341.91876Q552.16876 342.4344 552.35626 343.1844Q552.54376 343.9344 552.54376 345.21564Q552.54376 346.73126 552.23126 347.65314Q551.9344 348.575 551.3094 349.09064Q550.7 349.59064 549.7469 349.59064Q548.5125 349.59064 547.79376 348.7Q546.95 347.6375 546.95 345.21564ZM548.02814 345.21564Q548.02814 347.325 548.52814 348.02814Q549.02814 348.73126 549.7469 348.73126Q550.48126 348.73126 550.96564 348.02814Q551.46564 347.325 551.46564 345.21564Q551.46564 343.09064 550.96564 342.40314Q550.48126 341.7 549.73126 341.7Q549.0125 341.7 548.575 342.3094Q548.02814 343.09064 548.02814 345.21564ZM553.95 345.21564Q553.95 343.6844 554.2625 342.7625Q554.575 341.825 555.1844 341.325Q555.8094 340.825 556.7469 340.825Q557.4344 340.825 557.95 341.10626Q558.48126 341.3875 558.825 341.91876Q559.16876 342.4344 559.35626 343.1844Q559.54376 343.9344 559.54376 345.21564Q559.54376 346.73126 559.23126 347.65314Q558.9344 348.575 558.3094 349.09064Q557.7 349.59064 556.7469 349.59064Q555.5125 349.59064 554.79376 348.7Q553.95 347.6375 553.95 345.21564ZM555.02814 345.21564Q555.02814 347.325 555.52814 348.02814Q556.02814 348.73126 556.7469 348.73126Q557.48126 348.73126 557.96564 348.02814Q558.46564 347.325 558.46564 345.21564Q558.46564 343.09064 557.96564 342.40314Q557.48126 341.7 556.73126 341.7Q556.0125 341.7 555.575 342.3094Q555.02814 343.09064 555.02814 345.21564ZM561.54376 349.45L561.54376 348.2469L562.7469 348.2469L562.7469 349.45L561.54376 349.45ZM563.95 345.21564Q563.95 343.6844 564.2625 342.7625Q564.575 341.825 565.1844 341.325Q565.8094 340.825 566.7469 340.825Q567.4344 340.825 567.95 341.10626Q568.48126 341.3875 568.825 341.91876Q569.16876 342.4344 569.35626 343.1844Q569.54376 343.9344 569.54376 345.21564Q569.54376 346.73126 569.23126 347.65314Q568.9344 348.575 568.3094 349.09064Q567.7 349.59064 566.7469 349.59064Q565.5125 349.59064 564.79376 348.7Q563.95 347.6375 563.95 345.21564ZM565.02814 345.21564Q565.02814 347.325 565.52814 348.02814Q566.02814 348.73126 566.7469 348.73126Q567.48126 348.73126 567.96564 348.02814Q568.46564 347.325 568.46564 345.21564Q568.46564 343.09064 567.96564 342.40314Q567.48126 341.7 566.73126 341.7Q566.0125 341.7 565.575 342.3094Q565.02814 343.09064 565.02814 345.21564ZM571.15314 342.91876Q571.15314 341.9969 571.60626 341.35626Q572.075 340.71564 572.95 340.71564Q573.7625 340.71564 574.29376 341.29376Q574.825 341.8719 574.825 342.98126Q574.825 344.075 574.27814 344.66876Q573.7469 345.2469 572.96564 345.2469Q572.1844 345.2469 571.66876 344.66876Q571.15314 344.09064 571.15314 342.91876ZM572.98126 341.4344Q572.59064 341.4344 572.325 341.77814Q572.075 342.1219 572.075 343.02814Q572.075 343.85626 572.325 344.2Q572.59064 344.52814 572.98126 344.52814Q573.3875 344.52814 573.6375 344.1844Q573.90314 343.84064 573.90314 342.95Q573.90314 342.10626 573.6375 341.77814Q573.3719 341.4344 572.98126 341.4344ZM572.98126 349.7625L577.6844 340.71564L578.54376 340.71564L573.85626 349.7625L572.98126 349.7625ZM576.7 347.4344Q576.7 346.5125 577.15314 345.8719Q577.6219 345.23126 578.5125 345.23126Q579.325 345.23126 579.85626 345.8094Q580.3875 346.3719 580.3875 347.4969Q580.3875 348.59064 579.84064 349.1844Q579.3094 349.7625 578.5125 349.7625Q577.7469 349.7625 577.21564 349.1844Q576.7 348.60626 576.7 347.4344ZM578.54376 345.95Q578.1375 345.95 577.8719 346.29376Q577.6219 346.6375 577.6219 347.54376Q577.6219 348.35626 577.8875 348.7Q578.15314 349.04376 578.54376 349.04376Q578.9344 349.04376 579.2 348.7Q579.46564 348.35626 579.46564 347.45Q579.46564 346.6219 579.2 346.29376Q578.9344 345.95 578.54376 345.95Z" fill-rule="nonzero"/><path stroke="#757575" stroke-width="1.0" stroke-linecap="butt" d="M581.45 336.95L454.76666 336.95L300.0 345.01166" fill-rule="nonzero"/><path fill="#9e9e9e" d="M302.0 345.01166C302.0 343.9071 301.10458 343.01166 300.0 343.01166C298.89542 343.01166 298.0 343.9071 298.0 345.01166C298.0 346.11624 298.89542 347.01166 300.0 347.01166C301.10458 347.01166 302.0 346.11624 302.0 345.01166" fill-rule="nonzero"/><path fill="#757575" d="M20.409374 37.55L20.409374 23.2375L22.315624 23.2375L22.315624 37.55L20.409374 37.55ZM26.08125 37.55L26.08125 23.2375L28.01875 23.2375L35.534374 34.471874L35.534374 23.2375L37.346874 23.2375L37.346874 37.55L35.409374 37.55L27.89375 26.3L27.89375 37.55L26.08125 37.55ZM39.096874 37.55L39.096874 23.2375L44.4875 23.2375Q45.925 23.2375 46.675 23.3625Q47.721874 23.55 48.440624 24.05Q49.159374 24.534374 49.58125 25.425Q50.01875 26.315624 50.01875 27.378124Q50.01875 29.20625 48.846874 30.471874Q47.690624 31.721874 44.659374 31.721874L40.9875 31.721874L40.9875 37.55L39.096874 37.55ZM40.9875 30.034374L44.690624 30.034374Q46.51875 30.034374 47.284374 29.3625Q48.065624 28.675 48.065624 27.425Q48.065624 26.534374 47.6125 25.89375Q47.159374 25.253124 46.425 25.05Q45.940624 24.925 44.64375 24.925L40.9875 24.925L40.9875 30.034374ZM57.846874 37.55L57.846874 27.175L59.425 27.175L59.425 28.753124Q60.034374 27.64375 60.55 27.3Q61.065624 26.940624 61.675 26.940624Q62.565624 26.940624 63.4875 27.503124L62.878124 29.14375Q62.2375 28.753124 61.596874 28.753124Q61.01875 28.753124 60.55 29.1125Q60.096874 29.45625 59.89375 30.065624Q59.6125 31.003124 59.6125 32.1125L59.6125 37.55L57.846874 37.55ZM71.64375 36.26875Q70.65938 37.096874 69.75313 37.440624Q68.84688 37.784374 67.81563 37.784374Q66.1125 37.784374 65.19063 36.95625Q64.26875 36.1125 64.26875 34.815624Q64.26875 34.05 64.6125 33.425Q64.97188 32.8 65.53438 32.425Q66.09688 32.034374 66.8 31.83125Q67.31563 31.70625 68.3625 31.565624Q70.4875 31.315624 71.4875 30.971874Q71.50313 30.6125 71.50313 30.503124Q71.50313 29.440624 71.00313 28.9875Q70.33125 28.39375 69.00313 28.39375Q67.75313 28.39375 67.15938 28.83125Q66.58125 29.26875 66.3 30.378124L64.58125 30.14375Q64.81563 29.034374 65.34688 28.3625Q65.87813 27.675 66.89375 27.315624Q67.90938 26.940624 69.25313 26.940624Q70.58125 26.940624 71.40938 27.253124Q72.2375 27.565624 72.62813 28.05Q73.01875 28.51875 73.175 29.2375Q73.26875 29.690624 73.26875 30.8625L73.26875 33.20625Q73.26875 35.659374 73.37813 36.315624Q73.4875 36.95625 73.83125 37.55L71.9875 37.55Q71.72188 37.003124 71.64375 36.26875ZM71.4875 32.346874Q70.53438 32.7375 68.6125 33.003124Q67.53438 33.159374 67.08125 33.3625Q66.64375 33.55 66.39375 33.925Q66.14375 34.3 66.14375 34.76875Q66.14375 35.471874 66.675 35.940624Q67.20625 36.409374 68.2375 36.409374Q69.25313 36.409374 70.03438 35.971874Q70.83125 35.51875 71.20625 34.753124Q71.4875 34.14375 71.4875 32.9875L71.4875 32.346874ZM79.70625 35.971874L79.95625 37.534374Q79.22188 37.690624 78.62813 37.690624Q77.675 37.690624 77.14375 37.39375Q76.62813 37.08125 76.40938 36.596874Q76.19063 36.096874 76.19063 34.51875L76.19063 28.55L74.90938 28.55L74.90938 27.175L76.19063 27.175L76.19063 24.6125L77.94063 23.55L77.94063 27.175L79.70625 27.175L79.70625 28.55L77.94063 28.55L77.94063 34.6125Q77.94063 35.3625 78.03438 35.58125Q78.12813 35.784374 78.33125 35.925Q78.55 36.05 78.94063 36.05Q79.22188 36.05 79.70625 35.971874ZM81.87813 25.253124L81.87813 23.2375L83.64375 23.2375L83.64375 25.253124L81.87813 25.253124ZM81.87813 37.55L81.87813 27.175L83.64375 27.175L83.64375 37.55L81.87813 37.55ZM85.8625 37.55L85.8625 27.175L87.45625 27.175L87.45625 28.659374Q88.59688 26.940624 90.75313 26.940624Q91.69063 26.940624 92.47188 27.284374Q93.26875 27.6125 93.65938 28.159374Q94.05 28.70625 94.20625 29.45625Q94.3 29.95625 94.3 31.175L94.3 37.55L92.53438 37.55L92.53438 31.2375Q92.53438 30.159374 92.33125 29.628124Q92.12813 29.096874 91.59688 28.784374Q91.08125 28.471874 90.37813 28.471874Q89.25313 28.471874 88.44063 29.190624Q87.62813 29.89375 87.62813 31.878124L87.62813 37.55L85.8625 37.55ZM95.55 38.409374L97.25313 38.659374Q97.3625 39.45625 97.84688 39.815624Q98.50313 40.3 99.64375 40.3Q100.8625 40.3 101.51875 39.815624Q102.19063 39.33125 102.425 38.45625Q102.56563 37.909374 102.55 36.190624Q101.39375 37.55 99.675 37.55Q97.53438 37.55 96.3625 36.003124Q95.19063 34.45625 95.19063 32.3Q95.19063 30.815624 95.72188 29.565624Q96.26875 28.315624 97.28438 27.628124Q98.31563 26.940624 99.69063 26.940624Q101.51875 26.940624 102.72188 28.425L102.72188 27.175L104.33125 27.175L104.33125 36.14375Q104.33125 38.565624 103.83125 39.565624Q103.34688 40.58125 102.26875 41.159374Q101.20625 41.753124 99.64375 41.753124Q97.8 41.753124 96.64375 40.925Q95.50313 40.096874 95.55 38.409374ZM97.00313 32.175Q97.00313 34.221874 97.81563 35.159374Q98.62813 36.096874 99.84688 36.096874Q101.05 36.096874 101.8625 35.159374Q102.69063 34.221874 102.69063 32.2375Q102.69063 30.33125 101.84688 29.3625Q101.00313 28.39375 99.81563 28.39375Q98.64375 28.39375 97.81563 29.346874Q97.00313 30.3 97.00313 32.175ZM106.15938 34.45625L107.90938 34.175Q108.05 35.221874 108.72188 35.784374Q109.39375 36.33125 110.59688 36.33125Q111.8 36.33125 112.37813 35.846874Q112.97188 35.346874 112.97188 34.690624Q112.97188 34.096874 112.45625 33.753124Q112.09688 33.51875 110.65938 33.159374Q108.72188 32.659374 107.97188 32.315624Q107.2375 31.95625 106.84688 31.33125Q106.45625 30.690624 106.45625 29.925Q106.45625 29.2375 106.76875 28.64375Q107.09688 28.05 107.64375 27.659374Q108.05 27.3625 108.75313 27.159374Q109.47188 26.940624 110.28438 26.940624Q111.50313 26.940624 112.425 27.3Q113.34688 27.64375 113.78438 28.253124Q114.22188 28.846874 114.39375 29.846874L112.675 30.08125Q112.55 29.284374 111.9875 28.846874Q111.425 28.39375 110.40938 28.39375Q109.19063 28.39375 108.675 28.8Q108.15938 29.190624 108.15938 29.721874Q108.15938 30.065624 108.37813 30.346874Q108.58125 30.628124 109.05 30.815624Q109.31563 30.909374 110.59688 31.253124Q112.47188 31.753124 113.20625 32.08125Q113.94063 32.39375 114.3625 33.003124Q114.78438 33.596874 114.78438 34.503124Q114.78438 35.378124 114.26875 36.159374Q113.75313 36.940624 112.78438 37.3625Q111.81563 37.784374 110.59688 37.784374Q108.58125 37.784374 107.51875 36.940624Q106.45625 36.096874 106.15938 34.45625Z" fill-rule="nonzero"/></svg>