<svg version="1.1" viewBox="0.0 0.0 600.0 371.0" fill="none" stroke="none" stroke-linecap="square" stroke-miterlimit="10" width="600" height="371" xmlns:xlink="http://www.w3.org/1999/xlink" xmlns="http://www.w3.org/2000/svg"><path fill="#ffffff" d="M0 0L600.0 0L600.0 371.0L0 371.0L0 0Z" fill-rule="nonzero"/><path fill="#fbbc04" d="M285.94376 55.582207C290.61606 55.138763 295.3067 54.916668 300.0 54.916668L300.0 203.68333Z" fill-rule="nonzero"/><path fill="#ea4335" d="M280.34946 56.220192C282.21005 55.97226 284.07513 55.75956 285.94376 55.582207L300.0 203.68333Z" fill-rule="nonzero"/><path fill="#4285f4" d="M300.0 54.916668C380.24396 54.916668 446.02795 118.557236 448.6851 198.7572C451.34222 278.95715 389.91486 346.8124 309.84686 352.12375C229.77887 357.43512 159.92677 298.28833 151.96704 218.44012C144.0073 138.59192 200.80861 66.81959 280.34946 56.220192L300.0 203.68333Z" fill-rule="nonzero"/><path fill="#1a1a1a" d="M19.346874 65.916664L19.346874 59.697914L20.284374 59.697914L20.284374 60.572914Q20.971874 59.55729 22.26875 59.55729Q22.83125 59.55729 23.3 59.760414Q23.784374 59.96354 24.01875 60.291664Q24.253124 60.61979 24.346874 61.05729Q24.39375 61.354164 24.39375 62.08854L24.39375 65.916664L23.346874 65.916664L23.346874 62.135414Q23.346874 61.479164 23.221874 61.166664Q23.096874 60.854164 22.784374 60.666664Q22.471874 60.46354 22.05 60.46354Q21.378124 60.46354 20.878124 60.90104Q20.39375 61.322914 20.39375 62.510414L20.39375 65.916664L19.346874 65.916664ZM30.596874 63.916664L31.690624 64.041664Q31.440624 64.99479 30.7375 65.52604Q30.034374 66.05729 28.95625 66.05729Q27.596874 66.05729 26.784374 65.21354Q25.9875 64.36979 25.9875 62.854164Q25.9875 61.291664 26.8 60.43229Q27.6125 59.55729 28.89375 59.55729Q30.14375 59.55729 30.925 60.40104Q31.721874 61.24479 31.721874 62.791664Q31.721874 62.885414 31.721874 63.072914L27.08125 63.072914Q27.14375 64.104164 27.659374 64.65104Q28.175 65.18229 28.95625 65.18229Q29.534374 65.18229 29.940624 64.885414Q30.3625 64.572914 30.596874 63.916664ZM27.14375 62.21354L30.6125 62.21354Q30.55 61.416664 30.221874 61.02604Q29.70625 60.416664 28.909374 60.416664Q28.175 60.416664 27.675 60.90104Q27.190624 61.385414 27.14375 62.21354ZM37.596874 63.916664L38.690624 64.041664Q38.440624 64.99479 37.7375 65.52604Q37.034374 66.05729 35.95625 66.05729Q34.596874 66.05729 33.784374 65.21354Q32.9875 64.36979 32.9875 62.854164Q32.9875 61.291664 33.8 60.43229Q34.6125 59.55729 35.89375 59.55729Q37.14375 59.55729 37.925 60.40104Q38.721874 61.24479 38.721874 62.791664Q38.721874 62.885414 38.721874 63.072914L34.08125 63.072914Q34.14375 64.104164 34.659374 64.65104Q35.175 65.18229 35.95625 65.18229Q36.534374 65.18229 36.940624 64.885414Q37.3625 64.572914 37.596874 63.916664ZM34.14375 62.21354L37.6125 62.21354Q37.55 61.416664 37.221874 61.02604Q36.70625 60.416664 35.909374 60.416664Q35.175 60.416664 34.675 60.90104Q34.190624 61.385414 34.14375 62.21354ZM44.378124 65.916664L44.378124 65.135414Q43.784374 66.05729 42.64375 66.05729Q41.89375 66.05729 41.26875 65.65104Q40.64375 65.229164 40.3 64.49479Q39.95625 63.760414 39.95625 62.80729Q39.95625 61.885414 40.26875 61.11979Q40.58125 60.354164 41.20625 59.96354Q41.83125 59.55729 42.596874 59.55729Q43.159374 59.55729 43.596874 59.791664Q44.034374 60.02604 44.315624 60.40104L44.315624 57.322914L45.3625 57.322914L45.3625 65.916664L44.378124 65.916664ZM41.05 62.80729Q41.05 64.010414 41.55 64.604164Q42.05 65.18229 42.7375 65.18229Q43.425 65.18229 43.909374 64.61979Q44.39375 64.05729 44.39375 62.90104Q44.39375 61.61979 43.89375 61.02604Q43.409374 60.43229 42.690624 60.43229Q41.9875 60.43229 41.51875 61.010414Q41.05 61.572914 41.05 62.80729ZM46.925 64.05729L47.95625 63.90104Q48.05 64.52604 48.440624 64.854164Q48.846874 65.18229 49.58125 65.18229Q50.3 65.18229 50.64375 64.90104Q51.003124 64.604164 51.003124 64.197914Q51.003124 63.83854 50.690624 63.635414Q50.471874 63.49479 49.6125 63.27604Q48.45625 62.979164 48.003124 62.77604Q47.565624 62.55729 47.33125 62.18229Q47.096874 61.80729 47.096874 61.33854Q47.096874 60.93229 47.284374 60.572914Q47.471874 60.21354 47.8 59.979164Q48.05 59.80729 48.471874 59.68229Q48.89375 59.55729 49.39375 59.55729Q50.1125 59.55729 50.659374 59.77604Q51.221874 59.979164 51.4875 60.33854Q51.753124 60.697914 51.846874 61.291664L50.815624 61.43229Q50.753124 60.96354 50.409374 60.697914Q50.08125 60.416664 49.45625 60.416664Q48.7375 60.416664 48.425 60.666664Q48.1125 60.90104 48.1125 61.229164Q48.1125 61.43229 48.2375 61.58854Q48.378124 61.760414 48.64375 61.86979Q48.8 61.93229 49.58125 62.135414Q50.70625 62.447914 51.14375 62.635414Q51.58125 62.822914 51.83125 63.18229Q52.08125 63.541664 52.08125 64.08854Q52.08125 64.61979 51.76875 65.08854Q51.471874 65.541664 50.89375 65.80729Q50.315624 66.05729 49.58125 66.05729Q48.3625 66.05729 47.721874 65.55729Q47.096874 65.041664 46.925 64.05729ZM53.925 63.33854L53.925 62.27604L57.175 62.27604L57.175 63.33854L53.925 63.33854ZM58.346874 58.541664L58.346874 57.322914L59.409374 57.322914L59.409374 58.541664L58.346874 58.541664ZM58.346874 65.916664L58.346874 59.697914L59.409374 59.697914L59.409374 65.916664L58.346874 65.916664ZM61.346874 65.916664L61.346874 59.697914L62.284374 59.697914L62.284374 60.572914Q62.58125 60.104164 63.065624 59.83854Q63.55 59.55729 64.175 59.55729Q64.8625 59.55729 65.3 59.83854Q65.75313 60.11979 65.925 60.635414Q66.675 59.55729 67.84688 59.55729Q68.78438 59.55729 69.26875 60.072914Q69.76875 60.572914 69.76875 61.65104L69.76875 65.916664L68.72188 65.916664L68.72188 61.99479Q68.72188 61.36979 68.6125 61.08854Q68.51875 60.80729 68.25313 60.635414Q67.9875 60.46354 67.6125 60.46354Q66.95625 60.46354 66.51875 60.90104Q66.09688 61.33854 66.09688 62.30729L66.09688 65.916664L65.03438 65.916664L65.03438 61.86979Q65.03438 61.166664 64.76875 60.822914Q64.51875 60.46354 63.940624 60.46354Q63.4875 60.46354 63.1125 60.697914Q62.7375 60.93229 62.565624 61.385414Q62.39375 61.83854 62.39375 62.68229L62.39375 65.916664L61.346874 65.916664ZM72.34688 68.30729L72.34688 59.697914L73.3 59.697914L73.3 60.49479Q73.64375 60.02604 74.06563 59.791664Q74.50313 59.55729 75.1125 59.55729Q75.90938 59.55729 76.51875 59.96354Q77.12813 60.36979 77.425 61.11979Q77.7375 61.86979 77.7375 62.760414Q77.7375 63.71354 77.39375 64.479164Q77.06563 65.24479 76.40938 65.65104Q75.75313 66.05729 75.03438 66.05729Q74.50313 66.05729 74.08125 65.83854Q73.65938 65.604164 73.39375 65.27604L73.39375 68.30729L72.34688 68.30729ZM73.3 62.83854Q73.3 64.041664 73.78438 64.61979Q74.26875 65.18229 74.95625 65.18229Q75.65938 65.18229 76.15938 64.58854Q76.65938 63.99479 76.65938 62.74479Q76.65938 61.55729 76.175 60.979164Q75.69063 60.385414 75.00313 60.385414Q74.33125 60.385414 73.81563 61.010414Q73.3 61.635414 73.3 62.83854ZM79.33125 65.916664L79.33125 59.697914L80.28438 59.697914L80.28438 60.635414Q80.64375 59.979164 80.94063 59.77604Q81.25313 59.55729 81.62813 59.55729Q82.15938 59.55729 82.70625 59.885414L82.34688 60.86979Q81.95625 60.635414 81.58125 60.635414Q81.22188 60.635414 80.94063 60.854164Q80.675 61.05729 80.56563 61.43229Q80.37813 61.99479 80.37813 62.65104L80.37813 65.916664L79.33125 65.916664ZM82.95625 62.80729Q82.95625 61.072914 83.90938 60.24479Q84.70625 59.55729 85.8625 59.55729Q87.14375 59.55729 87.95625 60.40104Q88.78438 61.229164 88.78438 62.71354Q88.78438 63.916664 88.425 64.604164Q88.06563 65.291664 87.3625 65.68229Q86.675 66.05729 85.8625 66.05729Q84.56563 66.05729 83.75313 65.229164Q82.95625 64.385414 82.95625 62.80729ZM84.03438 62.80729Q84.03438 63.99479 84.55 64.58854Q85.08125 65.18229 85.8625 65.18229Q86.65938 65.18229 87.175 64.58854Q87.69063 63.99479 87.69063 62.77604Q87.69063 61.61979 87.15938 61.02604Q86.64375 60.43229 85.8625 60.43229Q85.08125 60.43229 84.55 61.02604Q84.03438 61.604164 84.03438 62.80729ZM92.06563 65.916664L89.70625 59.697914L90.81563 59.697914L92.15938 63.416664Q92.3625 64.02604 92.55 64.666664Q92.69063 64.18229 92.94063 63.49479L94.33125 59.697914L95.40938 59.697914L93.05 65.916664L92.06563 65.916664ZM99.59688 63.916664L100.69063 64.041664Q100.44063 64.99479 99.7375 65.52604Q99.03438 66.05729 97.95625 66.05729Q96.59688 66.05729 95.78438 65.21354Q94.9875 64.36979 94.9875 62.854164Q94.9875 61.291664 95.8 60.43229Q96.6125 59.55729 97.89375 59.55729Q99.14375 59.55729 99.925 60.40104Q100.72188 61.24479 100.72188 62.791664Q100.72188 62.885414 100.72188 63.072914L96.08125 63.072914Q96.14375 64.104164 96.65938 64.65104Q97.175 65.18229 97.95625 65.18229Q98.53438 65.18229 98.94063 64.885414Q99.3625 64.572914 99.59688 63.916664ZM96.14375 62.21354L99.6125 62.21354Q99.55 61.416664 99.22188 61.02604Q98.70625 60.416664 97.90938 60.416664Q97.175 60.416664 96.675 60.90104Q96.19063 61.385414 96.14375 62.21354ZM102.34688 65.916664L102.34688 59.697914L103.28438 59.697914L103.28438 60.572914Q103.58125 60.104164 104.06563 59.83854Q104.55 59.55729 105.175 59.55729Q105.8625 59.55729 106.3 59.83854Q106.75313 60.11979 106.925 60.635414Q107.675 59.55729 108.84688 59.55729Q109.78438 59.55729 110.26875 60.072914Q110.76875 60.572914 110.76875 61.65104L110.76875 65.916664L109.72188 65.916664L109.72188 61.99479Q109.72188 61.36979 109.6125 61.08854Q109.51875 60.80729 109.25313 60.635414Q108.9875 60.46354 108.6125 60.46354Q107.95625 60.46354 107.51875 60.90104Q107.09688 61.33854 107.09688 62.30729L107.09688 65.916664L106.03438 65.916664L106.03438 61.86979Q106.03438 61.166664 105.76875 60.822914Q105.51875 60.46354 104.94063 60.46354Q104.4875 60.46354 104.1125 60.697914Q103.7375 60.93229 103.56563 61.385414Q103.39375 61.83854 103.39375 62.68229L103.39375 65.916664L102.34688 65.916664ZM117.59688 63.916664L118.69063 64.041664Q118.44063 64.99479 117.7375 65.52604Q117.03438 66.05729 115.95625 66.05729Q114.59688 66.05729 113.78438 65.21354Q112.9875 64.36979 112.9875 62.854164Q112.9875 61.291664 113.8 60.43229Q114.6125 59.55729 115.89375 59.55729Q117.14375 59.55729 117.925 60.40104Q118.72188 61.24479 118.72188 62.791664Q118.72188 62.885414 118.72188 63.072914L114.08125 63.072914Q114.14375 64.104164 114.65938 64.65104Q115.175 65.18229 115.95625 65.18229Q116.53438 65.18229 116.94063 64.885414Q117.3625 64.572914 117.59688 63.916664ZM114.14375 62.21354L117.6125 62.21354Q117.55 61.416664 117.22188 61.02604Q116.70625 60.416664 115.90938 60.416664Q115.175 60.416664 114.675 60.90104Q114.19063 61.385414 114.14375 62.21354ZM120.34688 65.916664L120.34688 59.697914L121.28438 59.697914L121.28438 60.572914Q121.97188 59.55729 123.26875 59.55729Q123.83125 59.55729 124.3 59.760414Q124.78438 59.96354 125.01875 60.291664Q125.25313 60.61979 125.34688 61.05729Q125.39375 61.354164 125.39375 62.08854L125.39375 65.916664L124.34688 65.916664L124.34688 62.135414Q124.34688 61.479164 124.22188 61.166664Q124.09688 60.854164 123.78438 60.666664Q123.47188 60.46354 123.05 60.46354Q122.37813 60.46354 121.87813 60.90104Q121.39375 61.322914 121.39375 62.510414L121.39375 65.916664L120.34688 65.916664ZM129.64375 64.979164L129.8 65.90104Q129.34688 65.99479 129.00313 65.99479Q128.425 65.99479 128.1125 65.822914Q127.8 65.635414 127.65938 65.33854Q127.53438 65.041664 127.53438 64.08854L127.53438 60.510414L126.76875 60.510414L126.76875 59.697914L127.53438 59.697914L127.53438 58.15104L128.58125 57.52604L128.58125 59.697914L129.64375 59.697914L129.64375 60.510414L128.58125 60.510414L128.58125 64.15104Q128.58125 64.604164 128.62813 64.729164Q128.69063 64.854164 128.81563 64.93229Q128.94063 65.010414 129.175 65.010414Q129.3625 65.010414 129.64375 64.979164Z" fill-rule="nonzero"/><path fill="#9e9e9e" d="M23.01875 82.916664L21.971874 82.916664L21.971874 76.197914Q21.58125 76.55729 20.95625 76.93229Q20.346874 77.291664 19.8625 77.46354L19.8625 76.447914Q20.7375 76.02604 21.39375 75.447914Q22.065624 74.854164 22.346874 74.291664L23.01875 74.291664L23.01875 82.916664ZM26.64375 82.916664L26.64375 81.71354L27.846874 81.71354L27.846874 82.916664L26.64375 82.916664ZM29.05 80.666664L30.159374 80.572914Q30.284374 81.385414 30.721874 81.791664Q31.175 82.197914 31.815624 82.197914Q32.565624 82.197914 33.096874 81.61979Q33.628124 81.041664 33.628124 80.104164Q33.628124 79.197914 33.1125 78.68229Q32.6125 78.15104 31.784374 78.15104Q31.284374 78.15104 30.8625 78.385414Q30.45625 78.61979 30.221874 78.979164L29.2375 78.854164L30.065624 74.447914L34.346874 74.447914L34.346874 75.447914L30.909374 75.447914L30.45625 77.760414Q31.221874 77.21354 32.065624 77.21354Q33.190624 77.21354 33.95625 77.99479Q34.7375 78.77604 34.7375 80.010414Q34.7375 81.166664 34.065624 82.02604Q33.2375 83.05729 31.815624 83.05729Q30.64375 83.05729 29.89375 82.40104Q29.159374 81.74479 29.05 80.666664ZM36.253124 76.385414Q36.253124 75.46354 36.70625 74.822914Q37.175 74.18229 38.05 74.18229Q38.8625 74.18229 39.39375 74.760414Q39.925 75.33854 39.925 76.447914Q39.925 77.541664 39.378124 78.135414Q38.846874 78.71354 38.065624 78.71354Q37.284374 78.71354 36.76875 78.135414Q36.253124 77.55729 36.253124 76.385414ZM38.08125 74.90104Q37.690624 74.90104 37.425 75.24479Q37.175 75.58854 37.175 76.49479Q37.175 77.322914 37.425 77.666664Q37.690624 77.99479 38.08125 77.99479Q38.4875 77.99479 38.7375 77.65104Q39.003124 77.30729 39.003124 76.416664Q39.003124 75.572914 38.7375 75.24479Q38.471874 74.90104 38.08125 74.90104ZM38.08125 83.229164L42.784374 74.18229L43.64375 74.18229L38.95625 83.229164L38.08125 83.229164ZM41.8 80.90104Q41.8 79.979164 42.253124 79.33854Q42.721874 78.697914 43.6125 78.697914Q44.425 78.697914 44.95625 79.27604Q45.4875 79.83854 45.4875 80.96354Q45.4875 82.05729 44.940624 82.65104Q44.409374 83.229164 43.6125 83.229164Q42.846874 83.229164 42.315624 82.65104Q41.8 82.072914 41.8 80.90104ZM43.64375 79.416664Q43.2375 79.416664 42.971874 79.760414Q42.721874 80.104164 42.721874 81.010414Q42.721874 81.822914 42.9875 82.166664Q43.253124 82.510414 43.64375 82.510414Q44.034374 82.510414 44.3 82.166664Q44.565624 81.822914 44.565624 80.916664Q44.565624 80.08854 44.3 79.760414Q44.034374 79.416664 43.64375 79.416664Z" fill-rule="nonzero"/><path stroke="#757575" stroke-width="1.0" stroke-linecap="butt" d="M18.55 70.416664L145.23334 70.416664L293.3158 62.513153" fill-rule="nonzero"/><path fill="#9e9e9e" d="M295.3158 62.513153C295.3158 61.408585 294.42038 60.513153 293.3158 60.513153C292.21124 60.513153 291.3158 61.408585 291.3158 62.513153C291.3158 63.617725 292.21124 64.51315 293.3158 64.51315C294.42038 64.51315 295.3158 63.617725 295.3158 62.513153" fill-rule="nonzero"/><path fill="#1a1a1a" d="M554.04376 332.96564L555.075 333.1219Q555.1375 333.59064 555.4344 333.8094Q555.825 334.10626 556.4969 334.10626Q557.23126 334.10626 557.6219 333.8094Q558.02814 333.5125 558.16876 332.9969Q558.2625 332.66876 558.2469 331.6375Q557.5594 332.45 556.52814 332.45Q555.2469 332.45 554.54376 331.52814Q553.84064 330.59064 553.84064 329.3094Q553.84064 328.41876 554.15314 327.66876Q554.48126 326.90314 555.09064 326.4969Q555.7 326.09064 556.52814 326.09064Q557.6375 326.09064 558.35626 326.98126L558.35626 326.23126L559.325 326.23126L559.325 331.60626Q559.325 333.0594 559.02814 333.66876Q558.73126 334.27814 558.09064 334.6219Q557.45 334.98126 556.5125 334.98126Q555.40314 334.98126 554.71564 334.48126Q554.02814 333.98126 554.04376 332.96564ZM554.91876 329.23126Q554.91876 330.45 555.40314 331.0125Q555.8875 331.575 556.6219 331.575Q557.35626 331.575 557.84064 331.0125Q558.34064 330.45 558.34064 329.2625Q558.34064 328.1219 557.825 327.54376Q557.325 326.96564 556.60626 326.96564Q555.90314 326.96564 555.40314 327.54376Q554.91876 328.10626 554.91876 329.23126ZM560.85626 329.34064Q560.85626 327.60626 561.8094 326.77814Q562.60626 326.09064 563.7625 326.09064Q565.04376 326.09064 565.85626 326.9344Q566.6844 327.7625 566.6844 329.2469Q566.6844 330.45 566.325 331.1375Q565.96564 331.825 565.2625 332.21564Q564.575 332.59064 563.7625 332.59064Q562.46564 332.59064 561.65314 331.7625Q560.85626 330.91876 560.85626 329.34064ZM561.9344 329.34064Q561.9344 330.52814 562.45 331.1219Q562.98126 331.71564 563.7625 331.71564Q564.5594 331.71564 565.075 331.1219Q565.59064 330.52814 565.59064 329.3094Q565.59064 328.15314 565.0594 327.5594Q564.54376 326.96564 563.7625 326.96564Q562.98126 326.96564 562.45 327.5594Q561.9344 328.1375 561.9344 329.34064ZM567.85626 329.34064Q567.85626 327.60626 568.8094 326.77814Q569.60626 326.09064 570.7625 326.09064Q572.04376 326.09064 572.85626 326.9344Q573.6844 327.7625 573.6844 329.2469Q573.6844 330.45 573.325 331.1375Q572.96564 331.825 572.2625 332.21564Q571.575 332.59064 570.7625 332.59064Q569.46564 332.59064 568.65314 331.7625Q567.85626 330.91876 567.85626 329.34064ZM568.9344 329.34064Q568.9344 330.52814 569.45 331.1219Q569.98126 331.71564 570.7625 331.71564Q571.5594 331.71564 572.075 331.1219Q572.59064 330.52814 572.59064 329.3094Q572.59064 328.15314 572.0594 327.5594Q571.54376 326.96564 570.7625 326.96564Q569.98126 326.96564 569.45 327.5594Q568.9344 328.1375 568.9344 329.34064ZM579.27814 332.45L579.27814 331.66876Q578.6844 332.59064 577.54376 332.59064Q576.79376 332.59064 576.16876 332.1844Q575.54376 331.7625 575.2 331.02814Q574.85626 330.29376 574.85626 329.34064Q574.85626 328.41876 575.16876 327.65314Q575.48126 326.8875 576.10626 326.4969Q576.73126 326.09064 577.4969 326.09064Q578.0594 326.09064 578.4969 326.325Q578.9344 326.5594 579.21564 326.9344L579.21564 323.85626L580.2625 323.85626L580.2625 332.45L579.27814 332.45ZM575.95 329.34064Q575.95 330.54376 576.45 331.1375Q576.95 331.71564 577.6375 331.71564Q578.325 331.71564 578.8094 331.15314Q579.29376 330.59064 579.29376 329.4344Q579.29376 328.15314 578.79376 327.5594Q578.3094 326.96564 577.59064 326.96564Q576.8875 326.96564 576.41876 327.54376Q575.95 328.10626 575.95 329.34064Z" fill-rule="nonzero"/><path fill="#9e9e9e" d="M547.10626 347.46564L548.1219 347.3719Q548.2469 348.09064 548.60626 348.41876Q548.98126 348.73126 549.54376 348.73126Q550.02814 348.73126 550.3875 348.5125Q550.7625 348.27814 550.9969 347.91876Q551.23126 347.54376 551.3875 346.91876Q551.54376 346.27814 551.54376 345.6219Q551.54376 345.54376 551.54376 345.40314Q551.23126 345.90314 550.6844 346.23126Q550.1375 346.54376 549.4969 346.54376Q548.41876 346.54376 547.6844 345.77814Q546.95 344.9969 546.95 343.73126Q546.95 342.41876 547.71564 341.6219Q548.4969 340.825 549.65314 340.825Q550.48126 340.825 551.16876 341.27814Q551.8719 341.73126 552.23126 342.575Q552.59064 343.40314 552.59064 344.98126Q552.59064 346.6219 552.23126 347.60626Q551.8875 348.575 551.16876 349.09064Q550.46564 349.59064 549.52814 349.59064Q548.5125 349.59064 547.8719 349.04376Q547.23126 348.48126 547.10626 347.46564ZM551.41876 343.66876Q551.41876 342.7625 550.9344 342.23126Q550.46564 341.7 549.77814 341.7Q549.075 341.7 548.54376 342.27814Q548.02814 342.84064 548.02814 343.7625Q548.02814 344.575 548.52814 345.09064Q549.02814 345.60626 549.7469 345.60626Q550.48126 345.60626 550.95 345.09064Q551.41876 344.575 551.41876 343.66876ZM554.0125 341.98126L554.0125 340.96564L559.575 340.96564L559.575 341.79376Q558.7625 342.66876 557.95 344.1219Q557.15314 345.5594 556.71564 347.09064Q556.3875 348.16876 556.3094 349.45L555.21564 349.45Q555.23126 348.4344 555.60626 346.9969Q555.9969 345.5594 556.7 344.23126Q557.41876 342.90314 558.23126 341.98126L554.0125 341.98126ZM561.54376 349.45L561.54376 348.2469L562.7469 348.2469L562.7469 349.45L561.54376 349.45ZM564.10626 347.46564L565.1219 347.3719Q565.2469 348.09064 565.60626 348.41876Q565.98126 348.73126 566.54376 348.73126Q567.02814 348.73126 567.3875 348.5125Q567.7625 348.27814 567.9969 347.91876Q568.23126 347.54376 568.3875 346.91876Q568.54376 346.27814 568.54376 345.6219Q568.54376 345.54376 568.54376 345.40314Q568.23126 345.90314 567.6844 346.23126Q567.1375 346.54376 566.4969 346.54376Q565.41876 346.54376 564.6844 345.77814Q563.95 344.9969 563.95 343.73126Q563.95 342.41876 564.71564 341.6219Q565.4969 340.825 566.65314 340.825Q567.48126 340.825 568.16876 341.27814Q568.8719 341.73126 569.23126 342.575Q569.59064 343.40314 569.59064 344.98126Q569.59064 346.6219 569.23126 347.60626Q568.8875 348.575 568.16876 349.09064Q567.46564 349.59064 566.52814 349.59064Q565.5125 349.59064 564.8719 349.04376Q564.23126 348.48126 564.10626 347.46564ZM568.41876 343.66876Q568.41876 342.7625 567.9344 342.23126Q567.46564 341.7 566.77814 341.7Q566.075 341.7 565.54376 342.27814Q565.02814 342.84064 565.02814 343.7625Q565.02814 344.575 565.52814 345.09064Q566.02814 345.60626 566.7469 345.60626Q567.48126 345.60626 567.95 345.09064Q568.41876 344.575 568.41876 343.66876ZM571.15314 342.91876Q571.15314 341.9969 571.60626 341.35626Q572.075 340.71564 572.95 340.71564Q573.7625 340.71564 574.29376 341.29376Q574.825 341.8719 574.825 342.98126Q574.825 344.075 574.27814 344.66876Q573.7469 345.2469 572.96564 345.2469Q572.1844 345.2469 571.66876 344.66876Q571.15314 344.09064 571.15314 342.91876ZM572.98126 341.4344Q572.59064 341.4344 572.325 341.77814Q572.075 342.1219 572.075 343.02814Q572.075 343.85626 572.325 344.2Q572.59064 344.52814 572.98126 344.52814Q573.3875 344.52814 573.6375 344.1844Q573.90314 343.84064 573.90314 342.95Q573.90314 342.10626 573.6375 341.77814Q573.3719 341.4344 572.98126 341.4344ZM572.98126 349.7625L577.6844 340.71564L578.54376 340.71564L573.85626 349.7625L572.98126 349.7625ZM576.7 347.4344Q576.7 346.5125 577.15314 345.8719Q577.6219 345.23126 578.5125 345.23126Q579.325 345.23126 579.85626 345.8094Q580.3875 346.3719 580.3875 347.4969Q580.3875 348.59064 579.84064 349.1844Q579.3094 349.7625 578.5125 349.7625Q577.7469 349.7625 577.21564 349.1844Q576.7 348.60626 576.7 347.4344ZM578.54376 345.95Q578.1375 345.95 577.8719 346.29376Q577.6219 346.6375 577.6219 347.54376Q577.6219 348.35626 577.8875 348.7Q578.15314 349.04376 578.54376 349.04376Q578.9344 349.04376 579.2 348.7Q579.46564 348.35626 579.46564 347.45Q579.46564 346.6219 579.2 346.29376Q578.9344 345.95 578.54376 345.95Z" fill-rule="nonzero"/><path stroke="#757575" stroke-width="1.0" stroke-linecap="butt" d="M581.45 336.95L454.76666 336.95L309.35452 344.70175" fill-rule="nonzero"/><path fill="#9e9e9e" d="M311.35452 344.70175C311.35452 343.59717 310.45908 342.70175 309.35452 342.70175C308.24994 342.70175 307.35452 343.59717 307.35452 344.70175C307.35452 345.8063 308.24994 346.70175 309.35452 346.70175C310.45908 346.70175 311.35452 345.8063 311.35452 344.70175" fill-rule="nonzero"/><path fill="#757575" d="M20.01875 37.55L20.01875 23.2375L21.909374 23.2375L21.909374 35.8625L28.95625 35.8625L28.95625 37.55L20.01875 37.55ZM41.315624 32.534374L43.20625 33.003124Q42.6125 35.346874 41.065624 36.58125Q39.51875 37.8 37.26875 37.8Q34.95625 37.8 33.503124 36.8625Q32.065624 35.909374 31.3 34.128124Q30.55 32.33125 30.55 30.284374Q30.55 28.05 31.39375 26.39375Q32.253124 24.721874 33.83125 23.8625Q35.409374 22.9875 37.3 22.9875Q39.45625 22.9875 40.909374 24.08125Q42.378124 25.175 42.95625 27.159374L41.096874 27.596874Q40.596874 26.034374 39.64375 25.33125Q38.70625 24.6125 37.26875 24.6125Q35.6125 24.6125 34.503124 25.409374Q33.39375 26.190624 32.940624 27.534374Q32.503124 28.8625 32.503124 30.26875Q32.503124 32.096874 33.034374 33.471874Q33.565624 34.83125 34.690624 35.503124Q35.815624 36.175 37.1125 36.175Q38.70625 36.175 39.815624 35.253124Q40.925 34.33125 41.315624 32.534374ZM45.096874 37.55L45.096874 23.2375L50.4875 23.2375Q51.925 23.2375 52.675 23.3625Q53.721874 23.55 54.440624 24.05Q55.159374 24.534374 55.58125 25.425Q56.01875 26.315624 56.01875 27.378124Q56.01875 29.20625 54.846874 30.471874Q53.690624 31.721874 50.659374 31.721874L46.9875 31.721874L46.9875 37.55L45.096874 37.55ZM46.9875 30.034374L50.690624 30.034374Q52.51875 30.034374 53.284374 29.3625Q54.065624 28.675 54.065624 27.425Q54.065624 26.534374 53.6125 25.89375Q53.159374 25.253124 52.425 25.05Q51.940624 24.925 50.64375 24.925L46.9875 24.925L46.9875 30.034374ZM63.846874 37.55L63.846874 27.175L65.425 27.175L65.425 28.753124Q66.03438 27.64375 66.55 27.3Q67.06563 26.940624 67.675 26.940624Q68.56563 26.940624 69.4875 27.503124L68.87813 29.14375Q68.2375 28.753124 67.59688 28.753124Q67.01875 28.753124 66.55 29.1125Q66.09688 29.45625 65.89375 30.065624Q65.6125 31.003124 65.6125 32.1125L65.6125 37.55L63.846874 37.55ZM77.64375 36.26875Q76.65938 37.096874 75.75313 37.440624Q74.84688 37.784374 73.81563 37.784374Q72.1125 37.784374 71.19063 36.95625Q70.26875 36.1125 70.26875 34.815624Q70.26875 34.05 70.6125 33.425Q70.97188 32.8 71.53438 32.425Q72.09688 32.034374 72.8 31.83125Q73.31563 31.70625 74.3625 31.565624Q76.4875 31.315624 77.4875 30.971874Q77.50313 30.6125 77.50313 30.503124Q77.50313 29.440624 77.00313 28.9875Q76.33125 28.39375 75.00313 28.39375Q73.75313 28.39375 73.15938 28.83125Q72.58125 29.26875 72.3 30.378124L70.58125 30.14375Q70.81563 29.034374 71.34688 28.3625Q71.87813 27.675 72.89375 27.315624Q73.90938 26.940624 75.25313 26.940624Q76.58125 26.940624 77.40938 27.253124Q78.2375 27.565624 78.62813 28.05Q79.01875 28.51875 79.175 29.2375Q79.26875 29.690624 79.26875 30.8625L79.26875 33.20625Q79.26875 35.659374 79.37813 36.315624Q79.4875 36.95625 79.83125 37.55L77.9875 37.55Q77.72188 37.003124 77.64375 36.26875ZM77.4875 32.346874Q76.53438 32.7375 74.6125 33.003124Q73.53438 33.159374 73.08125 33.3625Q72.64375 33.55 72.39375 33.925Q72.14375 34.3 72.14375 34.76875Q72.14375 35.471874 72.675 35.940624Q73.20625 36.409374 74.2375 36.409374Q75.25313 36.409374 76.03438 35.971874Q76.83125 35.51875 77.20625 34.753124Q77.4875 34.14375 77.4875 32.9875L77.4875 32.346874ZM85.70625 35.971874L85.95625 37.534374Q85.22188 37.690624 84.62813 37.690624Q83.675 37.690624 83.14375 37.39375Q82.62813 37.08125 82.40938 36.596874Q82.19063 36.096874 82.19063 34.51875L82.19063 28.55L80.90938 28.55L80.90938 27.175L82.19063 27.175L82.19063 24.6125L83.94063 23.55L83.94063 27.175L85.70625 27.175L85.70625 28.55L83.94063 28.55L83.94063 34.6125Q83.94063 35.3625 84.03438 35.58125Q84.12813 35.784374 84.33125 35.925Q84.55 36.05 84.94063 36.05Q85.22188 36.05 85.70625 35.971874ZM87.87813 25.253124L87.87813 23.2375L89.64375 23.2375L89.64375 25.253124L87.87813 25.253124ZM87.87813 37.55L87.87813 27.175L89.64375 27.175L89.64375 37.55L87.87813 37.55ZM91.8625 37.55L91.8625 27.175L93.45625 27.175L93.45625 28.659374Q94.59688 26.940624 96.75313 26.940624Q97.69063 26.940624 98.47188 27.284374Q99.26875 27.6125 99.65938 28.159374Q100.05 28.70625 100.20625 29.45625Q100.3 29.95625 100.3 31.175L100.3 37.55L98.53438 37.55L98.53438 31.2375Q98.53438 30.159374 98.33125 29.628124Q98.12813 29.096874 97.59688 28.784374Q97.08125 28.471874 96.37813 28.471874Q95.25313 28.471874 94.44063 29.190624Q93.62813 29.89375 93.62813 31.878124L93.62813 37.55L91.8625 37.55ZM101.55 38.409374L103.25313 38.659374Q103.3625 39.45625 103.84688 39.815624Q104.50313 40.3 105.64375 40.3Q106.8625 40.3 107.51875 39.815624Q108.19063 39.33125 108.425 38.45625Q108.56563 37.909374 108.55 36.190624Q107.39375 37.55 105.675 37.55Q103.53438 37.55 102.3625 36.003124Q101.19063 34.45625 101.19063 32.3Q101.19063 30.815624 101.72188 29.565624Q102.26875 28.315624 103.28438 27.628124Q104.31563 26.940624 105.69063 26.940624Q107.51875 26.940624 108.72188 28.425L108.72188 27.175L110.33125 27.175L110.33125 36.14375Q110.33125 38.565624 109.83125 39.565624Q109.34688 40.58125 108.26875 41.159374Q107.20625 41.753124 105.64375 41.753124Q103.8 41.753124 102.64375 40.925Q101.50313 40.096874 101.55 38.409374ZM103.00313 32.175Q103.00313 34.221874 103.81563 35.159374Q104.62813 36.096874 105.84688 36.096874Q107.05 36.096874 107.8625 35.159374Q108.69063 34.221874 108.69063 32.2375Q108.69063 30.33125 107.84688 29.3625Q107.00313 28.39375 105.81563 28.39375Q104.64375 28.39375 103.81563 29.346874Q103.00313 30.3 103.00313 32.175ZM112.15938 34.45625L113.90938 34.175Q114.05 35.221874 114.72188 35.784374Q115.39375 36.33125 116.59688 36.33125Q117.8 36.33125 118.37813 35.846874Q118.97188 35.346874 118.97188 34.690624Q118.97188 34.096874 118.45625 33.753124Q118.09688 33.51875 116.65938 33.159374Q114.72188 32.659374 113.97188 32.315624Q113.2375 31.95625 112.84688 31.33125Q112.45625 30.690624 112.45625 29.925Q112.45625 29.2375 112.76875 28.64375Q113.09688 28.05 113.64375 27.659374Q114.05 27.3625 114.75313 27.159374Q115.47188 26.940624 116.28438 26.940624Q117.50313 26.940624 118.425 27.3Q119.34688 27.64375 119.78438 28.253124Q120.22188 28.846874 120.39375 29.846874L118.675 30.08125Q118.55 29.284374 117.9875 28.846874Q117.425 28.39375 116.40938 28.39375Q115.19063 28.39375 114.675 28.8Q114.15938 29.190624 114.15938 29.721874Q114.15938 30.065624 114.37813 30.346874Q114.58125 30.628124 115.05 30.815624Q115.31563 30.909374 116.59688 31.253124Q118.47188 31.753124 119.20625 32.08125Q119.94063 32.39375 120.3625 33.003124Q120.78438 33.596874 120.78438 34.503124Q120.78438 35.378124 120.26875 36.159374Q119.75313 36.940624 118.78438 37.3625Q117.81563 37.784374 116.59688 37.784374Q114.58125 37.784374 113.51875 36.940624Q112.45625 36.096874 112.15938 34.45625Z" fill-rule="nonzero"/></svg>